<svg id="Layer_1" data-name="Layer 1" xmlns="http://www.w3.org/2000/svg" viewBox="0 0 632.3 145.2"><defs><style>.cls-1{fill:#242424;}.cls-2{fill:#fff;}.cls-3{fill:#ffe865;}.cls-4,.cls-5{fill:#17468f;}.cls-5{opacity:0.99;isolation:isolate;}</style></defs><title>limestone_logo</title><path class="cls-1" d="M170.1,63.55c0-4.36-.13-11.49-.26-12.68-.13-1.72-.53-2.38-2.51-2.38h-3.17c-.4,0-.53-.4-.53-.66V46.38c0-.4.13-.53.53-.53.79,0,3.17.26,8.72.26,6.6,0,9.38-.26,10-.26s.66.26.66.53V48c0,.4-.13.53-.66.53h-4.09c-2.11,0-2.38.66-2.38,2.64,0,.92-.26,11.09-.26,15.85V72.8c0,1.19,0,15.72.26,18.49,1.45.13,14.79.26,16.91,0,4-.66,8.06-8.72,9-11.36.13-.26.26-.4.53-.26l1.06.4c.26.13.26.26.13.66s-2.91,11.62-3.3,13.47c-.92-.13-6.21-.13-12.15-.13s-12.68-.13-16.24-.13c-2.64,0-4.62.13-6.08.13a24,24,0,0,1-2.64.13c-.53,0-.53-.13-.53-.53V91.81c0-.4.13-.53.53-.53h3.3c2.51,0,2.91-.92,2.91-1.85,0-1.32.26-18.09.26-22.19Z" transform="translate(-7.7 -5.82)"/><path class="cls-1" d="M210.51,74.12c0-2.25-.4-3.57-3.83-4.09-.53-.13-.66-.26-.66-.53v-.66c0-.26.13-.4.53-.53a48.45,48.45,0,0,0,7.26-3.3,3,3,0,0,1,1.32-.4c.4,0,.4.4.4.79-.13,1.19-.13,5.41-.13,11v7.4c0,2.64,0,5,.13,5.81.13,1.32.4,1.72,1.06,1.72h3.17c.53,0,.66.26.66.66v1.19c0,.53-.13.66-.66.66s-3.7-.26-6.47-.26c-4,0-6.6.26-7.26.26-.4,0-.53-.13-.53-.53V91.95c0-.4.26-.53.66-.53h3.3c.79,0,1.06-.26,1.06-1.32.13-2,.13-4.09.13-6.21V74.12Zm-3-20.6a3.78,3.78,0,0,1,4.09-3.57,3.41,3.41,0,0,1,3.57,3.3,3.67,3.67,0,0,1-4,3.7A3.61,3.61,0,0,1,207.48,53.51Z" transform="translate(-7.7 -5.82)"/><path class="cls-1" d="M245.25,76.49c0-5-.92-6.34-2-7.26A7.39,7.39,0,0,0,238.91,68a7.9,7.9,0,0,0-6.47,4,8.08,8.08,0,0,0-.92,4.49V89.83c0,1.06.4,1.72,1.32,1.72h2.38c.66,0,.66.13.66.66v1.06c0,.53,0,.79-.53.79s-2.38-.26-6.21-.26c-3.57,0-5.68.26-6.34.26-.4,0-.53-.13-.53-.66V92.21c0-.53.13-.66.79-.66h2.25c.66,0,.92-.4,1.06-1.72a32.18,32.18,0,0,0,.13-3.57v-12a3.48,3.48,0,0,0-1.85-3.43L223.19,70c-.4-.26-.53-.4-.53-.53V69a.59.59,0,0,1,.4-.53l5.94-3a3.5,3.5,0,0,1,1.32-.4c.4,0,.66.53.66.92l.26,4h.26a13.15,13.15,0,0,1,9.91-5.15,8.17,8.17,0,0,1,7.66,5.15h.4a13.12,13.12,0,0,1,9.91-5.15c2.38,0,4.49.4,6.08,2s3.3,3.17,3.3,8.32V90.1c0,1.06.66,1.32,1.45,1.32h1.85c.66,0,.79.13.79.66v1.19c0,.53-.13.66-.53.66s-2.38-.26-5.55-.26c-3.43,0-5.81.26-6.34.26s-.53-.26-.53-.66V92.08c0-.53.13-.66.92-.66h1.72a1.18,1.18,0,0,0,1.32-1.32c.13-1.58.13-4,.13-5.41v-10c0-2.25-.4-4.23-2-5.41a8.1,8.1,0,0,0-5-1.45,7.54,7.54,0,0,0-5.81,3.57c-1.06,2-.92,3.83-.92,6.87V89.83c0,.92.4,1.58,1.32,1.58h2.25c.66,0,.79.13.79.66v1.06c0,.53-.13.79-.53.79s-2.25-.26-6.08-.26-5.94.26-6.34.26-.53-.26-.53-.66V92.21c0-.53.13-.66.66-.66h2c1.06,0,1.45-.26,1.45-1.19V76.49Z" transform="translate(-7.7 -5.82)"/><path class="cls-1" d="M278.8,75.83a17.09,17.09,0,0,0-.26,3.3c0,6.6,4.23,11.62,9.64,11.62a9.25,9.25,0,0,0,8.19-4.62.73.73,0,0,1,.66-.4l.92.53c.26.13.4.26,0,1.06-1.19,2.64-4.75,7.4-10.7,7.4-3.83,0-8.06-1.19-10.57-4.75s-3-5.94-3-10.7a15.1,15.1,0,0,1,4.23-10.7c2.91-2.91,6.34-3.57,9.64-3.57,7.79,0,9.91,7.26,9.91,9.91,0,.92-.79,1.06-1.85,1.06H278.8Zm10.7-2c1.32,0,1.85-.4,1.85-.92,0-1.58-.79-5.94-5.15-5.94-2.91,0-5.81,2-7.13,7h10.43Z" transform="translate(-7.7 -5.82)"/><path class="cls-1" d="M302.44,92.61a1,1,0,0,1-.4-.92l-1.19-6.47c-.13-.4.13-.53.4-.53l.92-.26c.26-.13.53.13.66.4l1.72,3.3c1.32,2.51,2.25,4.23,5.81,4.23,2.38,0,5.28-1.45,5.28-4.62S314.19,83,309,81.51c-4-1.19-7.92-3.3-7.92-8.58,0-4.62,4.36-8.19,9.51-8.19a11.67,11.67,0,0,1,6.21,1.45c1.06.53,1.19.79,1.19,1.19l1.06,4.75a.67.67,0,0,1-.53.66l-.79.26c-.26.13-.4,0-.66-.4l-2.25-3.17a5.12,5.12,0,0,0-4.75-2.64c-2.51,0-5.15,1.58-5.15,4.49,0,4,3.17,4.62,6.47,5.55,4.89,1.45,8.06,3.43,8.06,8.58-.13,5.41-4.49,8.85-10.3,8.85A10.62,10.62,0,0,1,302.44,92.61Z" transform="translate(-7.7 -5.82)"/><path class="cls-1" d="M331.89,85.34c0,5,2.25,5.94,3.57,5.94a9.07,9.07,0,0,0,4.49-.92c.4-.26.66-.13.79.13l.4.66c.26.26.13.53-.13.79a11.47,11.47,0,0,1-7.53,2.64c-3.3,0-6.6-3.17-6.6-5.68,0-2.77.26-8.72.26-9.64V77.81c0-1.19.13-5.68.13-8.58h-4.09c-.66,0-1.06-.26-1.06-.79s.4-.79,1.19-1.19c1.58-.92,6.87-6.21,7.66-8.45.26-.53.53-.66.92-.66s.66.53.66,1.06l-.4,6.74h9.38c.4,0,.66.4.53.66L341.4,69c-.13.4-.26.53-.66.53H332c-.13,3.17-.26,6.34-.26,9.51v6.34Z" transform="translate(-7.7 -5.82)"/><path class="cls-1" d="M345.62,90c-3.17-3.7-3.7-6.21-3.7-11a14.27,14.27,0,0,1,5.81-10.83,15.38,15.38,0,0,1,9.11-3.3,14.27,14.27,0,0,1,9.51,4,15.08,15.08,0,0,1,4.62,11c0,7.4-6.6,14.79-14.92,14.79A14,14,0,0,1,345.62,90Zm19.55-10.83c0-7.53-5.41-12.28-8.85-12.28A6.42,6.42,0,0,0,351.17,69c-2.64,2.64-3.57,5.41-3.57,10.57,0,3.83.4,6.34,2.51,9.51a7.61,7.61,0,0,0,6.74,3.57C361.87,92.61,365.17,86.27,365.17,79.13Z" transform="translate(-7.7 -5.82)"/><path class="cls-1" d="M400,90.1a1.32,1.32,0,0,0,1.45,1.45h2.11c.66,0,.79.26.79.66v1.06c0,.53-.13.79-.53.79s-2.51-.26-6.47-.26c-3.43,0-5.55.26-6.08.26s-.53-.26-.53-.79V92.21c0-.53.26-.66.92-.66h2c.79,0,1.32-.4,1.32-1.58.13-1.72.13-4,.13-5.68V75.44c0-2.64,0-4.62-2-6.08a7.5,7.5,0,0,0-4.89-1.19,8,8,0,0,0-5.41,2.64,6.78,6.78,0,0,0-1.58,4.62v14c0,1.85.26,2.25,1.58,2.25h1.72c.53,0,.66.26.66.66v1.19c0,.4-.13.66-.53.66s-2.25-.26-5.81-.26-5.55.26-6.08.26-.53-.26-.53-.66V92.34c0-.4.13-.66.66-.66h2c.92,0,1.32-.26,1.32-1.32V74.51a4.13,4.13,0,0,0-2.77-4l-.53-.26c-.53-.26-.53-.4-.53-.66v-.4c0-.4.26-.53.66-.66l5.81-3.3a4.06,4.06,0,0,1,1.19-.53c.4,0,.53.26.53.79l.53,4.09h.13c2-2.38,5.81-4.89,9.25-4.89a10.42,10.42,0,0,1,5.68,1.45,10,10,0,0,1,3.7,6.47V90.1Z" transform="translate(-7.7 -5.82)"/><path class="cls-1" d="M410.21,75.83a17.09,17.09,0,0,0-.26,3.3c0,6.6,4.23,11.62,9.64,11.62a9.25,9.25,0,0,0,8.19-4.62.73.73,0,0,1,.66-.4l.92.53c.26.13.4.26,0,1.06-1.19,2.64-4.75,7.4-10.7,7.4-3.83,0-8.06-1.19-10.57-4.75s-2.91-5.94-2.91-10.7a15.1,15.1,0,0,1,4.23-10.7c2.91-2.91,6.34-3.57,9.64-3.57,7.79,0,9.91,7.26,9.91,9.91,0,.92-.79,1.06-1.85,1.06H410.21Zm10.7-2c1.32,0,1.85-.4,1.85-.92,0-1.58-.79-5.94-5.15-5.94-2.91,0-5.81,2-7.13,7h10.43Z" transform="translate(-7.7 -5.82)"/><path class="cls-1" d="M455.38,88.64c-4.89-4.62-7.26-12.41-7.26-18.89A25.1,25.1,0,0,1,455,51.93a23.31,23.31,0,0,1,16.91-6.87,27.15,27.15,0,0,1,13.6,3.7c.92.53,1.19.53,1.32,0l.53-2c.13-.4.26-.4.92-.4s.79.13.79,1.06c0,1.32,1.32,11.23,1.72,13.08.13.4,0,.66-.26.66l-1.06.26c-.4.13-.53,0-.66-.53a24.44,24.44,0,0,0-5.28-8.32,15.59,15.59,0,0,0-11.75-5.15c-12.15,0-16.91,10.7-16.91,20.6,0,4,1.19,11.49,6.47,17.3,4.62,5.15,8.45,5.68,12.94,5.68a20.5,20.5,0,0,0,16.64-8.58c.26-.4.4-.4.53-.26l.92.66c.26.13.4.26.13.66-4.09,5.81-10.57,11.36-20.08,11.36C464.49,94.85,459.47,92.34,455.38,88.64Z" transform="translate(-7.7 -5.82)"/><path class="cls-1" d="M499,90c-3.17-3.7-3.7-6.21-3.7-11a14.27,14.27,0,0,1,5.81-10.83,15.38,15.38,0,0,1,9.11-3.3,14.27,14.27,0,0,1,9.51,4,15.08,15.08,0,0,1,4.62,11c0,7.4-6.6,14.79-14.92,14.79A14,14,0,0,1,499,90Zm19.55-10.83c0-7.53-5.41-12.28-8.85-12.28A6.42,6.42,0,0,0,504.51,69c-2.64,2.64-3.57,5.41-3.57,10.57,0,3.83.4,6.34,2.51,9.51a7.61,7.61,0,0,0,6.74,3.57C515.21,92.61,518.51,86.27,518.51,79.13Z" transform="translate(-7.7 -5.82)"/><path class="cls-1" d="M535.41,73.72c0,3.57,0,13.74.13,15.85.13,1.19.4,2.11,1.72,2.11h3c.66,0,.79.26.79.66v1.19c0,.4-.13.66-.4.66-.53,0-3.43-.26-7.66-.26s-7,.26-7.66.26c-.4,0-.53-.26-.53-.66V92.34c0-.53.13-.66.92-.66h3.3c.79,0,1.45-.53,1.45-1.72.13-2.11.13-13.74.13-17.57V68c0-4.75-.13-11-.26-12.68-.13-2.25-1.19-3.43-3.43-4.09l-1.32-.53c-.4-.13-.4-.26-.4-.4v-.53c0-.26.26-.4.66-.53a49.26,49.26,0,0,0,7.92-4,2.78,2.78,0,0,1,1.45-.53c.53,0,.66.4.53,1.19,0,3.7-.26,17.7-.26,21.53v6.21Z" transform="translate(-7.7 -5.82)"/><path class="cls-1" d="M551.39,73.72c0,3.57,0,13.74.13,15.85.13,1.19.4,2.11,1.72,2.11h3c.66,0,.79.26.79.66v1.19c0,.4-.13.66-.4.66-.53,0-3.43-.26-7.66-.26s-7,.26-7.66.26c-.4,0-.53-.26-.53-.66V92.34c0-.53.13-.66.92-.66h3.3c.79,0,1.45-.53,1.45-1.72.13-2.11.13-13.74.13-17.57V68c0-4.75-.13-11-.26-12.68-.13-2.25-1.19-3.43-3.43-4.09l-1.32-.53c-.4-.13-.4-.26-.4-.4v-.53c0-.26.26-.4.66-.53a49.26,49.26,0,0,0,7.92-4,2.78,2.78,0,0,1,1.45-.53c.53,0,.66.4.53,1.19,0,3.7-.26,17.7-.26,21.53v6.21Z" transform="translate(-7.7 -5.82)"/><path class="cls-1" d="M563.41,75.83a17.09,17.09,0,0,0-.26,3.3c0,6.6,4.23,11.62,9.64,11.62A9.25,9.25,0,0,0,581,86.13a.73.73,0,0,1,.66-.4l.92.53c.26.13.4.26,0,1.06-1.19,2.64-4.75,7.4-10.7,7.4-3.83,0-8.06-1.19-10.57-4.75s-2.91-5.94-2.91-10.7a15.1,15.1,0,0,1,4.23-10.7C565.53,65.66,569,65,572.26,65c7.79,0,9.91,7.26,9.91,9.91,0,.92-.79,1.06-1.85,1.06H563.41Zm10.7-2c1.32,0,1.85-.4,1.85-.92,0-1.58-.79-5.94-5.15-5.94-2.91,0-5.81,2-7.13,7h10.43Z" transform="translate(-7.7 -5.82)"/><path class="cls-1" d="M586.39,110c-2.38-1.45-3.43-3.3-3.43-5.41,0-3.83,3.83-6.74,7.13-8.06V96.3c-2.77-.66-4.49-2.64-4.49-4.75,0-3.3,3.7-5.55,6.08-6.47v-.13a10.79,10.79,0,0,1-6.34-10.3c0-4.36,4-9.77,11.49-9.77a10.66,10.66,0,0,1,8.45,4c1.85-1.32,4.09-2.64,6.34-2.64s3.3,1.45,3.17,2.77a2.54,2.54,0,0,1-2.64,2.51,3.11,3.11,0,0,1-2.38-1.06,2.93,2.93,0,0,0-1.45-.66,4.53,4.53,0,0,0-2.11.4,12.55,12.55,0,0,1,1.06,5.15,11.3,11.3,0,0,1-2.51,7.26A12.3,12.3,0,0,1,597,86a12.92,12.92,0,0,1-3.43-.4c-1.32.53-3.57,1.85-3.57,3.83,0,2.77,3.43,2.51,7.92,2.25,5.55-.26,8.85.4,11.62,2.38a7.71,7.71,0,0,1,3.3,6.47c0,3.17-1.19,5.81-4.49,8.32-1.72,1.32-5.81,3.17-11.49,3.17C593.52,112.15,589.69,111.89,586.39,110Zm22.32-7c0-4-3-7-9.77-6.6l-6.47.53c-2.11.53-5.41,2.77-5.41,6.47a6.42,6.42,0,0,0,2.64,4.62c2.25,1.58,4.62,1.85,9.51,1.85C601.58,110,609.11,108.19,608.71,103Zm-6.21-28.79c0-2.91-.66-4.75-1.85-6.08a5,5,0,0,0-3.3-1.45,6.11,6.11,0,0,0-4.75,1.85c-2.11,2.25-2.38,5.41-2.38,7.92a8.7,8.7,0,0,0,2.11,5.81A5.3,5.3,0,0,0,596.43,84C600.92,84.15,602.51,78.47,602.51,74.25Z" transform="translate(-7.7 -5.82)"/><path class="cls-1" d="M620.6,75.83a17.09,17.09,0,0,0-.26,3.3c0,6.6,4.23,11.62,9.64,11.62a9.25,9.25,0,0,0,8.19-4.62.73.73,0,0,1,.66-.4l.92.53c.26.13.4.26,0,1.06-1.19,2.64-4.75,7.4-10.7,7.4-3.83,0-8.06-1.19-10.57-4.75s-2.91-5.94-2.91-10.7a15.1,15.1,0,0,1,4.23-10.7c2.91-2.91,6.34-3.57,9.64-3.57,7.79,0,9.91,7.26,9.91,9.91,0,.92-.79,1.06-1.85,1.06H620.6Zm10.7-2c1.32,0,1.85-.4,1.85-.92,0-1.58-.79-5.94-5.15-5.94-2.91,0-5.81,2-7.13,7H631.3Z" transform="translate(-7.7 -5.82)"/><path class="cls-2" d="M148.5,78.52A69.5,69.5,0,1,1,79,8.92a69.48,69.48,0,0,1,69.5,69.6" transform="translate(-7.7 -5.82)"/><path class="cls-3" d="M148.4,78.52A69.5,69.5,0,1,1,78.9,9,69.48,69.48,0,0,1,148.4,78.52Z" transform="translate(-7.7 -5.82)"/><path class="cls-4" d="M80.3,151a72.6,72.6,0,1,1,72.6-72.6A72.72,72.72,0,0,1,80.3,151Zm0-139a66.5,66.5,0,1,0,66.5,66.5A66.53,66.53,0,0,0,80.3,12Z" transform="translate(-7.7 -5.82)"/><path class="cls-4" d="M36.5,129V73.42H34.7v-2.7H32.8v-7.3h2.6V62h-.3v-1.1h-.4v-3H46a85.33,85.33,0,0,1,1.9-8.6c1.7-5.3,7.9-9,11.9-12,1.2-1,12.2-3.8,12.2-3.8l6.6-1.3v-4l-1-1.4-.2-1.1,1.4-1.3-1.3-6.1.7-2.2,2.1-.7,2.1.7.7,2.2-1.4,6.1,1.4,1.2-.2,1.1-1.1,1.4v4.1l6.2,1.3s11.6,3.1,12.5,3.7c6.7,4.6,9.7,6.7,11.6,11.9a43.81,43.81,0,0,1,1.9,8.6h11v3h-.4v1.1h-.4v1.6h2.5v7.3h-1.8v2.7h-2.3v57.8A65.73,65.73,0,0,1,79.1,148c-26.6,0-42.6-19-42.6-19" transform="translate(-7.7 -5.82)"/><path class="cls-2" d="M53.2,82.82A10.16,10.16,0,0,0,57.7,81h1v18.2c0,1.3.2,1.9,1.4,1.9h1.7v1.3H53.2v-1.3h1.7c1.3,0,1.6-.7,1.6-2.3V84.22H53.2Z" transform="translate(-7.7 -5.82)"/><path class="cls-2" d="M69.8,80.62c3.4,0,5.6,2.3,5.6,5,0,2.1-1.3,3.8-3.8,4.9,3,1.3,4.7,3.1,4.7,6,0,3.3-2.6,6.2-6.8,6.2s-6.7-2.8-6.7-5.9c0-2.4,1.6-4.4,4.5-5.5-2.3-1.3-3.5-2.7-3.5-5.2-.1-3.2,2.5-5.5,6-5.5" transform="translate(-7.7 -5.82)"/><path class="cls-4" d="M68.5,91.92c-2.3,1.2-3.8,3.1-3.8,5a4.72,4.72,0,0,0,9.4.3c0-1.8-1.2-3.1-3.6-4.2Z" transform="translate(-7.7 -5.82)"/><path class="cls-4" d="M70.4,90c1.5-1.4,2.9-2.4,2.9-4.3a3.81,3.81,0,0,0-7.6-.1c0,1.7,1.1,2.7,3.2,3.7Z" transform="translate(-7.7 -5.82)"/><polygon class="cls-2" points="78.5 75.2 80.7 75.2 80.7 87.6 84.1 87.6 84.1 89.5 80.7 89.5 80.7 96.6 78.5 96.6 78.5 89.5 69.9 89.5 69.9 86.9 78.5 75.2"/><polygon class="cls-4" points="78.5 87.6 78.5 77.6 71.1 87.6 78.5 87.6"/><path class="cls-2" d="M93.7,81h8.5c.6,0,.8-.1.8-.7h.9v3.2h-9l-.2,5.4a9.75,9.75,0,0,1,3.4-.5c4.4,0,7.1,2.9,7.1,7s-2.9,7.3-6.9,7.3-6.2-3-6.2-4.8a1.37,1.37,0,0,1,1.2-1.5,1.33,1.33,0,0,1,1.1.8c.8,2.4,1.5,4,3.9,4,2.7,0,4.5-2.3,4.5-5.4,0-3.3-2-5.5-5.3-5.5a11.77,11.77,0,0,0-4.3.9Z" transform="translate(-7.7 -5.82)"/><rect class="cls-2" x="28.8" y="68.9" width="86.1" height="1.5"/><rect class="cls-2" x="28.6" y="101.6" width="86.1" height="1.5"/><path class="cls-2" d="M10.8,64.92S8.7,75.42,17.3,78c0,0-8.5,0-7.1,10.4" transform="translate(-7.7 -5.82)"/><path class="cls-4" d="M10.3,91.32c-1.5,0-.5-29.7,1-29.5a3,3,0,0,1,2.7,3.1l-.1,4.4c.6,4.6,3.5,5.4,4.4,5.7a2.9,2.9,0,0,1,2.1,3.3,3,3,0,0,1-3,2.6h0a4.23,4.23,0,0,0-4,3l-.1,4.4a3,3,0,0,1-2.9,2.9C10.4,91.32,10.4,91.32,10.3,91.32Z" transform="translate(-7.7 -5.82)"/><path class="cls-4" d="M150.1,61.82c1.5,0,.6,29.7-1,29.5s-2.1-1.6-2-3.1l-.5-4.4c-.6-4.6-3.5-5.4-4.4-5.7a3,3,0,0,1,.9-5.9h0a4.23,4.23,0,0,0,4-3l.1-4.5a3,3,0,0,1,2.9-2.9Z" transform="translate(-7.7 -5.82)"/><path class="cls-2" d="M89.3,126.52a9.3,9.3,0,1,1-9.3-9.3,9.35,9.35,0,0,1,9.3,9.3" transform="translate(-7.7 -5.82)"/><path class="cls-5" d="M70.7,127.82a8.87,8.87,0,0,1-.1-1.3,14.23,14.23,0,0,1,.1-1.5H89.2v1.5a10.87,10.87,0,0,1-.1,1.3Z" transform="translate(-7.7 -5.82)"/><path class="cls-5" d="M71.2,122.52s.4-.7.8-1.3a8.61,8.61,0,0,1,1.4-1.4h13a8.61,8.61,0,0,1,1.4,1.4,6.09,6.09,0,0,1,.7,1.2H71.2Z" transform="translate(-7.7 -5.82)"/><path class="cls-5" d="M73.6,133.32s-.8-.6-1.4-1.1a11.27,11.27,0,0,1-1-1.2H88.4a5.8,5.8,0,0,1-1,1.2,14.82,14.82,0,0,1-1.4,1.1Z" transform="translate(-7.7 -5.82)"/></svg>