<?xml version="1.0" encoding="utf-8"?>
<!-- Generator: Adobe Illustrator 21.1.0, SVG Export Plug-In . SVG Version: 6.00 Build 0)  -->
<svg version="1.1" id="Layer_1" xmlns="http://www.w3.org/2000/svg" xmlns:xlink="http://www.w3.org/1999/xlink" x="0px" y="0px"
	 viewBox="0 0 648 157" style="enable-background:new 0 0 648 157;" xml:space="preserve">
<style type="text/css">
	.st0{fill:#FFFFFF;}
	.st1{fill:#FFE865;}
	.st2{fill:#17468F;}
	.st3{opacity:0.99;fill:#17468F;enable-background:new    ;}
	.st4{display:none;fill:#17468F;enable-background:new    ;}
	.st5{font-family:'Chalkduster';}
	.st6{font-size:39.6433px;}
	.st7{display:none;opacity:0.25;}
</style>
<g>
	<path class="st0" d="M170.1,63.5c0-4.4-0.1-11.5-0.3-12.7c-0.1-1.7-0.5-2.4-2.5-2.4h-3.2c-0.4,0-0.5-0.4-0.5-0.7v-1.5
		c0-0.4,0.1-0.5,0.5-0.5c0.8,0,3.2,0.3,8.7,0.3c6.6,0,9.4-0.3,10-0.3c0.5,0,0.7,0.3,0.7,0.5V48c0,0.4-0.1,0.5-0.7,0.5h-4.1
		c-2.1,0-2.4,0.7-2.4,2.6c0,0.9-0.3,11.1-0.3,15.8v5.8c0,1.2,0,15.7,0.3,18.5c1.5,0.1,14.8,0.3,16.9,0c4-0.7,8.1-8.7,9-11.4
		c0.1-0.3,0.3-0.4,0.5-0.3l1.1,0.4c0.3,0.1,0.3,0.3,0.1,0.7c-0.3,0.5-2.9,11.6-3.3,13.5c-0.9-0.1-6.2-0.1-12.2-0.1
		c-5.9-0.1-12.7-0.1-16.2-0.1c-2.6,0-4.6,0.1-6.1,0.1c-1.3,0.1-2.1,0.1-2.6,0.1c-0.5,0-0.5-0.1-0.5-0.5v-1.8c0-0.4,0.1-0.5,0.5-0.5
		h3.3c2.5,0,2.9-0.9,2.9-1.8c0-1.3,0.3-18.1,0.3-22.2V63.5z"/>
	<path class="st0" d="M210.5,74.1c0-2.2-0.4-3.6-3.8-4.1c-0.5-0.1-0.7-0.3-0.7-0.5v-0.7c0-0.3,0.1-0.4,0.5-0.5
		c2.1-0.8,4.8-1.8,7.3-3.3c0.5-0.3,0.9-0.4,1.3-0.4s0.4,0.4,0.4,0.8c-0.1,1.2-0.1,5.4-0.1,11v7.4c0,2.6,0,5,0.1,5.8
		c0.1,1.3,0.4,1.7,1.1,1.7h3.2c0.5,0,0.7,0.3,0.7,0.7v1.2c0,0.5-0.1,0.7-0.7,0.7c-0.5,0-3.7-0.3-6.5-0.3c-4,0-6.6,0.3-7.3,0.3
		c-0.4,0-0.5-0.1-0.5-0.5v-1.3c0-0.4,0.3-0.5,0.7-0.5h3.3c0.8,0,1.1-0.3,1.1-1.3c0.1-2,0.1-4.1,0.1-6.2v-9.8H210.5z M207.5,53.5
		c0-1.7,1.5-3.6,4.1-3.6c2.4,0,3.6,1.8,3.6,3.3c0,1.7-1.2,3.7-4,3.7C209.7,57.1,207.5,55.8,207.5,53.5z"/>
	<path class="st0" d="M245.2,76.5c0-5-0.9-6.3-2-7.3c-0.9-0.8-2.8-1.2-4.4-1.2c-1.7,0-4.6,0.9-6.5,4c-0.8,1.3-0.9,2.6-0.9,4.5v13.3
		c0,1.1,0.4,1.7,1.3,1.7h2.4c0.7,0,0.7,0.1,0.7,0.7v1.1c0,0.5,0,0.8-0.5,0.8c-0.7,0-2.4-0.3-6.2-0.3c-3.6,0-5.7,0.3-6.3,0.3
		c-0.4,0-0.5-0.1-0.5-0.7v-1.2c0-0.5,0.1-0.7,0.8-0.7h2.2c0.7,0,0.9-0.4,1.1-1.7c0.1-1.2,0.1-2.4,0.1-3.6v-12c0-1.3-0.3-2.5-1.8-3.4
		l-1.5-0.8c-0.4-0.3-0.5-0.4-0.5-0.5V69c0-0.3,0.3-0.5,0.4-0.5l5.9-3c0.5-0.3,1.1-0.4,1.3-0.4c0.4,0,0.7,0.5,0.7,0.9l0.3,4h0.3
		c2-2.8,6.1-5.2,9.9-5.2c3.6,0,6.2,2,7.7,5.2h0.4c2-2.6,5.8-5.2,9.9-5.2c2.4,0,4.5,0.4,6.1,2c1.6,1.6,3.3,3.2,3.3,8.3v15.1
		c0,1.1,0.7,1.3,1.5,1.3h1.8c0.7,0,0.8,0.1,0.8,0.7v1.2c0,0.5-0.1,0.7-0.5,0.7c-0.5,0-2.4-0.3-5.5-0.3c-3.4,0-5.8,0.3-6.3,0.3
		c-0.4,0-0.5-0.3-0.5-0.7v-1.2c0-0.5,0.1-0.7,0.9-0.7h1.7c0.8,0,1.3-0.4,1.3-1.3c0.1-1.6,0.1-4,0.1-5.4v-10c0-2.2-0.4-4.2-2-5.4
		c-1.2-0.9-2.9-1.5-5-1.5c-2,0-4.8,1.6-5.8,3.6c-1.1,2-0.9,3.8-0.9,6.9v11.6c0,0.9,0.4,1.6,1.3,1.6h2.2c0.7,0,0.8,0.1,0.8,0.7v1.1
		c0,0.5-0.1,0.8-0.5,0.8c-0.5,0-2.2-0.3-6.1-0.3c-3.7,0-5.9,0.3-6.3,0.3s-0.5-0.3-0.5-0.7v-1.1c0-0.5,0.1-0.7,0.7-0.7h2
		c1.1,0,1.5-0.3,1.5-1.2L245.2,76.5L245.2,76.5z"/>
	<path class="st0" d="M278.8,75.8c-0.1,0.7-0.3,1.7-0.3,3.3c0,6.6,4.2,11.6,9.6,11.6c4.1,0,7-2.4,8.2-4.6c0.1-0.3,0.4-0.4,0.7-0.4
		l0.9,0.5c0.3,0.1,0.4,0.3,0,1.1c-1.2,2.6-4.8,7.4-10.7,7.4c-3.8,0-8.1-1.2-10.6-4.8c-2.4-3.4-3-5.9-3-10.7c0-2.6,0.7-7.1,4.2-10.7
		c2.9-2.9,6.3-3.6,9.6-3.6c7.8,0,9.9,7.3,9.9,9.9c0,0.9-0.8,1.1-1.8,1.1h-16.8V75.8z M289.5,73.9c1.3,0,1.8-0.4,1.8-0.9
		c0-1.6-0.8-5.9-5.2-5.9c-2.9,0-5.8,2-7.1,7h10.4V73.9z"/>
	<path class="st0" d="M302.4,92.6c-0.4-0.3-0.4-0.7-0.4-0.9l-1.2-6.5c-0.1-0.4,0.1-0.5,0.4-0.5l0.9-0.3c0.3-0.1,0.5,0.1,0.7,0.4
		l1.7,3.3c1.3,2.5,2.2,4.2,5.8,4.2c2.4,0,5.3-1.5,5.3-4.6c0-3-1.5-4.8-6.6-6.2c-4-1.2-7.9-3.3-7.9-8.6c0-4.6,4.4-8.2,9.5-8.2
		c3.3,0,5,0.8,6.2,1.5c1.1,0.5,1.2,0.8,1.2,1.2l1.1,4.8c0,0.3-0.1,0.5-0.5,0.7l-0.8,0.3c-0.3,0.1-0.4,0-0.7-0.4l-2.2-3.2
		c-0.8-1.3-2.1-2.6-4.8-2.6c-2.5,0-5.2,1.6-5.2,4.5c0,4,3.2,4.6,6.5,5.5c4.9,1.5,8.1,3.4,8.1,8.6c-0.1,5.4-4.5,8.8-10.3,8.8
		C306,94.6,303.2,93.3,302.4,92.6z"/>
	<path class="st0" d="M331.9,85.3c0,5,2.2,5.9,3.6,5.9c1.6,0,3.6-0.3,4.5-0.9c0.4-0.3,0.7-0.1,0.8,0.1l0.4,0.7
		c0.3,0.3,0.1,0.5-0.1,0.8c-0.7,0.7-3.4,2.6-7.5,2.6c-3.3,0-6.6-3.2-6.6-5.7c0-2.8,0.3-8.7,0.3-9.6v-1.5c0-1.2,0.1-5.7,0.1-8.6h-4.1
		c-0.7,0-1.1-0.3-1.1-0.8c0-0.5,0.4-0.8,1.2-1.2c1.6-0.9,6.9-6.2,7.7-8.5c0.3-0.5,0.5-0.7,0.9-0.7c0.5,0,0.7,0.5,0.7,1.1l-0.4,6.7
		h9.4c0.4,0,0.7,0.4,0.5,0.7l-0.7,2.4c-0.1,0.4-0.3,0.5-0.7,0.5H332c-0.1,3.2-0.3,6.3-0.3,9.5v6.3H331.9z"/>
	<path class="st0" d="M345.6,90c-3.2-3.7-3.7-6.2-3.7-11c0-3.4,1.8-7.8,5.8-10.8c3.6-2.6,6.9-3.3,9.1-3.3c3.7,0,7.4,1.8,9.5,4
		c3,3.2,4.6,6.6,4.6,11c0,7.4-6.6,14.8-14.9,14.8C352.6,94.6,348.5,93.3,345.6,90z M365.2,79.1c0-7.5-5.4-12.3-8.8-12.3
		c-1.8,0-3.6,0.4-5.2,2.1c-2.6,2.6-3.6,5.4-3.6,10.6c0,3.8,0.4,6.3,2.5,9.5c1.6,2.2,3.6,3.6,6.7,3.6
		C361.9,92.6,365.2,86.3,365.2,79.1z"/>
	<path class="st0" d="M400,90.1c0,1.1,0.7,1.5,1.5,1.5h2.1c0.7,0,0.8,0.3,0.8,0.7v1.1c0,0.5-0.1,0.8-0.5,0.8c-0.5,0-2.5-0.3-6.5-0.3
		c-3.4,0-5.5,0.3-6.1,0.3c-0.4,0-0.5-0.3-0.5-0.8v-1.1c0-0.5,0.3-0.7,0.9-0.7h2c0.8,0,1.3-0.4,1.3-1.6c0.1-1.7,0.1-4,0.1-5.7v-8.8
		c0-2.6,0-4.6-2-6.1c-1.6-1.2-3.3-1.2-4.9-1.2c-1.1,0-3.4,0.5-5.4,2.6c-1.3,1.5-1.6,3.3-1.6,4.6v14c0,1.8,0.3,2.2,1.6,2.2h1.7
		c0.5,0,0.7,0.3,0.7,0.7v1.2c0,0.4-0.1,0.7-0.5,0.7c-0.5,0-2.2-0.3-5.8-0.3c-3.4,0-5.5,0.3-6.1,0.3c-0.4,0-0.5-0.3-0.5-0.7v-1.2
		c0-0.4,0.1-0.7,0.7-0.7h2c0.9,0,1.3-0.3,1.3-1.3V74.5c0-2-1.1-3.2-2.8-4l-0.5-0.3c-0.5-0.3-0.5-0.4-0.5-0.7v-0.4
		c0-0.4,0.3-0.5,0.7-0.7l5.8-3.3c0.5-0.3,0.9-0.5,1.2-0.5c0.4,0,0.5,0.3,0.5,0.8l0.5,4.1h0.1c2-2.4,5.8-4.9,9.2-4.9
		c2,0,4.1,0.4,5.7,1.5c2,1.3,3.7,4.8,3.7,6.5v17.4H400z"/>
	<path class="st0" d="M410.2,75.8c-0.1,0.7-0.3,1.7-0.3,3.3c0,6.6,4.2,11.6,9.6,11.6c4.1,0,7-2.4,8.2-4.6c0.1-0.3,0.4-0.4,0.7-0.4
		l0.9,0.5c0.3,0.1,0.4,0.3,0,1.1c-1.2,2.6-4.8,7.4-10.7,7.4c-3.8,0-8.1-1.2-10.6-4.8c-2.4-3.4-2.9-5.9-2.9-10.7
		c0-2.6,0.7-7.1,4.2-10.7c2.9-2.9,6.3-3.6,9.6-3.6c7.8,0,9.9,7.3,9.9,9.9c0,0.9-0.8,1.1-1.8,1.1h-16.9V75.8z M420.9,73.9
		c1.3,0,1.8-0.4,1.8-0.9c0-1.6-0.8-5.9-5.2-5.9c-2.9,0-5.8,2-7.1,7h10.4V73.9z"/>
	<path class="st0" d="M455.4,88.6c-4.9-4.6-7.3-12.4-7.3-18.9c0-6.3,2-12.8,6.9-17.8c3.4-3.7,9.5-6.9,16.9-6.9
		c6.2,0,11.2,2.2,13.6,3.7c0.9,0.5,1.2,0.5,1.3,0l0.5-2c0.1-0.4,0.3-0.4,0.9-0.4s0.8,0.1,0.8,1.1c0,1.3,1.3,11.2,1.7,13.1
		c0.1,0.4,0,0.7-0.3,0.7l-1.1,0.3c-0.4,0.1-0.5,0-0.7-0.5c-0.9-2.2-2.4-5.4-5.3-8.3c-2.8-2.9-6.5-5.2-11.8-5.2
		c-12.2,0-16.9,10.7-16.9,20.6c0,4,1.2,11.5,6.5,17.3c4.6,5.2,8.5,5.7,12.9,5.7c7.7,0,13.6-4.2,16.6-8.6c0.3-0.4,0.4-0.4,0.5-0.3
		l0.9,0.7c0.3,0.1,0.4,0.3,0.1,0.7c-4.1,5.8-10.6,11.4-20.1,11.4C464.5,94.9,459.5,92.3,455.4,88.6z"/>
	<path class="st0" d="M499,90c-3.2-3.7-3.7-6.2-3.7-11c0-3.4,1.8-7.8,5.8-10.8c3.6-2.6,6.9-3.3,9.1-3.3c3.7,0,7.4,1.8,9.5,4
		c3,3.2,4.6,6.6,4.6,11c0,7.4-6.6,14.8-14.9,14.8C506,94.6,501.9,93.3,499,90z M518.5,79.1c0-7.5-5.4-12.3-8.8-12.3
		c-1.8,0-3.6,0.4-5.2,2.1c-2.6,2.6-3.6,5.4-3.6,10.6c0,3.8,0.4,6.3,2.5,9.5c1.6,2.2,3.6,3.6,6.7,3.6
		C515.2,92.6,518.5,86.3,518.5,79.1z"/>
	<path class="st0" d="M535.4,73.7c0,3.6,0,13.7,0.1,15.8c0.1,1.2,0.4,2.1,1.7,2.1h3c0.7,0,0.8,0.3,0.8,0.7v1.2
		c0,0.4-0.1,0.7-0.4,0.7c-0.5,0-3.4-0.3-7.7-0.3c-4.4,0-7,0.3-7.7,0.3c-0.4,0-0.5-0.3-0.5-0.7v-1.2c0-0.5,0.1-0.7,0.9-0.7h3.3
		c0.8,0,1.5-0.5,1.5-1.7c0.1-2.1,0.1-13.7,0.1-17.6V68c0-4.8-0.1-11-0.3-12.7c-0.1-2.2-1.2-3.4-3.4-4.1l-1.3-0.5
		c-0.4-0.1-0.4-0.3-0.4-0.4v-0.5c0-0.3,0.3-0.4,0.7-0.5c2.4-1.1,5.4-2.2,7.9-4c0.7-0.4,1.1-0.5,1.5-0.5c0.5,0,0.7,0.4,0.5,1.2
		c0,3.7-0.3,17.7-0.3,21.5v6.2H535.4z"/>
	<path class="st0" d="M551.4,73.7c0,3.6,0,13.7,0.1,15.8c0.1,1.2,0.4,2.1,1.7,2.1h3c0.7,0,0.8,0.3,0.8,0.7v1.2
		c0,0.4-0.1,0.7-0.4,0.7c-0.5,0-3.4-0.3-7.7-0.3c-4.4,0-7,0.3-7.7,0.3c-0.4,0-0.5-0.3-0.5-0.7v-1.2c0-0.5,0.1-0.7,0.9-0.7h3.3
		c0.8,0,1.5-0.5,1.5-1.7c0.1-2.1,0.1-13.7,0.1-17.6V68c0-4.8-0.1-11-0.3-12.7c-0.1-2.2-1.2-3.4-3.4-4.1l-1.3-0.5
		c-0.4-0.1-0.4-0.3-0.4-0.4v-0.5c0-0.3,0.3-0.4,0.7-0.5c2.4-1.1,5.4-2.2,7.9-4c0.7-0.4,1.1-0.5,1.5-0.5c0.5,0,0.7,0.4,0.5,1.2
		c0,3.7-0.3,17.7-0.3,21.5v6.2H551.4z"/>
	<path class="st0" d="M563.4,75.8c-0.1,0.7-0.3,1.7-0.3,3.3c0,6.6,4.2,11.6,9.6,11.6c4.1,0,7-2.4,8.2-4.6c0.1-0.3,0.4-0.4,0.7-0.4
		l0.9,0.5c0.3,0.1,0.4,0.3,0,1.1c-1.2,2.6-4.8,7.4-10.7,7.4c-3.8,0-8.1-1.2-10.6-4.8c-2.4-3.4-2.9-5.9-2.9-10.7
		c0-2.6,0.7-7.1,4.2-10.7c2.9-2.9,6.3-3.6,9.6-3.6c7.8,0,9.9,7.3,9.9,9.9c0,0.9-0.8,1.1-1.8,1.1h-16.9V75.8z M574.1,73.9
		c1.3,0,1.8-0.4,1.8-0.9c0-1.6-0.8-5.9-5.2-5.9c-2.9,0-5.8,2-7.1,7h10.4V73.9z"/>
	<path class="st0" d="M586.4,110c-2.4-1.5-3.4-3.3-3.4-5.4c0-3.8,3.8-6.7,7.1-8.1v-0.3c-2.8-0.7-4.5-2.6-4.5-4.8
		c0-3.3,3.7-5.5,6.1-6.5v-0.1c-2.6-1.2-6.3-4.2-6.3-10.3c0-4.4,4-9.8,11.5-9.8c5.2,0,7.8,3.2,8.5,4c1.8-1.3,4.1-2.6,6.3-2.6
		c2.2,0,3.3,1.5,3.2,2.8c0,1.3-1.1,2.5-2.6,2.5c-1.2,0-1.8-0.5-2.4-1.1c-0.4-0.3-0.9-0.7-1.5-0.7c-0.5,0-1.3,0-2.1,0.4
		c0.5,1.3,1.1,2.8,1.1,5.2c0,2.6-0.8,5.2-2.5,7.3c-1.7,2-5.5,3.4-7.8,3.4c-1.5,0-2.4-0.1-3.4-0.4c-1.3,0.5-3.6,1.8-3.6,3.8
		c0,2.8,3.4,2.5,7.9,2.2c5.5-0.3,8.8,0.4,11.6,2.4c2.9,2.1,3.3,4.9,3.3,6.5c0,3.2-1.2,5.8-4.5,8.3c-1.7,1.3-5.8,3.2-11.5,3.2
		C593.5,112.2,589.7,111.9,586.4,110z M608.7,103c0-4-3-7-9.8-6.6l-6.5,0.5c-2.1,0.5-5.4,2.8-5.4,6.5c0,1.7,1.3,3.7,2.6,4.6
		c2.2,1.6,4.6,1.8,9.5,1.8C601.6,110,609.1,108.2,608.7,103z M602.5,74.2c0-2.9-0.7-4.8-1.8-6.1c-0.9-0.9-2.2-1.5-3.3-1.5
		c-1.6,0-3.2,0.3-4.8,1.8c-2.1,2.2-2.4,5.4-2.4,7.9c0,2.2,0.8,4.4,2.1,5.8c1.2,1.2,2.4,1.7,4.1,1.7
		C600.9,84.2,602.5,78.5,602.5,74.2z"/>
	<path class="st0" d="M620.6,75.8c-0.1,0.7-0.3,1.7-0.3,3.3c0,6.6,4.2,11.6,9.6,11.6c4.1,0,7-2.4,8.2-4.6c0.1-0.3,0.4-0.4,0.7-0.4
		l0.9,0.5c0.3,0.1,0.4,0.3,0,1.1c-1.2,2.6-4.8,7.4-10.7,7.4c-3.8,0-8.1-1.2-10.6-4.8c-2.4-3.4-2.9-5.9-2.9-10.7
		c0-2.6,0.7-7.1,4.2-10.7c2.9-2.9,6.3-3.6,9.6-3.6c7.8,0,9.9,7.3,9.9,9.9c0,0.9-0.8,1.1-1.8,1.1h-16.9V75.8z M631.3,73.9
		c1.3,0,1.8-0.4,1.8-0.9c0-1.6-0.8-5.9-5.2-5.9c-2.9,0-5.8,2-7.1,7h10.4V73.9z"/>
</g>
<g>
	<path class="st0" d="M148.5,78.5c0,38.4-31.1,69.5-69.5,69.5S9.5,116.9,9.5,78.5S40.6,8.9,79,8.9S148.5,40.1,148.5,78.5"/>
	<g>
		<path class="st0" d="M80.3,153.6c-41.4,0-75.2-33.8-75.2-75.2S38.9,3.2,80.3,3.2s75.2,33.8,75.2,75.2
			C155.5,120,121.7,153.6,80.3,153.6z M80.3,9.6c-38,0-68.9,30.9-68.9,68.9s30.9,68.9,68.9,68.9s68.9-30.9,68.9-68.9
			S118.3,9.6,80.3,9.6z"/>
		<path class="st1" d="M148.4,78.5c0,38.4-31.1,69.5-69.5,69.5S9.4,116.9,9.4,78.5S40.5,9,78.9,9C117.2,8.9,148.4,40.1,148.4,78.5z"
			/>
		<path class="st2" d="M80.3,151c-40,0-72.6-32.6-72.6-72.6S40.3,5.8,80.3,5.8s72.6,32.6,72.6,72.6C152.9,118.5,120.3,151,80.3,151z
			 M80.3,12c-36.7,0-66.5,29.8-66.5,66.5S43.6,145,80.3,145s66.5-29.8,66.5-66.5S117,12,80.3,12z"/>
	</g>
	<path class="st2" d="M36.5,129V73.4h-1.8v-2.7h-1.9v-7.3h2.6V62h-0.3v-1.1h-0.4v-3H46c0.4-1.7,0.8-5.1,1.9-8.6
		c1.7-5.3,7.9-9,11.9-12c1.2-1,12.2-3.8,12.2-3.8l6.6-1.3v-4l-1-1.4l-0.2-1.1l1.4-1.3l-1.3-6.1l0.7-2.2l2.1-0.7l2.1,0.7l0.7,2.2
		l-1.4,6.1l1.4,1.2l-0.2,1.1l-1.1,1.4v4.1l6.2,1.3c0,0,11.6,3.1,12.5,3.7c6.7,4.6,9.7,6.7,11.6,11.9c1.3,3.7,1.4,5.8,1.9,8.6h11v3
		h-0.4v1.1h-0.4v1.6h2.5v7.3h-1.8v2.7h-2.3v38v19.8c0,0-16.8,16.8-43.5,16.8C52.5,148,36.5,129,36.5,129"/>
	<path class="st0" d="M53.2,82.8c1.8-0.3,3.3-0.9,4.5-1.8h1v18.2c0,1.3,0.2,1.9,1.4,1.9h1.7v1.3h-8.6v-1.3h1.7
		c1.3,0,1.6-0.7,1.6-2.3V84.2h-3.3C53.2,84.2,53.2,82.8,53.2,82.8z"/>
	<path class="st0" d="M69.8,80.6c3.4,0,5.6,2.3,5.6,5c0,2.1-1.3,3.8-3.8,4.9c3,1.3,4.7,3.1,4.7,6c0,3.3-2.6,6.2-6.8,6.2
		c-4.2,0-6.7-2.8-6.7-5.9c0-2.4,1.6-4.4,4.5-5.5c-2.3-1.3-3.5-2.7-3.5-5.2C63.7,82.9,66.3,80.6,69.8,80.6"/>
	<path class="st2" d="M68.5,91.9c-2.3,1.2-3.8,3.1-3.8,5c0,2.3,1.9,4.5,4.7,4.5c2.8,0,4.7-2.3,4.7-4.2c0-1.8-1.2-3.1-3.6-4.2
		L68.5,91.9z"/>
	<path class="st2" d="M70.4,90c1.5-1.4,2.9-2.4,2.9-4.3c0-2-1.6-3.6-3.8-3.6c-2.1,0-3.8,1.5-3.8,3.5c0,1.7,1.1,2.7,3.2,3.7L70.4,90z
		"/>
	<polygon class="st0" points="86.2,81 88.4,81 88.4,93.4 91.8,93.4 91.8,95.3 88.4,95.3 88.4,102.4 86.2,102.4 86.2,95.3 77.6,95.3 
		77.6,92.7 	"/>
	<polygon class="st2" points="86.2,93.4 86.2,83.4 78.8,93.4 	"/>
	<path class="st0" d="M93.7,81h8.5c0.6,0,0.8-0.1,0.8-0.7h0.9v3.2h-9l-0.2,5.4c0.7-0.3,2-0.5,3.4-0.5c4.4,0,7.1,2.9,7.1,7
		s-2.9,7.3-6.9,7.3c-3.9,0-6.2-3-6.2-4.8c0-0.8,0.5-1.5,1.2-1.5c0.4,0,1,0.4,1.1,0.8c0.8,2.4,1.5,4,3.9,4c2.7,0,4.5-2.3,4.5-5.4
		c0-3.3-2-5.5-5.3-5.5c-1.5,0-3.1,0.4-4.3,0.9L93.7,81z"/>
	<rect x="36.5" y="74.7" class="st0" width="86.1" height="1.5"/>
	<rect x="36.3" y="107.4" class="st0" width="86.1" height="1.5"/>
	<path class="st0" d="M10.8,64.9c0,0-2.1,10.5,6.5,13.1c0,0-8.5,0-7.1,10.4"/>
	<path class="st2" d="M10.3,91.3c-1.5,0-0.5-29.7,1-29.5c1.6,0.2,2.7,1.5,2.7,3.1l-0.1,4.4c0.6,4.6,3.5,5.4,4.4,5.7
		c1.4,0.4,2.4,1.8,2.1,3.3c-0.2,1.5-1.5,2.6-3,2.6l0,0c-0.5,0-3.1,0.2-4,3l-0.1,4.4C13.3,89.9,12,91.1,10.3,91.3
		C10.4,91.3,10.4,91.3,10.3,91.3z"/>
	<path class="st2" d="M150.1,61.8c1.5,0,0.6,29.7-1,29.5c-1.6-0.2-2.1-1.6-2-3.1l-0.5-4.4c-0.6-4.6-3.5-5.4-4.4-5.7
		c-1.4-0.4-2.3-1.8-2.1-3.3s1.5-2.6,3-2.6l0,0c0.5,0,3.1-0.2,4-3l0.1-4.5C147.2,63.1,148.5,61.9,150.1,61.8
		C150,61.8,150.1,61.8,150.1,61.8z"/>
	<path class="st0" d="M89.3,126.5c0,5.1-4.2,9.3-9.3,9.3c-5.1,0-9.3-4.2-9.3-9.3s4.2-9.3,9.3-9.3C85.1,117.2,89.3,121.3,89.3,126.5"
		/>
	<path class="st3" d="M70.7,127.8c0,0-0.1-0.6-0.1-1.3s0.1-1.5,0.1-1.5h18.5c0,0,0,0.8,0,1.5c0,0.6-0.1,1.3-0.1,1.3H70.7z"/>
	<path class="st3" d="M71.2,122.5c0,0,0.4-0.7,0.8-1.3s1.4-1.4,1.4-1.4h13c0,0,1,0.8,1.4,1.4c0.4,0.5,0.7,1.2,0.7,1.2H71.2V122.5z"
		/>
	<path class="st3" d="M73.6,133.3c0,0-0.8-0.6-1.4-1.1c-0.5-0.5-1-1.2-1-1.2h17.2c0,0-0.5,0.8-1,1.2c-0.4,0.4-1.4,1.1-1.4,1.1H73.6z
		"/>
</g>
<text transform="matrix(1 -1.318967e-03 1.318967e-03 1 165.8701 43.6869)" class="st4 st5 st6">my</text>
<g id="tbzdIQ_1_" class="st7">
	
		<image style="display:inline;overflow:visible;" width="365" height="90" id="tbzdIQ" xlink:href="7C286CF4F5253C97.jpg"  transform="matrix(1.7396 0 0 1.6248 5.0443 4.5228)">
	</image>
</g>
</svg>
