<svg id="Layer_1" data-name="Layer 1" xmlns="http://www.w3.org/2000/svg" viewBox="0 0 428 512"><defs><style>.cls-1{fill:#e2e5e7;}.cls-2{fill:#b0b7bd;}.cls-3{fill:#cad1d8;}.cls-4{fill:#f15642;}.cls-5{fill:#fff;}</style></defs><title>icon-pdf</title><path class="cls-1" d="M128,0A32.09,32.09,0,0,0,96,32V480a32.09,32.09,0,0,0,32,32H448a32.09,32.09,0,0,0,32-32V128L352,0Z" transform="translate(-52)"/><path class="cls-2" d="M384,128h96L352,0V96A32.09,32.09,0,0,0,384,128Z" transform="translate(-52)"/><polygon class="cls-3" points="428 224 332 128 428 128 428 224"/><path class="cls-4" d="M436,416a16,16,0,0,1-16,16H68a16,16,0,0,1-16-16V256a16,16,0,0,1,16-16H420a16,16,0,0,1,16,16Z" transform="translate(-52)"/><path class="cls-5" d="M121.74,303.15a8.81,8.81,0,0,1,8.69-8.83H160c16.64,0,31.62,11.14,31.62,32.48,0,20.22-15,31.49-31.62,31.49H138.62v16.89c0,5.64-3.58,8.82-8.19,8.82a8.62,8.62,0,0,1-8.69-8.82Zm16.88,7.28V342.3H160c8.58,0,15.36-7.56,15.36-15.5,0-8.94-6.78-16.37-15.36-16.37Z" transform="translate(-52)"/><path class="cls-5" d="M216.66,384c-4.23,0-8.84-2.3-8.84-7.92V303.41c0-4.59,4.61-7.94,8.84-7.94H246c58.47,0,57.19,88.53,1.15,88.53Zm8.06-72.91V368.4H246c34.55,0,36.08-57.31,0-57.31Z" transform="translate(-52)"/><path class="cls-5" d="M323.87,312.11v20.34H356.5c4.6,0,9.21,4.61,9.21,9.07,0,4.22-4.61,7.68-9.21,7.68H323.87v26.86a7.58,7.58,0,0,1-7.66,7.92c-5.63,0-9.07-3.44-9.07-7.92V303.39c0-4.59,3.45-7.93,9.07-7.93h44.91c5.63,0,9,3.34,9,7.93a8.84,8.84,0,0,1-9,8.71H323.87Z" transform="translate(-52)"/><path class="cls-3" d="M419,432H95.88v16H419c9.36,0,17-7.2,17-16V416C436,424.8,428.35,432,419,432Z" transform="translate(-52)"/></svg>