<svg id="Layer_1" data-name="Layer 1" xmlns="http://www.w3.org/2000/svg" viewBox="0 0 468.41 488.41"><defs><style>.cls-1,.cls-2{fill:#284782;}.cls-1{stroke:#000;stroke-miterlimit:10;}.cls-3{fill:#fff;}</style></defs><title>lc-portal</title><path class="cls-1" d="M531.2,300c-41-100.16-153.74-167.76-276-141.59C137.75,183.55,55.9,292.85,64.35,413.3A243.68,243.68,0,0,0,290.56,639.54c112.27,7.87,203-61.64,236.63-139.11-24.09,38.6-56.62,75.39-68.58,77v-69H166.79v62.82l-1.64.93c-9.95-10.24-20.67-19.83-29.71-30.82C91.67,488.2,74.81,427.27,85.87,359.22c8.87-54.57,34.85-100.15,77.54-135.14,56-45.87,120.56-63.23,192-52.21,61.22,9.44,111.49,38.91,149.56,88C515.54,273.42,523.92,288.71,531.2,300Zm-370.39,78,0.65,8.31,5.63,0.78c-0.84,5.09,2.68,4.19,5.44,4.2q35,0,70,0,104.72,0,209.44,0c2,0,5.57,0,5.66-.56,0.87-5,5-3.82,7.92-4.45,1.82-8,1.82-8,6.9-9.95V354.44c-1-.15-1.6-0.32-2.25-0.35-7.16-.37-7.22-0.73-4.94-7.46,1.2-3.55,1.39-7.43,2.17-11.93H430.09c-0.51-2.79-1-5.05-1.32-7.34-2.74-19.45-8.58-37.31-25.76-49.13-7.5-5.16-14.63-11.58-23-14.63-14.57-5.34-29.93-8.55-45-12.58-4.74-1.27-9.54-2.28-14.5-3.46,0.56-6.79-1.7-13.4,3.17-19.09,0.7-.82.53-3.63-0.26-4.28-3.36-2.75-3.06-5.78-2-9.41a70.7,70.7,0,0,0,2.82-12.57c0.43-3.9-.15-7.81-4.27-10.08-4-2.18-8.58-1.84-11,.92-2.13,2.4-2.59,7-2.38,10.6,0.29,4.9,2.08,9.68,2.86,14.58a6,6,0,0,1-1.26,4.67c-2.88,2.7-1.8,4.81-.53,7.9,1.56,3.78,2,8.11,2.44,12.25,0.82,7.57-5.74,5-9.32,6.33-2.45.92-5.16,1.13-7.74,1.75-23.69,5.65-47.61,10.3-66.67,27.66-10.55,9.61-20,19.33-22.82,33.92-1.05,5.53-2.58,11-3.22,16.56-0.52,4.5-2.5,5.76-6.79,5.6-8.15-.29-16.33-0.11-24.49-0.07-2.58,0-5.17.24-8.58,0.41,0.7,3.89.93,7.17,1.91,10.21,2.65,8.2,2.76,8.19-6.07,8.8a2.86,2.86,0,0,0-.91.49v22.1ZM458.34,501.71V397.57H167.58V501.71H458.34Z" transform="translate(-63.25 -152.24)"/><path class="cls-2" d="M531.2,300c-7.28-11.28-15.66-26.56-26.21-40.15-38.07-49-88.33-78.51-149.56-88-71.47-11-136.08,6.34-192,52.21-42.69,35-68.67,80.57-77.54,135.14-11.06,68,5.81,129,49.57,182.18,9,11,19.76,20.58,29.71,30.82l1.64-.93V508.47H458.61v69c12-1.62,44.5-38.4,68.58-77-33.68,77.47-124.36,147-236.63,139.11A243.68,243.68,0,0,1,64.35,413.3c-8.45-120.44,73.4-229.75,190.89-254.91C377.46,132.22,490.21,199.82,531.2,300Zm-248,271.93c0.69,9.57,2.07,10.91,10.66,10.91h41.91c7.7,0,9.89-2.48,9.32-10.91h-61.9Zm62.27-9.61c-0.62-8.37-1.2-8.95-8.48-9q-22.93,0-45.87,0c-6.64,0-8.08,1.69-7.54,8.95h61.89Zm-52.89-17.9h43.83C324.17,532.14,303.7,532.09,292.55,544.4Zm0.84,46.35c10.85,11.11,31.86,11.06,41.62,0H293.39Z" transform="translate(-63.25 -152.24)"/><path class="cls-2" d="M160.8,377.93l-5.34-1.11v-22.1a2.86,2.86,0,0,1,.91-0.49c8.82-.61,8.72-0.6,6.07-8.8-1-3-1.21-6.32-1.91-10.21,3.42-.17,6-0.39,8.58-0.41,8.16,0,16.34-.23,24.49.07,4.3,0.15,6.27-1.1,6.79-5.6,0.65-5.57,2.17-11,3.22-16.56,2.78-14.58,12.27-24.31,22.82-33.92,19.06-17.36,43-22,66.67-27.66,2.58-.61,5.29-0.83,7.74-1.75,3.58-1.34,10.14,1.23,9.32-6.33-0.45-4.14-.89-8.47-2.44-12.25-1.27-3.09-2.34-5.21.53-7.9a6,6,0,0,0,1.26-4.67c-0.78-4.89-2.57-9.68-2.86-14.58-0.21-3.56.25-8.2,2.38-10.6,2.46-2.77,7.07-3.1,11-.92,4.11,2.27,4.7,6.17,4.27,10.08a70.7,70.7,0,0,1-2.82,12.57c-1.1,3.63-1.4,6.66,2,9.41,0.79,0.65,1,3.45.26,4.28-4.86,5.69-2.6,12.3-3.17,19.09,5,1.17,9.76,2.19,14.5,3.46,15,4,30.4,7.24,45,12.58,8.32,3,15.46,9.48,23,14.63,17.18,11.82,23,29.68,25.76,49.13,0.32,2.28.81,4.54,1.32,7.34h37.33c-0.78,4.5-1,8.38-2.17,11.93-2.27,6.73-2.22,7.09,4.94,7.46,0.65,0,1.29.2,2.25,0.35v21.81c-5.07,2-5.07,2-6.9,9.95-3,.64-7-0.51-7.92,4.45-0.09.51-3.69,0.55-5.66,0.56q-104.72,0-209.44,0-35,0-70,0c-2.76,0-6.28.89-5.44-4.2l-5.63-.78Z" transform="translate(-63.25 -152.24)"/><path class="cls-2" d="M458.34,501.71H167.58V397.57H458.34V501.71ZM269.11,447.85c-2.76,2-5.38,3.51-7.54,5.52-7.92,7.34-8.42,18.42-1.13,26.35,6.78,7.38,15.49,8.7,24.79,6.73,9.11-1.93,15.55-8.73,16.85-17,1.49-9.44-1.92-16.46-10.58-21.82l-3.39-2.07c12.37-11.61,14.23-20.43,6.14-28.56s-23.35-7.55-31,1.07S257.85,438.42,269.11,447.85ZM359.86,448c3.58-.74,7.25-1.72,11-2.23,8.14-1.1,15,2.15,18.29,8.36,3.66,6.92,2.64,17-2.28,22.58-6.62,7.47-17.11,5.85-21-3.27-0.72-1.68-.88-3.79-2-5.05-1.27-1.41-3.55-3.09-5-2.81s-3.79,3-3.57,4.35c0.54,3.27,1.66,6.87,3.71,9.39,6.6,8.13,18.08,10.23,27.68,5.68,10-4.72,15.34-16.13,13.29-28.16A22.2,22.2,0,0,0,380,438c-4.86-.46-9.8-0.08-15.12-0.08l0.71-15.81h22c9.24,0,9.24,0,8.41-9.11,0-.17,0-0.33,0-0.5-0.22-3.11-1.74-2.94-4-1.83a15.81,15.81,0,0,1-5.82,1.81c-5.15.25-10.32,0.08-15.48,0.08-10.35,0-10.5,0-10.8,10.47C359.68,431.29,359.86,439.54,359.86,448Zm-16.49,14.19c3.08,0,5.4-.14,7.69,0,3.6,0.27,4.17-1.75,3.94-4.67-0.31-4.07-3.47-3.09-5.64-2.86-4.81.51-6.3-1.22-6.12-6.06,0.37-9.8.11-19.62,0.11-29.44,0-2.07,0-4.15,0-7.59-4,1.22-8,1.19-9.46,3.08q-14,17.82-27.06,36.43c-4.09,5.82-.91,11.07,6.09,11.08h22.24v23.5h8.2V462.14ZM234,424.25c0,17.61,0,34.39,0,51.18,0,4.59-3,5.45-6.79,5.12-3.94-.35-5.14,1.27-3.63,5.49,8.85,0,17.79.08,26.72-.12,0.94,0,1.84-1.66,2.76-2.55-1.05-.93-2-2.53-3.17-2.68-7.14-1-7.4-1.08-7.41-8.15,0-18.46,0-36.93,0-55.39,0-4.9-1.31-5.53-5.64-3.43A67.93,67.93,0,0,1,226.26,418c-3.47,1-4,2.81-2.69,6.26H234Z" transform="translate(-63.25 -152.24)"/><path class="cls-3" d="M283.17,571.91h61.9c0.57,8.43-1.62,10.91-9.32,10.91H293.83C285.24,582.82,283.86,581.48,283.17,571.91Z" transform="translate(-63.25 -152.24)"/><path class="cls-3" d="M345.43,562.3H283.54c-0.54-7.26.91-8.94,7.54-8.95q22.93,0,45.87,0C344.24,553.35,344.82,553.92,345.43,562.3Z" transform="translate(-63.25 -152.24)"/><path class="cls-3" d="M292.55,544.4c11.15-12.31,31.62-12.26,43.83,0H292.55Z" transform="translate(-63.25 -152.24)"/><path class="cls-3" d="M293.39,590.75H335C325.25,601.81,304.24,601.87,293.39,590.75Z" transform="translate(-63.25 -152.24)"/><path class="cls-3" d="M269.11,447.85c-11.26-9.43-13.52-21.23-5.88-29.81s23-9.15,31-1.07,6.23,16.94-6.14,28.56l3.39,2.07c8.66,5.36,12.06,12.38,10.58,21.82-1.31,8.3-7.74,15.1-16.85,17-9.29,2-18,.65-24.79-6.73-7.29-7.93-6.79-19,1.13-26.35C263.73,451.36,266.35,449.84,269.11,447.85Zm10,33.72c11-.08,19-11.09,14.08-19.58-3.76-6.48-10.72-8.62-17.13-11.33a3.08,3.08,0,0,0-1.88.35c-6.58,2.46-11.93,11.43-10.81,18.07C264.6,476.57,271,481.63,279.09,481.57Zm-0.33-64.47c-7.29,0-12.47,4.63-12.56,11.23-0.08,5.87,8.86,14.4,15.09,14.39,3.44,0,9.76-8.87,9.81-13.77C291.16,421.81,286.26,417.1,278.76,417.1Z" transform="translate(-63.25 -152.24)"/><path class="cls-3" d="M359.86,448c0-8.42-.19-16.66,0-24.9,0.3-10.48.44-10.47,10.8-10.47,5.16,0,10.33.17,15.48-.08a15.81,15.81,0,0,0,5.82-1.81c2.29-1.1,3.82-1.28,4,1.83,0,0.17,0,.33,0,0.5,0.83,9.11.83,9.11-8.41,9.11h-22l-0.71,15.81c5.31,0,10.26-.38,15.12.08a22.2,22.2,0,0,1,19.91,18.78c2.06,12-3.32,23.44-13.29,28.16-9.6,4.55-21.07,2.45-27.68-5.68-2-2.52-3.17-6.12-3.71-9.39-0.22-1.31,2.08-4.08,3.57-4.35s3.77,1.39,5,2.81c1.14,1.26,1.3,3.37,2,5.05,3.88,9.12,14.37,10.74,21,3.27,4.92-5.55,5.94-15.66,2.28-22.58-3.29-6.22-10.15-9.46-18.29-8.36C367.11,446.23,363.44,447.21,359.86,448Z" transform="translate(-63.25 -152.24)"/><path class="cls-3" d="M343.37,462.14v23.51h-8.2v-23.5H312.94c-7,0-10.18-5.25-6.09-11.08q13-18.57,27.06-36.43c1.49-1.9,5.44-1.86,9.46-3.08,0,3.44,0,5.51,0,7.59,0,9.81.26,19.64-.11,29.44-0.18,4.84,1.31,6.57,6.12,6.06,2.17-.23,5.32-1.21,5.64,2.86,0.22,2.91-.34,4.94-3.94,4.67C348.77,462,346.45,462.14,343.37,462.14Zm-8.7-39.83-23.6,32.23h23.6V422.31Z" transform="translate(-63.25 -152.24)"/><path class="cls-3" d="M234,424.25H223.58c-1.32-3.45-.78-5.26,2.69-6.26a67.93,67.93,0,0,0,10.54-4.28c4.33-2.1,5.63-1.47,5.64,3.43,0,18.46,0,36.93,0,55.39,0,7.07.27,7.18,7.41,8.15,1.16,0.16,2.12,1.75,3.17,2.68-0.92.89-1.82,2.53-2.76,2.55-8.93.2-17.88,0.12-26.72,0.12-1.51-4.22-.32-5.84,3.63-5.49,3.75,0.33,6.78-.52,6.79-5.12C234,458.65,234,441.86,234,424.25Z" transform="translate(-63.25 -152.24)"/><path class="cls-2" d="M279.09,481.57c-8.1.06-14.48-5-15.75-12.48-1.12-6.63,4.24-15.6,10.81-18.07a3.08,3.08,0,0,1,1.88-.35c6.41,2.71,13.37,4.85,17.13,11.33C298.1,470.48,290.06,481.49,279.09,481.57Z" transform="translate(-63.25 -152.24)"/><path class="cls-2" d="M278.76,417.1c7.5,0,12.41,4.71,12.33,11.85-0.05,4.89-6.37,13.76-9.81,13.77-6.22,0-15.17-8.52-15.09-14.39C266.29,421.73,271.47,417.1,278.76,417.1Z" transform="translate(-63.25 -152.24)"/><path class="cls-2" d="M334.67,422.31v32.23h-23.6Z" transform="translate(-63.25 -152.24)"/></svg>