<?xml version="1.0" encoding="utf-8"?>
<!-- Generator: Adobe Illustrator 25.0.1, SVG Export Plug-In . SVG Version: 6.00 Build 0)  -->
<svg version="1.1" xmlns="http://www.w3.org/2000/svg" xmlns:xlink="http://www.w3.org/1999/xlink" x="0px" y="0px"
	 viewBox="0 0 707.6 648.1" style="enable-background:new 0 0 707.6 648.1;" xml:space="preserve">
<style type="text/css">
	.st0{display:none;}
	.st1{display:inline;stroke:#FFFFFF;stroke-miterlimit:10;}
	.st2{fill:#FFFFFF;}
	.st3{fill:#17468F;}
	.st4{fill:#D1D3D4;}
	.st5{fill:#D2D3D4;}
	.st6{fill:#919396;}
	.st7{fill:#FAE965;}
	.st8{fill:#231F20;}
	.st9{fill:#5A5B5D;}
	.st10{fill:#CD332D;}
	.st11{fill:#CC3732;}
	.st12{fill:#00B386;}
	.st13{fill:#32669A;}
	.st14{fill:#CA2128;}
	.st15{fill:#3B5999;}
	.st16{fill:#017BB6;}
	.st17{fill:#2AA8E0;}
	.st18{fill:#32506D;}
	.st19{fill:#C7C7C7;}
	.st20{fill:#FFEC70;}
	.st21{fill:#73A03C;}
	.st22{fill:#8C8C8C;}
	.st23{fill:none;stroke:#E6E7E8;stroke-width:0.5;stroke-miterlimit:10;}
	.st24{fill:#666666;}
	.st25{fill:none;stroke:#C7C7C7;stroke-width:3.75;stroke-miterlimit:10;}
	.st26{fill:none;stroke:#17468F;stroke-width:3.75;stroke-miterlimit:10;}
	.st27{fill:#777CA0;}
	.st28{fill:#D9CC5A;}
	.st29{fill:#978F3E;}
	.st30{fill:none;stroke:#FFFFFF;stroke-width:1.5;stroke-miterlimit:10;}
	.st31{fill:#839BCB;}
	.st32{fill:#065FAA;}
	.st33{fill:#0A61AA;}
	.st34{fill:#EFDE60;}
	.st35{fill:#E4D662;}
	.st36{fill:#7F99CC;}
	.st37{fill:#EFDD60;}
	.st38{fill:#F2E063;}
	.st39{fill:#F2E05F;}
	.st40{fill:#F4E15F;}
	.st41{fill:#F5E261;}
	.st42{fill:#F8E45D;}
	.st43{fill:#1363A6;}
	.st44{fill:#0C61A7;}
	.st45{fill:#1564A6;}
	.st46{fill:#0960A8;}
	.st47{fill:#F1DF60;}
	.st48{fill:#005CB5;}
	.st49{font-family:'MyriadPro-Regular';}
	.st50{font-size:2.36px;}
	.st51{fill:#0033A1;}
	.st52{fill:url(#SVGID_1_);}
	.st53{fill:#9594D2;}
	.st54{fill:#E6E7F5;}
	.st55{fill:#C4C5E7;}
	.st56{fill:none;}
</style>
<g id="Layer_2" class="st0">
	<rect x="-82.1" y="-61.6" class="st1" width="815.4" height="732.9"/>
</g>
<g id="Layer_3">
	<path class="st2" d="M317.8,366.8c0-1.8-1.4-3.4-3.2-3.6c-0.6,2.4-0.6,4.8,0,7.2C316.4,370.2,317.8,368.6,317.8,366.8z"/>
	<path class="st2" d="M319.9,365.6c-0.6,0-1.1,0.5-1.1,1.1c0,0.6,0.5,1.1,1.1,1.1c0.6,0,1.1-0.5,1.1-1.1c0,0,0,0,0,0
		C321,366.2,320.5,365.6,319.9,365.6z"/>
	<path class="st2" d="M335.5,366.8c0,1.8,1.4,3.4,3.2,3.6c0.6-2.4,0.6-4.8,0-7.2C336.9,363.4,335.5,365,335.5,366.8z"/>
	<path class="st2" d="M333.4,365.6c-0.6,0-1.1,0.5-1.2,1.1c0,0.6,0.5,1.1,1.1,1.2c0.6,0,1.1-0.5,1.2-1.1c0,0,0,0,0,0
		C334.6,366.2,334.1,365.7,333.4,365.6z"/>
	<path class="st2" d="M326.6,375.7c-1.8,0-3.4,1.4-3.6,3.2c2.4,0.6,4.8,0.6,7.2,0C330,377.1,328.5,375.7,326.6,375.7z"/>
	<path class="st2" d="M326.6,372.5c-0.6,0-1.1,0.5-1.1,1.1c0,0.6,0.5,1.1,1.1,1.1s1.1-0.5,1.1-1.1c0,0,0,0,0,0
		C327.8,373,327.3,372.5,326.6,372.5z"/>
	<path class="st2" d="M326.6,357.9c1.8,0,3.4-1.4,3.6-3.2c-2.4-0.6-4.8-0.6-7.2,0C323.3,356.6,324.8,357.9,326.6,357.9z"/>
	<path class="st2" d="M326.6,358.9c-0.6,0-1.1,0.5-1.1,1.1c0,0.6,0.5,1.1,1.1,1.1c0.6,0,1.1-0.5,1.1-1.1l0,0
		C327.8,359.4,327.3,358.9,326.6,358.9z"/>
	<path class="st2" d="M332.9,373.1c-1.3,1.3-1.4,3.3-0.3,4.8c2.1-1.2,3.8-3,5.1-5.1C336.3,371.7,334.2,371.8,332.9,373.1z"/>
	<path class="st2" d="M330.6,370.8c-0.4,0.4-0.4,1.2,0,1.6s1.2,0.4,1.6,0c0.4-0.4,0.4-1.2,0-1.6l0,0
		C331.8,370.4,331.1,370.4,330.6,370.8z"/>
	<path class="st2" d="M320.3,360.5c1.3-1.3,1.4-3.3,0.3-4.8c-2.1,1.2-3.8,3-5.1,5.1C317,361.9,319.1,361.8,320.3,360.5z"/>
	<path class="st2" d="M321,361.2c-0.4,0.4-0.4,1.2,0,1.6s1.2,0.4,1.6,0s0.4-1.2,0-1.6l0,0C322.2,360.7,321.5,360.7,321,361.2z"/>
	<path class="st2" d="M332.9,360.5c1.3,1.3,3.3,1.4,4.8,0.3c-1.2-2.1-3-3.8-5.1-5.1C331.5,357.1,331.6,359.2,332.9,360.5z"/>
	<path class="st2" d="M332.2,362.8c0.4-0.4,0.4-1.2,0-1.6c-0.4-0.4-1.2-0.4-1.6,0c-0.4,0.4-0.4,1.2,0,1.6l0,0
		C331.1,363.2,331.8,363.2,332.2,362.8z"/>
	<path class="st2" d="M320.3,373.1c-1.3-1.3-3.3-1.4-4.8-0.3c1.2,2.1,3,3.8,5.1,5.1C321.7,376.4,321.6,374.4,320.3,373.1z"/>
	<path class="st2" d="M321,370.8c-0.4,0.4-0.4,1.2,0,1.6s1.2,0.4,1.6,0s0.4-1.2,0-1.6l0,0C322.2,370.3,321.5,370.3,321,370.8z"/>
</g>
<g id="Layer_1">
	<g id="Layer_1_1_">
		<g id="Layer_1-2">
			<g id="Layer_1-2-2">
				<g id="Layer_2_1_">
					<path class="st2" d="M332.8,306.3c-1.2-1.1-3-1.1-4.2,0c-1.3-1-3.1-0.8-4.2,0.4c-0.9,1.1-0.9,2.7,0,3.8l3.8,3.8
						c0.2,0.2,0.5,0.2,0.7,0c0,0,0,0,0,0l0,0l3.8-3.8c1.2-1.1,1.3-2.9,0.2-4.1C332.9,306.4,332.9,306.3,332.8,306.3z"/>
					<path class="st2" d="M339.6,321.4L336,318c-0.8-0.8-1.9-1.2-3.1-1.2h-7c-0.8,0-1.4,0.6-1.4,1.3c0,0,0,0,0,0.1
						c0,0.7,0.6,1.4,1.3,1.4c0,0,0,0,0,0h5.2c0.4,0,0.8,0.3,0.8,0.8c0,0,0,0,0,0l0,0c0,0.4-0.4,0.8-0.8,0.8h-8.7
						c-0.2,0-0.4-0.1-0.5-0.2l-3.7-2.9c-0.6-0.5-1.4-0.4-1.9,0.2c-0.5,0.6-0.4,1.4,0.2,1.9l0.1,0.1l5.6,4.4c0.2,0.2,0.5,0.3,0.8,0.3
						H333c0.2,0,0.4,0.1,0.6,0.2l4.4,4.2c0.5,0.6,1.3,0.6,1.9,0.1c0,0,0.1-0.1,0.1-0.1l0,0c0.3-0.3,0.4-0.6,0.4-1v-4.8
						C340.5,322.8,340.2,322,339.6,321.4z"/>
				</g>
				<g id="Layer_1-3">
					<polygon class="st3" points="363.1,2.7 362.4,2 358.7,5.6 355,2 354.3,2.7 358.7,7 358.7,7 358.7,7 					"/>
					<polygon class="st3" points="356.9,54.7 356.2,55.4 359.8,59.1 356.2,62.9 356.9,63.5 361.2,59.2 361.2,59.1 361.2,59.1 					
						"/>
					<polygon points="363.1,21.8 362.4,21.1 358.7,24.7 355,21.1 354.3,21.8 358.7,26.1 358.7,26.1 358.7,26.1 					"/>
					<polygon class="st4" points="363.1,38.4 362.4,37.7 358.7,41.3 355,37.7 354.3,38.4 358.7,42.7 358.7,42.7 358.7,42.7 					"/>
					<polyline class="st5" points="583.2,22.7 584.3,22.7 592.7,5 591.5,5 					"/>
					<polygon class="st6" points="618.6,3.6 609.4,35.9 610,35.9 619.1,3.6 					"/>
					<polygon class="st2" points="664.5,0 634.5,111 635.6,111 665.6,0 					"/>
					<path class="st2" d="M601.5,187.9c0-6.2,5-11.2,11.2-11.2c6.2,0,11.2,5,11.2,11.2c0,6.2-5,11.2-11.2,11.2
						C606.5,199.1,601.5,194.1,601.5,187.9C601.5,187.9,601.5,187.9,601.5,187.9z M604,187.9c0,4.8,3.9,8.7,8.7,8.7s8.7-3.9,8.7-8.7
						c0-4.8-3.9-8.7-8.7-8.7C607.9,179.2,604,183.1,604,187.9z"/>
					
						<rect x="595.7" y="197.6" transform="matrix(0.7077 -0.7065 0.7065 0.7077 35.1373 482.9975)" class="st2" width="11.2" height="2.8"/>
					<path d="M298.9,21.1c-5.8,0-10.6-4.7-10.6-10.5S293,0,298.8,0c5.8,0,10.6,4.7,10.6,10.5l0,0c0.1,5.8-4.5,10.5-10.3,10.6
						C299,21.1,299,21.1,298.9,21.1z M298.9,1.9c-4.7,0-8.6,3.9-8.6,8.6c0,4.7,3.9,8.6,8.6,8.6s8.6-3.9,8.6-8.6
						c0.1-4.7-3.6-8.5-8.3-8.6H298.9L298.9,1.9z"/>
					<rect x="295.1" y="9.6" width="7.7" height="1.9"/>
					<rect x="298" y="6.7" width="1.9" height="7.7"/>
					<path class="st2" d="M123.5,580.3c-7.8,0-14.1-6.3-14.1-14.1c0-7.8,6.3-14.1,14.1-14.1c7.8,0,14.1,6.3,14.1,14.1l0,0l0,0
						c0.1,7.7-6.2,14-13.9,14.1C123.7,580.3,123.6,580.3,123.5,580.3z M123.5,554.6c-6.4,0-11.6,5.1-11.6,11.5s5.1,11.6,11.5,11.6
						c6.4,0,11.6-5.1,11.6-11.5l0,0C135,559.9,129.9,554.7,123.5,554.6z"/>
					<rect x="118.3" y="564.9" class="st2" width="10.3" height="2.6"/>
					<rect x="122.2" y="561.1" class="st2" width="2.6" height="10.3"/>
					<path class="st2" d="M298.9,99.7c-5.8,0-10.6-4.7-10.6-10.5s4.7-10.6,10.5-10.6c5.8,0,10.6,4.7,10.6,10.5l0,0
						c0.1,5.7-4.5,10.5-10.2,10.6H298.9z M298.9,80.6c-4.7,0-8.6,3.9-8.6,8.6s3.9,8.6,8.6,8.6c4.7,0,8.6-3.9,8.6-8.6
						c0.1-4.7-3.6-8.5-8.3-8.6H298.9L298.9,80.6z"/>
					<rect x="295.1" y="88.2" class="st2" width="7.7" height="1.9"/>
					<rect x="298" y="85.4" class="st2" width="1.9" height="7.7"/>
					<rect x="410" y="116.8" class="st7" width="3.6" height="16.4"/>
					<path class="st8" d="M291.5,43.2c-4.1-4.1-4.1-10.8,0-14.9c4.1-4.1,10.8-4.1,14.9,0c4.1,4.1,4.1,10.8,0,14.9c0,0,0,0,0,0l0,0
						C302.3,47.3,295.6,47.3,291.5,43.2z M305,29.6c-3.4-3.4-8.8-3.4-12.2,0c-3.4,3.4-3.4,8.8,0,12.2s8.8,3.4,12.2,0c0,0,0,0,0,0
						l0,0C308.4,38.5,308.4,33.1,305,29.6C305.1,29.7,305,29.6,305,29.6z"/>
					<rect x="295.1" y="34.8" class="st8" width="7.7" height="1.9"/>
					<path class="st7" d="M291.5,69.4c-4.1-4.1-4.1-10.8,0-14.9c4.1-4.1,10.8-4.1,14.9,0s4.1,10.8,0,14.9c0,0,0,0,0,0l0,0
						C302.3,73.5,295.6,73.5,291.5,69.4z M305,55.8c-3.4-3.4-8.8-3.4-12.2,0c-3.4,3.4-3.4,8.8,0,12.2s8.8,3.4,12.2,0c0,0,0,0,0,0
						l0,0C308.4,64.7,308.4,59.3,305,55.8C305.1,55.9,305,55.8,305,55.8z"/>
					<rect x="295.1" y="61" class="st7" width="7.7" height="1.9"/>
					<path class="st3" d="M325.8,21.1c-5.8,0-10.6-4.7-10.6-10.5S319.9,0,325.7,0c5.8,0,10.6,4.7,10.6,10.5l0,0
						c0.1,5.8-4.5,10.5-10.3,10.6C325.9,21.1,325.9,21.1,325.8,21.1z M325.8,1.9c-4.7,0-8.6,3.9-8.6,8.6c0,4.7,3.9,8.6,8.6,8.6
						c4.7,0,8.6-3.9,8.6-8.6S330.6,1.9,325.8,1.9z"/>
					<rect x="321.9" y="9.6" class="st3" width="7.7" height="1.9"/>
					<rect x="324.8" y="6.7" class="st3" width="1.9" height="7.7"/>
					<path class="st3" d="M318.3,43.2c-4.1-4.1-4.1-10.8,0-14.9c4.1-4.1,10.8-4.1,14.9,0c4.1,4.1,4.1,10.8,0,14.9c0,0,0,0,0,0l0,0
						C329.1,47.3,322.4,47.3,318.3,43.2z M331.9,29.6c-3.4-3.4-8.8-3.4-12.2,0c-3.4,3.4-3.4,8.8,0,12.2s8.8,3.4,12.2,0c0,0,0,0,0,0
						l0,0C335.2,38.4,335.2,33,331.9,29.6z"/>
					<rect x="321.9" y="34.8" class="st3" width="7.7" height="1.9"/>
					
						<rect x="15.2" y="494.6" transform="matrix(0.707 -0.7072 0.7072 0.707 -348.4925 158.2183)" class="st3" width="2.9" height="10.2"/>
					
						<rect x="11.7" y="503.4" transform="matrix(0.7071 -0.7071 0.7071 0.7071 -352.0665 159.7081)" class="st3" width="10.2" height="2.9"/>
					<path class="st3" d="M4.4,576c-5.9-5.9-5.9-15.5,0-21.4c5.9-5.9,15.5-5.9,21.4,0c5.9,5.9,5.9,15.5,0,21.4
						C19.9,581.9,10.3,581.9,4.4,576z M23.9,556.5c-4.8-4.8-12.7-4.8-17.5,0c-4.8,4.8-4.8,12.7,0,17.5c4.8,4.8,12.7,4.8,17.5,0
						c4.8-4.7,4.9-12.5,0.2-17.3C24,556.6,24,556.6,23.9,556.5z"/>
					<path class="st3" d="M5.5,643.6c-6.1-6.1-6.1-15.9,0-22c6.1-6.1,15.9-6.1,22,0s6.1,15.9,0,22c0,0,0,0,0,0l0,0
						C21.4,649.6,11.6,649.6,5.5,643.6z M25.5,623.6c-5-5-13-5-18,0s-5,13,0,18s13,5,18,0c0,0,0,0,0,0l0,0
						C30.5,636.7,30.5,628.7,25.5,623.6C25.6,623.7,25.5,623.6,25.5,623.6z"/>
					
						<rect x="16.6" y="625.2" transform="matrix(0.707 -0.7072 0.7072 0.707 -440.3176 197.3792)" class="st3" width="2.8" height="9.8"/>
					
						<rect x="12.9" y="633.7" transform="matrix(0.7067 -0.7075 0.7075 0.7067 -444.098 198.8916)" class="st3" width="9.9" height="2.8"/>
					<path class="st2" d="M53.9,643.6c-6.1-6.1-6.1-15.9,0-22c6.1-6.1,15.9-6.1,22,0s6.1,15.9,0,22c0,0,0,0,0,0l0,0
						C69.8,649.6,60,649.6,53.9,643.6z M73.9,623.6c-5-5-13-5-18,0s-5,13,0,18s13,5,18,0c0,0,0,0,0,0l0,0
						C78.8,636.6,78.8,628.6,73.9,623.6z"/>
					
						<rect x="64.7" y="625.1" transform="matrix(0.7072 -0.707 0.707 0.7072 -426.0994 231.2087)" class="st2" width="2.8" height="9.9"/>
					
						<rect x="61.3" y="633.6" transform="matrix(0.7067 -0.7075 0.7075 0.7067 -429.8528 233.0766)" class="st2" width="9.8" height="2.8"/>
					<polygon class="st9" points="263.5,23.2 263.5,19 267.6,19 267.6,23.2 271.9,23.2 271.9,17.8 265.6,12.1 259.4,17.9 
						259.4,23.2 					"/>
					<polygon class="st9" points="272.7,17.2 265.6,10.7 258.5,17.2 257.1,15.6 265.6,7.8 274.1,15.6 					"/>
					<rect x="138.3" y="236.5" class="st10" width="25.5" height="25.5"/>
					<path class="st2" d="M149.3,239h-1.2l-0.8,3l-0.8-3h-1.2l0.7,2.1c0.3,0.8,0.5,1.6,0.7,2.4v3.1h1.1v-3.1L149.3,239z
						 M152.4,244.8v-2c0-0.5-0.1-1-0.3-1.4c-0.5-0.7-1.5-0.8-2.2-0.3l-0.3,0.3c-0.3,0.4-0.4,0.9-0.3,1.4v2c0,0.5,0.1,1,0.3,1.4
						c0.5,0.7,1.5,0.8,2.2,0.3l0.3-0.3C152.3,245.8,152.4,245.3,152.4,244.8z M151.4,245c0,0.5-0.2,0.8-0.5,0.8s-0.5-0.3-0.5-0.8
						v-2.4c0-0.5,0.2-0.8,0.5-0.8s0.5,0.3,0.5,0.8V245z M156.2,246.6v-5.7h-1v4.4c-0.2,0.3-0.4,0.5-0.6,0.5s-0.2-0.1-0.2-0.2V241h-1
						v4.5c0,0.3,0,0.6,0.1,0.9c0.1,0.3,0.4,0.5,0.7,0.4c0,0,0,0,0,0l0,0c0.5-0.1,0.9-0.3,1.2-0.7v0.6L156.2,246.6L156.2,246.6z"/>
					<path class="st2" d="M159.6,253.6c0,1.3-0.1,2.7-0.3,4c-0.2,0.9-0.9,1.6-1.8,1.7c-2.1,0.2-4.3,0.3-6.4,0.2
						c-2.1,0-4.2,0-6.4-0.2c-0.9-0.1-1.6-0.8-1.8-1.7c-0.4-2.7-0.4-5.3,0-8c0.2-0.9,0.9-1.6,1.8-1.7c2.1-0.2,4.3-0.3,6.4-0.2
						c2.1,0,4.2,0,6.4,0.2c0.9,0.1,1.6,0.8,1.8,1.7C159.5,250.9,159.6,252.3,159.6,253.6z"/>
					<path class="st10" d="M147.4,250.7v-1.1h-3.6v1.1h1.2v6.5h1.1v-6.5L147.4,250.7z M149.5,257.3v-0.6c-0.3,0.4-0.7,0.6-1.2,0.7
						c-0.3,0-0.6-0.1-0.7-0.4c-0.1-0.3-0.1-0.5-0.1-0.8v-4.5h1v4.6c0,0.2,0.1,0.2,0.2,0.2c0.3-0.1,0.5-0.3,0.6-0.5v-4.3h1v5.7h-0.8
						V257.3z M153.4,255.7c0,0.5-0.1,0.8-0.4,0.8c-0.2,0-0.4-0.1-0.5-0.2v-3.5c0.1-0.1,0.3-0.2,0.5-0.2c0.3,0,0.4,0.3,0.4,0.8V255.7
						L153.4,255.7z M154.4,255.6v-2.3c0-0.4,0-0.7-0.1-1.1c-0.1-0.4-0.4-0.7-0.8-0.6c-0.4,0.1-0.8,0.3-1.1,0.6v-2.5h-1v7.6h1v-0.5
						c0.2,0.4,0.6,0.6,1.1,0.6c0.4,0,0.7-0.2,0.8-0.6C154.5,256.4,154.5,256,154.4,255.6L154.4,255.6z M157.2,253.8h-1v-0.5
						c0-0.5,0.2-0.8,0.5-0.8s0.5,0.3,0.5,0.8V253.8z M158.2,255.5v-0.2h-1v0.7c0,0.2-0.3,0.4-0.5,0.4c-0.4,0-0.5-0.3-0.5-0.8v-1h2.1
						v-1.2c0-0.5-0.1-0.9-0.3-1.3c-0.5-0.7-1.4-0.8-2-0.3c0,0,0,0-0.1,0l0,0l-0.3,0.3c-0.2,0.4-0.3,0.8-0.3,1.3v2
						c0,0.5,0.1,0.9,0.3,1.3c0.4,0.7,1.3,0.9,1.9,0.5c0.4-0.2,0.6-0.6,0.7-1.1C158.3,256.1,158.3,255.8,158.2,255.5L158.2,255.5z"/>
					<rect x="276.7" y="236.5" class="st11" width="25.5" height="25.5"/>
					<path class="st2" d="M289,240.5c0.2,0.1,0.4,0.2,0.5,0.4c0.2,0.2,0.4,0.5,0.6,0.7c0.2,0.3,0.4,0.6,0.5,1
						c0.1,0.4,0.2,0.9,0.2,1.3c0,0.8-0.2,1.5-0.6,2.2c-0.2,0.3-0.4,0.5-0.6,0.7c-0.2,0.3-0.5,0.5-0.8,0.7c-0.2,0.1-0.3,0.3-0.4,0.5
						c-0.2,0.2-0.2,0.4-0.2,0.7c0,0.2,0.1,0.5,0.2,0.7c0.1,0.1,0.2,0.3,0.4,0.4l0.9,0.7c0.5,0.4,1,0.9,1.4,1.4
						c0.4,0.6,0.6,1.4,0.6,2.1c0,1.3-0.6,2.5-1.6,3.3c-1.4,1.1-3.1,1.6-4.9,1.5c-1.4,0.1-2.8-0.3-4-1.1c-0.8-0.6-1.3-1.5-1.3-2.5
						c0-0.6,0.2-1.1,0.4-1.6c0.3-0.6,0.9-1.2,1.5-1.5c0.8-0.5,1.7-0.8,2.6-0.9c0.7-0.1,1.5-0.2,2.2-0.2c-0.2-0.2-0.4-0.5-0.5-0.8
						c-0.2-0.3-0.3-0.7-0.2-1c0-0.2,0-0.4,0.1-0.6l0.1-0.4h-0.8c-1.2,0.1-2.3-0.4-3.1-1.3c-0.7-0.7-1.1-1.7-1.1-2.7
						c0-1.3,0.6-2.6,1.6-3.4c0.6-0.6,1.4-1,2.2-1.2c0.7-0.2,1.5-0.2,2.2-0.2h5.1l-1.6,0.9L289,240.5L289,240.5z M290,255.1
						c0-0.6-0.2-1.2-0.6-1.7c-0.6-0.6-1.3-1.2-2.1-1.7h-1.6c-0.5,0.1-1.1,0.2-1.6,0.4l-0.5,0.2c-0.3,0.1-0.5,0.3-0.7,0.5
						c-0.2,0.3-0.4,0.5-0.6,0.8c-0.2,0.4-0.3,0.8-0.3,1.2c0,0.9,0.5,1.7,1.2,2.2c1,0.6,2.1,0.9,3.2,0.9c1,0,1.9-0.2,2.7-0.8
						C289.7,256.6,290.1,255.9,290,255.1z M286.5,247.7c0.6,0,1.2-0.3,1.7-0.7c0.2-0.3,0.4-0.6,0.4-1c0-0.3,0.1-0.6,0.1-0.9
						c0-1.1-0.3-2.1-0.8-3c-0.2-0.5-0.6-0.9-1-1.2c-0.4-0.3-0.9-0.4-1.4-0.5c-0.7,0-1.3,0.3-1.7,0.8c-0.4,0.5-0.6,1.2-0.5,1.9
						c0,1,0.3,2,0.8,2.9c0.3,0.5,0.6,0.9,1,1.2C285.5,247.6,286,247.7,286.5,247.7z"/>
					<polygon class="st2" points="299.1,242.4 296.4,242.4 296.4,239.7 295.1,239.7 295.1,242.4 292.4,242.4 292.4,243.6 
						295.1,243.6 295.1,246.3 296.4,246.3 296.4,243.6 299.1,243.6 					"/>
					<rect x="230.6" y="236.5" class="st12" width="25.4" height="25.4"/>
					<path class="st2" d="M246,244.7c0-0.7,0.5-1.2,1.2-1.2c0.6,0,1.2,0.5,1.2,1.1c0,0,0,0.1,0,0.1v0.2c0,1-0.1,2-0.4,3h2.4
						c0.2-1.2,0.2-2.3,0.2-3.5c0-3.7-6.8-4.3-6.8,0.4c-0.2,2.4,1,4.7,3.1,5.9c-0.8,1.5-1.8,2.9-3.1,4.1c-5.1-4.1-4.6-11.1-4.6-11.1
						H237c0,9.4,5,12.7,5.6,13.2c0.4,0.4,1,0.5,1.5,0.4c0.7,0,2.4-1.7,4.4-4.9c0.2-0.3,0.4-0.6,0.5-0.9c0.5,0.1,1,0.2,1.5,0.2v-2
						C247.9,249.6,245.9,247.4,246,244.7C246,244.8,246,244.7,246,244.7z"/>
					<rect x="322.8" y="236.5" class="st13" width="25.5" height="25.5"/>
					<polygon class="st8" points="322.8,262 322.8,262 348.4,262 348.4,236.5 322.8,236.5 322.8,262 322.8,262 322.8,262 322.8,262 
						322.8,236.5 348.3,236.5 348.3,262 					"/>
					<path class="st2" d="M329.3,240.9h12.5c1.2,0,2.1,0.9,2.2,2.1l0,0v12.5c0,1.2-0.9,2.2-2.1,2.2c0,0,0,0,0,0h-12.5
						c-1.2,0-2.2-1-2.2-2.2l0,0V243c-0.1-1.1,0.8-2,1.9-2.1c0,0,0,0,0,0H329.3z M339.4,242.7c-0.4,0-0.8,0.3-0.8,0.8c0,0,0,0,0,0
						l0,0v1.8c0,0.4,0.3,0.8,0.8,0.8c0,0,0,0,0,0h1.9c0.4,0,0.8-0.3,0.8-0.8c0,0,0,0,0,0l0,0v-1.8c0-0.4-0.3-0.8-0.8-0.8
						c0,0,0,0,0,0H339.4z M342.1,248h-1.5c0.2,0.4,0.2,0.9,0.2,1.4c-0.2,2.9-2.7,5.1-5.6,4.9c-2.6-0.2-4.8-2.3-4.9-4.9
						c0-0.5,0.1-0.9,0.2-1.4h-1.6v7.1c0,0.4,0.2,0.7,0.6,0.7h11.7c0.4,0,0.7-0.2,0.7-0.6l0,0L342.1,248L342.1,248z M335.6,246
						c-1.8,0.1-3.2,1.6-3.2,3.4c0.1,1.8,1.6,3.3,3.4,3.2c1.8-0.1,3.3-1.6,3.2-3.4C339,247.4,337.5,246,335.6,246
						C335.7,246,335.6,246,335.6,246z"/>
					<rect x="92.2" y="236.5" class="st14" width="25.5" height="25.5"/>
					<path class="st2" d="M104.9,240c-5.1,0-9.2,4.1-9.2,9.2c0,0,0,0,0,0c0,3.6,2.2,6.9,5.5,8.4c0-0.7,0-1.4,0.2-2.1l1.2-5
						c-0.2-0.5-0.3-1-0.3-1.5c0-1.4,0.8-2.4,1.8-2.4c0.7,0,1.2,0.5,1.3,1.2v0.2c-0.2,1.1-0.5,2.2-0.8,3.3c-0.2,0.7,0.3,1.5,1,1.7
						h0.4c1.8,0,2.9-2.3,2.9-4.9c0-2-1.4-3.5-3.8-3.5c-2.4-0.1-4.4,1.8-4.5,4.2c0,0,0,0,0,0l0,0v0.2c0,0.7,0.2,1.3,0.6,1.8
						c0.2,0.1,0.2,0.3,0.1,0.5l-0.2,0.7c0,0.2-0.2,0.3-0.4,0.3h-0.1c-1.3-0.7-2-2.1-1.9-3.5c0-2.6,2.2-5.8,6.6-5.8
						c3-0.2,5.6,2,5.8,5c0,0,0,0,0,0v0.3c0,3.6-2,6.3-5,6.3c-0.9,0-1.7-0.4-2.2-1.1c0,0-0.5,2.1-0.7,2.5c-0.2,0.7-0.5,1.4-0.9,2
						c4.9,1.2,9.9-1.8,11.2-6.7c1.2-4.8-1.6-9.7-6.4-11.1l0,0l-0.3-0.1C106.2,240,105.6,240,104.9,240L104.9,240z"/>
					<rect x="0" y="236.5" class="st15" width="25.4" height="25.4"/>
					<path class="st2" d="M22.1,251.8l0.5-3.9h-3.8v-2.5c0-1.1,0.3-1.9,1.9-1.9h2.1V240c-1-0.1-2-0.2-3-0.1c-3,0-5,1.8-5,5.1v2.9
						h-3.4v3.9h3.4v10h4v-10L22.1,251.8z"/>
					<rect x="184.4" y="236.5" class="st16" width="25.5" height="25.5"/>
					<path class="st2" d="M188.8,246.4h3.6V258h-3.6V246.4z M190.6,240.6c1.2,0,2.1,0.9,2.1,2.1s-0.9,2.1-2.1,2.1
						c-1.2,0-2.1-0.9-2.1-2.1C188.6,241.6,189.5,240.7,190.6,240.6L190.6,240.6"/>
					<path class="st2" d="M194.7,246.4h3.4v1.6l0,0c0.7-1.2,2-1.9,3.4-1.9c3.6,0,4.3,2.4,4.3,5.5v6.4h-3.6v-5.7c0-1.3,0-3.1-1.9-3.1
						s-2.2,1.5-2.2,3v5.7h-3.6L194.7,246.4L194.7,246.4z"/>
					<rect x="46.1" y="236.5" class="st17" width="25.5" height="25.5"/>
					<path class="st2" d="M67.3,244c-0.6,0.3-1.3,0.5-2,0.6c0.7-0.4,1.3-1.1,1.5-1.9c-0.7,0.4-1.4,0.7-2.2,0.9
						c-1.3-1.4-3.5-1.6-4.9-0.3c-1,0.9-1.4,2.2-1.1,3.5c-2.8-0.2-5.4-1.5-7.2-3.7c-0.9,1.6-0.4,3.6,1.1,4.7c-0.6,0-1.1-0.2-1.6-0.4
						l0,0c0,1.7,1.2,3.1,2.8,3.4c-0.5,0.1-1.1,0.2-1.6,0.1c0.5,1.4,1.8,2.4,3.3,2.4c-1.2,1-2.7,1.5-4.3,1.5c-0.3,0-0.5,0-0.8-0.1
						c4.6,3,10.7,1.7,13.7-2.8c0,0,0,0,0-0.1l0,0v-0.1c1-1.6,1.6-3.4,1.6-5.3V246C66.3,245.4,66.8,244.7,67.3,244z"/>
					<path class="st2" d="M151.4,206c0.3,0,0.5-0.3,0.5-0.8v-2.4c0-0.5-0.2-0.8-0.5-0.8s-0.5,0.3-0.5,0.8v2.4
						C150.9,205.7,151,206,151.4,206z"/>
					<path class="st2" d="M138.9,222.2h25.5v-25.5h-25.5V222.2z M153.8,201.1h1v4.6c0,0.2,0.1,0.2,0.2,0.2c0.3-0.1,0.5-0.3,0.6-0.5
						V201h1v5.7h-1v-0.6c-0.3,0.4-0.7,0.6-1.2,0.7c-0.3,0-0.6-0.1-0.7-0.4c-0.1-0.3-0.1-0.6-0.1-0.9L153.8,201.1L153.8,201.1z
						 M149.8,203c0-0.5,0.1-1,0.3-1.4c0.5-0.7,1.5-0.8,2.2-0.3l0.3,0.3c0.3,0.4,0.4,0.9,0.3,1.4v2c0,0.5-0.1,1-0.3,1.4
						c-0.5,0.7-1.5,0.8-2.2,0.3l-0.3-0.3c-0.3-0.4-0.4-0.9-0.3-1.4V203z M147.1,199.1l0.8,3l0.8-3h1.2l-1.4,4.6v3.1h-1.1v-3.1
						c-0.2-0.8-0.4-1.6-0.7-2.4l-0.7-2.1L147.1,199.1L147.1,199.1z M143.4,209.8c0.2-0.9,0.9-1.6,1.8-1.7c2.1-0.2,4.3-0.3,6.4-0.2
						c2.1,0,4.2,0,6.4,0.2c0.9,0.1,1.6,0.8,1.8,1.7c0.4,2.7,0.4,5.3,0,8c-0.2,0.9-0.9,1.6-1.8,1.7c-2.1,0.2-4.3,0.3-6.4,0.2
						c-2.1,0-4.2,0-6.4-0.2c-0.9-0.1-1.6-0.8-1.8-1.7C143,215.2,143,212.5,143.4,209.8L143.4,209.8z"/>
					<path class="st2" d="M148.9,217.5c0.5-0.1,0.9-0.3,1.2-0.7v0.6h1v-5.7h-1v4.3c-0.2,0.3-0.4,0.5-0.6,0.5s-0.2-0.1-0.2-0.2v-4.6
						h-1v4.5c0,0.3,0,0.5,0.1,0.8C148.3,217.4,148.6,217.6,148.9,217.5z"/>
					<path class="st2" d="M153,216.9c0.2,0.4,0.6,0.6,1.1,0.6c0.4,0,0.7-0.2,0.8-0.6c0.1-0.4,0.1-0.7,0.1-1.1v-2.3
						c0-0.4,0-0.7-0.1-1.1c-0.1-0.4-0.4-0.7-0.8-0.6c-0.4,0.1-0.8,0.3-1.1,0.6v-2.5h-1v7.6h1V216.9L153,216.9z M153,212.9
						c0.1-0.1,0.3-0.2,0.5-0.2c0.3,0,0.4,0.3,0.4,0.8v2.4c0,0.5-0.1,0.8-0.4,0.8c-0.2,0-0.4-0.1-0.5-0.2V212.9z"/>
					<polygon class="st2" points="145.6,217.5 146.7,217.5 146.7,210.9 148,210.9 148,209.9 144.4,209.9 144.4,210.9 145.6,210.9 
											"/>
					<path class="st2" d="M157.3,217.5c0.7,0.1,1.3-0.5,1.4-1.2c0,0,0,0,0,0v-0.8h-1v0.7c0,0.2-0.3,0.4-0.5,0.4
						c-0.4,0-0.5-0.3-0.5-0.8v-1h2.1v-1.2c0-0.5-0.1-0.9-0.3-1.3c-0.5-0.7-1.4-0.8-2-0.3c0,0,0,0-0.1,0l0,0l-0.3,0.3
						c-0.2,0.4-0.3,0.8-0.3,1.3v2c0,0.5,0.1,0.9,0.3,1.3C156.4,217.3,156.8,217.5,157.3,217.5L157.3,217.5z M156.8,213.4
						c0-0.5,0.2-0.8,0.5-0.8s0.5,0.3,0.5,0.8v0.5h-1V213.4z"/>
					<path class="st2" d="M289.1,206.1c0-0.3,0.1-0.6,0.1-0.9c0-1.1-0.3-2.1-0.8-3c-0.2-0.5-0.6-0.9-1-1.2c-0.4-0.3-0.9-0.5-1.4-0.5
						c-0.7,0-1.3,0.3-1.7,0.8c-0.4,0.5-0.6,1.2-0.5,1.9c0,1,0.3,2,0.8,2.9c0.3,0.5,0.6,0.9,1,1.2c0.4,0.3,0.9,0.5,1.4,0.5
						c0.6,0,1.2-0.3,1.7-0.7C288.9,206.8,289,206.5,289.1,206.1z"/>
					<path class="st2" d="M283.7,217.2c1,0.6,2.1,0.9,3.2,0.9c1,0.1,1.9-0.2,2.7-0.8c0.6-0.5,0.9-1.2,0.9-1.9c0-0.6-0.2-1.2-0.6-1.7
						c-0.6-0.6-1.3-1.2-2.1-1.7h-0.6c-0.3,0-0.7,0-1,0.1c-0.5,0.1-1.1,0.2-1.6,0.4l-0.5,0.2c-0.3,0.1-0.5,0.3-0.7,0.5
						c-0.2,0.3-0.4,0.5-0.6,0.8c-0.2,0.4-0.3,0.8-0.3,1.2C282.6,216,283.1,216.7,283.7,217.2z"/>
					<path class="st2" d="M277.2,222.2h25.5v-25.5h-25.5V222.2z M293,202.5h2.7v-2.7h1.3v2.7h2.7v1.3H297v2.7h-1.3v-2.7H293V202.5z
						 M280.8,214c0.3-0.6,0.9-1.2,1.5-1.5c0.8-0.5,1.7-0.8,2.6-0.9c0.7-0.1,1.5-0.2,2.2-0.2c-0.2-0.2-0.4-0.5-0.5-0.8
						c-0.2-0.3-0.3-0.7-0.2-1c0-0.2,0-0.4,0.1-0.6l0.2-0.4h-0.8c-1.2,0.1-2.3-0.4-3.1-1.3c-0.7-0.7-1.1-1.7-1.1-2.7
						c0-1.3,0.6-2.6,1.6-3.4c0.6-0.6,1.4-1,2.2-1.2c0.7-0.2,1.5-0.2,2.2-0.2h5.1l-1.6,0.9h-1.6c0.2,0.1,0.4,0.2,0.5,0.4
						c0.2,0.2,0.4,0.5,0.6,0.7c0.2,0.3,0.4,0.6,0.5,1c0.1,0.4,0.2,0.9,0.2,1.3c0,0.8-0.2,1.5-0.6,2.2c-0.2,0.3-0.4,0.5-0.6,0.7
						l-0.8,0.7c-0.2,0.1-0.3,0.3-0.4,0.5c-0.2,0.2-0.2,0.4-0.2,0.7c0,0.2,0.1,0.5,0.2,0.7c0.1,0.2,0.2,0.3,0.4,0.4l0.9,0.7
						c0.5,0.4,1,0.9,1.4,1.4c0.4,0.6,0.6,1.4,0.6,2.1c0,1.3-0.6,2.5-1.6,3.3c-1.4,1.1-3.1,1.6-4.9,1.5c-1.4,0.1-2.8-0.3-4-1.1
						c-0.8-0.6-1.3-1.5-1.3-2.5C280.4,214.9,280.5,214.4,280.8,214L280.8,214z"/>
					<path class="st2" d="M231.2,222.1h25.4v-25.4h-25.4V222.1L231.2,222.1z M239.7,203.8c0,0-0.5,7,4.6,11.1
						c1.3-1.1,2.4-2.5,3.1-4.1c-2.1-1.2-3.3-3.5-3.1-5.9c0-4.6,6.8-4,6.8-0.4c0,1.2,0,2.3-0.2,3.5h-2.4c0.2-1,0.4-2,0.4-3
						c0.1-0.6-0.3-1.2-0.9-1.4c-0.6-0.1-1.3,0.3-1.4,0.9l0,0v0.2c-0.2,2.6,1.8,4.8,4.4,5c0,0,0,0,0,0h0.1v2c-0.5,0-1-0.1-1.5-0.2
						c-0.2,0.3-0.3,0.6-0.5,0.9c-2,3.2-3.7,4.9-4.4,4.9c-0.5,0.1-1.1,0-1.5-0.4c-0.6-0.5-5.6-3.8-5.6-13.2L239.7,203.8z"/>
					<path class="st2" d="M348.8,196.7h-25.5v25.5h25.5V196.7z M344.5,215.7c0,1.2-0.9,2.2-2.1,2.2c0,0,0,0,0,0h-12.5
						c-1.2,0-2.2-1-2.2-2.2l0,0v-12.5c0-1.2,1-2.2,2.2-2.2h12.5c1.2,0,2.1,1,2.1,2.2c0,0,0,0,0,0l0,0V215.7z"/>
					<path class="st2" d="M340,206.2h1.9c0.4,0,0.8-0.3,0.8-0.8c0,0,0,0,0,0l0,0v-1.8c0-0.4-0.3-0.8-0.8-0.8c0,0,0,0,0,0H340
						c-0.4,0-0.8,0.3-0.8,0.8c0,0,0,0,0,0l0,0v1.8C339.2,205.8,339.6,206.2,340,206.2z"/>
					<path class="st2" d="M341.4,209.6c-0.2,2.9-2.7,5.1-5.6,4.9c-2.6-0.2-4.8-2.3-4.9-4.9c0-0.5,0.1-0.9,0.2-1.4h-1.5v7.1
						c0,0.4,0.2,0.7,0.6,0.7H342c0.4,0,0.7-0.2,0.7-0.6l0,0v-7.1h-1.5C341.3,208.7,341.4,209.2,341.4,209.6L341.4,209.6z"/>
					<ellipse class="st2" cx="336.1" cy="209.4" rx="3.4" ry="3.3"/>
					<rect x="367.1" y="236.5" class="st18" width="25.5" height="25.5"/>
					<path class="st2" d="M92.7,222.2h25.5v-25.5H92.7V222.2z M105.5,200.2c5.1,0,9.2,4.1,9.2,9.2c0,5.1-4.1,9.2-9.2,9.2
						c0,0,0,0,0,0l0,0c-0.9,0-1.8-0.1-2.6-0.4c0.4-0.6,0.7-1.3,0.9-2c0.1-0.4,0.7-2.5,0.7-2.5c0.5,0.7,1.3,1.1,2.2,1.1
						c3,0,5-2.7,5-6.3c-0.1-3-2.7-5.4-5.7-5.3h-0.1c-4.4,0-6.6,3.1-6.6,5.8c-0.2,1.5,0.6,2.9,1.9,3.5c0.2,0.1,0.4,0,0.4-0.1v-0.1
						c0-0.2,0.1-0.5,0.2-0.7c0.1-0.2,0-0.4-0.1-0.5c-0.4-0.5-0.6-1.2-0.6-1.8c0-2.4,1.9-4.4,4.3-4.4c0,0,0,0,0,0h0.2
						c2.5,0,3.8,1.5,3.8,3.5c0,2.7-1.2,4.9-2.9,4.9c-0.8,0-1.5-0.6-1.5-1.4c0,0,0,0,0,0l0,0v-0.4c0.4-1.1,0.6-2.2,0.8-3.3
						c0.1-0.7-0.4-1.3-1.1-1.4c0,0,0,0,0,0h-0.2c-1,0-1.8,1-1.8,2.4c0,0.5,0.1,1,0.3,1.5l-1.2,5c-0.1,0.7-0.2,1.4-0.2,2.1
						c-4.7-2-6.8-7.4-4.8-12c0,0,0,0,0-0.1C98.4,202.3,101.8,200.2,105.5,200.2z"/>
					<path class="st2" d="M0.5,222.1h25.4v-25.4H0.5V222.1z M12,208h3.4v-2.9c0-3.3,2-5.1,5-5.1c1,0,2,0,3,0.1v3.5h-2.1
						c-1.6,0-1.9,0.8-1.9,1.9v2.5h3.9l-0.5,3.9h-3.4v10h-4v-10H12V208z"/>
					<path class="st2" d="M185,222.2h25.5v-25.5H185V222.2z M193,218.1h-3.6v-11.6h3.6V218.1z M195.3,206.5h3.4v1.6l0,0
						c0.7-1.2,2-1.9,3.4-1.9c3.6,0,4.3,2.4,4.3,5.5v6.4h-3.6v-5.6c0-1.3,0-3.1-1.9-3.1s-2.2,1.5-2.2,3v5.7h-3.6L195.3,206.5
						L195.3,206.5z M191.2,200.8c1.2,0,2.1,0.9,2.1,2.1s-0.9,2.1-2.1,2.1c-1.2,0-2.1-0.9-2.1-2.1c0-1.1,0.9-2.1,2-2.1H191.2z"/>
					<path class="st2" d="M46.6,222.2h25.5v-25.5H46.6V222.2z M52.8,210.9c0.2,0,0.4,0.1,0.7,0.1c0.3,0,0.6,0,0.9-0.1
						c-1.6-0.3-2.8-1.8-2.8-3.4l0,0c0.5,0.3,1,0.4,1.6,0.4c-1.6-1-2.1-3.1-1.1-4.7c0,0,0,0,0,0l0,0c1.8,2.2,4.4,3.5,7.2,3.6
						c-0.5-1.8,0.6-3.8,2.4-4.3l0,0c1.3-0.3,2.6,0.1,3.5,1.1c0.8-0.2,1.5-0.5,2.2-0.9c-0.3,0.8-0.8,1.5-1.5,1.9
						c0.7-0.1,1.4-0.3,2-0.6c-0.5,0.7-1.1,1.3-1.7,1.8v0.4c0,5.4-4.4,9.9-9.8,9.9c0,0-0.1,0-0.1,0c-1.9,0-3.7-0.5-5.3-1.6
						c0.3,0,0.5,0,0.8,0.1c1.6,0,3.1-0.5,4.3-1.5C54.6,213.3,53.2,212.4,52.8,210.9z"/>
					<path class="st2" d="M500.9,37.8l8-8l2.3,2.3l-5.7,5.7l5.7,5.7l-2.3,2.3L500.9,37.8z"/>
					<path class="st2" d="M478.1,45.8l-2.3-2.3l5.7-5.7l-5.7-5.7l2.3-2.3l8,8L478.1,45.8z"/>
					<path class="st3" d="M456.8,1.3c0.9,0.8,1.4,2,1.3,3.2v9.1c0,2.5-2,4.6-4.6,4.6c0,0,0,0,0,0h-9.1c-2.5,0-4.6-2-4.6-4.6
						c0,0,0,0,0,0l0,0V4.5c0-1.2,0.5-2.3,1.3-3.2c0.8-0.9,2-1.4,3.2-1.3h9.1C454.7,0,455.9,0.4,456.8,1.3z M454.8,6.7l-1-1
						c-0.1-0.2-0.3-0.2-0.5,0l-5.1,5.1c-0.1,0.1-0.3,0.2-0.4,0.1l-0.1-0.1l-2.2-2.3c-0.2-0.1-0.3-0.1-0.5,0l-1,0.9
						c-0.1,0.1-0.1,0.1-0.1,0.2s0,0.2,0.1,0.2l2.2,2.4c0.1,0,0.1,0.1,0.2,0.1l0.2,0.2c0,0.1,0,0.1,0.1,0.1l0,0l0,0l1,1
						c0.2,0.1,0.3,0.1,0.5,0l0,0l6.5-6.5C455,7.1,455,6.9,454.8,6.7C454.9,6.8,454.9,6.7,454.8,6.7L454.8,6.7z"/>
					<path class="st19" d="M453.3,30c0.2,0,0.4,0.1,0.6,0.2c0.2,0.1,0.3,0.4,0.2,0.6v9.1c0,0.4-0.4,0.8-0.8,0.8h-9.1
						c-0.2,0-0.4-0.1-0.6-0.2c-0.2-0.1-0.3-0.4-0.2-0.6v-9.2c0-0.2,0.1-0.4,0.2-0.6c0.1-0.2,0.4-0.3,0.6-0.2L453.3,30 M453.3,26.2
						h-9.1c-2.5,0-4.6,2-4.6,4.5l0,0v9.1c0,2.5,2,4.6,4.6,4.6c0,0,0,0,0,0h9.1c2.5,0,4.6-2,4.6-4.6c0,0,0,0,0,0l0,0v-9.1
						C457.9,28.2,455.8,26.2,453.3,26.2z"/>
					<path class="st2" d="M517.4,4.4c0.1,0.1,0.1,0.3,0.2,0.4c0,0.2-0.1,0.3-0.2,0.4l-10.9,10.9c-0.2,0.2-0.5,0.3-0.7,0.1
						c0,0,0,0,0,0l0,0c-0.1,0-0.1,0-0.1-0.1c0,0,0,0,0,0l0,0l-1.6-1.6l-0.8-0.8l-3.7-3.9c-0.1-0.3-0.1-0.5,0-0.8l1.6-1.5
						c0.2-0.2,0.5-0.3,0.7-0.1c0,0,0.1,0.1,0.1,0.1l3.7,3.8c0.2,0.2,0.5,0.3,0.7,0.1c0,0,0,0,0,0l0,0c0.1,0,0.1,0,0.1-0.1
						c0,0,0,0,0,0l0,0l8.5-8.4c0.2-0.2,0.5-0.3,0.7-0.1c0,0,0,0,0,0l0,0l0.1,0.1L517.4,4.4z"/>
					<polygon class="st2" points="489.9,70.3 489.9,70.3 477,56.7 474.1,59.4 484.4,70.3 474.1,81.2 477,83.9 					"/>
					<polygon class="st2" points="498.9,70.3 498.9,70.3 511.8,56.7 514.7,59.4 504.4,70.3 514.7,81.2 511.8,83.9 					"/>
					<path class="st2" d="M99.2,321.8c3.2,0,5.8-3.3,5.8-7.3s-2.6-7.3-5.8-7.3s-5.8,3.3-5.8,7.3S96,321.8,99.2,321.8z M99.2,308.7
						c2.3,0,4.2,2.6,4.2,5.8s-1.9,5.8-4.2,5.8s-4.2-2.6-4.2-5.8S96.9,308.7,99.2,308.7L99.2,308.7z"/>
					<path class="st2" d="M88.4,323.1l-1.5,4.6c-0.1,0.4,0.1,0.8,0.5,1h23.4c0.2,0,0.5-0.1,0.6-0.3c0.1-0.2,0.2-0.5,0.1-0.7
						l-1.5-4.6c-0.1-0.2-0.3-0.4-0.5-0.5l-5.4-1.5c-0.2-0.1-0.4,0-0.6,0.1l-4.3,2.1l-4.3-2.1c-0.2-0.1-0.4-0.1-0.6-0.1l-5.4,1.5
						C88.7,322.7,88.6,322.9,88.4,323.1z M94.4,322.6l4.4,2.2c0.2,0.1,0.5,0.1,0.7,0l4.4-2.2l4.7,1.3l1.1,3.2h-21l1-3.2L94.4,322.6z
						"/>
					<path class="st8" d="M378.2,165.8c2.6,0,4.8-2.7,4.8-6.1s-2.1-6.1-4.8-6.1s-4.8,2.7-4.8,6.1S375.6,165.8,378.2,165.8z"/>
					<path class="st8" d="M369.3,167.7l-1.3,3.8c-0.1,0.2,0,0.4,0.1,0.6c0.1,0.2,0.3,0.3,0.5,0.3h19.2c0.3,0,0.6-0.2,0.6-0.6
						c0,0,0,0,0,0l0,0v-0.2l-1.3-3.8c-0.1-0.2-0.2-0.4-0.4-0.4l-4.5-1.3c-0.2-0.1-0.3-0.1-0.5,0l-3.5,1.8l-3.5-1.8
						c-0.2-0.1-0.3-0.1-0.5,0l-4.5,1.3C369.5,167.4,369.3,167.5,369.3,167.7L369.3,167.7z"/>
					<path class="st2" d="M65.9,308.7h-3.1v-0.8c0-0.4-0.3-0.8-0.7-0.8h-2.3c-0.4,0-0.8,0.3-0.8,0.8c0,0,0,0,0,0l0,0v0.8h-9.3v-0.8
						c0-0.4-0.3-0.8-0.8-0.8c0,0,0,0,0,0h-2.3c-0.4,0-0.8,0.3-0.8,0.8c0,0,0,0,0,0l0,0v0.8h-3.1c-0.4,0-0.8,0.3-0.8,0.8c0,0,0,0,0,0
						l0,0V328c0,0.4,0.3,0.8,0.8,0.8c0,0,0,0,0,0h23.2c0.4,0,0.8-0.3,0.8-0.8c0,0,0,0,0,0l0,0v-18.5
						C66.7,309.1,66.4,308.7,65.9,308.7C65.9,308.7,65.9,308.7,65.9,308.7z M60.5,308.7h0.8v1.5h-0.8V308.7z M47.4,308.7h0.8v1.5
						h-0.8V308.7z M65.1,327.2H43.5v-17h2.3v0.8c0,0.4,0.3,0.8,0.8,0.8c0,0,0,0,0,0h2.3c0.4,0,0.8-0.3,0.8-0.8c0,0,0,0,0,0l0,0v-0.8
						H59v0.8c0,0.4,0.3,0.8,0.8,0.8c0,0,0,0,0,0h2.3c0.4,0,0.8-0.3,0.8-0.8c0,0,0,0,0,0l0,0v-0.8h2.3L65.1,327.2z"/>
					<path class="st2" d="M49.7,314.9h-3.1c-0.4,0-0.8,0.3-0.8,0.8c0,0,0,0,0,0l0,0v3.1c0,0.4,0.3,0.8,0.8,0.8c0,0,0,0,0,0h3.1
						c0.4,0,0.8-0.3,0.8-0.8c0,0,0,0,0,0l0,0v-3.1C50.5,315.3,50.2,314.9,49.7,314.9C49.7,314.9,49.7,314.9,49.7,314.9z M48.9,318
						h-1.5v-1.5h1.5V318z"/>
					<path class="st2" d="M55.9,314.9h-3.1c-0.4,0-0.8,0.3-0.8,0.8c0,0,0,0,0,0l0,0v3.1c0,0.4,0.3,0.8,0.8,0.8c0,0,0,0,0,0h3.1
						c0.4,0,0.8-0.3,0.8-0.8c0,0,0,0,0,0l0,0v-3.1C56.6,315.2,56.3,314.9,55.9,314.9z M55.1,318h-1.5v-1.5h1.5L55.1,318z"/>
					<path class="st2" d="M62.1,314.9H59c-0.4,0-0.8,0.3-0.8,0.8c0,0,0,0,0,0l0,0v3.1c0,0.4,0.3,0.8,0.8,0.8c0,0,0,0,0,0h3.1
						c0.4,0,0.8-0.3,0.8-0.8c0,0,0,0,0,0l0,0v-3.1C62.9,315.3,62.6,314.9,62.1,314.9C62.1,314.9,62.1,314.9,62.1,314.9z M61.3,318
						h-1.5v-1.5h1.5V318z"/>
					<path class="st2" d="M49.7,321h-3.1c-0.4,0-0.8,0.3-0.8,0.8c0,0,0,0,0,0l0,0v3.1c0,0.4,0.3,0.8,0.8,0.8c0,0,0,0,0,0h3.1
						c0.4,0,0.8-0.3,0.8-0.8c0,0,0,0,0,0l0,0v-3.1C50.5,321.4,50.2,321,49.7,321C49.7,321,49.7,321,49.7,321z M48.9,324.1h-1.5v-1.5
						h1.5V324.1z"/>
					<path class="st2" d="M55.9,321h-3.1c-0.4,0-0.8,0.3-0.8,0.8c0,0,0,0,0,0l0,0v3.1c0,0.4,0.3,0.8,0.8,0.8c0,0,0,0,0,0h3.1
						c0.4,0,0.8-0.3,0.8-0.8c0,0,0,0,0,0l0,0v-3.1C56.6,321.4,56.3,321,55.9,321z M55.1,324.1h-1.5v-1.5h1.5L55.1,324.1z"/>
					<path class="st2" d="M62.1,321H59c-0.4,0-0.8,0.3-0.8,0.8c0,0,0,0,0,0l0,0v3.1c0,0.4,0.3,0.8,0.8,0.8c0,0,0,0,0,0h3.1
						c0.4,0,0.8-0.3,0.8-0.8c0,0,0,0,0,0l0,0v-3.1C62.9,321.4,62.6,321,62.1,321C62.1,321,62.1,321,62.1,321z M61.3,324.1h-1.5v-1.5
						h1.5V324.1z"/>
					<path class="st2" d="M227.1,330.3h14.7c0.8,0,1.5-0.6,1.5-1.4c0,0,0,0,0,0l0,0v-21.7c0-0.8-0.7-1.5-1.5-1.5h-14.7
						c-0.8,0-1.5,0.7-1.5,1.5v2.3h-0.8c-0.4,0-0.8,0.4-0.8,0.8c0,0.4,0.4,0.8,0.8,0.8l0,0h0.8v1.5h-0.8c-0.4,0-0.8,0.4-0.8,0.8
						c0,0.4,0.4,0.8,0.8,0.8l0,0h0.8v1.5h-0.8c-0.4,0-0.8,0.4-0.8,0.8c0,0.4,0.4,0.8,0.8,0.8l0,0h0.8v1.5h-0.8
						c-0.4,0-0.8,0.3-0.8,0.8c0,0,0,0,0,0l0,0c0,0.4,0.3,0.8,0.7,0.8h0.8v1.5h-0.7c-0.4,0-0.8,0.4-0.8,0.8c0,0.4,0.4,0.8,0.8,0.8
						l0,0h0.8v1.5h-0.8c-0.4,0-0.8,0.4-0.8,0.8c0,0.4,0.4,0.8,0.8,0.8l0,0h0.8v2.3c0,0.8,0.6,1.4,1.3,1.4c0,0,0,0,0.1,0H227.1z
						 M241.8,328.8h-3.1v-21.6h3.1V328.8z M227.1,323.4h0.8c0.4,0,0.8-0.4,0.8-0.8c0-0.4-0.4-0.8-0.8-0.8h-0.8v-1.5h0.8
						c0.4,0,0.8-0.4,0.8-0.8c0-0.4-0.4-0.8-0.8-0.8h-0.8v-1.5h0.8c0.4,0,0.8-0.4,0.8-0.8c0-0.4-0.4-0.8-0.8-0.8h-0.8v-1.5h0.8
						c0.4,0,0.8-0.4,0.8-0.8c0-0.4-0.4-0.8-0.8-0.8h-0.8v-1.6h0.8c0.4,0,0.8-0.4,0.8-0.8c0-0.4-0.4-0.8-0.8-0.8h-0.8V307h10v21.6
						h-10v-2.3h0.8c0.4,0,0.8-0.4,0.8-0.8c0-0.4-0.4-0.8-0.8-0.8h-0.8V323.4z"/>
					<path class="st2" d="M155.5,307.1l-11.5,1.5l-11.5-1.5c-0.2,0-0.4,0-0.6,0.2c-0.2,0.1-0.3,0.4-0.3,0.6v18.5
						c0,0.4,0.3,0.7,0.7,0.8l11.6,1.5h0.2l11.6-1.5c0.4-0.1,0.7-0.4,0.7-0.8v-18.5c0-0.2-0.1-0.5-0.3-0.6
						C156,307.2,155.7,307.1,155.5,307.1L155.5,307.1z M133.2,308.8l10,1.3v17l-10-1.3V308.8z M154.8,325.8l-10,1.3v-17l10-1.3
						V325.8z"/>
					<path class="st2" d="M135.4,312.5l6.2,0.8h0.1c0.4,0,0.8-0.3,0.8-0.7c0-0.4-0.3-0.8-0.7-0.8l0,0l-6.2-0.8
						c-0.4-0.1-0.8,0.2-0.9,0.6c-0.1,0.4,0.1,0.7,0.5,0.8h0.1L135.4,312.5L135.4,312.5z"/>
					<path class="st2" d="M141.8,315.6l-6.2-0.8c-0.4-0.1-0.8,0.2-0.9,0.6c-0.1,0.4,0.2,0.8,0.6,0.9h0.2l6.2,0.8h0.1
						c0.4,0,0.7-0.3,0.8-0.7C142.5,316,142.2,315.7,141.8,315.6z"/>
					<path class="st2" d="M141.8,319.5l-6.2-0.8c-0.4,0-0.8,0.3-0.8,0.8c0,0,0,0,0,0c0,0.4,0.3,0.7,0.6,0.8l0,0l6.2,0.8h0.1
						c0.4,0,0.7-0.3,0.8-0.7C142.6,320,142.3,319.6,141.8,319.5C141.9,319.5,141.8,319.5,141.8,319.5L141.8,319.5z"/>
					<path class="st2" d="M141.8,323.4l-6.2-0.8c-0.4,0-0.8,0.3-0.8,0.8c0,0,0,0,0,0c0,0.4,0.3,0.7,0.6,0.8l6.2,0.8h0.1
						c0.4,0,0.7-0.3,0.8-0.7C142.6,323.9,142.3,323.5,141.8,323.4C141.9,323.4,141.8,323.4,141.8,323.4L141.8,323.4z"/>
					<path class="st2" d="M146.3,313.3h0.1l6.2-0.8c0.4-0.1,0.7-0.6,0.6-1c-0.1-0.4-0.4-0.6-0.8-0.6l-6.2,0.8
						c-0.4,0-0.7,0.4-0.7,0.8C145.5,312.9,145.9,313.4,146.3,313.3L146.3,313.3z"/>
					<path class="st2" d="M146.3,317.2h0.1l6.2-0.8c0.4,0,0.8-0.4,0.8-0.8c0-0.4-0.4-0.8-0.8-0.8h-0.2l-6.2,0.8
						c-0.4,0.1-0.7,0.5-0.6,0.9C145.6,316.9,145.9,317.2,146.3,317.2C146.3,317.2,146.3,317.2,146.3,317.2z"/>
					<path class="st2" d="M146.3,321h0.1l6.2-0.8c0.4-0.1,0.7-0.6,0.6-1c-0.1-0.4-0.4-0.6-0.8-0.6l-6.2,0.8
						c-0.4,0.1-0.7,0.5-0.7,0.9C145.6,320.8,145.9,321.1,146.3,321L146.3,321z"/>
					<path class="st2" d="M152.4,322.6l-6.2,0.8c-0.4,0-0.7,0.4-0.7,0.8c0,0.4,0.4,0.7,0.8,0.7h0.1l6.2-0.8c0.4,0,0.7-0.4,0.7-0.8
						c0-0.4-0.4-0.7-0.8-0.7H152.4z"/>
					<path class="st2" d="M270.4,369.9h2.5l0.4,1.3l-2,2c-0.3,0.3-0.3,0.8,0,1.1l0,0l3.1,3.1c0.3,0.3,0.8,0.3,1.1,0l0,0l2-2l1.3,0.5
						v2.5c0,0.4,0.3,0.8,0.8,0.8c0,0,0,0,0,0h4.6c0.4,0,0.8-0.3,0.8-0.8c0,0,0,0,0,0l0,0v-2.6l1.3-0.5l2,2c0.3,0.3,0.8,0.3,1.1,0
						l3.1-3.1c0.3-0.3,0.3-0.8,0-1.1l-2-2l0.4-1.3h2.5c0.4,0,0.8-0.3,0.8-0.8c0,0,0,0,0,0l0,0v-4.6c0-0.4-0.3-0.8-0.8-0.8
						c0,0,0,0,0,0H291l-0.4-1.3l2-2c0.3-0.3,0.3-0.8,0-1.1l0,0l-3.1-3.1c-0.3-0.3-0.8-0.3-1.1,0l0,0l-2,2l-1.3-0.5v-2.4
						c0-0.4-0.3-0.8-0.8-0.8c0,0,0,0,0,0h-4.6c-0.4,0-0.8,0.3-0.8,0.8c0,0,0,0,0,0l0,0v2.5l-1.3,0.5l-2-2c-0.3-0.3-0.8-0.3-1.1,0
						l0,0l-3.1,3.1c-0.3,0.3-0.3,0.8,0,1.1l0,0l2,2l-0.4,1.3h-2.5c-0.4,0-0.8,0.3-0.8,0.8c0,0,0,0,0,0l0,0v4.6
						C269.8,369.5,270,369.9,270.4,369.9L270.4,369.9z M271.2,365.3h2.3c0.3,0,0.6-0.2,0.7-0.5l0.8-2.3c0.1-0.3,0-0.6-0.2-0.8
						l-1.8-1.8l2-2l1.8,1.8c0.2,0.2,0.5,0.3,0.8,0.2l2.3-0.8c0.3-0.1,0.5-0.4,0.5-0.7v-2.3h3.1v2.3c0,0.3,0.2,0.6,0.5,0.7l2.3,0.8
						c0.3,0.1,0.6,0,0.8-0.2l1.8-1.8l2,2l-1.8,1.8c-0.2,0.2-0.3,0.5-0.2,0.8l0.8,2.3c0.1,0.3,0.4,0.5,0.7,0.5h2.3v3.1h-2.3
						c-0.3,0-0.6,0.2-0.7,0.5l-0.8,2.3c-0.1,0.3,0,0.6,0.2,0.8l1.8,1.8l-2,2l-1.8-1.8c-0.2-0.2-0.5-0.3-0.8-0.2l-2.3,0.8
						c-0.3,0.1-0.5,0.4-0.5,0.7v2.3h-3.1v-2.3c0-0.3-0.2-0.6-0.5-0.7l-2.3-0.8c-0.3-0.1-0.6,0-0.8,0.2l-1.8,1.8l-2-2l1.8-1.8
						c0.2-0.2,0.3-0.5,0.2-0.8l-0.8-2.3c-0.1-0.3-0.4-0.5-0.7-0.5h-2.3V365.3z"/>
					<path class="st2" d="M282,369.9c1.7,0,3.1-1.4,3.1-3.1c0-1.7-1.4-3.1-3.1-3.1c-1.7,0-3.1,1.4-3.1,3.1
						C278.9,368.5,280.3,369.9,282,369.9z M282,365.3c0.9,0,1.6,0.6,1.6,1.5c0,0.9-0.6,1.6-1.5,1.6c-0.9,0-1.6-0.6-1.6-1.5l0,0
						C280.5,366.1,281.2,365.4,282,365.3z"/>
					<path class="st2" d="M12.6,314.5c0-1.7-1.4-3.1-3.1-3.1c-1.7,0-3.1,1.4-3.1,3.1c0,1.7,1.4,3.1,3.1,3.1l0,0
						C11.2,317.6,12.6,316.2,12.6,314.5z M8,314.5c0-0.8,0.6-1.5,1.4-1.6h0.1c0.9,0,1.6,0.6,1.6,1.5s-0.6,1.6-1.5,1.6H9.5
						C8.7,316,8.1,315.3,8,314.5z"/>
					<path class="st2" d="M9.5,330.3c0.2,0,0.5-0.1,0.6-0.3c0.3-0.4,8.3-9.5,8.3-15.6c0-4.9-4-8.9-8.9-8.9s-8.9,4-8.9,8.9l0,0
						c0,6,7.9,15.2,8.3,15.6C9.1,330.2,9.3,330.3,9.5,330.3z M9.5,307.1c4,0,7.3,3.3,7.3,7.3c0,0,0,0.1,0,0.1
						c0,4.6-5.5,11.6-7.4,13.9c-1.8-2.2-7.3-9.3-7.3-13.9C2.1,310.4,5.4,307.1,9.5,307.1C9.5,307.1,9.5,307.1,9.5,307.1z"/>
					<path class="st2" d="M110.9,360.5H86c-0.4,0-0.8,0.3-0.8,0.8c0,0,0,0,0,0l0,0v15c0,0.4,0.3,0.8,0.8,0.8c0,0,0,0,0,0h25
						c0.4,0,0.8-0.3,0.8-0.8c0,0,0,0,0,0l0,0v-15C111.8,360.8,111.4,360.5,110.9,360.5z M108.3,362.2l-9.8,6.1l-9.8-6.1H108.3z
						 M86.8,375.5V363l11.7,7.2l11.6-7.2v12.5H86.8z"/>
					<path class="st2" d="M143.8,365.5c-0.4,0-0.8,0.3-0.8,0.8c0,0,0,0,0,0l0,0v11.3l-1.9-1.9c-0.3-0.3-0.9-0.3-1.2,0l0,0
						c-0.3,0.3-0.3,0.8,0,1.1l3.3,3.3c0.3,0.3,0.9,0.3,1.2,0l0,0l3.3-3.3c0.4-0.3,0.4-0.8,0.1-1.2c-0.3-0.4-0.8-0.4-1.2-0.1l0,0
						l-0.1,0.1l-1.9,1.9v-11.3C144.6,365.8,144.2,365.5,143.8,365.5z"/>
					<path class="st2" d="M156.3,357.2h-25c-0.4,0-0.8,0.3-0.8,0.8c0,0,0,0,0,0l0,0v15c0,0.4,0.3,0.8,0.8,0.8c0,0,0,0,0,0h9.1
						c0.4,0,0.8-0.4,0.8-0.8c0-0.4-0.4-0.8-0.8-0.8h-8.3v-13.3h23.3v13.3h-8.3c-0.4,0-0.8,0.4-0.8,0.8c0,0.4,0.4,0.8,0.8,0.8h9.1
						c0.4,0,0.8-0.3,0.8-0.8c0,0,0,0,0,0l0,0v-15C157.1,357.6,156.8,357.3,156.3,357.2L156.3,357.2z"/>
					<path class="st2" d="M13.3,355.5C6,355.5,0,361.5,0,368.8c0,7.4,5.9,13.3,13.3,13.3c7.4,0,13.3-5.9,13.3-13.3
						c0-3.5-1.4-6.9-3.9-9.4C20.2,356.9,16.8,355.5,13.3,355.5z M21.5,377.1c-4.6,4.5-12,4.5-16.5-0.1c-4.5-4.6-4.5-12,0.1-16.5
						s12-4.5,16.5,0.1c0,0,0,0,0,0l0,0c4.5,4.5,4.5,11.9,0,16.4L21.5,377.1z"/>
					<path class="st2" d="M17.4,368.5l-3.3-8.3c-0.2-0.4-0.7-0.6-1.1-0.5c-0.2,0.1-0.4,0.3-0.5,0.5l-3.3,8.3c-0.1,0.2-0.1,0.4,0,0.6
						l0,0l3.3,8.3c0.2,0.4,0.7,0.6,1.1,0.5c0.2-0.1,0.4-0.3,0.5-0.5l3.3-8.3l0,0C17.5,368.9,17.5,368.7,17.4,368.5z M13.3,362.8
						l2.1,5.2h-4.2L13.3,362.8z M13.3,374.9l-2.1-5.2h4.2L13.3,374.9z"/>
					<path class="st2" d="M41.2,378h5v3.3c0,0.4,0.3,0.8,0.8,0.8c0,0,0,0,0,0h13.3c0.4,0,0.8-0.3,0.8-0.8c0,0,0,0,0,0l0,0V378h5
						c0.4,0,0.8-0.3,0.8-0.8c0,0,0,0,0,0l0,0v-13.3c0-0.4-0.3-0.8-0.8-0.8c0,0,0,0,0,0h-5v-6.6c0-0.4-0.3-0.8-0.8-0.8c0,0,0,0,0,0
						H47c-0.4,0-0.8,0.3-0.8,0.8c0,0,0,0,0,0l0,0v6.6h-5c-0.4,0-0.8,0.3-0.8,0.8c0,0,0,0,0,0l0,0v13.3
						C40.3,377.6,40.7,377.9,41.2,378L41.2,378z M59.5,380.5H47.8v-8.3h11.6L59.5,380.5z M47.8,357.2h11.7v5.8H47.8V357.2z
						 M42,364.7h23.3v11.6h-4.2v-5c0-0.4-0.3-0.8-0.8-0.8c0,0,0,0,0,0H47c-0.4,0-0.8,0.3-0.8,0.8c0,0,0,0,0,0l0,0v5H42V364.7z"/>
					<path class="st2" d="M45.1,366.2c-0.3-0.3-0.9-0.3-1.2,0c-0.2,0.2-0.2,0.4-0.2,0.6c0,0.2,0.1,0.4,0.2,0.6
						c0.3,0.3,0.9,0.3,1.2,0l0,0C45.4,367.1,45.4,366.6,45.1,366.2z"/>
					<path class="st2" d="M47,367.6c0.2,0,0.4-0.1,0.6-0.2c0.2-0.2,0.2-0.4,0.2-0.6c0-0.2-0.1-0.4-0.2-0.6c-0.3-0.3-0.9-0.3-1.2,0
						c-0.2,0.2-0.2,0.4-0.2,0.6c0,0.2,0.1,0.4,0.2,0.6C46.6,367.5,46.8,367.6,47,367.6z"/>
					<path class="st2" d="M57.8,373.8h-8.3c-0.4,0-0.8,0.4-0.8,0.8c0,0.4,0.4,0.8,0.8,0.8l0,0h8.3c0.4,0,0.8-0.4,0.8-0.8
						C58.6,374.2,58.3,373.8,57.8,373.8C57.8,373.8,57.8,373.8,57.8,373.8z"/>
					<path class="st2" d="M57.8,377.2h-8.3c-0.4,0-0.8,0.4-0.8,0.8c0,0.4,0.4,0.8,0.8,0.8l0,0h8.3c0.4,0,0.8-0.3,0.8-0.8
						c0,0,0,0,0,0l0,0C58.6,377.6,58.3,377.2,57.8,377.2C57.8,377.2,57.8,377.2,57.8,377.2L57.8,377.2z"/>
					<polygon class="st3" points="12.8,560.5 20,565.3 12.8,570 					"/>
					<path class="st2" d="M53,577.3c-5.9-5.9-5.9-15.5,0-21.4c5.9-5.9,15.5-5.9,21.4,0c5.9,5.9,5.9,15.5,0,21.4
						C68.5,583.2,58.9,583.2,53,577.3z M72.4,557.9c-4.8-4.7-12.6-4.6-17.3,0.2c-4.7,4.8-4.6,12.6,0.2,17.3s12.6,4.6,17.3-0.2
						c4.6-4.8,4.6-12.3,0-17.1L72.4,557.9z"/>
					<polygon class="st2" points="61.3,561.9 68.6,566.6 61.3,571.4 					"/>
					<polygon class="st7" points="369.9,113.8 387.8,124.3 369.9,134.7 					"/>
					<rect x="418.1" y="116.8" class="st7" width="3.6" height="16.4"/>
					<path d="M453.2,129.5h3.6l5.6,5.6c0.2,0.2,0.5,0.2,0.7,0.1c0.2-0.1,0.4-0.3,0.4-0.6v-19.3c0-0.3-0.2-0.5-0.4-0.6
						c-0.2-0.1-0.5,0-0.7,0.1l-5.6,5.6h-3.6c-0.3,0-0.6,0.2-0.6,0.6c0,0,0,0,0,0l0,0v7.7c-0.1,0.3,0.1,0.7,0.4,0.8H453.2z
						 M453.8,121.8h3.2c0.2,0,0.3-0.1,0.5-0.2l4.7-4.7v16.2l-4.7-4.7c-0.1-0.1-0.3-0.2-0.5-0.2h-3.2L453.8,121.8z"/>
					<path d="M464.9,128.3c0.2,0.2,0.5,0.3,0.8,0.1l0.1-0.1l0,0l2.4-2.4l2.4,2.4c0.2,0.2,0.5,0.3,0.8,0.1l0.1-0.1
						c0.2-0.3,0.3-0.7,0-0.9l-2.4-2.4l2.4-2.4c0.2-0.2,0.3-0.5,0.1-0.8l-0.1-0.1c-0.3-0.2-0.7-0.3-0.9,0l-2.4,2.4l-2.4-2.4
						c-0.2-0.3-0.6-0.3-0.9-0.1c-0.3,0.2-0.3,0.6-0.1,0.9l0.1,0.1l2.4,2.4l-2.4,2.4C464.7,127.7,464.7,128,464.9,128.3z"/>
					<path d="M500.7,129.5h3.6l5.6,5.6c0.1,0.1,0.3,0.2,0.5,0.2c0.3,0,0.6-0.2,0.6-0.6c0,0,0,0,0,0l0,0v-19.4c0-0.3-0.2-0.5-0.4-0.6
						c-0.2-0.1-0.5,0-0.7,0.1l-5.6,5.6h-3.6c-0.3,0-0.6,0.2-0.6,0.6c0,0,0,0,0,0l0,0v7.7C500.1,129.2,500.3,129.5,500.7,129.5z
						 M501.4,121.8h3.2c0.2,0,0.3-0.1,0.5-0.2l4.7-4.7v16.2l-4.7-4.7c-0.1-0.1-0.3-0.2-0.5-0.2h-3.2V121.8z"/>
					<path d="M512.9,127.5c-0.3,0-0.6,0.3-0.6,0.6c0,0.3,0.3,0.6,0.6,0.6c2.2-0.2,3.8-2,3.6-4.2c-0.1-1.9-1.7-3.5-3.6-3.6
						c-0.3,0-0.6,0.2-0.6,0.6c0,0,0,0,0,0l0,0c0,0.3,0.3,0.6,0.6,0.6l0,0c1.4,0.1,2.5,1.3,2.4,2.7c0.1,1.4-0.9,2.6-2.2,2.7
						c0,0,0,0-0.1,0L512.9,127.5z"/>
					<path d="M545.4,129.5h3.6l5.6,5.6c0.2,0.2,0.5,0.2,0.7,0.1c0.2-0.1,0.4-0.3,0.4-0.6v-19.3c0-0.3-0.2-0.5-0.4-0.6
						c-0.2-0.1-0.5,0-0.7,0.1l-5.6,5.6h-3.6c-0.3,0-0.6,0.2-0.6,0.6c0,0,0,0,0,0l0,0v7.7C544.8,129.2,545.1,129.5,545.4,129.5z
						 M546,121.8h3.2c0.2,0,0.3-0.1,0.5-0.2l4.7-4.7v16.2l-4.7-4.7c-0.1-0.1-0.3-0.2-0.5-0.2H546V121.8z"/>
					<path d="M557.6,127.5c-0.3,0-0.6,0.3-0.6,0.6c0,0.3,0.3,0.6,0.6,0.6l0,0c2.2-0.2,3.8-2,3.6-4.2c-0.1-1.9-1.7-3.5-3.6-3.6
						c-0.3,0-0.6,0.2-0.6,0.6c0,0,0,0,0,0l0,0c0,0.3,0.3,0.6,0.6,0.6l0,0c1.5,0.2,2.6,1.5,2.4,3c0,0,0,0,0,0
						C559.9,126.4,558.9,127.4,557.6,127.5z"/>
					<path d="M557.6,132c3.9,0,7.1-3.2,7.1-7.1s-3.2-7.1-7.1-7.1c0,0,0,0,0,0l0,0c-0.3,0-0.6,0.3-0.6,0.6c0,0.3,0.3,0.6,0.6,0.6l0,0
						c3.2,0,5.8,2.6,5.8,5.8c0,3.2-2.6,5.8-5.8,5.8c-0.4,0-0.7,0.2-0.7,0.6C556.9,131.8,557.2,132.1,557.6,132L557.6,132z"/>
					<path class="st2" d="M550.1,73.5c0-4.2,3.4-7.6,7.6-7.6c4.2,0,7.6,3.4,7.6,7.6s-3.4,7.6-7.6,7.6l0,0l0,0
						C553.5,81.1,550.1,77.7,550.1,73.5z M551.8,73.5c0,3.3,2.6,5.9,5.9,5.9s5.9-2.6,5.9-5.9s-2.6-5.9-5.9-5.9l0,0
						C554.5,67.7,551.9,70.3,551.8,73.5z"/>
					
						<rect x="546.1" y="80.2" transform="matrix(0.708 -0.7062 0.7062 0.708 103.26 412.0778)" class="st2" width="7.6" height="1.9"/>
					<rect x="166.7" y="496.3" class="st2" width="13.6" height="2.6"/>
					<rect x="177.7" y="496.3" class="st2" width="2.6" height="13.6"/>
					
						<rect x="166.6" y="501.9" transform="matrix(0.707 -0.7072 0.7072 0.707 -305.0796 270.0916)" class="st2" width="13.6" height="2.6"/>
					
						<rect x="206.8" y="499.4" transform="matrix(0.7071 -0.7071 0.7071 0.7071 -292.1395 295.4402)" class="st20" width="7.5" height="1.9"/>
					
						<rect x="213.6" y="496.5" transform="matrix(0.7071 -0.7071 0.7071 0.7071 -290.9115 298.235)" class="st20" width="1.9" height="7.5"/>
					<rect x="211.6" y="499" class="st20" width="1.9" height="9.7"/>
					
						<rect x="262.8" y="496.9" transform="matrix(0.7071 -0.7071 0.7071 0.7071 -273.6875 336.2078)" class="st21" width="12.4" height="3.1"/>
					
						<rect x="274" y="492.3" transform="matrix(0.7071 -0.7071 0.7071 0.7071 -271.7921 340.8687)" class="st21" width="3.1" height="12.4"/>
					<rect x="270.8" y="496.3" class="st21" width="3.1" height="15.9"/>
					
						<rect x="238.9" y="498.8" transform="matrix(0.7071 -0.7071 0.7071 0.7071 -282.248 318.4277)" class="st2" width="8.7" height="2.2"/>
					
						<rect x="246.7" y="495.5" transform="matrix(0.7071 -0.7071 0.7071 0.7071 -280.8716 321.6486)" class="st2" width="2.2" height="8.7"/>
					<rect x="244.5" y="498.4" class="st2" width="2.2" height="11.2"/>
					<rect x="117.4" y="496.3" class="st3" width="13.6" height="2.6"/>
					<rect x="128.4" y="496.3" class="st3" width="2.6" height="13.6"/>
					
						<rect x="64.3" y="491.4" transform="matrix(0.7069 -0.7074 0.7074 0.7069 -333.1933 192.4384)" class="st2" width="2.6" height="13.6"/>
					
						<rect x="58.8" y="504.5" transform="matrix(0.7071 -0.7071 0.7071 0.7071 -338.416 194.5517)" class="st2" width="13.6" height="2.6"/>
					<path class="st22" d="M706.6,0.6l1,0.2l-8.5,30.9l-1-0.2L706.6,0.6z"/>
					<line class="st23" x1="422.3" y1="580.3" x2="456.3" y2="452.2"/>
					<line class="st23" x1="425.8" y1="580.3" x2="459.8" y2="452.2"/>
					<line class="st23" x1="429.3" y1="580.3" x2="463.3" y2="452.2"/>
					<line class="st23" x1="432.8" y1="580.3" x2="466.9" y2="452.2"/>
					<line class="st23" x1="436.3" y1="580.3" x2="470.4" y2="452.2"/>
					<line class="st23" x1="439.8" y1="580.3" x2="473.9" y2="452.2"/>
					<line class="st23" x1="443.3" y1="580.3" x2="477.4" y2="452.2"/>
					<line class="st23" x1="446.8" y1="580.3" x2="480.9" y2="452.2"/>
					<line class="st23" x1="450.3" y1="580.3" x2="484.4" y2="452.2"/>
					<line class="st23" x1="453.9" y1="580.3" x2="487.9" y2="452.2"/>
					<line class="st23" x1="457.4" y1="580.3" x2="491.4" y2="452.2"/>
					<line class="st23" x1="460.9" y1="580.3" x2="494.9" y2="452.2"/>
					<line class="st23" x1="464.4" y1="580.3" x2="498.4" y2="452.2"/>
					<line class="st23" x1="467.9" y1="580.3" x2="502" y2="452.2"/>
					<line class="st23" x1="471.4" y1="580.3" x2="505.5" y2="452.2"/>
					<line class="st23" x1="474.9" y1="580.3" x2="509" y2="452.2"/>
					<line class="st23" x1="478.4" y1="580.3" x2="512.5" y2="452.2"/>
					<line class="st23" x1="481.9" y1="580.3" x2="516" y2="452.2"/>
					<line class="st23" x1="485.4" y1="580.3" x2="519.5" y2="452.2"/>
					<line class="st23" x1="489" y1="580.3" x2="523" y2="452.2"/>
					<line class="st23" x1="492.5" y1="580.3" x2="526.5" y2="452.2"/>
					<line class="st23" x1="496" y1="580.3" x2="530" y2="452.2"/>
					<line class="st23" x1="499.5" y1="580.3" x2="533.5" y2="452.2"/>
					<line class="st23" x1="503" y1="580.3" x2="537.1" y2="452.2"/>
					<line class="st23" x1="506.5" y1="580.3" x2="540.6" y2="452.2"/>
					<line class="st23" x1="510" y1="580.3" x2="544.1" y2="452.2"/>
					<line class="st23" x1="513.5" y1="580.3" x2="547.6" y2="452.2"/>
					<line class="st23" x1="517" y1="580.3" x2="551.1" y2="452.2"/>
					<line class="st23" x1="520.6" y1="580.3" x2="554.6" y2="452.2"/>
					<line class="st23" x1="524.1" y1="580.3" x2="558.1" y2="452.2"/>
					<line class="st23" x1="527.6" y1="580.3" x2="561.6" y2="452.2"/>
					<line class="st23" x1="531.1" y1="580.3" x2="565.1" y2="452.2"/>
					<line class="st23" x1="534.6" y1="580.3" x2="568.7" y2="452.2"/>
					<line class="st23" x1="538.1" y1="580.3" x2="572.2" y2="452.2"/>
					<line class="st23" x1="541.6" y1="580.3" x2="575.7" y2="452.2"/>
					<line class="st23" x1="545.1" y1="580.3" x2="579.2" y2="452.2"/>
					<line class="st23" x1="548.6" y1="580.3" x2="582.7" y2="452.2"/>
					<line class="st23" x1="552.1" y1="580.3" x2="586.2" y2="452.2"/>
					<line class="st23" x1="555.7" y1="580.3" x2="589.7" y2="452.2"/>
					<line class="st23" x1="559.2" y1="580.3" x2="593.2" y2="452.2"/>
					<line class="st23" x1="562.7" y1="580.3" x2="596.7" y2="452.2"/>
					<line class="st23" x1="566.2" y1="580.3" x2="600.2" y2="452.2"/>
					<line class="st23" x1="569.7" y1="580.3" x2="603.8" y2="452.2"/>
					<line class="st23" x1="573.2" y1="580.3" x2="607.3" y2="452.2"/>
					<line class="st23" x1="576.7" y1="580.3" x2="610.8" y2="452.2"/>
					<line class="st23" x1="580.2" y1="580.3" x2="614.3" y2="452.2"/>
					<line class="st23" x1="583.7" y1="580.3" x2="617.8" y2="452.2"/>
					<line class="st23" x1="587.2" y1="580.3" x2="621.3" y2="452.2"/>
					<line class="st23" x1="590.8" y1="580.3" x2="624.8" y2="452.2"/>
					<line class="st23" x1="594.3" y1="580.3" x2="628.3" y2="452.2"/>
					<line class="st23" x1="597.8" y1="580.3" x2="631.8" y2="452.2"/>
					<line class="st23" x1="601.3" y1="580.3" x2="635.3" y2="452.2"/>
					<line class="st23" x1="604.8" y1="580.3" x2="638.9" y2="452.2"/>
					<line class="st23" x1="608.3" y1="580.3" x2="642.4" y2="452.2"/>
					<line class="st23" x1="611.8" y1="580.3" x2="645.9" y2="452.2"/>
					<line class="st23" x1="615.3" y1="580.3" x2="649.4" y2="452.2"/>
					<line class="st23" x1="618.8" y1="580.3" x2="652.9" y2="452.2"/>
					<line class="st23" x1="622.3" y1="580.3" x2="656.4" y2="452.2"/>
					<line class="st23" x1="625.9" y1="580.3" x2="659.9" y2="452.2"/>
					<line class="st23" x1="629.4" y1="580.3" x2="663.4" y2="452.2"/>
					<line class="st23" x1="632.9" y1="580.3" x2="666.9" y2="452.2"/>
					<line class="st23" x1="636.4" y1="580.3" x2="670.4" y2="452.2"/>
					<line class="st23" x1="639.9" y1="580.3" x2="674" y2="452.2"/>
					<line class="st23" x1="643.4" y1="580.3" x2="677.5" y2="452.2"/>
					<line class="st23" x1="646.9" y1="580.3" x2="681" y2="452.2"/>
					<line class="st23" x1="650.4" y1="580.3" x2="684.5" y2="452.2"/>
					<line class="st23" x1="653.9" y1="580.3" x2="688" y2="452.2"/>
					<line class="st23" x1="657.4" y1="580.3" x2="691.5" y2="452.2"/>
					<line class="st23" x1="661" y1="580.3" x2="695" y2="452.2"/>
					<line class="st23" x1="664.5" y1="580.3" x2="698.5" y2="452.2"/>
					<line class="st23" x1="668" y1="580.3" x2="702" y2="452.2"/>
					<line class="st23" x1="671.5" y1="580.3" x2="705.5" y2="452.2"/>
					<polygon class="st2" points="482.1,8.7 482.1,8.7 488,2.5 486.3,0.9 480.5,7 474.7,0.9 473,2.5 478.9,8.7 478.9,8.7 478.9,8.7 
						473,14.9 474.7,16.5 480.5,10.4 486.3,16.5 488,14.9 					"/>
					
						<rect x="436.3" y="76.8" transform="matrix(0.7071 -0.7071 0.7071 0.7071 76.7272 340.3951)" class="st24" width="25.9" height="1.5"/>
					
						<rect x="448.5" y="64.6" transform="matrix(0.7071 -0.7071 0.7071 0.7071 76.7343 340.3922)" class="st24" width="1.5" height="25.9"/>
					<path class="st2" d="M384.9,256.3c-0.6,0.3-1.2,0.5-1.9,0.6c-0.6,0.1-1.2,0.2-1.8,0.2c-0.6,0-1.2-0.1-1.7-0.3
						c-0.5-0.2-1-0.4-1.4-0.8c-0.4-0.3-0.6-0.7-0.8-1.1c-0.2-0.5-0.3-1.1-0.2-1.7v-5.6H375v-2.2c1.3-0.3,2.3-1.1,2.9-2.3
						c0.3-0.6,0.5-1.3,0.5-2h2.2v3.6h3.6v2.8h-3.6v4.1c0,0.6,0,1.1,0.1,1.7c0.1,0.3,0.3,0.5,0.6,0.7c0.4,0.2,0.8,0.3,1.2,0.3
						c0.9,0,1.7-0.3,2.4-0.8L384.9,256.3L384.9,256.3z"/>
					<path class="st2" d="M367.1,196.7v25.5h25.5v-25.5H367.1z M384.9,216.5c-0.6,0.3-1.2,0.5-1.8,0.7c-0.6,0.1-1.2,0.2-1.8,0.2
						c-0.6,0-1.2-0.1-1.7-0.3c-0.5-0.2-1-0.4-1.4-0.8c-0.4-0.3-0.6-0.7-0.8-1.1c-0.2-0.5-0.3-1.1-0.2-1.7v-5.6h-2.1v-2.2
						c1.3-0.3,2.3-1.1,2.9-2.3c0.3-0.6,0.5-1.3,0.5-2h2.2v3.7h3.6v2.8h-3.6v4.1c0,0.6,0,1.1,0.1,1.7c0.1,0.3,0.3,0.5,0.6,0.7
						c0.4,0.2,0.8,0.3,1.2,0.3c0.9,0,1.7-0.3,2.4-0.8L384.9,216.5L384.9,216.5z"/>
					<circle class="st25" cx="391" cy="35.3" r="8"/>
					<circle class="st26" cx="391" cy="10.5" r="8"/>
					<circle class="st25" cx="415.3" cy="35.3" r="8"/>
					<circle class="st26" cx="415.3" cy="10.5" r="8"/>
					<circle class="st3" cx="415.3" cy="10.5" r="2.8"/>
					<circle class="st19" cx="415.3" cy="35.3" r="2.8"/>
					<polygon id="polygon3855" class="st20" points="632.9,236.4 478.7,236.4 466.7,280.4 632.9,280.4 					"/>
					<polygon id="polygon3857" class="st7" points="466.7,398 616.6,398 620.8,390.2 466.7,390.2 					"/>
					<polygon id="polygon3857-2" class="st7" points="467,417.3 549.7,417.3 552,412.9 467,412.9 					"/>
					<polygon id="polygon3859" class="st27" points="614.2,303.7 478.7,303.7 466.7,347.7 614.2,347.7 					"/>
					<polygon id="polygon4033" class="st28" points="632.9,236.4 591,236.4 576.9,280.4 632.9,280.4 					"/>
					<polygon id="polygon4035" class="st29" points="593.3,236.4 591,236.4 576.9,280.4 579.3,280.4 					"/>
					<path class="st2" d="M294.6,309.8h-1v-1.5h-5v1.5h-2v-2.9c0-0.9-0.7-1.6-1.6-1.6c0,0,0,0,0,0h-7.8c-0.9,0-1.6,0.7-1.6,1.6
						c0,0,0,0,0,0l0,0v2.9h-2v-1.5h-5v1.5h-1c-0.8,0-1.5,0.7-1.5,1.5l0,0v18.1c0,0.8,0.7,1.5,1.5,1.5h27.1c0.8,0,1.5-0.7,1.5-1.5
						l0,0v-18.1C296.2,310.5,295.5,309.8,294.6,309.8z M289.6,309.3h3v0.5h-3V309.3z M276.6,306.9c0-0.3,0.3-0.6,0.6-0.6h7.8
						c0.3,0,0.6,0.3,0.6,0.6v2.9h-9V306.9z M275.6,310.8h15.6v19.1H271v-19.1H275.6z M269.6,309.3h3v0.5h-3V309.3z M267,329.4v-18.1
						c0-0.2,0.2-0.5,0.4-0.5h2.5v19.1h-2.5C267.2,329.8,267,329.6,267,329.4z M295.1,329.4c0,0.2-0.2,0.5-0.4,0.5h-2.6v-19.1h2.5
						c0.2,0,0.5,0.2,0.5,0.4l0,0v0.1l0,0V329.4z"/>
				</g>
				<path class="st30" d="M197.4,372.4h-10.1c-1.6,0-3-1.4-3-3v-9.8c0-1.6,1.4-3,3-3h10.1c1.6,0,3,1.4,3,3v9.8
					C200.4,371.1,199.1,372.4,197.4,372.4L197.4,372.4z"/>
				<path class="st30" d="M194.5,374.2v1c0,1.6-1.4,3-3,3h-10.1c-1.6,0-3-1.4-3-3v-9.8c0-1.7,1.3-3,3-3h1"/>
				
					<rect x="553.3" y="189.8" transform="matrix(0.7071 -0.7071 0.7071 0.7071 31.0999 456.2301)" class="st2" width="25.9" height="1.5"/>
				
					<rect x="565.5" y="177.6" transform="matrix(0.7071 -0.7071 0.7071 0.7071 31.0999 456.2301)" class="st2" width="1.5" height="25.9"/>
				<polygon class="st3" points="292.1,501.7 300.9,493 303.1,495.2 292,506.2 				"/>
				<polygon class="st3" points="298.7,495.2 300.9,493 309.7,501.7 309.7,506.1 				"/>
				<rect x="299.4" y="496.3" class="st3" width="3.1" height="18.7"/>
			</g>
			<g id="Bm8sUV.tif">
				<path class="st2" d="M252.1,373.5v0.5c-0.1,0.5-0.3,0.9-0.6,1.2c-0.6,0.5-1.4,0.7-2.2,0.7L248,376c-0.1,0-0.2-0.1-0.3-0.1h-0.6
					l-2.4,0.2l-2,0.2l-1.2,0.1l-2.1,0.2l-2,0.2l-1.3,0.1h-0.2l-2.1,0.2l-2.4,0.2c-0.3,0-0.5,0-0.8,0.1l-2.8,0.2l-3.1,0.3l-1.2,0.1
					h-0.7c-0.4,0.1-0.9,0.1-1.3,0c-0.7-0.2-1.2-0.7-1.4-1.4l0.4-0.4c0.3-0.3,0.8-0.5,1.2-0.5c0.1,0.3,0.2,0.5,0.4,0.7
					c0.2,0.1,0.4,0.2,0.6,0.2c0.1,0,0.1,0.1,0.2,0.1l0.9-0.1l1-0.1l0,0l0.8-0.1h0.3l0.7-0.1l1.2-0.1l1.3-0.1c0.3,0,0.7,0,1-0.1
					c0.4,0,0.7,0,1.1-0.1c0.2,0,0.5-0.1,0.7-0.1h0.2c0.3,0,0.5,0,0.8-0.1c0.2,0,0.5-0.1,0.7-0.1l1.5-0.1h0.4l1-0.1l0.9-0.1l1.1-0.1
					l0.9-0.1h0.7c0.1,0,0.2,0,0.3-0.1h0.2c0.3,0,0.7,0,1-0.1c0.7-0.1,1.4-0.1,2.2-0.2l1.3-0.1l0.3-0.1c0.3,0,0.7,0,1-0.1l1.5-0.1
					l0.9-0.1l0.1-0.1c0.3,0,0.6,0,0.9-0.2c0.3-0.1,0.5-0.3,0.5-0.6c0.1-0.2,0.1-0.4,0.1-0.6c0-0.6-0.1-1.2-0.2-1.8l-0.3-2.7
					l-0.2-2.3c-0.1-0.8-0.2-1.5-0.2-2.3s-0.1-1.5-0.2-2.3l-0.3-3c-0.1-1-0.2-1.9-0.3-2.9l0.2-0.1c0.4-0.3,0.7-0.6,1-0.9
					c0.1-0.1,0.2-0.1,0.4,0c0,0.1,0.1,0.1,0.1,0.2s0.2,0.3,0.1,0.6v1.2c0,0.2,0,0.4,0.1,0.6c0,0.3,0,0.5,0.1,0.8
					c0.1,0.3,0.1,0.6,0.1,0.9v0.7c0,0.5,0.1,1.1,0.1,1.6s0.1,0.8,0.1,1.1c0,0.5,0.1,1.1,0.1,1.6s0.1,0.8,0.1,1.2l0.1,1.6
					c0.1,0.6,0.1,1.3,0.2,2l0.1,1.6c0.1,0.5,0.1,1.3,0.2,2S252.1,373.1,252.1,373.5z"/>
				<path class="st2" d="M248.4,353.4c0.2,0,0.3,0.1,0.5,0.1c0.4,0.1,0.8,0.4,1.1,0.8l0.3,0.6c0-0.1-0.1-0.1-0.1-0.2s-0.2-0.2-0.4,0
					l-1,0.9l-0.2,0.1l-0.2-0.4l1-1.3c0.1-0.1,0.1-0.1,0-0.2l0,0c-0.1,0-0.1-0.1-0.2-0.1l-0.2-0.1l-0.2-0.1c-0.2,0-0.4-0.1-0.7-0.1
					c-0.3,0-0.6,0-0.9,0.1v-0.1l0.6-0.1h0.2L248.4,353.4z"/>
				<path class="st2" d="M220.3,356l0.9-0.1v0.1c-0.4,0-0.8,0.1-1.1,0.1c-0.5,0-0.9,0.2-1.2,0.5c-0.3,0.3-0.5,0.7-0.6,1.1
					c0,0.1,0,0.2,0.1,0.3c0.2,0.2,0.5,0.4,0.8,0.5l0.8,0.2v0.2l0,0l-1.6-0.5c-0.1,0-0.1,0-0.1,0.1v0.4l0.1,0.7v0.6
					c0.1,0.9,0.2,1.8,0.3,2.6s0.2,1.9,0.3,2.8c0.1,0.8,0.2,1.7,0.2,2.5c0.1,1,0.2,2.1,0.3,3.2l0.3,2.7c0,0.4,0.1,0.8,0.1,1.2
					s0.1,0.9,0.1,1.4c0,0.1,0,0.2,0.1,0.3c0.2,0.7,0.8,1.3,1.6,1.4c0.4,0.1,0.9,0.1,1.3,0h0.7l0.2,0.1l-0.6,0.1H222
					c-0.2,0-0.3,0-0.5-0.1c-0.8-0.4-1.3-1.1-1.4-2c-0.1-1-0.2-2.1-0.3-3.1s-0.2-2.2-0.3-3.4s-0.2-2-0.3-3s-0.2-2.3-0.3-3.4l-0.3-3
					c-0.1-0.7-0.2-1.5-0.2-2.2c0-1,0.7-1.9,1.7-2.1C219.9,356.1,220.1,356.1,220.3,356z"/>
				<path class="st2" d="M220,377c0-0.1-0.1-0.2-0.1-0.3c0-0.5-0.1-0.9-0.1-1.4c0.2-0.1,0.5-0.1,0.7,0l1,0.3l0.1,0.4
					c-0.4,0.1-0.8,0.3-1.2,0.5L220,377z"/>
				<path class="st2" d="M250.1,373.7c0.1-0.5,0.1-1,0-1.5c0-0.4-0.1-0.8-0.1-1.2c-0.1-0.6-0.1-1.1-0.2-1.7
					c-0.1-0.5-0.1-1.1-0.1-1.6c0-0.5-0.1-1.1-0.2-1.6c-0.1-0.4-0.1-0.8-0.1-1.2c-0.1-0.6-0.1-1.1-0.2-1.7c0-0.4-0.1-0.8-0.1-1.2
					c0-0.5-0.1-1.1-0.2-1.6c-0.1-0.4-0.1-0.8-0.1-1.2c0-0.5-0.1-1.1-0.2-1.6c-0.1-0.4-0.1-0.8-0.1-1.2c0-0.3-0.1-0.7-0.2-1l-0.3-0.3
					V355h0.1l0.1,0.1l0.1,0.1l0.2,0.4c0.1,1,0.2,1.9,0.3,2.9l0.3,3c0.1,0.8,0.1,1.5,0.2,2.3s0.1,1.5,0.2,2.3l0.2,2.3l0.3,2.7
					c0.1,0.6,0.1,1.2,0.2,1.8c0,0.2,0,0.4-0.1,0.6L250.1,373.7z"/>
				<path class="st2" d="M223.6,378.4l-0.2-0.1l1.2-0.1l3.1-0.3l2.8-0.2l0.1,0.1L223.6,378.4z"/>
				<path class="st2" d="M241.5,376.6l1.2-0.1l2-0.2l2.4-0.2h0.6c0.1,0,0.2,0,0.3,0.1h-0.4l-4.2,0.4l-1.6,0.1L241.5,376.6z"/>
				<path class="st2" d="M241.5,376.6l0.3,0.1h-0.1l-2.2,0.2l-2.9,0.3H236V377l1.3-0.1l2-0.2L241.5,376.6z"/>
				<path class="st2" d="M236.1,377.1v0.1l-1.2,0.1l-1.2,0.1h-0.4l-2.6,0.2l-0.1-0.1c0.3,0,0.6-0.1,0.8-0.1l2.4-0.2l2.1-0.2
					L236.1,377.1z"/>
				<path class="st2" d="M221.6,376l-0.1-0.4v-0.5c0-0.5-0.1-1.1-0.1-1.6c0-0.7-0.1-1.3-0.2-2c-0.1-0.7-0.1-1.1-0.2-1.6l-0.1-1.4
					l0,0c0,0.3,0.1,0.6,0.1,0.8c0.1,0.6,0.1,1.1,0.2,1.7c0.1,0.5,0.1,1.1,0.1,1.6c0,0.6,0.1,0.9,0.1,1.3v1l0.1,0.6
					C221.5,375.7,221.5,375.9,221.6,376c0,0.3,0.2,0.5,0.4,0.6l0,0C221.8,376.5,221.6,376.3,221.6,376z"/>
				<path class="st2" d="M231.8,376.1h0.4l1.4-0.1c-0.2,0-0.5,0.1-0.7,0.1s-0.5,0.1-0.8,0.1C232,376.2,231.9,376.1,231.8,376.1z"/>
				<path class="st2" d="M247.8,374.6l0.3-0.1h0.7c-0.1,0-0.1,0-0.1,0.1l0,0H247.8z"/>
				<path class="st2" d="M239.3,375.4l0.4-0.1h0.6c-0.1,0-0.2,0.1-0.3,0.1H239.3z"/>
				<path class="st2" d="M245.3,374.8l0.4-0.1h0.6C246,374.8,245.7,374.8,245.3,374.8z"/>
				<path class="st2" d="M228.9,376.4L228.9,376.4z"/>
				<path class="st2" d="M235.3,375.8c0.2,0,0.4-0.1,0.6-0.1h0.4L235.3,375.8z"/>
				<path class="st2" d="M225.4,376.7c0.2,0,0.4,0,0.6-0.1h0.4l-0.7,0.1H225.4z"/>
				<path class="st2" d="M223.6,376.9L223.6,376.9z"/>
				<path class="st2" d="M247.8,376.1h0.1l1.3-0.1l-0.8,0.1H247.8z"/>
				<path class="st2" d="M250.1,373.7L250.1,373.7c0,0.2-0.2,0.4-0.4,0.5L250.1,373.7z"/>
				<path class="st2" d="M222,376.7L222,376.7l0.5,0.2C222.3,376.9,222.2,376.8,222,376.7z"/>
				<path class="st2" d="M230.6,377.7l2.6-0.2h0.4l-0.8,0.1l-1.7,0.2l-1.3,0.1l-1.2,0.1l-1.2,0.1l-1.3,0.1l-1.2,0.1l-1.3,0.1
					l-1.2,0.1h-0.9c-0.2,0-0.3-0.1-0.4-0.1c0.2,0.1,0.3,0.1,0.5,0.1h1.3l0.6-0.1L230.6,377.7z"/>
				<path class="st2" d="M236.6,377.1l2.9-0.3l2.2-0.2h0.1l1.6-0.1l0,0c-0.6,0.1-1.2,0.1-1.8,0.2l-1.9,0.2L238,377l-1.2,0.1
					L236.6,377.1z"/>
				<path class="st2" d="M243.4,376.5L243.4,376.5l4.2-0.4h0.3l-0.8,0.1l-1.7,0.2l-1.2,0.1L243.4,376.5z"/>
				<path class="st2" d="M236.6,377.1L236.6,377.1l-1.8,0.2l-1.2,0.1h-0.1l1.2-0.1l1.2-0.1L236.6,377.1z"/>
				<path class="st2" d="M236.1,354.5l1.7-0.2l2.7-0.3l1.3-0.1v0.1c-0.2,0-0.3,0-0.5,0.1l-3.1,0.3L236.1,354.5L236.1,354.5z"/>
				<path class="st2" d="M225.5,355.6l2-0.2l3.1-0.3h0.5l0.1,0.1l-0.9,0.1l-2.8,0.3l-2.1,0.2L225.5,355.6z"/>
				<path class="st2" d="M241.8,354.1V354l2-0.2l2.7-0.3h0.7v0.1l-0.5,0.1l-3.1,0.3L241.8,354.1z"/>
				<path class="st2" d="M231.2,355.1l-0.1-0.1l2.7-0.3l2.4-0.2v0.1l-0.5,0.1l-2.8,0.3C232.3,355,231.8,355.1,231.2,355.1z"/>
				<path class="st2" d="M225.5,355.6v0.1h-0.2l-2.4,0.2l-1.7,0.1l0,0l1.3-0.1l2.3-0.2L225.5,355.6z"/>
				<path class="st2" d="M221.2,356.1l1.7-0.1l2.4-0.2h0.2l2.1-0.2l2.8-0.3l0.9-0.1c0.5,0,1.1-0.1,1.6-0.1l2.8-0.3l0.5-0.1l2-0.2
					l3.1-0.3c0.2,0,0.3,0,0.5-0.1l1.7-0.2l3.1-0.3l0.5-0.1c0.3,0,0.6-0.1,0.9-0.1c0.2,0,0.5,0,0.7,0.1l-0.2,0.2
					c-0.2,0.4-0.4,0.8-0.5,1.3c-0.2-0.1-0.3-0.1-0.5-0.2h-1.1c-0.7,0-1.3,0.1-2,0.2l-1.6,0.1l-2,0.2l-1.6,0.1l-2,0.2l-1.6,0.1
					l-1.6,0.2l-1.6,0.1l-1.8,0.2h-0.2l-1,0.1l-1.3,0.1l-0.8,0.1l-1.7,0.2l-0.7,0.1h-0.6l-0.4,0.1l-1.3,0.1l-2.1,0.2
					c-0.6,0.2-0.9,0.7-0.9,1.3l-0.8-0.2c-0.3-0.1-0.6-0.3-0.8-0.5c-0.1-0.1-0.1-0.2-0.1-0.3c0.1-0.4,0.3-0.8,0.6-1.1
					c0.3-0.3,0.8-0.5,1.2-0.5C220.2,356.1,220.7,356.2,221.2,356.1z"/>
				<path class="st2" d="M248.4,355.4l-0.1-0.1c0.2-0.5,0.5-0.9,0.8-1.3c0-0.1,0-0.1,0.1-0.2c0.1,0,0.1,0.1,0.2,0.1s0.1,0.1,0,0.2
					l0,0L248.4,355.4z"/>
				<path class="st2" d="M249.2,353.8c0,0.1,0,0.2-0.1,0.2c-0.3,0.4-0.6,0.8-0.8,1.3l-0.1-0.1c0-0.1,0-0.1,0.1-0.1h0
					c0.2-0.5,0.4-1,0.8-1.4L249.2,353.8z"/>
				<path class="st2" d="M249,353.7c-0.3,0.4-0.6,0.9-0.8,1.4c0,0.1,0,0.1-0.1,0.1H248c0.1-0.5,0.2-0.9,0.5-1.3l0.2-0.2H249z"/>
				<path class="st2" d="M231.8,365.5h0.8c0.6,0,1.2,0.1,1.8,0.4c0.9,0.3,1.6,1.1,1.9,2c0.3,1,0.3,2.1-0.2,3c-0.4,0.8-1.1,1.5-2,1.8
					c-0.9,0.3-1.8,0.5-2.7,0.6l-2.4,0.2l-2.8,0.3l-1.1,0.1c-0.2,0-0.2,0-0.2-0.2v-0.1c-0.1-0.4,0-0.4,0.4-0.4c0.3,0,0.5-0.1,0.8-0.2
					c0.4-0.1,0.6-0.5,0.5-0.9c-0.1-1.3-0.3-2.7-0.4-4l-0.6-5.1c-0.1-0.5-0.1-0.9-0.1-1.4c0-0.2-0.1-0.4-0.2-0.6
					c-0.1-0.2-0.3-0.3-0.5-0.3H224c-0.3,0-0.3,0-0.4-0.3s-0.1-0.4,0.4-0.5l2.8-0.3l3.1-0.3c0.9-0.1,1.7-0.1,2.6,0.1
					c0.7,0.1,1.4,0.5,1.9,1.1c0.4,0.5,0.6,1.2,0.5,1.8c0,0.8-0.4,1.6-1,2.2c-0.5,0.4-1.1,0.8-1.7,1L231.8,365.5z M230.3,366.3
					L230.3,366.3l-1.6,0.2c-0.1,0-0.2,0.1-0.2,0.2c0,0.3,0.1,0.6,0.1,1c0.1,1.1,0.2,2.1,0.3,3.2c0,0.4,0.1,0.7,0.2,1.1
					c0.1,0.3,0.4,0.6,0.7,0.6h1c0.9-0.1,1.6-0.6,2.1-1.3c0.6-0.9,0.7-2,0.3-3c-0.3-0.8-0.9-1.5-1.7-1.8
					C231.1,366.3,230.7,366.3,230.3,366.3L230.3,366.3z M232,363c0-0.5-0.1-1-0.3-1.5c-0.2-0.4-0.5-0.7-0.8-1
					c-0.5-0.3-1-0.4-1.6-0.3c-0.4,0-0.7,0-1.1,0.1c-0.4,0.1-0.4,0.1-0.4,0.5l0.3,3.1c0.1,0.5,0.1,1,0.2,1.5c0,0.1,0,0.2,0.2,0.1
					c0.5,0,1.1-0.1,1.6-0.2C231.2,365.1,232,364.1,232,363z"/>
				<path class="st2" d="M240.7,372.3c-0.7,0-1.4-0.1-2-0.3c-0.1,0-0.2,0-0.3,0.1c-0.2,0.1-0.4,0.3-0.5,0.5c-0.1,0.1-0.2,0.1-0.4,0
					c-0.1-0.1-0.2-0.2-0.2-0.3c-0.1-0.9-0.1-1.8-0.2-2.7s-0.2-1.6-0.3-2.5s-0.2-2.1-0.3-3.1l-0.3-3c0-0.1-0.1-0.2-0.2-0.3
					c-0.3-0.1-0.5-0.2-0.8-0.3c-0.1-0.1-0.2-0.2-0.2-0.3s0.1-0.1,0.2-0.2c0.9-0.4,1.8-0.8,2.6-1.4c0.3-0.2,0.5-0.1,0.5,0.2
					c0.1,1.4,0.3,2.8,0.4,4.2c0.1,0.6,0.1,1.2,0.2,1.8v0.2l0.1-0.1c0.5-0.5,1.1-0.9,1.8-1.1c1.1-0.3,2.2-0.3,3.2,0.2
					c0.7,0.4,1.3,1,1.6,1.8c0.5,1.2,0.5,2.5-0.1,3.6c-0.4,0.9-1.1,1.6-2,2.1C242.8,372.1,241.7,372.4,240.7,372.3z M243.7,368.9
					c0-0.5-0.1-1-0.2-1.5c-0.2-0.6-0.5-1.1-0.9-1.5c-0.9-0.9-2.3-0.9-3.3-0.1c-0.1,0.1-0.1,0.2-0.1,0.3c0.1,1.4,0.3,2.8,0.4,4.1
					c0,0.2,0.1,0.4,0.2,0.5c0.7,0.5,1.6,0.7,2.4,0.5c0.4-0.1,0.8-0.3,1.1-0.7C243.6,370,243.7,369.5,243.7,368.9L243.7,368.9z"/>
				<path class="st2" d="M223.2,375.7H223c-0.1,0-0.1-0.1-0.2-0.1l0.1-0.1c0.2,0,0.3-0.1,0.5-0.1l3.4-0.3l2.9-0.3l2.7-0.2l2.2-0.2
					l2.3-0.3l3-0.3l2.3-0.2l2.6-0.3l2.3-0.2l1.6-0.1h0.1l0.2,0.1l-0.2,0.2h-0.4l-4.4,0.4l-4.3,0.4l-3.7,0.4l-3,0.3l-3.4,0.3
					l-2.6,0.3l-2.7,0.2L223.2,375.7z"/>
				<path class="st2" d="M247.2,356.2h0.1c0.1,0,0.1,0,0.1,0.1l0,0l-0.1,0.1c-0.2,0-0.4,0.1-0.6,0.1l-3.4,0.3l-3.3,0.3l-3.3,0.3
					l-3.6,0.4l-2.9,0.3l-2.6,0.3l-3,0.3l-3,0.3h-0.1c-0.1,0-0.2,0-0.2-0.1c0-0.1,0.1-0.2,0.2-0.2l0.8-0.1l3.1-0.3l3-0.3l3-0.3
					l2.7-0.3l2.5-0.2l2.6-0.3l2.3-0.2l2.3-0.2l2.2-0.2L247.2,356.2z"/>
				<path class="st2" d="M248.1,355.1v0.1l-0.3-0.1c-0.2-0.1-0.5-0.1-0.7-0.1l-2,0.2l-1.6,0.1l-2,0.2l-1.6,0.1l-2,0.2l-1.6,0.1
					l-1.6,0.2l-1.6,0.1l-1.3,0.1h-1.1l1.8-0.2l1.6-0.1l1.6-0.2l1.6-0.1l2-0.2l1.6-0.1l2-0.2l1.6-0.1c0.7-0.1,1.3-0.1,2-0.2h1
					C247.7,355,247.9,355.1,248.1,355.1z"/>
				<path class="st2" d="M223.5,366.3c0.1,0,0.2,0,0.2,0.2v0.1c0,0.3,0,0.3-0.3,0.4l-0.9,0.1c-0.1,0-0.3-0.1-0.3-0.2v-0.1
					c0-0.2,0-0.3,0.2-0.4l0.6-0.1H223.5z"/>
				<path class="st2" d="M235.3,365.8h-0.2c-0.2-0.1-0.3-0.2-0.5-0.2s-0.1-0.1-0.1-0.2c0.1-0.1,0.1-0.1,0.2-0.1l1.2-0.1
					c0.2,0,0.2,0,0.3,0.2c0.1,0.4,0.1,0.4-0.3,0.5L235.3,365.8z"/>
				<path class="st2" d="M246.6,364L246.6,364c0.2,0.1,0.1,0.3,0.1,0.5s-0.1,0.1-0.1,0.1c-0.3,0-0.6,0.1-0.9,0.1
					c-0.1,0-0.1,0-0.2-0.1l-0.4-0.4c-0.1-0.1-0.1-0.1,0-0.2H246.6z"/>
				<path class="st2" d="M225.5,366.5c0,0.2,0,0.2-0.2,0.2l-0.9,0.1c-0.1,0-0.2,0-0.3-0.1l0,0v-0.3c0-0.1,0-0.2,0.1-0.2h0.1l1-0.1
					c0.1,0,0.2,0,0.2,0.1l0,0L225.5,366.5z"/>
				<path class="st2" d="M248.2,363.8c0.3,0,0.3,0.1,0.4,0.4s-0.1,0.2-0.3,0.2l-0.9,0.1c-0.1,0-0.2,0-0.2-0.1v-0.1
					c0-0.3,0-0.3,0.3-0.4L248.2,363.8z"/>
				<path class="st2" d="M220.8,357.5l2.1-0.2l1.3-0.1c-0.1,0-0.3,0.1-0.4,0.1l-2.3,0.2H220.8z"/>
				<path class="st2" d="M220.3,362.8c0,0.3,0.1,0.5,0.1,0.8c0.1,0.5,0.1,1.1,0.2,1.7l0.1,1.4l-0.1-0.3v-0.6c0-0.4-0.1-0.9-0.2-1.3
					c-0.1-0.7-0.1-1.4-0.2-2L220.3,362.8z"/>
				<path class="st2" d="M230.9,356.5h1.1l-2,0.2l-1.5,0.1l0,0l1.3-0.1l1-0.1L230.9,356.5z"/>
				<path class="st2" d="M220.8,357.5L220.8,357.5l-0.4,0.4c-0.3,0.2-0.4,0.6-0.3,1c0.1,0.5,0.1,0.9,0.1,1.4v-0.2
					c-0.1-0.4-0.1-0.7-0.1-1.1v-0.2C220,358.3,220.3,357.7,220.8,357.5z"/>
				<path class="st2" d="M219.9,359c0,0.4,0.1,0.8,0.1,1.1v0.2c0,0.2,0.1,0.5,0.1,0.8l0.1,1.7l-0.1-0.3l0,0V362
					c0-0.2-0.1-0.6-0.1-0.9l-0.2-1.6L219.9,359L219.9,359z"/>
				<path class="st2" d="M220.6,366.4l0.1,0.3l0.1,0.8c0,0.3,0.1,0.7,0.1,1l0,0L220.6,366.4z"/>
				<path class="st2" d="M228.4,356.8"/>
				<path class="st2" d="M224.6,357.1h0.6C225,357.2,224.8,357.2,224.6,357.1z"/>
				<path class="st2" d="M221.5,375.1v0.5l-1-0.3c-0.2-0.1-0.5-0.1-0.7,0c0-0.4-0.1-0.8-0.1-1.2l-0.3-2.7c-0.1-1-0.2-2.1-0.3-3.2
					c-0.1-0.8-0.2-1.7-0.2-2.5c0-0.8-0.2-1.9-0.3-2.8s-0.2-1.8-0.3-2.6v-0.6c0-0.2,0-0.2,0.2-0.1c0.6,0.1,1,0.5,1.2,1
					c0.1,0.2,0.1,0.5,0.1,0.7c0.1,0.7,0.1,1.4,0.2,2.1l0.2,1.7c0.1,0.7,0.1,1.4,0.2,2.1s0.1,1.2,0.2,1.9s0.1,1.2,0.2,1.8l0.2,1.9
					c0.1,0.5,0.1,1,0.2,1.6C221,374.6,221.2,374.9,221.5,375.1z"/>
				<path class="st2" d="M221.5,375.1c-0.3-0.2-0.4-0.6-0.4-0.9c-0.1-0.5-0.1-1-0.2-1.6l-0.2-1.9c-0.1-0.6-0.1-1.2-0.2-1.8
					s-0.1-1.2-0.2-1.9s-0.1-1.4-0.2-2.1l-0.2-1.7c-0.1-0.7-0.1-1.4-0.2-2.1c0-0.2,0-0.5-0.1-0.7c-0.2-0.5-0.6-0.9-1.2-1
					c-0.1,0-0.2,0-0.2,0.1l-0.1-0.7c0.1,0,0.1-0.1,0.2-0.1c0.6,0.1,1.1,0.3,1.6,0.5c0,0.5,0.1,1.1,0.2,1.6c0.1,0.5,0.1,0.9,0.1,1.4
					l0,0c0.1,0.7,0.1,1.4,0.2,2c0,0.4,0.1,0.9,0.2,1.3v0.6l0.2,2.2l0.1,1.4c0.1,0.5,0.1,1.1,0.2,1.6s0.1,1.3,0.2,2
					S221.4,374.6,221.5,375.1z"/>
				<path class="st2" d="M220,359.4c-0.5-0.3-1-0.5-1.6-0.5l-0.2,0.1c-0.1,0,0-0.3,0-0.4c0-0.1,0-0.1,0.1-0.1h0l1.6,0.5L220,359.4
					L220,359.4z"/>
				<path class="st2" d="M220.2,362.4c0-0.5-0.1-0.9-0.1-1.4c0,0.3,0.1,0.6,0.1,0.9C220.3,362.1,220.3,362.3,220.2,362.4z"/>
			</g>
			<path class="st31" d="M135.4,60.6c0.1-0.2,0.1-0.7,0.2-0.7c1.1-0.4,2.2-0.7,3.3-0.9c4.1-0.1,8.2,0,12.4,0
				c0.1,0.6,0.3,1.1,0.4,1.6c0.8,2.5,3.1,4.1,5.7,4.1c2.8,0.1,5.6-1.1,7.4-3.3c0.3-0.5,0.5-1,0.7-1.5l0.1-0.1h-0.1v0.1
				c-1.2,0.3-2.5,0.4-3.7,0.4c-1.4-0.2-2.4-1.5-2.2-2.9c0.1-0.5,0.3-0.9,0.6-1.3c1.1-1.7,3.1-2.7,5.2-2.4c3.2,0,6.1,2,7.3,5
				c0.2,0.6,0.8,1,1.4,0.9c0.9,0,1.8,0,2.7,0c1-6-1.9-13.6-8.6-15c-3.8-0.8-7.8,0.3-10.8,2.8c-1.5,1.4-3,3-4.3,4.6
				c-0.3,0.4-0.7,0.6-1.1,0.7c-4,0-8.1,0-12.1-0.2c-1-0.2-2-0.5-3-0.9c4.6,0,9.2,0,13.8,0.1c0.7,0,1.3-0.3,1.7-0.8
				c1.5-1.8,3.1-3.4,4.9-4.9c2.8-2.3,6.5-3.4,10.1-3.1c4.8,0.3,7.7,3,9.4,7.3c0.6,1.7,1.1,3.4,1.7,5l0.5,3.3l-0.1,1h3
				c0.3,0,0.6-0.2,0.8-0.5c2.3-4.8,5.8-8.7,9.2-12.7c1.5-1.7,2.8-3.5,3.9-5.5c1.9-3.5,1.6-7.1,0.2-10.6s-3.1-7.2-4.7-10.8
				c-1,1.2-2.1,2.4-3.1,3.7c-5.1,6.5-12.6,10.5-20.8,11.3c-4.9,0.6-9.9,0.9-14.8,1c-8.8,0.2-17.6,0.1-26.4,0
				c-1.9-0.2-3.8-0.5-5.7-1.1c-0.2,0-0.4-0.4-0.7-0.5c3.3,0.1,6.6,0.2,9.9,0.2h22.8c5.4,0.1,10.8-0.5,16.1-1.5
				c5.1-1,10.2-2.4,14.1-6.1c2.9-2.7,5.4-5.7,8.1-8.6c0.4-0.5,0.8-1,1.3-1.4c1.8,4.4,3.7,8.7,5.4,13.1c0.6,1.6,1,3.4,1.2,5.1
				c0.3,3.5-1.2,6.5-3.1,9.3c-0.2,0.3-0.4,0.7-0.6,1l0.2,0.3l0.9-0.3c1.3-0.5,2.5-1,3.8-1.4c2.1-0.6,4.3-0.7,6.5-0.3
				c4.1,0.8,7.7,4.5,7,10.8s-7.6,13.1-14.6,12.2c-0.5-0.1-1-0.1-1.7-0.2c1.4,1.9,1.7,3,1.4,4.4c-0.6,4.5-4.1,8-8.5,8.8
				c-1.7,0.1-3.3,0.1-5,0c-2.8,5.5-7.1,10.1-12.5,13.2c-0.5,0.5-1.4,0.4-1.8-0.1c0,0,0,0-0.1-0.1c-2.4-2.1-4-5-4.6-8.1
				c-0.3-1.4-0.4-2.8-0.6-4.4L120.7,80c1.5-1.3,3.4-1.5,5.2-1.9c1.4-0.2,2.8-0.3,4.2-0.3c10.4,0,20.7-0.1,31.1,0
				c4.6,0.2,8.9-2.1,11.4-6c0.8-1.2,1.5-2.4,2.4-3.9h-3.5c-0.3,0-0.6,0.4-1,0.6c-1.3,0.9-2.6,1.8-4,2.5c-1,0.5-2.2,0.2-2.7-0.8
				c-0.3-1.1,0.2-2.2,1.2-2.7c0.5-0.3,1-0.5,1.5-0.7c-1.7-1.1-4.1-0.8-6.1,1c-0.9,0.9-1.6,1.8-2.2,2.9c-0.2,0.5-0.7,0.8-1.2,0.8
				c-11,0-22,0.1-33-0.1c-2.3,0-4.6-0.9-6.8-1.5c-0.6-0.2-0.7-0.4-0.5-0.9c0.9,0.3,1.8,0.4,2.7,0.5h36.8c0.3,0,0.6,0,0.9-0.1
				c1-1.1,1.9-2.2,3-3.5h-2.6c-3.9,0-6.3-1.7-7.4-5.5c-0.2-0.4-0.6-0.6-1-0.7c-3.4,0-6.9-0.1-10.3,0C137.7,60,136.5,60.3,135.4,60.6
				z M183.7,59.7c2.6,0.3,4.6,0.4,6-1.7c0.4-0.5,0.8-0.9,1.4-1.2c2.6-1.8,5.4-3.2,8.7-3c1.2,0,2.3,0.7,2.8,1.8
				c0.4,1.1,0.1,2.3-0.9,2.9c-0.9,0.8-1.9,1.4-3.1,1.7c-1.2,0.1-2.4,0-3.5-0.3c-0.4,2,0.9,4,2.9,4.5c1.6,0.5,3.2,0.6,4.8,0.1
				c4.9-1.4,8.4-5.5,9.1-10.5c0.6-5.2-2.4-8.6-6-9.4c-2.1-0.5-4.3-0.4-6.4,0.3c-4.9,1.6-9.2,4.8-12.1,9
				C186.1,55.7,185.1,57.6,183.7,59.7z M180.1,67.8h-2.4c-0.8-0.1-1.6,0.4-1.9,1.2c-1.6,3.8-4.4,7-8,9c-0.3,0.2-0.5,0.5-0.6,0.8
				c-0.4,4.4,1.1,8.8,4.3,11.9c0.4,0.2,0.8,0.3,1.2,0.1c4.6-2.8,8.4-6.9,10.8-11.8c0.1-0.4,0-0.8-0.2-1.2c-1.6-1.3-2.6-3.2-2.9-5.2
				C180.2,71.1,180.2,69.5,180.1,67.8L180.1,67.8z M190.4,67.2c1,0.2,1.9,0.6,1.8,1.8c-0.1,1.1-0.9,2-1.9,2.2
				c-1.6,0.5-3.3-0.3-4-1.8c-0.4-1-1.5-1.6-2.5-1.3h-1.1c-0.8-0.1-1.2,0.2-1.1,1.1c0.1,1.1,0.1,2.2,0.3,3.3c0.3,2.2,1.7,4.1,3.8,5
				c4.4,1.8,10.1-1.1,11.2-5.7c0.5-2.1,0-3.7-1.4-4.7C194,66,191.9,66.1,190.4,67.2z M180,61.3h-7.3c-1.4-0.1-2.7,0.8-3.2,2.1
				c-0.6,0.9-0.3,2.1,0.6,2.7c0.4,0.2,0.8,0.3,1.3,0.3h14.7c1.3,0,2.5-0.7,3.1-1.8c1-1.8,0.2-3.2-1.9-3.2L180,61.3z M167.7,65.3
				c-0.1-2.1,1.1-4,3-4.8c0.6-0.3,0.7-0.6,0.4-1.2c-1-2.1-3.1-3.6-5.4-3.9c-1.3-0.2-2.6-0.3-3.6,0.7c-0.4,0.4-0.9,1.2-0.7,1.5
				c0.3,0.6,0.9,1.1,1.6,1.3c0.9,0,1.7-0.2,2.5-0.6c0.9-0.4,1.8-0.9,2.6-1.5l0.3,0.2c-0.4,1.4-1,2.8-1.7,4.1c-0.9,1.3-1.9,2.5-3,3.6
				L167.7,65.3z M194.4,56.5c0.8,0.7,1.4,1.2,2.1,1.8c1,0.9,2.4,1,3.5,0.2c0.5-0.4,1.2-1.3,1.1-1.8c-0.3-0.7-1-1.2-1.7-1.3
				c-4.1-0.3-7.2,1.8-9.9,4.6c2,1.6,2.1,2.3,0.9,5.4l4.8-0.6C192.6,62.3,193.7,59.5,194.4,56.5L194.4,56.5z M167.9,69.1l-0.1-0.5
				c-0.7-0.1-1.4-0.1-2.1,0c-0.2,0.1-0.4,0.6-0.6,0.9c0.3,0.1,0.6,0.4,0.9,0.4C166.7,69.6,167.3,69.4,167.9,69.1z M188.3,68.7
				l-0.1,0.5c0.6,0.3,1.2,0.5,1.8,0.7c0.3,0.1,0.6-0.3,0.9-0.4c-0.2-0.3-0.4-0.8-0.7-0.8C189.6,68.6,188.9,68.6,188.3,68.7z"/>
			<path class="st32" d="M119.7,33.5c1.8-1.2,3.9-1.9,6-1.9c1.9-0.2,3.9-0.2,5.9-0.3c8.5-0.1,17,0,25.5-0.3
				c4.1-0.2,8.2-0.7,12.2-1.5c5.8-0.9,10.4-4.1,14.1-8.5c3.2-3.8,6.5-7.6,9.8-11.3l0.9-1c0.4,1.4,0.8,2.7,1.2,4
				c1.3,4.6,3,9.2,5.1,13.5c1.9,4.2,2.6,8.6,1.1,13.2c1.6-0.1,3.1-0.1,4.7,0c7.1,0.8,11.4,6,10.8,13.3c-0.6,7-4.5,11.8-10.4,15.2
				c-1.3,0.8-3.2,0.8-4.1,1.8s-0.8,2.8-1.4,4.2c-2.4,5.3-7.4,8.8-13.2,9.2c-0.9,0-1.7,0.4-2.1,1.2c-3.9,5.7-9.2,10.2-15.4,13.1
				c-4.9-3.1-8.1-8.4-8.5-14.2h-1.3c-8.8,0-17.6,0.1-26.4,0.1c-2.6,0-5.2-0.2-7.7-0.7c-2-0.5-3.9-1.2-5.7-2c1.2,0,2.4,0.1,3.6,0.1
				h40.5c0.1,0.8,0.1,1.5,0.2,2.2c0.5,4.1,2.5,7.8,5.6,10.4c0.4,0.5,1.2,0.6,1.7,0.2c5.3-3,9.6-7.4,12.6-12.7
				c0.2-0.6,0.8-0.9,1.3-0.7c0,0,0,0,0.1,0c2.1,0.4,4.2,0.1,6.1-0.8c4.3-1.8,8.2-6.8,6.3-12.1c1.1,0,2.2-0.1,3.3-0.2
				c5.7-1.1,10.2-5.4,11.6-11c2.3-8.1-3.3-14.5-11.7-13.4c-1.7,0.3-3.4,0.7-5.1,1.2c0.8-1.9,1.6-3.9,2.2-5.9
				c0.9-3.5-0.1-6.7-1.5-9.9s-2.6-6.2-3.9-9.3c-0.5-1.2-0.8-2.5-1.1-3.8c-2.4,2.7-4.8,5.2-7,7.9c-3.6,4.3-8.6,7.3-14.1,8.5
				c-5.8,1.4-11.7,2.1-17.6,2.1C142.5,33.3,131.1,33.4,119.7,33.5z"/>
			<path class="st33" d="M179,58.6c-0.1-1.1-0.3-2.2-0.5-3.3c-0.2-1.5-0.4-2.9-0.8-4.3c-2-6.5-6.6-9.5-13.3-8.6
				c-5.3,0.7-9.2,3.6-12.3,7.7c-0.4,0.7-1.2,1.1-2,1c-4.2,0-8.4,0.1-12.6,0.2c-0.3,0-0.5-0.1-0.8-0.1c2.5-1.2,5.2-1.7,8-1.5
				c2.6,0.1,4.7-0.2,6-2.8c0.6-0.9,1.3-1.7,2.2-2.4l2.6-1.9l1-0.5l-0.1-0.2h-16c-4.2,0-8.4,0.2-12.7,0.3c1.1-0.7,2.2-1.2,3.4-1.7
				c2.5-0.6,5.1-0.9,7.7-1c9.1-0.1,18.3-0.1,27.4,0c6.2,0,10.9,4.2,12.5,10.8C179.5,53,179.6,55.9,179,58.6z"/>
			<path class="st34" d="M119.7,33.5c11.4-0.1,22.8-0.1,34.2-0.3c5.9,0,11.8-0.7,17.6-2.1c5.5-1.2,10.5-4.2,14.1-8.5
				c2.2-2.6,4.6-5.2,7-7.9c0.4,1.3,0.6,2.6,1.1,3.8c1.2,3.1,2.6,6.2,3.9,9.3s2.4,6.4,1.5,9.9c-0.6,2-1.3,4-2.2,5.9
				c1.7-0.5,3.4-0.9,5.1-1.2c8.4-1.1,14,5.3,11.7,13.4c-1.5,5.6-6,9.8-11.6,11c-1.1,0.2-2.2,0.2-3.3,0.2c1.9,5.3-2,10.3-6.3,12.1
				c-1.9,0.9-4,1.2-6.1,0.8c-0.6-0.2-1.2,0.1-1.4,0.6c0,0,0,0,0,0.1c-3,5.3-7.3,9.7-12.6,12.7c-0.5,0.4-1.3,0.3-1.7-0.2
				c-3.1-2.6-5.1-6.4-5.6-10.4c-0.1-0.7-0.2-1.5-0.2-2.2h-40.5c-1.2,0-2.4,0-3.6-0.1l0,0V80l0,0l44.8-0.4c0.2,1.6,0.3,3,0.6,4.4
				c0.6,3.1,2.2,6,4.6,8.1c0.4,0.6,1.3,0.7,1.8,0.3c0,0,0,0,0.1-0.1c5.3-3.1,9.7-7.7,12.5-13.2c1.7,0.1,3.3,0.1,5,0
				c4.5-0.7,7.9-4.3,8.5-8.8c0.2-1.5-0.1-2.5-1.4-4.4c0.6,0.1,1.1,0.2,1.7,0.2c7,0.9,13.8-5.7,14.6-12.2c0.7-6.3-2.9-10-7-10.8
				c-2.2-0.4-4.4-0.3-6.5,0.3c-1.3,0.4-2.5,1-3.8,1.4l-0.9,0.3l-0.2-0.3c0.2-0.3,0.4-0.7,0.6-1c2-2.8,3.4-5.8,3.1-9.4
				c-0.1-1.8-0.5-3.5-1.2-5.1c-1.7-4.4-3.6-8.7-5.4-13.1c-0.4,0.4-0.8,0.9-1.3,1.4c-2.7,2.9-5.3,5.9-8.1,8.6c-3.9,3.7-9,5-14.1,6.1
				c-5.3,1-10.7,1.5-16.1,1.5h-22.8c-3.3,0-6.6-0.2-9.9-0.2l0,0C120,33.6,119.7,33.5,119.7,33.5z"/>
			<path class="st33" d="M116.6,69.1c2.7-1.5,5.7-2.3,8.7-2.3c7.2-0.2,14.4-0.1,21.7-0.2h1.3c-0.7-1.4-1.3-2.8-2-4.1
				c-0.1-0.3-0.7-0.3-1.1-0.4c-2.4-0.2-4.9-0.3-7.4-0.7c-0.8-0.2-1.6-0.6-2.4-1h13.8c1.4,4.6,4.5,6.5,9,6.3
				c-0.8,1.9-2.2,2.3-4.1,2.2c-11.3-0.1-22.6,0-33.8,0C119.1,69.1,117.9,69.1,116.6,69.1z"/>
			<path class="st35" d="M116.6,69.1H154c1.9,0,3.3-0.3,4.1-2.2c-4.5,0.2-7.6-1.7-9-6.3h-13.7c1.1-0.3,2.2-0.5,3.3-0.6
				c3.4-0.1,6.9,0,10.3,0c0.4,0,0.8,0.3,1,0.7c1.2,3.7,3.5,5.5,7.4,5.5h2.6c-1.1,1.3-2,2.4-3,3.5c-0.2,0.2-0.6,0.1-0.9,0.1h-36.8
				c-0.9-0.1-1.8-0.3-2.7-0.5L116.6,69.1z"/>
			<path class="st36" d="M155.5,42.6l-2.6,1.9c-0.4-0.1-0.8-0.2-1.2-0.2h-15.8c-2.8,0.1-5.6-0.6-8.1-1.9c1.2,0.1,2.5,0.2,3.7,0.2
				H155.5z"/>
			<path class="st37" d="M136.9,51.1c0.3,0.1,0.5,0.1,0.8,0.1c4.2-0.1,8.4-0.2,12.6-0.2c0.8,0.1,1.6-0.3,2-1
				c3.1-4.2,7.1-7.1,12.3-7.7c6.6-0.8,11.2,2.2,13.2,8.7c0.4,1.4,0.6,2.8,0.7,4.3c-0.6-1.7-1-3.4-1.7-5c-1.7-4.3-4.7-7-9.4-7.3
				c-3.6-0.3-7.2,0.8-10,3c-1.8,1.5-3.4,3.1-4.9,4.9c-0.4,0.6-1,0.9-1.7,0.8c-4.6,0-9.2,0-13.8-0.1l0,0L136.9,51.1L136.9,51.1z"/>
			<path class="st38" d="M155.5,42.6h-24c-1.2,0-2.5-0.1-3.7-0.2l-0.1-0.3c4.2-0.1,8.4-0.3,12.7-0.3c5-0.1,9.9,0,14.9,0h1.1l0.1,0.2
				L155.5,42.6z"/>
			<path class="st31" d="M136.8,51.1l0.2,0.6L136.8,51.1z"/>
			<path class="st31" d="M119.7,33.4v0.3l-0.4-0.1L119.7,33.4z"/>
			<path class="st31" d="M120.7,80"/>
			<path class="st39" d="M167.7,65.3l-4-0.6c1.1-1.1,2.1-2.3,3-3.6c0.6-1.3,1.2-2.7,1.6-4.1l-0.3-0.2c-0.8,0.5-1.7,1-2.6,1.5
				c-0.8,0.4-1.6,0.6-2.5,0.6c-0.7-0.2-1.3-0.6-1.6-1.3c-0.2-0.3,0.3-1.2,0.7-1.5c1-0.8,2.4-1.1,3.6-0.7c2.3,0.3,4.4,1.8,5.4,3.9
				c0.3,0.6,0.2,0.9-0.4,1.2C168.8,61.5,167.7,63.3,167.7,65.3z M168.9,57.3c-0.7,2.7-1.6,5-3.7,6.7l1.9,0.3c0.4-2,1.7-3.8,3.6-4.7
				L168.9,57.3z M167.3,56.4c-1.8-0.6-3.3-0.8-4.7,0.1c-0.2,0.2-0.4,0.5-0.5,0.8c0.1,0.4,0.4,0.6,0.8,0.7c0.6,0.1,1.3,0,1.9-0.2
				C165.7,57.4,166.5,57,167.3,56.4z"/>
			<path class="st40" d="M194.4,56.5c-0.7,3-1.7,5.8,0.8,8.2l-4.8,0.6c1.1-3,1-3.8-0.9-5.4c2.7-2.8,5.8-4.9,9.9-4.6
				c0.7,0.1,1.4,0.6,1.7,1.3c0.1,0.5-0.5,1.3-1.1,1.8c-1.1,0.8-2.5,0.7-3.5-0.2C195.8,57.7,195.1,57.1,194.4,56.5z M197.5,56
				l-2.1,0.6l2.4,1.7h0.9l1.8-1.3c0.1,0,0.1,0,0.1-0.1c0-0.1,0-0.1-0.1-0.1l-1.1-0.8l-0.8-0.2l0,0L197.5,56z M193.3,58.1l-0.3-0.3
				l-2.6,2c1.6,1.3,1.5,2.9,1.2,4.5l2-0.3C192.5,62,192.8,60.1,193.3,58.1z"/>
			<path class="st41" d="M167.9,69.1c-0.6,0.3-1.2,0.6-1.9,0.8c-0.2,0.1-0.6-0.2-0.9-0.4c0.2-0.3,0.4-0.8,0.6-0.9
				c0.7-0.1,1.4-0.1,2.1,0L167.9,69.1z"/>
			<path class="st42" d="M188.3,68.7c0.6-0.1,1.3-0.1,1.9-0.1c0.3,0,0.4,0.5,0.7,0.8c-0.3,0.2-0.7,0.5-0.9,0.4
				c-0.6-0.2-1.2-0.4-1.8-0.7L188.3,68.7z"/>
			<path class="st43" d="M168.9,57.3l1.8,2.3c-1.9,0.9-3.2,2.7-3.6,4.7l-1.9-0.4C167.3,62.2,168.2,60,168.9,57.3z"/>
			<path class="st44" d="M167.2,56.4c-0.8,0.5-1.6,1-2.5,1.5c-0.6,0.2-1.3,0.3-1.9,0.2c-0.4-0.1-0.7-0.3-0.8-0.7
				c-0.1-0.2,0.2-0.7,0.5-0.8C164,55.6,165.4,55.9,167.2,56.4z"/>
			<path class="st45" d="M193.3,58.1c-0.4,2-0.8,3.9,0.4,5.9l-2,0.3c0.2-1.6,0.4-3.2-1.2-4.5l2.6-2L193.3,58.1z"/>
			<path class="st46" d="M198.6,55.8L198.6,55.8l0.8,0.2l1.1,0.8V57l-1.8,1.3h-0.9l-2.4-1.7l2.1-0.6L198.6,55.8z"/>
			<path class="st47" d="M197.7,58.2L197.7,58.2z"/>
			<path class="st47" d="M198.6,55.8l-1.1,0.2L198.6,55.8z"/>
			<path class="st47" d="M199.4,56l-0.8-0.2L199.4,56z"/>
			<path class="st47" d="M200.5,57L200.5,57z"/>
			<text transform="matrix(1.14 0 0 1 205.5698 37.4102)" class="st48 st49 st50">TM</text>
			<path class="st2" d="M204.5,315c-0.6-5-29.6,1.6-27.9,6.4C177.1,326.4,206.1,319.8,204.5,315z M177.9,320.6
				c-1.3-3.5,23.4-9.5,23.8-5.8C203,318.3,178.3,324.3,177.9,320.6z M203,315.4c-1.6,3.1-12.2,5.9-15.2,6.1
				c3.8-0.8,7.5-1.9,11.1-3.5c6.6-3.3,3.1-4.6-2.1-4.3l0,0C197.8,313.7,203.4,312.9,203,315.4z"/>
		</g>
	</g>
	<g id="Layer_2-2">
		<path class="st51" d="M77.5,60.5c-0.3,0.5-0.6,1.1-1,1.6c-3.1,4.6-6.8,8.7-11.1,12.3c-3.6,3-7.5,5.8-11.6,8.2
			c-1,0.6-1.9,1.1-2.7,1.6c-0.8-0.4-1.7-0.9-2.7-1.6c-4.1-2.4-7.9-5.2-11.6-8.2c-2.3-1.9-4.5-4-6.5-6.2"/>
		
			<radialGradient id="SVGID_1_" cx="51.09" cy="620.03" r="27.1413" gradientTransform="matrix(1 0 0 -1.25 2.000000e-02 817.02)" gradientUnits="userSpaceOnUse">
			<stop  offset="0" style="stop-color:#F4EA2B"/>
			<stop  offset="0.58" style="stop-color:#F4E829"/>
			<stop  offset="0.79" style="stop-color:#F5E222"/>
			<stop  offset="0.94" style="stop-color:#F7D617"/>
			<stop  offset="1" style="stop-color:#F8CF0F"/>
		</radialGradient>
		<path class="st52" d="M31.4,71c-1.6-1.8-3.1-3.7-4.5-5.8c-2.8-4-4.3-8.8-4.5-13.7V15.9c3.8-0.9,7.7-1.7,11.6-2.2
			c11.3-1.5,22.8-1.5,34.1,0c3.9,0.5,7.8,1.3,11.6,2.2v35.6c-0.1,4.3-1.3,8.5-3.5,12.2"/>
		<path class="st51" d="M81.4,14c-4.7-1.4-9.6-2.4-14.4-3.1c-10.5-1.5-21.2-1.5-31.6,0c-4.9,0.7-9.7,1.7-14.4,3.1l-0.4,0.1V50
			c0.1,5.4,1.8,10.6,4.8,15.1c2.9,4.4,6.4,8.3,10.5,11.6c3.3,2.7,6.8,5.2,10.4,7.4c2.8,1.7,4.7,2.6,4.8,2.7l0.3,0.1l0.3-0.1
			c0.1,0,1.9-0.9,4.8-2.7c3.7-2.2,7.1-4.7,10.4-7.5c4-3.3,7.6-7.2,10.5-11.6c3-4.5,4.7-9.7,4.8-15.1V14.2L81.4,14z M79.2,50
			c-0.1,4.9-1.6,9.6-4.4,13.7c-2.7,4.1-6.1,7.8-9.9,11c-3.2,2.7-6.5,5.1-10.1,7.2c-1.6,1-2.8,1.7-3.6,2.1c-0.8-0.4-2-1.1-3.6-2.1
			c-3.5-2.1-6.9-4.6-10.1-7.2c-3.8-3.2-7.2-6.9-9.9-11c-2.7-4-4.3-8.8-4.4-13.7V16.2c4.1-1.1,8.3-2,12.6-2.6
			c10.3-1.4,20.7-1.4,30.9,0c4.2,0.6,8.4,1.4,12.6,2.6V50z"/>
		<path class="st53" d="M51.1,90.8l-0.6-0.3c-0.1,0-2.1-1-5.2-2.9c-4-2.4-7.8-5.1-11.4-8.1c-4.4-3.6-8.3-7.9-11.5-12.6
			c-3.3-4.9-5.2-10.7-5.3-16.7v-39l1.1-0.3c5.1-1.5,10.4-2.6,15.7-3.4c11.4-1.6,23-1.6,34.4,0c5.3,0.7,10.6,1.8,15.7,3.3l0,0
			l1.1,0.3v39c-0.1,6-2,11.7-5.3,16.7c-3.2,4.8-7,9-11.5,12.6c-3.6,3-7.4,5.7-11.4,8.1c-3.1,1.8-5.1,2.8-5.2,2.9L51.1,90.8z
			 M18.8,12.5v37.8c0.1,5.6,1.9,11.1,5,15.8c3.1,4.6,6.8,8.8,11.1,12.3c3.5,2.9,7.2,5.6,11.2,7.9c2.7,1.6,4.6,2.6,5,2.8
			c0.4-0.2,2.3-1.1,5-2.8c3.9-2.4,7.6-5,11.1-7.9c4.3-3.5,8-7.7,11.1-12.3c3.2-4.7,4.9-10.1,5.1-15.8V12.5c-5-1.5-10.2-2.5-15.3-3.2
			c-11.3-1.5-22.7-1.5-33.9,0C28.9,9.9,23.8,11,18.8,12.5z"/>
		<path class="st2" d="M83.8,11.7c-5.1-1.5-10.3-2.6-15.6-3.3C56.9,6.9,45.4,6.9,34,8.4c-5.3,0.7-10.5,1.8-15.6,3.3L18,11.9v38.4
			c0.1,5.8,1.9,11.4,5.2,16.2c3.1,4.7,6.9,8.9,11.3,12.4c3.5,2.9,7.3,5.6,11.2,8c3,1.8,5,2.8,5.1,2.8l0.3,0.1l0.3-0.1
			c0.1,0,2.1-1,5.1-2.8c3.9-2.4,7.7-5.1,11.2-8c4.4-3.6,8.2-7.8,11.3-12.4c3.3-4.8,5.1-10.4,5.2-16.2V11.9L83.8,11.7z M81.4,50.3
			c-0.1,5.2-1.8,10.3-4.7,14.7c-3,4.4-6.6,8.4-10.7,11.8c-3.4,2.9-7.1,5.4-10.9,7.7c-1.7,1-3.1,1.8-3.9,2.2
			c-0.8-0.4-2.2-1.2-3.9-2.2c-3.8-2.3-7.4-4.9-10.9-7.7c-4.1-3.4-7.8-7.4-10.7-11.8c-3-4.3-4.6-9.4-4.7-14.7V14
			c4.5-1.2,9-2.1,13.6-2.8c11.1-1.5,22.3-1.5,33.4,0c4.6,0.6,9.1,1.6,13.6,2.8V50.3z"/>
		<polygon class="st51" points="76.1,63 77.8,59.8 28.8,68 30.9,70.5 		"/>
		<polyline class="st2" points="78.1,62.6 76.7,65.4 76.7,65.4 31.5,73 31.5,73 29.6,70.7 29.6,70.7 78.2,62.6 		"/>
		<path class="st51" d="M36.3,25.1h32c-2.1-6-7.6-10.8-16.9-11.1C43,14.7,39.2,19.4,36.3,25.1"/>
		<path class="st51" d="M52.5,12.9c0-0.1-0.1-0.2-0.2-0.2h-0.7l0.1-3.3l-0.6-0.8l-0.6,0.8l0.2,3.3H50c-0.1,0-0.2,0.1-0.2,0.2
			s0.1,0.2,0.2,0.2v1.2h2.3v-1.2C52.4,13.2,52.5,13,52.5,12.9z"/>
		<polyline class="st2" points="50.5,12.6 50.4,9.1 50.5,9.1 50.7,12.6 		"/>
		<polyline class="st2" points="51.6,12.6 51.7,9.1 51.9,9.1 51.8,12.6 		"/>
		<polygon class="st51" points="32.4,68.7 28.9,67.1 28.9,46.2 29.4,45.6 29.4,40.5 30.1,39.6 30.1,37.3 29.9,36.4 27.3,35.5 
			29.9,33.5 28.7,32.9 33.8,23.8 39.1,25 40.4,25 43.4,22.6 45.1,22.9 45.1,66.5 		"/>
		<polyline class="st2" points="76.3,39.8 76.3,44.8 76.3,44.8 76.7,44.8 76.7,47.9 77.9,48.3 77.9,49.9 76.7,50.6 76.7,62.9 
			44.8,68.5 44.8,45.7 43.9,45 43.9,43.4 43.9,43.4 44.3,43.5 44.3,39.7 43.9,38.5 45.1,38.7 45.1,38.7 45.1,28.6 44.3,28.4 
			44.3,25.6 44.1,24.4 43.3,22.5 49.8,23.6 61.1,19.9 71.6,26.9 71.1,27.3 77,28.5 74.3,30.7 74.3,33.2 75.4,34.4 75.4,38.5 
			76.3,39.8 		"/>
		<polygon class="st2" points="76.3,44.8 76.3,44.4 76.7,44.8 		"/>
		<polyline class="st2" points="38.5,42.9 37.7,42.2 38.5,41.6 38.5,33.2 38.5,33.2 37,32.3 38.8,30.6 39.5,30.8 39.5,28 39.5,28 
			31.1,34.4 31.1,35.7 31.1,35.7 29.9,36.4 27.3,35.6 27.3,35.5 29.8,33.5 28.7,32.9 33.8,23.8 39.1,25 40.4,25 40.4,25 43.3,22.5 
			44.1,24.4 44.4,25.6 41.2,28.3 41.2,31.2 41.2,31.2 40.8,31.1 40.7,31.9 40.7,40.8 40.7,40.8 43.9,38.5 44.4,39.7 40.7,42.3 
			40.7,45.6 40.7,45.6 43.9,43.4 44.8,43.6 44.8,45.7 40.5,48.2 40.7,52.3 40.1,52.5 39.8,52.5 39.3,53 38.9,52.5 39.1,51.6 
			37.9,49.9 33,53.2 33.2,57.4 32.5,57.5 32.3,57.5 31.7,58 31.3,57.5 31.8,56.6 30.5,55 28.9,56 27.7,55.9 27.7,54.5 30.2,52.7 
			30.2,52.2 29.7,51.9 31.2,50.8 31.2,48.5 28.9,50.1 28.2,49.4 30.8,47.4 30.6,47.2 31.2,46.6 31.2,38.5 31.2,38.5 29.5,37.5 
			31.6,36 32.8,36.1 33.2,37.5 33.2,46.1 33.2,46.1 33.6,46.2 33.4,47.3 33.4,50.4 37.8,47.5 37.8,46.8 37.2,46.6 38.5,45.7 
			38.5,42.9 		"/>
		<polyline class="st51" points="30.2,33.2 39.3,26.5 34.6,25.4 34.6,25.4 30.2,33.2 		"/>
		<path class="st51" d="M57.3,59.5v9.2l7.9-1.2v-6.6l0,0c-0.5-2-2.1-3.5-4.2-3.8h0.1c-1.6-0.3-3.3,0.6-3.8,2.2"/>
		<polyline class="st54" points="53.6,40.5 53.4,40.8 53.4,40.8 53.4,41 53.4,41 65.9,43 65.9,43 65.9,42.6 65.9,42.6 53.6,40.6 		
			"/>
		<polyline class="st55" points="68.4,49.3 68.1,48.6 68.1,48.6 68.1,48.6 68.1,48.6 68.4,49.3 		"/>
		<line class="st56" x1="70.2" y1="28" x2="70.2" y2="28"/>
		<polygon class="st53" points="44.8,46.1 76.7,50.5 78,49.8 78,48.1 43.9,43.4 43.9,45 		"/>
		<polyline class="st53" points="49.8,23.6 61.1,19.9 71.6,26.9 70.2,28 69.4,29.1 69.4,29.8 69.4,29.8 50.7,26.6 50.7,26.6 
			50.4,25.3 49.8,23.6 		"/>
		<polygon class="st53" points="76.7,44.8 77.4,43.8 43.9,38.5 44.3,39.7 		"/>
		<polygon class="st53" points="77,28.5 71.1,27.3 70.2,28 69.4,29.1 69.4,29.8 74.3,30.7 		"/>
		<polyline class="st53" points="49.8,23.6 43.3,22.5 44.1,24.4 44.3,25.6 51.8,26.8 51.8,26 51.5,24.7 50.9,23.2 49.8,23.6 		"/>
		<polygon class="st2" points="60.7,21.7 51.5,24.7 70,27.9 		"/>
		<polygon class="st2" points="53.2,40.5 67.9,42.9 67.9,39.8 53.2,37.5 		"/>
		<line class="st56" x1="65.4" y1="34.6" x2="67.9" y2="35"/>
		<polyline class="st53" points="53.2,32.5 67.9,35 67.9,35.4 53.2,33 53.2,32.5 		"/>
		<path class="st51" d="M55.7,38.6v-3.2c-0.2,0.1-0.4,0.1-0.7,0.1V35c0.3,0,0.7-0.2,0.8-0.8h0.3v4.4c0,0.2,0.1,0.2,0.2,0.3h0.4v0.5
			l-1.6-0.2v-0.5h0.4C55.6,38.9,55.7,38.8,55.7,38.6z"/>
		<path class="st51" d="M57.7,37.2c-0.3-0.3-0.5-0.7-0.5-1.2c0-0.7,0.5-1.2,1.2-1.2c0.1,0,0.2,0,0.3,0c0.7,0,1.3,0.7,1.3,1.4
			c0,0.5-0.3,0.9-0.7,1.1c0.5,0.3,0.7,0.8,0.7,1.4c0,0.7-0.5,1.2-1.2,1.3c-0.1,0-0.2,0-0.3,0c-0.8,0-1.4-0.7-1.4-1.6c0,0,0,0,0,0
			C57,37.8,57.3,37.4,57.7,37.2z M58.4,39.4c0.4,0.1,0.8-0.1,0.9-0.5c0-0.1,0-0.2,0-0.2c0-0.3-0.1-0.6-0.4-0.7L58,37.4
			c-0.3,0.2-0.5,0.5-0.5,0.9C57.4,38.9,57.8,39.3,58.4,39.4z M58.2,36.7l0.6,0.4c0.3-0.2,0.6-0.5,0.6-0.9c0.1-0.5-0.3-0.9-0.7-0.9
			c0,0,0,0,0,0c-0.3-0.1-0.7,0.1-0.8,0.5c0,0.1,0,0.1,0,0.2C57.8,36.2,58,36.5,58.2,36.7z"/>
		<path class="st51" d="M61.8,39.6v-0.7l-1.6-0.2v-0.5l1.8-2.9l0.5,0.1l-0.2,3.1l0.7,0.1v0.5L62.3,39v0.7c0,0.2,0.1,0.3,0.2,0.3h0.4
			v0.5l-1.7-0.2v-0.5l0.4,0.1C61.7,39.8,61.8,39.7,61.8,39.6z M60.7,38.2l1.2,0.2l0.1-2.2L60.7,38.2z"/>
		<polygon class="st51" points="50.7,26.6 50.7,29.1 50.2,29.4 51.2,31.2 51.2,39.3 51,39.4 51.5,40.6 51.5,44.4 52,45 52,46.2 
			52.2,46.2 52,46.7 52,51 52.8,50.5 52.5,49.8 53.3,46.6 52.8,45.7 52.8,44.6 52.5,44 52.5,40.3 51.9,39.3 52.5,39.3 52.5,30.5 
			51.5,28.8 51.8,28.8 51.8,26 51.5,24.7 50.9,23.2 49.8,23.6 50.4,25.3 		"/>
		<polygon class="st51" points="52,46.2 52,46.7 52.2,46.2 		"/>
		<rect x="49.8" y="23.4" transform="matrix(0.9487 -0.3161 0.3161 0.9487 -4.8255 17.1237)" class="st51" width="1.2" height="0"/>
		<polygon class="st51" points="54.2,50.7 53.4,51.2 53.4,45.8 54.3,45.9 54.7,46.8 53.9,50.1 		"/>
		<polyline class="st53" points="55.3,46.1 55.3,45 55.8,44.5 54.5,44.3 54.5,40.6 55.5,39.6 54.5,39.5 54.5,31 55.6,29.5 
			51.5,28.8 52.5,30.5 52.5,39.3 51.9,39.3 52.5,40.3 52.5,44 52.8,44.6 52.8,45.7 53.3,46.6 52.5,49.8 52.8,50.5 52,51 52.8,51 
			53.3,50.5 53.1,49.8 53.9,46.7 53.5,45.9 54.3,46 54.7,46.8 54.7,46.8 53.9,50.1 54.2,50.7 53.4,51.2 54.2,51.2 54.7,50.7 
			54.5,50.1 55.3,46.9 55,46.1 55.3,46.1 		"/>
		<polyline class="st51" points="67.6,46.3 68,46 68.3,46.8 68.3,47.8 68.8,48.6 68,51.8 68.3,52.6 67.5,53 67.5,48.8 67.7,48.4 
			67.7,47.1 67.5,46.7 66.8,46.5 66.8,42.9 66.4,41.9 66.9,41.6 66.9,33.4 66.2,32 66.8,31.4 67.6,33.1 67.6,41.6 67.2,41.6 
			67.6,42.6 67.6,46.3 		"/>
		<polygon class="st51" points="69.3,52.1 69.6,52.8 69,53.2 69,47.8 69.6,48 70.2,48.8 		"/>
		<polyline class="st53" points="67.5,53 68.2,52.6 67.9,51.8 68.8,48.6 68.3,47.8 68.3,46.8 68,46 67.6,46.3 67.6,46.3 67.6,42.6 
			67.6,42.6 67.2,41.6 67.6,41.6 67.6,33.1 66.8,31.4 71,31.9 69.4,33.3 69.4,41.9 69.4,41.9 70.3,42 69.4,42.9 69.4,46.4 
			71.3,46.7 70.8,47 70.8,48.2 70.4,48.2 70.8,48.9 69.9,52.1 70.2,52.8 69.7,53.2 69,53.2 69.6,52.8 69.3,52.1 70.2,48.8 69.7,48 
			69,47.9 69.4,48.7 68.5,51.9 68.8,52.5 68.2,53 67.5,53 		"/>
		<path class="st51" d="M64.3,36.5l-0.1,1.2c0.3-0.3,0.6-0.4,1-0.3c1,0.1,1.3,1,1.2,1.9c-0.1,1.2-0.8,1.8-1.7,1.7
			c-0.7,0-1.2-0.6-1.2-1.3c0-0.3,0.2-0.7,0.5-0.6c0.3,0.1,0.4,0.3,0.4,0.6c0,0.3-0.2,0.4-0.4,0.4c0.1,0.3,0.4,0.4,0.7,0.4
			c0.7,0.1,1-0.4,1-1.2s-0.2-1.2-0.8-1.3c-0.3,0-0.5,0.1-0.7,0.4l-0.4-0.1l0.2-2.6"/>
		<polyline class="st51" points="63.9,35.7 66.3,36.1 66.3,36.8 64.3,36.5 		"/>
		<polygon class="st51" points="29.1,56.3 27.4,56.1 27.4,54.2 29,53 29.2,53.4 27.8,54.4 27.8,55.7 29.1,55.9 		"/>
		<polygon class="st51" points="28.9,50.5 27.9,49.2 29,48.3 29.3,48.7 28.5,49.3 29.2,50.2 		"/>
		<polygon class="st51" points="30.1,38.4 28.8,37.6 30,36.7 30.3,37 29.6,37.5 30.4,38 		"/>
		<polygon class="st51" points="30.3,36.7 26.9,35.6 29.4,33.5 28.4,33 33.7,23.4 39.2,24.6 39.1,25 33.9,23.8 29,32.8 30.2,33.4 
			27.7,35.5 30.4,36.3 		"/>
		<polyline class="st51" points="76.3,50.5 76.3,63 76.7,62.9 76.7,50.5 		"/>
		<polyline class="st51" points="76.7,47.9 76.7,44.8 76.3,44.8 76.3,47.9 		"/>
		<polyline class="st51" points="76.3,43.7 76.3,39.7 75.4,38.5 75.4,34.3 74.3,33.2 74.3,30.7 73.9,30.6 73.9,33.3 75,34.5 
			75,38.6 75.9,39.8 75.9,43.6 		"/>
		<polygon class="st51" points="74.1,30.9 73.8,30.6 76.6,28.4 70.6,27.4 71.4,26.7 67.3,24 67.5,23.7 72.1,26.7 71.6,27.2 
			77.7,28.2 		"/>
		<polyline class="st51" points="76.3,45 76.5,45.1 77.7,43.5 76,43.2 75.9,43.6 77,43.8 76.3,44.7 		"/>
		<polyline class="st51" points="76.3,48.1 77.8,48.3 77.8,49.7 76.3,50.5 76.5,50.9 78.2,49.9 78.2,47.9 76.3,47.7 76.3,47.9 		"/>
	</g>
</g>
</svg>
