<?xml version="1.0" encoding="utf-8"?>
<!-- Generator: Adobe Illustrator 24.0.1, SVG Export Plug-In . SVG Version: 6.00 Build 0)  -->
<svg version="1.1" id="Layer_1" xmlns="http://www.w3.org/2000/svg" xmlns:xlink="http://www.w3.org/1999/xlink" x="0px" y="0px"
	 viewBox="0 0 707.6 648.1" style="enable-background:new 0 0 707.6 648.1;" xml:space="preserve">
<style type="text/css">
	.st0{fill:#FFFFFF;}
	.st1{fill:#839BCB;}
	.st2{fill:#065FAA;}
	.st3{fill:#0A61AA;}
	.st4{fill:#EFDE60;}
	.st5{fill:#E4D662;}
	.st6{fill:#7F99CC;}
	.st7{fill:#EFDD60;}
	.st8{fill:#F2E063;}
	.st9{fill:#F2E05F;}
	.st10{fill:#F4E15F;}
	.st11{fill:#F5E261;}
	.st12{fill:#F8E45D;}
	.st13{fill:#1363A6;}
	.st14{fill:#0C61A7;}
	.st15{fill:#1564A6;}
	.st16{fill:#0960A8;}
	.st17{fill:#F1DF60;}
	.st18{fill:#005CB5;}
	.st19{font-family:'MyriadPro-Regular';}
	.st20{font-size:2.36px;}
	.st21{clip-path:url(#SVGID_2_);}
	.st22{clip-path:url(#SVGID_4_);fill:#0033A1;}
	.st23{clip-path:url(#SVGID_6_);fill:url(#SVGID_7_);}
	.st24{clip-path:url(#SVGID_9_);fill:#0033A1;}
	.st25{clip-path:url(#SVGID_9_);fill:#D0D1EC;}
	.st26{clip-path:url(#SVGID_9_);fill:#FFFFFF;}
	.st27{clip-path:url(#SVGID_9_);fill:#E6E7F5;}
	.st28{clip-path:url(#SVGID_9_);fill:#C4C5E7;}
</style>
<title>lc-sprite</title>
<g id="Bm8sUV.tif">
	<path class="st0" d="M252.1,373.5v0.5c-0.1,0.5-0.3,0.9-0.6,1.2c-0.4,0.3-0.8,0.5-1.2,0.6c-0.3,0.1-0.7,0.1-1,0.1l-1.3,0.1
		c-0.1,0-0.2-0.1-0.3-0.1c-0.2,0-0.4,0-0.6,0l-2.4,0.2l-2,0.2l-1.2,0.1l-2.1,0.2l-2,0.2l-1.3,0.1c-0.1,0-0.1,0-0.2,0l-2.1,0.2
		l-2.4,0.2c-0.3,0-0.6,0-0.8,0.1l-2.8,0.2l-3.1,0.3l-1.2,0.1h-0.7c-0.4,0.1-0.8,0.1-1.3,0c-0.7-0.2-1.2-0.7-1.4-1.4l0.4-0.4
		c0.4-0.3,0.8-0.5,1.2-0.5c0.1,0.3,0.2,0.5,0.4,0.7c0.2,0.1,0.3,0.2,0.6,0.2c0.1,0,0.1,0.1,0.2,0.1l0.9-0.1l1-0.1l0,0l0.8-0.1h0.3
		l0.7-0.1l1.2-0.1l1.3-0.1c0.3,0,0.7,0,1-0.1c0.4,0,0.7,0,1.1-0.1c0.2,0,0.5-0.1,0.7-0.1c0.1,0,0.2,0,0.2,0c0.3,0,0.5,0,0.8-0.1
		c0.2,0,0.5-0.1,0.7-0.1l1.5-0.1l0.4,0l1-0.1l0.9-0.1l1.1-0.1l0.9-0.1h0.7c0.1,0,0.2,0,0.3-0.1h0.2c0.3,0,0.7,0,1-0.1
		c0.7-0.1,1.4-0.1,2.2-0.2l1.3-0.1l0.3-0.1c0.3,0,0.7,0,1-0.1l1.5-0.1l0.9-0.1l0.1-0.1c0.3,0,0.6,0,0.9-0.2c0.3-0.1,0.5-0.3,0.5-0.6
		c0.1-0.2,0.1-0.4,0.1-0.6c0-0.6-0.1-1.2-0.2-1.8c-0.1-0.9-0.2-1.8-0.3-2.7l-0.2-2.3c-0.1-0.8-0.2-1.5-0.2-2.3s-0.1-1.5-0.2-2.3
		c-0.1-1-0.2-2-0.3-3s-0.2-1.9-0.3-2.9l0.2-0.1c0.4-0.3,0.7-0.6,1-0.9c0.1-0.1,0.2-0.1,0.4,0c0,0.1,0.1,0.1,0.1,0.2
		c0,0.2,0.2,0.3,0.1,0.6v0.1c0,0.1,0,0.2,0,0.3v0.8c0,0.2,0,0.4,0.1,0.6c0,0.2,0,0.5,0.1,0.8c0.1,0.3,0.1,0.6,0.1,0.9
		c0,0.2,0,0.5,0,0.7c0,0.5,0.1,1.1,0.1,1.6s0.1,0.8,0.1,1.1c0,0.5,0.1,1.1,0.1,1.6s0.1,0.8,0.1,1.2l0.1,1.6c0.1,0.6,0.1,1.3,0.2,2
		l0.1,1.6c0.1,0.5,0.1,1.3,0.2,2C251.9,372.8,252.1,373.1,252.1,373.5z"/>
	<path class="st0" d="M248.4,353.4c0.2,0,0.3,0.1,0.5,0.1c0.4,0.1,0.8,0.4,1.1,0.8c0.1,0.2,0.2,0.4,0.3,0.6c0-0.1-0.1-0.1-0.1-0.2
		c-0.1-0.2-0.2-0.2-0.4,0l-1,0.9l-0.2,0.1l-0.2-0.4l1-1.3c0.1-0.1,0.1-0.1,0-0.2c0,0,0,0,0,0l0,0c-0.1,0-0.1-0.1-0.2-0.1l-0.2-0.1
		l-0.2-0.1c-0.2,0-0.4-0.1-0.7-0.1c-0.3,0-0.6,0-0.9,0.1v-0.1l0.6-0.1h0.2L248.4,353.4z"/>
	<path class="st0" d="M220.3,356l0.9-0.1v0.1c-0.4,0-0.8,0.1-1.1,0.1c-0.5,0-0.9,0.2-1.2,0.5c-0.3,0.3-0.6,0.7-0.6,1.1
		c0,0.1,0,0.2,0.1,0.3c0.2,0.2,0.5,0.4,0.8,0.5l0.8,0.2v0.2l0,0l-1.6-0.5c-0.1,0-0.1,0-0.1,0.1v0.4l0.1,0.7v0.6
		c0.1,0.9,0.2,1.8,0.3,2.6s0.2,1.9,0.3,2.8s0.2,1.7,0.2,2.5c0.1,1,0.2,2.1,0.3,3.2c0.1,0.9,0.2,1.8,0.3,2.7c0,0.4,0.1,0.8,0.1,1.2
		s0.1,0.9,0.1,1.4c0,0.1,0,0.2,0.1,0.3c0.2,0.7,0.8,1.3,1.6,1.4c0.4,0.1,0.8,0.1,1.3,0l0.7,0l0.2,0.1l-0.6,0.1h-1.3
		c-0.2,0-0.3,0-0.5-0.1c-0.8-0.4-1.3-1.1-1.4-2c-0.1-1-0.2-2.1-0.3-3.1s-0.2-2.2-0.3-3.4s-0.2-2-0.3-3s-0.2-2.3-0.3-3.4l-0.3-3
		c-0.1-0.7-0.2-1.5-0.2-2.2c0-1,0.7-1.9,1.7-2.1C219.9,356.1,220.1,356.1,220.3,356z"/>
	<path class="st0" d="M220,377c0-0.1-0.1-0.2-0.1-0.3c0-0.5-0.1-0.9-0.1-1.4c0.2-0.1,0.5-0.1,0.7,0l1,0.3l0.1,0.4
		c-0.4,0.1-0.8,0.3-1.2,0.5L220,377z"/>
	<path class="st0" d="M250.1,373.7c0.1-0.5,0.1-1,0-1.5c0-0.4-0.1-0.8-0.1-1.2c-0.1-0.6-0.1-1.1-0.2-1.7s-0.1-1-0.1-1.6
		s-0.1-1.1-0.2-1.6s-0.1-0.8-0.1-1.2c-0.1-0.6-0.1-1.1-0.2-1.7c0-0.4-0.1-0.8-0.1-1.2s-0.1-1.1-0.2-1.6s-0.1-0.8-0.1-1.2
		s-0.1-1.1-0.2-1.6s-0.1-0.8-0.1-1.2c0-0.3-0.1-0.7-0.2-1c-0.1-0.1-0.2-0.2-0.3-0.3v-0.1h0.1l0.1,0.1l0.1,0.1l0.2,0.4
		c0.1,1,0.2,1.9,0.3,2.9s0.2,2,0.3,3c0.1,0.8,0.1,1.5,0.2,2.3s0.1,1.5,0.2,2.3l0.2,2.3c0.1,0.9,0.2,1.8,0.3,2.7
		c0.1,0.6,0.1,1.2,0.2,1.8c0,0.2,0,0.4-0.1,0.6L250.1,373.7z"/>
	<path class="st0" d="M223.6,378.4l-0.2-0.1l1.2-0.1l3.1-0.3l2.8-0.2l0.1,0.1L223.6,378.4z"/>
	<path class="st0" d="M241.5,376.6l1.2-0.1l2-0.2l2.4-0.2h0.6c0.1,0,0.2,0,0.3,0.1h-0.4l-4.2,0.4l-1.6,0.1L241.5,376.6z"/>
	<path class="st0" d="M241.5,376.6l0.3,0.1h-0.1l-2.2,0.2l-2.9,0.3h-0.6V377l1.3-0.1l2-0.2L241.5,376.6z"/>
	<path class="st0" d="M236.1,377.1v0.1l-1.2,0.1l-1.2,0.1h-0.4l-2.6,0.2l-0.1-0.1c0.3,0,0.6-0.1,0.8-0.1l2.4-0.2l2.1-0.2
		L236.1,377.1z"/>
	<path class="st0" d="M221.6,376l-0.1-0.4v-0.5c0-0.5-0.1-1.1-0.1-1.6s-0.1-1.3-0.2-2s-0.1-1.1-0.2-1.6l-0.1-1.4l0,0
		c0,0.3,0.1,0.6,0.1,0.8c0.1,0.6,0.1,1.1,0.2,1.7s0.1,1,0.1,1.6s0.1,0.9,0.1,1.3v1l0.1,0.6C221.5,375.6,221.5,375.8,221.6,376
		c0,0.3,0.2,0.5,0.4,0.6l0,0C221.8,376.5,221.6,376.3,221.6,376z"/>
	<path class="st0" d="M231.8,376.1h0.4l1.4-0.1c-0.2,0-0.5,0.1-0.7,0.1c-0.3,0-0.5,0.1-0.8,0.1C231.9,376.1,231.8,376.1,231.8,376.1
		z"/>
	<path class="st0" d="M247.8,374.6l0.3-0.1l0.7,0c0,0-0.1,0-0.1,0.1L247.8,374.6z"/>
	<path class="st0" d="M239.3,375.4l0.4-0.1h0.6c-0.1,0-0.2,0.1-0.3,0.1L239.3,375.4z"/>
	<path class="st0" d="M245.3,374.8l0.4-0.1h0.6C246,374.8,245.6,374.8,245.3,374.8z"/>
	<path class="st0" d="M228.9,376.4l0.4,0l0.6,0C229.6,376.4,229.3,376.4,228.9,376.4z"/>
	<path class="st0" d="M235.3,375.8c0.2,0,0.4-0.1,0.6-0.1h0.4L235.3,375.8z"/>
	<path class="st0" d="M225.4,376.7c0.2,0,0.4,0,0.6-0.1h0.4l-0.7,0.1L225.4,376.7z"/>
	<path class="st0" d="M223.6,376.9l0.4,0h0.6L223.6,376.9z"/>
	<path class="st0" d="M247.8,376.1h0.1l1.3-0.1l-0.8,0.1H247.8z"/>
	<path class="st0" d="M250.1,373.7L250.1,373.7c0,0.2-0.2,0.4-0.4,0.5L250.1,373.7z"/>
	<path class="st0" d="M222,376.7L222,376.7l0.5,0.2C222.3,376.9,222.2,376.8,222,376.7z"/>
	<path class="st0" d="M230.6,377.7l2.6-0.2h0.4l-0.8,0.1l-1.7,0.2l-1.3,0.1l-1.2,0.1l-1.2,0.1l-1.3,0.1l-1.2,0.1l-1.3,0.1l-1.2,0.1
		c-0.3,0-0.6,0-0.9,0c-0.2,0-0.3-0.1-0.4-0.1c0.2,0.1,0.3,0.1,0.5,0.1h1.3l0.6-0.1L230.6,377.7z"/>
	<path class="st0" d="M236.6,377.1l2.9-0.3l2.2-0.2h0.1l1.6-0.1l0,0c-0.6,0.1-1.2,0.1-1.8,0.2l-1.9,0.2L238,377l-1.2,0.1
		L236.6,377.1L236.6,377.1z"/>
	<path class="st0" d="M243.4,376.5L243.4,376.5l4.2-0.4h0.3l-0.8,0.1l-1.7,0.2l-1.2,0.1L243.4,376.5z"/>
	<path class="st0" d="M236.6,377.1L236.6,377.1l-1.8,0.2l-1.2,0.1h-0.1l1.2-0.1l1.2-0.1L236.6,377.1z"/>
	<path class="st0" d="M236.1,354.5l1.7-0.2l2.7-0.3l1.3-0.1v0.1c-0.2,0-0.3,0-0.5,0.1l-3.1,0.3L236.1,354.5L236.1,354.5z"/>
	<path class="st0" d="M225.5,355.6l2-0.2l3.1-0.3l0.5,0l0.1,0.1l-0.9,0.1l-2.8,0.3l-2.1,0.2L225.5,355.6z"/>
	<path class="st0" d="M241.8,354.1V354l2-0.2l2.7-0.3h0.7v0.1l-0.5,0.1l-3.1,0.3L241.8,354.1z"/>
	<path class="st0" d="M231.2,355.1l-0.1-0.1l2.7-0.3l2.4-0.2v0.1l-0.5,0.1l-2.8,0.3C232.3,355,231.8,355.1,231.2,355.1z"/>
	<path class="st0" d="M225.5,355.6v0.1h-0.2l-2.4,0.2l-1.7,0.1V356l1.3-0.1l2.3-0.2L225.5,355.6z"/>
	<path class="st0" d="M221.2,356.1l1.7-0.1l2.4-0.2h0.2l2.1-0.2l2.8-0.3l0.9-0.1c0.5,0,1.1-0.1,1.6-0.1l2.8-0.3l0.5-0.1l2-0.2
		l3.1-0.3c0.2,0,0.3,0,0.5-0.1l1.7-0.2l3.1-0.3l0.5-0.1c0.3,0,0.6-0.1,0.9-0.1c0.2,0,0.4,0,0.7,0.1l-0.2,0.2
		c-0.2,0.4-0.4,0.8-0.5,1.3c-0.2-0.1-0.3-0.1-0.5-0.2c-0.3,0-0.7,0-1.1,0c-0.7,0-1.3,0.1-2,0.2l-1.6,0.1l-2,0.2l-1.6,0.1l-2,0.2
		l-1.6,0.1l-1.6,0.2l-1.6,0.1l-1.8,0.2h-0.2l-1,0.1l-1.3,0.1l-0.8,0.1l-1.7,0.2l-0.7,0.1h-0.6l-0.4,0.1l-1.3,0.1l-2.1,0.2
		c-0.6,0.2-0.9,0.7-0.9,1.3l-0.8-0.2c-0.3-0.1-0.6-0.3-0.8-0.5c-0.1-0.1-0.1-0.2-0.1-0.3c0.1-0.4,0.3-0.8,0.6-1.1
		c0.3-0.3,0.8-0.5,1.2-0.5C220.5,356.2,220.9,356.1,221.2,356.1z"/>
	<path class="st0" d="M248.4,355.4l-0.1-0.1c0.2-0.5,0.5-0.9,0.8-1.3c0-0.1,0.1-0.2,0.1-0.2c0.1,0,0.1,0.1,0.2,0.1
		c0.1,0.1,0.1,0.1,0,0.2c0,0,0,0,0,0l0,0L248.4,355.4z"/>
	<path class="st0" d="M249.2,353.8c0,0.1,0,0.2-0.1,0.2c-0.3,0.4-0.6,0.8-0.8,1.3l-0.1-0.1c0,0,0-0.1,0.1-0.1c0.2-0.5,0.4-1,0.8-1.4
		L249.2,353.8z"/>
	<path class="st0" d="M249,353.7c-0.3,0.4-0.6,0.9-0.8,1.4c0,0.1,0,0.1-0.1,0.1h-0.1c0.1-0.5,0.2-0.9,0.5-1.3l0.2-0.2L249,353.7z"/>
	<path class="st0" d="M231.8,365.5h0.8c0.6,0,1.2,0.1,1.8,0.4c0.9,0.3,1.6,1.1,1.9,2c0.3,1,0.3,2.1-0.2,3c-0.4,0.8-1.1,1.4-2,1.8
		c-0.9,0.3-1.8,0.6-2.7,0.6l-2.4,0.2l-2.8,0.3l-1.1,0.1c-0.2,0-0.2,0-0.2-0.2c0,0,0,0,0-0.1c-0.1-0.4,0-0.4,0.4-0.4
		c0.3,0,0.5-0.1,0.8-0.2c0.4-0.2,0.6-0.6,0.5-0.9c-0.1-1.3-0.3-2.7-0.4-4c-0.2-1.7-0.4-3.4-0.6-5.1c-0.1-0.5-0.1-1-0.1-1.4
		c0-0.2-0.1-0.4-0.2-0.6c-0.1-0.2-0.3-0.3-0.5-0.3h-0.8c-0.3,0-0.3,0-0.4-0.3c-0.1-0.4-0.1-0.4,0.4-0.5l2.8-0.3l3.1-0.3
		c0.9-0.1,1.7-0.1,2.6,0.1c0.7,0.1,1.4,0.5,1.9,1.1c0.4,0.5,0.5,1.1,0.5,1.8c0,0.8-0.4,1.6-1,2.2c-0.5,0.4-1.1,0.8-1.7,1
		L231.8,365.5z M230.3,366.3L230.3,366.3l-1.6,0.2c-0.1,0-0.2,0.1-0.2,0.2c0,0.3,0.1,0.6,0.1,1c0.1,1.1,0.2,2.1,0.3,3.2
		c0,0.4,0.1,0.8,0.2,1.1c0.1,0.3,0.4,0.6,0.7,0.6c0.3,0,0.7,0,1,0c0.9-0.1,1.7-0.6,2.1-1.3c0.6-0.9,0.7-2,0.3-3
		c-0.3-0.8-0.9-1.5-1.7-1.8C231.2,366.3,230.8,366.3,230.3,366.3L230.3,366.3z M232,363c0-0.5-0.1-1.1-0.3-1.5
		c-0.2-0.4-0.4-0.7-0.8-1c-0.5-0.3-1-0.4-1.6-0.3c-0.4,0-0.7,0-1.1,0.1c-0.4,0.1-0.4,0.1-0.4,0.5l0.3,3.1c0.1,0.5,0.1,1,0.2,1.5
		c0,0.1,0,0.2,0.2,0.1c0.5,0,1-0.1,1.6-0.2C231.2,365.1,232,364.1,232,363z"/>
	<path class="st0" d="M240.7,372.3c-0.7,0-1.4-0.1-2-0.3c-0.1,0-0.2,0-0.3,0.1c-0.2,0.1-0.4,0.3-0.5,0.5c-0.1,0.1-0.2,0.1-0.4,0
		c-0.1-0.1-0.1-0.1-0.2-0.3c-0.1-0.9-0.1-1.8-0.2-2.7s-0.2-1.6-0.3-2.5c-0.1-1-0.2-2.1-0.3-3.1s-0.2-2-0.3-3c0-0.1-0.1-0.2-0.2-0.3
		c-0.3-0.1-0.5-0.2-0.8-0.3c-0.1-0.1-0.2-0.2-0.2-0.3c0-0.1,0.1-0.1,0.2-0.2c0.9-0.4,1.8-0.8,2.6-1.4c0.3-0.2,0.5-0.1,0.5,0.2
		c0.1,1.4,0.3,2.8,0.4,4.2c0.1,0.6,0.1,1.2,0.2,1.8v0.2l0.1-0.1c0.5-0.5,1.1-0.8,1.8-1.1c1.1-0.3,2.2-0.3,3.2,0.2
		c0.7,0.4,1.3,1,1.6,1.8c0.5,1.2,0.5,2.5-0.1,3.6c-0.4,0.9-1.1,1.6-2,2.1C242.7,372.1,241.7,372.4,240.7,372.3z M243.7,368.9
		c0-0.5-0.1-1-0.2-1.5c-0.2-0.6-0.5-1.1-0.9-1.5c-0.9-0.9-2.4-0.9-3.3-0.1c-0.1,0.1-0.1,0.2-0.1,0.3c0.1,1.4,0.3,2.8,0.4,4.1
		c0,0.2,0.1,0.4,0.2,0.5c0.7,0.5,1.5,0.7,2.4,0.5c0.4-0.1,0.8-0.3,1.1-0.7C243.5,370.1,243.7,369.5,243.7,368.9L243.7,368.9z"/>
	<path class="st0" d="M223.2,375.7H223c-0.1,0-0.1-0.1-0.2-0.1c0,0,0.1-0.1,0.1-0.1c0.2,0,0.4-0.1,0.5-0.1l3.4-0.3l2.9-0.3l2.7-0.2
		l2.2-0.2l2.3-0.3l3-0.3l2.3-0.2l2.6-0.3l2.3-0.2l1.6-0.1h0.1l0.2,0.1c-0.1,0.1-0.1,0.1-0.2,0.2c-0.1,0-0.2,0-0.4,0l-4.4,0.4
		l-4.3,0.4l-3.7,0.4l-3,0.3l-3.4,0.3l-2.6,0.3l-2.7,0.2L223.2,375.7z"/>
	<path class="st0" d="M247.2,356.2c0,0,0.1,0,0.1,0c0.1,0,0.1,0.1,0.1,0.1s-0.1,0.1-0.1,0.1c-0.2,0-0.4,0.1-0.6,0.1l-3.4,0.3
		l-3.3,0.3l-3.3,0.3l-3.6,0.4l-2.9,0.3l-2.6,0.3l-3,0.3l-3,0.3h-0.1c-0.1,0-0.2,0-0.2-0.1s0.1-0.2,0.2-0.2l0.8-0.1l3.1-0.3l3-0.3
		l3-0.3l2.7-0.3l2.5-0.2l2.6-0.3l2.3-0.2l2.3-0.2l2.2-0.2L247.2,356.2z"/>
	<path class="st0" d="M248.1,355.1v0.1l-0.3-0.1c-0.2-0.1-0.5-0.1-0.7-0.1l-2,0.2l-1.6,0.1l-2,0.2l-1.6,0.1l-2,0.2l-1.6,0.1
		l-1.6,0.2l-1.6,0.1l-1.3,0.1h-1.1l1.8-0.2l1.6-0.1l1.6-0.2l1.6-0.1l2-0.2l1.6-0.1l2-0.2l1.6-0.1c0.7-0.1,1.3-0.1,2-0.2
		c0.3,0,0.7,0,1,0C247.7,355,247.9,355.1,248.1,355.1z"/>
	<path class="st0" d="M223.5,366.3c0.1,0,0.2,0,0.2,0.2v0.1c0,0.3,0,0.3-0.3,0.4l-0.9,0.1c-0.1,0-0.3-0.1-0.3-0.2c0,0,0,0,0-0.1
		c0-0.2,0-0.3,0.2-0.4l0.6-0.1L223.5,366.3z"/>
	<path class="st0" d="M235.3,365.8h-0.2c-0.2-0.1-0.3-0.2-0.5-0.2c-0.1-0.1-0.1-0.1-0.1-0.2c0,0,0.1-0.1,0.2-0.1l1.2-0.1
		c0.2,0,0.2,0,0.3,0.2c0.1,0.4,0.1,0.4-0.3,0.5L235.3,365.8z"/>
	<path class="st0" d="M246.6,364L246.6,364c0.2,0.1,0.1,0.3,0.1,0.5s-0.1,0.1-0.1,0.1c-0.3,0-0.6,0.1-0.9,0.1c-0.1,0-0.1,0-0.2-0.1
		l-0.4-0.4c-0.1-0.1-0.1-0.1,0-0.2L246.6,364z"/>
	<path class="st0" d="M225.5,366.5c0,0.2,0,0.2-0.2,0.2l-0.9,0.1c-0.1,0-0.2,0-0.3-0.1c0,0,0,0,0,0c0,0,0,0,0-0.1v-0.2
		c0-0.1,0-0.2,0.1-0.2h0.1l1-0.1c0.1,0,0.2,0,0.2,0.1c0,0,0,0,0,0l0,0L225.5,366.5z"/>
	<path class="st0" d="M248.2,363.8c0.3,0,0.3,0.1,0.4,0.4s-0.1,0.2-0.3,0.2l-0.9,0.1c-0.1,0-0.2,0-0.2-0.1v-0.1c0-0.3,0-0.3,0.3-0.4
		L248.2,363.8z"/>
	<path class="st0" d="M220.8,357.5l2.1-0.2l1.3-0.1c-0.1,0-0.3,0.1-0.4,0.1l-2.3,0.2C221.3,357.5,221,357.5,220.8,357.5L220.8,357.5
		z"/>
	<path class="st0" d="M220.3,362.8c0,0.3,0.1,0.5,0.1,0.8c0.1,0.5,0.1,1.1,0.2,1.7l0.1,1.4l-0.1-0.3v-0.6c0-0.4-0.1-0.8-0.2-1.3
		c-0.1-0.7-0.1-1.4-0.2-2L220.3,362.8z"/>
	<path class="st0" d="M230.9,356.5h1.1l-2,0.2l-1.5,0.1l0,0l1.3-0.1l1-0.1L230.9,356.5z"/>
	<path class="st0" d="M220.8,357.5L220.8,357.5c-0.2,0.2-0.3,0.3-0.4,0.4c-0.3,0.2-0.4,0.6-0.3,1c0.1,0.5,0.1,1,0.1,1.4v-0.2
		c-0.1-0.4-0.1-0.8-0.1-1.1v-0.2C220,358.2,220.3,357.7,220.8,357.5z"/>
	<path class="st0" d="M219.9,359c0,0.4,0.1,0.8,0.1,1.1v0.2c0,0.2,0.1,0.5,0.1,0.8l0.1,1.7l-0.1-0.3l0,0V362c0-0.2-0.1-0.6-0.1-0.9
		l-0.2-1.6L219.9,359L219.9,359z"/>
	<path class="st0" d="M220.6,366.4l0.1,0.3l0.1,0.8c0,0.3,0.1,0.7,0.1,1l0,0L220.6,366.4z"/>
	<path class="st0" d="M228.4,356.8L228.4,356.8l-0.6,0h-0.2L228.4,356.8z"/>
	<path class="st0" d="M224.6,357.1h0.6C225.1,357.2,224.8,357.2,224.6,357.1z"/>
	<path class="st0" d="M221.5,375.1v0.5l-1-0.3c-0.2-0.1-0.5-0.1-0.7,0c0-0.4-0.1-0.8-0.1-1.2c-0.1-0.9-0.2-1.8-0.3-2.7
		c-0.1-1-0.2-2.1-0.3-3.2c-0.1-0.8-0.2-1.7-0.2-2.5s-0.2-1.9-0.3-2.8s-0.2-1.8-0.3-2.6v-0.6c0-0.2,0-0.2,0.2-0.1
		c0.6,0.1,1,0.5,1.2,1c0.1,0.2,0.1,0.5,0.1,0.7c0.1,0.7,0.1,1.4,0.2,2.1l0.2,1.7c0.1,0.7,0.1,1.4,0.2,2.1s0.1,1.2,0.2,1.9
		s0.1,1.2,0.2,1.8l0.2,1.9c0.1,0.5,0.1,1,0.2,1.6C221,374.6,221.2,374.9,221.5,375.1z"/>
	<path class="st0" d="M221.5,375.1c-0.3-0.2-0.4-0.5-0.4-0.9c-0.1-0.5-0.1-1-0.2-1.6l-0.2-1.9c-0.1-0.6-0.1-1.2-0.2-1.8
		s-0.1-1.2-0.2-1.9s-0.1-1.4-0.2-2.1l-0.2-1.7c-0.1-0.7-0.1-1.4-0.2-2.1c0-0.2,0-0.5-0.1-0.7c-0.1-0.5-0.6-0.9-1.2-1
		c-0.1,0-0.2,0-0.2,0.1l-0.1-0.7c0.1,0,0.1-0.1,0.2-0.1c0.6,0.1,1.1,0.3,1.6,0.5c0,0.5,0.1,1.1,0.2,1.6s0.1,0.9,0.1,1.4l0,0
		c0.1,0.7,0.1,1.4,0.2,2c0,0.4,0.1,0.8,0.2,1.3v0.6l0.2,2.2l0.1,1.4c0.1,0.5,0.1,1.1,0.2,1.6s0.1,1.3,0.2,2S221.4,374.6,221.5,375.1
		z"/>
	<path class="st0" d="M220,359.4c-0.5-0.3-1-0.5-1.6-0.5l-0.2,0.1c-0.1,0,0-0.3,0-0.4s0.1-0.1,0.1-0.1l1.6,0.5V359.4z"/>
	<path class="st0" d="M220.2,362.4c0-0.5-0.1-0.9-0.1-1.4c0,0.3,0.1,0.6,0.1,0.9C220.3,362.1,220.3,362.3,220.2,362.4z"/>
</g>
<path class="st1" d="M135.7,60.6c0.1-0.2,0.1-0.7,0.2-0.7c1.1-0.4,2.2-0.7,3.3-0.9c4.1-0.1,8.2,0,12.4,0c0.1,0.6,0.3,1.1,0.4,1.6
	c0.8,2.5,3.1,4.1,5.7,4.1c2.8,0.1,5.6-1.1,7.4-3.3c0.3-0.5,0.5-1,0.7-1.5l0.1-0.1h-0.1v0.1c-1.2,0.3-2.5,0.4-3.7,0.4
	c-1.4-0.2-2.4-1.5-2.2-2.9c0.1-0.5,0.3-0.9,0.6-1.3c1.1-1.7,3.1-2.7,5.2-2.4c3.2,0,6.1,2,7.3,5c0.2,0.6,0.8,1,1.4,0.9
	c0.9-0.1,1.8,0,2.7,0c1-6-1.9-13.6-8.6-15c-3.8-0.8-7.8,0.3-10.8,2.8c-1.5,1.4-3,3-4.3,4.6c-0.3,0.4-0.7,0.6-1.1,0.7
	c-4,0-8.1,0-12.1-0.2c-1-0.2-2-0.5-3-0.9c4.6,0,9.2,0,13.8,0.1c0.7,0,1.3-0.3,1.7-0.8c1.5-1.8,3.1-3.4,4.9-4.9
	c2.9-2.3,6.5-3.4,10.1-3.1c4.8,0.3,7.7,3,9.4,7.3c0.6,1.7,1.1,3.4,1.7,5l0.5,3.3l-0.1,1c1,0,2,0,3,0c0.3,0,0.6-0.2,0.8-0.5
	c2.3-4.8,5.8-8.7,9.2-12.7c1.5-1.7,2.8-3.6,3.9-5.5c1.9-3.5,1.6-7.1,0.2-10.6s-3.1-7.2-4.7-10.8c-1,1.2-2.1,2.4-3.1,3.7
	c-5.1,6.5-12.6,10.5-20.8,11.3c-4.9,0.6-9.9,0.9-14.8,1c-8.8,0.2-17.6,0.1-26.4,0c-1.9-0.2-3.9-0.5-5.7-1.1c-0.2,0-0.4-0.4-0.7-0.5
	c3.3,0.1,6.6,0.2,9.9,0.2c7.6,0,15.2,0,22.8,0c5.4,0,10.8-0.4,16.1-1.5c5.1-1,10.2-2.4,14.1-6.1c2.9-2.7,5.4-5.7,8.1-8.6
	c0.4-0.5,0.9-1,1.3-1.4c1.8,4.4,3.7,8.7,5.4,13.1c0.6,1.6,1,3.4,1.2,5.1c0.3,3.5-1.2,6.5-3.1,9.3c-0.2,0.3-0.4,0.7-0.6,1l0.2,0.3
	l0.9-0.3c1.3-0.5,2.5-1,3.8-1.4c2.1-0.6,4.3-0.7,6.5-0.3c4.1,0.8,7.7,4.5,7,10.8c-0.8,6.4-7.6,13.1-14.6,12.1
	c-0.5-0.1-1-0.1-1.7-0.2c1.4,1.9,1.7,3,1.4,4.4c-0.6,4.5-4.1,8-8.5,8.8c-1.7,0.1-3.3,0.1-5,0c-2.8,5.5-7.1,10.1-12.5,13.2
	c-0.6,0.5-1.4,0.4-1.9-0.2c-2.4-2.1-4-5-4.6-8.1c-0.3-1.4-0.4-2.8-0.6-4.4L121,80c1.5-1.3,3.4-1.5,5.2-1.9c1.4-0.2,2.8-0.3,4.2-0.3
	c10.4,0,20.7-0.1,31.1,0c5,0.1,8.7-2.1,11.4-6c0.8-1.2,1.5-2.4,2.4-3.9c-1.4,0-2.5,0-3.5,0c-0.3,0-0.6,0.4-1,0.6
	c-1.3,0.9-2.6,1.8-4,2.5c-1,0.5-2.2,0.2-2.7-0.8c-0.3-1.1,0.2-2.2,1.2-2.7c0.5-0.3,1-0.5,1.5-0.7c-1.7-1.1-4.1-0.8-6.1,1
	c-0.9,0.9-1.6,1.8-2.2,2.9c-0.2,0.5-0.7,0.8-1.2,0.8c-11,0-22,0.1-33-0.1c-2.3,0-4.6-0.9-6.8-1.5c-0.6-0.2-0.7-0.4-0.5-0.9
	c0.9,0.3,1.8,0.4,2.7,0.5c12.3,0,24.5,0,36.8,0c0.3,0,0.8,0,0.9-0.1c1-1.1,1.9-2.2,3-3.5h-2.6c-3.9,0-6.3-1.7-7.4-5.5
	c-0.2-0.4-0.6-0.6-1-0.7c-3.4,0-6.9-0.1-10.3,0C137.9,60,136.7,60.3,135.7,60.6z M184,59.7c2.6,0.3,4.6,0.4,6-1.7
	c0.4-0.5,0.8-0.9,1.4-1.2c2.6-1.8,5.4-3.2,8.7-3c1.2,0,2.4,0.7,2.8,1.8c0.4,1.1,0.1,2.3-0.9,2.9c-0.9,0.8-1.9,1.4-3.1,1.7
	c-1.2,0.1-2.4-0.1-3.5-0.3c-0.4,2,0.9,4,2.9,4.5c1.6,0.5,3.2,0.6,4.8,0.1c4.9-1.4,8.4-5.5,9.1-10.5c0.6-5.2-2.4-8.6-6-9.4
	c-2.1-0.5-4.3-0.4-6.4,0.3c-4.9,1.6-9.2,4.8-12.1,9C186.4,55.7,185.3,57.6,184,59.7z M180.4,67.8c-0.8,0-1.6,0-2.4,0
	c-0.8-0.1-1.6,0.4-1.9,1.2c-1.6,3.8-4.4,6.9-8,9c-0.3,0.2-0.5,0.5-0.6,0.8c-0.4,4.4,1.1,8.8,4.3,11.9c0.3,0.2,0.8,0.3,1.2,0.1
	c4.6-2.8,8.4-6.9,10.8-11.8c0.1-0.4,0-0.8-0.2-1.2c-1.6-1.3-2.6-3.2-2.9-5.2C180.5,71.1,180.5,69.5,180.4,67.8L180.4,67.8z
	 M190.7,67.2c1,0.2,1.9,0.6,1.8,1.8c-0.1,1.1-0.9,2-1.9,2.2c-1.6,0.5-3.3-0.3-4-1.8c-0.4-1-1.4-1.6-2.5-1.3c-0.4,0-0.7,0-1.1,0
	c-0.8-0.1-1.2,0.2-1.1,1.1c0.1,1.1,0.1,2.2,0.3,3.3c0.3,2.2,1.7,4.1,3.8,5c4.4,1.8,10.1-1.1,11.2-5.7c0.5-2.1,0-3.7-1.4-4.7
	C194.2,66,192.2,66.1,190.7,67.2L190.7,67.2z M180.3,61.3H173c-1.4-0.1-2.7,0.8-3.2,2.1c-0.6,0.9-0.3,2.1,0.6,2.7
	c0.4,0.2,0.8,0.3,1.3,0.3c4.9,0,9.8,0,14.7,0c1.3,0,2.5-0.7,3.1-1.8c1-1.8,0.2-3.2-1.9-3.2L180.3,61.3z M168,65.3
	c-0.1-2.1,1.1-3.9,3-4.8c0.6-0.3,0.7-0.6,0.4-1.2c-1-2.1-3-3.6-5.4-3.9c-1.3-0.2-2.6-0.3-3.6,0.7c-0.4,0.4-0.9,1.2-0.7,1.5
	c0.3,0.6,0.9,1.1,1.6,1.3c0.9,0,1.7-0.2,2.5-0.6c0.9-0.4,1.7-0.9,2.6-1.5l0.3,0.2c-0.4,1.4-1,2.8-1.7,4.1c-0.9,1.3-1.9,2.5-3,3.6
	L168,65.3z M194.6,56.5c0.8,0.7,1.4,1.2,2.1,1.8c1,0.9,2.5,1,3.5,0.2c0.5-0.4,1.2-1.3,1.1-1.8c-0.3-0.7-1-1.2-1.7-1.3
	c-4.1-0.3-7.2,1.8-9.9,4.6c2,1.6,2.1,2.3,0.9,5.3l4.8-0.6C192.9,62.3,194,59.5,194.6,56.5L194.6,56.5z M168.2,69.1l-0.1-0.5
	c-0.7-0.1-1.4-0.1-2.1,0c-0.2,0.1-0.4,0.6-0.6,0.9c0.3,0.1,0.6,0.4,0.9,0.4C167,69.6,167.6,69.4,168.2,69.1z M188.5,68.7l-0.1,0.5
	c0.6,0.3,1.2,0.5,1.8,0.7c0.3,0.1,0.6-0.3,0.9-0.4c-0.2-0.3-0.4-0.8-0.7-0.8C189.8,68.6,189.2,68.6,188.5,68.7L188.5,68.7z"/>
<path class="st2" d="M120,33.5c1.8-1.4,3.9-1.7,6-1.9c1.9-0.2,3.9-0.2,5.9-0.3c8.5-0.1,17,0,25.5-0.3c4.1-0.2,8.2-0.7,12.2-1.5
	c5.8-0.9,10.4-4.1,14.1-8.5c3.2-3.8,6.5-7.6,9.8-11.3l0.9-1c0.4,1.4,0.8,2.7,1.2,4c1.3,4.7,3,9.2,5.1,13.5c1.9,4.2,2.6,8.6,1.1,13.2
	c1.6-0.1,3.2-0.1,4.7,0c7.1,0.8,11.4,6,10.8,13.3c-0.6,7-4.5,11.8-10.4,15.1c-1.3,0.8-3.2,0.8-4.1,1.8s-0.8,2.8-1.4,4.2
	c-2.4,5.3-7.5,8.8-13.2,9.2c-0.9,0-1.7,0.4-2.1,1.2c-3.9,5.7-9.2,10.2-15.4,13.1c-4.9-3.1-8.1-8.4-8.5-14.2h-1.3
	c-8.8,0-17.6,0.1-26.4,0.1c-2.6,0-5.2-0.2-7.7-0.7c-2-0.5-3.9-1.2-5.7-2c1.2,0,2.4,0.1,3.6,0.1c13,0,26.1,0,39.1,0h1.4
	c0.1,0.8,0.1,1.5,0.2,2.2c0.5,4.1,2.5,7.8,5.6,10.4c0.4,0.5,1.2,0.6,1.7,0.2c5.3-3,9.6-7.4,12.6-12.7c0.2-0.6,0.8-0.9,1.4-0.7
	c2.1,0.4,4.2,0.1,6.1-0.8c4.3-1.8,8.2-6.8,6.3-12.1c1.1,0,2.2-0.1,3.3-0.2c5.7-1.1,10.2-5.4,11.6-11c2.3-8.1-3.3-14.5-11.7-13.4
	c-1.7,0.3-3.4,0.7-5.1,1.2c0.8-1.9,1.6-3.9,2.2-5.9c0.9-3.5-0.1-6.7-1.5-9.9s-2.6-6.2-3.9-9.3c-0.5-1.2-0.8-2.5-1.1-3.8
	c-2.4,2.7-4.8,5.2-7,7.9c-3.7,4.3-8.6,7.3-14.1,8.5c-5.8,1.4-11.7,2.1-17.6,2.1C142.8,33.3,131.4,33.4,120,33.5z"/>
<path class="st3" d="M179.2,58.6c-0.1-1.1-0.3-2.2-0.5-3.3c-0.2-1.5-0.4-2.9-0.8-4.3c-2-6.5-6.6-9.5-13.3-8.6
	c-5.3,0.7-9.2,3.6-12.3,7.7c-0.4,0.7-1.2,1.1-2,1c-4.2,0-8.4,0.1-12.6,0.2c-0.3,0-0.5-0.1-0.8-0.1c2.5-1.2,5.2-1.7,8-1.5
	c2.6,0.1,4.7-0.2,6-2.8c0.6-0.9,1.3-1.7,2.2-2.4l2.6-1.9l1-0.5l-0.1-0.2h-1.1c-5,0-9.9,0-14.9,0c-4.2,0-8.4,0.2-12.7,0.3
	c1.1-0.7,2.2-1.2,3.4-1.7c2.5-0.6,5.1-0.9,7.7-1c9.1-0.1,18.3-0.1,27.4,0c6.2,0,10.9,4.2,12.5,10.8C179.8,53,179.8,55.9,179.2,58.6z
	"/>
<path class="st4" d="M120,33.5c11.4-0.1,22.8-0.1,34.2-0.3c5.9,0,11.8-0.7,17.6-2.1c5.5-1.2,10.5-4.2,14.1-8.5
	c2.2-2.6,4.6-5.2,7-7.9c0.4,1.3,0.6,2.6,1.1,3.8c1.2,3.1,2.6,6.2,3.9,9.3s2.4,6.4,1.5,9.9c-0.6,2-1.3,4-2.2,5.9
	c1.7-0.5,3.4-0.9,5.1-1.2c8.4-1.1,14,5.3,11.7,13.4c-1.4,5.6-6,9.8-11.6,11c-1.1,0.2-2.2,0.2-3.3,0.2c1.9,5.3-2,10.3-6.3,12.1
	c-1.9,0.9-4,1.2-6.1,0.8c-0.6-0.2-1.2,0.1-1.4,0.7c-3,5.3-7.3,9.7-12.6,12.7c-0.5,0.4-1.3,0.3-1.7-0.2c-3.1-2.6-5.1-6.4-5.6-10.4
	c-0.1-0.7-0.2-1.3-0.2-2.2h-1.4c-13,0-26.1,0-39.1,0c-1.2,0-2.4,0-3.6-0.1l0,0V80l0,0l44.7-0.4c0.2,1.6,0.3,3,0.6,4.4
	c0.6,3.1,2.2,6,4.6,8.1c0.5,0.6,1.3,0.7,1.9,0.2c5.3-3.1,9.7-7.7,12.5-13.2c1.7,0.1,3.3,0.1,5,0c4.4-0.7,7.9-4.3,8.5-8.8
	c0.2-1.5-0.1-2.5-1.4-4.4c0.6,0.1,1.1,0.2,1.7,0.2c7,0.9,13.8-5.7,14.6-12.2c0.7-6.3-2.9-10-7-10.8c-2.2-0.4-4.4-0.3-6.5,0.3
	c-1.3,0.4-2.5,1-3.8,1.4l-0.9,0.3l-0.2-0.3c0.2-0.3,0.4-0.7,0.6-1c2-2.8,3.4-5.8,3.1-9.4c-0.1-1.8-0.5-3.5-1.2-5.1
	c-1.7-4.4-3.6-8.7-5.4-13.1c-0.4,0.4-0.8,0.9-1.3,1.4c-2.7,2.9-5.3,5.9-8.1,8.6c-3.9,3.7-9,5-14.1,6.1c-5.3,1-10.7,1.5-16.1,1.5
	c-7.6,0-15.2,0-22.8,0c-3.3,0-6.6-0.2-9.9-0.2l0,0L120,33.5L120,33.5z"/>
<path class="st3" d="M116.9,69.1c2.7-1.5,5.7-2.3,8.7-2.3c7.2-0.2,14.4-0.1,21.7-0.2c0.4,0,0.9,0,1.3,0c-0.7-1.4-1.3-2.8-2-4.1
	c-0.1-0.3-0.7-0.3-1.1-0.4c-2.4-0.2-4.9-0.3-7.4-0.7c-0.8-0.2-1.7-0.6-2.4-1h13.8c1.4,4.6,4.5,6.5,9,6.3c-0.8,1.9-2.2,2.3-4.1,2.2
	c-11.3-0.1-22.6,0-33.8,0C119.3,69.1,118.1,69.1,116.9,69.1z"/>
<path class="st5" d="M116.9,69.1c1.2,0,2.4,0,3.6,0c11.3,0,22.6,0,33.8,0c1.9,0,3.3-0.3,4.1-2.2c-4.5,0.2-7.6-1.7-9-6.3h-13.7
	c1.1-0.3,2.2-0.5,3.3-0.6c3.4-0.1,6.9,0,10.3,0c0.4,0,0.8,0.3,1,0.7c1.2,3.7,3.5,5.5,7.4,5.5h2.6c-1.1,1.3-2,2.4-3,3.5
	c-0.2,0.2-0.6,0.1-0.9,0.1c-12.3,0-24.5,0-36.8,0c-0.9-0.1-1.8-0.3-2.7-0.5L116.9,69.1z"/>
<path class="st6" d="M155.8,42.6l-2.6,1.9c-0.4-0.1-0.8-0.2-1.2-0.2c-5.3,0-10.5,0-15.8,0c-2.8,0.1-5.6-0.6-8.1-1.9
	c1.2,0.1,2.5,0.2,3.7,0.2L155.8,42.6z"/>
<path class="st7" d="M137.1,51.1c0.3,0.1,0.5,0.1,0.8,0.1c4.2-0.1,8.4-0.2,12.6-0.2c0.8,0.1,1.6-0.3,2-1c3.1-4.2,7.1-7.1,12.3-7.7
	c6.6-0.8,11.2,2.2,13.2,8.7c0.4,1.4,0.6,2.9,0.7,4.3c-0.6-1.7-1-3.4-1.7-5c-1.7-4.3-4.7-7-9.4-7.3c-3.6-0.3-7.2,0.8-10,3
	c-1.8,1.5-3.4,3.1-4.9,4.9c-0.4,0.5-1,0.9-1.7,0.8c-4.6,0-9.2,0-13.8-0.1l0,0L137.1,51.1L137.1,51.1z"/>
<path class="st8" d="M155.8,42.6h-24c-1.2,0-2.5-0.1-3.7-0.2l-0.1-0.3c4.2-0.1,8.4-0.3,12.7-0.3c5-0.1,9.9,0,14.9,0h1.1l0.1,0.2
	L155.8,42.6z"/>
<path class="st1" d="M137.1,51.1l0.2,0.6L137.1,51.1z"/>
<path class="st1" d="M120,33.5v0.3l-0.4-0.1L120,33.5z"/>
<path class="st1" d="M121,80L121,80z"/>
<path class="st9" d="M168,65.3l-4-0.6c1.1-1.1,2.1-2.3,3-3.6c0.6-1.3,1.2-2.7,1.6-4.1l-0.3-0.2c-0.8,0.5-1.7,1-2.6,1.5
	c-0.8,0.4-1.6,0.6-2.5,0.6c-0.7-0.2-1.3-0.6-1.6-1.3c-0.2-0.3,0.3-1.2,0.7-1.5c1-1,2.4-0.9,3.6-0.7c2.3,0.3,4.4,1.8,5.4,3.9
	c0.3,0.6,0.2,0.9-0.4,1.2C169.2,61.4,168,63.2,168,65.3z M169.2,57.3c-0.7,2.7-1.6,5-3.7,6.7l1.9,0.3c0.4-2.1,1.8-3.8,3.6-4.7
	L169.2,57.3z M167.5,56.4c-1.8-0.6-3.3-0.8-4.7,0.1c-0.2,0.2-0.5,0.6-0.5,0.8c0.1,0.4,0.4,0.6,0.8,0.7c0.6,0.1,1.3,0,1.9-0.2
	C165.9,57.5,166.7,57,167.5,56.4L167.5,56.4z"/>
<path class="st10" d="M194.6,56.5c-0.7,3-1.7,5.8,0.8,8.2l-4.8,0.6c1.1-3,1-3.8-0.9-5.3c2.7-2.8,5.8-4.9,9.9-4.6
	c0.7,0.1,1.4,0.6,1.7,1.3c0.1,0.5-0.5,1.3-1.1,1.8c-1.1,0.8-2.5,0.7-3.5-0.2C196,57.7,195.4,57.2,194.6,56.5z M197.8,56l-2.1,0.6
	l2.4,1.7h0.9l1.8-1.3c0,0,0.1,0,0.1-0.1c0,0,0-0.1-0.1-0.1l-1.1-0.8l-0.8-0.2l0,0L197.8,56z M193.5,58.1l-0.3-0.3l-2.6,2
	c1.6,1.3,1.5,2.9,1.2,4.5l2-0.3C192.8,62,193.1,60.1,193.5,58.1z"/>
<path class="st11" d="M168.2,69.1c-0.6,0.3-1.2,0.6-1.9,0.8c-0.2,0.1-0.6-0.2-0.9-0.4c0.2-0.3,0.4-0.8,0.6-0.9
	c0.7-0.1,1.4-0.1,2.1,0L168.2,69.1z"/>
<path class="st12" d="M188.5,68.7c0.6-0.1,1.3-0.1,1.9-0.1c0.3,0,0.4,0.5,0.7,0.8c-0.3,0.2-0.7,0.5-0.9,0.4
	c-0.6-0.2-1.2-0.4-1.8-0.7L188.5,68.7z"/>
<path class="st13" d="M169.1,57.3l1.8,2.3c-1.9,0.9-3.2,2.7-3.6,4.7l-1.9-0.4C167.5,62.3,168.4,60,169.1,57.3z"/>
<path class="st14" d="M167.5,56.5c-0.8,0.5-1.6,1-2.5,1.5c-0.6,0.2-1.2,0.3-1.9,0.2c-0.4-0.1-0.7-0.4-0.8-0.7
	c-0.1-0.2,0.2-0.7,0.5-0.8C164.2,55.6,165.7,55.9,167.5,56.5z"/>
<path class="st15" d="M193.5,58.1c-0.4,2-0.8,3.9,0.4,5.9l-2,0.3c0.2-1.6,0.4-3.2-1.2-4.5l2.6-2L193.5,58.1z"/>
<path class="st16" d="M198.8,55.8L198.8,55.8l0.8,0.2l1.1,0.8c0,0.1,0,0.1,0,0.2l-1.8,1.3h-0.9l-2.4-1.7l2.1-0.6L198.8,55.8z"/>
<path class="st17" d="M198,58.2h0.9H198z"/>
<path class="st17" d="M198.8,55.8l-1.1,0.2L198.8,55.8z"/>
<path class="st17" d="M199.7,56l-0.8-0.2L199.7,56z"/>
<path class="st17" d="M200.8,57c0-0.1,0-0.1,0-0.2C200.8,56.8,200.8,56.9,200.8,57C200.8,56.9,200.8,57,200.8,57z"/>
<text transform="matrix(1.14 0 0 1 205.8101 37.4102)" class="st18 st19 st20">TM</text>
<g>
	<g>
		<defs>
			<rect id="SVGID_1_" x="5.2" y="3.4" width="90.8" height="90.8"/>
		</defs>
		<clipPath id="SVGID_2_">
			<use xlink:href="#SVGID_1_"  style="overflow:visible;"/>
		</clipPath>
		<g class="st21">
			<defs>
				<rect id="SVGID_3_" x="5.2" y="3.4" width="90.8" height="90.8"/>
			</defs>
			<clipPath id="SVGID_4_">
				<use xlink:href="#SVGID_3_"  style="overflow:visible;"/>
			</clipPath>
			<path class="st22" d="M76.8,60.6c-0.3,0.5-0.6,1.1-1,1.6c-2.6,4.1-6.4,8.2-11.1,12.2c-4.3,3.6-8.7,6.5-11.5,8.2
				c-1,0.6-1.9,1.1-2.7,1.6c-0.8-0.4-1.7-0.9-2.7-1.6c-2.9-1.7-7.2-4.6-11.5-8.2c-2.4-2-4.6-4.1-6.5-6.2"/>
		</g>
		<g class="st21">
			<defs>
				<path id="SVGID_5_" d="M33.5,13.9c-4,0.6-7.9,1.3-11.6,2.2v35.5c0,4.5,1.5,9.1,4.5,13.7c1.2,1.9,2.7,3.8,4.5,5.8l44.8-7.3
					c2.3-4.1,3.5-8.2,3.5-12.2V16.2c-3.7-0.9-7.6-1.7-11.6-2.2c-5.5-0.8-11.3-1.2-17-1.2S39,13.2,33.5,13.9"/>
			</defs>
			<clipPath id="SVGID_6_">
				<use xlink:href="#SVGID_5_"  style="overflow:visible;"/>
			</clipPath>
			
				<radialGradient id="SVGID_7_" cx="-1.5182" cy="648.0724" r="8.403549e-02" gradientTransform="matrix(322.0132 0 0 -400.9979 539.3906 259917.6562)" gradientUnits="userSpaceOnUse">
				<stop  offset="0" style="stop-color:#F4EA2B"/>
				<stop  offset="0.5784" style="stop-color:#F4E829"/>
				<stop  offset="0.7888" style="stop-color:#F5E222"/>
				<stop  offset="0.9386" style="stop-color:#F7D617"/>
				<stop  offset="1" style="stop-color:#F8CF0F"/>
			</radialGradient>
			<rect x="21.9" y="12.8" class="st23" width="57.2" height="58.4"/>
		</g>
		<g class="st21">
			<defs>
				<rect id="SVGID_8_" x="5.2" y="3.4" width="90.8" height="90.8"/>
			</defs>
			<clipPath id="SVGID_9_">
				<use xlink:href="#SVGID_8_"  style="overflow:visible;"/>
			</clipPath>
			<path class="st24" d="M80.7,14.3c-4.6-1.3-9.4-2.4-14.4-3.1c-5.1-0.7-10.4-1.1-15.8-1.1c-5.3,0-10.7,0.4-15.8,1.1
				c-5,0.7-9.8,1.7-14.4,3.1l-0.4,0.1v35.7c0,5,1.6,10.1,4.8,15.1c2.5,3.9,6,7.8,10.4,11.6c3.9,3.3,7.8,5.9,10.4,7.4
				c2.8,1.7,4.7,2.6,4.7,2.7l0.3,0.1l0.3-0.1c0.1,0,1.9-0.9,4.7-2.7c2.6-1.6,6.5-4.1,10.4-7.4c4.4-3.7,7.9-7.6,10.4-11.6
				c3.2-5,4.8-10,4.8-15.1V14.4L80.7,14.3z M78.5,50.1c0,4.5-1.5,9.1-4.4,13.6c-2.4,3.7-5.7,7.4-9.9,11c-3.8,3.2-7.6,5.7-10.1,7.2
				c-1.6,1-2.8,1.7-3.6,2.1c-0.8-0.4-2-1.1-3.6-2.1c-2.5-1.5-6.3-4-10.1-7.2c-4.2-3.6-7.5-7.2-9.9-11c-2.9-4.5-4.4-9.1-4.4-13.6
				V16.4c4-1.1,8.2-2,12.5-2.6c5-0.7,10.2-1.1,15.4-1.1c5.2,0,10.4,0.4,15.4,1.1c4.3,0.6,8.5,1.5,12.5,2.6V50.1z"/>
			<path class="st25" d="M50.5,90.9l-0.6-0.3c-0.1,0-2.1-1-5.2-2.9c-2.8-1.7-7.1-4.5-11.3-8.1c-4.8-4.1-8.7-8.3-11.4-12.6
				c-3.5-5.5-5.3-11.1-5.3-16.6V11.5l1.1-0.3c5-1.5,10.2-2.6,15.7-3.3c5.6-0.8,11.4-1.2,17.2-1.2c5.8,0,11.6,0.4,17.2,1.2
				c5.4,0.8,10.7,1.9,15.7,3.3v0l1.1,0.3v38.9c0,5.6-1.8,11.2-5.3,16.6c-2.8,4.3-6.6,8.5-11.4,12.6c-4.3,3.6-8.5,6.4-11.3,8.1
				c-3.1,1.9-5.1,2.8-5.2,2.9L50.5,90.9z M18.2,12.7v37.7c0,5.2,1.7,10.5,5,15.7c2.7,4.2,6.4,8.3,11.1,12.2
				c4.2,3.5,8.4,6.2,11.1,7.9c2.7,1.6,4.6,2.6,5,2.8c0.4-0.2,2.3-1.1,5-2.8c2.8-1.7,6.9-4.4,11.1-7.9c4.7-3.9,8.4-8.1,11.1-12.2
				c3.3-5.2,5-10.5,5-15.7V12.7c-4.9-1.4-10-2.5-15.3-3.2c-5.5-0.8-11.2-1.2-16.9-1.2c-5.7,0-11.4,0.4-16.9,1.2
				C28.2,10.2,23.1,11.3,18.2,12.7"/>
			<path class="st26" d="M83.1,12C78.2,10.5,73,9.4,67.6,8.7c-5.5-0.8-11.3-1.2-17-1.2c-5.8,0-11.5,0.4-17,1.2
				c-5.4,0.8-10.6,1.9-15.6,3.3l-0.5,0.1v38.3c0,5.4,1.7,10.8,5.2,16.2c2.7,4.2,6.5,8.4,11.3,12.4c4.2,3.5,8.4,6.3,11.2,8
				c3,1.8,5,2.8,5.1,2.8l0.3,0.1l0.3-0.1c0.1,0,2.1-1,5.1-2.8c2.8-1.7,7-4.4,11.2-8c4.8-4,8.5-8.2,11.3-12.4
				c3.4-5.3,5.2-10.8,5.2-16.2V12.1L83.1,12z M80.7,50.4c0,4.8-1.6,9.8-4.7,14.6c-2.6,4-6.2,8-10.7,11.8c-4.1,3.4-8.2,6.1-10.9,7.7
				c-1.7,1-3.1,1.8-3.9,2.2c-0.8-0.4-2.2-1.2-3.9-2.2c-2.7-1.6-6.8-4.3-10.9-7.7C31.2,73,27.6,69.1,25,65.1
				c-3.1-4.9-4.7-9.8-4.7-14.6V14.3c4.3-1.2,8.9-2.1,13.5-2.8c5.4-0.8,11-1.1,16.7-1.1c5.6,0,11.2,0.4,16.7,1.1
				c4.7,0.7,9.2,1.6,13.5,2.8V50.4z"/>
			<polygon class="st24" points="75.4,63.1 77.1,60 28.3,68.1 30.3,70.6 			"/>
			<polyline class="st26" points="77.5,62.8 76,65.5 76,65.5 30.9,73.1 30.9,73.1 29,70.8 29,70.8 77.5,62.8 			"/>
			<path class="st24" d="M35.7,25.3h32c-2.1-6-7.6-10.7-16.9-11C42.4,15,38.6,19.7,35.7,25.3"/>
			<path class="st24" d="M51.9,13.2c0-0.1-0.1-0.3-0.2-0.3H51l0.1-3.3l-0.6-0.8l-0.6,0.8l0.1,3.3h-0.7c-0.1,0-0.2,0.1-0.2,0.3
				c0,0.1,0.1,0.3,0.2,0.3v1.2h2.3v-1.2C51.8,13.4,51.9,13.3,51.9,13.2"/>
			<polyline class="st26" points="49.9,12.8 49.8,9.4 49.9,9.4 50.1,12.8 			"/>
			<polyline class="st26" points="51,12.8 51.1,9.4 51.3,9.4 51.1,12.8 			"/>
			<polygon class="st24" points="31.8,68.8 28.3,67.3 28.3,46.4 28.8,45.8 28.8,40.7 29.5,39.8 29.5,37.5 29.3,36.6 26.8,35.8 
				29.3,33.7 28.1,33.1 33.2,24.1 38.5,25.2 39.8,25.2 42.8,22.8 44.5,23.1 44.5,66.6 			"/>
			<polyline class="st26" points="75.6,40 75.6,45 75.6,45 76,45 76,48.1 77.3,48.5 77.3,50 76,50.7 76,63.1 44.2,68.6 44.2,45.9 
				43.3,45.1 43.3,43.6 43.3,43.6 43.8,43.7 43.8,39.9 43.3,38.7 44.5,38.9 44.5,38.9 44.5,28.8 43.8,28.7 43.8,25.9 43.5,24.6 
				42.7,22.8 49.2,23.9 60.4,20.1 70.9,27.1 70.4,27.5 76.3,28.7 73.6,30.9 73.6,33.5 74.8,34.6 74.8,38.7 75.6,40 			"/>
			<polygon class="st26" points="75.6,45 75.6,44.5 76,45 			"/>
			<polyline class="st26" points="37.9,43.1 37.2,42.4 37.9,41.8 37.9,33.4 37.9,33.4 36.4,32.5 38.2,30.8 38.9,31 38.9,28.3 
				38.9,28.3 30.5,34.6 30.5,35.9 30.5,35.9 29.3,36.6 26.7,35.8 26.7,35.8 29.2,33.7 28.1,33.1 33.2,24 38.6,25.2 39.8,25.2 
				39.8,25.2 42.7,22.8 43.5,24.6 43.8,25.8 40.6,28.5 40.6,31.4 40.6,31.4 40.2,31.3 40.2,32.1 40.2,41 40.2,41 43.3,38.7 
				43.8,39.9 40.2,42.4 40.2,45.7 40.2,45.7 43.3,43.6 44.2,43.8 44.2,45.9 40,48.4 40.2,52.5 39.5,52.7 39.3,52.6 38.7,53.1 
				38.3,52.6 38.5,51.7 37.3,50.1 32.4,53.4 32.6,57.5 32,57.7 31.7,57.7 31.2,58.2 30.8,57.6 31.2,56.8 29.9,55.1 28.3,56.1 
				27.1,56 27.1,54.6 29.7,52.9 29.7,52.3 29.1,52.1 30.6,51 30.6,48.7 28.3,50.3 27.7,49.6 30.3,47.6 30,47.3 30.6,46.8 30.6,38.7 
				30.6,38.7 29,37.7 31.1,36.2 32.2,36.3 32.6,37.7 32.6,46.2 32.6,46.2 33,46.3 32.8,47.5 32.8,50.6 37.2,47.7 37.2,47 36.6,46.8 
				37.9,45.8 37.9,43.1 			"/>
			<polyline class="st24" points="29.7,33.5 38.7,26.7 34,25.6 34,25.6 29.7,33.5 			"/>
			<path class="st24" d="M56.7,59.7v9.3v-0.1l7.9-1.2v0v-6.5l0,0c-0.7-2.1-2-3.4-4.2-3.9l0.1,0c-2.2-0.2-3.3,1-3.8,2.2"/>
			<polyline class="st27" points="53,40.7 52.8,40.9 52.8,40.9 52.8,41.2 52.8,41.2 65.3,43.2 65.3,43.2 65.3,42.8 65.3,42.8 
				52.9,40.8 			"/>
			<polyline class="st28" points="67.7,49.4 67.4,48.8 67.4,48.8 67.4,48.8 67.4,48.8 67.7,49.4 			"/>
			<line class="st24" x1="69.6" y1="28.2" x2="69.6" y2="28.2"/>
			<polygon class="st25" points="44.2,46.3 76,50.7 77.3,50 77.3,48.3 43.3,43.6 43.3,45.1 			"/>
			<polyline class="st25" points="49.2,23.9 60.4,20.1 70.9,27.1 69.6,28.2 68.7,29.3 68.7,30 68.7,30 50.1,26.9 50.1,26.9 
				49.8,25.6 49.2,23.9 			"/>
			<polyline class="st25" points="76,45 76.8,44 43.3,38.7 43.7,39.9 76,45 			"/>
			<polygon class="st25" points="76.3,28.7 70.4,27.5 69.6,28.2 68.7,29.3 68.7,30 73.6,30.9 			"/>
			<polyline class="st25" points="49.2,23.9 42.7,22.8 43.5,24.6 43.7,25.8 51.2,27 51.2,26.3 50.9,24.9 50.3,23.5 49.2,23.9 			"/>
			<polygon class="st26" points="60.1,21.9 50.9,25 69.4,28.1 			"/>
			<polygon class="st26" points="52.6,40.7 67.2,43.1 67.2,40 52.6,37.7 			"/>
			<polyline class="st25" points="52.6,32.8 67.2,35.2 67.2,35.6 52.6,33.2 52.6,32.8 			"/>
			<path class="st24" d="M55,38.8l0-3.2c-0.2,0.1-0.4,0.1-0.7,0.1l0-0.4c0.3,0,0.7-0.2,0.8-0.8l0.3,0l0,4.4c0,0.2,0.1,0.2,0.2,0.3
				l0.4,0l0,0.5l-1.6-0.2l0-0.5l0.4,0C55,39.1,55,39,55,38.8"/>
			<path class="st24" d="M57.1,37.4c-0.3-0.3-0.5-0.7-0.5-1.2c0.1-0.9,0.8-1.3,1.5-1.2c0.6,0.1,1.3,0.6,1.3,1.4
				c0,0.6-0.3,0.9-0.7,1.1c0.5,0.3,0.7,0.7,0.7,1.4c-0.1,1-0.8,1.3-1.6,1.2c-0.7-0.1-1.4-0.6-1.4-1.6C56.4,38,56.7,37.6,57.1,37.4
				 M57.8,39.6c0.5,0.1,0.9-0.1,0.9-0.7c0-0.3-0.1-0.6-0.4-0.7l-0.9-0.5c-0.3,0.1-0.5,0.5-0.5,0.9C56.9,39.2,57.3,39.5,57.8,39.6
				 M57.6,36.9c0.5,0.3,0.6,0.4,0.6,0.4c0.3-0.1,0.5-0.5,0.6-0.9c0-0.6-0.3-0.9-0.7-0.9c-0.4-0.1-0.8,0.1-0.8,0.7
				C57.2,36.5,57.4,36.7,57.6,36.9"/>
			<path class="st24" d="M61.1,39.8l0-0.7l-1.6-0.2l0-0.5l1.8-2.9l0.5,0.1l-0.2,3.1l0.7,0.1l0,0.5l-0.7-0.1l0,0.7
				c0,0.2,0.1,0.3,0.2,0.3l0.4,0.1l0,0.5l-1.7-0.2l0-0.5l0.4,0.1C61,40,61.1,39.9,61.1,39.8 M60,38.4l1.1,0.2l0.1-2.2L60,38.4z"/>
			<polygon class="st24" points="50.1,26.9 50.1,29.3 49.6,29.6 50.6,31.4 50.6,39.5 50.4,39.6 50.9,40.8 50.9,44.6 51.3,45.2 
				51.3,46.3 51.6,46.4 51.4,46.9 51.4,51.1 52.1,50.7 51.9,50 52.7,46.7 52.1,45.9 52.1,44.8 51.9,44.2 51.9,40.5 51.3,39.5 
				51.9,39.5 51.9,30.7 50.9,29 51.2,29 51.2,26.3 50.9,24.9 50.3,23.5 49.2,23.9 49.8,25.6 			"/>
			<polygon class="st24" points="51.3,46.3 51.4,46.9 51.6,46.4 			"/>
			
				<rect x="49.1" y="23.6" transform="matrix(0.9485 -0.3169 0.3169 0.9485 -4.9368 16.9856)" class="st24" width="1.2" height="0"/>
			<polygon class="st24" points="53.5,50.9 52.8,51.4 52.8,45.9 53.7,46.1 54.1,46.9 53.3,50.2 			"/>
			<polyline class="st25" points="54.7,46.3 54.7,45.2 55.2,44.6 53.9,44.4 53.9,40.8 54.9,39.8 53.9,39.7 53.9,31.3 55,29.8 
				50.9,29 51.9,30.7 51.9,39.5 51.3,39.5 51.9,40.5 51.9,44.2 52.1,44.8 52.1,45.9 52.7,46.7 51.9,50 52.1,50.7 51.4,51.1 
				52.1,51.1 52.7,50.7 52.4,50 53.3,46.8 52.9,46 53.7,46.2 54.1,46.9 54.1,46.9 53.3,50.2 53.5,50.9 52.8,51.4 53.5,51.4 
				54.1,50.9 53.8,50.2 54.7,47 54.3,46.2 54.7,46.3 			"/>
			<polyline class="st24" points="67,46.5 67.4,46.2 67.7,46.9 67.7,48 68.1,48.8 67.3,52 67.6,52.7 66.9,53.2 66.9,48.9 67.1,48.5 
				67,47.3 66.9,46.8 66.2,46.7 66.2,43.1 65.7,42.1 66.2,41.8 66.2,33.6 65.5,32.2 66.2,31.6 67,33.3 67,41.8 66.6,41.8 67,42.7 
				67,46.5 			"/>
			<polygon class="st24" points="68.7,52.2 69,52.9 68.3,53.4 68.3,48 69,48.1 69.5,49 			"/>
			<polyline class="st25" points="66.9,53.2 67.6,52.7 67.3,52 68.1,48.8 67.7,48 67.7,46.9 67.4,46.2 67,46.5 67,46.5 67,42.7 
				67,42.7 66.6,41.8 67,41.8 67,33.3 66.2,31.6 70.3,32.1 68.7,33.5 68.7,42 68.7,42 69.7,42.2 68.7,43.1 68.7,46.6 70.6,46.9 
				70.1,47.2 70.1,48.4 69.8,48.4 70.1,49.1 69.3,52.3 69.5,52.9 69,53.4 68.3,53.4 69,52.9 68.7,52.2 69.5,49 69.1,48.2 68.4,48.1 
				68.7,48.8 67.9,52 68.1,52.7 67.6,53.2 66.9,53.2 			"/>
			<path class="st24" d="M63.6,36.7l-0.1,1.2c0.3-0.3,0.6-0.4,1-0.3c1,0.1,1.3,1,1.2,1.9c-0.1,1.2-0.8,1.8-1.7,1.7
				c-0.6-0.1-1.3-0.5-1.2-1.3c0-0.3,0.2-0.7,0.5-0.6c0.2,0,0.4,0.3,0.4,0.6c0,0.3-0.2,0.4-0.4,0.4c0.1,0.3,0.4,0.4,0.7,0.4
				c0.7,0.1,1-0.4,1-1.2c0-0.7-0.2-1.3-0.8-1.3c-0.3,0-0.5,0.1-0.7,0.4L63,38.4l0.2-2.6"/>
			<polyline class="st24" points="63.2,35.9 65.7,36.3 65.6,37 63.6,36.7 			"/>
		</g>
	</g>
</g>
</svg>
