<svg xmlns="http://www.w3.org/2000/svg" xmlns:xlink="http://www.w3.org/1999/xlink" viewBox="0 0 707.62 648.11"><defs><style>.cls-1,.cls-23,.cls-25,.cls-26,.cls-30{fill:none;}.cls-2{fill:#fff;}.cls-3{fill:#17468f;}.cls-4{fill:#d1d3d4;}.cls-5{fill:#d2d3d4;}.cls-6{fill:#919396;}.cls-7{fill:#fae965;}.cls-8{fill:#231f20;}.cls-9{fill:#5a5b5d;}.cls-10{fill:#cd332d;}.cls-11{fill:#cc3732;}.cls-12{fill:#00b386;}.cls-13{fill:#32669a;}.cls-14{fill:#ca2128;}.cls-15{fill:#3b5999;}.cls-16{fill:#017bb6;}.cls-17{fill:#2aa8e0;}.cls-18{fill:#32506d;}.cls-19{fill:#c7c7c7;}.cls-20{fill:#ffec70;}.cls-21{fill:#73a03c;}.cls-22{fill:#8c8c8c;}.cls-23{stroke:#e6e7e8;stroke-width:0.5px;}.cls-23,.cls-25,.cls-26,.cls-30{stroke-miterlimit:10;}.cls-24{fill:#666;}.cls-25{stroke:#c7c7c7;}.cls-25,.cls-26{stroke-width:3.75px;}.cls-26{stroke:#17468f;}.cls-27{fill:#777ca0;}.cls-28{fill:#d9cc5a;}.cls-29{fill:#978f3e;}.cls-30{stroke:#fff;stroke-width:1.5px;}.cls-31{clip-path:url(#clip-path);}.cls-32{fill:#839bcb;}.cls-33{fill:#065faa;}.cls-34{fill:#0a61aa;}.cls-35{fill:#efde60;}.cls-36{fill:#e4d662;}.cls-37{fill:#7f99cc;}.cls-38{fill:#efdd60;}.cls-39{fill:#f2e063;}.cls-40{fill:#f2e05f;}.cls-41{fill:#f4e15f;}.cls-42{fill:#f5e261;}.cls-43{fill:#f8e45d;}.cls-44{fill:#1363a6;}.cls-45{fill:#0c61a7;}.cls-46{fill:#1564a6;}.cls-47{fill:#0960a8;}.cls-48{fill:#f1df60;}.cls-49{isolation:isolate;font-size:2.36px;fill:#005cb5;font-family:MyriadPro-Regular, Myriad Pro;}.cls-50{clip-path:url(#clip-path-3);}.cls-51{fill:#0033a1;}.cls-52{fill:url(#radial-gradient);}.cls-53{fill:#9594d2;}.cls-54{fill:#e6e7f5;}.cls-55{fill:#c4c5e7;}</style><clipPath id="clip-path" transform="translate(0.02 0.01)"><line class="cls-1" x1="96" y1="3.4" x2="96" y2="94.2"/></clipPath><clipPath id="clip-path-3" transform="translate(0.02 0.01)"><line class="cls-1" x1="95.7" y1="3.4" x2="95.7" y2="94.2"/></clipPath><radialGradient id="radial-gradient" cx="51.11" cy="41.77" r="27.13" gradientTransform="translate(0 -10.24) scale(1 1.25)" gradientUnits="userSpaceOnUse"><stop offset="0" stop-color="#f4ea2b"/><stop offset="0.58" stop-color="#f4e829"/><stop offset="0.79" stop-color="#f5e222"/><stop offset="0.94" stop-color="#f7d617"/><stop offset="1" stop-color="#f8cf0f"/></radialGradient></defs><g id="Layer_1" data-name="Layer 1"><g id="Layer_1-2" data-name="Layer 1"><g id="Layer_1-2-2" data-name="Layer 1-2"><g id="Layer_2" data-name="Layer 2"><path class="cls-2" d="M332.8,306.3a3.09,3.09,0,0,0-4.2,0,3.1,3.1,0,0,0-4.2.4,3,3,0,0,0,0,3.8l3.8,3.8a.48.48,0,0,0,.7,0h0l3.8-3.8A2.9,2.9,0,0,0,332.8,306.3Z" transform="translate(0.02 0.01)"/><path class="cls-2" d="M339.6,321.4,336,318a4.3,4.3,0,0,0-3.1-1.2h-7a1.37,1.37,0,0,0-1.4,1.4,1.35,1.35,0,0,0,1.3,1.4H331a.79.79,0,0,1,.8.8h0a.86.86,0,0,1-.8.8h-8.7a.76.76,0,0,1-.5-.2l-3.7-2.9a1.35,1.35,0,1,0-1.7,2.1l.1.1,5.6,4.4a1.14,1.14,0,0,0,.8.3H333a1.42,1.42,0,0,1,.6.2l4.4,4.2a1.34,1.34,0,0,0,2,0h0a1.28,1.28,0,0,0,.4-1v-4.8A2.65,2.65,0,0,0,339.6,321.4Z" transform="translate(0.02 0.01)"/></g><g id="Layer_1-3" data-name="Layer 1-3"><polygon class="cls-3" points="363.13 2.71 362.43 2.01 358.73 5.61 355.02 2.01 354.32 2.71 358.73 7.01 358.73 7.01 358.73 7.01 363.13 2.71"/><polygon class="cls-3" points="356.93 54.71 356.23 55.41 359.82 59.11 356.23 62.91 356.93 63.51 361.23 59.21 361.23 59.11 361.23 59.11 356.93 54.71"/><polygon points="363.13 21.81 362.43 21.11 358.73 24.71 355.02 21.11 354.32 21.81 358.73 26.11 358.73 26.11 358.73 26.11 363.13 21.81"/><polygon class="cls-4" points="363.13 38.41 362.43 37.71 358.73 41.31 355.02 37.71 354.32 38.41 358.73 42.71 358.73 42.71 358.73 42.71 363.13 38.41"/><polyline class="cls-5" points="583.23 22.71 584.33 22.71 592.73 5.01 591.52 5.01"/><polygon class="cls-6" points="618.63 3.61 609.42 35.91 610.02 35.91 619.13 3.61 618.63 3.61"/><polygon class="cls-2" points="664.52 0.01 634.52 111.01 635.63 111.01 665.63 0.01 664.52 0.01"/><path class="cls-2" d="M601.5,187.9a11.2,11.2,0,1,1,11.2,11.2,11.18,11.18,0,0,1-11.2-11.2Zm2.5,0a8.7,8.7,0,1,0,8.7-8.7A8.71,8.71,0,0,0,604,187.9Z" transform="translate(0.02 0.01)"/><rect class="cls-2" x="595.69" y="197.6" width="11.2" height="2.8" transform="translate(35.18 483) rotate(-44.95)"/><path d="M298.9,21.1a10.55,10.55,0,1,1,10.5-10.6h0a10.46,10.46,0,0,1-10.5,10.6Zm0-19.2a8.66,8.66,0,0,0-8.6,8.6,8.6,8.6,0,0,0,17.2,0,8.47,8.47,0,0,0-8.3-8.6h-.3Z" transform="translate(0.02 0.01)"/><rect x="295.13" y="9.61" width="7.7" height="1.9"/><rect x="298.02" y="6.71" width="1.9" height="7.7"/><path class="cls-2" d="M123.5,580.3a14.1,14.1,0,1,1,14.1-14.1h0a14,14,0,0,1-14.1,14.1Zm0-25.7A11.55,11.55,0,1,0,135,566.2h0A11.65,11.65,0,0,0,123.5,554.6Z" transform="translate(0.02 0.01)"/><rect class="cls-2" x="118.33" y="564.91" width="10.3" height="2.6"/><rect class="cls-2" x="122.22" y="561.11" width="2.6" height="10.3"/><path class="cls-2" d="M298.9,99.7a10.55,10.55,0,1,1,10.5-10.6h0a10.46,10.46,0,0,1-10.2,10.6h-.3Zm0-19.1a8.6,8.6,0,1,0,8.6,8.6,8.47,8.47,0,0,0-8.3-8.6h-.3Z" transform="translate(0.02 0.01)"/><rect class="cls-2" x="295.13" y="88.21" width="7.7" height="1.9"/><rect class="cls-2" x="298.02" y="85.41" width="1.9" height="7.7"/><rect class="cls-7" x="410.02" y="116.81" width="3.6" height="16.4"/><path class="cls-8" d="M291.5,43.2a10.54,10.54,0,1,1,14.9,0h0A10.56,10.56,0,0,1,291.5,43.2ZM305,29.6a8.63,8.63,0,1,0,0,12.2h0a8.57,8.57,0,0,0,0-12.2Z" transform="translate(0.02 0.01)"/><rect class="cls-8" x="295.13" y="34.81" width="7.7" height="1.9"/><path class="cls-7" d="M291.5,69.4a10.54,10.54,0,1,1,14.9,0h0A10.56,10.56,0,0,1,291.5,69.4ZM305,55.8A8.63,8.63,0,1,0,305,68h0a8.57,8.57,0,0,0,0-12.2Z" transform="translate(0.02 0.01)"/><rect class="cls-7" x="295.13" y="61.01" width="7.7" height="1.9"/><path class="cls-3" d="M325.8,21.1a10.55,10.55,0,1,1,10.5-10.6h0A10.46,10.46,0,0,1,325.8,21.1Zm0-19.2a8.66,8.66,0,0,0-8.6,8.6,8.6,8.6,0,1,0,8.6-8.6Z" transform="translate(0.02 0.01)"/><rect class="cls-3" x="321.92" y="9.61" width="7.7" height="1.9"/><rect class="cls-3" x="324.82" y="6.71" width="1.9" height="7.7"/><path class="cls-3" d="M318.3,43.2a10.54,10.54,0,1,1,14.9,0h0A10.56,10.56,0,0,1,318.3,43.2Zm13.6-13.6a8.63,8.63,0,1,0,0,12.2h0A8.75,8.75,0,0,0,331.9,29.6Z" transform="translate(0.02 0.01)"/><rect class="cls-3" x="321.92" y="34.81" width="7.7" height="1.9"/><rect class="cls-3" x="15.2" y="494.57" width="2.9" height="10.2" transform="translate(-348.46 158.19) rotate(-45.01)"/><rect class="cls-3" x="11.62" y="503.38" width="10.2" height="2.9" transform="translate(-352.04 159.69) rotate(-45)"/><path class="cls-3" d="M4.4,576a15.13,15.13,0,1,1,21.4,0,15.15,15.15,0,0,1-21.4,0Zm19.5-19.5a12.37,12.37,0,1,0,0,17.5,12.25,12.25,0,0,0,0-17.5Z" transform="translate(0.02 0.01)"/><path class="cls-3" d="M5.5,643.6a15.56,15.56,0,1,1,22,0h0A15.69,15.69,0,0,1,5.5,643.6Zm20-20a12.73,12.73,0,1,0,0,18h0a12.67,12.67,0,0,0,0-18Z" transform="translate(0.02 0.01)"/><rect class="cls-3" x="16.6" y="625.17" width="2.8" height="9.8" transform="translate(-440.29 197.35) rotate(-45.01)"/><rect class="cls-3" x="12.9" y="633.69" width="9.9" height="2.8" transform="translate(-444.07 198.91) rotate(-45.03)"/><path class="cls-2" d="M53.9,643.6a15.56,15.56,0,1,1,22,0h0A15.69,15.69,0,0,1,53.9,643.6Zm20-20a12.73,12.73,0,1,0,0,18h0A12.86,12.86,0,0,0,73.9,623.6Z" transform="translate(0.02 0.01)"/><rect class="cls-2" x="64.7" y="625.1" width="2.8" height="9.9" transform="translate(-426.07 231.22) rotate(-44.99)"/><rect class="cls-2" x="61.3" y="633.6" width="9.8" height="2.8" transform="translate(-429.82 233.09) rotate(-45.03)"/><polygon class="cls-9" points="263.52 23.21 263.52 19.01 267.63 19.01 267.63 23.21 271.93 23.21 271.93 17.81 265.63 12.11 259.43 17.91 259.43 23.21 263.52 23.21"/><polygon class="cls-9" points="272.73 17.21 265.63 10.71 258.52 17.21 257.13 15.61 265.63 7.81 274.13 15.61 272.73 17.21"/><rect class="cls-10" x="138.33" y="236.51" width="25.5" height="25.5"/><path class="cls-2" d="M149.3,239h-1.2l-.8,3-.8-3h-1.2l.7,2.1a21.72,21.72,0,0,1,.7,2.4v3.1h1.1v-3.1Zm3.1,5.8v-2a3.19,3.19,0,0,0-.3-1.4,1.58,1.58,0,0,0-2.2-.3l-.3.3a1.74,1.74,0,0,0-.3,1.4v2a3.19,3.19,0,0,0,.3,1.4,1.58,1.58,0,0,0,2.2.3l.3-.3a3.19,3.19,0,0,0,.3-1.4Zm-1,.2c0,.5-.2.8-.5.8s-.5-.3-.5-.8v-2.4c0-.5.2-.8.5-.8s.5.3.5.8Zm4.8,1.6v-5.7h-1v4.4c-.2.3-.4.5-.6.5s-.2-.1-.2-.2V241h-1v4.5a2.77,2.77,0,0,0,.1.9.57.57,0,0,0,.7.4h0a1.85,1.85,0,0,0,1.2-.7v.6l.8-.1Z" transform="translate(0.02 0.01)"/><path class="cls-2" d="M159.6,253.6a26.93,26.93,0,0,1-.3,4,2.12,2.12,0,0,1-1.8,1.7,45.63,45.63,0,0,1-6.4.2c-2.1,0-4.2,0-6.4-.2a2.12,2.12,0,0,1-1.8-1.7,26.82,26.82,0,0,1,0-8,2.12,2.12,0,0,1,1.8-1.7,45.63,45.63,0,0,1,6.4-.2c2.1,0,4.2,0,6.4.2a2.12,2.12,0,0,1,1.8,1.7A26.93,26.93,0,0,1,159.6,253.6Z" transform="translate(0.02 0.01)"/><path class="cls-10" d="M147.4,250.7v-1.1h-3.6v1.1H145v6.5h1.1v-6.5Zm2.1,6.6v-.6a1.85,1.85,0,0,1-1.2.7.67.67,0,0,1-.7-.4,2.2,2.2,0,0,1-.1-.8v-4.5h1v4.6c0,.2.1.2.2.2a1,1,0,0,0,.6-.5v-4.3h1v5.7h-.8Zm3.9-1.6c0,.5-.1.8-.4.8a.76.76,0,0,1-.5-.2v-3.5a.76.76,0,0,1,.5-.2c.3,0,.4.3.4.8v2.3Zm1-.1v-2.3a4.1,4.1,0,0,0-.1-1.1c-.1-.4-.4-.7-.8-.6a2.38,2.38,0,0,0-1.1.6v-2.5h-1v7.6h1v-.5a1.15,1.15,0,0,0,1.1.6.76.76,0,0,0,.8-.6,2.46,2.46,0,0,0,.1-1.2Zm2.8-1.8h-1v-.5c0-.5.2-.8.5-.8s.5.3.5.8Zm1,1.7v-.2h-1v.7c0,.2-.3.4-.5.4-.4,0-.5-.3-.5-.8v-1h2.1v-1.2a2.77,2.77,0,0,0-.3-1.3,1.46,1.46,0,0,0-2.1-.3h0l-.3.3a2.77,2.77,0,0,0-.3,1.3v2a2.77,2.77,0,0,0,.3,1.3,1.41,1.41,0,0,0,2.6-.6c.1,0,.1-.3,0-.6Z" transform="translate(0.02 0.01)"/><rect class="cls-11" x="276.73" y="236.51" width="25.5" height="25.5"/><path class="cls-2" d="M289,240.5a1,1,0,0,1,.5.4c.2.2.4.5.6.7a3.13,3.13,0,0,1,.5,1,5.85,5.85,0,0,1,.2,1.3,4.28,4.28,0,0,1-.6,2.2,4.35,4.35,0,0,1-.6.7,2.7,2.7,0,0,1-.8.7,1,1,0,0,0-.4.5.84.84,0,0,0-.2.7,1.85,1.85,0,0,0,.2.7c.1.1.2.3.4.4l.9.7a9.27,9.27,0,0,1,1.4,1.4,3.94,3.94,0,0,1,.6,2.1,4.22,4.22,0,0,1-1.6,3.3,7.16,7.16,0,0,1-4.9,1.5,6.4,6.4,0,0,1-4-1.1,3.13,3.13,0,0,1-1.3-2.5,4.19,4.19,0,0,1,.4-1.6,3.62,3.62,0,0,1,1.5-1.5,6.22,6.22,0,0,1,2.6-.9,16.35,16.35,0,0,1,2.2-.2,3.51,3.51,0,0,1-.5-.8,1.23,1.23,0,0,1-.2-1,1.27,1.27,0,0,1,.1-.6l.1-.4h-.8a3.7,3.7,0,0,1-3.1-1.3,3.86,3.86,0,0,1-1.1-2.7,4.42,4.42,0,0,1,1.6-3.4,4.77,4.77,0,0,1,2.2-1.2,8.2,8.2,0,0,1,2.2-.2h5.1l-1.6.9-1.6.2Zm1,14.6a2.72,2.72,0,0,0-.6-1.7,12,12,0,0,0-2.1-1.7h-1.6a9.36,9.36,0,0,0-1.6.4l-.5.2a1.79,1.79,0,0,0-.7.5c-.2.3-.4.5-.6.8a2.66,2.66,0,0,0-.3,1.2,2.75,2.75,0,0,0,1.2,2.2,6.2,6.2,0,0,0,3.2.9,4.3,4.3,0,0,0,2.7-.8A2.25,2.25,0,0,0,290,255.1Zm-3.5-7.4a2.84,2.84,0,0,0,1.7-.7,1.78,1.78,0,0,0,.4-1c0-.3.1-.6.1-.9a6.11,6.11,0,0,0-.8-3,2.94,2.94,0,0,0-1-1.2,3.36,3.36,0,0,0-1.4-.5,2.14,2.14,0,0,0-1.7.8,2.51,2.51,0,0,0-.5,1.9,6,6,0,0,0,.8,2.9,4,4,0,0,0,1,1.2,1.87,1.87,0,0,0,1.4.5Z" transform="translate(0.02 0.01)"/><polygon class="cls-2" points="299.13 242.41 296.43 242.41 296.43 239.71 295.13 239.71 295.13 242.41 292.43 242.41 292.43 243.61 295.13 243.61 295.13 246.31 296.43 246.31 296.43 243.61 299.13 243.61 299.13 242.41"/><rect class="cls-12" x="230.63" y="236.51" width="25.4" height="25.4"/><path class="cls-2" d="M246,244.7a1.22,1.22,0,0,1,1.2-1.2,1.16,1.16,0,0,1,1.2,1.2v.2a10.32,10.32,0,0,1-.4,3h2.4a20.55,20.55,0,0,0,.2-3.5c0-3.7-6.8-4.3-6.8.4a6.19,6.19,0,0,0,3.1,5.9,15.3,15.3,0,0,1-3.1,4.1c-5.1-4.1-4.6-11.1-4.6-11.1H237c0,9.4,5,12.7,5.6,13.2a1.67,1.67,0,0,0,1.5.4c.7,0,2.4-1.7,4.4-4.9a4.05,4.05,0,0,0,.5-.9,7.72,7.72,0,0,0,1.5.2v-2a4.72,4.72,0,0,1-4.5-5Z" transform="translate(0.02 0.01)"/><rect class="cls-13" x="322.82" y="236.51" width="25.5" height="25.5"/><polygon class="cls-8" points="322.82 262.01 322.82 262.01 348.43 262.01 348.43 236.51 322.82 236.51 322.82 262.01 322.82 262.01 322.82 262.01 322.82 262.01 322.82 236.51 348.32 236.51 348.32 262.01 322.82 262.01"/><path class="cls-2" d="M329.3,240.9h12.5A2.2,2.2,0,0,1,344,243h0v12.5a2.14,2.14,0,0,1-2.1,2.2H329.4a2.22,2.22,0,0,1-2.2-2.2h0V243a2,2,0,0,1,1.9-2.1Zm10.1,1.8a.79.79,0,0,0-.8.8h0v1.8a.79.79,0,0,0,.8.8h1.9a.79.79,0,0,0,.8-.8h0v-1.8a.79.79,0,0,0-.8-.8h-1.9Zm2.7,5.3h-1.5a3.18,3.18,0,0,1,.2,1.4,5.26,5.26,0,0,1-10.5,0,6.75,6.75,0,0,1,.2-1.4h-1.6v7.1a.67.67,0,0,0,.6.7h11.7a.67.67,0,0,0,.7-.6h0l.2-7.2Zm-6.5-2a3.4,3.4,0,0,0-3.2,3.4,3.3,3.3,0,1,0,6.6-.2A3.27,3.27,0,0,0,335.6,246Z" transform="translate(0.02 0.01)"/><rect class="cls-14" x="92.22" y="236.51" width="25.5" height="25.5"/><path class="cls-2" d="M104.9,240a9.18,9.18,0,0,0-9.2,9.2,9.32,9.32,0,0,0,5.5,8.4,7.49,7.49,0,0,1,.2-2.1l1.2-5a4,4,0,0,1-.3-1.5c0-1.4.8-2.4,1.8-2.4a1.3,1.3,0,0,1,1.3,1.2v.2c-.2,1.1-.5,2.2-.8,3.3a1.45,1.45,0,0,0,1,1.7h.4c1.8,0,2.9-2.3,2.9-4.9,0-2-1.4-3.5-3.8-3.5a4.35,4.35,0,0,0-4.5,4.2h0v.2a2.79,2.79,0,0,0,.6,1.8c.2.1.2.3.1.5l-.2.7c0,.2-.2.3-.4.3h-.1a3.67,3.67,0,0,1-1.9-3.5c0-2.6,2.2-5.8,6.6-5.8a5.39,5.39,0,0,1,5.8,5v.3c0,3.6-2,6.3-5,6.3a2.66,2.66,0,0,1-2.2-1.1s-.5,2.1-.7,2.5a7.22,7.22,0,0,1-.9,2,9.22,9.22,0,0,0,4.8-17.8h0l-.3-.1a11.48,11.48,0,0,0-1.9-.1Z" transform="translate(0.02 0.01)"/><rect class="cls-15" x="0.02" y="236.51" width="25.4" height="25.4"/><path class="cls-2" d="M22.1,251.8l.5-3.9H18.8v-2.5c0-1.1.3-1.9,1.9-1.9h2.1V240a15.06,15.06,0,0,0-3-.1c-3,0-5,1.8-5,5.1v2.9H11.4v3.9h3.4v10h4v-10Z" transform="translate(0.02 0.01)"/><rect class="cls-16" x="184.42" y="236.51" width="25.5" height="25.5"/><path class="cls-2" d="M188.8,246.4h3.6V258h-3.6Zm1.8-5.8a2.1,2.1,0,1,1-2.1,2.1,2.18,2.18,0,0,1,2.1-2.1h0" transform="translate(0.02 0.01)"/><path class="cls-2" d="M194.7,246.4h3.4V248h0a3.9,3.9,0,0,1,3.4-1.9c3.6,0,4.3,2.4,4.3,5.5V258h-3.6v-5.7c0-1.3,0-3.1-1.9-3.1s-2.2,1.5-2.2,3v5.7h-3.6l.2-11.5Z" transform="translate(0.02 0.01)"/><rect class="cls-17" x="46.12" y="236.51" width="25.5" height="25.5"/><path class="cls-2" d="M67.3,244a6.64,6.64,0,0,1-2,.6,3.17,3.17,0,0,0,1.5-1.9,8.49,8.49,0,0,1-2.2.9,3.48,3.48,0,0,0-4.9-.3,3.55,3.55,0,0,0-1.1,3.5,10.19,10.19,0,0,1-7.2-3.7,3.6,3.6,0,0,0,1.1,4.7,4.19,4.19,0,0,1-1.6-.4h0a3.44,3.44,0,0,0,2.8,3.4,4.33,4.33,0,0,1-1.6.1,3.55,3.55,0,0,0,3.3,2.4,6.63,6.63,0,0,1-4.3,1.5,2.2,2.2,0,0,1-.8-.1A9.87,9.87,0,0,0,64,251.8h0v-.1a10,10,0,0,0,1.6-5.3V246A10.61,10.61,0,0,0,67.3,244Z" transform="translate(0.02 0.01)"/><path class="cls-2" d="M151.4,206c.3,0,.5-.3.5-.8v-2.4c0-.5-.2-.8-.5-.8s-.5.3-.5.8v2.4C150.9,205.7,151,206,151.4,206Z" transform="translate(0.02 0.01)"/><path class="cls-2" d="M138.9,222.2h25.5V196.7H138.9Zm14.9-21.1h1v4.6c0,.2.1.2.2.2a1,1,0,0,0,.6-.5V201h1v5.7h-1v-.6a1.85,1.85,0,0,1-1.2.7.67.67,0,0,1-.7-.4,2.77,2.77,0,0,1-.1-.9l.2-4.4Zm-4,1.9a3.19,3.19,0,0,1,.3-1.4,1.58,1.58,0,0,1,2.2-.3l.3.3a1.74,1.74,0,0,1,.3,1.4v2a3.19,3.19,0,0,1-.3,1.4,1.58,1.58,0,0,1-2.2.3l-.3-.3a1.74,1.74,0,0,1-.3-1.4Zm-2.7-3.9.8,3,.8-3h1.2l-1.4,4.6v3.1h-1.1v-3.1a21.72,21.72,0,0,0-.7-2.4l-.7-2.1,1.1-.1Zm-3.7,10.7a2.12,2.12,0,0,1,1.8-1.7,45.63,45.63,0,0,1,6.4-.2c2.1,0,4.2,0,6.4.2a2.12,2.12,0,0,1,1.8,1.7,26.82,26.82,0,0,1,0,8,2.12,2.12,0,0,1-1.8,1.7,45.63,45.63,0,0,1-6.4.2c-2.1,0-4.2,0-6.4-.2a2.12,2.12,0,0,1-1.8-1.7A26.81,26.81,0,0,1,143.4,209.8Z" transform="translate(0.02 0.01)"/><path class="cls-2" d="M148.9,217.5a1.85,1.85,0,0,0,1.2-.7v.6h1v-5.7h-1V216c-.2.3-.4.5-.6.5s-.2-.1-.2-.2v-4.6h-1v4.5a2.2,2.2,0,0,0,.1.8c-.1.4.2.6.5.5Z" transform="translate(0.02 0.01)"/><path class="cls-2" d="M153,216.9a1.15,1.15,0,0,0,1.1.6.76.76,0,0,0,.8-.6,4.1,4.1,0,0,0,.1-1.1v-2.3a4.1,4.1,0,0,0-.1-1.1c-.1-.4-.4-.7-.8-.6a2.38,2.38,0,0,0-1.1.6v-2.5h-1v7.6h1v-.6Zm0-4a.76.76,0,0,1,.5-.2c.3,0,.4.3.4.8v2.4c0,.5-.1.8-.4.8a.76.76,0,0,1-.5-.2Z" transform="translate(0.02 0.01)"/><polygon class="cls-2" points="145.63 217.51 146.72 217.51 146.72 210.91 148.03 210.91 148.03 209.91 144.43 209.91 144.43 210.91 145.63 210.91 145.63 217.51"/><path class="cls-2" d="M157.3,217.5a1.3,1.3,0,0,0,1.4-1.2v-.8h-1v.7c0,.2-.3.4-.5.4-.4,0-.5-.3-.5-.8v-1h2.1v-1.2a2.77,2.77,0,0,0-.3-1.3,1.46,1.46,0,0,0-2.1-.3h0l-.3.3a2.77,2.77,0,0,0-.3,1.3v2a2.77,2.77,0,0,0,.3,1.3,1.31,1.31,0,0,0,1.2.6Zm-.5-4.1c0-.5.2-.8.5-.8s.5.3.5.8v.5h-1Z" transform="translate(0.02 0.01)"/><path class="cls-2" d="M289.1,206.1c0-.3.1-.6.1-.9a6.11,6.11,0,0,0-.8-3,2.94,2.94,0,0,0-1-1.2,2.39,2.39,0,0,0-1.4-.5,2.14,2.14,0,0,0-1.7.8,2.51,2.51,0,0,0-.5,1.9,6,6,0,0,0,.8,2.9,4,4,0,0,0,1,1.2,2.39,2.39,0,0,0,1.4.5,2.84,2.84,0,0,0,1.7-.7A3,3,0,0,0,289.1,206.1Z" transform="translate(0.02 0.01)"/><path class="cls-2" d="M283.7,217.2a6.2,6.2,0,0,0,3.2.9,3.77,3.77,0,0,0,2.7-.8,2.46,2.46,0,0,0,.9-1.9,2.72,2.72,0,0,0-.6-1.7,12,12,0,0,0-2.1-1.7h-.6a3.4,3.4,0,0,0-1,.1,9.36,9.36,0,0,0-1.6.4l-.5.2a1.79,1.79,0,0,0-.7.5c-.2.3-.4.5-.6.8a2.66,2.66,0,0,0-.3,1.2A3,3,0,0,0,283.7,217.2Z" transform="translate(0.02 0.01)"/><path class="cls-2" d="M277.2,222.2h25.5V196.7H277.2ZM293,202.5h2.7v-2.7H297v2.7h2.7v1.3H297v2.7h-1.3v-2.7H293ZM280.8,214a3.62,3.62,0,0,1,1.5-1.5,6.22,6.22,0,0,1,2.6-.9,16.35,16.35,0,0,1,2.2-.2,3.51,3.51,0,0,1-.5-.8,1.23,1.23,0,0,1-.2-1,1.27,1.27,0,0,1,.1-.6l.2-.4h-.8a3.7,3.7,0,0,1-3.1-1.3,3.86,3.86,0,0,1-1.1-2.7,4.42,4.42,0,0,1,1.6-3.4,4.77,4.77,0,0,1,2.2-1.2,8.2,8.2,0,0,1,2.2-.2h5.1l-1.6.9h-1.6a1,1,0,0,1,.5.4c.2.2.4.5.6.7a3.13,3.13,0,0,1,.5,1,5.85,5.85,0,0,1,.2,1.3,4.28,4.28,0,0,1-.6,2.2,4.35,4.35,0,0,1-.6.7l-.8.7a1,1,0,0,0-.4.5.84.84,0,0,0-.2.7,1.85,1.85,0,0,0,.2.7.78.78,0,0,0,.4.4l.9.7a9.27,9.27,0,0,1,1.4,1.4,3.94,3.94,0,0,1,.6,2.1,4.22,4.22,0,0,1-1.6,3.3,7.16,7.16,0,0,1-4.9,1.5,6.4,6.4,0,0,1-4-1.1,3.13,3.13,0,0,1-1.3-2.5,1.74,1.74,0,0,1,.3-1.4Z" transform="translate(0.02 0.01)"/><path class="cls-2" d="M231.2,222.1h25.4V196.7H231.2v25.4Zm8.5-18.3s-.5,7,4.6,11.1a11.43,11.43,0,0,0,3.1-4.1,6.19,6.19,0,0,1-3.1-5.9c0-4.6,6.8-4,6.8-.4a20.55,20.55,0,0,1-.2,3.5h-2.4a15.44,15.44,0,0,0,.4-3,1.3,1.3,0,0,0-.9-1.4,1.2,1.2,0,0,0-1.4.9h0v.2a4.7,4.7,0,0,0,4.4,5h.1v2a7.72,7.72,0,0,1-1.5-.2c-.2.3-.3.6-.5.9-2,3.2-3.7,4.9-4.4,4.9a1.67,1.67,0,0,1-1.5-.4c-.6-.5-5.6-3.8-5.6-13.2Z" transform="translate(0.02 0.01)"/><path class="cls-2" d="M348.8,196.7H323.3v25.5h25.5Zm-4.3,19a2.14,2.14,0,0,1-2.1,2.2H329.9a2.22,2.22,0,0,1-2.2-2.2h0V203.2a2.22,2.22,0,0,1,2.2-2.2h12.5a2.14,2.14,0,0,1,2.1,2.2h0Z" transform="translate(0.02 0.01)"/><path class="cls-2" d="M340,206.2h1.9a.79.79,0,0,0,.8-.8h0v-1.8a.79.79,0,0,0-.8-.8H340a.79.79,0,0,0-.8.8h0v1.8a.86.86,0,0,0,.8.8Z" transform="translate(0.02 0.01)"/><path class="cls-2" d="M341.4,209.6a5.26,5.26,0,0,1-10.5,0,6.75,6.75,0,0,1,.2-1.4h-1.5v7.1a.67.67,0,0,0,.6.7H342a.67.67,0,0,0,.7-.6h0v-7.1h-1.5a5.85,5.85,0,0,1,.2,1.3Z" transform="translate(0.02 0.01)"/><ellipse class="cls-2" cx="336.13" cy="209.41" rx="3.4" ry="3.3"/><rect class="cls-18" x="367.13" y="236.51" width="25.5" height="25.5"/><path class="cls-2" d="M92.7,222.2h25.5V196.7H92.7Zm12.8-22a9.2,9.2,0,1,1,0,18.4h0a7.46,7.46,0,0,1-2.6-.4,7.22,7.22,0,0,0,.9-2c.1-.4.7-2.5.7-2.5a2.66,2.66,0,0,0,2.2,1.1c3,0,5-2.7,5-6.3a5.55,5.55,0,0,0-5.7-5.3h-.1c-4.4,0-6.6,3.1-6.6,5.8a3.35,3.35,0,0,0,1.9,3.5c.2.1.4,0,.4-.1v-.1a1.85,1.85,0,0,1,.2-.7.44.44,0,0,0-.1-.5,3,3,0,0,1-.6-1.8,4.35,4.35,0,0,1,4.3-4.4h.2c2.5,0,3.8,1.5,3.8,3.5,0,2.7-1.2,4.9-2.9,4.9a1.45,1.45,0,0,1-1.5-1.4h0v-.4a19.81,19.81,0,0,0,.8-3.3,1.24,1.24,0,0,0-1.1-1.4h-.2c-1,0-1.8,1-1.8,2.4a4,4,0,0,0,.3,1.5l-1.2,5a14.92,14.92,0,0,0-.2,2.1,9.17,9.17,0,0,1-4.8-12.1A9.59,9.59,0,0,1,105.5,200.2Z" transform="translate(0.02 0.01)"/><path class="cls-2" d="M.5,222.1H25.9V196.7H.5ZM12,208h3.4v-2.9c0-3.3,2-5.1,5-5.1,1,0,2,0,3,.1v3.5H21.3c-1.6,0-1.9.8-1.9,1.9V208h3.9l-.5,3.9H19.4v10h-4v-10H12Z" transform="translate(0.02 0.01)"/><path class="cls-2" d="M185,222.2h25.5V196.7H185Zm8-4.1h-3.6V206.5H193Zm2.3-11.6h3.4v1.6h0a3.9,3.9,0,0,1,3.4-1.9c3.6,0,4.3,2.4,4.3,5.5v6.4h-3.6v-5.6c0-1.3,0-3.1-1.9-3.1s-2.2,1.5-2.2,3v5.7h-3.6l.2-11.6Zm-4.1-5.7a2.1,2.1,0,1,1-2.1,2.1,2.09,2.09,0,0,1,2-2.1h.1Z" transform="translate(0.02 0.01)"/><path class="cls-2" d="M46.6,222.2H72.1V196.7H46.6Zm6.2-11.3c.2,0,.4.1.7.1a2.77,2.77,0,0,0,.9-.1,3.52,3.52,0,0,1-2.8-3.4h0a2.93,2.93,0,0,0,1.6.4,3.41,3.41,0,0,1-1.1-4.7h0a9.72,9.72,0,0,0,7.2,3.6,3.51,3.51,0,0,1,2.4-4.3h0a3.55,3.55,0,0,1,3.5,1.1,8.49,8.49,0,0,0,2.2-.9,3.58,3.58,0,0,1-1.5,1.9,6.64,6.64,0,0,0,2-.6,9.76,9.76,0,0,1-1.7,1.8v.4a9.86,9.86,0,0,1-9.9,9.9,9.18,9.18,0,0,1-5.3-1.6,2.2,2.2,0,0,1,.8.1,6.63,6.63,0,0,0,4.3-1.5A2.94,2.94,0,0,1,52.8,210.9Z" transform="translate(0.02 0.01)"/><path class="cls-2" d="M500.9,37.8l8-8,2.3,2.3-5.7,5.7,5.7,5.7-2.3,2.3Z" transform="translate(0.02 0.01)"/><path class="cls-2" d="M478.1,45.8l-2.3-2.3,5.7-5.7-5.7-5.7,2.3-2.3,8,8Z" transform="translate(0.02 0.01)"/><path class="cls-3" d="M456.8,1.3a3.89,3.89,0,0,1,1.3,3.2v9.1a4.59,4.59,0,0,1-4.6,4.6h-9.1a4.59,4.59,0,0,1-4.6-4.6h0V4.5a4.82,4.82,0,0,1,1.3-3.2A3.89,3.89,0,0,1,444.3,0h9.1A4.67,4.67,0,0,1,456.8,1.3Zm-2,5.4-1-1c-.1-.2-.3-.2-.5,0l-5.1,5.1c-.1.1-.3.2-.4.1l-.1-.1-2.2-2.3a.45.45,0,0,0-.5,0l-1,.9c-.1.1-.1.1-.1.2s0,.2.1.2l2.2,2.4c.1,0,.1.1.2.1l.2.2a.1.1,0,0,0,.1.1h0l1,1a.45.45,0,0,0,.5,0h0l6.5-6.5c.3,0,.3-.2.1-.4.1.1.1,0,0,0Z" transform="translate(0.02 0.01)"/><path class="cls-19" d="M453.3,30a1.42,1.42,0,0,1,.6.2.48.48,0,0,1,.2.6v9.1a.86.86,0,0,1-.8.8h-9.1a1.42,1.42,0,0,1-.6-.2.48.48,0,0,1-.2-.6V30.7a1.42,1.42,0,0,1,.2-.6.48.48,0,0,1,.6-.2l9.1.1m0-3.8h-9.1a4.57,4.57,0,0,0-4.6,4.5h0v9.1a4.59,4.59,0,0,0,4.6,4.6h9.1a4.59,4.59,0,0,0,4.6-4.6h0V30.7a4.57,4.57,0,0,0-4.6-4.5Z" transform="translate(0.02 0.01)"/><path class="cls-2" d="M517.4,4.4c.1.1.1.3.2.4a.52.52,0,0,1-.2.4L506.5,16.1a.49.49,0,0,1-.7.1h0a.1.1,0,0,1-.1-.1h0l-1.6-1.6-.8-.8-3.7-3.9a1.1,1.1,0,0,1,0-.8l1.6-1.5a.5.5,0,0,1,.8,0l3.7,3.8a.49.49,0,0,0,.7.1h0a.1.1,0,0,0,.1-.1h0L515,2.9a.49.49,0,0,1,.7-.1h0l.1.1Z" transform="translate(0.02 0.01)"/><polygon class="cls-2" points="489.93 70.31 489.93 70.31 477.02 56.71 474.13 59.41 484.43 70.31 474.13 81.21 477.02 83.91 489.93 70.31"/><polygon class="cls-2" points="498.93 70.31 498.93 70.31 511.82 56.71 514.73 59.41 504.43 70.31 514.73 81.21 511.82 83.91 498.93 70.31"/><path class="cls-2" d="M99.2,321.8c3.2,0,5.8-3.3,5.8-7.3s-2.6-7.3-5.8-7.3-5.8,3.3-5.8,7.3S96,321.8,99.2,321.8Zm0-13.1c2.3,0,4.2,2.6,4.2,5.8s-1.9,5.8-4.2,5.8-4.2-2.6-4.2-5.8S96.9,308.7,99.2,308.7Z" transform="translate(0.02 0.01)"/><path class="cls-2" d="M88.4,323.1l-1.5,4.6a.88.88,0,0,0,.5,1h23.4a.71.71,0,0,0,.6-.3.88.88,0,0,0,.1-.7l-1.5-4.6a1.21,1.21,0,0,0-.5-.5l-5.4-1.5a.66.66,0,0,0-.6.1l-4.3,2.1-4.3-2.1a1.27,1.27,0,0,0-.6-.1l-5.4,1.5C88.7,322.7,88.6,322.9,88.4,323.1Zm6-.5,4.4,2.2a.85.85,0,0,0,.7,0l4.4-2.2,4.7,1.3,1.1,3.2h-21l1-3.2Z" transform="translate(0.02 0.01)"/><path class="cls-8" d="M378.2,165.8c2.6,0,4.8-2.7,4.8-6.1s-2.1-6.1-4.8-6.1-4.8,2.7-4.8,6.1S375.6,165.8,378.2,165.8Z" transform="translate(0.02 0.01)"/><path class="cls-8" d="M369.3,167.7l-1.3,3.8a.66.66,0,0,0,.1.6.55.55,0,0,0,.5.3h19.2a.58.58,0,0,0,.6-.6h0v-.2l-1.3-3.8c-.1-.2-.2-.4-.4-.4l-4.5-1.3a.45.45,0,0,0-.5,0l-3.5,1.8-3.5-1.8a.45.45,0,0,0-.5,0l-4.5,1.3c-.2,0-.4.1-.4.3Z" transform="translate(0.02 0.01)"/><path class="cls-2" d="M65.9,308.7H62.8v-.8a.77.77,0,0,0-.7-.8H59.8a.79.79,0,0,0-.8.8h0v.8H49.7v-.8a.79.79,0,0,0-.8-.8H46.6a.79.79,0,0,0-.8.8h0v.8H42.7a.79.79,0,0,0-.8.8h0V328a.79.79,0,0,0,.8.8H65.9a.79.79,0,0,0,.8-.8h0V309.5a.79.79,0,0,0-.8-.8Zm-5.4,0h.8v1.5h-.8Zm-13.1,0h.8v1.5h-.8Zm17.7,18.5H43.5v-17h2.3v.8a.79.79,0,0,0,.8.8h2.3a.79.79,0,0,0,.8-.8h0v-.8H59v.8a.79.79,0,0,0,.8.8h2.3a.79.79,0,0,0,.8-.8h0v-.8h2.3Z" transform="translate(0.02 0.01)"/><path class="cls-2" d="M49.7,314.9H46.6a.79.79,0,0,0-.8.8h0v3.1a.79.79,0,0,0,.8.8h3.1a.79.79,0,0,0,.8-.8h0v-3.1a.79.79,0,0,0-.8-.8Zm-.8,3.1H47.4v-1.5h1.5Z" transform="translate(0.02 0.01)"/><path class="cls-2" d="M55.9,314.9H52.8a.79.79,0,0,0-.8.8h0v3.1a.79.79,0,0,0,.8.8h3.1a.79.79,0,0,0,.8-.8h0v-3.1C56.6,315.2,56.3,314.9,55.9,314.9Zm-.8,3.1H53.6v-1.5h1.5Z" transform="translate(0.02 0.01)"/><path class="cls-2" d="M62.1,314.9H59a.79.79,0,0,0-.8.8h0v3.1a.79.79,0,0,0,.8.8h3.1a.79.79,0,0,0,.8-.8h0v-3.1a.79.79,0,0,0-.8-.8Zm-.8,3.1H59.8v-1.5h1.5Z" transform="translate(0.02 0.01)"/><path class="cls-2" d="M49.7,321H46.6a.79.79,0,0,0-.8.8h0v3.1a.79.79,0,0,0,.8.8h3.1a.79.79,0,0,0,.8-.8h0v-3.1A.79.79,0,0,0,49.7,321Zm-.8,3.1H47.4v-1.5h1.5Z" transform="translate(0.02 0.01)"/><path class="cls-2" d="M55.9,321H52.8a.79.79,0,0,0-.8.8h0v3.1a.79.79,0,0,0,.8.8h3.1a.79.79,0,0,0,.8-.8h0v-3.1C56.6,321.4,56.3,321,55.9,321Zm-.8,3.1H53.6v-1.5h1.5Z" transform="translate(0.02 0.01)"/><path class="cls-2" d="M62.1,321H59a.79.79,0,0,0-.8.8h0v3.1a.79.79,0,0,0,.8.8h3.1a.79.79,0,0,0,.8-.8h0v-3.1A.79.79,0,0,0,62.1,321Zm-.8,3.1H59.8v-1.5h1.5Z" transform="translate(0.02 0.01)"/><path class="cls-2" d="M227.1,330.3h14.7a1.45,1.45,0,0,0,1.5-1.4h0V307.2a1.54,1.54,0,0,0-1.5-1.5H227.1a1.54,1.54,0,0,0-1.5,1.5v2.3h-.8a.8.8,0,0,0,0,1.6h.8v1.5h-.8a.8.8,0,1,0,0,1.6h.8v1.5h-.8a.8.8,0,1,0,0,1.6h.8v1.5h-.8a.79.79,0,0,0-.8.8h0a.77.77,0,0,0,.7.8h.8v1.5h-.7a.8.8,0,0,0,0,1.6h.8V325h-.8a.8.8,0,0,0,0,1.6h.8v2.3a1.37,1.37,0,0,0,1.4,1.4h.1Zm14.7-1.5h-3.1V307.2h3.1Zm-14.7-5.4h.8a.8.8,0,0,0,0-1.6h-.8v-1.5h.8a.8.8,0,0,0,0-1.6h-.8v-1.5h.8a.8.8,0,1,0,0-1.6h-.8v-1.5h.8a.8.8,0,0,0,0-1.6h-.8v-1.6h.8a.8.8,0,0,0,0-1.6h-.8V307h10v21.6h-10v-2.3h.8a.8.8,0,0,0,0-1.6h-.8Z" transform="translate(0.02 0.01)"/><path class="cls-2" d="M155.5,307.1,144,308.6l-11.5-1.5a.73.73,0,0,0-.6.2.71.71,0,0,0-.3.6v18.5a.85.85,0,0,0,.7.8l11.6,1.5h.2l11.6-1.5a.85.85,0,0,0,.7-.8V307.9a.71.71,0,0,0-.3-.6.85.85,0,0,0-.6-.2Zm-22.3,1.7,10,1.3v17l-10-1.3Zm21.6,17-10,1.3v-17l10-1.3Z" transform="translate(0.02 0.01)"/><path class="cls-2" d="M135.4,312.5l6.2.8h.1a.75.75,0,0,0,.1-1.5h0l-6.2-.8a.73.73,0,0,0-.4,1.4h.1l.1.1Z" transform="translate(0.02 0.01)"/><path class="cls-2" d="M141.8,315.6l-6.2-.8a.76.76,0,1,0-.3,1.5h.2l6.2.8h.1a.85.85,0,0,0,.8-.7A1.09,1.09,0,0,0,141.8,315.6Z" transform="translate(0.02 0.01)"/><path class="cls-2" d="M141.8,319.5l-6.2-.8a.79.79,0,0,0-.8.8.87.87,0,0,0,.6.8h0l6.2.8h.1a.85.85,0,0,0,.8-.7.78.78,0,0,0-.7-.9Z" transform="translate(0.02 0.01)"/><path class="cls-2" d="M141.8,323.4l-6.2-.8a.79.79,0,0,0-.8.8.87.87,0,0,0,.6.8l6.2.8h.1a.85.85,0,0,0,.8-.7.78.78,0,0,0-.7-.9Z" transform="translate(0.02 0.01)"/><path class="cls-2" d="M146.3,313.3h.1l6.2-.8a.83.83,0,0,0,.6-1,.76.76,0,0,0-.8-.6l-6.2.8a.77.77,0,0,0-.7.8c0,.4.4.9.8.8Z" transform="translate(0.02 0.01)"/><path class="cls-2" d="M146.3,317.2h.1l6.2-.8a.8.8,0,1,0,0-1.6h-.2l-6.2.8a.78.78,0,0,0-.6.9.68.68,0,0,0,.7.7Z" transform="translate(0.02 0.01)"/><path class="cls-2" d="M146.3,321h.1l6.2-.8a.83.83,0,0,0,.6-1,.76.76,0,0,0-.8-.6l-6.2.8a1,1,0,0,0-.7.9c.1.5.4.8.8.7Z" transform="translate(0.02 0.01)"/><path class="cls-2" d="M152.4,322.6l-6.2.8a.75.75,0,0,0,.1,1.5h.1l6.2-.8a.75.75,0,1,0-.1-1.5h-.1Z" transform="translate(0.02 0.01)"/><path class="cls-2" d="M270.4,369.9h2.5l.4,1.3-2,2a.78.78,0,0,0,0,1.1h0l3.1,3.1a.78.78,0,0,0,1.1,0h0l2-2,1.3.5v2.5a.79.79,0,0,0,.8.8h4.6a.79.79,0,0,0,.8-.8h0v-2.6l1.3-.5,2,2a.78.78,0,0,0,1.1,0l3.1-3.1a.78.78,0,0,0,0-1.1l-2-2,.4-1.3h2.5a.79.79,0,0,0,.8-.8h0v-4.6a.79.79,0,0,0-.8-.8H291l-.4-1.3,2-2a.78.78,0,0,0,0-1.1h0l-3.1-3.1a.78.78,0,0,0-1.1,0h0l-2,2-1.3-.5v-2.4a.79.79,0,0,0-.8-.8h-4.6a.79.79,0,0,0-.8.8h0v2.5l-1.3.5-2-2a.78.78,0,0,0-1.1,0h0l-3.1,3.1a.78.78,0,0,0,0,1.1h0l2,2-.4,1.3h-2.5a.79.79,0,0,0-.8.8h0v4.6c.1.4.3.8.7.8Zm.8-4.6h2.3a.75.75,0,0,0,.7-.5l.8-2.3a.78.78,0,0,0-.2-.8l-1.8-1.8,2-2,1.8,1.8a.78.78,0,0,0,.8.2l2.3-.8a.75.75,0,0,0,.5-.7v-2.3h3.1v2.3a.75.75,0,0,0,.5.7l2.3.8a.78.78,0,0,0,.8-.2l1.8-1.8,2,2-1.8,1.8a.78.78,0,0,0-.2.8l.8,2.3a.75.75,0,0,0,.7.5h2.3v3.1h-2.3a.75.75,0,0,0-.7.5l-.8,2.3a.78.78,0,0,0,.2.8l1.8,1.8-2,2-1.8-1.8a.78.78,0,0,0-.8-.2l-2.3.8a.75.75,0,0,0-.5.7v2.3h-3.1v-2.3a.75.75,0,0,0-.5-.7l-2.3-.8a.78.78,0,0,0-.8.2l-1.8,1.8-2-2,1.8-1.8a.78.78,0,0,0,.2-.8l-.8-2.3a.75.75,0,0,0-.7-.5h-2.3Z" transform="translate(0.02 0.01)"/><path class="cls-2" d="M282,369.9a3.1,3.1,0,1,0-3.1-3.1,3.12,3.12,0,0,0,3.1,3.1Zm0-4.6a1.55,1.55,0,1,1-1.5,1.6h0a1.63,1.63,0,0,1,1.5-1.6Z" transform="translate(0.02 0.01)"/><path class="cls-2" d="M12.6,314.5a3.1,3.1,0,1,0-3.1,3.1h0A3.12,3.12,0,0,0,12.6,314.5Zm-4.6,0a1.54,1.54,0,0,1,1.4-1.6h.1a1.55,1.55,0,0,1,.1,3.1H9.5A1.61,1.61,0,0,1,8,314.5Z" transform="translate(0.02 0.01)"/><path class="cls-2" d="M9.5,330.3a.71.71,0,0,0,.6-.3c.3-.4,8.3-9.5,8.3-15.6a8.9,8.9,0,0,0-17.8,0h0c0,6,7.9,15.2,8.3,15.6A.86.86,0,0,0,9.5,330.3Zm0-23.2a7.3,7.3,0,0,1,7.3,7.4c0,4.6-5.5,11.6-7.4,13.9-1.8-2.2-7.3-9.3-7.3-13.9a7.38,7.38,0,0,1,7.4-7.4Z" transform="translate(0.02 0.01)"/><path class="cls-2" d="M110.9,360.5H86a.79.79,0,0,0-.8.8h0v15a.79.79,0,0,0,.8.8h25a.79.79,0,0,0,.8-.8h0v-15a.88.88,0,0,0-.9-.8Zm-2.6,1.7-9.8,6.1-9.8-6.1ZM86.8,375.5V363l11.7,7.2,11.6-7.2v12.5Z" transform="translate(0.02 0.01)"/><path class="cls-2" d="M143.8,365.5a.79.79,0,0,0-.8.8h0v11.3l-1.9-1.9a.91.91,0,0,0-1.2,0h0a.78.78,0,0,0,0,1.1l3.3,3.3a.91.91,0,0,0,1.2,0h0l3.3-3.3a.85.85,0,0,0-1.1-1.3h0l-.1.1-1.9,1.9V366.2A.77.77,0,0,0,143.8,365.5Z" transform="translate(0.02 0.01)"/><path class="cls-2" d="M156.3,357.2h-25a.79.79,0,0,0-.8.8h0v15a.79.79,0,0,0,.8.8h9.1a.8.8,0,0,0,0-1.6h-8.3V358.9h23.3v13.3h-8.3a.8.8,0,1,0,0,1.6h9.1a.79.79,0,0,0,.8-.8h0V358c.1-.4-.2-.7-.7-.8Z" transform="translate(0.02 0.01)"/><path class="cls-2" d="M13.3,355.5a13.32,13.32,0,1,0,9.4,3.9A13.15,13.15,0,0,0,13.3,355.5Zm8.2,21.6a11.67,11.67,0,1,1,.1-16.5h0a11.65,11.65,0,0,1,0,16.4Z" transform="translate(0.02 0.01)"/><path class="cls-2" d="M17.4,368.5l-3.3-8.3a1,1,0,0,0-1.1-.5,1.21,1.21,0,0,0-.5.5l-3.3,8.3a.64.64,0,0,0,0,.6h0l3.3,8.3a1,1,0,0,0,1.1.5,1.21,1.21,0,0,0,.5-.5l3.3-8.3h0A.64.64,0,0,0,17.4,368.5Zm-4.1-5.7,2.1,5.2H11.2Zm0,12.1-2.1-5.2h4.2Z" transform="translate(0.02 0.01)"/><path class="cls-2" d="M41.2,378h5v3.3a.79.79,0,0,0,.8.8H60.3a.79.79,0,0,0,.8-.8h0V378h5a.79.79,0,0,0,.8-.8h0V363.9a.79.79,0,0,0-.8-.8h-5v-6.6a.79.79,0,0,0-.8-.8H47a.79.79,0,0,0-.8.8h0v6.6h-5a.79.79,0,0,0-.8.8h0v13.3c-.1.4.3.7.8.8Zm18.3,2.5H47.8v-8.3H59.4l.1,8.3ZM47.8,357.2H59.5V363H47.8ZM42,364.7H65.3v11.6H61.1v-5a.79.79,0,0,0-.8-.8H47a.79.79,0,0,0-.8.8h0v5H42Z" transform="translate(0.02 0.01)"/><path class="cls-2" d="M45.1,366.2a.91.91,0,0,0-1.2,0,.73.73,0,0,0-.2.6,1.42,1.42,0,0,0,.2.6.91.91,0,0,0,1.2,0h0a1,1,0,0,0,0-1.2Z" transform="translate(0.02 0.01)"/><path class="cls-2" d="M47,367.6a1.42,1.42,0,0,0,.6-.2.73.73,0,0,0,.2-.6,1.42,1.42,0,0,0-.2-.6.91.91,0,0,0-1.2,0,.73.73,0,0,0-.2.6,1.42,1.42,0,0,0,.2.6A1.42,1.42,0,0,0,47,367.6Z" transform="translate(0.02 0.01)"/><path class="cls-2" d="M57.8,373.8H49.5a.8.8,0,1,0,0,1.6h8.3a.86.86,0,0,0,.8-.8A.79.79,0,0,0,57.8,373.8Z" transform="translate(0.02 0.01)"/><path class="cls-2" d="M57.8,377.2H49.5a.8.8,0,1,0,0,1.6h8.3a.79.79,0,0,0,.8-.8h0a.79.79,0,0,0-.8-.8Z" transform="translate(0.02 0.01)"/><polygon class="cls-3" points="12.82 560.51 20.02 565.31 12.82 570.01 12.82 560.51"/><path class="cls-2" d="M53,577.3a15.13,15.13,0,1,1,21.4,0,15.15,15.15,0,0,1-21.4,0Zm19.4-19.4a12.23,12.23,0,1,0,.2.2Z" transform="translate(0.02 0.01)"/><polygon class="cls-2" points="61.33 561.91 68.63 566.61 61.33 571.41 61.33 561.91"/><polygon class="cls-7" points="369.93 113.81 387.82 124.31 369.93 134.71 369.93 113.81"/><rect class="cls-7" x="418.13" y="116.81" width="3.6" height="16.4"/><path d="M453.2,129.5h3.6l5.6,5.6a.62.62,0,0,0,.7.1.68.68,0,0,0,.4-.6V115.3a.68.68,0,0,0-.4-.6.88.88,0,0,0-.7.1l-5.6,5.6h-3.6a.58.58,0,0,0-.6.6h0v7.7a.68.68,0,0,0,.4.8h.2Zm.6-7.7H457c.2,0,.3-.1.5-.2l4.7-4.7v16.2l-4.7-4.7a.76.76,0,0,0-.5-.2h-3.2Z" transform="translate(0.02 0.01)"/><path d="M464.9,128.3a.61.61,0,0,0,.8.1l.1-.1h0l2.4-2.4,2.4,2.4a.61.61,0,0,0,.8.1l.1-.1c.2-.3.3-.7,0-.9l-2.4-2.4,2.4-2.4a.61.61,0,0,0,.1-.8l-.1-.1c-.3-.2-.7-.3-.9,0l-2.4,2.4-2.4-2.4a.64.64,0,1,0-1,.8l.1.1,2.4,2.4-2.4,2.4A.75.75,0,0,0,464.9,128.3Z" transform="translate(0.02 0.01)"/><path d="M500.7,129.5h3.6l5.6,5.6a.76.76,0,0,0,.5.2.58.58,0,0,0,.6-.6h0V115.3a.68.68,0,0,0-.4-.6.88.88,0,0,0-.7.1l-5.6,5.6h-3.6a.58.58,0,0,0-.6.6h0v7.7C500.1,129.2,500.3,129.5,500.7,129.5Zm.7-7.7h3.2c.2,0,.3-.1.5-.2l4.7-4.7v16.2l-4.7-4.7a.76.76,0,0,0-.5-.2h-3.2Z" transform="translate(0.02 0.01)"/><path d="M512.9,127.5a.6.6,0,0,0,0,1.2,3.91,3.91,0,0,0,0-7.8.58.58,0,0,0-.6.6h0a.65.65,0,0,0,.6.6h0a2.56,2.56,0,0,1,2.4,2.7,2.48,2.48,0,0,1-2.3,2.7Z" transform="translate(0.02 0.01)"/><path d="M545.4,129.5H549l5.6,5.6a.62.62,0,0,0,.7.1.68.68,0,0,0,.4-.6V115.3a.68.68,0,0,0-.4-.6.88.88,0,0,0-.7.1l-5.6,5.6h-3.6a.58.58,0,0,0-.6.6h0v7.7C544.8,129.2,545.1,129.5,545.4,129.5Zm.6-7.7h3.2c.2,0,.3-.1.5-.2l4.7-4.7v16.2l-4.7-4.7a.76.76,0,0,0-.5-.2H546Z" transform="translate(0.02 0.01)"/><path d="M557.6,127.5a.6.6,0,0,0,0,1.2h0a3.91,3.91,0,0,0,0-7.8.58.58,0,0,0-.6.6h0a.65.65,0,0,0,.6.6h0a2.7,2.7,0,0,1,2.4,3,2.76,2.76,0,0,1-2.4,2.4Z" transform="translate(0.02 0.01)"/><path d="M557.6,132a7.1,7.1,0,1,0,0-14.2h0a.6.6,0,0,0,0,1.2h0a5.8,5.8,0,0,1,0,11.6c-.4,0-.7.2-.7.6,0,.6.3.9.7.8Z" transform="translate(0.02 0.01)"/><path class="cls-2" d="M550.1,73.5a7.6,7.6,0,1,1,7.6,7.6h0A7.6,7.6,0,0,1,550.1,73.5Zm1.7,0a5.9,5.9,0,1,0,5.9-5.9h0A6,6,0,0,0,551.8,73.5Z" transform="translate(0.02 0.01)"/><rect class="cls-2" x="546.1" y="80.24" width="7.6" height="1.9" transform="translate(103.26 412.06) rotate(-44.93)"/><rect class="cls-2" x="166.72" y="496.31" width="13.6" height="2.6"/><rect class="cls-2" x="177.72" y="496.31" width="2.6" height="13.6"/><rect class="cls-2" x="166.58" y="501.92" width="13.6" height="2.6" transform="translate(-305.06 270.07) rotate(-45.01)"/><rect class="cls-20" x="206.78" y="499.4" width="7.5" height="1.9" transform="translate(-292.11 295.43) rotate(-45)"/><rect class="cls-20" x="213.57" y="496.51" width="1.9" height="7.5" transform="translate(-290.88 298.23) rotate(-45)"/><rect class="cls-20" x="211.63" y="499.01" width="1.9" height="9.7"/><rect class="cls-21" x="262.77" y="496.91" width="12.4" height="3.1" transform="translate(-273.66 336.2) rotate(-45)"/><rect class="cls-21" x="273.99" y="492.3" width="3.1" height="12.4" transform="translate(-271.76 340.86) rotate(-45)"/><rect class="cls-21" x="270.82" y="496.31" width="3.1" height="15.9"/><rect class="cls-2" x="238.87" y="498.81" width="8.7" height="2.2" transform="translate(-282.22 318.41) rotate(-45)"/><rect class="cls-2" x="246.7" y="495.5" width="2.2" height="8.7" transform="translate(-280.84 321.64) rotate(-45)"/><rect class="cls-2" x="244.52" y="498.41" width="2.2" height="11.2"/><rect class="cls-3" x="117.43" y="496.31" width="13.6" height="2.6"/><rect class="cls-3" x="128.42" y="496.31" width="2.6" height="13.6"/><rect class="cls-2" x="64.26" y="491.41" width="2.6" height="13.6" transform="translate(-333.17 192.43) rotate(-45.02)"/><rect class="cls-2" x="58.81" y="504.47" width="13.6" height="2.6" transform="translate(-338.39 194.54) rotate(-45)"/><path class="cls-22" d="M706.6.6l1,.2-8.5,30.9-1-.2Z" transform="translate(0.02 0.01)"/><line class="cls-23" x1="422.32" y1="580.31" x2="456.32" y2="452.21"/><line class="cls-23" x1="425.82" y1="580.31" x2="459.82" y2="452.21"/><line class="cls-23" x1="429.32" y1="580.31" x2="463.32" y2="452.21"/><line class="cls-23" x1="432.82" y1="580.31" x2="466.92" y2="452.21"/><line class="cls-23" x1="436.32" y1="580.31" x2="470.42" y2="452.21"/><line class="cls-23" x1="439.82" y1="580.31" x2="473.92" y2="452.21"/><line class="cls-23" x1="443.32" y1="580.31" x2="477.42" y2="452.21"/><line class="cls-23" x1="446.82" y1="580.31" x2="480.92" y2="452.21"/><line class="cls-23" x1="450.32" y1="580.31" x2="484.42" y2="452.21"/><line class="cls-23" x1="453.92" y1="580.31" x2="487.92" y2="452.21"/><line class="cls-23" x1="457.42" y1="580.31" x2="491.42" y2="452.21"/><line class="cls-23" x1="460.92" y1="580.31" x2="494.92" y2="452.21"/><line class="cls-23" x1="464.42" y1="580.31" x2="498.42" y2="452.21"/><line class="cls-23" x1="467.92" y1="580.31" x2="502.02" y2="452.21"/><line class="cls-23" x1="471.42" y1="580.31" x2="505.52" y2="452.21"/><line class="cls-23" x1="474.92" y1="580.31" x2="509.02" y2="452.21"/><line class="cls-23" x1="478.42" y1="580.31" x2="512.52" y2="452.21"/><line class="cls-23" x1="481.92" y1="580.31" x2="516.02" y2="452.21"/><line class="cls-23" x1="485.42" y1="580.31" x2="519.52" y2="452.21"/><line class="cls-23" x1="489.02" y1="580.31" x2="523.02" y2="452.21"/><line class="cls-23" x1="492.52" y1="580.31" x2="526.52" y2="452.21"/><line class="cls-23" x1="496.02" y1="580.31" x2="530.02" y2="452.21"/><line class="cls-23" x1="499.52" y1="580.31" x2="533.52" y2="452.21"/><line class="cls-23" x1="503.02" y1="580.31" x2="537.12" y2="452.21"/><line class="cls-23" x1="506.52" y1="580.31" x2="540.62" y2="452.21"/><line class="cls-23" x1="510.02" y1="580.31" x2="544.12" y2="452.21"/><line class="cls-23" x1="513.52" y1="580.31" x2="547.62" y2="452.21"/><line class="cls-23" x1="517.02" y1="580.31" x2="551.12" y2="452.21"/><line class="cls-23" x1="520.62" y1="580.31" x2="554.62" y2="452.21"/><line class="cls-23" x1="524.12" y1="580.31" x2="558.12" y2="452.21"/><line class="cls-23" x1="527.62" y1="580.31" x2="561.62" y2="452.21"/><line class="cls-23" x1="531.12" y1="580.31" x2="565.12" y2="452.21"/><line class="cls-23" x1="534.62" y1="580.31" x2="568.73" y2="452.21"/><line class="cls-23" x1="538.12" y1="580.31" x2="572.23" y2="452.21"/><line class="cls-23" x1="541.62" y1="580.31" x2="575.73" y2="452.21"/><line class="cls-23" x1="545.12" y1="580.31" x2="579.23" y2="452.21"/><line class="cls-23" x1="548.62" y1="580.31" x2="582.73" y2="452.21"/><line class="cls-23" x1="552.12" y1="580.31" x2="586.23" y2="452.21"/><line class="cls-23" x1="555.73" y1="580.31" x2="589.73" y2="452.21"/><line class="cls-23" x1="559.23" y1="580.31" x2="593.23" y2="452.21"/><line class="cls-23" x1="562.73" y1="580.31" x2="596.73" y2="452.21"/><line class="cls-23" x1="566.23" y1="580.31" x2="600.23" y2="452.21"/><line class="cls-23" x1="569.73" y1="580.31" x2="603.82" y2="452.21"/><line class="cls-23" x1="573.23" y1="580.31" x2="607.32" y2="452.21"/><line class="cls-23" x1="576.73" y1="580.31" x2="610.82" y2="452.21"/><line class="cls-23" x1="580.23" y1="580.31" x2="614.32" y2="452.21"/><line class="cls-23" x1="583.73" y1="580.31" x2="617.82" y2="452.21"/><line class="cls-23" x1="587.23" y1="580.31" x2="621.32" y2="452.21"/><line class="cls-23" x1="590.82" y1="580.31" x2="624.82" y2="452.21"/><line class="cls-23" x1="594.32" y1="580.31" x2="628.32" y2="452.21"/><line class="cls-23" x1="597.82" y1="580.31" x2="631.82" y2="452.21"/><line class="cls-23" x1="601.32" y1="580.31" x2="635.32" y2="452.21"/><line class="cls-23" x1="604.82" y1="580.31" x2="638.93" y2="452.21"/><line class="cls-23" x1="608.32" y1="580.31" x2="642.43" y2="452.21"/><line class="cls-23" x1="611.82" y1="580.31" x2="645.93" y2="452.21"/><line class="cls-23" x1="615.32" y1="580.31" x2="649.43" y2="452.21"/><line class="cls-23" x1="618.82" y1="580.31" x2="652.93" y2="452.21"/><line class="cls-23" x1="622.32" y1="580.31" x2="656.43" y2="452.21"/><line class="cls-23" x1="625.93" y1="580.31" x2="659.93" y2="452.21"/><line class="cls-23" x1="629.43" y1="580.31" x2="663.43" y2="452.21"/><line class="cls-23" x1="632.93" y1="580.31" x2="666.93" y2="452.21"/><line class="cls-23" x1="636.43" y1="580.31" x2="670.43" y2="452.21"/><line class="cls-23" x1="639.93" y1="580.31" x2="674.02" y2="452.21"/><line class="cls-23" x1="643.43" y1="580.31" x2="677.52" y2="452.21"/><line class="cls-23" x1="646.93" y1="580.31" x2="681.02" y2="452.21"/><line class="cls-23" x1="650.43" y1="580.31" x2="684.52" y2="452.21"/><line class="cls-23" x1="653.93" y1="580.31" x2="688.02" y2="452.21"/><line class="cls-23" x1="657.43" y1="580.31" x2="691.52" y2="452.21"/><line class="cls-23" x1="661.02" y1="580.31" x2="695.02" y2="452.21"/><line class="cls-23" x1="664.52" y1="580.31" x2="698.52" y2="452.21"/><line class="cls-23" x1="668.02" y1="580.31" x2="702.02" y2="452.21"/><line class="cls-23" x1="671.52" y1="580.31" x2="705.52" y2="452.21"/><polygon class="cls-2" points="482.13 8.71 482.13 8.71 488.02 2.51 486.32 0.91 480.52 7.01 474.73 0.91 473.02 2.51 478.93 8.71 478.93 8.71 478.93 8.71 473.02 14.91 474.73 16.51 480.52 10.41 486.32 16.51 488.02 14.91 482.13 8.71"/><rect class="cls-24" x="436.28" y="76.81" width="25.9" height="1.5" transform="translate(76.76 340.39) rotate(-45)"/><rect class="cls-24" x="448.48" y="64.61" width="1.5" height="25.9" transform="translate(76.76 340.38) rotate(-45)"/><path class="cls-2" d="M384.9,256.3a6,6,0,0,1-1.9.6,11,11,0,0,1-1.8.2,4.67,4.67,0,0,1-1.7-.3,3.92,3.92,0,0,1-1.4-.8,2.84,2.84,0,0,1-.8-1.1,3.21,3.21,0,0,1-.2-1.7v-5.6H375v-2.2a4.33,4.33,0,0,0,2.9-2.3,4.55,4.55,0,0,0,.5-2h2.2v3.6h3.6v2.8h-3.6v4.1a9.7,9.7,0,0,0,.1,1.7,1.34,1.34,0,0,0,.6.7,2.66,2.66,0,0,0,1.2.3,4.07,4.07,0,0,0,2.4-.8v2.8Z" transform="translate(0.02 0.01)"/><path class="cls-2" d="M367.1,196.7v25.5h25.5V196.7Zm17.8,19.8a13.36,13.36,0,0,1-1.8.7,11,11,0,0,1-1.8.2,4.67,4.67,0,0,1-1.7-.3,3.92,3.92,0,0,1-1.4-.8,2.84,2.84,0,0,1-.8-1.1,3.21,3.21,0,0,1-.2-1.7v-5.6h-2.1v-2.2a4.33,4.33,0,0,0,2.9-2.3,4.55,4.55,0,0,0,.5-2h2.2v3.7h3.6v2.8h-3.6V212a9.7,9.7,0,0,0,.1,1.7,1.34,1.34,0,0,0,.6.7,2.66,2.66,0,0,0,1.2.3,4.07,4.07,0,0,0,2.4-.8l-.1,2.6Z" transform="translate(0.02 0.01)"/><circle class="cls-25" cx="391.02" cy="35.31" r="8"/><circle class="cls-26" cx="391.02" cy="10.51" r="8"/><circle class="cls-25" cx="415.32" cy="35.31" r="8"/><circle class="cls-26" cx="415.32" cy="10.51" r="8"/><circle class="cls-3" cx="415.32" cy="10.51" r="2.8"/><circle class="cls-19" cx="415.32" cy="35.31" r="2.8"/><polygon id="polygon3855" class="cls-20" points="632.92 236.41 478.73 236.41 466.73 280.41 632.92 280.41 632.92 236.41"/><polygon id="polygon3857" class="cls-7" points="466.73 398.01 616.63 398.01 620.83 390.21 466.73 390.21 466.73 398.01"/><polygon id="polygon3857-2" class="cls-7" points="467.02 417.31 549.73 417.31 552.02 412.91 467.02 412.91 467.02 417.31"/><polygon id="polygon3859" class="cls-27" points="614.23 303.71 478.73 303.71 466.73 347.71 614.23 347.71 614.23 303.71"/><polygon id="polygon4033" class="cls-28" points="632.92 236.41 591.02 236.41 576.92 280.41 632.92 280.41 632.92 236.41"/><polygon id="polygon4035" class="cls-29" points="593.33 236.41 591.02 236.41 576.92 280.41 579.33 280.41 593.33 236.41"/><path class="cls-2" d="M294.6,309.8h-1v-1.5h-5v1.5h-2v-2.9a1.58,1.58,0,0,0-1.6-1.6h-7.8a1.58,1.58,0,0,0-1.6,1.6h0v2.9h-2v-1.5h-5v1.5h-1a1.54,1.54,0,0,0-1.5,1.5h0v18.1a1.54,1.54,0,0,0,1.5,1.5h27.1a1.54,1.54,0,0,0,1.5-1.5h0V311.3A1.56,1.56,0,0,0,294.6,309.8Zm-5-.5h3v.5h-3Zm-13-2.4a.65.65,0,0,1,.6-.6H285a.65.65,0,0,1,.6.6v2.9h-9Zm-1,3.9h15.6v19.1H271V310.8Zm-6-1.5h3v.5h-3ZM267,329.4V311.3a.46.46,0,0,1,.4-.5h2.5v19.1h-2.5a.55.55,0,0,1-.4-.5Zm28.1,0a.46.46,0,0,1-.4.5h-2.6V310.8h2.5a.46.46,0,0,1,.5.4h0v.1h0Z" transform="translate(0.02 0.01)"/></g><path class="cls-2" d="M403.7,431.4v-.3a47.25,47.25,0,1,0,0,.3" transform="translate(0.02 0.01)"/><path class="cls-30" d="M197.4,372.4H187.3a3.08,3.08,0,0,1-3-3v-9.8a3.08,3.08,0,0,1,3-3h10.1a3.08,3.08,0,0,1,3,3v9.8A3,3,0,0,1,197.4,372.4Z" transform="translate(0.02 0.01)"/><path class="cls-30" d="M194.5,374.2v1a3.08,3.08,0,0,1-3,3H181.4a3.08,3.08,0,0,1-3-3v-9.8a3,3,0,0,1,3-3h1" transform="translate(0.02 0.01)"/><rect class="cls-2" x="553.29" y="189.81" width="25.9" height="1.5" transform="translate(31.13 456.22) rotate(-45)"/><rect class="cls-2" x="565.49" y="177.61" width="1.5" height="25.9" transform="translate(31.13 456.22) rotate(-45)"/><polygon class="cls-3" points="292.13 501.71 300.93 493.01 303.13 495.21 292.02 506.21 292.13 501.71"/><polygon class="cls-3" points="298.73 495.21 300.93 493.01 309.73 501.71 309.73 506.11 298.73 495.21"/><rect class="cls-3" x="299.42" y="496.31" width="3.1" height="18.7"/></g><g id="Bm8sUV.tif"><path class="cls-2" d="M252.1,373.5v.5a2.28,2.28,0,0,1-.6,1.2,3.24,3.24,0,0,1-2.2.7l-1.3.1c-.1,0-.2-.1-.3-.1h-.6l-2.4.2-2,.2-1.2.1-2.1.2-2,.2-1.3.1h-.2l-2.1.2-2.4.2a2,2,0,0,0-.8.1l-2.8.2-3.1.3-1.2.1h-.7a2.85,2.85,0,0,1-1.3,0,2,2,0,0,1-1.4-1.4l.4-.4a2.08,2.08,0,0,1,1.2-.5,1.61,1.61,0,0,0,.4.7,1.07,1.07,0,0,0,.6.2c.1,0,.1.1.2.1l.9-.1,1-.1h0l.8-.1h.3l.7-.1,1.2-.1,1.3-.1a3.4,3.4,0,0,0,1-.1,4.1,4.1,0,0,0,1.1-.1c.2,0,.5-.1.7-.1h.2a2.2,2.2,0,0,0,.8-.1c.2,0,.5-.1.7-.1l1.5-.1h.4l1-.1.9-.1,1.1-.1.9-.1h.7a.37.37,0,0,0,.3-.1h.2a3.4,3.4,0,0,0,1-.1c.7-.1,1.4-.1,2.2-.2l1.3-.1.3-.1a3.4,3.4,0,0,0,1-.1l1.5-.1.9-.1.1-.1a1.49,1.49,0,0,0,.9-.2.63.63,0,0,0,.5-.6,1.27,1.27,0,0,0,.1-.6,11,11,0,0,0-.2-1.8l-.3-2.7-.2-2.3a17.85,17.85,0,0,1-.2-2.3,17.85,17.85,0,0,0-.2-2.3l-.3-3c-.1-1-.2-1.9-.3-2.9l.2-.1a9,9,0,0,0,1-.9c.1-.1.2-.1.4,0,0,.1.1.1.1.2s.2.3.1.6v1.2a1.27,1.27,0,0,0,.1.6,2.49,2.49,0,0,0,.1.8,2.77,2.77,0,0,1,.1.9v.7c0,.5.1,1.1.1,1.6s.1.8.1,1.1c0,.5.1,1.1.1,1.6s.1.8.1,1.2l.1,1.6c.1.6.1,1.3.2,2l.1,1.6c.1.5.1,1.3.2,2S252.1,373.1,252.1,373.5Z" transform="translate(0.02 0.01)"/><path class="cls-2" d="M248.4,353.4c.2,0,.3.1.5.1a2.1,2.1,0,0,1,1.1.8l.3.6c0-.1-.1-.1-.1-.2s-.2-.2-.4,0l-1,.9-.2.1-.2-.4,1-1.3c.1-.1.1-.1,0-.2h0c-.1,0-.1-.1-.2-.1l-.2-.1-.2-.1c-.2,0-.4-.1-.7-.1a2.77,2.77,0,0,0-.9.1v-.1l.6-.1h.2Z" transform="translate(0.02 0.01)"/><path class="cls-2" d="M220.3,356l.9-.1v.1c-.4,0-.8.1-1.1.1a1.66,1.66,0,0,0-1.2.5,1.74,1.74,0,0,0-.6,1.1.37.37,0,0,0,.1.3,2.18,2.18,0,0,0,.8.5l.8.2v.2h0l-1.6-.5c-.1,0-.1,0-.1.1v.4l.1.7v.6c.1.9.2,1.8.3,2.6s.2,1.9.3,2.8a22.86,22.86,0,0,1,.2,2.5c.1,1,.2,2.1.3,3.2l.3,2.7c0,.4.1.8.1,1.2s.1.9.1,1.4a.37.37,0,0,0,.1.3,1.94,1.94,0,0,0,1.6,1.4,2.85,2.85,0,0,0,1.3,0h.7l.2.1-.6.1H222a.9.9,0,0,1-.5-.1,2.47,2.47,0,0,1-1.4-2c-.1-1-.2-2.1-.3-3.1s-.2-2.2-.3-3.4-.2-2-.3-3-.2-2.3-.3-3.4l-.3-3a16.35,16.35,0,0,1-.2-2.2,2.14,2.14,0,0,1,1.7-2.1C219.9,356.1,220.1,356.1,220.3,356Z" transform="translate(0.02 0.01)"/><path class="cls-2" d="M220,377c0-.1-.1-.2-.1-.3,0-.5-.1-.9-.1-1.4a.85.85,0,0,1,.7,0l1,.3.1.4a6.12,6.12,0,0,0-1.2.5Z" transform="translate(0.02 0.01)"/><path class="cls-2" d="M250.1,373.7a3.79,3.79,0,0,0,0-1.5c0-.4-.1-.8-.1-1.2-.1-.6-.1-1.1-.2-1.7a8.6,8.6,0,0,1-.1-1.6,7.77,7.77,0,0,0-.2-1.6,5.28,5.28,0,0,1-.1-1.2c-.1-.6-.1-1.1-.2-1.7,0-.4-.1-.8-.1-1.2a10,10,0,0,0-.2-1.6,5.28,5.28,0,0,1-.1-1.2,10,10,0,0,0-.2-1.6,5.28,5.28,0,0,1-.1-1.2,3.55,3.55,0,0,0-.2-1l-.3-.3V355h.1l.1.1.1.1.2.4c.1,1,.2,1.9.3,2.9l.3,3c.1.8.1,1.5.2,2.3s.1,1.5.2,2.3l.2,2.3.3,2.7c.1.6.1,1.2.2,1.8a1.27,1.27,0,0,1-.1.6Z" transform="translate(0.02 0.01)"/><path class="cls-2" d="M223.6,378.4l-.2-.1,1.2-.1,3.1-.3,2.8-.2.1.1Z" transform="translate(0.02 0.01)"/><path class="cls-2" d="M241.5,376.6l1.2-.1,2-.2,2.4-.2h.6a.37.37,0,0,1,.3.1h-.4l-4.2.4-1.6.1Z" transform="translate(0.02 0.01)"/><path class="cls-2" d="M241.5,376.6l.3.1h-.1l-2.2.2-2.9.3H236V377l1.3-.1,2-.2Z" transform="translate(0.02 0.01)"/><path class="cls-2" d="M236.1,377.1v.1l-1.2.1-1.2.1h-.4l-2.6.2-.1-.1c.3,0,.6-.1.8-.1l2.4-.2,2.1-.2Z" transform="translate(0.02 0.01)"/><path class="cls-2" d="M221.6,376l-.1-.4v-.5c0-.5-.1-1.1-.1-1.6a16.83,16.83,0,0,0-.2-2c-.1-.7-.1-1.1-.2-1.6l-.1-1.4h0c0,.3.1.6.1.8.1.6.1,1.1.2,1.7a8.6,8.6,0,0,1,.1,1.6c0,.6.1.9.1,1.3v1l.1.6a1.09,1.09,0,0,0,.1.5.68.68,0,0,0,.4.6h0A.68.68,0,0,1,221.6,376Z" transform="translate(0.02 0.01)"/><path class="cls-2" d="M231.8,376.1h.4l1.4-.1c-.2,0-.5.1-.7.1s-.5.1-.8.1A.77.77,0,0,0,231.8,376.1Z" transform="translate(0.02 0.01)"/><path class="cls-2" d="M247.8,374.6l.3-.1h.7a.1.1,0,0,0-.1.1Z" transform="translate(0.02 0.01)"/><path class="cls-2" d="M239.3,375.4l.4-.1h.6c-.1,0-.2.1-.3.1Z" transform="translate(0.02 0.01)"/><path class="cls-2" d="M245.3,374.8l.4-.1h.6A3.4,3.4,0,0,1,245.3,374.8Z" transform="translate(0.02 0.01)"/><path class="cls-2" d="M228.9,376.4h0Z" transform="translate(0.02 0.01)"/><path class="cls-2" d="M235.3,375.8c.2,0,.4-.1.6-.1h.4Z" transform="translate(0.02 0.01)"/><path class="cls-2" d="M225.4,376.7a1.27,1.27,0,0,0,.6-.1h.4l-.7.1Z" transform="translate(0.02 0.01)"/><path class="cls-2" d="M223.6,376.9h0Z" transform="translate(0.02 0.01)"/><path class="cls-2" d="M247.8,376.1h.1l1.3-.1-.8.1Z" transform="translate(0.02 0.01)"/><path class="cls-2" d="M250.1,373.7h0a.66.66,0,0,1-.4.5Z" transform="translate(0.02 0.01)"/><path class="cls-2" d="M222,376.7h0l.5.2C222.3,376.9,222.2,376.8,222,376.7Z" transform="translate(0.02 0.01)"/><path class="cls-2" d="M230.6,377.7l2.6-.2h.4l-.8.1-1.7.2-1.3.1-1.2.1-1.2.1-1.3.1-1.2.1-1.3.1-1.2.1h-.9c-.2,0-.3-.1-.4-.1a.9.9,0,0,0,.5.1h1.3l.6-.1Z" transform="translate(0.02 0.01)"/><path class="cls-2" d="M236.6,377.1l2.9-.3,2.2-.2h.1l1.6-.1h0c-.6.1-1.2.1-1.8.2l-1.9.2-1.7.1-1.2.1Z" transform="translate(0.02 0.01)"/><path class="cls-2" d="M243.4,376.5h0l4.2-.4h.3l-.8.1-1.7.2-1.2.1Z" transform="translate(0.02 0.01)"/><path class="cls-2" d="M236.6,377.1h0l-1.8.2-1.2.1h-.1l1.2-.1,1.2-.1Z" transform="translate(0.02 0.01)"/><path class="cls-2" d="M236.1,354.5l1.7-.2,2.7-.3,1.3-.1v.1a.9.9,0,0,0-.5.1l-3.1.3-2.1.1Z" transform="translate(0.02 0.01)"/><path class="cls-2" d="M225.5,355.6l2-.2,3.1-.3h.5l.1.1-.9.1-2.8.3-2.1.2Z" transform="translate(0.02 0.01)"/><path class="cls-2" d="M241.8,354.1V354l2-.2,2.7-.3h.7v.1l-.5.1-3.1.3Z" transform="translate(0.02 0.01)"/><path class="cls-2" d="M231.2,355.1l-.1-.1,2.7-.3,2.4-.2v.1l-.5.1-2.8.3C232.3,355,231.8,355.1,231.2,355.1Z" transform="translate(0.02 0.01)"/><path class="cls-2" d="M225.5,355.6v.1h-.2l-2.4.2-1.7.1h0l1.3-.1,2.3-.2Z" transform="translate(0.02 0.01)"/><path class="cls-2" d="M221.2,356.1l1.7-.1,2.4-.2h.2l2.1-.2,2.8-.3.9-.1c.5,0,1.1-.1,1.6-.1l2.8-.3.5-.1,2-.2,3.1-.3a.9.9,0,0,0,.5-.1l1.7-.2,3.1-.3.5-.1c.3,0,.6-.1.9-.1a2,2,0,0,1,.7.1l-.2.2a5,5,0,0,0-.5,1.3c-.2-.1-.3-.1-.5-.2h-1.1a13.55,13.55,0,0,0-2,.2l-1.6.1-2,.2-1.6.1-2,.2-1.6.1-1.6.2-1.6.1-1.8.2h-.2l-1,.1-1.3.1-.8.1-1.7.2-.7.1h-.6l-.4.1-1.3.1-2.1.2a1.29,1.29,0,0,0-.9,1.3l-.8-.2a2.18,2.18,0,0,1-.8-.5.37.37,0,0,1-.1-.3,2.38,2.38,0,0,1,.6-1.1,1.85,1.85,0,0,1,1.2-.5A3.12,3.12,0,0,0,221.2,356.1Z" transform="translate(0.02 0.01)"/><path class="cls-2" d="M248.4,355.4l-.1-.1a5.67,5.67,0,0,1,.8-1.3.35.35,0,0,1,.1-.2c.1,0,.1.1.2.1s.1.1,0,.2h0Z" transform="translate(0.02 0.01)"/><path class="cls-2" d="M249.2,353.8c0,.1,0,.2-.1.2a5.67,5.67,0,0,0-.8,1.3l-.1-.1a.1.1,0,0,1,.1-.1,3.92,3.92,0,0,1,.8-1.4Z" transform="translate(0.02 0.01)"/><path class="cls-2" d="M249,353.7a6.38,6.38,0,0,0-.8,1.4c0,.1,0,.1-.1.1H248a3,3,0,0,1,.5-1.3l.2-.2Z" transform="translate(0.02 0.01)"/><path class="cls-2" d="M231.8,365.5h.8a3.92,3.92,0,0,1,1.8.4,3.15,3.15,0,0,1,1.9,2,3.89,3.89,0,0,1-.2,3,3.94,3.94,0,0,1-2,1.8,8.76,8.76,0,0,1-2.7.6l-2.4.2-2.8.3-1.1.1c-.2,0-.2,0-.2-.2v-.1c-.1-.4,0-.4.4-.4a2.35,2.35,0,0,0,.8-.2.81.81,0,0,0,.5-.9c-.1-1.3-.3-2.7-.4-4l-.6-5.1a7.08,7.08,0,0,1-.1-1.4,1.42,1.42,0,0,0-.2-.6.55.55,0,0,0-.5-.3H224c-.3,0-.3,0-.4-.3s-.1-.4.4-.5l2.8-.3,3.1-.3a7.58,7.58,0,0,1,2.6.1,3.11,3.11,0,0,1,1.9,1.1,2.73,2.73,0,0,1,.5,1.8,3.21,3.21,0,0,1-1,2.2,5.85,5.85,0,0,1-1.7,1Zm-1.5.8h0l-1.6.2a.22.22,0,0,0-.2.2c0,.3.1.6.1,1,.1,1.1.2,2.1.3,3.2a3.59,3.59,0,0,0,.2,1.1.86.86,0,0,0,.7.6h1a2.77,2.77,0,0,0,2.1-1.3,3.2,3.2,0,0,0,.3-3,3,3,0,0,0-1.7-1.8,2.17,2.17,0,0,0-1.2-.2ZM232,363a3.65,3.65,0,0,0-.3-1.5,2.54,2.54,0,0,0-.8-1,2.22,2.22,0,0,0-1.6-.3,4.1,4.1,0,0,0-1.1.1c-.4.1-.4.1-.4.5l.3,3.1c.1.5.1,1,.2,1.5,0,.1,0,.2.2.1a10,10,0,0,0,1.6-.2A2.35,2.35,0,0,0,232,363Z" transform="translate(0.02 0.01)"/><path class="cls-2" d="M240.7,372.3a6.45,6.45,0,0,1-2-.3.37.37,0,0,0-.3.1,1.21,1.21,0,0,0-.5.5c-.1.1-.2.1-.4,0a.77.77,0,0,1-.2-.3c-.1-.9-.1-1.8-.2-2.7s-.2-1.6-.3-2.5-.2-2.1-.3-3.1l-.3-3c0-.1-.1-.2-.2-.3-.3-.1-.5-.2-.8-.3-.1-.1-.2-.2-.2-.3s.1-.1.2-.2a13,13,0,0,0,2.6-1.4c.3-.2.5-.1.5.2.1,1.4.3,2.8.4,4.2.1.6.1,1.2.2,1.8v.2l.1-.1a5.44,5.44,0,0,1,1.8-1.1,4.41,4.41,0,0,1,3.2.2,3.53,3.53,0,0,1,1.6,1.8,4.13,4.13,0,0,1-.1,3.6,4.51,4.51,0,0,1-2,2.1A3.66,3.66,0,0,1,240.7,372.3Zm3-3.4a7.72,7.72,0,0,0-.2-1.5,3.77,3.77,0,0,0-.9-1.5,2.46,2.46,0,0,0-3.3-.1.37.37,0,0,0-.1.3c.1,1.4.3,2.8.4,4.1a.76.76,0,0,0,.2.5,2.89,2.89,0,0,0,2.4.5,1.9,1.9,0,0,0,1.1-.7,3.77,3.77,0,0,0,.4-1.6Z" transform="translate(0.02 0.01)"/><path class="cls-2" d="M223.2,375.7H223c-.1,0-.1-.1-.2-.1l.1-.1a4.33,4.33,0,0,0,.5-.1l3.4-.3,2.9-.3,2.7-.2,2.2-.2,2.3-.3,3-.3,2.3-.2,2.6-.3,2.3-.2,1.6-.1h.1l.2.1-.2.2h-.4l-4.4.4-4.3.4-3.7.4-3,.3-3.4.3-2.6.3-2.7.2Z" transform="translate(0.02 0.01)"/><path class="cls-2" d="M247.2,356.2h.1a.1.1,0,0,1,.1.1l-.1.1c-.2,0-.4.1-.6.1l-3.4.3-3.3.3-3.3.3-3.6.4-2.9.3-2.6.3-3,.3-3,.3h-.1c-.1,0-.2,0-.2-.1a.22.22,0,0,1,.2-.2l.8-.1,3.1-.3,3-.3,3-.3,2.7-.3,2.5-.2,2.6-.3,2.3-.2,2.3-.2,2.2-.2Z" transform="translate(0.02 0.01)"/><path class="cls-2" d="M248.1,355.1v.1l-.3-.1a1.7,1.7,0,0,0-.7-.1l-2,.2-1.6.1-2,.2-1.6.1-2,.2-1.6.1-1.6.2-1.6.1-1.3.1h-1.1l1.8-.2,1.6-.1,1.6-.2,1.6-.1,2-.2,1.6-.1,2-.2,1.6-.1c.7-.1,1.3-.1,2-.2h1A1.42,1.42,0,0,0,248.1,355.1Z" transform="translate(0.02 0.01)"/><path class="cls-2" d="M223.5,366.3c.1,0,.2,0,.2.2v.1c0,.3,0,.3-.3.4l-.9.1c-.1,0-.3-.1-.3-.2v-.1c0-.2,0-.3.2-.4l.6-.1Z" transform="translate(0.02 0.01)"/><path class="cls-2" d="M235.3,365.8h-.2c-.2-.1-.3-.2-.5-.2s-.1-.1-.1-.2a.35.35,0,0,1,.2-.1l1.2-.1c.2,0,.2,0,.3.2.1.4.1.4-.3.5Z" transform="translate(0.02 0.01)"/><path class="cls-2" d="M246.6,364h0c.2.1.1.3.1.5s-.1.1-.1.1c-.3,0-.6.1-.9.1-.1,0-.1,0-.2-.1l-.4-.4c-.1-.1-.1-.1,0-.2Z" transform="translate(0.02 0.01)"/><path class="cls-2" d="M225.5,366.5c0,.2,0,.2-.2.2l-.9.1a.37.37,0,0,1-.3-.1h0v-.3c0-.1,0-.2.1-.2h.1l1-.1c.1,0,.2,0,.2.1h0Z" transform="translate(0.02 0.01)"/><path class="cls-2" d="M248.2,363.8c.3,0,.3.1.4.4s-.1.2-.3.2l-.9.1c-.1,0-.2,0-.2-.1v-.1c0-.3,0-.3.3-.4Z" transform="translate(0.02 0.01)"/><path class="cls-2" d="M220.8,357.5l2.1-.2,1.3-.1c-.1,0-.3.1-.4.1l-2.3.2Z" transform="translate(0.02 0.01)"/><path class="cls-2" d="M220.3,362.8c0,.3.1.5.1.8.1.5.1,1.1.2,1.7l.1,1.4-.1-.3v-.6a6.88,6.88,0,0,0-.2-1.3c-.1-.7-.1-1.4-.2-2Z" transform="translate(0.02 0.01)"/><path class="cls-2" d="M230.9,356.5H232l-2,.2-1.5.1h0l1.3-.1,1-.1Z" transform="translate(0.02 0.01)"/><path class="cls-2" d="M220.8,357.5h0l-.4.4a.91.91,0,0,0-.3,1,7.08,7.08,0,0,1,.1,1.4v-.2a4.48,4.48,0,0,1-.1-1.1v-.2A1.15,1.15,0,0,1,220.8,357.5Z" transform="translate(0.02 0.01)"/><path class="cls-2" d="M219.9,359c0,.4.1.8.1,1.1v.2c0,.2.1.5.1.8l.1,1.7-.1-.3h0V362c0-.2-.1-.6-.1-.9l-.2-1.6.1-.5Z" transform="translate(0.02 0.01)"/><path class="cls-2" d="M220.6,366.4l.1.3.1.8c0,.3.1.7.1,1h0Z" transform="translate(0.02 0.01)"/><path class="cls-2" d="M228.4,356.8Z" transform="translate(0.02 0.01)"/><path class="cls-2" d="M224.6,357.1h.6A.63.63,0,0,1,224.6,357.1Z" transform="translate(0.02 0.01)"/><path class="cls-2" d="M221.5,375.1v.5l-1-.3a.85.85,0,0,0-.7,0c0-.4-.1-.8-.1-1.2l-.3-2.7c-.1-1-.2-2.1-.3-3.2a21.05,21.05,0,0,1-.2-2.5c0-.8-.2-1.9-.3-2.8s-.2-1.8-.3-2.6v-.6c0-.2,0-.2.2-.1a1.55,1.55,0,0,1,1.2,1,1.7,1.7,0,0,1,.1.7c.1.7.1,1.4.2,2.1l.2,1.7c.1.7.1,1.4.2,2.1s.1,1.2.2,1.9.1,1.2.2,1.8l.2,1.9c.1.5.1,1,.2,1.6C221,374.6,221.2,374.9,221.5,375.1Z" transform="translate(0.02 0.01)"/><path class="cls-2" d="M221.5,375.1a1,1,0,0,1-.4-.9c-.1-.5-.1-1-.2-1.6l-.2-1.9c-.1-.6-.1-1.2-.2-1.8s-.1-1.2-.2-1.9-.1-1.4-.2-2.1l-.2-1.7c-.1-.7-.1-1.4-.2-2.1a1.7,1.7,0,0,0-.1-.7,1.41,1.41,0,0,0-1.2-1c-.1,0-.2,0-.2.1l-.1-.7c.1,0,.1-.1.2-.1a7.49,7.49,0,0,1,1.6.5,8.75,8.75,0,0,0,.2,1.6,6.6,6.6,0,0,1,.1,1.4h0c.1.7.1,1.4.2,2a6.88,6.88,0,0,0,.2,1.3v.6l.2,2.2.1,1.4c.1.5.1,1.1.2,1.6s.1,1.3.2,2S221.4,374.6,221.5,375.1Z" transform="translate(0.02 0.01)"/><path class="cls-2" d="M220,359.4a3,3,0,0,0-1.6-.5l-.2.1c-.1,0,0-.3,0-.4a.1.1,0,0,1,.1-.1l1.6.5.1.4Z" transform="translate(0.02 0.01)"/><path class="cls-2" d="M220.2,362.4c0-.5-.1-.9-.1-1.4,0,.3.1.6.1.9A.45.45,0,0,1,220.2,362.4Z" transform="translate(0.02 0.01)"/></g><path class="cls-32" d="M135.4,60.6c.1-.2.1-.7.2-.7a20.25,20.25,0,0,1,3.3-.9c4.1-.1,8.2,0,12.4,0,.1.6.3,1.1.4,1.6a5.91,5.91,0,0,0,5.7,4.1,9.2,9.2,0,0,0,7.4-3.3,10.09,10.09,0,0,0,.7-1.5l.1-.1h-.1v.1a15.53,15.53,0,0,1-3.7.4,2.58,2.58,0,0,1-2.2-2.9,3.1,3.1,0,0,1,.6-1.3,5.31,5.31,0,0,1,5.2-2.4,7.91,7.91,0,0,1,7.3,5,1.3,1.3,0,0,0,1.4.9,24.32,24.32,0,0,1,2.7,0c1-6-1.9-13.6-8.6-15a12.86,12.86,0,0,0-10.8,2.8,46.81,46.81,0,0,0-4.3,4.6,1.9,1.9,0,0,1-1.1.7c-4,0-8.1,0-12.1-.2a17.1,17.1,0,0,1-3-.9c4.6,0,9.2,0,13.8.1a2.14,2.14,0,0,0,1.7-.8,37.81,37.81,0,0,1,4.9-4.9,14.33,14.33,0,0,1,10.1-3.1c4.8.3,7.7,3,9.4,7.3.6,1.7,1.1,3.4,1.7,5l.5,3.3-.1,1h3a1,1,0,0,0,.8-.5c2.3-4.8,5.8-8.7,9.2-12.7a34.37,34.37,0,0,0,3.9-5.5c1.9-3.5,1.6-7.1.2-10.6s-3.1-7.2-4.7-10.8c-1,1.2-2.1,2.4-3.1,3.7a30,30,0,0,1-20.8,11.3,147.12,147.12,0,0,1-14.8,1c-8.8.2-17.6.1-26.4,0a27.36,27.36,0,0,1-5.7-1.1c-.2,0-.4-.4-.7-.5,3.3.1,6.6.2,9.9.2h22.8a79.11,79.11,0,0,0,16.1-1.5c5.1-1,10.2-2.4,14.1-6.1,2.9-2.7,5.4-5.7,8.1-8.6a17.88,17.88,0,0,1,1.3-1.4c1.8,4.4,3.7,8.7,5.4,13.1a22.27,22.27,0,0,1,1.2,5.1c.3,3.5-1.2,6.5-3.1,9.3-.2.3-.4.7-.6,1l.2.3.9-.3c1.3-.5,2.5-1,3.8-1.4a14.25,14.25,0,0,1,6.5-.3c4.1.8,7.7,4.5,7,10.8s-7.6,13.1-14.6,12.2c-.5-.1-1-.1-1.7-.2,1.4,1.9,1.7,3,1.4,4.4a10.4,10.4,0,0,1-8.5,8.8,41.7,41.7,0,0,1-5,0,31.8,31.8,0,0,1-12.5,13.2,1.31,1.31,0,0,1-1.9-.2,14.43,14.43,0,0,1-4.6-8.1c-.3-1.4-.4-2.8-.6-4.4l-44.7.3c1.5-1.3,3.4-1.5,5.2-1.9a29.66,29.66,0,0,1,4.2-.3c10.4,0,20.7-.1,31.1,0a12.86,12.86,0,0,0,11.4-6c.8-1.2,1.5-2.4,2.4-3.9h-3.5c-.3,0-.6.4-1,.6a33.36,33.36,0,0,1-4,2.5,2,2,0,0,1-2.7-.8,2.3,2.3,0,0,1,1.2-2.7,10.09,10.09,0,0,1,1.5-.7c-1.7-1.1-4.1-.8-6.1,1a12.34,12.34,0,0,0-2.2,2.9,1.3,1.3,0,0,1-1.2.8c-11,0-22,.1-33-.1-2.3,0-4.6-.9-6.8-1.5-.6-.2-.7-.4-.5-.9a12.82,12.82,0,0,0,2.7.5h36.8a2.22,2.22,0,0,0,.9-.1c1-1.1,1.9-2.2,3-3.5h-2.6c-3.9,0-6.3-1.7-7.4-5.5a1.45,1.45,0,0,0-1-.7c-3.4,0-6.9-.1-10.3,0A33.74,33.74,0,0,0,135.4,60.6Zm48.3-.9c2.6.3,4.6.4,6-1.7a4.07,4.07,0,0,1,1.4-1.2c2.6-1.8,5.4-3.2,8.7-3a3,3,0,0,1,2.8,1.8,2.35,2.35,0,0,1-.9,2.9,7.26,7.26,0,0,1-3.1,1.7,13.43,13.43,0,0,1-3.5-.3,3.91,3.91,0,0,0,2.9,4.5,7.87,7.87,0,0,0,4.8.1A12.67,12.67,0,0,0,211.9,54c.6-5.2-2.4-8.6-6-9.4a11.64,11.64,0,0,0-6.4.3,23.73,23.73,0,0,0-12.1,9C186.1,55.7,185.1,57.6,183.7,59.7Zm-3.6,8.1h-2.4a1.83,1.83,0,0,0-1.9,1.2,18.91,18.91,0,0,1-8,9,1.56,1.56,0,0,0-.6.8,14.66,14.66,0,0,0,4.3,11.9,1.26,1.26,0,0,0,1.2.1A28.62,28.62,0,0,0,183.5,79a1.72,1.72,0,0,0-.2-1.2,8.28,8.28,0,0,1-2.9-5.2c-.2-1.5-.2-3.1-.3-4.8Zm10.3-.6c1,.2,1.9.6,1.8,1.8a2.46,2.46,0,0,1-1.9,2.2,3.34,3.34,0,0,1-4-1.8,2.07,2.07,0,0,0-2.5-1.3h-1.1c-.8-.1-1.2.2-1.1,1.1.1,1.1.1,2.2.3,3.3a6.34,6.34,0,0,0,3.8,5c4.4,1.8,10.1-1.1,11.2-5.7.5-2.1,0-3.7-1.4-4.7a4.35,4.35,0,0,0-5.1.1ZM180,61.3h-7.3a3.25,3.25,0,0,0-3.2,2.1,2,2,0,0,0,.6,2.7,2.77,2.77,0,0,0,1.3.3h14.7a3.53,3.53,0,0,0,3.1-1.8c1-1.8.2-3.2-1.9-3.2Zm-12.3,4a5,5,0,0,1,3-4.8c.6-.3.7-.6.4-1.2a6.92,6.92,0,0,0-5.4-3.9c-1.3-.2-2.6-.3-3.6.7-.4.4-.9,1.2-.7,1.5a2.62,2.62,0,0,0,1.6,1.3,5.42,5.42,0,0,0,2.5-.6,17.36,17.36,0,0,0,2.6-1.5l.3.2a20.88,20.88,0,0,1-1.7,4.1,26,26,0,0,1-3,3.6Zm26.7-8.8c.8.7,1.4,1.2,2.1,1.8a2.73,2.73,0,0,0,3.5.2c.5-.4,1.2-1.3,1.1-1.8a2.26,2.26,0,0,0-1.7-1.3c-4.1-.3-7.2,1.8-9.9,4.6,2,1.6,2.1,2.3.9,5.4l4.8-.6c-2.6-2.5-1.5-5.3-.8-8.3ZM167.9,69.1l-.1-.5a7.39,7.39,0,0,0-2.1,0c-.2.1-.4.6-.6.9.3.1.6.4.9.4C166.7,69.6,167.3,69.4,167.9,69.1Zm20.4-.4-.1.5a13.36,13.36,0,0,0,1.8.7c.3.1.6-.3.9-.4-.2-.3-.4-.8-.7-.8a6,6,0,0,0-1.9,0Z" transform="translate(0.02 0.01)"/><path class="cls-33" d="M119.7,33.5a10.93,10.93,0,0,1,6-1.9c1.9-.2,3.9-.2,5.9-.3,8.5-.1,17,0,25.5-.3a83,83,0,0,0,12.2-1.5c5.8-.9,10.4-4.1,14.1-8.5,3.2-3.8,6.5-7.6,9.8-11.3l.9-1c.4,1.4.8,2.7,1.2,4a78.19,78.19,0,0,0,5.1,13.5c1.9,4.2,2.6,8.6,1.1,13.2a36.84,36.84,0,0,1,4.7,0c7.1.8,11.4,6,10.8,13.3-.6,7-4.5,11.8-10.4,15.2-1.3.8-3.2.8-4.1,1.8s-.8,2.8-1.4,4.2a15.72,15.72,0,0,1-13.2,9.2,2.25,2.25,0,0,0-2.1,1.2,38.29,38.29,0,0,1-15.4,13.1,18.38,18.38,0,0,1-8.5-14.2h-1.3c-8.8,0-17.6.1-26.4.1a39.4,39.4,0,0,1-7.7-.7,34.88,34.88,0,0,1-5.7-2c1.2,0,2.4.1,3.6.1h40.5c.1.8.1,1.5.2,2.2a16.06,16.06,0,0,0,5.6,10.4,1.25,1.25,0,0,0,1.7.2A33.41,33.41,0,0,0,185,80.8a1.08,1.08,0,0,1,1.4-.7,9.84,9.84,0,0,0,6.1-.8c4.3-1.8,8.2-6.8,6.3-12.1,1.1,0,2.2-.1,3.3-.2a14.85,14.85,0,0,0,11.6-11c2.3-8.1-3.3-14.5-11.7-13.4a47,47,0,0,0-5.1,1.2,59.49,59.49,0,0,0,2.2-5.9c.9-3.5-.1-6.7-1.5-9.9s-2.6-6.2-3.9-9.3a23.76,23.76,0,0,1-1.1-3.8c-2.4,2.7-4.8,5.2-7,7.9a25.88,25.88,0,0,1-14.1,8.5,75,75,0,0,1-17.6,2.1C142.5,33.3,131.1,33.4,119.7,33.5Z" transform="translate(0.02 0.01)"/><path class="cls-34" d="M179,58.6c-.1-1.1-.3-2.2-.5-3.3a29.71,29.71,0,0,0-.8-4.3c-2-6.5-6.6-9.5-13.3-8.6-5.3.7-9.2,3.6-12.3,7.7a2,2,0,0,1-2,1c-4.2,0-8.4.1-12.6.2-.3,0-.5-.1-.8-.1a15.7,15.7,0,0,1,8-1.5c2.6.1,4.7-.2,6-2.8a10,10,0,0,1,2.2-2.4l2.6-1.9,1-.5-.1-.2h-16c-4.2,0-8.4.2-12.7.3a21.58,21.58,0,0,1,3.4-1.7,39.6,39.6,0,0,1,7.7-1c9.1-.1,18.3-.1,27.4,0,6.2,0,10.9,4.2,12.5,10.8A17.89,17.89,0,0,1,179,58.6Z" transform="translate(0.02 0.01)"/><path class="cls-35" d="M119.7,33.5c11.4-.1,22.8-.1,34.2-.3a75,75,0,0,0,17.6-2.1,25.53,25.53,0,0,0,14.1-8.5c2.2-2.6,4.6-5.2,7-7.9.4,1.3.6,2.6,1.1,3.8,1.2,3.1,2.6,6.2,3.9,9.3s2.4,6.4,1.5,9.9a41.88,41.88,0,0,1-2.2,5.9,47,47,0,0,1,5.1-1.2c8.4-1.1,14,5.3,11.7,13.4a15.15,15.15,0,0,1-11.6,11,18.29,18.29,0,0,1-3.3.2c1.9,5.3-2,10.3-6.3,12.1a9.84,9.84,0,0,1-6.1.8,1.08,1.08,0,0,0-1.4.7,33.41,33.41,0,0,1-12.6,12.7,1.25,1.25,0,0,1-1.7-.2,16.3,16.3,0,0,1-5.6-10.4,13.79,13.79,0,0,1-.2-2.2H124.4c-1.2,0-2.4,0-3.6-.1h0V80h0l44.8-.4c.2,1.6.3,3,.6,4.4a14.43,14.43,0,0,0,4.6,8.1,1.31,1.31,0,0,0,1.9.2,32.44,32.44,0,0,0,12.5-13.2,41.7,41.7,0,0,0,5,0,10.29,10.29,0,0,0,8.5-8.8c.2-1.5-.1-2.5-1.4-4.4a9.85,9.85,0,0,0,1.7.2c7,.9,13.8-5.7,14.6-12.2.7-6.3-2.9-10-7-10.8a14.25,14.25,0,0,0-6.5.3c-1.3.4-2.5,1-3.8,1.4l-.9.3-.2-.3c.2-.3.4-.7.6-1,2-2.8,3.4-5.8,3.1-9.4a14.64,14.64,0,0,0-1.2-5.1c-1.7-4.4-3.6-8.7-5.4-13.1-.4.4-.8.9-1.3,1.4-2.7,2.9-5.3,5.9-8.1,8.6-3.9,3.7-9,5-14.1,6.1a86.91,86.91,0,0,1-16.1,1.5H129.9c-3.3,0-6.6-.2-9.9-.2h0l-.3-.1Z" transform="translate(0.02 0.01)"/><path class="cls-34" d="M116.6,69.1a18,18,0,0,1,8.7-2.3c7.2-.2,14.4-.1,21.7-.2h1.3c-.7-1.4-1.3-2.8-2-4.1-.1-.3-.7-.3-1.1-.4-2.4-.2-4.9-.3-7.4-.7a10.14,10.14,0,0,1-2.4-1h13.8c1.4,4.6,4.5,6.5,9,6.3-.8,1.9-2.2,2.3-4.1,2.2-11.3-.1-22.6,0-33.8,0A23.58,23.58,0,0,1,116.6,69.1Z" transform="translate(0.02 0.01)"/><path class="cls-36" d="M116.6,69.1H154c1.9,0,3.3-.3,4.1-2.2-4.5.2-7.6-1.7-9-6.3H135.4a19.09,19.09,0,0,1,3.3-.6c3.4-.1,6.9,0,10.3,0a1.2,1.2,0,0,1,1,.7c1.2,3.7,3.5,5.5,7.4,5.5H160c-1.1,1.3-2,2.4-3,3.5-.2.2-.6.1-.9.1H119.3a25.58,25.58,0,0,1-2.7-.5Z" transform="translate(0.02 0.01)"/><path class="cls-37" d="M155.5,42.6l-2.6,1.9a5,5,0,0,0-1.2-.2H135.9a16.39,16.39,0,0,1-8.1-1.9c1.2.1,2.5.2,3.7.2Z" transform="translate(0.02 0.01)"/><path class="cls-38" d="M136.9,51.1a2.2,2.2,0,0,0,.8.1c4.2-.1,8.4-.2,12.6-.2a2,2,0,0,0,2-1c3.1-4.2,7.1-7.1,12.3-7.7,6.6-.8,11.2,2.2,13.2,8.7a21.42,21.42,0,0,1,.7,4.3c-.6-1.7-1-3.4-1.7-5-1.7-4.3-4.7-7-9.4-7.3a14.34,14.34,0,0,0-10,3,37.81,37.81,0,0,0-4.9,4.9,1.88,1.88,0,0,1-1.7.8c-4.6,0-9.2,0-13.8-.1h0l-.1-.5Z" transform="translate(0.02 0.01)"/><path class="cls-39" d="M155.5,42.6h-24c-1.2,0-2.5-.1-3.7-.2l-.1-.3c4.2-.1,8.4-.3,12.7-.3,5-.1,9.9,0,14.9,0h1.1l.1.2Z" transform="translate(0.02 0.01)"/><path class="cls-32" d="M136.8,51.1l.2.6Z" transform="translate(0.02 0.01)"/><path class="cls-32" d="M119.7,33.4v.3l-.4-.1Z" transform="translate(0.02 0.01)"/><path class="cls-32" d="M120.7,80Z" transform="translate(0.02 0.01)"/><path class="cls-40" d="M167.7,65.3l-4-.6a26,26,0,0,0,3-3.6,29,29,0,0,0,1.6-4.1l-.3-.2c-.8.5-1.7,1-2.6,1.5a5.42,5.42,0,0,1-2.5.6,2.33,2.33,0,0,1-1.6-1.3c-.2-.3.3-1.2.7-1.5a3.91,3.91,0,0,1,3.6-.7,7.08,7.08,0,0,1,5.4,3.9c.3.6.2.9-.4,1.2A5.44,5.44,0,0,0,167.7,65.3Zm1.2-8c-.7,2.7-1.6,5-3.7,6.7l1.9.3a6.69,6.69,0,0,1,3.6-4.7Zm-1.6-.9c-1.8-.6-3.3-.8-4.7.1a1.77,1.77,0,0,0-.5.8,1,1,0,0,0,.8.7,4.13,4.13,0,0,0,1.9-.2,12.85,12.85,0,0,0,2.5-1.4Z" transform="translate(0.02 0.01)"/><path class="cls-41" d="M194.4,56.5c-.7,3-1.7,5.8.8,8.2l-4.8.6c1.1-3,1-3.8-.9-5.4,2.7-2.8,5.8-4.9,9.9-4.6a2.26,2.26,0,0,1,1.7,1.3c.1.5-.5,1.3-1.1,1.8a2.72,2.72,0,0,1-3.5-.2A15.66,15.66,0,0,1,194.4,56.5Zm3.1-.5-2.1.6,2.4,1.7h.9l1.8-1.3a.1.1,0,0,0,0-.2l-1.1-.8-.8-.2h0Zm-4.2,2.1-.3-.3-2.6,2c1.6,1.3,1.5,2.9,1.2,4.5l2-.3C192.5,62,192.8,60.1,193.3,58.1Z" transform="translate(0.02 0.01)"/><path class="cls-42" d="M167.9,69.1a10.84,10.84,0,0,1-1.9.8c-.2.1-.6-.2-.9-.4.2-.3.4-.8.6-.9a7.39,7.39,0,0,1,2.1,0Z" transform="translate(0.02 0.01)"/><path class="cls-43" d="M188.3,68.7a12.1,12.1,0,0,1,1.9-.1c.3,0,.4.5.7.8-.3.2-.7.5-.9.4a13.36,13.36,0,0,1-1.8-.7Z" transform="translate(0.02 0.01)"/><path class="cls-44" d="M168.9,57.3l1.8,2.3a6.63,6.63,0,0,0-3.6,4.7l-1.9-.4C167.3,62.2,168.2,60,168.9,57.3Z" transform="translate(0.02 0.01)"/><path class="cls-45" d="M167.2,56.4c-.8.5-1.6,1-2.5,1.5a4,4,0,0,1-1.9.2,1.14,1.14,0,0,1-.8-.7c-.1-.2.2-.7.5-.8C164,55.6,165.4,55.9,167.2,56.4Z" transform="translate(0.02 0.01)"/><path class="cls-46" d="M193.3,58.1c-.4,2-.8,3.9.4,5.9l-2,.3c.2-1.6.4-3.2-1.2-4.5l2.6-2Z" transform="translate(0.02 0.01)"/><path class="cls-47" d="M198.6,55.8h0l.8.2,1.1.8V57l-1.8,1.3h-.9l-2.4-1.7,2.1-.6Z" transform="translate(0.02 0.01)"/><path class="cls-48" d="M197.7,58.2h0Z" transform="translate(0.02 0.01)"/><path class="cls-48" d="M198.6,55.8l-1.1.2Z" transform="translate(0.02 0.01)"/><path class="cls-48" d="M199.4,56l-.8-.2Z" transform="translate(0.02 0.01)"/><path class="cls-48" d="M200.5,57v0Z" transform="translate(0.02 0.01)"/><text class="cls-49" transform="translate(205.57 37.41) scale(1.14 1)">TM</text><path class="cls-2" d="M204.5,315c-.6-5-29.6,1.6-27.9,6.4C177.1,326.4,206.1,319.8,204.5,315Zm-26.6,5.6c-1.3-3.5,23.4-9.5,23.8-5.8C203,318.3,178.3,324.3,177.9,320.6Zm25.1-5.2c-1.6,3.1-12.2,5.9-15.2,6.1a53.08,53.08,0,0,0,11.1-3.5c6.6-3.3,3.1-4.6-2.1-4.3h0C197.8,313.7,203.4,312.9,203,315.4Z" transform="translate(0.02 0.01)"/></g></g><g id="Layer_2-2" data-name="Layer 2"><path class="cls-51" d="M77.44,60.47c-.3.54-.63,1.07-1,1.6A56.18,56.18,0,0,1,65.31,74.32a93.46,93.46,0,0,1-11.56,8.22c-1,.61-1.92,1.13-2.68,1.55-.75-.42-1.65-.94-2.67-1.55a92.72,92.72,0,0,1-11.56-8.22,67.78,67.78,0,0,1-6.48-6.19" transform="translate(0.02 0.01)"/><path class="cls-52" d="M31.36,71a44.48,44.48,0,0,1-4.47-5.77,25.43,25.43,0,0,1-4.46-13.72V15.92A111.91,111.91,0,0,1,34,13.68a126.1,126.1,0,0,1,34.13,0,112.1,112.1,0,0,1,11.62,2.24V51.53a24.47,24.47,0,0,1-3.54,12.19" transform="translate(0.02 0.01)"/><path class="cls-51" d="M81.38,14a100.58,100.58,0,0,0-14.44-3.09,115.42,115.42,0,0,0-31.65,0A100.43,100.43,0,0,0,20.84,14l-.43.13V50a28,28,0,0,0,4.8,15.12,52.83,52.83,0,0,0,10.46,11.6A84.53,84.53,0,0,0,46.1,84.14c2.81,1.71,4.67,2.62,4.75,2.65l.26.13.26-.13c.08,0,1.94-.94,4.75-2.65a83.78,83.78,0,0,0,10.43-7.47A52.83,52.83,0,0,0,77,65.07,27.93,27.93,0,0,0,81.81,50V14.16ZM79.15,50a25.36,25.36,0,0,1-4.38,13.67,50.13,50.13,0,0,1-9.94,11,81.8,81.8,0,0,1-10.08,7.22c-1.59,1-2.85,1.66-3.64,2.07-.79-.41-2-1.11-3.63-2.07a81.79,81.79,0,0,1-10.09-7.22,50.38,50.38,0,0,1-9.94-11A25.35,25.35,0,0,1,23.08,50V16.18A99.14,99.14,0,0,1,35.65,13.6a113.27,113.27,0,0,1,30.92,0,99.3,99.3,0,0,1,12.58,2.58Z" transform="translate(0.02 0.01)"/><path class="cls-53" d="M51.07,90.81l-.64-.31c-.08,0-2.13-1-5.19-2.88a91.9,91.9,0,0,1-11.36-8.09A57.43,57.43,0,0,1,22.41,66.91,30.73,30.73,0,0,1,17.1,50.24v-39l1.06-.31A110.31,110.31,0,0,1,33.87,7.58a126,126,0,0,1,34.41,0A110.31,110.31,0,0,1,84,10.91h0l1.06.31v39a30.73,30.73,0,0,1-5.31,16.67A57.68,57.68,0,0,1,68.27,79.53a90.83,90.83,0,0,1-11.36,8.09c-3.07,1.85-5.11,2.84-5.19,2.88ZM18.75,12.46V50.24A29.06,29.06,0,0,0,23.8,66,55.57,55.57,0,0,0,34.94,78.27,89.18,89.18,0,0,0,46.09,86.2c2.7,1.64,4.58,2.58,5,2.78.41-.2,2.27-1.14,5-2.78a88.14,88.14,0,0,0,11.15-7.93A55.82,55.82,0,0,0,78.35,66,29.06,29.06,0,0,0,83.4,50.24V12.46A108.31,108.31,0,0,0,68.05,9.21a124.78,124.78,0,0,0-33.95,0A108.31,108.31,0,0,0,18.75,12.46Z" transform="translate(0.02 0.01)"/><path class="cls-2" d="M83.8,11.72A108.78,108.78,0,0,0,68.2,8.4,126.4,126.4,0,0,0,34,8.4a108.78,108.78,0,0,0-15.6,3.32l-.47.13v38.4a29.86,29.86,0,0,0,5.19,16.22,56.48,56.48,0,0,0,11.3,12.44,90.38,90.38,0,0,0,11.25,8c3,1.83,5,2.81,5.13,2.85l.28.14.29-.14c.08,0,2.09-1,5.13-2.85a90.38,90.38,0,0,0,11.25-8,56.48,56.48,0,0,0,11.3-12.44,29.84,29.84,0,0,0,5.18-16.22V11.85ZM81.39,50.25a27,27,0,0,1-4.73,14.66,53.59,53.59,0,0,1-10.73,11.8A86.86,86.86,0,0,1,55,84.45c-1.71,1-3.07,1.78-3.93,2.23-.85-.45-2.21-1.2-3.92-2.23A86.86,86.86,0,0,1,36.3,76.71a53.59,53.59,0,0,1-10.73-11.8,27,27,0,0,1-4.73-14.66V14a111,111,0,0,1,13.58-2.77,123.89,123.89,0,0,1,33.39,0A111,111,0,0,1,81.39,14Z" transform="translate(0.02 0.01)"/><polygon class="cls-51" points="76.11 62.99 77.8 59.84 28.83 67.99 30.9 70.52 76.11 62.99"/><polyline class="cls-2" points="78.14 62.62 76.68 65.38 76.69 65.38 31.49 72.96 31.49 72.96 29.6 70.68 29.6 70.68 78.15 62.63"/><path class="cls-51" d="M36.3,25.1h32c-2.08-6-7.59-10.76-16.93-11.06C43,14.7,39.16,19.4,36.29,25.1" transform="translate(0.02 0.01)"/><path class="cls-51" d="M52.51,12.91a.24.24,0,0,0-.22-.25h-.73l.14-3.31-.6-.81-.57.81.15,3.31h-.74a.25.25,0,0,0,0,.5v1.23h2.35V13.16A.24.24,0,0,0,52.51,12.91Z" transform="translate(0.02 0.01)"/><polyline class="cls-2" points="50.53 12.55 50.37 9.13 50.54 9.13 50.7 12.55"/><polyline class="cls-2" points="51.59 12.55 51.73 9.13 51.9 9.13 51.75 12.55"/><polygon class="cls-51" points="32.41 68.71 28.9 67.12 28.9 46.24 29.36 45.6 29.36 40.47 30.11 39.64 30.11 37.27 29.87 36.37 27.34 35.55 29.85 33.46 28.71 32.91 33.79 23.83 39.1 25.02 40.37 25.02 43.37 22.56 45.13 22.89 45.13 66.47 32.41 68.71"/><polyline class="cls-2" points="76.32 39.76 76.32 44.79 76.32 44.79 76.68 44.79 76.68 47.92 77.93 48.29 77.93 49.87 76.68 50.56 76.68 62.94 44.79 68.48 44.79 45.72 43.87 44.96 43.87 43.37 43.86 43.37 44.35 43.49 44.35 39.72 43.87 38.49 45.13 38.73 45.13 38.73 45.13 28.6 44.35 28.43 44.35 25.63 44.09 24.38 43.34 22.55 49.78 23.63 61.07 19.9 71.6 26.85 71.09 27.29 76.99 28.45 74.31 30.69 74.31 33.25 75.45 34.37 75.45 38.51 76.31 39.76"/><polygon class="cls-2" points="76.32 44.79 76.32 44.36 76.68 44.79 76.32 44.79"/><polyline class="cls-2" points="38.53 42.87 37.73 42.25 38.53 41.63 38.53 33.2 38.53 33.2 37 32.31 38.78 30.58 39.53 30.77 39.53 28.05 39.53 28.05 31.06 34.38 31.06 35.71 31.06 35.71 29.87 36.37 27.3 35.56 27.3 35.55 29.8 33.46 28.67 32.91 33.76 23.81 39.14 25.02 40.37 25.02 40.37 25.02 43.34 22.54 44.12 24.37 44.36 25.58 41.19 28.28 41.19 31.2 41.19 31.2 40.84 31.12 40.74 31.92 40.74 40.84 40.74 40.84 43.87 38.49 44.36 39.72 40.74 42.26 40.74 45.56 40.74 45.56 43.87 43.37 44.79 43.6 44.79 45.72 40.55 48.25 40.74 52.34 40.11 52.53 39.84 52.45 39.29 52.98 38.88 52.45 39.13 51.56 37.9 49.89 32.98 53.24 33.17 57.37 32.55 57.54 32.26 57.54 31.74 58.03 31.34 57.48 31.79 56.64 30.48 54.97 28.9 55.97 27.69 55.87 27.69 54.47 30.22 52.72 30.22 52.16 29.71 51.92 31.19 50.79 31.19 48.52 28.91 50.14 28.25 49.42 30.84 47.44 30.56 47.16 31.19 46.59 31.19 38.49 31.19 38.49 29.55 37.54 31.63 35.99 32.82 36.08 33.17 37.54 33.17 46.07 33.16 46.07 33.61 46.16 33.37 47.32 33.37 50.43 37.77 47.5 37.77 46.82 37.21 46.59 38.53 45.66 38.53 42.87"/><polyline class="cls-51" points="30.25 33.25 39.27 26.47 34.56 25.41 34.56 25.39 30.24 33.25"/><path class="cls-51" d="M57.27,59.5v9.22l7.89-1.21V60.93l0,0A5.24,5.24,0,0,0,61,57.09l.08,0a3.3,3.3,0,0,0-3.78,2.21" transform="translate(0.02 0.01)"/><polyline class="cls-54" points="53.6 40.53 53.38 40.75 53.38 40.75 53.38 41.02 53.37 41.02 65.93 43.03 65.94 43.05 65.94 42.59 65.94 42.6 53.56 40.57"/><polyline class="cls-55" points="68.38 49.26 68.06 48.6 68.06 48.6 68.1 48.61 68.1 48.6 68.38 49.26"/><line class="cls-51" x1="70.23" y1="27.99" x2="70.24" y2="27.99"/><polygon class="cls-53" points="44.84 46.09 76.68 50.55 77.98 49.85 77.98 48.1 43.87 43.38 43.87 44.96 44.84 46.09"/><polyline class="cls-53" points="49.78 23.62 61.08 19.9 71.61 26.86 70.25 28.01 69.37 29.07 69.37 29.82 69.37 29.82 50.73 26.63 50.73 26.63 50.43 25.34 49.78 23.62"/><polygon class="cls-53" points="76.68 44.83 77.44 43.85 43.86 38.49 44.35 39.73 76.68 44.83"/><polygon class="cls-53" points="76.99 28.45 71.09 27.29 70.24 27.99 69.36 29.06 69.36 29.82 74.31 30.69 76.99 28.45"/><polyline class="cls-53" points="49.78 23.63 43.34 22.55 44.12 24.37 44.34 25.6 51.8 26.81 51.8 26.05 51.48 24.69 50.94 23.24 49.78 23.62"/><polygon class="cls-2" points="60.69 21.7 51.49 24.73 70.02 27.86 60.69 21.7"/><polygon class="cls-2" points="53.19 40.52 67.86 42.91 67.86 39.81 53.19 37.45 53.19 40.52"/><line class="cls-1" x1="65.45" y1="34.58" x2="67.86" y2="34.98"/><polyline class="cls-53" points="53.17 32.55 67.86 34.98 67.86 35.41 53.17 33.02 53.17 32.55"/><path class="cls-51" d="M55.64,38.61l0-3.21a1.68,1.68,0,0,1-.67.06V35c.35,0,.7-.18.81-.75l.35,0,0,4.38c0,.2.06.24.17.27l.39,0v.49l-1.61-.16v-.49l.43,0C55.58,38.87,55.64,38.76,55.64,38.61Z" transform="translate(0.02 0.01)"/><path class="cls-51" d="M57.69,37.19A1.5,1.5,0,0,1,57.23,36a1.2,1.2,0,0,1,1.47-1.2A1.37,1.37,0,0,1,60,36.19a1.27,1.27,0,0,1-.73,1.09,1.4,1.4,0,0,1,.67,1.38,1.24,1.24,0,0,1-1.56,1.22A1.47,1.47,0,0,1,57,38.29,1.22,1.22,0,0,1,57.69,37.19Zm.68,2.2a.71.71,0,0,0,.91-.72.74.74,0,0,0-.36-.71L58,37.44a1,1,0,0,0-.52.86A1,1,0,0,0,58.37,39.39Zm-.15-2.73.63.37a1,1,0,0,0,.57-.87.83.83,0,0,0-.75-.94.65.65,0,0,0-.82.67A.82.82,0,0,0,58.22,36.66Z" transform="translate(0.02 0.01)"/><path class="cls-51" d="M61.74,39.58l0-.68-1.59-.24,0-.52L62,35.27l.48.07-.16,3.11.7.11,0,.52L62.31,39l0,.69c0,.21.06.26.19.3l.37,0,0,.49-1.68-.25,0-.49.4.06C61.65,39.84,61.73,39.72,61.74,39.58ZM60.65,38.2l1.15.17.11-2.18Z" transform="translate(0.02 0.01)"/><polygon class="cls-51" points="50.73 26.63 50.73 29.08 50.22 29.4 51.2 31.19 51.2 39.35 50.99 39.42 51.55 40.58 51.55 44.44 51.95 45.03 51.95 46.16 52.2 46.2 52.04 46.68 52.04 50.97 52.77 50.51 52.49 49.83 53.28 46.56 52.77 45.74 52.77 44.61 52.49 43.98 52.49 40.31 51.88 39.26 52.49 39.34 52.49 30.51 51.55 28.76 51.8 28.81 51.8 26.05 51.48 24.69 50.94 23.24 49.78 23.63 50.43 25.34 50.73 26.63"/><polygon class="cls-51" points="51.95 46.16 52.04 46.68 52.2 46.2 51.95 46.16"/><rect class="cls-51" x="49.73" y="23.4" width="1.22" height="0.04" transform="translate(-4.8 17.13) rotate(-18.43)"/><polygon class="cls-51" points="54.16 50.71 53.44 51.2 53.44 45.75 54.3 45.88 54.69 46.76 53.88 50.06 54.16 50.71"/><polyline class="cls-53" points="55.28 46.11 55.28 44.98 55.81 44.45 54.49 44.26 54.49 40.57 55.48 39.61 54.49 39.48 54.49 31.03 55.63 29.54 51.55 28.76 52.49 30.51 52.49 39.34 51.88 39.26 52.49 40.31 52.49 43.98 52.77 44.61 52.77 45.74 53.28 46.56 52.49 49.83 52.77 50.51 52.04 50.97 52.76 50.97 53.32 50.49 53.06 49.84 53.91 46.66 53.55 45.86 54.34 45.97 54.69 46.76 54.69 46.76 53.88 50.06 54.16 50.71 53.44 51.2 54.16 51.2 54.72 50.73 54.45 50.06 55.31 46.87 54.95 46.07 55.28 46.11"/><polyline class="cls-51" points="67.63 46.33 68.03 46.05 68.34 46.77 68.34 47.8 68.78 48.59 67.96 51.85 68.26 52.56 67.52 53.01 67.52 48.77 67.72 48.36 67.68 47.09 67.51 46.65 66.81 46.55 66.81 42.87 66.36 41.89 66.86 41.6 66.86 33.36 66.15 31.95 66.82 31.38 67.63 33.1 67.63 41.64 67.24 41.57 67.63 42.56 67.63 46.33"/><polygon class="cls-51" points="69.34 52.08 69.64 52.78 68.97 53.24 68.97 47.83 69.64 47.95 70.17 48.81 69.34 52.08"/><polyline class="cls-53" points="67.52 53.01 68.25 52.56 67.95 51.85 68.78 48.58 68.34 47.8 68.34 46.76 68.02 46.05 67.62 46.33 67.62 46.33 67.62 42.56 67.62 42.56 67.24 41.56 67.62 41.64 67.62 33.1 66.81 31.38 70.96 31.9 69.39 33.32 69.39 41.86 69.38 41.86 70.35 42.04 69.38 42.93 69.38 46.41 71.29 46.7 70.78 47.04 70.78 48.24 70.44 48.18 70.76 48.89 69.93 52.09 70.19 52.76 69.66 53.24 68.97 53.24 69.64 52.78 69.34 52.08 70.17 48.81 69.73 48.05 69.04 47.93 69.36 48.67 68.53 51.87 68.79 52.52 68.23 53.01 67.51 53.01"/><path class="cls-51" d="M64.24,36.45l-.13,1.21a1.08,1.08,0,0,1,1-.33c1,.12,1.31,1,1.25,1.87-.07,1.17-.77,1.8-1.73,1.68a1.29,1.29,0,0,1-1.22-1.31c0-.34.21-.65.52-.62a.51.51,0,0,1,.39.56c0,.29-.19.44-.42.42a.77.77,0,0,0,.7.42c.66.08,1-.42,1-1.17s-.15-1.25-.79-1.33c-.34,0-.53.07-.74.42l-.44-.06.23-2.56" transform="translate(0.02 0.01)"/><polyline class="cls-51" points="63.87 35.66 66.35 36.09 66.28 36.82 64.26 36.46"/><polygon class="cls-51" points="29.07 56.29 27.41 56.12 27.4 54.16 29 53.05 29.24 53.39 27.82 54.38 27.83 55.74 29.11 55.87 29.07 56.29"/><polygon class="cls-51" points="28.91 50.51 27.85 49.25 29 48.32 29.26 48.65 28.45 49.31 29.23 50.24 28.91 50.51"/><polygon class="cls-51" points="30.14 38.37 28.84 37.6 30.04 36.65 30.3 36.98 29.58 37.55 30.35 38 30.14 38.37"/><polygon class="cls-51" points="30.3 36.73 26.88 35.64 29.41 33.5 28.37 33 33.69 23.36 39.23 24.61 39.13 25.02 33.91 23.84 28.96 32.81 30.18 33.41 27.73 35.47 30.43 36.33 30.3 36.73"/><polyline class="cls-51" points="76.26 50.49 76.26 62.96 76.68 62.87 76.68 50.55"/><polyline class="cls-51" points="76.68 47.92 76.68 44.84 76.26 44.77 76.26 47.86"/><polyline class="cls-51" points="76.32 43.67 76.32 39.71 75.45 38.46 75.45 34.3 74.31 33.18 74.31 30.69 73.89 30.61 73.89 33.35 75.03 34.47 75.03 38.59 75.9 39.84 75.9 43.6"/><polygon class="cls-51" points="74.07 30.9 73.82 30.56 76.64 28.44 70.61 27.43 71.42 26.74 67.31 24.02 67.54 23.66 72.12 26.69 71.57 27.16 77.68 28.19 74.07 30.9"/><polyline class="cls-51" points="76.26 44.97 76.46 45.13 77.74 43.47 75.96 43.19 75.89 43.6 76.97 43.78 76.26 44.7"/><polyline class="cls-51" points="76.26 48.07 77.76 48.28 77.76 49.65 76.27 50.49 76.47 50.86 78.18 49.89 78.19 47.91 76.29 47.65 76.26 47.86"/></g></svg>