<svg id="Layer_1" data-name="Layer 1" xmlns="http://www.w3.org/2000/svg" viewBox="0 0 707.64 648.11"><defs><style>.cls-1{fill:#fff;}.cls-2{fill:#fae965;}.cls-3,.cls-4{fill:#17468f;}.cls-4{opacity:0.99;isolation:isolate;}.cls-5{fill:#d1d3d4;}.cls-6{fill:#d2d3d4;}.cls-7{fill:#919396;}.cls-8{fill:#231f20;}.cls-9{fill:#5a5b5d;}.cls-10{fill:#cd332d;}.cls-11{fill:#cc3732;}.cls-12{fill:#00b386;}.cls-13{fill:#32669a;}.cls-14{fill:#ca2128;}.cls-15{fill:#3b5999;}.cls-16{fill:#017bb6;}.cls-17{fill:#2aa8e0;}.cls-18{fill:#32506d;}.cls-19{fill:#c7c7c7;}.cls-20{fill:#ffec70;}.cls-21{fill:#73a03c;}.cls-22{fill:#8c8c8c;}.cls-23,.cls-25,.cls-26,.cls-30{fill:none;stroke-miterlimit:10;}.cls-23{stroke:#e6e7e8;stroke-width:0.5px;}.cls-24{fill:#666;}.cls-25{stroke:#c7c7c7;}.cls-25,.cls-26{stroke-width:3.75px;}.cls-26{stroke:#17468f;}.cls-27{fill:#777ca0;}.cls-28{fill:#d9cc5a;}.cls-29{fill:#978f3e;}.cls-30{stroke:#fff;stroke-width:1.5px;}.cls-31{fill:#839bcb;}.cls-32{fill:#065faa;}.cls-33{fill:#0a61aa;}.cls-34{fill:#efde60;}.cls-35{fill:#e4d662;}.cls-36{fill:#7f99cc;}.cls-37{fill:#efdd60;}.cls-38{fill:#f2e063;}.cls-39{fill:#f2e05f;}.cls-40{fill:#f4e15f;}.cls-41{fill:#f5e261;}.cls-42{fill:#f8e45d;}.cls-43{fill:#1363a6;}.cls-44{fill:#0c61a7;}.cls-45{fill:#1564a6;}.cls-46{fill:#0960a8;}.cls-47{fill:#f1df60;}.cls-48{font-size:2.36px;fill:#005cb5;font-family:MyriadPro-Regular, Myriad Pro;}</style></defs><title>lc-sprite</title><g id="Layer_1-2" data-name="Layer 1-2"><g id="Layer_2" data-name="Layer 2"><path class="cls-1" d="M97.13,47.41a45,45,0,0,0-45-45h-.4c-25.1.2-44.4,20.2-44.2,45.4s19.2,44.6,44.3,44.5,45.4-19.7,45.3-44.7Z" transform="translate(0.01 0)"/><path class="cls-1" d="M91.93,47.31a40.7,40.7,0,1,1-40.7-40.7h0a40.67,40.67,0,0,1,40.7,40.64v.06h0" transform="translate(0.01 0)"/><circle class="cls-2" cx="51.13" cy="47.31" r="40.7"/><path class="cls-3" d="M52,89.71a42.4,42.4,0,1,1,42.4-42.4h0A42.42,42.42,0,0,1,52,89.71Zm0-81.3a38.9,38.9,0,1,0,38.9,38.9h0A38.88,38.88,0,0,0,52.07,8.41Z" transform="translate(0.01 0)"/><path class="cls-3" d="M26.43,76.81V44.31h-1v-1.6h-1.1v-4.3h1.5v-.8h-.2v-.7h-.2v-1.8H32c.3-1,.5-3,1.1-5,1-3.1,4.6-5.3,7-7,.7-.5,7.2-2.2,7.2-2.2l3.8-.8v-2.4l-.6-.8-.1-.6.8-.7-.8-3.6.4-1.3,1.3-.4,1.3.4.4,1.3-.8,3.6.8.7-.1.7-.6.8v2.4l3.7.8s6.8,1.8,7.3,2.2c3.9,2.7,5.7,3.9,6.8,7a27.55,27.55,0,0,1,1.1,5h6.4V37h-.3v.7h-.2v.8h1.5v4.2h-1.1v1.6H77v33.8A38.49,38.49,0,0,1,51.63,88c-15.8,0-25.3-11.1-25.2-11.2" transform="translate(0.01 0)"/><path class="cls-1" d="M36.13,49.81a4.71,4.71,0,0,0,2.6-1.1h.6v10.6c0,.7.1,1.1.8,1.1h1v.9h-5v-.8h1c.8,0,.9-.4.9-1.4v-8.5H36v-.8Z" transform="translate(0.01 0)"/><path class="cls-1" d="M45.83,48.61a3.1,3.1,0,0,1,3.3,2.8v.1a3.23,3.23,0,0,1-2.2,2.9c1.8.8,2.8,1.8,2.8,3.5a3.62,3.62,0,0,1-3.66,3.6h-.34a3.58,3.58,0,0,1-3.89-3.22c0-.06,0-.12,0-.18a3.43,3.43,0,0,1,2.6-3.2,3.27,3.27,0,0,1-1.9-4.2,3.12,3.12,0,0,1,3.3-2.1" transform="translate(0.01 0)"/><path class="cls-3" d="M45.13,55.11a3.68,3.68,0,0,0-2.2,2.9,2.78,2.78,0,0,0,2.9,2.6,2.7,2.7,0,0,0,2.6-2.5c0-1.1-.7-1.8-2.1-2.4Z" transform="translate(0.01 0)"/><path class="cls-3" d="M46.23,54c.9-.8,1.7-1.4,1.7-2.5a2.11,2.11,0,0,0-2.1-2.1h-.1a2,2,0,0,0-2.19,1.79,1.48,1.48,0,0,0,0,.21c0,1,.6,1.6,1.9,2.2Z" transform="translate(0.01 0)"/><polygon class="cls-1" points="55.43 48.81 56.74 48.81 56.74 56.01 58.74 56.01 58.74 57.11 56.74 57.11 56.74 61.31 55.43 61.31 55.43 57.11 50.43 57.11 50.43 55.61 55.43 48.81"/><polygon class="cls-3" points="55.43 56.01 55.43 50.21 51.14 56.01 55.43 56.01"/><path class="cls-1" d="M59.83,48.81h5c.3,0,.4-.1.5-.4h.5v1.9h-5.3l-.1,3.2a6.47,6.47,0,0,1,2-.3,3.9,3.9,0,0,1,4.1,3.6v.5a4.12,4.12,0,0,1-3.9,4.3h-.2a3.47,3.47,0,0,1-3.6-2.8.78.78,0,0,1,.6-.9.68.68,0,0,1,.8.4c.5,1.4.8,2.4,2.3,2.4s2.7-1.3,2.7-3.2a3,3,0,0,0-2.79-3.2h-.31a6.92,6.92,0,0,0-2.5.5Z" transform="translate(0.01 0)"/><rect class="cls-1" x="26.44" y="45.11" width="50.4" height="0.9"/><rect class="cls-1" x="26.34" y="64.21" width="50.4" height="0.9"/><path class="cls-1" d="M11.43,39.31s-1.2,6.2,3.8,7.6c0,0-5,0-4.2,6.1" transform="translate(0.01 0)"/><path class="cls-3" d="M11.13,54.81c-.9,0-.3-17.4.6-17.3a1.83,1.83,0,0,1,1.6,1.8l-.1,2.6c.4,2.7,2,3.2,2.6,3.3a1.81,1.81,0,0,1,1.2,2.2,1.74,1.74,0,0,1-1.7,1.2h0a2.35,2.35,0,0,0-2.3,1.8l-.2,2.7A1.75,1.75,0,0,1,11.13,54.81Z" transform="translate(0.01 0)"/><path class="cls-3" d="M92.83,37.51c.9,0,.3,17.4-.6,17.3S91,53.91,91,53l-.3-2.5c-.3-2.7-2-3.2-2.6-3.3a1.81,1.81,0,0,1-1.2-2.2,1.74,1.74,0,0,1,1.7-1.2h0a2.46,2.46,0,0,0,2.3-1.8l.1-2.6A2,2,0,0,1,92.83,37.51Z" transform="translate(0.01 0)"/><path class="cls-1" d="M57.23,75.41a5.4,5.4,0,1,1-5.4-5.4,5.4,5.4,0,0,1,5.4,5.4v0h0" transform="translate(0.01 0)"/><path class="cls-4" d="M46.43,76.21a2.18,2.18,0,0,1-.1-.8,2.74,2.74,0,0,1,.1-.9h10.8v1.7Z" transform="translate(0.01 0)"/><path class="cls-4" d="M46.63,73a1.84,1.84,0,0,1,.5-.7,6,6,0,0,1,.8-.8h7.6a3,3,0,0,1,.8.8,7,7,0,0,1,.4.7Z" transform="translate(0.01 0)"/><path class="cls-4" d="M48.13,79.41a2.83,2.83,0,0,1-.8-.7c-.2-.2-.4-.5-.6-.7h10.1a4.44,4.44,0,0,1-.6.7,4.84,4.84,0,0,0-.8.7Z" transform="translate(0.01 0)"/><path class="cls-1" d="M332.83,306.31a3.09,3.09,0,0,0-4.2,0,3.09,3.09,0,0,0-4.2.4,3,3,0,0,0,0,3.8l3.8,3.8a.49.49,0,0,0,.68,0l0,0,3.8-3.8A3,3,0,0,0,332.83,306.31Z" transform="translate(0.01 0)"/><path class="cls-1" d="M339.63,321.41,336,318a4.31,4.31,0,0,0-3.1-1.2h-7a1.43,1.43,0,0,0-1.4,1.4,1.37,1.37,0,0,0,1.34,1.4H331a.79.79,0,0,1,.8.78v0a.86.86,0,0,1-.8.8h-8.7a.72.72,0,0,1-.5-.2l-3.7-2.9a1.35,1.35,0,1,0-1.7,2.1l.1.1,5.6,4.4a1.12,1.12,0,0,0,.8.3H333a1.42,1.42,0,0,1,.6.2l4.4,4.2a1.45,1.45,0,0,0,2.05,0l.05,0a1.29,1.29,0,0,0,.4-1v-4.8A3.12,3.12,0,0,0,339.63,321.41Z" transform="translate(0.01 0)"/></g><g id="Layer_1-3" data-name="Layer 1-3"><polygon class="cls-3" points="363.14 2.71 362.44 2.01 358.74 5.61 355.03 2.01 354.33 2.71 358.74 7.01 358.74 7.01 358.74 7.01 363.14 2.71"/><polygon class="cls-3" points="356.94 54.71 356.24 55.41 359.83 59.11 356.24 62.91 356.94 63.51 361.24 59.21 361.24 59.11 361.24 59.11 356.94 54.71"/><polygon points="363.14 21.81 362.44 21.11 358.74 24.71 355.03 21.11 354.33 21.81 358.74 26.11 358.74 26.11 358.74 26.11 363.14 21.81"/><polygon class="cls-5" points="363.14 38.41 362.44 37.71 358.74 41.31 355.03 37.71 354.33 38.41 358.74 42.71 358.74 42.71 358.74 42.71 363.14 38.41"/><polyline class="cls-6" points="583.24 22.71 584.34 22.71 592.74 5.01 591.53 5.01"/><polygon class="cls-7" points="618.64 3.61 609.43 35.91 610.03 35.91 619.14 3.61 618.64 3.61"/><polygon class="cls-1" points="664.53 0.01 634.53 111.01 635.64 111.01 665.64 0.01 664.53 0.01"/><path class="cls-1" d="M601.53,187.91a11.2,11.2,0,1,1,11.2,11.2,11.19,11.19,0,0,1-11.2-11.2Zm2.5,0a8.7,8.7,0,1,0,8.7-8.7,8.71,8.71,0,0,0-8.7,8.7Z" transform="translate(0.01 0)"/><rect class="cls-1" x="595.71" y="197.6" width="11.2" height="2.8" transform="translate(35.17 482.98) rotate(-44.95)"/><path d="M298.93,21.11a10.55,10.55,0,1,1,10.5-10.6h0A10.52,10.52,0,0,1,299,21.11Zm0-19.2a8.6,8.6,0,1,0,8.6,8.6,8.47,8.47,0,0,0-8.34-8.6Z" transform="translate(0.01 0)"/><rect x="295.13" y="9.61" width="7.7" height="1.9"/><rect x="298.04" y="6.71" width="1.9" height="7.7"/><path class="cls-1" d="M123.53,580.31a14.1,14.1,0,1,1,14.1-14.1h0a14.08,14.08,0,0,1-14.06,14.1Zm0-25.7a11.55,11.55,0,1,0,11.5,11.6h0A11.65,11.65,0,0,0,123.53,554.61Z" transform="translate(0.01 0)"/><rect class="cls-1" x="118.34" y="564.91" width="10.3" height="2.6"/><rect class="cls-1" x="122.24" y="561.11" width="2.6" height="10.3"/><path class="cls-1" d="M298.93,99.71a10.55,10.55,0,1,1,10.5-10.6h0a10.4,10.4,0,0,1-10.2,10.6Zm0-19.1a8.6,8.6,0,1,0,8.6,8.6,8.47,8.47,0,0,0-8.34-8.6Z" transform="translate(0.01 0)"/><rect class="cls-1" x="295.13" y="88.21" width="7.7" height="1.9"/><rect class="cls-1" x="298.04" y="85.41" width="1.9" height="7.7"/><rect class="cls-2" x="410.04" y="116.81" width="3.6" height="16.4"/><path class="cls-8" d="M291.53,43.21a10.54,10.54,0,1,1,14.91,0h0A10.56,10.56,0,0,1,291.53,43.21ZM305,29.61a8.63,8.63,0,1,0,0,12.2h0a8.57,8.57,0,0,0,.08-12.12Z" transform="translate(0.01 0)"/><rect class="cls-8" x="295.13" y="34.81" width="7.7" height="1.9"/><path class="cls-2" d="M291.53,69.41a10.54,10.54,0,1,1,14.91,0h0A10.56,10.56,0,0,1,291.53,69.41ZM305,55.81A8.63,8.63,0,1,0,305,68h0a8.57,8.57,0,0,0,.08-12.12Z" transform="translate(0.01 0)"/><rect class="cls-2" x="295.13" y="61.01" width="7.7" height="1.9"/><path class="cls-3" d="M325.83,21.11a10.55,10.55,0,1,1,10.5-10.6h0A10.58,10.58,0,0,1,325.83,21.11Zm0-19.2a8.6,8.6,0,1,0,8.6,8.6,8.6,8.6,0,0,0-8.6-8.6Z" transform="translate(0.01 0)"/><rect class="cls-3" x="321.94" y="9.61" width="7.7" height="1.9"/><rect class="cls-3" x="324.84" y="6.71" width="1.9" height="7.7"/><path class="cls-3" d="M318.33,43.21a10.54,10.54,0,1,1,14.91,0h0A10.56,10.56,0,0,1,318.33,43.21Zm13.6-13.6a8.63,8.63,0,1,0,0,12.2h0A8.75,8.75,0,0,0,331.93,29.61Z" transform="translate(0.01 0)"/><rect class="cls-3" x="321.94" y="34.81" width="7.7" height="1.9"/><rect class="cls-3" x="15.15" y="494.61" width="2.9" height="10.2" transform="translate(-348.54 158.16) rotate(-45.01)"/><rect class="cls-3" x="11.55" y="503.4" width="10.2" height="2.9" transform="translate(-352.1 159.64) rotate(-45)"/><path class="cls-3" d="M4.43,576a15.13,15.13,0,1,1,21.4,0A15.13,15.13,0,0,1,4.43,576Zm19.5-19.5a12.37,12.37,0,1,0,0,17.5A12.36,12.36,0,0,0,23.93,556.51Z" transform="translate(0.01 0)"/><path class="cls-3" d="M5.53,643.61a15.56,15.56,0,1,1,22,0h0A15.69,15.69,0,0,1,5.53,643.61Zm20-20a12.73,12.73,0,1,0,0,18h0a12.67,12.67,0,0,0,.08-17.92Z" transform="translate(0.01 0)"/><rect class="cls-3" x="16.54" y="625.19" width="2.8" height="9.8" transform="translate(-440.35 197.32) rotate(-45.01)"/><rect class="cls-3" x="12.9" y="633.73" width="9.9" height="2.8" transform="translate(-444.1 198.89) rotate(-45.03)"/><path class="cls-1" d="M53.93,643.61a15.56,15.56,0,1,1,22,0h0A15.69,15.69,0,0,1,53.93,643.61Zm20-20a12.73,12.73,0,1,0,0,18h0A12.86,12.86,0,0,0,73.93,623.61Z" transform="translate(0.01 0)"/><rect class="cls-1" x="64.71" y="625.11" width="2.8" height="9.9" transform="translate(-426.08 231.2) rotate(-44.99)"/><rect class="cls-1" x="61.31" y="633.62" width="9.8" height="2.8" transform="translate(-429.84 233.07) rotate(-45.03)"/><polygon class="cls-9" points="263.53 23.21 263.53 19.01 267.64 19.01 267.64 23.21 271.94 23.21 271.94 17.81 265.64 12.11 259.44 17.91 259.44 23.21 263.53 23.21"/><polygon class="cls-9" points="272.74 17.21 265.64 10.71 258.53 17.21 257.14 15.61 265.64 7.81 274.14 15.61 272.74 17.21"/><rect class="cls-10" x="138.34" y="236.51" width="25.5" height="25.5"/><path class="cls-1" d="M149.33,239h-1.2l-.8,3-.8-3h-1.2l.7,2.1a22.66,22.66,0,0,1,.7,2.4v3.1h1.1v-3.1Zm3.1,5.8v-2a3.56,3.56,0,0,0-.3-1.4,1.58,1.58,0,0,0-2.2-.3l-.3.3a2.21,2.21,0,0,0-.3,1.4v2a3.56,3.56,0,0,0,.3,1.4,1.58,1.58,0,0,0,2.2.3l.3-.3A3.56,3.56,0,0,0,152.43,244.81Zm-1,.2c0,.5-.2.8-.5.8s-.5-.3-.5-.8v-2.4c0-.5.2-.8.5-.8s.5.3.5.8Zm4.8,1.6v-5.7h-1v4.4c-.2.3-.4.5-.6.5s-.2-.1-.2-.2V241h-1v4.5a2.74,2.74,0,0,0,.1.9.58.58,0,0,0,.7.4h0a1.84,1.84,0,0,0,1.2-.7v.6l.8-.1Z" transform="translate(0.01 0)"/><path class="cls-1" d="M159.63,253.61a26.73,26.73,0,0,1-.3,4,2.12,2.12,0,0,1-1.8,1.7,45.59,45.59,0,0,1-6.4.2c-2.1,0-4.2,0-6.4-.2a2.12,2.12,0,0,1-1.8-1.7,26.82,26.82,0,0,1,0-8,2.12,2.12,0,0,1,1.8-1.7,45.59,45.59,0,0,1,6.4-.2c2.1,0,4.2,0,6.4.2a2.12,2.12,0,0,1,1.8,1.7A26.73,26.73,0,0,1,159.63,253.61Z" transform="translate(0.01 0)"/><path class="cls-10" d="M147.43,250.71v-1.1h-3.6v1.1H145v6.5h1.1v-6.5Zm2.1,6.6v-.6a1.84,1.84,0,0,1-1.2.7.67.67,0,0,1-.7-.4,2.41,2.41,0,0,1-.1-.8v-4.5h1v4.6c0,.2.1.2.2.2a1.18,1.18,0,0,0,.6-.5v-4.3h1v5.7h-.8Zm3.9-1.6c0,.5-.1.8-.4.8a.72.72,0,0,1-.5-.2v-3.5a.72.72,0,0,1,.5-.2c.3,0,.4.3.4.8v2.3Zm1-.1v-2.3a3.7,3.7,0,0,0-.1-1.1c-.1-.4-.4-.7-.8-.6a1.75,1.75,0,0,0-1.1.6v-2.5h-1v7.6h1v-.5a1.16,1.16,0,0,0,1.1.6.86.86,0,0,0,.8-.6A5.36,5.36,0,0,0,154.43,255.61Zm2.8-1.8h-1v-.5c0-.5.2-.8.5-.8s.5.3.5.8Zm1,1.7v-.2h-1v.7a.46.46,0,0,1-.5.4c-.4,0-.5-.3-.5-.8v-1h2.1v-1.2a2.79,2.79,0,0,0-.3-1.3,1.5,1.5,0,0,0-2.1-.3,2.13,2.13,0,0,0-.3.3,2.06,2.06,0,0,0-.3,1.3v2a2.79,2.79,0,0,0,.3,1.3,1.57,1.57,0,0,0,1.2.6,1.29,1.29,0,0,0,1.2-.6,1.42,1.42,0,0,0,.2-.6c.1,0,.1-.3,0-.6Z" transform="translate(0.01 0)"/><rect class="cls-11" x="276.73" y="236.51" width="25.5" height="25.5"/><path class="cls-1" d="M289,240.51a2.15,2.15,0,0,1,.5.4c.2.2.4.5.6.7a3.13,3.13,0,0,1,.5,1,5.68,5.68,0,0,1,.2,1.3,4.28,4.28,0,0,1-.6,2.2,4.44,4.44,0,0,1-.6.7,5.35,5.35,0,0,1-.8.7,1.76,1.76,0,0,0-.4.5,1,1,0,0,0-.2.7,1.94,1.94,0,0,0,.2.7c.1.1.2.3.4.4l.9.7a9.27,9.27,0,0,1,1.4,1.4,4,4,0,0,1,.6,2.1,4.2,4.2,0,0,1-1.6,3.3,7.16,7.16,0,0,1-4.9,1.5,6.38,6.38,0,0,1-4-1.1,3.11,3.11,0,0,1-1.3-2.5,4.71,4.71,0,0,1,.4-1.6,3.62,3.62,0,0,1,1.5-1.5,6.22,6.22,0,0,1,2.6-.9,16.21,16.21,0,0,1,2.2-.2,5.1,5.1,0,0,1-.5-.8,1.15,1.15,0,0,1-.2-1,1.23,1.23,0,0,1,.1-.6l.1-.4h-.8a3.72,3.72,0,0,1-3.1-1.3,3.84,3.84,0,0,1-1.1-2.7,4.55,4.55,0,0,1,1.6-3.4,4.76,4.76,0,0,1,2.2-1.2,7.75,7.75,0,0,1,2.2-.2h5.1l-1.6.9-1.6.2Zm1,14.6a2.69,2.69,0,0,0-.6-1.7,12.3,12.3,0,0,0-2.1-1.7h-1.6a9.85,9.85,0,0,0-1.6.4l-.5.2a1.84,1.84,0,0,0-.7.5,6.68,6.68,0,0,0-.6.8,2.63,2.63,0,0,0-.3,1.2,2.75,2.75,0,0,0,1.2,2.2,5.74,5.74,0,0,0,3.2.9,4.34,4.34,0,0,0,2.7-.8A2.36,2.36,0,0,0,290,255.11Zm-3.5-7.4a2.81,2.81,0,0,0,1.7-.7,1.81,1.81,0,0,0,.4-1c0-.3.1-.6.1-.9a6.43,6.43,0,0,0-.8-3,2.91,2.91,0,0,0-1-1.2,3.32,3.32,0,0,0-1.4-.5,2.15,2.15,0,0,0-1.7.8,2.59,2.59,0,0,0-.5,1.9,6,6,0,0,0,.8,2.9,4,4,0,0,0,1,1.2A2,2,0,0,0,286.53,247.71Z" transform="translate(0.01 0)"/><polygon class="cls-1" points="299.14 242.41 296.44 242.41 296.44 239.71 295.14 239.71 295.14 242.41 292.44 242.41 292.44 243.61 295.14 243.61 295.14 246.31 296.44 246.31 296.44 243.61 299.14 243.61 299.14 242.41"/><rect class="cls-12" x="230.64" y="236.51" width="25.4" height="25.4"/><path class="cls-1" d="M246,244.71a1.16,1.16,0,0,1,2.32,0,1.79,1.79,0,0,1,0,.23,10.48,10.48,0,0,1-.4,3h2.4a20.5,20.5,0,0,0,.2-3.5c0-3.7-6.8-4.3-6.8.4a6.38,6.38,0,0,0,3.1,5.9,15.14,15.14,0,0,1-3.1,4.1c-5.1-4.1-4.6-11.1-4.6-11.1h-2.2c0,9.4,5,12.7,5.6,13.2a1.62,1.62,0,0,0,1.5.4c.7,0,2.4-1.7,4.4-4.9a4.4,4.4,0,0,0,.5-.9,7.52,7.52,0,0,0,1.5.2v-2a4.72,4.72,0,0,1-4.4-5Z" transform="translate(0.01 0)"/><rect class="cls-13" x="322.84" y="236.51" width="25.5" height="25.5"/><polygon class="cls-8" points="322.83 262.01 322.83 262.01 348.44 262.01 348.44 236.51 322.83 236.51 322.83 262.01 322.83 262.01 322.83 262.01 322.83 262.01 322.83 236.51 348.33 236.51 348.33 262.01 322.83 262.01"/><path class="cls-1" d="M329.33,240.91h12.5A2.14,2.14,0,0,1,344,243v0h0v12.5a2.19,2.19,0,0,1-2.1,2.2h-12.5a2.22,2.22,0,0,1-2.2-2.2h0V243a2,2,0,0,1,1.89-2.1Zm10.1,1.8a.79.79,0,0,0-.8.78v0h0v1.8a.79.79,0,0,0,.78.8h1.92a.79.79,0,0,0,.8-.78v-1.82a.79.79,0,0,0-.78-.8h-1.92Zm2.7,5.3h-1.5a3.5,3.5,0,0,1,.2,1.4,5.26,5.26,0,0,1-10.5,0,6.06,6.06,0,0,1,.2-1.4h-1.6v7.1a.67.67,0,0,0,.66.7h11.74a.67.67,0,0,0,.7-.66v0h0l.1-7.1Zm-6.5-2a3.41,3.41,0,0,0-3.2,3.4,3.3,3.3,0,1,0,3.2-3.4Z" transform="translate(0.01 0)"/><rect class="cls-14" x="92.24" y="236.51" width="25.5" height="25.5"/><path class="cls-1" d="M104.93,240a9.19,9.19,0,0,0-3.7,17.6,7.42,7.42,0,0,1,.2-2.1l1.2-5a3.9,3.9,0,0,1-.3-1.5c0-1.4.8-2.4,1.8-2.4a1.3,1.3,0,0,1,1.3,1.2v.2c-.2,1.1-.5,2.2-.8,3.3a1.4,1.4,0,0,0,1,1.7h.4c1.8,0,2.9-2.3,2.9-4.9,0-2-1.4-3.5-3.8-3.5a4.35,4.35,0,0,0-4.5,4.19h0v.2a2.79,2.79,0,0,0,.6,1.8c.2.1.2.3.1.5l-.2.7c0,.2-.2.3-.4.3h-.1a3.66,3.66,0,0,1-1.9-3.5c0-2.6,2.2-5.8,6.6-5.8a5.43,5.43,0,0,1,5.79,5,.92.92,0,0,1,0,.16v.1c0,3.6-2,6.3-5,6.3a2.68,2.68,0,0,1-2.2-1.1s-.5,2.1-.7,2.5a7.35,7.35,0,0,1-.9,2,9.23,9.23,0,0,0,4.82-17.82l-.32-.08c-.6,0-1.2-.1-1.9-.1Z" transform="translate(0.01 0)"/><rect class="cls-15" x="0.04" y="236.51" width="25.4" height="25.4"/><path class="cls-1" d="M22.13,251.81l.5-3.9h-3.8v-2.5c0-1.1.3-1.9,1.9-1.9h2.1V240a15,15,0,0,0-3-.1c-3,0-5,1.8-5,5.1v2.9h-3.4v3.9h3.4v10h4v-10Z" transform="translate(0.01 0)"/><rect class="cls-16" x="184.44" y="236.51" width="25.5" height="25.5"/><path class="cls-1" d="M188.83,246.41h3.6V258h-3.6Zm1.8-5.8a2.1,2.1,0,1,1-2.1,2.1,2.1,2.1,0,0,1,2.1-2.1" transform="translate(0.01 0)"/><path class="cls-1" d="M194.73,246.41h3.4V248h0a3.9,3.9,0,0,1,3.4-1.9c3.6,0,4.3,2.4,4.3,5.5V258h-3.6v-5.7c0-1.3,0-3.1-1.9-3.1s-2.2,1.5-2.2,3v5.7h-3.6l.2-11.5Z" transform="translate(0.01 0)"/><rect class="cls-17" x="46.13" y="236.51" width="25.5" height="25.5"/><path class="cls-1" d="M67.33,244a6.7,6.7,0,0,1-2,.6,3.17,3.17,0,0,0,1.5-1.9,8.78,8.78,0,0,1-2.2.9,3.48,3.48,0,0,0-4.9-.3,3.55,3.55,0,0,0-1.1,3.5,10.22,10.22,0,0,1-7.2-3.7,3.53,3.53,0,0,0,1.1,4.7,4.24,4.24,0,0,1-1.6-.4h0a3.44,3.44,0,0,0,2.8,3.4,4.32,4.32,0,0,1-1.6.1,3.53,3.53,0,0,0,3.3,2.4,6.8,6.8,0,0,1-4.3,1.5,2,2,0,0,1-.8-.1A9.88,9.88,0,0,0,64,251.77l0-.06a10.28,10.28,0,0,0,1.6-5.3V246A13.52,13.52,0,0,0,67.33,244Z" transform="translate(0.01 0)"/><path class="cls-1" d="M151.43,206c.3,0,.5-.3.5-.8v-2.4c0-.5-.2-.8-.5-.8s-.5.3-.5.8v2.4C150.93,205.71,151,206,151.43,206Z" transform="translate(0.01 0)"/><path class="cls-1" d="M138.93,222.21h25.5v-25.5h-25.5Zm14.9-21.1h1v4.6c0,.2.1.2.2.2a1.18,1.18,0,0,0,.6-.5V201h1v5.7h-1v-.6a1.84,1.84,0,0,1-1.2.7.67.67,0,0,1-.7-.4,2.74,2.74,0,0,1-.1-.9l.2-4.4Zm-4,1.9a3.56,3.56,0,0,1,.3-1.4,1.58,1.58,0,0,1,2.2-.3l.3.3a2.21,2.21,0,0,1,.3,1.4v2a3.56,3.56,0,0,1-.3,1.4,1.58,1.58,0,0,1-2.2.3l-.3-.3a2.21,2.21,0,0,1-.3-1.4Zm-2.7-3.9.8,3,.8-3h1.2l-1.4,4.6v3.1h-1.1v-3.1a22.66,22.66,0,0,0-.7-2.4l-.7-2.1,1.1-.1Zm-3.7,10.7a2.12,2.12,0,0,1,1.8-1.7,45.59,45.59,0,0,1,6.4-.2c2.1,0,4.2,0,6.4.2a2.12,2.12,0,0,1,1.8,1.7,26.82,26.82,0,0,1,0,8,2.12,2.12,0,0,1-1.8,1.7,45.59,45.59,0,0,1-6.4.2c-2.1,0-4.2,0-6.4-.2a2.12,2.12,0,0,1-1.8-1.7,26.82,26.82,0,0,1,0-8Z" transform="translate(0.01 0)"/><path class="cls-1" d="M148.93,217.51a1.84,1.84,0,0,0,1.2-.7v.6h1v-5.7h-1V216c-.2.3-.4.5-.6.5s-.2-.1-.2-.2v-4.6h-1v4.5a2,2,0,0,0,.1.8c-.1.4.2.6.5.5Z" transform="translate(0.01 0)"/><path class="cls-1" d="M153,216.91a1.16,1.16,0,0,0,1.1.6.86.86,0,0,0,.8-.6,4.51,4.51,0,0,0,.1-1.1v-2.3a3.7,3.7,0,0,0-.1-1.1c-.1-.4-.4-.7-.8-.6a1.75,1.75,0,0,0-1.1.6v-2.5h-1v7.6h1v-.6Zm0-4a.72.72,0,0,1,.5-.2c.3,0,.4.3.4.8v2.4c0,.5-.1.8-.4.8a.72.72,0,0,1-.5-.2Z" transform="translate(0.01 0)"/><polygon class="cls-1" points="145.64 217.51 146.73 217.51 146.73 210.91 148.04 210.91 148.04 209.91 144.44 209.91 144.44 210.91 145.64 210.91 145.64 217.51"/><path class="cls-1" d="M157.33,217.51a1.29,1.29,0,0,0,1.2-.6,1.42,1.42,0,0,0,.2-.6v-.8h-1v.7a.46.46,0,0,1-.5.4c-.4,0-.5-.3-.5-.8v-1h2.1v-1.2a2.79,2.79,0,0,0-.3-1.3,1.5,1.5,0,0,0-2.1-.3,2.13,2.13,0,0,0-.3.3,2.06,2.06,0,0,0-.3,1.3v2a2.79,2.79,0,0,0,.3,1.3,1.14,1.14,0,0,0,1.2.6Zm-.5-4.1c0-.5.2-.8.5-.8s.5.3.5.8v.5h-1Z" transform="translate(0.01 0)"/><path class="cls-1" d="M289.13,206.11c0-.3.1-.6.1-.9a6.43,6.43,0,0,0-.8-3,2.91,2.91,0,0,0-1-1.2,2.37,2.37,0,0,0-1.4-.5,2.15,2.15,0,0,0-1.7.8,2.59,2.59,0,0,0-.5,1.9,6,6,0,0,0,.8,2.9,4,4,0,0,0,1,1.2,2.37,2.37,0,0,0,1.4.5,2.81,2.81,0,0,0,1.7-.7A5.09,5.09,0,0,0,289.13,206.11Z" transform="translate(0.01 0)"/><path class="cls-1" d="M283.73,217.21a5.74,5.74,0,0,0,3.2.9,3.75,3.75,0,0,0,2.7-.8,2.45,2.45,0,0,0,.9-1.9,2.69,2.69,0,0,0-.6-1.7,12.3,12.3,0,0,0-2.1-1.7h-.6a3.37,3.37,0,0,0-1,.1,9.85,9.85,0,0,0-1.6.4l-.5.2a1.84,1.84,0,0,0-.7.5,6.68,6.68,0,0,0-.6.8,2.63,2.63,0,0,0-.3,1.2A2.72,2.72,0,0,0,283.73,217.21Z" transform="translate(0.01 0)"/><path class="cls-1" d="M277.23,222.21h25.5v-25.5h-25.5Zm15.8-19.7h2.7v-2.7H297v2.7h2.7v1.3H297v2.7h-1.3v-2.7H293ZM280.83,214a3.62,3.62,0,0,1,1.5-1.5,6.22,6.22,0,0,1,2.6-.9,16.21,16.21,0,0,1,2.2-.2,5.1,5.1,0,0,1-.5-.8,1.15,1.15,0,0,1-.2-1,1.23,1.23,0,0,1,.1-.6l.2-.4h-.8a3.72,3.72,0,0,1-3.1-1.3,3.84,3.84,0,0,1-1.1-2.7,4.55,4.55,0,0,1,1.6-3.4,4.76,4.76,0,0,1,2.2-1.2,7.75,7.75,0,0,1,2.2-.2h5.1l-1.6.9h-1.6a2.15,2.15,0,0,1,.5.4c.2.2.4.5.6.7a3.13,3.13,0,0,1,.5,1,5.68,5.68,0,0,1,.2,1.3,4.28,4.28,0,0,1-.6,2.2,4.44,4.44,0,0,1-.6.7l-.8.7a1.76,1.76,0,0,0-.4.5,1,1,0,0,0-.2.7,1.94,1.94,0,0,0,.2.7.78.78,0,0,0,.4.4l.9.7a9.27,9.27,0,0,1,1.4,1.4,4,4,0,0,1,.6,2.1,4.2,4.2,0,0,1-1.6,3.3,7.16,7.16,0,0,1-4.9,1.5,6.38,6.38,0,0,1-4-1.1,3.11,3.11,0,0,1-1.3-2.5,1.71,1.71,0,0,1,.3-1.4Z" transform="translate(0.01 0)"/><path class="cls-1" d="M231.23,222.11h25.4v-25.4h-25.4v25.4Zm8.5-18.3s-.5,7,4.6,11.1a11.47,11.47,0,0,0,3.1-4.1,6.21,6.21,0,0,1-3.1-5.9c0-4.6,6.8-4,6.8-.4a19.53,19.53,0,0,1-.2,3.5h-2.4a15.14,15.14,0,0,0,.4-3,1.16,1.16,0,0,0-2.28-.43,1.79,1.79,0,0,0,0,.23,4.7,4.7,0,0,0,4.38,5h.12v2a7.52,7.52,0,0,1-1.5-.2c-.2.3-.3.6-.5.9-2,3.2-3.7,4.9-4.4,4.9a1.67,1.67,0,0,1-1.5-.4c-.6-.5-5.6-3.8-5.6-13.2Z" transform="translate(0.01 0)"/><path class="cls-1" d="M348.83,196.71h-25.5v25.5h25.5Zm-4.3,19a2.19,2.19,0,0,1-2.1,2.2h-12.5a2.22,2.22,0,0,1-2.2-2.2h0v-12.5a2.22,2.22,0,0,1,2.2-2.2h12.5a2.14,2.14,0,0,1,2.1,2.18v12.52Z" transform="translate(0.01 0)"/><path class="cls-1" d="M340,206.21h1.9a.79.79,0,0,0,.8-.78v0h0v-1.8a.79.79,0,0,0-.78-.8H340a.79.79,0,0,0-.8.78v0h0v1.8a.79.79,0,0,0,.78.8Z" transform="translate(0.01 0)"/><path class="cls-1" d="M341.43,209.61a5.26,5.26,0,0,1-10.5,0,6.06,6.06,0,0,1,.2-1.4h-1.5v7.1a.67.67,0,0,0,.66.7H342a.67.67,0,0,0,.7-.66v0h0v-7.1h-1.5a6.06,6.06,0,0,1,.2,1.4Z" transform="translate(0.01 0)"/><ellipse class="cls-1" cx="336.13" cy="209.41" rx="3.4" ry="3.3"/><rect class="cls-18" x="367.13" y="236.51" width="25.5" height="25.5"/><path class="cls-1" d="M92.73,222.21h25.5v-25.5H92.73Zm12.8-22a9.2,9.2,0,1,1,0,18.4h0a7.44,7.44,0,0,1-2.6-.4,7.35,7.35,0,0,0,.9-2c.1-.4.7-2.5.7-2.5a2.53,2.53,0,0,0,2.2,1.1c3,0,5-2.7,5-6.3a5.55,5.55,0,0,0-5.7-5.3h-.1c-4.4,0-6.6,3.1-6.6,5.8a3.36,3.36,0,0,0,1.9,3.5c.2.1.4,0,.4-.1v-.1a1.42,1.42,0,0,1,.2-.7.43.43,0,0,0-.1-.5,3,3,0,0,1-.6-1.8,4.35,4.35,0,0,1,4.3-4.4h.2c2.5,0,3.8,1.5,3.8,3.5,0,2.7-1.2,4.9-2.9,4.9a1.45,1.45,0,0,1-1.5-1.4h0v-.4a19.84,19.84,0,0,0,.8-3.3,1.25,1.25,0,0,0-1.06-1.4h-.24c-1,0-1.8,1-1.8,2.4a3.9,3.9,0,0,0,.3,1.5l-1.2,5a14.78,14.78,0,0,0-.2,2.1,9.22,9.22,0,0,1-4.8-12.1A9.42,9.42,0,0,1,105.53,200.21Z" transform="translate(0.01 0)"/><path class="cls-1" d="M.53,222.11h25.4v-25.4H.53ZM12,208h3.4v-2.9c0-3.3,2-5.1,5-5.1,1,0,2,0,3,.1v3.5h-2.1c-1.6,0-1.9.8-1.9,1.9V208h3.9l-.5,3.9h-3.4v10h-4v-10H12Z" transform="translate(0.01 0)"/><path class="cls-1" d="M185,222.21h25.5v-25.5H185Zm8-4.1h-3.6v-11.6H193v11.6Zm2.3-11.6h3.4v1.6h0a3.9,3.9,0,0,1,3.4-1.9c3.6,0,4.3,2.4,4.3,5.5v6.4h-3.6v-5.6c0-1.3,0-3.1-1.9-3.1s-2.2,1.5-2.2,3v5.7h-3.6l.2-11.6Zm-4.1-5.7a2.1,2.1,0,1,1-2.1,2.1,2.05,2.05,0,0,1,2-2.1Z" transform="translate(0.01 0)"/><path class="cls-1" d="M46.63,222.21h25.5v-25.5H46.63Zm6.2-11.3c.2,0,.4.1.7.1a2.74,2.74,0,0,0,.9-.1,3.53,3.53,0,0,1-2.8-3.4h0a3,3,0,0,0,1.6.4,3.4,3.4,0,0,1-1.1-4.69h0a9.72,9.72,0,0,0,7.2,3.6,3.49,3.49,0,0,1,2.45-4.29h0a3.55,3.55,0,0,1,3.5,1.1,6.06,6.06,0,0,0,2.2-.9,3.53,3.53,0,0,1-1.5,1.9,6.7,6.7,0,0,0,2-.6,10,10,0,0,1-1.7,1.8v.4a9.92,9.92,0,0,1-9.9,9.9,9.18,9.18,0,0,1-5.3-1.6,2,2,0,0,1,.8.1,6.65,6.65,0,0,0,4.3-1.5A3,3,0,0,1,52.83,210.91Z" transform="translate(0.01 0)"/><path class="cls-1" d="M500.93,37.81l8-8,2.3,2.3-5.7,5.7,5.7,5.7-2.3,2.3Z" transform="translate(0.01 0)"/><path class="cls-1" d="M478.13,45.81l-2.3-2.3,5.7-5.7-5.7-5.7,2.3-2.3,8,8Z" transform="translate(0.01 0)"/><path class="cls-3" d="M456.83,1.31a3.89,3.89,0,0,1,1.3,3.2v9.1a4.59,4.59,0,0,1-4.58,4.6h-9.12a4.59,4.59,0,0,1-4.6-4.58V4.51a4.62,4.62,0,0,1,1.3-3.2,3.89,3.89,0,0,1,3.2-1.3h9.1A4.67,4.67,0,0,1,456.83,1.31Zm-2,5.4-1-1c-.1-.2-.3-.2-.5,0l-5.1,5.1c-.1.1-.3.2-.4.1l-.1-.1-2.2-2.3a.45.45,0,0,0-.5,0l-1,.9a.3.3,0,0,0-.1.2c0,.1,0,.2.1.2l2.2,2.4c.1,0,.1.1.2.1l.2.2a.09.09,0,0,0,.1.1h0l1,1a.45.45,0,0,0,.5,0h0l6.5-6.5c.3,0,.3-.2.1-.4.1.1.1,0,0,0Z" transform="translate(0.01 0)"/><path class="cls-19" d="M453.33,30a1.42,1.42,0,0,1,.6.2.48.48,0,0,1,.2.6v9.1a.86.86,0,0,1-.8.8h-9.1a1.42,1.42,0,0,1-.6-.2.48.48,0,0,1-.2-.6v-9.2a1.42,1.42,0,0,1,.2-.6.48.48,0,0,1,.6-.2l9.1.1m0-3.8h-9.1a4.57,4.57,0,0,0-4.6,4.5h0v9.1a4.6,4.6,0,0,0,4.58,4.6h9.12a4.58,4.58,0,0,0,4.6-4.58V30.71a4.63,4.63,0,0,0-4.6-4.5Z" transform="translate(0.01 0)"/><path class="cls-1" d="M517.43,4.41c.1.1.1.3.2.4a.76.76,0,0,1-.2.4l-10.9,10.9a.48.48,0,0,1-.68.11h0a.09.09,0,0,1-.1-.1h0l-1.6-1.6-.8-.8-3.7-3.9a.87.87,0,0,1,0-.8l1.6-1.5a.76.76,0,0,1,.4-.2.52.52,0,0,1,.4.2l3.7,3.8a.48.48,0,0,0,.68.11h0a.09.09,0,0,0,.1-.1h0l8.5-8.4a.5.5,0,0,1,.7-.1l.1.1Z" transform="translate(0.01 0)"/><polygon class="cls-1" points="489.94 70.31 489.94 70.31 477.03 56.71 474.14 59.41 484.44 70.31 474.14 81.21 477.03 83.91 489.94 70.31"/><polygon class="cls-1" points="498.94 70.31 498.94 70.31 511.83 56.71 514.74 59.41 504.44 70.31 514.74 81.21 511.83 83.91 498.94 70.31"/><path class="cls-1" d="M99.23,321.81c3.2,0,5.8-3.3,5.8-7.3s-2.6-7.3-5.8-7.3-5.8,3.3-5.8,7.3S96,321.81,99.23,321.81Zm0-13.1c2.3,0,4.2,2.6,4.2,5.8s-1.9,5.8-4.2,5.8-4.2-2.6-4.2-5.8S96.93,308.71,99.23,308.71Z" transform="translate(0.01 0)"/><path class="cls-1" d="M88.43,323.11l-1.5,4.6a.89.89,0,0,0,.5,1h23.4a.71.71,0,0,0,.6-.3.86.86,0,0,0,.1-.7l-1.5-4.6a1.21,1.21,0,0,0-.5-.5l-5.4-1.5a.65.65,0,0,0-.6.1l-4.3,2.1-4.3-2.1a1.23,1.23,0,0,0-.6-.1l-5.4,1.5A1.21,1.21,0,0,0,88.43,323.11Zm6-.5,4.4,2.2a.85.85,0,0,0,.7,0l4.4-2.2,4.7,1.3,1.1,3.2h-21l1-3.2Z" transform="translate(0.01 0)"/><path class="cls-8" d="M378.23,165.81c2.6,0,4.8-2.7,4.8-6.1s-2.1-6.1-4.8-6.1-4.8,2.7-4.8,6.1S375.63,165.81,378.23,165.81Z" transform="translate(0.01 0)"/><path class="cls-8" d="M369.33,167.71l-1.3,3.8a.65.65,0,0,0,.1.6.56.56,0,0,0,.5.3h19.2a.58.58,0,0,0,.6-.56v-.24l-1.3-3.8c-.1-.2-.2-.4-.4-.4l-4.5-1.3a.45.45,0,0,0-.5,0l-3.5,1.8-3.5-1.8a.45.45,0,0,0-.5,0l-4.5,1.3c-.2,0-.4.1-.4.3Z" transform="translate(0.01 0)"/><path class="cls-1" d="M65.93,308.71h-3.1v-.8a.77.77,0,0,0-.7-.8h-2.3a.79.79,0,0,0-.8.78v.82h-9.3v-.8a.79.79,0,0,0-.78-.8H46.63a.79.79,0,0,0-.8.78v.82h-3.1a.79.79,0,0,0-.8.78V328a.79.79,0,0,0,.78.8H65.93a.79.79,0,0,0,.8-.78V309.51a.79.79,0,0,0-.78-.8Zm-5.4,0h.8v1.5h-.8Zm-13.1,0h.8v1.5h-.8Zm17.7,18.5H43.53v-17h2.3v.8a.79.79,0,0,0,.78.8h2.32a.79.79,0,0,0,.8-.78v-.82H59v.8a.79.79,0,0,0,.78.8h2.32a.79.79,0,0,0,.8-.78v-.82h2.3Z" transform="translate(0.01 0)"/><path class="cls-1" d="M49.73,314.91h-3.1a.79.79,0,0,0-.8.78v3.12a.79.79,0,0,0,.78.8h3.12a.79.79,0,0,0,.8-.78v-3.12a.79.79,0,0,0-.78-.8Zm-.8,3.1h-1.5v-1.5h1.5Z" transform="translate(0.01 0)"/><path class="cls-1" d="M55.93,314.91h-3.1a.79.79,0,0,0-.8.78v3.12a.79.79,0,0,0,.78.8h3.12a.79.79,0,0,0,.8-.78v-3.12C56.63,315.21,56.33,314.91,55.93,314.91Zm-.8,3.1h-1.5v-1.5h1.5Z" transform="translate(0.01 0)"/><path class="cls-1" d="M62.13,314.91H59a.79.79,0,0,0-.8.78v3.12a.79.79,0,0,0,.78.8h3.12a.79.79,0,0,0,.8-.78v-3.12a.79.79,0,0,0-.78-.8Zm-.8,3.1h-1.5v-1.5h1.5Z" transform="translate(0.01 0)"/><path class="cls-1" d="M49.73,321h-3.1a.79.79,0,0,0-.8.78v3.12a.79.79,0,0,0,.78.8h3.12a.79.79,0,0,0,.8-.78v-3.12A.86.86,0,0,0,49.73,321Zm-.8,3.1h-1.5v-1.5h1.5Z" transform="translate(0.01 0)"/><path class="cls-1" d="M55.93,321h-3.1a.79.79,0,0,0-.8.78v3.12a.79.79,0,0,0,.78.8h3.12a.79.79,0,0,0,.8-.78v-3.12C56.63,321.41,56.33,321,55.93,321Zm-.8,3.1h-1.5v-1.5h1.5Z" transform="translate(0.01 0)"/><path class="cls-1" d="M62.13,321H59a.79.79,0,0,0-.8.78v3.12a.79.79,0,0,0,.78.8h3.12a.79.79,0,0,0,.8-.78v-3.12A.86.86,0,0,0,62.13,321Zm-.8,3.1h-1.5v-1.5h1.5Z" transform="translate(0.01 0)"/><path class="cls-1" d="M227.13,330.31h14.7a1.47,1.47,0,0,0,1.5-1.44V307.21a1.54,1.54,0,0,0-1.5-1.5h-14.7a1.54,1.54,0,0,0-1.5,1.5v2.3h-.8a.8.8,0,0,0,0,1.6h.8v1.5h-.8a.8.8,0,1,0,0,1.6h.8v1.5h-.8a.8.8,0,1,0,0,1.6h.8v1.5h-.8a.79.79,0,0,0-.8.78v0a.77.77,0,0,0,.7.8h.8v1.5h-.7a.8.8,0,1,0,0,1.6h.8V325h-.8a.8.8,0,0,0,0,1.6h.8v2.3a1.38,1.38,0,0,0,1.38,1.4Zm14.7-1.5h-3.1v-21.6h3.1Zm-14.7-5.4h.8a.8.8,0,0,0,0-1.6h-.8v-1.5h.8a.8.8,0,0,0,0-1.6h-.8v-1.5h.8a.8.8,0,0,0,0-1.6h-.8v-1.5h.8a.8.8,0,0,0,0-1.6h-.8v-1.6h.8a.8.8,0,0,0,0-1.6h-.8V307h10v21.6h-10v-2.3h.8a.8.8,0,0,0,0-1.6h-.8Z" transform="translate(0.01 0)"/><path class="cls-1" d="M155.53,307.11l-11.5,1.5-11.5-1.5a.74.74,0,0,0-.6.2.71.71,0,0,0-.3.6v18.5a.85.85,0,0,0,.7.8l11.6,1.5h.2l11.6-1.5a.85.85,0,0,0,.7-.8v-18.5a.83.83,0,0,0-.3-.6,1.42,1.42,0,0,0-.6-.2Zm-22.3,1.7,10,1.3v17l-10-1.3Zm21.6,17-10,1.3v-17l10-1.3Z" transform="translate(0.01 0)"/><path class="cls-1" d="M135.43,312.51l6.2.8h.1a.75.75,0,0,0,.1-1.5h0l-6.2-.8a.76.76,0,1,0-.34,1.48l.14,0Z" transform="translate(0.01 0)"/><path class="cls-1" d="M141.83,315.61l-6.2-.8a.76.76,0,0,0-.3,1.5h.2l6.2.8h.1a.85.85,0,0,0,.8-.7A1.27,1.27,0,0,0,141.83,315.61Z" transform="translate(0.01 0)"/><path class="cls-1" d="M141.83,319.51l-6.2-.8a.81.81,0,0,0-.2,1.6h0l6.2.8h.1a.85.85,0,0,0,.8-.7.82.82,0,0,0-.7-.9Z" transform="translate(0.01 0)"/><path class="cls-1" d="M141.83,323.41l-6.2-.8a.81.81,0,0,0-.2,1.6l6.2.8h.1a.85.85,0,0,0,.8-.7.82.82,0,0,0-.7-.9Z" transform="translate(0.01 0)"/><path class="cls-1" d="M146.33,313.31h.1l6.2-.8a.81.81,0,0,0-.2-1.6l-6.2.8a.77.77,0,0,0-.7.8c0,.4.4.9.8.8Z" transform="translate(0.01 0)"/><path class="cls-1" d="M146.33,317.21h.1l6.2-.8a.8.8,0,0,0,0-1.6h-.2l-6.2.8a.78.78,0,0,0-.6.9.67.67,0,0,0,.66.7Z" transform="translate(0.01 0)"/><path class="cls-1" d="M146.33,321h.1l6.2-.8a.81.81,0,0,0-.2-1.6l-6.2.8a.88.88,0,0,0-.7.9c.1.5.4.8.8.7Z" transform="translate(0.01 0)"/><path class="cls-1" d="M152.43,322.61l-6.2.8a.75.75,0,1,0,.1,1.5h.1l6.2-.8a.76.76,0,1,0-.06-1.52l-.14,0Z" transform="translate(0.01 0)"/><path class="cls-1" d="M177.23,321h2.5l.4,1.3-2,2a.78.78,0,0,0,0,1.1h0l3.1,3.1a.78.78,0,0,0,1.1,0h0l2-2,1.3.5v2.5a.79.79,0,0,0,.78.8H191a.79.79,0,0,0,.8-.78v-2.62l1.3-.5,2,2a.78.78,0,0,0,1.1,0l3.1-3.1a.78.78,0,0,0,0-1.1l-2-2,.4-1.3h2.5a.79.79,0,0,0,.8-.78v-4.62a.79.79,0,0,0-.78-.8h-2.52l-.4-1.3,2-2a.78.78,0,0,0,0-1.1h0l-3.1-3.1a.78.78,0,0,0-1.1,0h0l-2,2-1.3-.5v-2.4a.79.79,0,0,0-.78-.8h-4.62a.79.79,0,0,0-.8.78v2.52l-1.3.5-2-2a.78.78,0,0,0-1.1,0h0l-3.1,3.1a.78.78,0,0,0,0,1.1h0l2,2-.4,1.3h-2.5a.79.79,0,0,0-.8.78v4.62c.1.4.4.8.8.8Zm.8-4.6h2.3a.74.74,0,0,0,.7-.5l.8-2.3a.79.79,0,0,0-.2-.8l-1.8-1.8,2-2,1.8,1.8a.79.79,0,0,0,.8.2l2.3-.8a.74.74,0,0,0,.5-.7v-2.3h3.1v2.3a.74.74,0,0,0,.5.7l2.3.8a.79.79,0,0,0,.8-.2l1.8-1.8,2,2-1.8,1.8a.79.79,0,0,0-.2.8l.8,2.3a.74.74,0,0,0,.7.5h2.3v3.1h-2.3a.74.74,0,0,0-.7.5l-.8,2.3a.79.79,0,0,0,.2.8l1.8,1.8-2,2-1.8-1.8a.79.79,0,0,0-.8-.2l-2.3.8a.74.74,0,0,0-.5.7v2.3h-3.1v-2.3a.74.74,0,0,0-.5-.7l-2.3-.8a.79.79,0,0,0-.8.2l-1.8,1.8-2-2,1.8-1.8a.79.79,0,0,0,.2-.8L181,320a.74.74,0,0,0-.7-.5H178Z" transform="translate(0.01 0)"/><path class="cls-1" d="M188.83,321a3.1,3.1,0,1,0-3.1-3.1A3.1,3.1,0,0,0,188.83,321Zm0-4.6a1.55,1.55,0,1,1-1.5,1.6h0A1.57,1.57,0,0,1,188.83,316.41Z" transform="translate(0.01 0)"/><path class="cls-1" d="M12.63,314.51a3.1,3.1,0,1,0-3.1,3.1h0A3.12,3.12,0,0,0,12.63,314.51Zm-4.6,0a1.5,1.5,0,0,1,1.4-1.6h.1a1.55,1.55,0,1,1,.1,3.1h-.1A1.6,1.6,0,0,1,8,314.51Z" transform="translate(0.01 0)"/><path class="cls-1" d="M9.53,330.31a.83.83,0,0,0,.6-.3c.3-.4,8.3-9.5,8.3-15.6a8.9,8.9,0,0,0-17.8,0h0c0,6,7.9,15.2,8.3,15.6A.83.83,0,0,0,9.53,330.31Zm0-23.2a7.36,7.36,0,0,1,7.3,7.4c0,4.6-5.5,11.6-7.4,13.9-1.8-2.2-7.3-9.3-7.3-13.9a7.37,7.37,0,0,1,7.36-7.4Z" transform="translate(0.01 0)"/><path class="cls-1" d="M110.93,360.51H86a.79.79,0,0,0-.8.78v15a.79.79,0,0,0,.78.8h25a.79.79,0,0,0,.8-.78v-15a.82.82,0,0,0-.84-.8Zm-2.6,1.7-9.8,6.1-9.8-6.1Zm-21.5,13.3V363l11.7,7.2,11.6-7.2v12.5Z" transform="translate(0.01 0)"/><path class="cls-1" d="M143.83,365.51a.79.79,0,0,0-.8.78v11.32l-1.9-1.9a.82.82,0,0,0-1.16.05l0,.05a.78.78,0,0,0,0,1.1l3.3,3.3a.91.91,0,0,0,1.2,0h0l3.3-3.3a.85.85,0,0,0-1.1-1.3h0l-.1.1-1.9,1.9v-11.3A.86.86,0,0,0,143.83,365.51Z" transform="translate(0.01 0)"/><path class="cls-1" d="M156.33,357.21h-25a.79.79,0,0,0-.8.78v15a.79.79,0,0,0,.78.8h9.12a.8.8,0,0,0,0-1.6h-8.3v-13.3h23.3v13.3h-8.3a.8.8,0,1,0,0,1.6h9.1a.79.79,0,0,0,.8-.78V358a.71.71,0,0,0-.61-.79Z" transform="translate(0.01 0)"/><path class="cls-1" d="M13.33,355.51a13.32,13.32,0,1,0,9.4,3.9A13.32,13.32,0,0,0,13.33,355.51Zm8.2,21.6a11.67,11.67,0,1,1,.1-16.5h0a11.59,11.59,0,0,1,0,16.39Z" transform="translate(0.01 0)"/><path class="cls-1" d="M17.43,368.51l-3.3-8.3a1,1,0,0,0-1.1-.5,1.21,1.21,0,0,0-.5.5l-3.3,8.3a.64.64,0,0,0,0,.6h0l3.3,8.3a1,1,0,0,0,1.1.5,1.21,1.21,0,0,0,.5-.5l3.3-8.3h0A.64.64,0,0,0,17.43,368.51Zm-4.1-5.7,2.1,5.2h-4.2Zm0,12.1-2.1-5.2h4.2Z" transform="translate(0.01 0)"/><path class="cls-1" d="M41.23,378h5v3.3a.79.79,0,0,0,.78.8H60.33a.79.79,0,0,0,.8-.78V378h5a.79.79,0,0,0,.8-.78V363.91a.79.79,0,0,0-.78-.8h-5v-6.6a.79.79,0,0,0-.78-.8H47a.79.79,0,0,0-.8.78v6.62h-5a.79.79,0,0,0-.8.78v13.32c-.1.4.3.7.8.8Zm18.3,2.5H47.83v-8.3h11.6v8.3Zm-11.7-23.3h11.7V363H47.83Zm-5.8,7.5h23.3v11.6h-4.2v-5a.79.79,0,0,0-.78-.8H47a.79.79,0,0,0-.8.78v5H42Z" transform="translate(0.01 0)"/><path class="cls-1" d="M45.13,366.21a.91.91,0,0,0-1.2,0,.74.74,0,0,0-.2.6,1.42,1.42,0,0,0,.2.6.91.91,0,0,0,1.2,0h0a.74.74,0,0,0,.2-.6A1,1,0,0,0,45.13,366.21Z" transform="translate(0.01 0)"/><path class="cls-1" d="M47,367.61a1.42,1.42,0,0,0,.6-.2.74.74,0,0,0,.2-.6,1.42,1.42,0,0,0-.2-.6.91.91,0,0,0-1.2,0,.74.74,0,0,0-.2.6,1.42,1.42,0,0,0,.2.6A1.42,1.42,0,0,0,47,367.61Z" transform="translate(0.01 0)"/><path class="cls-1" d="M57.83,373.81h-8.3a.8.8,0,1,0,0,1.6h8.3a.8.8,0,0,0,0-1.6Z" transform="translate(0.01 0)"/><path class="cls-1" d="M57.83,377.21h-8.3a.8.8,0,1,0,0,1.6h8.3a.79.79,0,0,0,.8-.78v0a.74.74,0,0,0-.67-.8Z" transform="translate(0.01 0)"/><polygon class="cls-3" points="12.83 560.51 20.03 565.31 12.83 570.01 12.83 560.51"/><path class="cls-1" d="M53,577.31a15.13,15.13,0,1,1,21.4,0A15.13,15.13,0,0,1,53,577.31Zm19.4-19.4a12.25,12.25,0,1,0,.18.18Z" transform="translate(0.01 0)"/><polygon class="cls-1" points="61.34 561.91 68.64 566.61 61.34 571.41 61.34 561.91"/><polygon class="cls-2" points="369.94 113.81 387.83 124.31 369.94 134.71 369.94 113.81"/><rect class="cls-2" x="418.13" y="116.81" width="3.6" height="16.4"/><path d="M453.23,129.51h3.6l5.6,5.6a.61.61,0,0,0,.7.1.68.68,0,0,0,.4-.6v-19.3a.68.68,0,0,0-.4-.6.86.86,0,0,0-.7.1l-5.6,5.6h-3.6a.58.58,0,0,0-.6.56v0h0v7.7a.61.61,0,0,0,.39.77A.76.76,0,0,0,453.23,129.51Zm.6-7.7H457c.2,0,.3-.1.5-.2l4.7-4.7v16.2l-4.7-4.7a.72.72,0,0,0-.5-.2h-3.2Z" transform="translate(0.01 0)"/><path d="M464.93,128.31a.56.56,0,0,0,.78.12.68.68,0,0,0,.12-.12h0l2.4-2.4,2.4,2.4a.56.56,0,0,0,.78.12.68.68,0,0,0,.12-.12c.2-.3.3-.7,0-.9l-2.4-2.4,2.4-2.4a.56.56,0,0,0,.12-.78.68.68,0,0,0-.12-.12c-.3-.2-.7-.3-.9,0l-2.4,2.4-2.4-2.4a.64.64,0,0,0-1,.8.47.47,0,0,0,.1.1l2.4,2.4-2.4,2.4A.75.75,0,0,0,464.93,128.31Z" transform="translate(0.01 0)"/><path d="M500.73,129.51h3.6l5.6,5.6a.72.72,0,0,0,.5.2.58.58,0,0,0,.6-.56v0h0v-19.4a.68.68,0,0,0-.4-.6.86.86,0,0,0-.7.1l-5.6,5.6h-3.6a.58.58,0,0,0-.6.56v7.74C500.13,129.21,500.33,129.51,500.73,129.51Zm.7-7.7h3.2c.2,0,.3-.1.5-.2l4.7-4.7v16.2l-4.7-4.7a.72.72,0,0,0-.5-.2h-3.2Z" transform="translate(0.01 0)"/><path d="M512.93,127.51a.6.6,0,1,0,0,1.2,3.91,3.91,0,0,0,0-7.8.58.58,0,0,0-.6.56v0a.65.65,0,0,0,.6.6h0a2.56,2.56,0,0,1,2.4,2.7A2.5,2.5,0,0,1,513,127.5Z" transform="translate(0.01 0)"/><path d="M545.43,129.51H549l5.6,5.6a.61.61,0,0,0,.7.1.68.68,0,0,0,.4-.6v-19.3a.68.68,0,0,0-.4-.6.86.86,0,0,0-.7.1l-5.6,5.6h-3.6a.58.58,0,0,0-.6.56v0h0v7.7C544.83,129.21,545.13,129.51,545.43,129.51Zm.6-7.7h3.2c.2,0,.3-.1.5-.2l4.7-4.7v16.2l-4.7-4.7a.72.72,0,0,0-.5-.2H546Z" transform="translate(0.01 0)"/><path d="M557.63,127.51a.6.6,0,0,0,0,1.2h0a3.91,3.91,0,0,0,0-7.8.58.58,0,0,0-.6.56v0a.65.65,0,0,0,.6.6h0a2.72,2.72,0,0,1,0,5.4Z" transform="translate(0.01 0)"/><path d="M557.63,132a7.1,7.1,0,0,0,0-14.2h0a.6.6,0,0,0,0,1.2h0a5.8,5.8,0,0,1,0,11.6.67.67,0,0,0-.7.6c0,.6.3.9.7.8Z" transform="translate(0.01 0)"/><path class="cls-1" d="M550.13,73.51a7.6,7.6,0,1,1,7.6,7.6h0A7.6,7.6,0,0,1,550.13,73.51Zm1.7,0a5.9,5.9,0,1,0,5.9-5.9h0A5.91,5.91,0,0,0,551.83,73.51Z" transform="translate(0.01 0)"/><rect class="cls-1" x="546.1" y="80.16" width="7.6" height="1.9" transform="translate(103.31 412.05) rotate(-44.93)"/><rect class="cls-1" x="166.73" y="496.31" width="13.6" height="2.6"/><rect class="cls-1" x="177.73" y="496.31" width="2.6" height="13.6"/><rect class="cls-1" x="166.64" y="501.87" width="13.6" height="2.6" transform="translate(-305.03 270.1) rotate(-45.01)"/><rect class="cls-20" x="206.81" y="499.41" width="7.5" height="1.9" transform="translate(-292.13 295.44) rotate(-45)"/><rect class="cls-20" x="213.64" y="496.51" width="1.9" height="7.5" transform="translate(-290.88 298.26) rotate(-45)"/><rect class="cls-20" x="211.64" y="499.01" width="1.9" height="9.7"/><rect class="cls-21" x="262.83" y="496.91" width="12.4" height="3.1" transform="translate(-273.66 336.23) rotate(-45)"/><rect class="cls-21" x="274" y="492.3" width="3.1" height="12.4" transform="translate(-271.78 340.85) rotate(-45)"/><rect class="cls-21" x="270.84" y="496.31" width="3.1" height="15.9"/><rect class="cls-1" x="238.93" y="498.81" width="8.7" height="2.2" transform="translate(-282.22 318.45) rotate(-45)"/><rect class="cls-1" x="246.7" y="495.49" width="2.2" height="8.7" transform="translate(-280.86 321.62) rotate(-45)"/><rect class="cls-1" x="244.53" y="498.41" width="2.2" height="11.2"/><rect class="cls-3" x="117.43" y="496.31" width="13.6" height="2.6"/><rect class="cls-3" x="128.44" y="496.31" width="2.6" height="13.6"/><rect class="cls-1" x="64.23" y="491.34" width="2.6" height="13.6" transform="translate(-333.15 192.38) rotate(-45.02)"/><rect class="cls-1" x="58.75" y="504.51" width="13.6" height="2.6" transform="translate(-338.45 194.5) rotate(-45)"/><path class="cls-22" d="M706.63.61l1,.2-8.5,30.9-1-.2Z" transform="translate(0.01 0)"/><line class="cls-23" x1="422.34" y1="580.31" x2="456.34" y2="452.21"/><line class="cls-23" x1="425.84" y1="580.31" x2="459.84" y2="452.21"/><line class="cls-23" x1="429.34" y1="580.31" x2="463.34" y2="452.21"/><line class="cls-23" x1="432.84" y1="580.31" x2="466.94" y2="452.21"/><line class="cls-23" x1="436.34" y1="580.31" x2="470.44" y2="452.21"/><line class="cls-23" x1="439.84" y1="580.31" x2="473.94" y2="452.21"/><line class="cls-23" x1="443.34" y1="580.31" x2="477.44" y2="452.21"/><line class="cls-23" x1="446.84" y1="580.31" x2="480.94" y2="452.21"/><line class="cls-23" x1="450.34" y1="580.31" x2="484.44" y2="452.21"/><line class="cls-23" x1="453.94" y1="580.31" x2="487.94" y2="452.21"/><line class="cls-23" x1="457.44" y1="580.31" x2="491.44" y2="452.21"/><line class="cls-23" x1="460.94" y1="580.31" x2="494.94" y2="452.21"/><line class="cls-23" x1="464.44" y1="580.31" x2="498.44" y2="452.21"/><line class="cls-23" x1="467.94" y1="580.31" x2="502.04" y2="452.21"/><line class="cls-23" x1="471.44" y1="580.31" x2="505.54" y2="452.21"/><line class="cls-23" x1="474.94" y1="580.31" x2="509.04" y2="452.21"/><line class="cls-23" x1="478.44" y1="580.31" x2="512.54" y2="452.21"/><line class="cls-23" x1="481.94" y1="580.31" x2="516.04" y2="452.21"/><line class="cls-23" x1="485.44" y1="580.31" x2="519.54" y2="452.21"/><line class="cls-23" x1="489.04" y1="580.31" x2="523.04" y2="452.21"/><line class="cls-23" x1="492.54" y1="580.31" x2="526.54" y2="452.21"/><line class="cls-23" x1="496.04" y1="580.31" x2="530.04" y2="452.21"/><line class="cls-23" x1="499.54" y1="580.31" x2="533.54" y2="452.21"/><line class="cls-23" x1="503.04" y1="580.31" x2="537.13" y2="452.21"/><line class="cls-23" x1="506.54" y1="580.31" x2="540.63" y2="452.21"/><line class="cls-23" x1="510.04" y1="580.31" x2="544.13" y2="452.21"/><line class="cls-23" x1="513.54" y1="580.31" x2="547.63" y2="452.21"/><line class="cls-23" x1="517.04" y1="580.31" x2="551.13" y2="452.21"/><line class="cls-23" x1="520.63" y1="580.31" x2="554.63" y2="452.21"/><line class="cls-23" x1="524.13" y1="580.31" x2="558.13" y2="452.21"/><line class="cls-23" x1="527.63" y1="580.31" x2="561.63" y2="452.21"/><line class="cls-23" x1="531.13" y1="580.31" x2="565.13" y2="452.21"/><line class="cls-23" x1="534.63" y1="580.31" x2="568.74" y2="452.21"/><line class="cls-23" x1="538.13" y1="580.31" x2="572.24" y2="452.21"/><line class="cls-23" x1="541.63" y1="580.31" x2="575.74" y2="452.21"/><line class="cls-23" x1="545.13" y1="580.31" x2="579.24" y2="452.21"/><line class="cls-23" x1="548.63" y1="580.31" x2="582.74" y2="452.21"/><line class="cls-23" x1="552.13" y1="580.31" x2="586.24" y2="452.21"/><line class="cls-23" x1="555.74" y1="580.31" x2="589.74" y2="452.21"/><line class="cls-23" x1="559.24" y1="580.31" x2="593.24" y2="452.21"/><line class="cls-23" x1="562.74" y1="580.31" x2="596.74" y2="452.21"/><line class="cls-23" x1="566.24" y1="580.31" x2="600.24" y2="452.21"/><line class="cls-23" x1="569.74" y1="580.31" x2="603.84" y2="452.21"/><line class="cls-23" x1="573.24" y1="580.31" x2="607.34" y2="452.21"/><line class="cls-23" x1="576.74" y1="580.31" x2="610.84" y2="452.21"/><line class="cls-23" x1="580.24" y1="580.31" x2="614.34" y2="452.21"/><line class="cls-23" x1="583.74" y1="580.31" x2="617.84" y2="452.21"/><line class="cls-23" x1="587.24" y1="580.31" x2="621.34" y2="452.21"/><line class="cls-23" x1="590.84" y1="580.31" x2="624.84" y2="452.21"/><line class="cls-23" x1="594.34" y1="580.31" x2="628.34" y2="452.21"/><line class="cls-23" x1="597.84" y1="580.31" x2="631.84" y2="452.21"/><line class="cls-23" x1="601.34" y1="580.31" x2="635.34" y2="452.21"/><line class="cls-23" x1="604.84" y1="580.31" x2="638.93" y2="452.21"/><line class="cls-23" x1="608.34" y1="580.31" x2="642.43" y2="452.21"/><line class="cls-23" x1="611.84" y1="580.31" x2="645.93" y2="452.21"/><line class="cls-23" x1="615.34" y1="580.31" x2="649.43" y2="452.21"/><line class="cls-23" x1="618.84" y1="580.31" x2="652.93" y2="452.21"/><line class="cls-23" x1="622.34" y1="580.31" x2="656.43" y2="452.21"/><line class="cls-23" x1="625.93" y1="580.31" x2="659.93" y2="452.21"/><line class="cls-23" x1="629.43" y1="580.31" x2="663.43" y2="452.21"/><line class="cls-23" x1="632.93" y1="580.31" x2="666.93" y2="452.21"/><line class="cls-23" x1="636.43" y1="580.31" x2="670.43" y2="452.21"/><line class="cls-23" x1="639.93" y1="580.31" x2="674.04" y2="452.21"/><line class="cls-23" x1="643.43" y1="580.31" x2="677.54" y2="452.21"/><line class="cls-23" x1="646.93" y1="580.31" x2="681.04" y2="452.21"/><line class="cls-23" x1="650.43" y1="580.31" x2="684.54" y2="452.21"/><line class="cls-23" x1="653.93" y1="580.31" x2="688.04" y2="452.21"/><line class="cls-23" x1="657.43" y1="580.31" x2="691.54" y2="452.21"/><line class="cls-23" x1="661.04" y1="580.31" x2="695.04" y2="452.21"/><line class="cls-23" x1="664.54" y1="580.31" x2="698.54" y2="452.21"/><line class="cls-23" x1="668.04" y1="580.31" x2="702.04" y2="452.21"/><line class="cls-23" x1="671.54" y1="580.31" x2="705.54" y2="452.21"/><polygon class="cls-1" points="482.14 8.71 482.14 8.71 488.03 2.51 486.33 0.91 480.53 7.01 474.74 0.91 473.03 2.51 478.94 8.71 478.94 8.71 478.94 8.71 473.03 14.91 474.74 16.51 480.53 10.41 486.33 16.51 488.03 14.91 482.14 8.71"/><rect class="cls-24" x="436.31" y="76.8" width="25.9" height="1.5" transform="translate(76.76 340.39) rotate(-45)"/><rect class="cls-24" x="448.52" y="64.6" width="1.5" height="25.9" transform="translate(76.76 340.4) rotate(-45)"/><path class="cls-1" d="M384.93,256.31a6.1,6.1,0,0,1-1.9.6,10.9,10.9,0,0,1-1.8.2,4.69,4.69,0,0,1-1.7-.3,4,4,0,0,1-1.4-.8,2.82,2.82,0,0,1-.8-1.1,3.19,3.19,0,0,1-.2-1.7v-5.6H375v-2.2a7.58,7.58,0,0,0,1.8-.9,5.16,5.16,0,0,0,1.1-1.4,4.49,4.49,0,0,0,.5-2h2.2v3.6h3.6v2.8h-3.6v4.1a9.65,9.65,0,0,0,.1,1.7,1.29,1.29,0,0,0,.6.7,2.63,2.63,0,0,0,1.2.3,4.07,4.07,0,0,0,2.4-.8v2.8Z" transform="translate(0.01 0)"/><path class="cls-1" d="M367.13,196.71v25.5h25.5v-25.5Zm17.8,19.8a12.66,12.66,0,0,1-1.8.7,10.9,10.9,0,0,1-1.8.2,4.69,4.69,0,0,1-1.7-.3,4,4,0,0,1-1.4-.8,2.82,2.82,0,0,1-.8-1.1,3.19,3.19,0,0,1-.2-1.7v-5.6h-2.1v-2.2a7.58,7.58,0,0,0,1.8-.9,5.16,5.16,0,0,0,1.1-1.4,4.49,4.49,0,0,0,.5-2h2.2v3.7h3.6v2.8h-3.6V212a9.65,9.65,0,0,0,.1,1.7,1.33,1.33,0,0,0,.6.7,2.63,2.63,0,0,0,1.2.3,4.07,4.07,0,0,0,2.4-.8l-.1,2.6Z" transform="translate(0.01 0)"/><circle class="cls-25" cx="391.04" cy="35.31" r="8"/><circle class="cls-26" cx="391.04" cy="10.51" r="8"/><circle class="cls-25" cx="415.34" cy="35.31" r="8"/><circle class="cls-26" cx="415.34" cy="10.51" r="8"/><circle class="cls-3" cx="415.34" cy="10.51" r="2.8"/><circle class="cls-19" cx="415.34" cy="35.31" r="2.8"/><path class="cls-1" d="M5.93,435.21c0-2.4-.1-6.3-.1-6.9-.1-1-.3-1.3-1.4-1.3H2.73c-.2,0-.3-.2-.3-.4v-.8c0-.2,0-.3.3-.3s1.7.1,4.8.1c3.6,0,5.1-.1,5.5-.1s.3.1.3.3v.9c0,.2-.1.3-.4.3h-2.2c-1.1,0-1.3.4-1.3,1.4,0,.5-.1,6-.1,8.6v3.2c0,.6,0,8.6.1,10.1.8.1,8.1.1,9.3,0,2.2-.3,4.4-4.8,4.9-6.2.1-.1.1-.2.3-.1l.6.2c.1.1.1.1.1.3s-1.6,6.4-1.8,7.3c-.5,0-3.4-.1-6.6-.1H4a13,13,0,0,0-1.4.1.27.27,0,0,1-.3-.24v-1c0-.2,0-.3.3-.3h1.8c1.4,0,1.6-.5,1.6-1,0-.7.1-9.9.1-12.1Z" transform="translate(0.01 0)"/><path class="cls-1" d="M28,441c0-1.2-.2-1.9-2.1-2.2-.3,0-.3-.1-.3-.3v-.3q0-.15.3-.3a29.28,29.28,0,0,0,4-1.8,1.94,1.94,0,0,1,.7-.2c.2,0,.2.2.2.4-.1.6-.1,3-.1,6v7.2c.1.7.2,1,.6,1H33c.3,0,.4.1.4.3v.6c0,.3-.1.4-.3.4s-2-.1-3.5-.1c-2.1,0-3.6.1-4,.1a.27.27,0,0,1-.3-.24v-.76c0-.2.1-.3.4-.3h1.8c.4,0,.5-.1.6-.7v-3.4Zm-1.7-11.3a2,2,0,0,1,2.1-1.9h.2a1.8,1.8,0,0,1,1.9,1.69h0v.1a2,2,0,0,1-2,2h-.1a2.08,2.08,0,0,1-2.1-1.9Z" transform="translate(0.01 0)"/><path class="cls-1" d="M47,442.31c0-2.7-.5-3.4-1.1-4a4,4,0,0,0-2.4-.7,4.13,4.13,0,0,0-4,4.21c0,.13,0,.26,0,.39v7.3c0,.6.2,1,.7,1h1.3c.3,0,.4.1.4.3v.6c0,.3,0,.4-.3.4s-1.3-.1-3.4-.1-3.1.1-3.4.1-.3-.1-.3-.3v-.7c0-.3.1-.3.4-.3h1.2c.3,0,.5-.2.5-.9v-8.5a1.89,1.89,0,0,0-1-1.9l-.8-.4q-.3-.15-.3-.3v-.3c0-.1.1-.2.2-.3l3.2-1.7a1.94,1.94,0,0,1,.7-.2c.2,0,.3.3.3.5l.2,2.1h.1a7.23,7.23,0,0,1,5.4-2.8,4.57,4.57,0,0,1,4.2,2.8H49a7.23,7.23,0,0,1,5.4-2.8,4.43,4.43,0,0,1,3.3,1.1,5.43,5.43,0,0,1,1.8,4.5v8.2c0,.5.3.7.8.7h1c.3,0,.4.1.4.3v.6c0,.3-.1.4-.3.4s-1.3-.1-3.1-.1-3.2.1-3.4.1-.3-.1-.3-.4v-.6c0-.3.1-.3.5-.3H56c.4,0,.7-.2.7-.6v-.1c.1-.9.1-2.2.1-3v-5.3a3.78,3.78,0,0,0-1.1-3,5.25,5.25,0,0,0-2.7-.8,4.18,4.18,0,0,0-3.2,1.9,6.8,6.8,0,0,0-.5,3.7v6.4c0,.5.2.9.7.9h1.3c.3,0,.4.1.4.3v.6c0,.3-.1.4-.3.4s-1.2-.1-3.3-.1-3.2.1-3.5.1-.3-.1-.3-.4v-.6c0-.3,0-.4.4-.4h1.1c.6,0,.8-.1.8-.6Z" transform="translate(0.01 0)"/><path class="cls-1" d="M65.33,441.91a10.87,10.87,0,0,0-.1,1.8c0,3.6,2.3,6.4,5.2,6.4a5.15,5.15,0,0,0,4.5-2.5c.1-.1.2-.2.3-.2l.5.3c.1,0,.2.1,0,.5a6.57,6.57,0,0,1-5.9,4,6.93,6.93,0,0,1-5.8-2.6,8.7,8.7,0,0,1-1.6-5.8,8.59,8.59,0,0,1,2.3-5.9,6.93,6.93,0,0,1,5.3-2c4.2,0,5.4,4,5.4,5.4,0,.5-.4.6-1,.6Zm5.9-1.1c.7,0,1-.2,1-.5,0-.9-.4-3.3-2.8-3.3-1.6,0-3.2,1.1-3.9,3.8Z" transform="translate(0.01 0)"/><path class="cls-1" d="M78.33,451.11c-.2-.1-.2-.3-.2-.5l-.6-3.5c0-.2.1-.3.2-.3l.5-.1c.2,0,.3,0,.3.2l.9,1.8c.7,1.4,1.2,2.3,3.2,2.3a2.71,2.71,0,0,0,2.9-2.49h0v-.1c0-1.7-.8-2.6-3.6-3.4-2.2-.6-4.4-1.8-4.4-4.7,0-2.5,2.4-4.5,5.2-4.5a6.52,6.52,0,0,1,3.4.8c.6.3.6.4.7.7l.6,2.6a.27.27,0,0,1-.24.3h-.06l-.4.1c-.2,0-.2,0-.3-.2l-1.3-1.7a2.7,2.7,0,0,0-2.6-1.4,2.58,2.58,0,0,0-2.8,2.3v.1c0,2.1,1.7,2.5,3.5,3.1,2.7.8,4.4,1.9,4.4,4.7s-2.5,4.9-5.6,4.9A6.89,6.89,0,0,1,78.33,451.11Z" transform="translate(0.01 0)"/><path class="cls-1" d="M94.33,447.11c0,2.8,1.2,3.2,1.9,3.2a4.87,4.87,0,0,0,2.4-.5.3.3,0,0,1,.4,0h0l.2.3a.25.25,0,0,1,0,.35l-.08.05A6.11,6.11,0,0,1,95,452c-1.8,0-3.6-1.7-3.6-3.1s.1-4.8.1-5.3v-.8c0-.7,0-3.1.1-4.7h-2.2c-.3,0-.6-.1-.6-.4s.2-.4.7-.7a16.91,16.91,0,0,0,4.2-4.6.68.68,0,0,1,.5-.4c.3,0,.4.3.4.5l-.2,3.6h5.1a.32.32,0,0,1,.3.3l-.4,1.3a.27.27,0,0,1-.24.3H94.33c-.1,1.7-.1,3.5-.1,5.2l.1,3.9Z" transform="translate(0.01 0)"/><path class="cls-1" d="M101.93,449.61a8.21,8.21,0,0,1,.7-11.6l.4-.4a8,8,0,0,1,4.9-1.8,8.35,8.35,0,0,1,5.2,2.1,8.2,8.2,0,0,1-5.7,14.1A6.87,6.87,0,0,1,101.93,449.61Zm10.6-5.9c0-4.1-3-6.7-4.9-6.7a3.31,3.31,0,0,0-2.8,1.2c-1.4,1.5-2,3-2,5.8a8.62,8.62,0,0,0,1.4,5.2,4,4,0,0,0,3.7,1.9C110.73,451,112.53,447.61,112.53,443.71Z" transform="translate(0.01 0)"/><path class="cls-1" d="M131.63,449.71c0,.6.3.8.8.8h1.2c.3,0,.4.1.4.3v.6c0,.3-.1.4-.3.4s-1.4-.1-3.5-.1c-1.9,0-3.1.1-3.3.1s-.3-.1-.3-.4v-.6c0-.3.1-.3.5-.3h1.1c.4,0,.7-.2.7-.9,0-1,.1-2.1.1-3.1v-4.9c0-1.5,0-2.5-1.1-3.3a4.23,4.23,0,0,0-2.7-.7,4.69,4.69,0,0,0-3,1.4,3.31,3.31,0,0,0-.8,2.5v7.6c0,1,.1,1.2.9,1.2h.9c.3,0,.4.1.4.4v.6a.27.27,0,0,1-.24.3h-.06c-.2,0-1.3-.1-3.2-.1s-3.1.1-3.3.1a.27.27,0,0,1-.3-.24v-.76c0-.2.1-.3.4-.3H118c.5,0,.7-.1.7-.7V441a2.29,2.29,0,0,0-1.5-2.2l-.3-.1c-.3-.1-.3-.2-.3-.3v-.1c0-.2.2-.3.3-.4l3.2-1.8a4.76,4.76,0,0,1,.7-.3c.2,0,.3.1.3.4l.3,2.2h.1a7.77,7.77,0,0,1,5.1-2.7,5.54,5.54,0,0,1,3.1.8,5.43,5.43,0,0,1,2,3.5Z" transform="translate(0.01 0)"/><path class="cls-1" d="M137.13,441.91a10.87,10.87,0,0,0-.1,1.8c0,3.6,2.3,6.4,5.2,6.4a5.15,5.15,0,0,0,4.5-2.5c.1-.1.2-.2.3-.2l.5.3c.1,0,.2.1,0,.5a6.57,6.57,0,0,1-5.9,4,6.93,6.93,0,0,1-5.8-2.6,8.7,8.7,0,0,1-1.6-5.8,8.59,8.59,0,0,1,2.3-5.9,6.93,6.93,0,0,1,5.3-2c4.2,0,5.4,4,5.4,5.4,0,.5-.4.6-1,.6Zm5.9-1.1c.7,0,1-.2,1-.5,0-.9-.4-3.3-2.8-3.3-1.6,0-3.2,1.1-3.9,3.8Z" transform="translate(0.01 0)"/><path class="cls-1" d="M161.83,448.91c-2.7-2.5-3.9-6.8-3.9-10.3a13.91,13.91,0,0,1,3.8-9.8,12.82,12.82,0,0,1,9.2-3.7,14.7,14.7,0,0,1,7.4,2c.5.3.7.3.7,0l.3-1.1c.1-.2.1-.2.5-.2s.4.1.4.6c0,.7.7,6.1.9,7.2,0,.2,0,.3-.1.4l-.6.1c-.2,0-.3,0-.4-.3a13.85,13.85,0,0,0-2.9-4.6,8.28,8.28,0,0,0-6.4-2.8c-6.6,0-9.3,5.9-9.2,11.3a15,15,0,0,0,3.5,9.5,8.19,8.19,0,0,0,7.1,3.1,11.32,11.32,0,0,0,9.1-4.7c.1-.2.2-.2.3-.1l.5.4c.1.1.2.1.1.3-2.2,3.2-5.8,6.2-11,6.2A14,14,0,0,1,161.83,448.91Z" transform="translate(0.01 0)"/><path class="cls-1" d="M185.73,449.61a8.21,8.21,0,0,1,.7-11.6l.4-.4a8,8,0,0,1,4.9-1.8,8.35,8.35,0,0,1,5.2,2.1,8.2,8.2,0,0,1-5.7,14.1A7,7,0,0,1,185.73,449.61Zm10.7-5.9c0-4.1-3-6.7-4.9-6.7a3.31,3.31,0,0,0-2.8,1.2c-1.4,1.5-2,3-2,5.8a8.62,8.62,0,0,0,1.4,5.2,3.91,3.91,0,0,0,3.6,1.9C194.53,451,196.33,447.61,196.43,443.71Z" transform="translate(0.01 0)"/><path class="cls-1" d="M205.63,440.71v8.6c0,.6.2,1.1,1,1.1h1.7c.3,0,.4.1.4.3v.6c0,.2-.1.4-.2.4s-1.9-.1-4.2-.1-3.8.1-4.2.1-.3-.1-.3-.4v-.6c0-.3.1-.3.5-.3h1.8a.82.82,0,0,0,.8-.84v-12c0-2.6,0-6-.1-6.9a2.24,2.24,0,0,0-1.9-2.2l-.7-.3c-.2-.1-.2-.1-.2-.2v-.3q0-.15.3-.3a34.18,34.18,0,0,0,4.3-2.1,1.12,1.12,0,0,1,.8-.3c.3,0,.3.2.3.7,0,2-.1,9.7-.1,11.7Z" transform="translate(0.01 0)"/><path class="cls-1" d="M214.33,440.71v8.6c0,.6.2,1.1,1,1.1H217c.3,0,.4.1.4.3v.6c0,.2-.1.4-.2.4s-1.9-.1-4.2-.1-3.8.1-4.2.1-.3-.1-.3-.4v-.6c0-.3.1-.3.5-.3h1.8a.82.82,0,0,0,.8-.84v-12c0-2.6,0-6-.1-6.9a2.24,2.24,0,0,0-1.9-2.2l-.7-.3c-.2-.1-.2-.1-.2-.2v-.3q0-.15.3-.3a34.18,34.18,0,0,0,4.3-2.1,1.12,1.12,0,0,1,.8-.3c.3,0,.3.2.3.7,0,2-.1,9.7-.1,11.7Z" transform="translate(0.01 0)"/><path class="cls-1" d="M220.93,441.91a10.87,10.87,0,0,0-.1,1.8c0,3.6,2.3,6.4,5.2,6.4a5.15,5.15,0,0,0,4.5-2.5c.1-.1.2-.2.3-.2l.5.3c.1,0,.2.1,0,.5a6.57,6.57,0,0,1-5.9,4,6.93,6.93,0,0,1-5.8-2.6,8.7,8.7,0,0,1-1.6-5.8,8.59,8.59,0,0,1,2.3-5.9,6.93,6.93,0,0,1,5.3-2c4.2,0,5.4,4,5.4,5.4,0,.5-.4.6-1,.6Zm5.9-1.1c.7,0,1-.2,1-.5,0-.9-.4-3.3-2.8-3.3-1.6,0-3.2,1.1-3.9,3.8Z" transform="translate(0.01 0)"/><path class="cls-1" d="M233.53,460.51a3.46,3.46,0,0,1-1.9-3c0-2.1,2.1-3.6,3.9-4.4V453a2.87,2.87,0,0,1-2.5-2.6c0-1.8,2-3,3.3-3.5v-.1a5.82,5.82,0,0,1-3.4-5.6c0-2.4,2.1-5.4,6.3-5.4a6,6,0,0,1,4.6,2.1,6.35,6.35,0,0,1,3.5-1.4c1.2,0,1.8.8,1.7,1.5a1.43,1.43,0,0,1-1.4,1.4h0a2.06,2.06,0,0,1-1.3-.5,1.12,1.12,0,0,0-.8-.3,4.86,4.86,0,0,0-1.2.2,6.74,6.74,0,0,1,.6,2.8,6.25,6.25,0,0,1-1.4,4,6.73,6.73,0,0,1-6.2,1.7c-.7.3-2,1-2,2.1,0,1.5,1.8,1.4,4.3,1.2,3-.1,4.9.2,6.4,1.3a4.36,4.36,0,0,1,1.8,3.5,5.15,5.15,0,0,1-2.5,4.5,10.89,10.89,0,0,1-6.3,1.7A9.56,9.56,0,0,1,233.53,460.51Zm12.2-3.7c0-2.2-1.7-3.8-5.4-3.6l-3.5.3a3.81,3.81,0,0,0-3,3.5,3.53,3.53,0,0,0,1.4,2.5c1.2.9,2.6,1,5.2,1C241.83,460.51,245.83,459.61,245.73,456.81Zm-3.5-15.8a4.39,4.39,0,0,0-1-3.3,2.53,2.53,0,0,0-1.8-.8,3.22,3.22,0,0,0-2.6,1,5.81,5.81,0,0,0-1.3,4.4,4.72,4.72,0,0,0,1.2,3.2,3.12,3.12,0,0,0,2.2.9c2.5,0,3.3-3,3.3-5.4Z" transform="translate(0.01 0)"/><path class="cls-1" d="M252.13,441.91a10.87,10.87,0,0,0-.1,1.8c0,3.6,2.3,6.4,5.2,6.4a5.15,5.15,0,0,0,4.5-2.5c.1-.1.2-.2.3-.2l.5.3c.1,0,.2.1,0,.5a6.57,6.57,0,0,1-5.9,4,6.93,6.93,0,0,1-5.8-2.6,8.7,8.7,0,0,1-1.6-5.8,8.59,8.59,0,0,1,2.3-5.9,6.93,6.93,0,0,1,5.3-2c4.2,0,5.4,4,5.4,5.4,0,.5-.4.6-1,.6Zm5.9-1.1c.7,0,1-.2,1-.5,0-.9-.4-3.3-2.8-3.3-1.6,0-3.2,1.1-3.9,3.8Z" transform="translate(0.01 0)"/><polygon id="polygon3855" class="cls-20" points="632.93 236.41 478.74 236.41 466.74 280.41 632.93 280.41 632.93 236.41"/><polygon id="polygon3857" class="cls-2" points="466.74 398.01 616.64 398.01 620.84 390.21 466.74 390.21 466.74 398.01"/><polygon id="polygon3857-2" class="cls-2" points="467.03 417.31 549.74 417.31 552.03 412.91 467.03 412.91 467.03 417.31"/><polygon id="polygon3859" class="cls-27" points="614.24 303.71 478.74 303.71 466.74 347.71 614.24 347.71 614.24 303.71"/><polygon id="polygon4033" class="cls-28" points="632.93 236.41 591.03 236.41 576.93 280.41 632.93 280.41 632.93 236.41"/><polygon id="polygon4035" class="cls-29" points="593.34 236.41 591.03 236.41 576.93 280.41 579.34 280.41 593.34 236.41"/><path class="cls-1" d="M294.63,309.81h-1v-1.5h-5v1.5h-2v-2.9a1.58,1.58,0,0,0-1.56-1.6h-7.84a1.58,1.58,0,0,0-1.6,1.56v2.94h-2v-1.5h-5v1.5h-1a1.54,1.54,0,0,0-1.5,1.5h0v18.1a1.54,1.54,0,0,0,1.5,1.5h27.1a1.54,1.54,0,0,0,1.5-1.5h0v-18.1A1.57,1.57,0,0,0,294.63,309.81Zm-5-.5h3v.5h-3Zm-13-2.4a.65.65,0,0,1,.6-.6H285a.65.65,0,0,1,.6.6v2.9h-9Zm-1,3.9h15.6v19.1H271v-19.1Zm-6-1.5h3v.5h-3Zm-2.6,20.1v-18.1a.47.47,0,0,1,.44-.5H270v19.1h-2.5a.47.47,0,0,1-.5-.44v-.06Zm28.1,0a.47.47,0,0,1-.44.5h-2.56v-19.1h2.5a.47.47,0,0,1,.5.44v.06h0Z" transform="translate(0.01 0)"/></g><path class="cls-1" d="M403.73,431.41v-.3a47.25,47.25,0,1,0,0,.3" transform="translate(0.01 0)"/><path class="cls-30" d="M197.43,372.41h-10.1a3.08,3.08,0,0,1-3-3v-9.8a3.08,3.08,0,0,1,3-3h10.1a3.08,3.08,0,0,1,3,3v9.8A3.08,3.08,0,0,1,197.43,372.41Z" transform="translate(0.01 0)"/><path class="cls-30" d="M194.53,374.21v1a3.08,3.08,0,0,1-3,3h-10.1a3.08,3.08,0,0,1-3-3v-9.8a3,3,0,0,1,3-3h1" transform="translate(0.01 0)"/><rect class="cls-1" x="553.31" y="189.79" width="25.9" height="1.5" transform="translate(31.13 456.22) rotate(-45)"/><rect class="cls-1" x="565.51" y="177.59" width="1.5" height="25.9" transform="translate(31.13 456.22) rotate(-45)"/><polygon class="cls-3" points="292.14 501.71 300.94 493.01 303.14 495.21 292.03 506.21 292.14 501.71"/><polygon class="cls-3" points="298.74 495.21 300.94 493.01 309.74 501.71 309.74 506.11 298.74 495.21"/><rect class="cls-3" x="299.44" y="496.31" width="3.1" height="18.7"/></g><g id="Bm8sUV.tif"><path class="cls-1" d="M252.08,373.45V374a2.13,2.13,0,0,1-.64,1.25,3,3,0,0,1-1.25.65,3.73,3.73,0,0,1-1,.09l-1.27.1a.79.79,0,0,0-.26-.08,5,5,0,0,0-.55,0l-2.44.22-2,.19-1.2.14-2.09.19-2,.19-1.31.13a.81.81,0,0,1-.22,0l-2.12.19-2.44.23a6.05,6.05,0,0,0-.83.1l-2.83.25-3.06.3-1.22.13-.66,0a3.34,3.34,0,0,1-1.26,0,2,2,0,0,1-1.43-1.39l.38-.35a3.08,3.08,0,0,1,1.19-.55,1.24,1.24,0,0,0,.41.66.87.87,0,0,0,.55.2.66.66,0,0,0,.2.06l.86-.1,1-.07h0l.76-.08h.3l.73-.09,1.22-.13,1.3-.14a2.59,2.59,0,0,0,1-.1,4.87,4.87,0,0,0,1.07-.08,5,5,0,0,1,.74-.09,1,1,0,0,0,.25,0,6.85,6.85,0,0,0,.78-.07,4.21,4.21,0,0,0,.71-.12l1.47-.12.35-.05,1-.07.93-.1,1.11-.12.86-.09h.69a1.67,1.67,0,0,0,.3-.08h.19a8.26,8.26,0,0,0,1-.09c.72-.1,1.45-.12,2.17-.18l1.32-.11.33-.06a2.59,2.59,0,0,0,1-.1l1.48-.11.87-.07.15-.06a1.71,1.71,0,0,0,.86-.18.83.83,0,0,0,.52-.61,2.24,2.24,0,0,0,.08-.57c0-.61-.11-1.23-.17-1.84-.08-.9-.17-1.8-.26-2.7l-.21-2.28c-.08-.77-.16-1.54-.23-2.31s-.14-1.53-.22-2.29c-.09-1-.19-2-.29-3s-.19-1.9-.28-2.85l.16-.12c.35-.31.69-.62,1-.94.15-.14.25-.14.36,0a1,1,0,0,0,.11.17c0,.19.25.34.12.57v.08a1.13,1.13,0,0,1,0,.26v.83a2.43,2.43,0,0,0,.05.6c0,.2,0,.54.06.81a8.15,8.15,0,0,1,.13.92,6.07,6.07,0,0,1,0,.74c0,.54.09,1.08.14,1.61s.09.76.13,1.15c0,.55.09,1.1.14,1.65s.07.82.11,1.23l.15,1.59c.06.65.13,1.3.19,1.95l.15,1.63c.05.54.13,1.33.2,2A1.3,1.3,0,0,1,252.08,373.45Z" transform="translate(0.01 0)"/><path class="cls-1" d="M248.42,353.38a1.57,1.57,0,0,1,.46.12,2,2,0,0,1,1.1.8,3,3,0,0,1,.26.65,1,1,0,0,1-.11-.17c-.11-.17-.21-.17-.36,0l-1,.94-.16.12-.2-.38,1-1.34a.14.14,0,0,0,0-.2l0,0a.76.76,0,0,0-.19-.12l-.17-.06-.24-.1a4.93,4.93,0,0,0-.66-.07,4.64,4.64,0,0,0-.91.06v-.1l.56-.07h.2Z" transform="translate(0.01 0)"/><path class="cls-1" d="M220.34,356.05l.89-.07v.1c-.38,0-.75.1-1.13.13a2.12,2.12,0,0,0-1.24.52,1.68,1.68,0,0,0-.63,1.08.27.27,0,0,0,.11.28,2.78,2.78,0,0,0,.8.46l.75.23V359h0l-1.61-.51c-.08,0-.15,0-.15.09v.39l.07.72v.63c.08.89.17,1.77.26,2.65s.17,1.86.26,2.79.17,1.66.25,2.49c.1,1.05.2,2.11.29,3.16.09.89.17,1.78.26,2.67,0,.4.09.81.13,1.21s.08.92.13,1.38a1.67,1.67,0,0,0,.08.3,2,2,0,0,0,1.57,1.39,3.34,3.34,0,0,0,1.26,0l.66-.05.2.1-.64.06h-1.28a2.11,2.11,0,0,1-.5-.1,2.35,2.35,0,0,1-1.37-2c-.09-1-.2-2.07-.3-3.1s-.21-2.24-.32-3.37-.2-2-.29-3-.22-2.28-.32-3.42l-.3-3c-.07-.74-.18-1.48-.19-2.23a2.15,2.15,0,0,1,1.66-2.15A1.72,1.72,0,0,0,220.34,356.05Z" transform="translate(0.01 0)"/><path class="cls-1" d="M220,377a1.67,1.67,0,0,1-.08-.3c0-.46-.09-.92-.13-1.38a1.26,1.26,0,0,1,.72,0l1,.3.07.44a3.08,3.08,0,0,0-1.19.55Z" transform="translate(0.01 0)"/><path class="cls-1" d="M250.1,373.72a3.27,3.27,0,0,0,0-1.46c0-.39-.08-.78-.11-1.17-.06-.56-.11-1.12-.17-1.68s-.09-1-.14-1.56-.11-1.07-.16-1.61-.08-.78-.11-1.17c-.06-.56-.12-1.12-.17-1.68,0-.41-.07-.82-.11-1.24s-.11-1.06-.16-1.59-.07-.81-.11-1.22-.11-1.07-.16-1.61-.07-.82-.12-1.24a1.67,1.67,0,0,0-.23-1,3.83,3.83,0,0,0-.28-.29v-.08h.07l.13.11.11.13.2.38c.09.95.18,1.9.28,2.85s.2,2,.29,3c.08.76.15,1.53.22,2.29s.15,1.54.23,2.31l.21,2.28c.09.9.18,1.8.26,2.7.06.61.13,1.23.17,1.84a2.24,2.24,0,0,1-.08.57Z" transform="translate(0.01 0)"/><path class="cls-1" d="M223.55,378.41l-.2-.1,1.22-.13,3.06-.3,2.83-.25.14.09Z" transform="translate(0.01 0)"/><path class="cls-1" d="M241.48,376.57l1.2-.14,2-.19,2.44-.22h.55a.79.79,0,0,1,.26.08h-.42l-4.16.41-1.61.14Z" transform="translate(0.01 0)"/><path class="cls-1" d="M241.48,376.57l.27.07h-.1l-2.16.21-2.87.28h-.55V377l1.31-.13,2-.19Z" transform="translate(0.01 0)"/><path class="cls-1" d="M236.07,377.08v.1l-1.24.13-1.25.13h-.37l-2.6.24-.14-.09c.28,0,.56-.08.83-.1l2.44-.23,2.12-.19Z" transform="translate(0.01 0)"/><path class="cls-1" d="M221.57,376.05l-.07-.44v-.48c0-.54-.09-1.08-.14-1.62s-.13-1.32-.19-2-.11-1.08-.16-1.63l-.12-1.37h0c0,.28.07.56.09.83.06.57.11,1.13.17,1.7s.09,1,.14,1.57.09.85.13,1.28v.95l.06.57a1.76,1.76,0,0,0,.08.64,1.16,1.16,0,0,0,.39.64h0A1.24,1.24,0,0,1,221.57,376.05Z" transform="translate(0.01 0)"/><path class="cls-1" d="M231.76,376.09h.38l1.36-.12a6.2,6.2,0,0,0-.71.12,6.85,6.85,0,0,1-.78.07A1,1,0,0,1,231.76,376.09Z" transform="translate(0.01 0)"/><path class="cls-1" d="M247.77,374.58l.33-.08.69-.05a.47.47,0,0,1-.15.06Z" transform="translate(0.01 0)"/><path class="cls-1" d="M239.25,375.37l.37-.06h.62a1.67,1.67,0,0,1-.3.08Z" transform="translate(0.01 0)"/><path class="cls-1" d="M245.27,374.79l.4-.06h.62A2.51,2.51,0,0,1,245.27,374.79Z" transform="translate(0.01 0)"/><path class="cls-1" d="M228.92,376.36l.4-.05.63-.05A2.55,2.55,0,0,1,228.92,376.36Z" transform="translate(0.01 0)"/><path class="cls-1" d="M235.32,375.75a5.73,5.73,0,0,1,.58-.07h.45Z" transform="translate(0.01 0)"/><path class="cls-1" d="M225.37,376.7c.19,0,.38-.05.58-.06h.45l-.73.09Z" transform="translate(0.01 0)"/><path class="cls-1" d="M223.59,376.87l.4-.05h.62Z" transform="translate(0.01 0)"/><path class="cls-1" d="M247.83,376.09h.1l1.27-.1-.75.1Z" transform="translate(0.01 0)"/><path class="cls-1" d="M250.1,373.72l.07-.06a.83.83,0,0,1-.52.61Z" transform="translate(0.01 0)"/><path class="cls-1" d="M222,376.71h0l.52.24A.93.93,0,0,1,222,376.71Z" transform="translate(0.01 0)"/><path class="cls-1" d="M230.6,377.72l2.6-.24h.45l-.83.1-1.67.16-1.26.11-1.23.13-1.17.11-1.31.13-1.2.11-1.29.13-1.25.11a6.31,6.31,0,0,1-.87,0,1.71,1.71,0,0,1-.44-.13,2.11,2.11,0,0,0,.5.1h1.28l.64-.06Z" transform="translate(0.01 0)"/><path class="cls-1" d="M236.62,377.15l2.87-.28,2.16-.21h.1l1.61-.14h0c-.59.06-1.19.11-1.78.18l-1.94.19L238,377l-1.22.13h-.19Z" transform="translate(0.01 0)"/><path class="cls-1" d="M243.36,376.53h0l4.16-.41h.31l-.84.1-1.66.16-1.22.11Z" transform="translate(0.01 0)"/><path class="cls-1" d="M236.62,377.15h0l-1.79.16-1.16.11h-.08l1.24-.11,1.25-.14Z" transform="translate(0.01 0)"/><path class="cls-1" d="M236.14,354.54l1.7-.17,2.67-.26,1.31-.11v.1a1.46,1.46,0,0,0-.5.06l-3.13.3-2,.18Z" transform="translate(0.01 0)"/><path class="cls-1" d="M225.51,355.57l2-.21,3.06-.29.51-.05.14.1-.88.1-2.76.26-2.07.19Z" transform="translate(0.01 0)"/><path class="cls-1" d="M241.83,354.1V354l2-.21,2.68-.26.68,0v.1l-.49.07-3.15.29Z" transform="translate(0.01 0)"/><path class="cls-1" d="M231.22,355.12l-.14-.1,2.68-.26,2.38-.22v.1l-.54.07-2.79.26C232.31,355,231.76,355.07,231.22,355.12Z" transform="translate(0.01 0)"/><path class="cls-1" d="M225.51,355.57v.1h-.19l-2.37.23-1.72.15V356l1.31-.14,2.32-.22Z" transform="translate(0.01 0)"/><path class="cls-1" d="M221.23,356.08l1.72-.15,2.37-.23h.19l2.07-.19,2.76-.26.88-.1c.54,0,1.09-.09,1.63-.15l2.79-.26.54-.07,2-.18,3.13-.3a1.4,1.4,0,0,0,.5-.06l1.7-.16,3.15-.29.49-.07c.3,0,.61-.06.91-.06a4.93,4.93,0,0,1,.66.07l-.2.25a3.26,3.26,0,0,0-.48,1.28,2.46,2.46,0,0,0-.48-.16,9.2,9.2,0,0,0-1.05,0c-.67.05-1.34.13-2,.19l-1.56.15-2,.19-1.57.15-2,.19-1.56.15-1.63.16-1.58.15-1.75.16h-.2l-1,.11-1.3.13-.79.07-1.66.17-.67.07h-.64l-.38.06-1.32.1-2.13.24a1.25,1.25,0,0,0-.9,1.27l-.75-.23a2.78,2.78,0,0,1-.8-.46.27.27,0,0,1-.11-.28,1.68,1.68,0,0,1,.63-1.08,2.12,2.12,0,0,1,1.24-.52A4.93,4.93,0,0,0,221.23,356.08Z" transform="translate(0.01 0)"/><path class="cls-1" d="M248.39,355.43l-.11-.13a6,6,0,0,1,.8-1.31,1,1,0,0,0,.09-.24.76.76,0,0,1,.19.12.14.14,0,0,1,0,.2l0,0Z" transform="translate(0.01 0)"/><path class="cls-1" d="M249.17,353.75a1,1,0,0,1-.09.24,6,6,0,0,0-.8,1.31l-.13-.11a1.11,1.11,0,0,0,.07-.13,4.77,4.77,0,0,1,.78-1.37Z" transform="translate(0.01 0)"/><path class="cls-1" d="M249,353.69a4.77,4.77,0,0,0-.78,1.37.12.12,0,0,1-.07.13h-.07a3.11,3.11,0,0,1,.48-1.28l.2-.25Z" transform="translate(0.01 0)"/><path class="cls-1" d="M231.83,365.55h.83a5.65,5.65,0,0,1,1.82.35,3,3,0,0,1,1.86,2,4,4,0,0,1-.19,3,4.08,4.08,0,0,1-2,1.8,8.62,8.62,0,0,1-2.69.61l-2.43.25-2.78.3-1.12.12c-.19,0-.23,0-.24-.19a.09.09,0,0,0,0-.07c-.06-.37,0-.35.35-.41a3.48,3.48,0,0,0,.78-.22.86.86,0,0,0,.48-.94c-.14-1.34-.29-2.67-.43-4-.18-1.7-.37-3.39-.55-5.09-.05-.48-.08-1-.15-1.43a2.21,2.21,0,0,0-.21-.61.6.6,0,0,0-.51-.32h-.83c-.27,0-.31,0-.35-.27-.06-.44-.06-.44.39-.48l2.8-.29,3.11-.33a7.33,7.33,0,0,1,2.6.11,3,3,0,0,1,1.85,1.13,3,3,0,0,1,.53,1.77,2.81,2.81,0,0,1-1,2.18,5.31,5.31,0,0,1-1.72,1Zm-1.54.8h0l-1.6.16c-.12,0-.17.07-.16.19,0,.32.07.65.1,1,.11,1.06.22,2.12.34,3.18a9.08,9.08,0,0,0,.2,1.14.8.8,0,0,0,.71.61,5.57,5.57,0,0,0,1,0,2.74,2.74,0,0,0,2.15-1.34,3.35,3.35,0,0,0,.27-3,2.8,2.8,0,0,0-1.74-1.78,2.77,2.77,0,0,0-1.24-.2ZM232,363a3.77,3.77,0,0,0-.31-1.55,2.26,2.26,0,0,0-.75-1,2.57,2.57,0,0,0-1.58-.33,7.6,7.6,0,0,0-1.07.1c-.44.06-.43.06-.38.51l.33,3.12c.05.52.11,1,.16,1.55,0,.09,0,.17.16.15a13.66,13.66,0,0,0,1.56-.24A2.3,2.3,0,0,0,232,363Z" transform="translate(0.01 0)"/><path class="cls-1" d="M240.66,372.31a5.31,5.31,0,0,1-2-.32.35.35,0,0,0-.26.09c-.18.15-.35.31-.53.48a.32.32,0,0,1-.36.05c-.13-.06-.15-.15-.16-.28-.07-.91-.13-1.81-.21-2.72s-.18-1.64-.26-2.46c-.11-1-.23-2.09-.34-3.13s-.21-2-.31-3a.29.29,0,0,0-.2-.27c-.27-.09-.53-.21-.8-.3a.34.34,0,0,1-.22-.34c0-.14.12-.15.21-.19a15.67,15.67,0,0,0,2.6-1.36c.26-.18.46-.09.5.23.15,1.39.29,2.79.44,4.19.07.61.13,1.22.2,1.83V365l.15-.07a5,5,0,0,1,1.81-1.07,4.25,4.25,0,0,1,3.19.22,3.33,3.33,0,0,1,1.59,1.83,4.58,4.58,0,0,1-.07,3.63,4.7,4.7,0,0,1-2,2.09A5.84,5.84,0,0,1,240.66,372.31Zm3-3.39a5.86,5.86,0,0,0-.23-1.5,3.39,3.39,0,0,0-.91-1.49,2.54,2.54,0,0,0-3.33-.09.26.26,0,0,0-.12.27c.14,1.38.29,2.75.43,4.13a.7.7,0,0,0,.24.5,2.63,2.63,0,0,0,2.35.53,1.91,1.91,0,0,0,1.06-.67,2.66,2.66,0,0,0,.49-1.73Z" transform="translate(0.01 0)"/><path class="cls-1" d="M223.16,375.71H223a.75.75,0,0,1-.16-.15c0-.05.09-.13.15-.14a4.81,4.81,0,0,1,.53-.07l3.35-.32,2.92-.29,2.67-.25,2.24-.23L237,374l3-.29,2.26-.22,2.65-.26,2.26-.22,1.56-.15h.1l.21.15c-.05.06-.1.14-.16.16a1.49,1.49,0,0,1-.36.05l-4.37.43-4.33.43-3.69.35-3,.3-3.39.32-2.58.26-2.67.25Z" transform="translate(0.01 0)"/><path class="cls-1" d="M247.15,356.22a.17.17,0,0,1,.1,0c.05,0,.12.09.12.14s-.08.12-.13.13a3.43,3.43,0,0,1-.56.07l-3.35.32-3.31.33-3.32.32-3.65.37-2.94.28-2.6.26-3,.29-3,.29h-.06c-.11,0-.19,0-.2-.14s.07-.16.16-.17l.77-.08,3.09-.3,3-.29,3-.29,2.71-.26,2.54-.25,2.59-.26,2.34-.22,2.33-.22,2.2-.22Z" transform="translate(0.01 0)"/><path class="cls-1" d="M248.08,355.12v.11l-.28-.14a1.36,1.36,0,0,0-.72-.07l-2,.2-1.58.14-2,.2-1.57.14-2,.2-1.56.14-1.64.17-1.58.14-1.27.14h-1.06l1.75-.16,1.58-.15,1.63-.16,1.56-.15,2-.19,1.57-.15,2-.19,1.56-.15c.67-.06,1.34-.14,2-.19a9.2,9.2,0,0,1,1,0A2.23,2.23,0,0,1,248.08,355.12Z" transform="translate(0.01 0)"/><path class="cls-1" d="M223.46,366.31c.13,0,.18,0,.19.17v.14c0,.3,0,.32-.27.35l-.94.09a.27.27,0,0,1-.32-.2.2.2,0,0,1,0-.07c0-.23,0-.34.25-.37l.55-.06Z" transform="translate(0.01 0)"/><path class="cls-1" d="M235.32,365.76h-.16a4.44,4.44,0,0,1-.49-.24.31.31,0,0,1-.11-.2.49.49,0,0,1,.16-.1l1.22-.13c.18,0,.24,0,.26.2.06.4.06.4-.34.45Z" transform="translate(0.01 0)"/><path class="cls-1" d="M246.59,364h0c.2.1.1.3.13.46s-.07.14-.12.15c-.31.05-.61.08-.92.11a.27.27,0,0,1-.17-.06l-.37-.36c-.06-.07-.07-.14,0-.16Z" transform="translate(0.01 0)"/><path class="cls-1" d="M225.48,366.54c0,.18,0,.24-.2.25l-.93.1a.21.21,0,0,1-.26-.16.2.2,0,0,1,0-.07v-.2a.18.18,0,0,1,.12-.21h.06l1-.11a.16.16,0,0,1,.19.13v0Z" transform="translate(0.01 0)"/><path class="cls-1" d="M248.23,363.81c.26,0,.34.09.35.36s-.09.22-.29.25l-.91.1c-.12,0-.19,0-.19-.15v-.12c0-.31,0-.34.29-.37Z" transform="translate(0.01 0)"/><path class="cls-1" d="M220.83,357.51l2.13-.24,1.32-.1a3.48,3.48,0,0,0-.44.1l-2.32.22a5.82,5.82,0,0,0-.73.09Z" transform="translate(0.01 0)"/><path class="cls-1" d="M220.34,362.78c0,.28.07.55.09.83.06.55.12,1.11.17,1.67l.12,1.4-.08-.31v-.6c0-.42-.12-.84-.16-1.26-.07-.68-.12-1.36-.18-2Z" transform="translate(0.01 0)"/><path class="cls-1" d="M230.91,356.49H232l-2,.19-1.54.12h0l1.3-.13,1-.11Z" transform="translate(0.01 0)"/><path class="cls-1" d="M220.83,357.51v.07a3.5,3.5,0,0,0-.43.33,1.09,1.09,0,0,0-.33.95c.05.48.08.95.11,1.43v-.2c-.05-.38-.1-.76-.14-1.14v-.17A1.24,1.24,0,0,1,220.83,357.51Z" transform="translate(0.01 0)"/><path class="cls-1" d="M219.93,359a8.87,8.87,0,0,0,.14,1.14v.2c0,.25.07.51.09.77l.15,1.72-.07-.3h0V362c0-.17-.08-.59-.11-.88l-.17-1.61V359Z" transform="translate(0.01 0)"/><path class="cls-1" d="M220.64,366.37l.08.31.09.81c0,.34.05.67.08,1h0Z" transform="translate(0.01 0)"/><path class="cls-1" d="M228.38,356.76h0l-.63.05h-.16Z" transform="translate(0.01 0)"/><path class="cls-1" d="M224.62,357.11h.64A1.16,1.16,0,0,1,224.62,357.11Z" transform="translate(0.01 0)"/><path class="cls-1" d="M221.46,375.13v.48l-1-.3a1.26,1.26,0,0,0-.72,0c0-.4-.09-.81-.13-1.21-.09-.89-.17-1.78-.26-2.67-.09-1.05-.19-2.11-.29-3.16-.08-.83-.17-1.66-.25-2.49s-.17-1.86-.26-2.79-.18-1.76-.26-2.65v-.63c0-.21,0-.18.17-.15a1.36,1.36,0,0,1,1.17,1,4.18,4.18,0,0,1,.09.71c.07.7.13,1.39.2,2.09l.18,1.66c.07.7.13,1.39.19,2.09s.13,1.23.19,1.85.1,1.22.16,1.84l.18,1.92c.06.52.1,1,.19,1.57A1.16,1.16,0,0,0,221.46,375.13Z" transform="translate(0.01 0)"/><path class="cls-1" d="M221.46,375.13a1.13,1.13,0,0,1-.45-.85c-.09-.52-.13-1-.19-1.57l-.18-1.92c-.06-.62-.11-1.23-.16-1.84s-.13-1.23-.19-1.85-.12-1.39-.19-2.09l-.18-1.66c-.07-.7-.13-1.39-.2-2.09a4.18,4.18,0,0,0-.09-.71,1.36,1.36,0,0,0-1.17-1c-.13,0-.17,0-.17.15l-.07-.72c.06,0,.13-.09.18-.07a4.34,4.34,0,0,1,1.56.55c0,.53.11,1.07.17,1.61s.07.93.11,1.4h0c.06.67.11,1.35.18,2a10.85,10.85,0,0,0,.16,1.26v.6l.21,2.16.12,1.37c.05.55.1,1.09.16,1.63s.13,1.32.19,2S221.42,374.59,221.46,375.13Z" transform="translate(0.01 0)"/><path class="cls-1" d="M220,359.43a4.34,4.34,0,0,0-1.56-.55l-.18.07c-.06,0,0-.26,0-.39s.07-.12.15-.09L220,359Z" transform="translate(0.01 0)"/><path class="cls-1" d="M220.24,362.44c0-.47-.08-.93-.11-1.4,0,.29.08.58.11.88A2.83,2.83,0,0,1,220.24,362.44Z" transform="translate(0.01 0)"/></g><path class="cls-31" d="M135.66,60.58c.08-.25.11-.67.25-.71a12.66,12.66,0,0,1,3.32-.88c4.1-.11,8.21,0,12.35,0,.15.56.27,1.1.45,1.62a5.9,5.9,0,0,0,5.71,4.11,8.94,8.94,0,0,0,7.38-3.26,6.89,6.89,0,0,0,.72-1.55l.12-.09h-.07l0,.09a14.47,14.47,0,0,1-3.71.42,2.55,2.55,0,0,1-1.63-4.15,5.45,5.45,0,0,1,5.18-2.42A7.85,7.85,0,0,1,173,58.77a1.22,1.22,0,0,0,1.41.9c.91-.07,1.82,0,2.71,0,1-6-1.94-13.61-8.63-15a12.51,12.51,0,0,0-10.76,2.83,47.34,47.34,0,0,0-4.29,4.64,1.87,1.87,0,0,1-1.09.69c-4,0-8.07,0-12.1-.2a11.86,11.86,0,0,1-3-.93c4.59,0,9.17,0,13.76.06a2,2,0,0,0,1.68-.84,39.4,39.4,0,0,1,4.85-4.9,14.55,14.55,0,0,1,10.08-3.1c4.76.31,7.73,3,9.43,7.33.65,1.65,1.13,3.36,1.69,5l.46,3.32-.11,1c1,0,2,0,3,0a1.11,1.11,0,0,0,.8-.54c2.26-4.81,5.84-8.65,9.2-12.67A37.69,37.69,0,0,0,196,40.84c1.94-3.46,1.62-7.1.16-10.64s-3.08-7.16-4.66-10.79c-1,1.21-2.13,2.41-3.15,3.68a30.05,30.05,0,0,1-20.83,11.28c-4.91.57-9.86.89-14.8,1-8.79.15-17.59.11-26.39,0a30.14,30.14,0,0,1-5.72-1.07c-.25-.05-.44-.36-.66-.55,3.31.08,6.62.21,9.93.23q11.4,0,22.79,0a82.58,82.58,0,0,0,16.08-1.45c5.13-1,10.19-2.41,14.13-6.07,2.89-2.69,5.45-5.72,8.15-8.61.45-.48.89-1,1.26-1.39,1.84,4.4,3.73,8.7,5.42,13.07a18.32,18.32,0,0,1,1.16,5.11c.29,3.51-1.16,6.54-3.12,9.35-.23.32-.42.67-.62,1l.25.27.91-.35c1.26-.48,2.51-1,3.8-1.44a13.28,13.28,0,0,1,6.51-.29c4.08.82,7.74,4.53,7,10.8-.76,6.43-7.59,13.07-14.58,12.15-.52-.06-1-.14-1.66-.23,1.35,1.93,1.67,3,1.44,4.42a10.31,10.31,0,0,1-8.51,8.75,31.28,31.28,0,0,1-5,0,32.51,32.51,0,0,1-12.48,13.24,1.33,1.33,0,0,1-1.87-.19,14.87,14.87,0,0,1-4.6-8.09c-.3-1.39-.42-2.81-.64-4.39L121,80c1.46-1.35,3.37-1.53,5.18-1.87a23.31,23.31,0,0,1,4.18-.28c10.36,0,20.72-.11,31.07,0,5,.07,8.66-2.1,11.43-6,.81-1.16,1.48-2.42,2.37-3.89-1.42,0-2.48,0-3.54,0-.34,0-.65.4-1,.6a35.68,35.68,0,0,1-4,2.5,2,2,0,0,1-2.71-.8,2.23,2.23,0,0,1,1.24-2.68,13.55,13.55,0,0,1,1.49-.69c-1.71-1.07-4.14-.77-6.07,1a12,12,0,0,0-2.2,2.93,1.26,1.26,0,0,1-1.25.8c-11,0-22,.07-33-.09-2.29,0-4.58-.91-6.85-1.48-.64-.15-.66-.36-.52-.87a15.55,15.55,0,0,0,2.74.52q18.41,0,36.8,0c.31,0,.76,0,.92-.13,1-1.06,1.89-2.18,3-3.49h-2.57c-3.95,0-6.26-1.74-7.45-5.48a1.26,1.26,0,0,0-1-.69c-3.43-.05-6.87-.09-10.3,0A19,19,0,0,0,135.66,60.58ZM184,59.71c2.56.29,4.6.41,6-1.72a4.82,4.82,0,0,1,1.37-1.15c2.6-1.82,5.37-3.17,8.66-3a3,3,0,0,1,2.84,1.84,2.44,2.44,0,0,1-.87,2.9,7.44,7.44,0,0,1-3.06,1.67,11.79,11.79,0,0,1-3.5-.34,3.86,3.86,0,0,0,2.87,4.46,8.28,8.28,0,0,0,4.83.14,12.61,12.61,0,0,0,9.09-10.49c.64-5.22-2.41-8.6-6-9.41a12.09,12.09,0,0,0-6.37.28,23.74,23.74,0,0,0-12.1,9C186.37,55.67,185.32,57.63,184,59.71Zm-3.65,8.12a23.05,23.05,0,0,1-2.35,0A1.66,1.66,0,0,0,176.12,69a19.45,19.45,0,0,1-8,9,1.24,1.24,0,0,0-.58.78,14.54,14.54,0,0,0,4.3,11.87,1.26,1.26,0,0,0,1.19.13A28.79,28.79,0,0,0,183.83,79a1.29,1.29,0,0,0-.23-1.17,8,8,0,0,1-2.87-5.23C180.5,71.08,180.48,69.52,180.36,67.83Zm10.33-.65c1,.23,1.9.56,1.84,1.78a2.39,2.39,0,0,1-1.93,2.17,3.23,3.23,0,0,1-4-1.81A2.09,2.09,0,0,0,184.1,68,4.79,4.79,0,0,1,183,68c-.82-.09-1.2.2-1.11,1.07.11,1.1.06,2.24.27,3.32a6.33,6.33,0,0,0,3.78,5c4.38,1.82,10.09-1.08,11.24-5.69.51-2.07,0-3.74-1.44-4.7A4.46,4.46,0,0,0,190.69,67.18Zm-10.4-5.89H173a3.33,3.33,0,0,0-3.23,2.07,1.93,1.93,0,0,0,1.9,2.94c4.91,0,9.83,0,14.74,0a3.38,3.38,0,0,0,3.06-1.78c1-1.77.19-3.22-1.85-3.24Zm-12.32,4a5.12,5.12,0,0,1,3-4.8c.6-.31.69-.62.39-1.22A6.81,6.81,0,0,0,166,55.34c-1.26-.19-2.62-.28-3.64.7-.4.38-.87,1.23-.7,1.55a2.49,2.49,0,0,0,1.62,1.27,5.34,5.34,0,0,0,2.48-.61,25.07,25.07,0,0,0,2.55-1.47l.28.17a27.29,27.29,0,0,1-1.69,4.13,30,30,0,0,1-3,3.56Zm26.66-8.79c.79.68,1.4,1.25,2.05,1.77a2.8,2.8,0,0,0,3.54.16c.52-.4,1.19-1.3,1.05-1.75a2.34,2.34,0,0,0-1.7-1.31c-4.11-.31-7.16,1.75-9.89,4.58,2,1.56,2.08,2.32.94,5.35l4.8-.59C192.89,62.29,194,59.49,194.63,56.49ZM168.16,69.08l-.1-.49a11.66,11.66,0,0,0-2.05,0c-.24.05-.39.58-.59.89.3.13.65.42.89.36A15.88,15.88,0,0,0,168.16,69.08Zm20.35-.37-.08.46a10.17,10.17,0,0,0,1.77.7c.26.06.61-.27.92-.43-.22-.28-.41-.78-.67-.81A9.76,9.76,0,0,0,188.51,68.71Z" transform="translate(0.01 0)"/><path class="cls-32" d="M120,33.48c1.76-1.43,3.92-1.67,6-1.9,1.94-.2,3.9-.24,5.86-.26,8.51-.1,17,0,25.53-.31a99.39,99.39,0,0,0,12.24-1.45c5.82-.94,10.38-4.11,14.15-8.54,3.24-3.81,6.52-7.56,9.79-11.34l.9-1c.42,1.44.84,2.7,1.16,4a79.64,79.64,0,0,0,5.12,13.52c1.92,4.24,2.65,8.62,1.13,13.18a41.55,41.55,0,0,1,4.74,0c7.14.85,11.37,5.95,10.79,13.29-.56,7-4.5,11.79-10.38,15.15-1.3.75-3.17.79-4.11,1.79s-.81,2.84-1.45,4.16a15.47,15.47,0,0,1-13.22,9.15,2.44,2.44,0,0,0-2.1,1.18A38.59,38.59,0,0,1,170.75,97.2,18.48,18.48,0,0,1,162.21,83h-1.34c-8.79,0-17.58.12-26.38.07a44.63,44.63,0,0,1-7.74-.68,39.27,39.27,0,0,1-5.74-2c1.19,0,2.38.08,3.56.08q19.56,0,39.12,0h1.42c.09.82.15,1.49.25,2.16a16,16,0,0,0,5.57,10.42,1.26,1.26,0,0,0,1.74.18,33.22,33.22,0,0,0,12.61-12.67,1.11,1.11,0,0,1,1.39-.71,9.8,9.8,0,0,0,6.08-.78c4.31-1.82,8.25-6.83,6.33-12.13a20,20,0,0,0,3.3-.23A15,15,0,0,0,214,55.76c2.34-8.11-3.28-14.49-11.67-13.43a45.26,45.26,0,0,0-5.11,1.22,56.29,56.29,0,0,0,2.18-5.87c.89-3.45-.15-6.71-1.5-9.88s-2.63-6.17-3.87-9.28c-.48-1.19-.75-2.47-1.13-3.76-2.41,2.68-4.79,5.2-7,7.85a26,26,0,0,1-14.11,8.51,77.15,77.15,0,0,1-17.57,2.09C142.77,33.35,131.38,33.4,120,33.48Z" transform="translate(0.01 0)"/><path class="cls-33" d="M179.23,58.62c-.15-1.1-.31-2.21-.46-3.32A29.52,29.52,0,0,0,178,51c-2-6.47-6.59-9.45-13.28-8.62-5.26.66-9.23,3.56-12.32,7.72a2.13,2.13,0,0,1-2,1c-4.19,0-8.38.13-12.57.2a5.55,5.55,0,0,1-.8-.13A14.89,14.89,0,0,1,145,49.69c2.61.14,4.68-.18,6-2.8a11.43,11.43,0,0,1,2.16-2.37l2.62-1.92,1-.54-.07-.24h-1.15c-5,0-9.9,0-14.85,0-4.22,0-8.44.2-12.67.31a15.07,15.07,0,0,1,3.41-1.65,40.77,40.77,0,0,1,7.69-1c9.15-.12,18.3-.09,27.45,0,6.2,0,10.91,4.17,12.5,10.76A19.24,19.24,0,0,1,179.23,58.62Z" transform="translate(0.01 0)"/><path class="cls-34" d="M120,33.48c11.39-.08,22.78-.13,34.18-.27a77.15,77.15,0,0,0,17.57-2.09,26,26,0,0,0,14.11-8.51c2.24-2.65,4.62-5.17,7-7.85.38,1.29.65,2.57,1.13,3.76,1.24,3.11,2.56,6.19,3.87,9.28s2.39,6.43,1.5,9.88a56.29,56.29,0,0,1-2.18,5.87,45.26,45.26,0,0,1,5.11-1.22c8.39-1.06,14,5.32,11.67,13.43a15,15,0,0,1-11.6,10.95,20,20,0,0,1-3.3.23c1.92,5.3-2,10.31-6.33,12.13a9.8,9.8,0,0,1-6.08.78,1.11,1.11,0,0,0-1.39.71,33.22,33.22,0,0,1-12.61,12.67,1.26,1.26,0,0,1-1.74-.18,16,16,0,0,1-5.57-10.42c-.1-.67-.16-1.34-.25-2.16h-1.42q-19.56,0-39.12,0c-1.18,0-2.37,0-3.56-.08h0V80h0l44.75-.37c.22,1.58.34,3,.64,4.39a14.87,14.87,0,0,0,4.6,8.09,1.33,1.33,0,0,0,1.87.19,32.51,32.51,0,0,0,12.48-13.24,31.28,31.28,0,0,0,5,0,10.31,10.31,0,0,0,8.51-8.75c.23-1.46-.09-2.49-1.44-4.42.62.09,1.14.17,1.66.23,7,.92,13.82-5.72,14.58-12.15.74-6.27-2.92-10-7-10.8a13.28,13.28,0,0,0-6.51.29c-1.29.39-2.54,1-3.8,1.44l-.91.35-.25-.27c.2-.34.39-.69.62-1,2-2.81,3.41-5.84,3.12-9.35a18.32,18.32,0,0,0-1.16-5.11c-1.69-4.37-3.58-8.67-5.42-13.07-.37.41-.81.91-1.26,1.39-2.7,2.89-5.26,5.92-8.15,8.61-3.94,3.66-9,5-14.13,6.07A82.58,82.58,0,0,1,152.71,34q-11.4,0-22.79,0c-3.31,0-6.62-.15-9.93-.23h0v-.24Z" transform="translate(0.01 0)"/><path class="cls-33" d="M116.89,69.13a17.72,17.72,0,0,1,8.71-2.27c7.22-.15,14.44-.13,21.66-.18.43,0,.85,0,1.28,0-.68-1.45-1.27-2.82-2-4.12-.13-.26-.73-.33-1.13-.37-2.45-.22-4.92-.35-7.36-.65a10.74,10.74,0,0,1-2.42-1h13.77c1.37,4.58,4.46,6.54,9,6.31-.77,1.92-2.19,2.26-4.09,2.25-11.28-.09-22.56,0-33.84,0C119.27,69.09,118.08,69.12,116.89,69.13Z" transform="translate(0.01 0)"/><path class="cls-35" d="M116.89,69.13c1.19,0,2.38,0,3.57,0,11.28,0,22.56,0,33.84,0,1.9,0,3.32-.33,4.09-2.25-4.51.23-7.6-1.73-9-6.31H135.66A19,19,0,0,1,139,60c3.43-.09,6.87-.05,10.3,0a1.26,1.26,0,0,1,1,.69c1.19,3.74,3.5,5.47,7.45,5.48h2.57c-1.1,1.31-2,2.43-3,3.49-.16.18-.61.13-.92.13q-18.39,0-36.8,0a15.55,15.55,0,0,1-2.74-.52Z" transform="translate(0.01 0)"/><path class="cls-36" d="M155.76,42.6l-2.62,1.92a8.82,8.82,0,0,0-1.25-.21c-5.27,0-10.54,0-15.81,0A15.82,15.82,0,0,1,128,42.41c1.23.06,2.46.15,3.69.15Z" transform="translate(0.01 0)"/><path class="cls-37" d="M137.11,51.12a5.55,5.55,0,0,0,.8.13c4.19-.07,8.38-.17,12.57-.2a2.13,2.13,0,0,0,2-1c3.09-4.16,7.06-7.06,12.32-7.72C171.45,41.53,176,44.51,178,51a29.52,29.52,0,0,1,.73,4.32c-.56-1.69-1-3.4-1.69-5-1.7-4.28-4.67-7-9.43-7.33A14.55,14.55,0,0,0,157.57,46a39.4,39.4,0,0,0-4.85,4.9,2,2,0,0,1-1.68.84c-4.59,0-9.17,0-13.76-.06h0l-.23-.6Z" transform="translate(0.01 0)"/><path class="cls-38" d="M155.76,42.6l-24,0c-1.23,0-2.46-.09-3.69-.15l-.06-.26c4.23-.11,8.45-.27,12.67-.31,5-.06,9.9,0,14.85,0h1.15l.07.24Z" transform="translate(0.01 0)"/><path class="cls-31" d="M137.06,51.11l.23.6Z" transform="translate(0.01 0)"/><path class="cls-31" d="M120,33.46v.26l-.36-.11Z" transform="translate(0.01 0)"/><path class="cls-31" d="M121,80v0Z" transform="translate(0.01 0)"/><path class="cls-39" d="M168,65.28l-4-.64a30,30,0,0,0,3-3.56A27.29,27.29,0,0,0,168.62,57l-.28-.17a25.07,25.07,0,0,1-2.55,1.47,5.34,5.34,0,0,1-2.48.61,2.49,2.49,0,0,1-1.62-1.27c-.17-.32.3-1.17.7-1.55,1-1,2.38-.89,3.64-.7a6.81,6.81,0,0,1,5.37,3.92c.3.6.21.91-.39,1.22A5.12,5.12,0,0,0,168,65.28Zm1.15-8c-.69,2.71-1.61,5-3.7,6.73l1.88.34a6.76,6.76,0,0,1,3.63-4.73Zm-1.62-.85c-1.8-.58-3.29-.83-4.71.12-.25.17-.54.64-.47.85a1.18,1.18,0,0,0,.8.73A4.29,4.29,0,0,0,165,57.9,25.33,25.33,0,0,0,167.5,56.45Z" transform="translate(0.01 0)"/><path class="cls-40" d="M194.63,56.49c-.67,3-1.74,5.8.79,8.21l-4.8.59c1.14-3,1-3.79-.94-5.35,2.73-2.83,5.78-4.89,9.89-4.58a2.34,2.34,0,0,1,1.7,1.31c.14.45-.53,1.35-1.05,1.75a2.8,2.8,0,0,1-3.54-.16C196,57.74,195.42,57.17,194.63,56.49Zm3.14-.51-2.13.6L198,58.24l.94,0,1.8-1.29s.05,0,.05-.06a.78.78,0,0,0-.05-.14L199.67,56l-.83-.16h0Zm-4.25,2.13-.32-.32-2.55,2c1.6,1.28,1.49,2.86,1.25,4.48l2-.28C192.75,62,193.09,60.07,193.52,58.11Z" transform="translate(0.01 0)"/><path class="cls-41" d="M168.16,69.08a15.88,15.88,0,0,1-1.85.8c-.24.06-.59-.23-.89-.36.2-.31.35-.84.59-.89a11.66,11.66,0,0,1,2.05,0Z" transform="translate(0.01 0)"/><path class="cls-42" d="M188.51,68.71a9.76,9.76,0,0,1,1.94-.08c.26,0,.45.53.67.81-.31.16-.66.49-.92.43a10.17,10.17,0,0,1-1.77-.7Z" transform="translate(0.01 0)"/><path class="cls-43" d="M169.12,57.3l1.81,2.34a6.76,6.76,0,0,0-3.63,4.73L165.42,64C167.51,62.26,168.43,60,169.12,57.3Z" transform="translate(0.01 0)"/><path class="cls-44" d="M167.5,56.45A25.33,25.33,0,0,1,165,57.9a4.29,4.29,0,0,1-1.85.25,1.18,1.18,0,0,1-.8-.73c-.07-.21.22-.68.47-.85C164.21,55.62,165.7,55.87,167.5,56.45Z" transform="translate(0.01 0)"/><path class="cls-45" d="M193.52,58.11c-.43,2-.77,3.93.43,5.91l-2,.28c.24-1.62.35-3.2-1.25-4.48l2.55-2Z" transform="translate(0.01 0)"/><path class="cls-46" d="M198.84,55.82h0l.83.16,1.08.79a.34.34,0,0,0,0,.2L199,58.26l-.94,0-2.37-1.66,2.13-.6Z" transform="translate(0.01 0)"/><path class="cls-47" d="M198,58.24l.94,0Z" transform="translate(0.01 0)"/><path class="cls-47" d="M198.84,55.82l-1.07.16Z" transform="translate(0.01 0)"/><path class="cls-47" d="M199.67,56l-.83-.16Z" transform="translate(0.01 0)"/><path class="cls-47" d="M200.75,57a.34.34,0,0,1,0-.2.78.78,0,0,1,.05.14S200.77,57,200.75,57Z" transform="translate(0.01 0)"/><text class="cls-48" transform="translate(205.81 37.41) scale(1.14 1)">TM</text></svg>