<svg id="Layer_1" data-name="Layer 1" xmlns="http://www.w3.org/2000/svg" viewBox="0 0 634.86 150.4"><defs><style>.cls-1{fill:#fff;}.cls-2{fill:#ffe865;}.cls-3,.cls-4{fill:#0038a5;}.cls-4{opacity:0.99;}.cls-4,.cls-5{isolation:isolate;}.cls-6{fill:#fae965;}</style></defs><title>limestone_global_logo</title><path class="cls-1" d="M170.1,51.7c0-4.4-.1-11.5-.3-12.7-.1-1.7-.5-2.4-2.5-2.4h-3.2c-.4,0-.5-.4-.5-.7V34.4c0-.4.1-.5.5-.5.8,0,3.2.3,8.7.3,6.6,0,9.4-.3,10-.3s.7.3.7.5v1.8c0,.4-.1.5-.7.5h-4.1c-2.1,0-2.4.7-2.4,2.6,0,.9-.3,11.1-.3,15.8v5.8c0,1.2,0,15.7.3,18.5,1.5.1,14.8.3,16.9,0,4-.7,8.1-8.7,9-11.4.1-.3.3-.4.5-.3l1.1.4c.3.1.3.3.1.7s-2.9,11.6-3.3,13.5c-.9-.1-6.2-.1-12.2-.1s-12.7-.1-16.2-.1c-2.6,0-4.6.1-6.1.1-1.3.1-2.1.1-2.6.1s-.5-.1-.5-.5V80c0-.4.1-.5.5-.5h3.3c2.5,0,2.9-.9,2.9-1.8,0-1.3.3-18.1.3-22.2V51.7Z" transform="translate(-5.1 -3.2)"/><path class="cls-1" d="M210.5,62.3c0-2.2-.4-3.6-3.8-4.1-.5-.1-.7-.3-.7-.5V57c0-.3.1-.4.5-.5a45.14,45.14,0,0,0,7.3-3.3,2.42,2.42,0,0,1,1.3-.4c.4,0,.4.4.4.8-.1,1.2-.1,5.4-.1,11V72c0,2.6,0,5,.1,5.8.1,1.3.4,1.7,1.1,1.7h3.2a.63.63,0,0,1,.7.7v1.2c0,.5-.1.7-.7.7s-3.7-.3-6.5-.3c-4,0-6.6.3-7.3.3-.4,0-.5-.1-.5-.5V80.3c0-.4.3-.5.7-.5h3.3c.8,0,1.1-.3,1.1-1.3.1-2,.1-4.1.1-6.2V62.5h-.2v-.2Zm-3-20.6a3.85,3.85,0,0,1,4.1-3.6,3.4,3.4,0,0,1,3.6,3.3,3.7,3.7,0,0,1-4,3.7A3.47,3.47,0,0,1,207.5,41.7Z" transform="translate(-5.1 -3.2)"/><path class="cls-1" d="M245.2,64.7c0-5-.9-6.3-2-7.3a7.39,7.39,0,0,0-4.4-1.2,7.69,7.69,0,0,0-7.4,8.5V78c0,1.1.4,1.7,1.3,1.7h2.4c.7,0,.7.1.7.7v1.1c0,.5,0,.8-.5.8-.7,0-2.4-.3-6.2-.3-3.6,0-5.7.3-6.3.3-.4,0-.5-.1-.5-.7V80.4c0-.5.1-.7.8-.7h2.2c.7,0,.9-.4,1.1-1.7s.1-2.4.1-3.6v-12a3.53,3.53,0,0,0-1.8-3.4l-1.5-.8c-.4-.3-.5-.4-.5-.5v-.5a.55.55,0,0,1,.4-.5l5.9-3a3,3,0,0,1,1.3-.4c.4,0,.7.5.7.9l.3,4h.3a13.19,13.19,0,0,1,9.9-5.2c3.6,0,6.2,2,7.7,5.2h.4c2-2.6,5.8-5.2,9.9-5.2,2.4,0,4.5.4,6.1,2s3.3,3.2,3.3,8.3V78.4c0,1.1.7,1.3,1.5,1.3h1.8c.7,0,.8.1.8.7v1.2c0,.5-.1.7-.5.7s-2.4-.3-5.5-.3c-3.4,0-5.8.3-6.3.3s-.5-.3-.5-.7V80.4c0-.5.1-.7.9-.7h1.7a1.16,1.16,0,0,0,1.3-1.3c.1-1.6.1-4,.1-5.4V63c0-2.2-.4-4.2-2-5.4a8.26,8.26,0,0,0-5-1.5,7.39,7.39,0,0,0-5.8,3.6c-1.1,2-.9,3.8-.9,6.9V78.2c0,.9.4,1.6,1.3,1.6H254c.7,0,.8.1.8.7v1.1c0,.5-.1.8-.5.8s-2.2-.3-6.1-.3c-3.7,0-5.9.3-6.3.3s-.5-.3-.5-.7V80.6c0-.5.1-.7.7-.7h2c1.1,0,1.5-.3,1.5-1.2l-.4-14Z" transform="translate(-5.1 -3.2)"/><path class="cls-1" d="M278.8,64a19.43,19.43,0,0,0-.3,3.3c0,6.6,4.2,11.6,9.6,11.6a9.35,9.35,0,0,0,8.2-4.6.67.67,0,0,1,.7-.4l.9.5c.3.1.4.3,0,1.1-1.2,2.6-4.8,7.4-10.7,7.4-3.8,0-8.1-1.2-10.6-4.8-2.4-3.4-3-5.9-3-10.7a15.47,15.47,0,0,1,4.2-10.7,12.78,12.78,0,0,1,9.6-3.6c7.8,0,9.9,7.3,9.9,9.9,0,.9-.8,1.1-1.8,1.1L278.8,64Zm10.7-1.9c1.3,0,1.8-.4,1.8-.9,0-1.6-.8-5.9-5.2-5.9-2.9,0-5.8,2-7.1,7h10.4v-.2Z" transform="translate(-5.1 -3.2)"/><path class="cls-1" d="M302.4,80.8a1,1,0,0,1-.4-.9l-1.2-6.5c-.1-.4.1-.5.4-.5l.9-.3c.3-.1.5.1.7.4l1.7,3.3c1.3,2.5,2.2,4.2,5.8,4.2,2.4,0,5.3-1.5,5.3-4.6s-1.5-4.8-6.6-6.2c-4-1.2-7.9-3.3-7.9-8.6,0-4.6,4.4-8.2,9.5-8.2a11.23,11.23,0,0,1,6.2,1.5c1.1.5,1.2.8,1.2,1.2l1.1,4.8c0,.3-.1.5-.5.7l-.8.3c-.3.1-.4,0-.7-.4l-2.2-3.2a5.15,5.15,0,0,0-4.8-2.6c-2.5,0-5.2,1.6-5.2,4.5,0,4,3.2,4.6,6.5,5.5,4.9,1.5,8.1,3.4,8.1,8.6-.1,5.4-4.5,8.8-10.3,8.8A10.87,10.87,0,0,1,302.4,80.8Z" transform="translate(-5.1 -3.2)"/><path class="cls-1" d="M331.9,73.5c0,5,2.2,5.9,3.6,5.9a9.73,9.73,0,0,0,4.5-.9c.4-.3.7-.1.8.1l.4.7c.3.3.1.5-.1.8a11.28,11.28,0,0,1-7.5,2.6c-3.3,0-6.6-3.2-6.6-5.7,0-2.8.3-8.7.3-9.6V65.9c0-1.2.1-5.7.1-8.6h-4.1c-.7,0-1.1-.3-1.1-.8s.4-.8,1.2-1.2c1.6-.9,6.9-6.2,7.7-8.5.3-.5.5-.7.9-.7s.7.5.7,1.1l-.4,6.7h9.4c.4,0,.7.4.5.7l-.7,2.4c-.1.4-.3.5-.7.5H332c-.1,3.2-.3,6.3-.3,9.5v6.3h.2v.2Z" transform="translate(-5.1 -3.2)"/><path class="cls-1" d="M345.6,78.2c-3.2-3.7-3.7-6.2-3.7-11a14.08,14.08,0,0,1,5.8-10.8,15.81,15.81,0,0,1,9.1-3.3,13.84,13.84,0,0,1,9.5,4,15.27,15.27,0,0,1,4.6,11c0,7.4-6.6,14.8-14.9,14.8A14.45,14.45,0,0,1,345.6,78.2Zm19.6-10.9c0-7.5-5.4-12.3-8.8-12.3a6.64,6.64,0,0,0-5.2,2.1c-2.6,2.6-3.6,5.4-3.6,10.6,0,3.8.4,6.3,2.5,9.5a7.77,7.77,0,0,0,6.7,3.6C361.9,80.8,365.2,74.5,365.2,67.3Z" transform="translate(-5.1 -3.2)"/><path class="cls-1" d="M400,78.3a1.36,1.36,0,0,0,1.5,1.5h2.1c.7,0,.8.3.8.7v1.1c0,.5-.1.8-.5.8s-2.5-.3-6.5-.3c-3.4,0-5.5.3-6.1.3-.4,0-.5-.3-.5-.8V80.5c0-.5.3-.7.9-.7h2c.8,0,1.3-.4,1.3-1.6.1-1.7.1-4,.1-5.7V63.7c0-2.6,0-4.6-2-6.1a7.48,7.48,0,0,0-4.9-1.2,7.91,7.91,0,0,0-5.4,2.6,7,7,0,0,0-1.6,4.6v14c0,1.8.3,2.2,1.6,2.2h1.7a.63.63,0,0,1,.7.7v1.2c0,.4-.1.7-.5.7s-2.2-.3-5.8-.3c-3.4,0-5.5.3-6.1.3-.4,0-.5-.3-.5-.7V80.5c0-.4.1-.7.7-.7h2c.9,0,1.3-.3,1.3-1.3V62.7a4.21,4.21,0,0,0-2.8-4l-.5-.3c-.5-.3-.5-.4-.5-.7v-.4c0-.4.3-.5.7-.7l5.8-3.3a2.77,2.77,0,0,1,1.2-.5c.4,0,.5.3.5.8l.5,4.1h.1c2-2.4,5.8-4.9,9.2-4.9a10.15,10.15,0,0,1,5.7,1.5,10,10,0,0,1,3.7,6.5l.1,17.5Z" transform="translate(-5.1 -3.2)"/><path class="cls-1" d="M410.2,64a19.43,19.43,0,0,0-.3,3.3c0,6.6,4.2,11.6,9.6,11.6a9.35,9.35,0,0,0,8.2-4.6.67.67,0,0,1,.7-.4l.9.5c.3.1.4.3,0,1.1-1.2,2.6-4.8,7.4-10.7,7.4-3.8,0-8.1-1.2-10.6-4.8-2.4-3.4-2.9-5.9-2.9-10.7a15.47,15.47,0,0,1,4.2-10.7,12.78,12.78,0,0,1,9.6-3.6c7.8,0,9.9,7.3,9.9,9.9,0,.9-.8,1.1-1.8,1.1L410.2,64Zm10.7-1.9c1.3,0,1.8-.4,1.8-.9,0-1.6-.8-5.9-5.2-5.9-2.9,0-5.8,2-7.1,7h10.4v-.2Z" transform="translate(-5.1 -3.2)"/><path class="cls-1" d="M455.4,76.8c-4.9-4.6-7.3-12.4-7.3-18.9A25,25,0,0,1,455,40.1a23.24,23.24,0,0,1,16.9-6.9,26.75,26.75,0,0,1,13.6,3.7c.9.5,1.2.5,1.3,0l.5-2c.1-.4.3-.4.9-.4s.8.1.8,1.1c0,1.3,1.3,11.2,1.7,13.1.1.4,0,.7-.3.7l-1.1.3c-.4.1-.5,0-.7-.5a24.55,24.55,0,0,0-5.3-8.3,15.76,15.76,0,0,0-11.8-5.2c-12.2,0-16.9,10.7-16.9,20.6,0,4,1.2,11.5,6.5,17.3,4.6,5.2,8.5,5.7,12.9,5.7a20.21,20.21,0,0,0,16.6-8.6c.3-.4.4-.4.5-.3l.9.7c.3.1.4.3.1.7C488,77.6,481.5,83.2,472,83.2A23.75,23.75,0,0,1,455.4,76.8Z" transform="translate(-5.1 -3.2)"/><path class="cls-1" d="M499,78.2c-3.2-3.7-3.7-6.2-3.7-11a14.08,14.08,0,0,1,5.8-10.8,15.81,15.81,0,0,1,9.1-3.3,13.84,13.84,0,0,1,9.5,4,15.27,15.27,0,0,1,4.6,11c0,7.4-6.6,14.8-14.9,14.8A14.45,14.45,0,0,1,499,78.2Zm19.5-10.9c0-7.5-5.4-12.3-8.8-12.3a6.64,6.64,0,0,0-5.2,2.1c-2.6,2.6-3.6,5.4-3.6,10.6,0,3.8.4,6.3,2.5,9.5a7.77,7.77,0,0,0,6.7,3.6C515.2,80.8,518.5,74.5,518.5,67.3Z" transform="translate(-5.1 -3.2)"/><path class="cls-1" d="M535.4,61.9c0,3.6,0,13.7.1,15.8.1,1.2.4,2.1,1.7,2.1h3c.7,0,.8.3.8.7v1.2c0,.4-.1.7-.4.7-.5,0-3.4-.3-7.7-.3s-7,.3-7.7.3c-.4,0-.5-.3-.5-.7V80.5c0-.5.1-.7.9-.7h3.3c.8,0,1.5-.5,1.5-1.7.1-2.1.1-13.7.1-17.6V56.2c0-4.8-.1-11-.3-12.7-.1-2.2-1.2-3.4-3.4-4.1l-1.3-.5c-.4-.1-.4-.3-.4-.4V38c0-.3.3-.4.7-.5a45.17,45.17,0,0,0,7.9-4,2.87,2.87,0,0,1,1.5-.5c.5,0,.7.4.5,1.2,0,3.7-.3,17.7-.3,21.5v6.2Z" transform="translate(-5.1 -3.2)"/><path class="cls-1" d="M551.4,61.9c0,3.6,0,13.7.1,15.8.1,1.2.4,2.1,1.7,2.1h3c.7,0,.8.3.8.7v1.2c0,.4-.1.7-.4.7-.5,0-3.4-.3-7.7-.3s-7,.3-7.7.3c-.4,0-.5-.3-.5-.7V80.5c0-.5.1-.7.9-.7h3.3c.8,0,1.5-.5,1.5-1.7.1-2.1.1-13.7.1-17.6V56.2c0-4.8-.1-11-.3-12.7-.1-2.2-1.2-3.4-3.4-4.1l-1.3-.5c-.4-.1-.4-.3-.4-.4V38c0-.3.3-.4.7-.5a45.17,45.17,0,0,0,7.9-4,2.87,2.87,0,0,1,1.5-.5c.5,0,.7.4.5,1.2,0,3.7-.3,17.7-.3,21.5v6.2Z" transform="translate(-5.1 -3.2)"/><path class="cls-1" d="M563.4,64a19.43,19.43,0,0,0-.3,3.3c0,6.6,4.2,11.6,9.6,11.6a9.35,9.35,0,0,0,8.2-4.6.67.67,0,0,1,.7-.4l.9.5c.3.1.4.3,0,1.1-1.2,2.6-4.8,7.4-10.7,7.4-3.8,0-8.1-1.2-10.6-4.8-2.4-3.4-2.9-5.9-2.9-10.7a15.47,15.47,0,0,1,4.2-10.7,12.78,12.78,0,0,1,9.6-3.6c7.8,0,9.9,7.3,9.9,9.9,0,.9-.8,1.1-1.8,1.1L563.4,64Zm10.7-1.9c1.3,0,1.8-.4,1.8-.9,0-1.6-.8-5.9-5.2-5.9-2.9,0-5.8,2-7.1,7H574l.1-.2Z" transform="translate(-5.1 -3.2)"/><path class="cls-1" d="M586.4,98.2c-2.4-1.5-3.4-3.3-3.4-5.4,0-3.8,3.8-6.7,7.1-8.1v-.3c-2.8-.7-4.5-2.6-4.5-4.8,0-3.3,3.7-5.5,6.1-6.5V73a10.81,10.81,0,0,1-6.3-10.3c0-4.4,4-9.8,11.5-9.8a10.74,10.74,0,0,1,8.5,4c1.8-1.3,4.1-2.6,6.3-2.6s3.3,1.5,3.2,2.8a2.56,2.56,0,0,1-2.6,2.5,3.05,3.05,0,0,1-2.4-1.1,2.63,2.63,0,0,0-1.5-.7,4.51,4.51,0,0,0-2.1.4,13,13,0,0,1,1.1,5.2,11.54,11.54,0,0,1-2.5,7.3c-1.7,2-5.5,3.4-7.8,3.4a10.92,10.92,0,0,1-3.4-.4c-1.3.5-3.6,1.8-3.6,3.8,0,2.8,3.4,2.5,7.9,2.2,5.5-.3,8.8.4,11.6,2.4a7.73,7.73,0,0,1,3.3,6.5c0,3.2-1.2,5.8-4.5,8.3-1.7,1.3-5.8,3.2-11.5,3.2A17.79,17.79,0,0,1,586.4,98.2Zm22.3-7c0-4-3-7-9.8-6.6l-6.5.5c-2.1.5-5.4,2.8-5.4,6.5a6.39,6.39,0,0,0,2.6,4.6c2.2,1.6,4.6,1.8,9.5,1.8C601.6,98.2,609.1,96.4,608.7,91.2Zm-6.2-28.8c0-2.9-.7-4.8-1.8-6.1a5,5,0,0,0-3.3-1.5,6.47,6.47,0,0,0-4.8,1.8c-2.1,2.2-2.4,5.4-2.4,7.9a8.75,8.75,0,0,0,2.1,5.8,5.3,5.3,0,0,0,4.1,1.7C600.9,72.4,602.5,66.7,602.5,62.4Z" transform="translate(-5.1 -3.2)"/><path class="cls-1" d="M620.6,64a19.43,19.43,0,0,0-.3,3.3c0,6.6,4.2,11.6,9.6,11.6a9.35,9.35,0,0,0,8.2-4.6.67.67,0,0,1,.7-.4l.9.5c.3.1.4.3,0,1.1-1.2,2.6-4.8,7.4-10.7,7.4-3.8,0-8.1-1.2-10.6-4.8-2.4-3.4-2.9-5.9-2.9-10.7a15.47,15.47,0,0,1,4.2-10.7,12.78,12.78,0,0,1,9.6-3.6c7.8,0,9.9,7.3,9.9,9.9,0,.9-.8,1.1-1.8,1.1L620.6,64Zm10.7-1.9c1.3,0,1.8-.4,1.8-.9,0-1.6-.8-5.9-5.2-5.9-2.9,0-5.8,2-7.1,7h10.4l.1-.2Z" transform="translate(-5.1 -3.2)"/><path class="cls-1" d="M148.5,78.5A69.5,69.5,0,1,1,79,8.9a69.48,69.48,0,0,1,69.5,69.6" transform="translate(-5.1 -3.2)"/><path class="cls-1" d="M80.3,153.6a75.2,75.2,0,1,1,75.2-75.2A75.37,75.37,0,0,1,80.3,153.6Zm0-144a68.9,68.9,0,1,0,68.9,68.9A69,69,0,0,0,80.3,9.6Z" transform="translate(-5.1 -3.2)"/><path class="cls-2" d="M148.4,78.5A69.5,69.5,0,1,1,78.9,9,69.48,69.48,0,0,1,148.4,78.5Z" transform="translate(-5.1 -3.2)"/><path class="cls-3" d="M80.3,151a72.6,72.6,0,1,1,72.6-72.6A72.72,72.72,0,0,1,80.3,151Zm0-139a66.5,66.5,0,1,0,66.5,66.5A66.53,66.53,0,0,0,80.3,12Z" transform="translate(-5.1 -3.2)"/><path class="cls-3" d="M36.5,129V73.4H34.7V70.7H32.8V63.4h2.6V62h-.3V60.9h-.4v-3H46a85.33,85.33,0,0,1,1.9-8.6c1.7-5.3,7.9-9,11.9-12C61,36.3,72,33.5,72,33.5l6.6-1.3v-4l-1-1.4-.2-1.1,1.4-1.3-1.3-6.1.7-2.2,2.1-.7,2.1.7.7,2.2-1.4,6.1,1.4,1.2-.2,1.1-1.1,1.4v4.1L88,33.5s11.6,3.1,12.5,3.7c6.7,4.6,9.7,6.7,11.6,11.9a43.81,43.81,0,0,1,1.9,8.6h11v3h-.4v1.1h-.4v1.6h2.5v7.3h-1.8v2.7h-2.3v57.8A65.73,65.73,0,0,1,79.1,148c-26.6,0-42.6-19-42.6-19" transform="translate(-5.1 -3.2)"/><path class="cls-1" d="M53.2,82.8A10.16,10.16,0,0,0,57.7,81h1V99.2c0,1.3.2,1.9,1.4,1.9h1.7v1.3H53.2v-1.3h1.7c1.3,0,1.6-.7,1.6-2.3V84.2H53.2Z" transform="translate(-5.1 -3.2)"/><path class="cls-1" d="M69.8,80.6c3.4,0,5.6,2.3,5.6,5,0,2.1-1.3,3.8-3.8,4.9,3,1.3,4.7,3.1,4.7,6,0,3.3-2.6,6.2-6.8,6.2s-6.7-2.8-6.7-5.9c0-2.4,1.6-4.4,4.5-5.5-2.3-1.3-3.5-2.7-3.5-5.2-.1-3.2,2.5-5.5,6-5.5" transform="translate(-5.1 -3.2)"/><path class="cls-3" d="M68.5,91.9c-2.3,1.2-3.8,3.1-3.8,5a4.72,4.72,0,0,0,9.4.3c0-1.8-1.2-3.1-3.6-4.2Z" transform="translate(-5.1 -3.2)"/><path class="cls-3" d="M70.4,90c1.5-1.4,2.9-2.4,2.9-4.3a3.81,3.81,0,0,0-7.6-.1c0,1.7,1.1,2.7,3.2,3.7Z" transform="translate(-5.1 -3.2)"/><polygon class="cls-1" points="81.1 77.8 83.3 77.8 83.3 90.2 86.7 90.2 86.7 92.1 83.3 92.1 83.3 99.2 81.1 99.2 81.1 92.1 72.5 92.1 72.5 89.5 81.1 77.8"/><polygon class="cls-3" points="81.1 90.2 81.1 80.2 73.7 90.2 81.1 90.2"/><path class="cls-1" d="M93.7,81h8.5c.6,0,.8-.1.8-.7h.9v3.2h-9l-.2,5.4a9.75,9.75,0,0,1,3.4-.5c4.4,0,7.1,2.9,7.1,7s-2.9,7.3-6.9,7.3-6.2-3-6.2-4.8a1.37,1.37,0,0,1,1.2-1.5,1.33,1.33,0,0,1,1.1.8c.8,2.4,1.5,4,3.9,4,2.7,0,4.5-2.3,4.5-5.4,0-3.3-2-5.5-5.3-5.5a11.77,11.77,0,0,0-4.3.9Z" transform="translate(-5.1 -3.2)"/><rect class="cls-1" x="31.4" y="71.5" width="86.1" height="1.5"/><rect class="cls-1" x="31.2" y="104.2" width="86.1" height="1.5"/><path class="cls-1" d="M10.8,64.9S8.7,75.4,17.3,78c0,0-8.5,0-7.1,10.4" transform="translate(-5.1 -3.2)"/><path class="cls-3" d="M10.3,91.3c-1.5,0-.5-29.7,1-29.5A3,3,0,0,1,14,64.9l-.1,4.4c.6,4.6,3.5,5.4,4.4,5.7a2.9,2.9,0,0,1,2.1,3.3,3,3,0,0,1-3,2.6h0a4.23,4.23,0,0,0-4,3l-.1,4.4a3.15,3.15,0,0,1-3,3Z" transform="translate(-5.1 -3.2)"/><path class="cls-3" d="M150.1,61.8c1.5,0,.6,29.7-1,29.5s-2.1-1.6-2-3.1l-.5-4.4c-.6-4.6-3.5-5.4-4.4-5.7a3,3,0,0,1,.9-5.9h0a4.23,4.23,0,0,0,4-3l.1-4.5a3,3,0,0,1,2.9-2.9Z" transform="translate(-5.1 -3.2)"/><path class="cls-1" d="M89.3,126.5a9.3,9.3,0,1,1-9.3-9.3,9.35,9.35,0,0,1,9.3,9.3" transform="translate(-5.1 -3.2)"/><path class="cls-4" d="M70.7,127.8a8.87,8.87,0,0,1-.1-1.3,14.23,14.23,0,0,1,.1-1.5H89.2a7.3,7.3,0,0,1,.2,1.5v1.3Z" transform="translate(-5.1 -3.2)"/><path class="cls-4" d="M71.2,122.5s.4-.7.8-1.3a8.61,8.61,0,0,1,1.4-1.4H86.5a9.77,9.77,0,0,1,1.3,1.4,6.09,6.09,0,0,1,.7,1.2H71.2Z" transform="translate(-5.1 -3.2)"/><path class="cls-4" d="M73.6,133.3s-.8-.6-1.4-1.1a11.27,11.27,0,0,1-1-1.2H88.4a5.8,5.8,0,0,1-1,1.2,6.35,6.35,0,0,0-.8,1.1Z" transform="translate(-5.1 -3.2)"/><g class="cls-5"><path class="cls-6" d="M186.15,121.31a9.43,9.43,0,0,1-5.75,5.57,12.92,12.92,0,0,1-4.39.72,11.54,11.54,0,0,1-4.88-1,10.65,10.65,0,0,1-3.76-2.83,12.74,12.74,0,0,1-2.44-4.43,18.27,18.27,0,0,1-.86-5.83,17.37,17.37,0,0,1,.9-5.72,13.46,13.46,0,0,1,2.49-4.45,11.32,11.32,0,0,1,3.83-2.88,11.49,11.49,0,0,1,4.91-1,13.53,13.53,0,0,1,3.73.47,9.19,9.19,0,0,1,2.87,1.37,9.62,9.62,0,0,1,2.16,2.16,14.06,14.06,0,0,1,1.58,2.83l-5.19,2.15c-.26-.5-.54-1-.83-1.41a4.7,4.7,0,0,0-2.48-1.87,6.16,6.16,0,0,0-1.91-.27,5.59,5.59,0,0,0-4.76,2.44,8.17,8.17,0,0,0-1.25,2.73,14.3,14.3,0,0,0,0,7,8.49,8.49,0,0,0,1.26,2.77,6.2,6.2,0,0,0,2.05,1.84,5.64,5.64,0,0,0,2.74.66,7.85,7.85,0,0,0,2.38-.31,4.26,4.26,0,0,0,1.58-.86,3.73,3.73,0,0,0,.93-1.31,6.17,6.17,0,0,0,.45-1.65h-4.33V113H187v3.58A12.42,12.42,0,0,1,186.15,121.31Z" transform="translate(-5.1 -3.2)"/><path class="cls-6" d="M192.75,127.17V99.85h5.42v22h13.7v5.35Z" transform="translate(-5.1 -3.2)"/><path class="cls-6" d="M237.57,119.4a12.86,12.86,0,0,1-2.48,4.43,10.82,10.82,0,0,1-3.83,2.79,12,12,0,0,1-4.87,1,12.14,12.14,0,0,1-4.9-1,10.59,10.59,0,0,1-3.79-2.77,12.9,12.9,0,0,1-2.45-4.41,20.35,20.35,0,0,1,0-11.84,12.77,12.77,0,0,1,2.47-4.43,10.82,10.82,0,0,1,3.83-2.79,12.79,12.79,0,0,1,9.77,0,10.59,10.59,0,0,1,3.79,2.77,13.08,13.08,0,0,1,2.46,4.41,20.58,20.58,0,0,1,0,11.84ZM231,107.11a5.7,5.7,0,0,0-4.68-2.26,5.58,5.58,0,0,0-4.63,2.22,10.27,10.27,0,0,0-1.73,6.4,10.14,10.14,0,0,0,1.79,6.44,5.7,5.7,0,0,0,4.68,2.26,5.58,5.58,0,0,0,4.63-2.22,10.2,10.2,0,0,0,1.74-6.4A10.14,10.14,0,0,0,231,107.11Z" transform="translate(-5.1 -3.2)"/><path class="cls-6" d="M265.37,122.15a7.56,7.56,0,0,1-2,2.77,8.27,8.27,0,0,1-3.06,1.68,13.17,13.17,0,0,1-4,.57H244V99.85h12.52a9.87,9.87,0,0,1,6.32,1.86,6.43,6.43,0,0,1,2.35,5.36,6.27,6.27,0,0,1-.77,3.12,5.78,5.78,0,0,1-2.12,2.19A6.83,6.83,0,0,1,265,114.6a6.15,6.15,0,0,1,1.09,3.75A9.61,9.61,0,0,1,265.37,122.15Zm-6.56-16.57a4,4,0,0,0-2.57-.65h-7v5.15h7.22a3.22,3.22,0,0,0,2.4-.72,2.54,2.54,0,0,0,.68-1.84A2.4,2.4,0,0,0,258.81,105.58Zm-2.26,9.34h-7.26V122h7.26a4,4,0,0,0,2.95-1,3.53,3.53,0,0,0,.95-2.59Q260.45,114.92,256.55,114.92Z" transform="translate(-5.1 -3.2)"/><path class="cls-6" d="M288.9,127.17l-2.15-6.09h-10l-2.14,6.09h-5.86l10.46-27.32h5.31l10.38,27.32Zm-5.78-16.24c-.28-.8-.55-1.58-.8-2.34s-.43-1.39-.56-1.91c-.13.52-.32,1.16-.57,1.91s-.51,1.54-.8,2.34l-1.75,5h6.24Z" transform="translate(-5.1 -3.2)"/><path class="cls-6" d="M300,127.17V99.85h5.43v22H319.1v5.35Z" transform="translate(-5.1 -3.2)"/><path class="cls-6" d="M335.49,127.17V99.85h18.93v5.35h-13.5v4.68h7.84v5.35h-7.84v6.59H355v5.35Z" transform="translate(-5.1 -3.2)"/><path class="cls-6" d="M376.46,127.17,374,123l-.8-1.38c-.3-.51-.59-1-.86-1.53s-.53-1-.76-1.4-.42-.77-.55-1l-.53,1c-.22.43-.47.89-.74,1.38s-.56,1-.86,1.53-.58,1-.84,1.4l-2.45,4.14H359.1l8.66-14-8.27-13.35H366l2.06,3.51.81,1.39c.29.51.58,1,.85,1.52l.76,1.41c.24.43.42.77.55,1,.13-.26.31-.6.55-1s.48-.89.76-1.39l.84-1.5c.28-.51.56-1,.82-1.43l2.06-3.51h6.52l-8.31,13.35,8.7,14Z" transform="translate(-5.1 -3.2)"/><path class="cls-6" d="M408.85,112.59a7.32,7.32,0,0,1-2.07,2.79,8.39,8.39,0,0,1-3.15,1.6,14.48,14.48,0,0,1-3.93.51h-6v9.68h-5.42V99.85h11.94a12.4,12.4,0,0,1,3.63.53,8.38,8.38,0,0,1,3,1.62,7.65,7.65,0,0,1,2,2.71,9,9,0,0,1,.74,3.81A10,10,0,0,1,408.85,112.59Zm-6-6.56a4.69,4.69,0,0,0-2.92-.83h-6.31v6.94h6.39q3.92,0,3.91-3.51A3.06,3.06,0,0,0,402.9,106Z" transform="translate(-5.1 -3.2)"/><path class="cls-6" d="M414.78,127.17V99.85h18.93v5.35h-13.5v4.68h7.84v5.35h-7.84v6.59h14.08v5.35Z" transform="translate(-5.1 -3.2)"/><path class="cls-6" d="M456,127.17l-4.89-9.84h-5.52v9.84h-5.42V99.85h12.72a12.4,12.4,0,0,1,3.63.53,8.38,8.38,0,0,1,3,1.62,7.65,7.65,0,0,1,2,2.71,10.34,10.34,0,0,1-.56,8.86,8,8,0,0,1-3.93,3l5.23,10.62ZM455.62,106a4.67,4.67,0,0,0-2.88-.79h-7.17v7h7.17c2.61,0,3.91-1.17,3.91-3.53A3.15,3.15,0,0,0,455.62,106Z" transform="translate(-5.1 -3.2)"/><path class="cls-6" d="M468.4,127.17V99.85h5.42v27.32Z" transform="translate(-5.1 -3.2)"/><path class="cls-6" d="M481.28,127.17V99.85H500.2v5.35H486.7v4.68h7.84v5.35H486.7v6.59h14.09v5.35Z" transform="translate(-5.1 -3.2)"/><path class="cls-6" d="M523.93,127.17l-10-14.91c-.34-.52-.7-1.07-1.07-1.66a14.84,14.84,0,0,1-.84-1.42c0,.26,0,.64,0,1.15s0,1.06,0,1.66,0,1.14,0,1.72,0,1.05,0,1.44v12h-5.43V99.85h5.27l9.64,14.44c.34.52.7,1.07,1.07,1.66a14.84,14.84,0,0,1,.84,1.42c0-.26,0-.64,0-1.15s0-1,0-1.62,0-1.18,0-1.75,0-1.06,0-1.45V99.85h5.43v27.32Z" transform="translate(-5.1 -3.2)"/><path class="cls-6" d="M551.4,107.81a5.87,5.87,0,0,0-1.93-2.18,5.53,5.53,0,0,0-3.07-.78,5.73,5.73,0,0,0-2.73.64,5.92,5.92,0,0,0-2,1.8,8.58,8.58,0,0,0-1.25,2.73,13.57,13.57,0,0,0-.42,3.49,13.22,13.22,0,0,0,.42,3.41,8.55,8.55,0,0,0,1.27,2.76,6.16,6.16,0,0,0,2.05,1.83,5.63,5.63,0,0,0,2.73.66,5.3,5.3,0,0,0,3.07-.82,8.34,8.34,0,0,0,2.28-2.65l4.6,2.73a10.92,10.92,0,0,1-3.88,4.55,11.15,11.15,0,0,1-6.22,1.62,11.54,11.54,0,0,1-4.88-1,10.77,10.77,0,0,1-3.77-2.83,12.89,12.89,0,0,1-2.43-4.43,18.27,18.27,0,0,1-.86-5.83,17.64,17.64,0,0,1,.89-5.72,13.48,13.48,0,0,1,2.5-4.45,11.32,11.32,0,0,1,3.83-2.88,11.49,11.49,0,0,1,4.91-1,12.59,12.59,0,0,1,3.48.45,10.44,10.44,0,0,1,2.79,1.25,9.52,9.52,0,0,1,2.14,1.91,12.91,12.91,0,0,1,1.58,2.44Z" transform="translate(-5.1 -3.2)"/><path class="cls-6" d="M561.93,127.17V99.85h18.93v5.35h-13.5v4.68h7.84v5.35h-7.84v6.59h14.09v5.35Z" transform="translate(-5.1 -3.2)"/></g></svg>