<svg id="Layer_1" data-name="Layer 1" xmlns="http://www.w3.org/2000/svg" xmlns:xlink="http://www.w3.org/1999/xlink" viewBox="0 0 5300.81 1002.06"><defs><style>.cls-1{fill:#fff;}.cls-2{fill:#0033a1;}.cls-3{fill:url(#radial-gradient);}.cls-4{fill:#9594d2;}.cls-5{fill:#e6e7f5;}.cls-6{fill:#c4c5e7;}.cls-7{fill:none;}</style><radialGradient id="radial-gradient" cx="403.73" cy="554.89" r="322.01" gradientTransform="matrix(1, 0, 0, -1.25, 0, 1110.84)" gradientUnits="userSpaceOnUse"><stop offset="0" stop-color="#f4eb29"/><stop offset="0.54" stop-color="#f4e828"/><stop offset="0.73" stop-color="#f4e325"/><stop offset="0.87" stop-color="#f6dc1e"/><stop offset="0.98" stop-color="#f7d116"/><stop offset="1" stop-color="#f8cf15"/></radialGradient></defs><rect class="cls-1" x="3196.24" y="236.73" width="7" height="473.54"/><path class="cls-1" d="M1029.07,649.81c0,11.64,0,24.32,11,33.68,5.61,4.78,15.18,7.9,22.87,7.9s17.25-3.12,22.87-7.9c11-9.36,11-22,11-33.68v-85h15.38V654c0,11.64-1.25,22.87-8.73,33.26-8.32,11.43-22.87,18.71-40.54,18.71s-32.22-7.28-40.54-18.71c-7.48-10.4-8.73-21.62-8.73-33.26V564.78h15.38Z"/><path class="cls-1" d="M1251.94,703.45V559L1360,672.26V564.78h15.38v144.9l-108.1-113.3V703.44h-15.38Z"/><path class="cls-1" d="M1530.52,564.78V703.44h-15.38V564.78Z"/><path class="cls-1" d="M1671.06,564.78l39.08,105.82,39.08-105.82h17l-56.13,147-56.13-147Z"/><path class="cls-1" d="M1961.7,579.34h-56.55V620.5H1960v14.55h-54.88v53.84h56.55v14.55h-71.93V564.78h71.93Z"/><path class="cls-1" d="M2116.17,564.78c9.36,0,23.28.63,33.68,7.69,8.11,5.41,15.18,16,15.18,30.77,0,21.21-13.93,36.8-34.92,38.25l44.07,62h-18.71l-42.2-60.71h-3.95v60.71h-15.38V564.78ZM2109.32,629h9.77c19.13,0,30.56-9.15,30.56-25.36,0-7.69-2.29-15.38-11-20.37-6.24-3.53-13.31-3.95-20-3.95h-9.36V629Z"/><path class="cls-1" d="M2364.2,592.23a33.49,33.49,0,0,0-8.11-10.4c-2.7-2.08-7.69-4.78-15.59-4.78-13.72,0-23.28,8.52-23.28,21.41,0,5.4,1.46,8.52,5.2,12.06,4.16,4.16,9.36,6.45,14.55,8.73l13.3,5.82c8.11,3.53,15.59,7.28,21.41,13.1,7.07,7.07,10,15.18,10,25.16,0,25.57-18.92,42.62-43.87,42.62-9.15,0-20.58-1.87-30.14-11.22-6.86-6.65-11-16.22-12.89-24.53l15-4.16a32.72,32.72,0,0,0,8.32,17.67c6,6,12.89,7.69,20,7.69,18.92,0,27.86-13.51,27.86-27.44,0-6.24-1.87-11.64-6.86-16.22-4-3.74-9.36-6.24-16.63-9.56l-12.47-5.82c-5.41-2.49-12.27-5.4-18.5-11.43-6-5.82-9.56-12.27-9.56-22.66,0-21.41,16.42-35.76,38.88-35.76,8.52,0,15.38,1.66,22.24,6.24a41.88,41.88,0,0,1,13.51,15.39Z"/><path class="cls-1" d="M2529.27,564.78V703.44h-15.38V564.78Z"/><path class="cls-1" d="M2703.07,579.34V703.45h-15.38V579.34H2654V564.79h82.74v14.55Z"/><path class="cls-1" d="M2895.17,643.78l-45.53-79h17.88l35.34,62,35.76-62h17.88l-45.94,79v59.67h-15.39Z"/><path class="cls-1" d="M927.42,462.05v-6l7.3-.33c17.59-.66,22.9-7.3,22.9-28.54v-152c0-21.24-5.31-27.55-22.9-28.21l-7.3-.33v-6h95.25v6l-7.3.33c-17.59.66-22.9,7-22.9,28.21v144c-.33,25.22.66,25.89,26.88,26.55h28.21c32.19,0,48.79-12.61,61.4-46.13l7,2-19.58,60.4Z"/><path class="cls-1" d="M1162.71,240.68H1258v6l-7.3.33c-17.59.66-22.9,7-22.9,28.21V427.52c0,21.24,5.31,27.55,22.9,28.21l7.3.33v6h-95.25v-6l7.3-.33c17.59-.66,22.9-7,22.9-28.21V275.2c0-21.24-5.31-27.55-22.9-28.21l-7.3-.33Z"/><path class="cls-1" d="M1354.19,286.48v141c0,21.24,5.31,27.55,22.9,28.21l8.3.33v6h-77.66v-6l7.3-.33c17.59-.66,22.9-7,22.9-28.21V275.2c0-21.24-5.31-27.55-22.9-28.21l-7.3-.33v-6h63.72L1446.79,405l71.69-164.28h65v6l-7.3.33c-17.59.66-22.9,7-22.9,28.21V427.53c0,21.24,5.31,27.55,22.9,28.21l7.3.33v6h-94.26v-6l6.31-.33c17.59-.66,22.9-7,22.9-28.21v-143l-79,177.56h-5.31Z"/><path class="cls-1" d="M1698.34,423.22c0,21.24,2,24.23,18.25,23.9h39.82c35.18-.67,48.46-10,62.06-43.15l5.31,2.32-18.92,55.76H1633.28v-6l7.3-.33c17.92-.66,22.9-7,22.9-28.21V275.2c0-21.24-5-27.55-22.9-28.21l-7.3-.33v-6h168.27l3.32,50.12-5.64.66c-3.65-30.2-14.6-38.5-49.45-37.83h-51.44v83.64h56.09c18.92.33,25.89-8.63,25.55-33.19h6v80.65h-6c.66-23.56-6-32.19-25.55-32.53h-56.09v71Z"/><path class="cls-1" d="M1887.17,462.05V387h6.64c2.66,18.25,5.31,26.88,12.28,37.17,10.62,15.93,27.55,25.89,45.14,25.89,21.57,0,38.5-15.6,38.5-35.84,0-10.29-3.65-18.25-13.28-27.88a93.52,93.52,0,0,0-21.24-16.93l-25.89-14.94c-30.86-17.59-43.48-34.85-43.48-58.74,0-34.18,23.9-57.42,58.74-57.42,10,0,17.26,1.33,30.53,5.64s14.27,4.65,17.26,4.65c4.32,0,7-2.32,9.29-8h7L2008.3,311h-6c-7.64-25.22-12.95-36.51-21.57-45.47-8-8.3-18.92-12.61-31.86-12.61-20.24,0-34.85,12.61-34.85,30.2,0,13.28,11.62,27.21,32.53,39.16l25.89,14.93c34.18,19.58,49.78,40.16,49.78,66.05,0,35.51-27.21,61.07-65.38,61.07-12.94,0-12.94,0-40.49-8.63-5-1.66-9.62-2.65-12.61-2.65-5.31,0-8,2.32-10,9h-6.64Z"/><path class="cls-1" d="M2118.15,456.07l7.63-.33c17.59-.66,22.9-7,22.9-28.21V256.94h-29.87c-28.54-.33-39.16,10-40.82,38.17l-6.31-.66,3.32-53.77h181.87l3.32,53.77-6.31.66c-1.33-28.21-12.28-38.5-40.82-38.17h-29.54V427.53c0,21.24,5,27.55,22.9,28.21l7.3.33v6h-95.58v-6Z"/><path class="cls-1" d="M2521,351.2c0,32.19-10.95,61.07-31.53,82.31-19.91,20.91-44.14,30.87-75,30.87-60.07,0-105.21-48.46-105.21-113.17,0-64.38,45.14-112.84,105.21-112.84C2475.57,238.36,2521,286.48,2521,351.2Zm-172.91.33c0,59.08,26.89,99.9,66,99.9,41.16,0,68-39.83,68-100.23,0-59.41-27.55-99.9-68-99.9C2374.68,251.3,2348.13,291.79,2348.13,351.53Z"/><path class="cls-1" d="M2626.56,289.8V427.53c0,21.24,5.31,27.55,22.9,28.21l7.3.33v6h-76.67v-6l7.3-.33c17.59-.66,22.9-7,22.9-28.21V270.22c-19.92-20.58-23.9-22.9-42.48-23.56v-6h65.38l131.09,153V275.2c0-21.24-5.31-27.55-22.9-28.21l-7.3-.33v-6h76.67v6l-7.3.33c-17.59.66-22.9,7-22.9,28.21V462.05h-5.31Z"/><path class="cls-1" d="M2924.91,423.22c0,21.24,2,24.23,18.25,23.9H2983c35.18-.67,48.45-10,62.06-43.15l5.31,2.32-18.92,55.76H2859.86v-6l7.3-.33c17.92-.66,22.9-7,22.9-28.21V275.2c0-21.24-5-27.55-22.9-28.21l-7.3-.33v-6h168.26l3.32,50.12-5.64.66c-3.65-30.2-14.6-38.5-49.45-37.83h-51.44v83.64H2981c18.92.33,25.89-8.63,25.56-33.19h6v80.65h-6c.66-23.56-6-32.19-25.56-32.53h-56.09v71Z"/><path class="cls-2" d="M716.34,641.91q-5.43,9.48-11.53,19c-31.53,49-76.11,97.93-132.51,145.37-51.41,43.25-103,76.93-137.19,97.56-12.12,7.31-22.84,13.47-31.78,18.46-9-5-19.68-11.16-31.79-18.46-34.21-20.64-85.78-54.32-137.19-97.56a789,789,0,0,1-76.87-73.51"/><path class="cls-3" d="M169.32,767.08a527.81,527.81,0,0,1-53-68.52c-35.19-54.71-53-109.51-53-162.88V113A1323,1323,0,0,1,201.17,86.39a1492.44,1492.44,0,0,1,405.12,0A1322.45,1322.45,0,0,1,744.22,113V535.69c0,47.49-14.13,96.12-42,144.8"/><path class="cls-2" d="M763.11,90.53A1197.3,1197.3,0,0,0,591.64,53.86a1374.62,1374.62,0,0,0-375.76,0A1197.89,1197.89,0,0,0,44.41,90.53L39.3,92V517c0,59.94,19.17,120.34,57,179.49,30,47,71.83,93.32,124.24,137.7,46.5,39.37,93,69.92,123.74,88.62,33.4,20.29,55.49,31.1,56.41,31.55l3.1,1.51,3.1-1.51c.93-.45,23-11.26,56.41-31.55,30.79-18.69,77.24-49.24,123.74-88.62,52.42-44.38,94.22-90.71,124.24-137.7,37.8-59.16,57-119.55,57-179.49V92ZM736.57,517c0,53.73-17.48,108.32-51.94,162.25-28.3,44.3-68,88.22-118,130.55-44.93,38-89.9,67.62-119.72,85.72-18.8,11.41-33.8,19.68-43.16,24.64-9.36-5-24.39-13.24-43.16-24.64-29.82-18.11-74.79-47.68-119.72-85.72-50-42.32-89.69-86.25-118-130.55C88.43,625.33,71,570.74,71,517V116.09A1177.39,1177.39,0,0,1,220.24,85.43a1342.72,1342.72,0,0,1,367,0,1177.55,1177.55,0,0,1,149.29,30.66V517Z"/><path class="cls-4" d="M403.34,1002.06l-7.62-3.69c-1-.49-25.35-12.34-61.7-34.27-33.54-20.24-84.17-53.31-134.86-96C141.81,819.91,96,769.48,63.07,718.25,21.22,653.19,0,586.63,0,520.42V57.23l12.56-3.67A1309.79,1309.79,0,0,1,199.11,13.93a1503.94,1503.94,0,0,1,408.44,0A1309.79,1309.79,0,0,1,794.1,53.56h0l12.56,3.67V520.42c0,66.21-21.22,132.77-63.07,197.83-33,51.23-78.74,101.67-136.09,149.9-50.7,42.65-101.32,75.72-134.86,96-36.54,22-60.7,33.78-61.7,34.27ZM19.57,71.89V520.42c0,62.4,20.17,125.4,60,187.25,31.89,49.58,76.38,98.54,132.23,145.51,49.72,41.82,99.43,74.29,132.38,94.17,32.13,19.39,54.44,30.61,59.2,33,4.75-2.34,26.93-13.49,59.2-33,32.94-19.87,82.64-52.33,132.37-94.17,55.85-47,100.34-95.93,132.23-145.51,39.78-61.85,60-124.85,60-187.25V71.89A1290.75,1290.75,0,0,0,604.86,33.3a1484.76,1484.76,0,0,0-403,0A1291.05,1291.05,0,0,0,19.57,71.89Z"/><path class="cls-1" d="M791.83,63.07A1300.4,1300.4,0,0,0,606.68,23.74a1493.85,1493.85,0,0,0-405.75,0A1300.4,1300.4,0,0,0,15.78,63.07l-5.52,1.61V520.54c0,64.3,20.7,129.08,61.51,192.54,32.42,50.41,77.56,100.1,134.16,147.71,50.21,42.24,100.38,75,133.62,95.06,36.06,21.76,59.91,33.36,60.91,33.84l3.35,1.62,3.35-1.62c1-.48,24.85-12.08,60.91-33.84,33.24-20.05,83.41-52.82,133.62-95.06,56.6-47.6,101.74-97.3,134.16-147.71,40.82-63.46,61.51-128.24,61.51-192.54V64.69ZM763.17,520.55c0,57.64-18.87,116.2-56.08,174.05-30.56,47.52-73.43,94.64-127.41,140-48.51,40.81-97.08,72.53-129.27,92-20.3,12.24-36.49,21.11-46.6,26.43-10.11-5.33-26.33-14.21-46.6-26.43-32.2-19.42-80.76-51.15-129.27-92-54-45.4-96.84-92.52-127.41-140C63.32,636.75,44.45,578.19,44.45,520.55V90.48a1279.26,1279.26,0,0,1,161.2-32.89,1460,1460,0,0,1,396.32,0,1278.89,1278.89,0,0,1,161.2,32.89V520.55Z"/><polygon class="cls-2" points="700.22 671.66 720.29 634.2 138.94 730.97 163.56 760.97 700.22 671.66"/><polyline class="cls-1" points="724.39 667.28 707.04 699.94 707.08 699.94 170.55 790.02 170.51 789.98 148.13 762.87 148.08 762.91 724.44 667.31"/><path class="cls-2" d="M227.94,221.92H608.17C583.5,151.07,518,94.27,407.16,90.68,307.7,98.53,261.89,154.26,227.87,222"/><path class="cls-2" d="M420.38,77.24a2.83,2.83,0,0,0-2.61-3h-8.72L410.75,35l-7.08-9.63L396.84,35l1.75,39.23h-8.7a3.05,3.05,0,0,0,0,6V94.81h27.88V80.28A2.86,2.86,0,0,0,420.38,77.24Z"/><polyline class="cls-1" points="396.55 72.83 394.72 32.26 396.71 32.17 398.55 72.83"/><polyline class="cls-1" points="409.1 72.85 410.89 32.19 412.88 32.28 411.1 72.85"/><polygon class="cls-2" points="181.42 739.57 139.84 720.67 139.84 472.75 145.31 465.2 145.31 404.29 154.16 394.42 154.16 366.35 151.29 355.64 121.29 345.87 151.03 321.03 137.5 314.52 197.88 206.78 260.86 220.84 275.95 220.84 311.6 191.69 332.42 195.64 332.42 712.94 181.42 739.57"/><polyline class="cls-1" points="702.72 395.89 702.72 455.53 702.72 455.54 707.04 455.54 707.04 492.7 721.87 497.12 721.87 515.86 707.04 524.04 707.04 670.96 328.39 736.8 328.39 466.65 317.46 457.56 317.46 438.7 317.43 438.7 323.18 440.13 323.18 395.37 317.46 380.79 332.42 383.6 332.44 383.6 332.44 263.31 323.18 261.34 323.18 228.14 320.06 213.2 311.21 191.6 387.72 204.35 521.75 160.11 646.66 242.61 640.68 247.81 710.68 261.6 678.93 288.15 678.93 318.6 692.47 331.87 692.47 381.05 702.62 395.89"/><polygon class="cls-1" points="702.72 455.54 702.72 450.43 707.04 455.54 702.72 455.54"/><polyline class="cls-1" points="254.08 432.78 244.64 425.42 254.08 418.07 254.08 318.01 254.08 317.95 235.98 307.41 257.08 286.85 265.96 289.08 265.96 256.82 265.96 256.82 165.48 331.97 165.48 347.75 165.48 347.75 151.29 355.64 120.85 345.95 120.85 345.92 150.47 321 137.02 314.48 197.44 206.45 261.32 220.82 275.95 220.82 275.95 220.84 311.24 191.45 320.51 213.12 323.37 227.54 285.67 259.56 285.67 294.27 285.67 294.27 281.49 293.25 280.39 302.72 280.39 408.64 280.39 408.7 317.46 380.79 323.37 395.37 280.39 425.49 280.39 464.67 280.37 464.67 317.46 438.7 328.39 441.4 328.39 466.65 278.05 496.6 280.37 545.16 272.9 547.41 269.65 546.44 263.13 552.81 258.32 546.44 261.18 535.9 246.66 516.12 188.24 555.87 190.46 604.86 183.16 606.88 179.65 606.88 173.53 612.73 168.71 606.16 174.05 596.27 158.55 576.37 139.84 588.26 125.4 587.03 125.4 570.44 155.49 549.69 155.49 542.99 149.37 540.19 167.01 526.79 167.01 499.85 139.86 519.11 132.11 510.59 162.78 486.97 159.52 483.72 166.95 476.89 166.95 380.82 167.01 380.82 147.54 369.47 172.22 351.13 186.29 352.1 190.46 369.54 190.46 470.71 190.39 470.71 195.67 471.88 192.8 485.61 192.8 522.5 245.16 487.69 245.16 479.69 238.47 476.9 254.15 465.89 254.15 432.78"/><polyline class="cls-2" points="155.85 318.6 262.94 238.05 206.99 225.43 206.99 225.3 155.72 318.6"/><path class="cls-2" d="M476.89,630.33V739.8l93.69-14.39v-78l.21.38c-8.64-25.46-23.71-40.93-50-46l1,.19c-26.24-2.65-39.77,11.36-44.9,26.33"/><polyline class="cls-5" points="433.08 405 430.44 407.61 430.44 407.58 430.44 410.82 430.34 410.76 579.35 434.72 579.48 434.85 579.48 429.39 579.48 429.52 432.55 405.42"/><polyline class="cls-6" points="608.52 508.65 604.66 500.79 604.68 500.81 605.19 500.86 605.19 500.85 608.52 508.6"/><line class="cls-7" x1="630.5" y1="256.12" x2="630.53" y2="256.14"/><polygon class="cls-4" points="329.01 471.05 707.04 523.98 722.4 515.66 722.39 494.84 317.46 438.83 317.46 457.56 329.01 471.05"/><polyline class="cls-4" points="387.72 204.29 521.83 160.11 646.79 242.64 630.63 256.31 620.28 268.89 620.28 277.84 620.28 277.84 398.96 239.98 398.95 239.97 395.37 224.69 387.67 204.27"/><polygon class="cls-4" points="706.99 456.08 716.07 444.4 317.41 380.79 323.16 395.55 706.99 456.08"/><polygon class="cls-4" points="710.68 261.6 640.68 247.81 630.6 256.17 620.15 268.86 620.15 277.82 678.93 288.15 710.68 261.6"/><polyline class="cls-4" points="387.72 204.32 311.21 191.6 320.51 213.12 323.11 227.8 411.67 242.14 411.68 233.11 407.89 216.89 401.41 199.77 387.67 204.27"/><polygon class="cls-1" points="517.23 181.41 407.97 217.42 627.93 254.52 517.23 181.41"/><polygon class="cls-1" points="428.2 404.82 602.31 433.3 602.31 396.49 428.2 368.42 428.2 404.82"/><line class="cls-7" x1="573.72" y1="334.38" x2="602.29" y2="339.11"/><polyline class="cls-4" points="427.93 310.23 602.29 339.11 602.29 344.26 427.93 315.87 427.93 310.23"/><path class="cls-2" d="M457.59,382.36l.35-38.1a20.78,20.78,0,0,1-8,.67l.05-5.26c4.07.41,8.23-2.2,9.54-9l4.13.41-.47,51.9c0,2.41.76,2.92,2.06,3.31l4.6.46-.05,5.78-19.16-1.91.05-5.78,5.07.5C456.78,385.47,457.58,384.08,457.59,382.36Z"/><path class="cls-2" d="M481.9,365.49c-4.1-3.69-5.88-8.9-5.52-14.73.69-11.24,9-15.54,17.44-14.27,7.48,1.13,15.6,6.61,14.95,17.17-.4,6.59-4,10.4-8.62,12.95,5.58,3.48,8.47,8.78,8,16.3-.75,12.25-9.78,15.85-18.58,14.52-8.38-1.26-16.89-7.23-16.17-18.89C473.82,372,477.15,367.76,481.9,365.49ZM490,391.61c5.4.81,10.35-1.26,10.8-8.53a8.85,8.85,0,0,0-4.3-8.49L486,368.41c-3.46,1.78-5.86,5.52-6.15,10.25C479.36,386.43,484.2,390.74,490,391.61Zm-1.78-32.43c6.13,3.74,7.34,4.43,7.48,4.45,3.73-1.57,6.41-5.43,6.71-10.34.44-7.1-3.77-10.37-8.89-11.14-4.92-.74-9.3,1.24-9.71,7.92A9.61,9.61,0,0,0,488.17,359.18Z"/><path class="cls-2" d="M529.93,393.84l.41-8.1L511.42,383l.31-6.2,21.51-34.08,5.68.83-1.86,37,8.36,1.23-.31,6.21-8.36-1.23-.41,8.19c-.12,2.41.77,3,2.29,3.46L543,399l-.29,5.77-20-2.93.29-5.77,4.64.68C528.86,396.89,529.85,395.56,529.93,393.84ZM517,377.52l13.67,2,1.3-25.94Z"/><polygon class="cls-2" points="398.95 239.97 398.96 269.07 392.88 272.85 404.55 294.14 404.55 390.99 402.09 391.83 408.62 405.52 408.62 451.45 413.49 458.45 413.49 471.85 416.4 472.31 414.5 478.05 414.49 528.97 423.12 523.43 419.84 515.39 429.26 476.56 423.12 466.9 423.12 453.47 419.84 445.91 419.84 402.34 412.56 389.88 419.84 390.81 419.84 286.03 408.62 265.22 411.68 265.82 411.68 233.11 407.89 216.89 401.41 199.77 387.72 204.35 395.37 224.69 398.95 239.97"/><polygon class="cls-2" points="413.49 471.85 414.5 478.05 416.4 472.31 413.49 471.85"/><rect class="cls-2" x="387.35" y="201.82" width="14.43" height="0.49" transform="translate(-43.65 135.13) rotate(-18.43)"/><polygon class="cls-2" points="439.71 525.86 431.06 531.69 431.08 467 441.37 468.53 445.99 478.94 436.3 518.08 439.71 525.86"/><polyline class="cls-4" points="452.92 471.24 452.92 457.88 459.26 451.51 443.56 449.26 443.56 405.41 455.32 394.04 443.57 392.53 443.57 292.25 457.08 274.5 408.62 265.22 419.84 286.03 419.84 390.81 412.56 389.88 419.84 402.34 419.84 445.91 423.12 453.47 423.12 466.9 429.26 476.56 419.84 515.39 423.12 523.43 414.49 528.97 423.03 528.97 429.71 523.2 426.58 515.47 436.71 477.7 432.45 468.24 441.8 469.58 445.99 478.94 445.97 478.94 436.3 518.08 439.71 525.86 431.06 531.69 439.6 531.69 446.33 526.04 443.18 518.1 453.28 480.21 449 470.72 452.95 471.24"/><polyline class="cls-2" points="599.53 473.84 604.27 470.52 607.99 479 607.99 491.34 613.19 500.61 603.44 539.41 607.02 547.77 598.23 553.11 598.23 502.75 600.66 497.92 600.12 482.87 598.18 477.68 589.8 476.48 589.8 432.73 584.46 421.14 590.38 417.69 590.38 319.85 582.04 303.07 589.91 296.31 599.51 316.76 599.51 418.15 594.96 417.28 599.51 429.06 599.51 473.84"/><polygon class="cls-2" points="619.92 542.14 623.46 550.44 615.55 555.83 615.55 491.66 623.48 493.08 629.79 503.3 619.92 542.14"/><polyline class="cls-4" points="598.21 553.1 607 547.77 603.42 539.4 613.17 500.6 607.97 491.34 607.97 478.99 604.25 470.51 599.49 473.83 599.51 473.83 599.51 429.05 599.49 429.05 594.94 417.28 599.49 418.15 599.49 316.75 589.89 296.3 639.13 302.51 620.41 319.41 620.41 420.76 620.35 420.76 631.84 422.95 620.35 433.46 620.35 474.77 643.04 478.26 636.97 482.27 636.97 496.54 632.92 495.83 636.72 504.27 626.9 542.16 629.98 550.23 623.62 555.83 615.53 555.83 623.44 550.43 619.9 542.13 629.77 503.29 624.52 494.31 616.3 492.84 620.15 501.6 610.26 539.6 613.36 547.35 606.66 553.1 598.12 553.1"/><path class="cls-2" d="M559.6,356.72,558.14,371c3.25-3.38,7-4.39,11.52-3.85,11.42,1.38,15.48,11.73,14.83,22.21-.85,13.8-9.2,21.28-20.61,19.91-6.89-.83-15-5.93-14.45-15.56.25-4.09,2.43-7.77,6.17-7.32,2.87.35,4.79,3.24,4.58,6.64s-2.2,5.22-4.94,5c1.44,3.69,5.21,4.58,8.3,4.95,7.9.95,11.59-5,12.14-13.89.51-8.26-1.83-14.89-9.37-15.8-4.09-.49-6.27.79-8.77,4.95l-5.31-.64L555,347.15"/><polyline class="cls-2" points="554.98 347.15 584.33 352.32 583.52 360.9 559.6 356.72"/><polygon class="cls-2" points="141.79 592.07 122.06 590.11 121.98 566.81 141 553.56 143.86 557.66 126.99 569.41 127.04 585.58 142.28 587.09 141.79 592.07"/><polygon class="cls-2" points="139.87 523.43 127.34 508.51 140.93 497.44 144.09 501.32 134.43 509.18 143.7 520.21 139.87 523.43"/><polygon class="cls-2" points="154.45 379.3 139.04 370.17 153.34 358.92 156.43 362.85 147.87 369.59 157 375 154.45 379.3"/><polygon class="cls-2" points="156.41 359.94 115.78 346.95 145.87 321.58 133.54 315.59 196.65 201.12 262.39 215.96 261.29 220.84 199.21 206.82 140.46 313.39 154.97 320.44 125.91 344.94 157.93 355.17 156.41 359.94"/><polyline class="cls-2" points="702.04 523.27 702.04 671.25 707.04 670.19 707.04 523.99"/><polyline class="cls-2" points="707.04 492.72 707.04 456.1 702.04 455.29 702.04 492.03"/><polyline class="cls-2" points="702.71 442.26 702.71 395.26 692.45 380.43 692.45 330.97 678.92 317.7 678.92 288.15 673.92 287.25 673.92 319.8 687.45 333.07 687.45 381.99 697.71 396.82 697.71 441.46"/><polygon class="cls-2" points="676.02 290.61 673.02 286.61 706.55 261.48 634.95 249.43 644.55 241.24 595.72 208.92 598.48 204.75 652.85 240.73 646.35 246.27 718.88 258.48 676.02 290.61"/><polyline class="cls-2" points="702.03 457.72 704.41 459.56 719.6 439.91 698.49 436.54 697.7 441.48 710.49 443.52 702.04 454.45"/><polyline class="cls-2" points="702.02 494.53 719.88 497 719.83 513.2 702.11 523.25 704.57 527.6 724.82 516.11 724.9 492.65 702.38 489.54 702.04 492.03"/><path class="cls-1" d="M3452.16,397.89a1.36,1.36,0,0,1-1.8,1l-3.6-1c-.6-.2-1-.6-.6-1.6a14.87,14.87,0,0,0,.6-3.4c0-2.2-1.4-3.8-3.2-3.8s-5.2,1.2-8.8,2.8c-4.4,2.2-18,5.6-27.6,5.6-26.6,0-48-18.4-48-47.6,0-22.8,10.6-49.4,29-69.4,13-14.2,31-23,48.2-23,9.6,0,16.8,2,26.4,8.6,2.6,1.8,6.2,5.6,10,5.6,2.4,0,4-1.6,5.2-6.2q.6-1.8,1.8-1.2l2.6.6c1.2.2,1.6.8,1.2,2l-10.6,41.4c-.4,1.2-.8,1.6-2.2,1.2l-2.8-.4c-1-.2-1.4-.6-1.2-2,4.2-19.6-6-42.4-29-42.4-16.2,0-27,8-38.4,24.4-15,22-19.8,46.8-19.8,62.8,0,28.6,19,37.4,30.6,37.4,16.8,0,37.6-5.8,49.8-35.4.8-1.8,1-2,2-1.6l3.4,1c1.2.4,1.2.8,1,1.8Z"/><path class="cls-1" d="M3563,311.29c.8,0,1,1,.6,1.8-3.8,8.2-14,35.8-15,39-1.2,3.4-9.6,28.2-9.6,30s1,2.4,2.2,2.4c2.4,0,12.6-10.4,14-12.2.6-.6,1.2-1,1.6-.4l1.8,2c.6.6.8,1,.4,1.6-2.2,4-19.6,21-31,21-2.4,0-4.2-.8-4.2-3.4,0-3,2-9.2,9.6-30.4l-1-.4c-8.4,12.8-28.6,34.2-42.8,34.2-4.6,0-10.8-3.8-10.8-12.8,0-29.2,32.8-72.4,57.2-72.4,8.4,0,12.2,3.6,14.2,6.8l3.8-5.4c.6-.8,1.2-1.4,2-1.4Zm-25.2,34.8c2.8-5.8,4.8-10.8,4.8-16.6,0-5.4-2-11.8-9.4-11.8-18.4,0-39.8,42.2-39.8,61.2,0,4.6,2,7,5.4,7C3508.76,385.89,3534.16,353.49,3537.76,346.09Z"/><path class="cls-1" d="M3576.36,394.49c-1.4,0-2.2-.8-1.8-1.8l11.2-32.4c3.6-11.2,9.8-32.2,9.8-35a3.17,3.17,0,0,0-3.4-3c-4,0-13,9-15.8,12.4a1,1,0,0,1-1.6,0l-2-2a1.21,1.21,0,0,1,0-1.6c4.2-6.2,16.2-19.8,29.8-19.8,4,0,5.6,3.4,5.6,7,.2,3.8-3.2,15-7.2,28.4l1,.4c5.4-11.2,21.4-35.8,32.6-35.8,5.8,0,9.4,3.6,9.4,9,0,5.2-4,9.2-7.8,9.2a6.47,6.47,0,0,1-5-2c-1.6-1.6-2.6-2.4-5.2-2.4-5.4,0-16.6,17.2-24.6,30.4-2.4,3.8-4.8,8.4-7.8,17.4l-6.6,20.2c-.4,1.4-1,1.4-2.6,1.4Z"/><path class="cls-1" d="M3644,376.89c0-16.8,11-37.8,25.6-52.2,6.4-6.4,17.2-13.4,26.8-13.4,7.8,0,11.4,5.8,11.4,10.6,0,9.8-7.4,20.2-18.6,26a81.61,81.61,0,0,1-29,8.2c-1,2.4-2.6,9-2.6,18.4,0,9,6.6,12.6,10.4,12.6,9.8,0,18.6-7.4,22.8-14.2.4-.6,1-1,1.8-.2l2.2,1.8c1,.6,1,1.2.2,1.8-5,7-17,20.2-32.4,20.2C3649.55,396.49,3644,390.09,3644,376.89Zm17.8-26.6c7,.6,33.2-7.8,33.2-22.6,0-4-2-7.6-6.4-7.6C3675.75,320.09,3663.35,343.09,3661.75,350.29Z"/><path class="cls-1" d="M3713.75,376.89c0-16.8,11-37.8,25.6-52.2,6.4-6.4,17.2-13.4,26.8-13.4,7.8,0,11.4,5.8,11.4,10.6,0,9.8-7.4,20.2-18.6,26a81.61,81.61,0,0,1-29,8.2c-1,2.4-2.6,9-2.6,18.4,0,9,6.6,12.6,10.4,12.6,9.8,0,18.6-7.4,22.8-14.2.4-.6,1-1,1.8-.2l2.2,1.8c1,.6,1,1.2.2,1.8-5,7-17,20.2-32.4,20.2C3719.35,396.49,3713.75,390.09,3713.75,376.89Zm17.8-26.6c7,.6,33.2-7.8,33.2-22.6,0-4-2-7.6-6.4-7.6C3745.55,320.09,3733.15,343.09,3731.55,350.29Z"/><path class="cls-1" d="M3789.15,394.49c-1.4,0-2.2-.8-1.8-1.8l11.2-32.4c3.6-11.2,9.8-32.2,9.8-35a3.17,3.17,0,0,0-3.4-3c-4,0-13,9-15.8,12.4a1,1,0,0,1-1.6,0l-2-2a1.21,1.21,0,0,1,0-1.6c4.2-6.2,16.2-19.8,29.8-19.8,4,0,5.6,3.4,5.6,7,.2,3.8-3.2,15-7.2,28.4l1,.4c5.4-11.2,21.4-35.8,32.6-35.8,5.8,0,9.4,3.6,9.4,9,0,5.2-4,9.2-7.8,9.2a6.47,6.47,0,0,1-5-2c-1.6-1.6-2.6-2.4-5.2-2.4-5.4,0-16.6,17.2-24.6,30.4-2.4,3.8-4.8,8.4-7.8,17.4l-6.6,20.2c-.4,1.4-1,1.4-2.6,1.4Z"/><path class="cls-1" d="M3913,347.29c0-24,15-37.4,23.2-41-5.2-7-7.4-14.8-7.4-23.8,0-14.8,11.4-28.8,30-28.8,11,0,19.4,6,19.4,15.8,0,8.6-7,13.2-9.4,13.2-.8,0-1-1.4-.6-3.6,1.6-8.4-5.2-13.6-12-13.6-10.8,0-19.2,9.4-19.2,23a27.46,27.46,0,0,0,5,15.8,21.67,21.67,0,0,1,7-1c3.6,0,10.2,1.8,10.2,4.8,0,4.8-2.6,9.4-5.8,9.4s-9.6-2.6-11.2-4c-2.6-2.2-3.4-2.6-6-1-6.8,4.4-11.6,14.8-11.6,27,0,24.6,21.6,44.4,58.6,44.4,36.6,0,56-23.8,56-42.8,0-15.8-12.2-31.2-29.8-31.2-15.8,0-18.8,14.4-18.8,18.4,0,9.2,4.6,14.4,6.4,14.4,1,0,1.8-1.2,1.8-3a8.62,8.62,0,0,1,8.6-8c5.8,0,9.4,4.2,9.4,10.2,0,3.4-3.2,9.8-12.2,9.8-7.8,0-21.2-7.8-21.2-24.6,0-13.4,9.6-28.4,30.6-28.4,7.6,0,17.8,1.4,21.4,1.4,21.6,0,32-6.4,32-17.6,0-7.2-6-14-11.4-14-2.6,0-2.6,2.6-2.2,4.4a7.84,7.84,0,0,1-8.2,8.4c-6.6,0-8.6-4.6-8.6-7.2,0-8.4,7.8-12.4,15.2-12.4,13.6,0,23,10.4,23,21,0,18.6-12.4,27.8-32.6,30.4-4.6.6-5,2-2.8,5.4,2.6,4,7.2,12,7.2,26,0,34-30,54.4-64.4,54.4C3926.75,398.89,3913,367.69,3913,347.29Z"/><path class="cls-1" d="M3389.16,521.29c1.8-6.4,2.6-13.4-6.4-13.4h-9.4c-1,0-1.2-1-1-2l1-3.8c.4-1.4.8-1.6,2.8-1.6s37.6-.6,41.8-.6c19,0,30,1.4,39.6,9.4,8.8,7.4,12,13.6,12,27.2,0,20.2-17.2,42.4-57.6,42.4-8.8,0-17.2-1.4-20.2-2.4l-9.8,36.6c-2,7.6-1.6,14.6,6.4,14.6h7.6c1.4,0,1.8.8,1.6,2l-.6,3.8c-.2,1.2-.6,1.6-2.4,1.6-2.4,0-10.6-.6-26.6-.6-13.6,0-20.8.6-23.6.6-1.2,0-1.8-.6-1.6-2l.4-3.4a2.06,2.06,0,0,1,2.2-2h4.2c10.8,0,13.6-7.4,15.8-16Zm4,48c3.2,2.2,8.8,3.2,17,3.2,30,0,41.8-20.8,41.8-37.6,0-23.8-20.4-28.6-34-28.6-2.2,0-6.4,0-7.8.4Z"/><path class="cls-1" d="M3476.16,634.49c-1.4,0-2.2-.8-1.8-1.8l11.2-32.4c3.6-11.2,9.8-32.2,9.8-35a3.17,3.17,0,0,0-3.4-3c-4,0-13,9-15.8,12.4a1,1,0,0,1-1.6,0l-2-2a1.21,1.21,0,0,1,0-1.6c4.2-6.2,16.2-19.8,29.8-19.8,4,0,5.6,3.4,5.6,7,.2,3.8-3.2,15-7.2,28.4l1,.4c5.4-11.2,21.4-35.8,32.6-35.8,5.8,0,9.4,3.6,9.4,9,0,5.2-4,9.2-7.8,9.2a6.47,6.47,0,0,1-5-2c-1.6-1.6-2.6-2.4-5.2-2.4-5.4,0-16.6,17.2-24.6,30.4-2.4,3.8-4.8,8.4-7.8,17.4l-6.6,20.2c-.4,1.4-1,1.4-2.6,1.4Z"/><path class="cls-1" d="M3545.36,610.69c0-25.2,19-59.4,45.6-59.4,13.4,0,21.4,9.8,21.4,23.4,0,22-17.4,61.8-46.4,61.8C3555,636.49,3545.36,625.89,3545.36,610.69Zm59-39c.2-6.2-3.4-11.2-10-11.2-8.4,0-19,7.6-29,23.8-6.8,10.8-11.6,23-11.6,32.4,0,6.4,4.4,10.2,9.2,10.2C3583.76,626.89,3604.36,584.89,3604.36,571.69Z"/><path class="cls-1" d="M3628,564.09c-1,0-1.4-.6-1-2l.8-3.4c.4-1.4.8-2,2.4-2h17.4c6-17.2,12.8-33.8,23.4-45.6,5.6-6.4,16.6-13.6,29.6-13.6,11.6,0,18,7,18,11.8,0,6.2-4,9.2-8,9.2-6.4,0-8.2-3.6-8.8-8-.2-2-2.2-5.8-8.2-5.8-18.6,0-25.8,29.6-32.4,52h19.4c1.2,0,1.6.6,1.2,2.4l-1,3.6c-.2,1.2-.6,1.4-2.2,1.4h-19c-5.2,16.2-14.4,50.8-24.4,76.4-12.2,31.2-26.4,53.4-47.8,53.4-8,0-14.4-5.4-14.4-11.8a8.41,8.41,0,0,1,8.6-8.6c5.8,0,8.8,5.6,9.4,9,.4,2,1.8,3.4,3.4,3.4,9.6,0,20.4-16.8,31.2-53.8l20.2-68Z"/><path class="cls-1" d="M3681,616.89c0-16.8,11-37.8,25.6-52.2,6.4-6.4,17.2-13.4,26.8-13.4,7.8,0,11.4,5.8,11.4,10.6,0,9.8-7.4,20.2-18.6,26a81.61,81.61,0,0,1-29,8.2c-1,2.4-2.6,9-2.6,18.4,0,9,6.6,12.6,10.4,12.6,9.8,0,18.6-7.4,22.8-14.2.4-.6,1-1,1.8-.2l2.2,1.8c1,.6,1,1.2.2,1.8-5,7-17,20.2-32.4,20.2C3686.55,636.49,3681,630.09,3681,616.89Zm17.8-26.6c7,.6,33.2-7.8,33.2-22.6,0-4-2-7.6-6.4-7.6C3712.75,560.09,3700.35,583.09,3698.75,590.29Z"/><path class="cls-1" d="M3744.35,625.29a7,7,0,0,1,6.8-6.6c4.4,0,7,3,8.2,6.4s2.2,5.6,7.2,5.6c5.8,0,11.2-5.2,11.2-12.2,0-8.6-6-16.8-8.6-23.2-1.4-3.4-6-10.4-5.8-19.6,0-11.6,11-24.4,25.2-24.4,6,0,14.2,2.4,14.2,10.2a6.55,6.55,0,0,1-6.2,6.4,7.45,7.45,0,0,1-6.8-4.8c-1-2.4-1.2-5.6-5.2-5.6s-9.8,5.4-9.8,12.6c0,7.4,6,15.8,7.2,18.6,1.2,2.4,7.6,12.2,7.6,22.8,0,15.6-12.6,25-26.4,25C3751.55,636.49,3744.35,631.89,3744.35,625.29Z"/><path class="cls-1" d="M3803.15,625.29a7,7,0,0,1,6.8-6.6c4.4,0,7,3,8.2,6.4s2.2,5.6,7.2,5.6c5.8,0,11.2-5.2,11.2-12.2,0-8.6-6-16.8-8.6-23.2-1.4-3.4-6-10.4-5.8-19.6,0-11.6,11-24.4,25.2-24.4,6,0,14.2,2.4,14.2,10.2a6.55,6.55,0,0,1-6.2,6.4,7.45,7.45,0,0,1-6.8-4.8c-1-2.4-1.2-5.6-5.2-5.6s-9.8,5.4-9.8,12.6c0,7.4,6,15.8,7.2,18.6,1.2,2.4,7.6,12.2,7.6,22.8,0,15.6-12.6,25-26.4,25C3810.35,636.49,3803.15,631.89,3803.15,625.29Z"/><path class="cls-1" d="M3874.55,631.49c0-4.6,3.4-13.8,11.8-36.2l5.8-15.6c2-5.4,3.6-9.4,3.6-11.8,0-1.8-1.2-2.6-2.8-2.6-3.4,0-12.8,10.8-16,14-.8.8-1.6.8-2.2.2l-1.6-1.8c-.8-.6-1.2-1-.6-1.8.8-1.2,21.2-25.2,34-24.6a4.67,4.67,0,0,1,4.8,5c0,3.6-3.2,12.6-6.8,22.2l-11.6,30.4c-2.8,7.4-3.6,11.8-3.6,13.2,0,1.8.6,3,2.2,3.4,4.2-.8,15-12.2,16-14,.4-.6,1.2-.6,2.2.4l1.6,1.4c.8,1,1,1.4.4,2.4-1.2,1.6-17.2,20.8-33.8,20.8C3876,636.29,3874.55,634.69,3874.55,631.49Zm25.2-116.6a10,10,0,0,1,10.4-10c7,0,10.6,5,10.6,9.6a10.27,10.27,0,0,1-10.6,10C3901.35,524.49,3899.75,517.09,3899.75,514.89Z"/><path class="cls-1" d="M3927.34,610.69c0-25.2,19-59.4,45.6-59.4,13.4,0,21.4,9.8,21.4,23.4,0,22-17.4,61.8-46.4,61.8C3936.94,636.49,3927.34,625.89,3927.34,610.69Zm59-39c.2-6.2-3.4-11.2-10-11.2-8.4,0-19,7.6-29,23.8-6.8,10.8-11.6,23-11.6,32.4,0,6.4,4.4,10.2,9.2,10.2C3965.74,626.89,3986.34,584.89,3986.34,571.69Z"/><path class="cls-1" d="M4010.74,634.49c-2.2,0-2.6-.4-2.2-1.8l14.2-37c4.8-12.4,10.4-26.8,10.4-30.2,0-2-.8-3.4-3-3.4-3.8,0-13.4,9.6-16.8,13.4-.6.6-1.2.6-2-.2l-1.8-1.8c-.8-.8-1-1.2-.4-2,3-3.6,17.8-20.2,32.2-20.2a6,6,0,0,1,6.4,6c0,6.2-8.6,25.2-10.2,29.8l.8.4c6-9.6,27.8-36.2,45.6-36.2,6,0,10,3,10,8.2,0,8.8-4.6,19.2-11.2,35.4-5.4,13.2-10.2,24.4-10.2,27.6a2.47,2.47,0,0,0,2.4,2.6c3,0,11.8-7.4,14.4-10.2a1.44,1.44,0,0,1,2.2.4l1.4,1.6c.8.8,1,1.2.2,2.2-2.4,3.2-18.6,17.4-32,17.4-2.6,0-4.8-1-4.8-4,0-3.8,7.2-19.6,13.4-36.8,2.8-7.8,10-24.4,10-28.8,0-2.8-1.4-4.6-5-4.6-7.8,0-27.6,18.4-36.4,32.6-3.6,5.8-6.8,11-12,25l-5,13.4c-.4.8-.8,1.2-2.8,1.2Z"/><path class="cls-1" d="M4191.14,551.29c.8,0,1,1,.6,1.8-3.8,8.2-14,35.8-15,39-1.2,3.4-9.6,28.2-9.6,30s1,2.4,2.2,2.4c2.4,0,12.6-10.4,14-12.2.6-.6,1.2-1,1.6-.4l1.8,2c.6.6.8,1,.4,1.6-2.2,4-19.6,21-31,21-2.4,0-4.2-.8-4.2-3.4,0-3,2-9.2,9.6-30.4l-1-.4c-8.4,12.8-28.6,34.2-42.8,34.2-4.6,0-10.8-3.8-10.8-12.8,0-29.2,32.8-72.4,57.2-72.4,8.4,0,12.2,3.6,14.2,6.8l3.8-5.4c.6-.8,1.2-1.4,2-1.4Zm-25.2,34.8c2.8-5.8,4.8-10.8,4.8-16.6,0-5.4-2-11.8-9.4-11.8-18.4,0-39.8,42.2-39.8,61.2,0,4.6,2,7,5.4,7C4136.94,625.89,4162.34,593.49,4165.94,586.09Z"/><path class="cls-1" d="M4240.54,518.89c3-7.6,2.8-12.6-3-12.6h-5.8c-1.4,0-1.6-.8-1.2-1.8l1.2-3.6c.4-1.2.8-1.4,2-1.4h24.8c1.8,0,2.4,1.2,1.8,3l-41.6,105.8c-1.8,4.6-6.6,15.6-2.4,15.6,3.2,0,12.4-7.8,14.8-10.4.8-.8,1.2-.6,1.8,0l2.2,2.4a1.35,1.35,0,0,1-.2,2c-1,1.6-19.6,18.6-32.4,18.6-2.6,0-4.4-1.2-4.4-5.8,0-3,5-15.6,7.4-21.6Z"/><path class="cls-1" d="M4337.74,517.89c2-7.8-3.2-10-10.2-10h-9c-2,0-2.4-.4-2-1.6l1.2-4.4c.4-1.2.8-1.4,3.2-1.4s8.8-.2,16.6-.6c8.4-.2,17.6-.6,21.6-.6,25.4,0,53.4,2.8,70.2,19.4,12.4,12.6,15,24,15,36.2,0,39.2-24.8,59-37,66-25.2,14.2-52.2,14.2-65.4,14.2-5.4,0-23.6-.6-29.2-.6-15,0-20.8.6-22.4.6-1.4,0-1.8-.6-1.6-1.6l1.2-4.4c.2-.8.6-1.4,2-1.4h6c7.2,0,13.6-2.6,16.8-15.8Zm-6.4,95.4a45,45,0,0,0-1.4,8.4c0,4.2,5.6,6,14.2,6,21.4,0,42.4-4,57.2-16.6,12.2-10.2,24.4-32.6,24.4-55.6,0-13-5.4-25.6-12.8-33.2-6.6-6.8-15-10.8-22.8-13a81.06,81.06,0,0,0-21.8-2.6c-3.2,0-9.2,0-11.2.6Z"/><path class="cls-1" d="M4452.13,616.89c0-16.8,11-37.8,25.6-52.2,6.4-6.4,17.2-13.4,26.8-13.4,7.8,0,11.4,5.8,11.4,10.6,0,9.8-7.4,20.2-18.6,26a81.61,81.61,0,0,1-29,8.2c-1,2.4-2.6,9-2.6,18.4,0,9,6.6,12.6,10.4,12.6,9.8,0,18.6-7.4,22.8-14.2.4-.6,1-1,1.8-.2l2.2,1.8c1,.6,1,1.2.2,1.8-5,7-17,20.2-32.4,20.2C4457.73,636.49,4452.13,630.09,4452.13,616.89Zm17.81-26.6c7,.6,33.2-7.8,33.2-22.6,0-4-2-7.6-6.4-7.6C4483.94,560.09,4471.54,583.09,4469.94,590.29Z"/><path class="cls-1" d="M4543.13,563.89c-6.4,0-10.8,4.4-11,10.4.2,3.6,2.6,4.8,4.4,5.8,1.4.8,4.4,2.8,4.4,6s-2.2,6.6-7.4,6.6c-3.8,0-9.2-2.8-9.2-11.4,0-7.8,5-16.2,7.8-19.4,4-4.4,8.4-9.6,22.8-9.6,20.4,0,22.8-1,25-1,2.6,0,4.6,1.2,2.6,3.8-4.2,5.2-23.6,32.2-23.6,52.2,0,13.6,7.2,18.6,14.2,18.6,17.2,0,34.6-27,34.6-47.2,0-3.2-.2-7.2-1.6-10.4-1.6-3.6-3-5.8-3-8.2,0-5.4,3.2-8.8,9-8.8,5.6,0,7.8,5.8,7.8,10.6,0,9.6-4.4,29.6-13.2,44.8-9,15.6-25.2,29.8-41.6,29.8-10,0-19.8-6.2-19.8-20.6,0-18.6,16.6-43.2,28.2-56.8l-1.4-.6c-4.2,3.6-14.8,5.4-18.6,5.4Z"/><path class="cls-1" d="M4625.73,616.89c0-16.8,11-37.8,25.6-52.2,6.4-6.4,17.2-13.4,26.8-13.4,7.8,0,11.4,5.8,11.4,10.6,0,9.8-7.4,20.2-18.6,26a81.61,81.61,0,0,1-29,8.2c-1,2.4-2.6,9-2.6,18.4,0,9,6.6,12.6,10.4,12.6,9.8,0,18.6-7.4,22.8-14.2.4-.6,1-1,1.8-.2l2.2,1.8c1,.6,1,1.2.2,1.8-5,7-17,20.2-32.4,20.2C4631.33,636.49,4625.73,630.09,4625.73,616.89Zm17.8-26.6c7,.6,33.2-7.8,33.2-22.6,0-4-2-7.6-6.4-7.6C4657.53,560.09,4645.13,583.09,4643.53,590.29Z"/><path class="cls-1" d="M4735.13,518.89c3-7.6,2.8-12.6-3-12.6h-5.8c-1.4,0-1.6-.8-1.2-1.8l1.2-3.6c.4-1.2.8-1.4,2-1.4h24.8c1.8,0,2.4,1.2,1.8,3l-41.6,105.8c-1.8,4.6-6.6,15.6-2.4,15.6,3.2,0,12.4-7.8,14.8-10.4.8-.8,1.2-.6,1.8,0l2.2,2.4a1.35,1.35,0,0,1-.2,2c-1,1.6-19.6,18.6-32.4,18.6-2.6,0-4.4-1.2-4.4-5.8,0-3,5-15.6,7.4-21.6Z"/><path class="cls-1" d="M4746.93,610.69c0-25.2,19-59.4,45.6-59.4,13.4,0,21.4,9.8,21.4,23.4,0,22-17.4,61.8-46.4,61.8C4756.53,636.49,4746.93,625.89,4746.93,610.69Zm59-39c.2-6.2-3.4-11.2-10-11.2-8.4,0-19,7.6-29,23.8-6.8,10.8-11.6,23-11.6,32.4,0,6.4,4.4,10.2,9.2,10.2C4785.33,626.89,4805.93,584.89,4805.93,571.69Z"/><path class="cls-1" d="M4863.73,536.09a4.07,4.07,0,0,1,2.6-2.8l12.4-4.4a3.4,3.4,0,0,1,1.4-.2c.4,0,.6.4.6.8a2.69,2.69,0,0,1-.4,1.6l-9.2,20.8a24.62,24.62,0,0,1,4-.4,29.6,29.6,0,0,1,4-.2c19,0,27.6,13.6,27.6,26.6,0,14-6.2,28.4-23.8,41.6-8.8,6.4-25.2,13.2-41.6,15l-14.2,39.6c-3.6,10.8-2,13.6,6.4,13.6h5.6a1.39,1.39,0,0,1,1.4,1.6l-1.4,4a2.34,2.34,0,0,1-2.4,1.2c-2.2,0-8.2-.6-21-.6-13.8,0-19.2.6-21.4.6-1.2,0-1.6-.4-1.4-1.2l1.2-4c.2-.8.4-1.6,1.4-1.6h4.6c7.8,0,11-4.6,15.2-16.2l39.2-107.8c-9.8,2.8-20.6,12.8-24.8,18a1.14,1.14,0,0,1-1.8.2l-2.2-2c-.6-.6-.8-1.2-.2-1.8,7-8.4,16.4-17.6,31.8-23.4Zm-20,92.4c24-3.8,49-21.4,49-46,0-15.4-9.2-23-18-23a38.26,38.26,0,0,0-6.4.6Z"/><path class="cls-1" d="M4920.73,634.49c-1,0-1.8-.4-1.2-2l15.2-36.2c5.2-12.6,11.2-26.4,11.6-30,0-2-.6-3.2-2-3.2-2.8,0-15,11.8-16.8,14.2-.6.8-1.6.6-2.4-.2l-1.8-1.8c-.6-.6-.8-1.2-.2-1.8,4.6-5.4,20.2-22.2,32.8-22.2,2.8,0,4.8,2.4,4.8,5.6,0,4.8-12.2,31.2-14.2,36.6l1,.2c9.2-14.2,29.8-42.4,46.8-42.4,6.6,0,8.8,5,8.8,8.6,0,7.4-8,26.6-11.4,34.6l1,.2c11-16.8,29-43.4,46-43.4a9.57,9.57,0,0,1,9.6,9.6c0,6.8-3.8,15.2-12.2,35.6-4.6,11.4-8.4,19.8-8.4,23.4,0,1.4.6,2.6,2.2,2.6,3.6,0,14.6-12.8,15.8-14.4.6-1,1.6-.8,2.4,0l1.6,1.6a1.77,1.77,0,0,1,.4,2.2c-.6,1.4-21.6,24.6-34.6,24.6-2,0-3.6-1.8-3.6-4.8,0-5,5.6-18.4,13.6-38,5.8-14.2,9.6-22.6,9.6-28.4,0-2.4-1.6-3.8-4.2-3.8-6.8,0-26.4,22.2-38.6,40-1.4,2.2-5.6,7.2-8.2,14.2l-6.8,17.6c-.4,1-1.2,1.2-2.8,1.2h-8c-1.6,0-2.4-.4-1.8-1.6l13.6-33.2c5.6-13.8,11.6-28,11.6-33.6a3.68,3.68,0,0,0-4-4c-6.8,0-25.8,20.4-37.2,36.4a84.71,84.71,0,0,0-10,17l-7.2,17.8c-.8,1.2-1.4,1.2-3.2,1.2Z"/><path class="cls-1" d="M5063.13,616.89c0-16.8,11-37.8,25.6-52.2,6.4-6.4,17.2-13.4,26.8-13.4,7.8,0,11.4,5.8,11.4,10.6,0,9.8-7.4,20.2-18.6,26a81.61,81.61,0,0,1-29,8.2c-1,2.4-2.6,9-2.6,18.4,0,9,6.6,12.6,10.4,12.6,9.8,0,18.6-7.4,22.8-14.2.4-.6,1-1,1.8-.2l2.2,1.8c1,.6,1,1.2.2,1.8-5,7-17,20.2-32.4,20.2C5068.73,636.49,5063.13,630.09,5063.13,616.89Zm17.8-26.6c7,.6,33.2-7.8,33.2-22.6,0-4-2-7.6-6.4-7.6C5094.93,560.09,5082.53,583.09,5080.93,590.29Z"/><path class="cls-1" d="M5138.53,634.49c-2.2,0-2.6-.4-2.2-1.8l14.2-37c4.8-12.4,10.4-26.8,10.4-30.2,0-2-.8-3.4-3-3.4-3.8,0-13.4,9.6-16.8,13.4-.6.6-1.2.6-2-.2l-1.8-1.8c-.8-.8-1-1.2-.4-2,3-3.6,17.8-20.2,32.2-20.2a6,6,0,0,1,6.4,6c0,6.2-8.6,25.2-10.2,29.8l.8.4c6-9.6,27.8-36.2,45.6-36.2,6,0,10,3,10,8.2,0,8.8-4.6,19.2-11.2,35.4-5.4,13.2-10.2,24.4-10.2,27.6a2.47,2.47,0,0,0,2.4,2.6c3,0,11.8-7.4,14.4-10.2a1.44,1.44,0,0,1,2.2.4l1.4,1.6c.8.8,1,1.2.2,2.2-2.4,3.2-18.6,17.4-32,17.4-2.6,0-4.8-1-4.8-4,0-3.8,7.2-19.6,13.4-36.8,2.8-7.8,10-24.4,10-28.8,0-2.8-1.4-4.6-5-4.6-7.8,0-27.6,18.4-36.4,32.6-3.6,5.8-6.8,11-12,25l-5,13.4c-.4.8-.8,1.2-2.8,1.2Z"/><path class="cls-1" d="M5263.73,564.09h-14c-1.2,0-1.6-.4-1.2-1.6l1.6-4.4a2,2,0,0,1,2.2-1.4h14.4l10.4-23.2c1-2,1.6-2.4,3.2-3a77.26,77.26,0,0,0,9-3.4,8.44,8.44,0,0,1,3-1.2c1.2,0,1.6,1.2.2,4l-13.2,26.8h20.4c1,0,1.4.6.8,2.2l-1.8,4.2a1.87,1.87,0,0,1-1.8,1h-20.4l-19.4,45c-2.4,5.6-4.6,10.6-4.6,12.8s.8,3.4,2.6,3.4c5.8,0,18.8-11.4,20-12.8.6-.8,1.2-.6,1.8,0l2.2,2.4c.6.6.6,1,.2,1.8-2.6,3.2-21.2,19.8-36.6,19.8-5,0-6.4-2-6.4-4.8a26.8,26.8,0,0,1,2.2-9.4Z"/></svg>