<?xml version="1.0" encoding="utf-8"?>
<!-- Generator: Adobe Illustrator 24.2.1, SVG Export Plug-In . SVG Version: 6.00 Build 0)  -->
<svg version="1.1" id="Layer_1" xmlns="http://www.w3.org/2000/svg" xmlns:xlink="http://www.w3.org/1999/xlink" x="0px" y="0px"
	 viewBox="0 0 5976 1080" style="enable-background:new 0 0 5976 1080;" xml:space="preserve">
<style type="text/css">
	.st0{fill:#FFFFFF;}
	.st1{fill:#0033A1;}
	.st2{fill:url(#SVGID_1_);}
	.st3{fill:#9594D2;}
	.st4{fill:#E6E7F5;}
	.st5{fill:#C4C5E7;}
	.st6{fill:none;}
</style>
<rect x="3243.1" y="275.19" class="st0" width="7" height="473.54"/>
<g>
	<g>
		<path class="st0" d="M1075.93,688.27c0,11.64,0,24.32,11.02,33.68c5.61,4.78,15.18,7.9,22.87,7.9c7.69,0,17.25-3.12,22.87-7.9
			c11.02-9.36,11.02-22.04,11.02-33.68v-85.03h15.38v89.19c0,11.64-1.25,22.87-8.73,33.26c-8.32,11.43-22.87,18.71-40.54,18.71
			c-17.67,0-32.22-7.28-40.54-18.71c-7.48-10.4-8.73-21.62-8.73-33.26v-89.19h15.38V688.27z"/>
		<path class="st0" d="M1298.8,741.91V597.42l108.1,113.3V603.24h15.38v144.9l-108.1-113.3v107.06H1298.8z"/>
		<path class="st0" d="M1577.38,603.24v138.66H1562V603.24H1577.38z"/>
		<path class="st0" d="M1717.92,603.24l39.08,105.82l39.08-105.82h17.05l-56.13,146.98l-56.13-146.98H1717.92z"/>
		<path class="st0" d="M2008.56,617.8h-56.55v41.16h54.88v14.55h-54.88v53.84h56.55v14.55h-71.93V603.24h71.93V617.8z"/>
		<path class="st0" d="M2163.03,603.24c9.36,0,23.28,0.63,33.68,7.69c8.11,5.41,15.18,16.01,15.18,30.77
			c0,21.21-13.93,36.8-34.92,38.25l44.07,61.95h-18.71l-42.2-60.71h-3.95v60.71h-15.38V603.24H2163.03z M2156.18,667.48h9.77
			c19.13,0,30.56-9.15,30.56-25.36c0-7.69-2.29-15.38-11.02-20.37c-6.24-3.53-13.31-3.95-19.96-3.95h-9.36V667.48z"/>
		<path class="st0" d="M2411.06,630.69c-1.87-3.74-4.99-7.9-8.11-10.4c-2.7-2.08-7.69-4.78-15.59-4.78
			c-13.72,0-23.28,8.52-23.28,21.41c0,5.4,1.46,8.52,5.2,12.06c4.16,4.16,9.36,6.45,14.55,8.73l13.3,5.82
			c8.11,3.53,15.59,7.28,21.41,13.1c7.07,7.07,9.98,15.18,9.98,25.16c0,25.57-18.92,42.62-43.87,42.62
			c-9.15,0-20.58-1.87-30.14-11.22c-6.86-6.65-11.02-16.22-12.89-24.53l14.97-4.16c1.04,7.28,4.37,13.51,8.32,17.67
			c6.03,6.03,12.89,7.69,19.96,7.69c18.92,0,27.86-13.51,27.86-27.44c0-6.24-1.87-11.64-6.86-16.22c-3.95-3.74-9.36-6.24-16.63-9.56
			l-12.47-5.82c-5.41-2.49-12.27-5.4-18.5-11.43c-6.03-5.82-9.56-12.27-9.56-22.66c0-21.41,16.42-35.76,38.88-35.76
			c8.52,0,15.38,1.66,22.24,6.24c5.61,3.74,10.4,9.36,13.51,15.39L2411.06,630.69z"/>
		<path class="st0" d="M2576.13,603.24v138.66h-15.38V603.24H2576.13z"/>
		<path class="st0" d="M2749.93,617.8v124.11h-15.38V617.8h-33.68v-14.55h82.74v14.55H2749.93z"/>
		<path class="st0" d="M2942.03,682.24l-45.53-79h17.88l35.34,61.95l35.76-61.95h17.88l-45.94,79v59.67h-15.39V682.24z"/>
	</g>
	<g>
		<path class="st0" d="M974.28,500.51v-5.98l7.3-0.33c17.59-0.66,22.9-7.3,22.9-28.54v-152c0-21.24-5.31-27.55-22.9-28.21l-7.3-0.33
			v-5.97h95.25v5.97l-7.3,0.33c-17.59,0.66-22.9,6.97-22.9,28.21v144.04c-0.33,25.22,0.66,25.89,26.88,26.55h28.21
			c32.19,0,48.79-12.61,61.4-46.13l6.97,1.99l-19.58,60.4H974.28z"/>
		<path class="st0" d="M1209.57,279.14h95.25v5.97l-7.3,0.33c-17.59,0.66-22.9,6.97-22.9,28.21v152.33
			c0,21.24,5.31,27.55,22.9,28.21l7.3,0.33v5.98h-95.25v-5.98l7.3-0.33c17.59-0.66,22.9-6.97,22.9-28.21V313.66
			c0-21.24-5.31-27.55-22.9-28.21l-7.3-0.33V279.14z"/>
		<path class="st0" d="M1401.05,324.94v141.05c0,21.24,5.31,27.55,22.9,28.21l8.3,0.33v5.98h-77.66v-5.98l7.3-0.33
			c17.59-0.66,22.9-6.97,22.9-28.21V313.66c0-21.24-5.31-27.55-22.9-28.21l-7.3-0.33v-5.97h63.72l75.34,164.28l71.69-164.28h65.05
			v5.97l-7.3,0.33c-17.59,0.66-22.9,6.97-22.9,28.21v152.33c0,21.24,5.31,27.55,22.9,28.21l7.3,0.33v5.98h-94.26v-5.98l6.31-0.33
			c17.59-0.66,22.9-6.97,22.9-28.21V322.95l-78.99,177.56h-5.31L1401.05,324.94z"/>
		<path class="st0" d="M1745.2,461.68c0,21.24,1.99,24.23,18.25,23.9h39.82c35.18-0.67,48.46-9.96,62.06-43.15l5.31,2.32
			l-18.92,55.76h-171.58v-5.98l7.3-0.33c17.92-0.66,22.9-6.97,22.9-28.21V313.66c0-21.24-4.98-27.55-22.9-28.21l-7.3-0.33v-5.97
			h168.27l3.32,50.12l-5.64,0.66c-3.65-30.2-14.6-38.5-49.45-37.83h-51.44v83.64h56.09c18.92,0.33,25.89-8.63,25.55-33.19h5.97
			v80.65h-5.97c0.66-23.56-5.97-32.19-25.55-32.53h-56.09V461.68z"/>
		<path class="st0" d="M1934.03,500.51V425.5h6.64c2.66,18.25,5.31,26.88,12.28,37.17c10.62,15.93,27.55,25.89,45.14,25.89
			c21.57,0,38.5-15.6,38.5-35.84c0-10.29-3.65-18.25-13.28-27.88c-5.97-6.64-13.94-12.61-21.24-16.93l-25.89-14.94
			c-30.86-17.59-43.48-34.85-43.48-58.74c0-34.18,23.9-57.42,58.74-57.42c9.96,0,17.26,1.33,30.53,5.64
			c13.28,4.32,14.27,4.65,17.26,4.65c4.32,0,6.97-2.32,9.29-7.97h6.97l-0.33,70.36h-5.97c-7.64-25.22-12.95-36.51-21.57-45.47
			c-7.97-8.3-18.92-12.61-31.86-12.61c-20.24,0-34.85,12.61-34.85,30.2c0,13.28,11.62,27.21,32.53,39.16l25.89,14.93
			c34.18,19.58,49.78,40.16,49.78,66.05c0,35.51-27.21,61.07-65.38,61.07c-12.94,0-12.94,0-40.49-8.63
			c-4.98-1.66-9.62-2.65-12.61-2.65c-5.31,0-7.97,2.32-9.96,8.96H1934.03z"/>
		<path class="st0" d="M2165.01,494.53l7.63-0.33c17.59-0.66,22.9-6.97,22.9-28.21V295.4h-29.87c-28.54-0.33-39.16,9.96-40.82,38.17
			l-6.31-0.66l3.32-53.77h181.87l3.32,53.77l-6.31,0.66c-1.33-28.21-12.28-38.5-40.82-38.17h-29.54v170.59
			c0,21.24,4.98,27.55,22.9,28.21l7.3,0.33v5.98h-95.58V494.53z"/>
		<path class="st0" d="M2567.9,389.66c0,32.19-10.95,61.07-31.53,82.31c-19.91,20.91-44.14,30.87-75.01,30.87
			c-60.07,0-105.21-48.46-105.21-113.17c0-64.38,45.14-112.84,105.21-112.84C2522.43,276.82,2567.9,324.94,2567.9,389.66z
			 M2394.99,389.99c0,59.08,26.89,99.9,66.05,99.9c41.16,0,68.04-39.83,68.04-100.23c0-59.41-27.55-99.9-68.04-99.9
			C2421.54,289.76,2394.99,330.25,2394.99,389.99z"/>
		<path class="st0" d="M2673.42,328.26v137.73c0,21.24,5.31,27.55,22.9,28.21l7.3,0.33v5.98h-76.67v-5.98l7.3-0.33
			c17.59-0.66,22.9-6.97,22.9-28.21V308.68c-19.92-20.58-23.9-22.9-42.48-23.56v-5.97h65.38l131.09,153V313.66
			c0-21.24-5.31-27.55-22.9-28.21l-7.3-0.33v-5.97h76.67v5.97l-7.3,0.33c-17.59,0.66-22.9,6.97-22.9,28.21v186.85h-5.31
			L2673.42,328.26z"/>
		<path class="st0" d="M2971.77,461.68c0,21.24,1.99,24.23,18.25,23.9h39.83c35.18-0.67,48.45-9.96,62.06-43.15l5.31,2.32
			l-18.92,55.76h-171.58v-5.98l7.3-0.33c17.92-0.66,22.9-6.97,22.9-28.21V313.66c0-21.24-4.98-27.55-22.9-28.21l-7.3-0.33v-5.97
			h168.26l3.32,50.12l-5.64,0.66c-3.65-30.2-14.6-38.5-49.45-37.83h-51.44v83.64h56.09c18.92,0.33,25.89-8.63,25.56-33.19h5.97
			v80.65h-5.97c0.66-23.56-5.98-32.19-25.56-32.53h-56.09V461.68z"/>
	</g>
</g>
<g>
	<path class="st1" d="M763.2,680.37c-3.62,6.32-7.47,12.64-11.53,18.96c-31.53,49.02-76.11,97.93-132.51,145.37
		c-51.41,43.25-102.99,76.93-137.19,97.56c-12.12,7.31-22.84,13.47-31.78,18.46c-8.96-4.99-19.68-11.16-31.79-18.46
		c-34.21-20.64-85.78-54.32-137.19-97.56c-28.75-24.18-54.42-48.74-76.87-73.51"/>
	
		<radialGradient id="SVGID_1_" cx="450.5883" cy="458.2897" r="322.0132" gradientTransform="matrix(1 0 0 1.2453 0 -112.4112)" gradientUnits="userSpaceOnUse">
		<stop  offset="0" style="stop-color:#F4EB29"/>
		<stop  offset="0.5384" style="stop-color:#F4E828"/>
		<stop  offset="0.7323" style="stop-color:#F4E325"/>
		<stop  offset="0.87" style="stop-color:#F6DC1E"/>
		<stop  offset="0.9811" style="stop-color:#F7D116"/>
		<stop  offset="1" style="stop-color:#F8CF15"/>
	</radialGradient>
	<path class="st2" d="M216.18,805.54c-20.58-22.71-38.31-45.6-53.05-68.52c-35.19-54.71-53.03-109.51-53.03-162.88V151.46
		c44.46-11.11,90.74-20.04,137.93-26.61c65.85-9.16,134-13.81,202.56-13.81c68.56,0,136.71,4.65,202.56,13.81
		c47.2,6.57,93.47,15.5,137.93,26.61v422.69c0,47.49-14.13,96.12-42.03,144.8"/>
	<path class="st1" d="M809.97,128.99c-54.38-16.01-112.07-28.35-171.47-36.67c-61.12-8.56-124.33-12.9-187.88-12.9
		s-126.76,4.34-187.88,12.9c-59.39,8.32-117.08,20.66-171.47,36.67l-5.11,1.5v424.97c0,59.94,19.17,120.34,56.97,179.49
		c30.02,46.99,71.83,93.32,124.24,137.7c46.5,39.37,92.96,69.92,123.74,88.62c33.4,20.29,55.49,31.1,56.41,31.55l3.1,1.51l3.1-1.51
		c0.93-0.45,23.01-11.26,56.41-31.55c30.79-18.69,77.24-49.24,123.74-88.62c52.42-44.38,94.22-90.71,124.24-137.7
		c37.8-59.16,56.97-119.55,56.97-179.49V130.5L809.97,128.99z M783.43,555.47c0,53.73-17.48,108.32-51.94,162.25
		c-28.3,44.3-68,88.22-117.99,130.55c-44.93,38.04-89.9,67.62-119.72,85.72c-18.8,11.41-33.8,19.68-43.16,24.64
		c-9.36-4.97-24.39-13.24-43.16-24.64c-29.82-18.11-74.79-47.68-119.72-85.72c-49.99-42.32-89.69-86.25-117.99-130.55
		c-34.46-53.93-51.93-108.52-51.93-162.25V154.55c47.68-13.15,97.81-23.45,149.28-30.66c59.68-8.36,121.42-12.6,183.52-12.6
		s123.83,4.24,183.51,12.6c51.47,7.21,101.61,17.51,149.29,30.66V555.47z"/>
	<path class="st3" d="M450.2,1040.52l-7.62-3.69c-1.02-0.49-25.35-12.34-61.7-34.27c-33.54-20.24-84.17-53.31-134.86-95.95
		c-57.35-48.24-103.14-98.67-136.09-149.9c-41.85-65.06-63.07-131.62-63.07-197.83V95.69l12.56-3.67
		c59.18-17.31,121.94-30.64,186.55-39.63c66.44-9.24,135.15-13.93,204.22-13.93s137.78,4.69,204.22,13.93
		c64.61,8.99,127.37,22.32,186.55,39.63v0l12.56,3.67v463.19c0,66.21-21.22,132.77-63.07,197.83
		c-32.95,51.23-78.74,101.67-136.09,149.9c-50.7,42.65-101.32,75.72-134.86,95.95c-36.54,22.05-60.7,33.78-61.7,34.27L450.2,1040.52
		z M66.43,110.35v448.53c0,62.4,20.17,125.4,59.96,187.25c31.89,49.58,76.38,98.54,132.23,145.51
		c49.72,41.82,99.43,74.29,132.38,94.17c32.13,19.39,54.44,30.61,59.2,32.96c4.75-2.34,26.93-13.49,59.2-32.96
		c32.94-19.87,82.64-52.33,132.37-94.17c55.85-46.97,100.34-95.93,132.23-145.51c39.78-61.85,59.96-124.85,59.96-187.25V110.35
		c-57.82-16.83-119.13-29.81-182.24-38.59c-65.55-9.12-133.35-13.74-201.52-13.74c-68.17,0-135.97,4.62-201.53,13.74
		C185.56,80.54,124.26,93.52,66.43,110.35z"/>
	<path class="st0" d="M838.69,101.53C779.97,84.36,717.67,71.12,653.54,62.2c-65.99-9.18-134.25-13.84-202.87-13.84
		S313.79,53.02,247.79,62.2c-64.13,8.92-126.43,22.16-185.15,39.33l-5.52,1.61v455.86c0,64.3,20.7,129.08,61.51,192.54
		c32.42,50.41,77.56,100.1,134.16,147.71c50.21,42.24,100.38,75.01,133.62,95.06c36.06,21.76,59.91,33.36,60.91,33.84l3.35,1.62
		l3.35-1.62c1-0.48,24.85-12.08,60.91-33.84c33.24-20.05,83.41-52.82,133.62-95.06c56.6-47.6,101.74-97.3,134.16-147.71
		c40.82-63.46,61.51-128.24,61.51-192.54V103.15L838.69,101.53z M810.03,559.01c0,57.64-18.87,116.2-56.08,174.05
		c-30.56,47.52-73.43,94.64-127.41,140.04c-48.51,40.81-97.08,72.53-129.27,91.95c-20.3,12.24-36.49,21.11-46.6,26.43
		c-10.11-5.33-26.33-14.21-46.6-26.43c-32.2-19.42-80.76-51.15-129.27-91.95c-53.98-45.4-96.84-92.52-127.41-140.04
		c-37.21-57.85-56.08-116.41-56.08-174.05V128.94c51.49-14.11,105.62-25.15,161.2-32.89c64.44-8.97,131.11-13.51,198.16-13.51
		s133.72,4.55,198.16,13.51c55.58,7.74,109.72,18.78,161.2,32.89V559.01z"/>
	<g>
		<polygon class="st1" points="747.08,710.12 767.15,672.66 185.8,769.43 210.42,799.43 		"/>
	</g>
	<g>
		<polyline class="st0" points="771.25,705.74 753.9,738.4 753.94,738.4 217.41,828.48 217.37,828.44 194.99,801.33 194.94,801.37 
			771.3,705.77 		"/>
	</g>
	<g>
		<path class="st1" d="M274.8,260.38h380.23c-24.67-70.85-90.13-127.65-201.01-131.24c-99.46,7.85-145.27,63.58-179.29,131.29"/>
	</g>
	<g>
		<path class="st1" d="M467.24,115.7c0-1.66-1.17-3.01-2.61-3.01h-8.72l1.7-39.23l-7.08-9.63l-6.83,9.63l1.75,39.23h-8.7
			c-1.45,0-2.63,1.35-2.63,3.01c0,1.68,1.18,3.04,2.63,3.04v14.53h27.88v-14.53C466.08,118.73,467.24,117.37,467.24,115.7z"/>
	</g>
	<polyline class="st0" points="443.41,111.29 441.58,70.72 443.57,70.63 445.41,111.29 	"/>
	<polyline class="st0" points="455.96,111.31 457.75,70.65 459.74,70.74 457.96,111.31 	"/>
	<g>
		<polygon class="st1" points="228.28,778.03 186.7,759.13 186.7,511.21 192.17,503.66 192.17,442.75 201.02,432.88 201.02,404.81 
			198.15,394.1 168.15,384.33 197.89,359.49 184.36,352.98 244.74,245.24 307.72,259.3 322.81,259.3 358.46,230.15 379.28,234.1 
			379.28,751.4 		"/>
	</g>
	<g>
		<polyline class="st0" points="749.58,434.35 749.58,493.99 749.58,494 753.9,494 753.9,531.16 768.73,535.58 768.73,554.32 
			753.9,562.5 753.9,709.42 375.25,775.26 375.25,505.11 364.32,496.02 364.32,477.16 364.29,477.16 370.04,478.59 370.04,433.83 
			364.32,419.25 379.28,422.06 379.3,422.06 379.3,301.77 370.04,299.8 370.04,266.6 366.92,251.66 358.07,230.06 434.58,242.81 
			568.61,198.57 693.52,281.07 687.54,286.27 757.54,300.06 725.79,326.61 725.79,357.06 739.33,370.33 739.33,419.51 
			749.48,434.35 		"/>
		<g>
			<polygon class="st0" points="749.58,494 749.58,488.89 753.9,494 			"/>
		</g>
	</g>
	<g>
		<polyline class="st0" points="300.94,471.24 291.5,463.88 300.94,456.53 300.94,356.47 300.94,356.41 282.84,345.87 
			303.94,325.31 312.82,327.54 312.82,295.28 312.82,295.28 212.34,370.43 212.34,386.21 212.34,386.21 198.15,394.1 167.71,384.41 
			167.71,384.38 197.33,359.46 183.88,352.94 244.3,244.91 308.18,259.28 322.81,259.28 322.81,259.3 358.1,229.91 367.37,251.58 
			370.23,266 332.53,298.02 332.53,332.73 332.53,332.73 328.35,331.71 327.25,341.18 327.25,447.1 327.25,447.16 364.32,419.25 
			370.23,433.83 327.25,463.95 327.25,503.13 327.23,503.13 364.32,477.16 375.25,479.86 375.25,505.11 324.91,535.06 
			327.23,583.62 319.76,585.87 316.51,584.9 309.99,591.27 305.18,584.9 308.04,574.36 293.52,554.58 235.1,594.33 237.32,643.32 
			230.02,645.34 226.51,645.34 220.39,651.19 215.57,644.62 220.91,634.73 205.41,614.83 186.7,626.72 172.26,625.49 172.26,608.9 
			202.35,588.15 202.35,581.45 196.23,578.65 213.87,565.25 213.87,538.31 186.72,557.57 178.97,549.05 209.64,525.43 
			206.38,522.18 213.81,515.35 213.81,419.28 213.87,419.28 194.4,407.93 219.08,389.59 233.15,390.56 237.32,408 237.32,509.17 
			237.25,509.17 242.53,510.34 239.66,524.07 239.66,560.96 292.02,526.15 292.02,518.15 285.33,515.36 301.01,504.35 
			301.01,471.24 		"/>
	</g>
	<g>
		<polyline class="st1" points="202.71,357.06 309.8,276.51 253.85,263.89 253.85,263.76 202.58,357.06 		"/>
	</g>
	<g>
		<path class="st1" d="M523.75,668.79v110.23v-0.76l93.69-14.39v-0.19v-77.84l0.21,0.38c-8.64-25.46-23.71-40.93-50.03-46.02
			l1.03,0.19c-26.24-2.65-39.77,11.36-44.9,26.33"/>
	</g>
	<g>
		<polyline class="st4" points="479.94,443.46 477.3,446.07 477.3,446.04 477.3,449.28 477.2,449.22 626.21,473.18 626.34,473.31 
			626.34,467.85 626.34,467.98 479.41,443.88 		"/>
	</g>
	<g>
		<polyline class="st5" points="655.38,547.11 651.52,539.25 651.54,539.27 652.05,539.32 652.05,539.31 655.38,547.06 		"/>
	</g>
	<line class="st1" x1="677.36" y1="294.58" x2="677.39" y2="294.6"/>
	<g>
		<polygon class="st3" points="375.87,509.51 753.9,562.44 769.26,554.12 769.25,533.3 364.32,477.29 364.32,496.02 		"/>
	</g>
	<g>
		<polyline class="st3" points="434.58,242.75 568.69,198.57 693.65,281.1 677.49,294.77 667.14,307.35 667.14,316.3 667.14,316.3 
			445.82,278.44 445.81,278.43 442.23,263.15 434.53,242.73 		"/>
	</g>
	<g>
		<polygon class="st3" points="753.85,494.54 762.93,482.86 364.27,419.25 370.02,434.01 		"/>
	</g>
	<g>
		<polygon class="st3" points="757.54,300.06 687.54,286.27 677.46,294.63 667.01,307.32 667.01,316.28 725.79,326.61 		"/>
	</g>
	<g>
		<polyline class="st3" points="434.58,242.78 358.07,230.06 367.37,251.58 369.97,266.26 458.53,280.6 458.54,271.57 
			454.75,255.35 448.27,238.23 434.53,242.73 		"/>
	</g>
	<g>
		<polygon class="st0" points="564.09,219.87 454.83,255.88 674.79,292.98 		"/>
	</g>
	<g>
		<polygon class="st0" points="475.06,443.28 649.17,471.76 649.17,434.95 475.06,406.88 		"/>
	</g>
	<line class="st6" x1="620.58" y1="372.84" x2="649.15" y2="377.57"/>
	<g>
		<polyline class="st3" points="474.79,348.69 649.15,377.57 649.15,382.72 474.79,354.33 474.79,348.69 		"/>
	</g>
	<path class="st1" d="M504.45,420.82l0.35-38.1c-2.62,0.77-5.29,0.94-8,0.67l0.05-5.26c4.07,0.41,8.23-2.2,9.54-8.97l4.13,0.41
		l-0.47,51.9c-0.02,2.41,0.76,2.92,2.06,3.31l4.6,0.46l-0.05,5.78l-19.16-1.91l0.05-5.78l5.07,0.5
		C503.64,423.93,504.44,422.54,504.45,420.82z"/>
	<path class="st1" d="M528.76,403.95c-4.1-3.69-5.88-8.9-5.52-14.73c0.69-11.24,8.99-15.54,17.44-14.27
		c7.48,1.13,15.6,6.61,14.95,17.17c-0.4,6.59-3.99,10.4-8.62,12.95c5.58,3.48,8.47,8.78,8.01,16.3
		c-0.75,12.25-9.78,15.85-18.58,14.52c-8.38-1.26-16.89-7.23-16.17-18.89C520.68,410.5,524.01,406.22,528.76,403.95z M536.81,430.07
		c5.4,0.81,10.35-1.26,10.8-8.53c0.23-3.72-1.4-6.78-4.3-8.49l-10.45-6.18c-3.46,1.78-5.86,5.52-6.15,10.25
		C526.22,424.89,531.06,429.2,536.81,430.07z M535.03,397.64c6.13,3.74,7.34,4.43,7.48,4.45c3.73-1.57,6.41-5.43,6.71-10.34
		c0.44-7.1-3.77-10.37-8.89-11.14c-4.92-0.74-9.3,1.24-9.71,7.92C530.37,392.59,532.07,395.75,535.03,397.64z"/>
	<path class="st1" d="M576.79,432.3l0.41-8.1l-18.92-2.78l0.31-6.2l21.51-34.08l5.68,0.83l-1.86,36.97l8.36,1.23l-0.31,6.21
		l-8.36-1.23l-0.41,8.19c-0.12,2.41,0.77,2.98,2.29,3.46l4.34,0.64l-0.29,5.77l-19.96-2.93l0.29-5.77l4.64,0.68
		C575.72,435.35,576.71,434.02,576.79,432.3z M563.84,415.98l13.67,2.01l1.3-25.94L563.84,415.98z"/>
	<g>
		<g>
			<g>
				<polygon class="st1" points="445.81,278.43 445.82,307.53 439.74,311.31 451.41,332.6 451.41,429.45 448.95,430.29 
					455.48,443.98 455.48,489.91 460.35,496.91 460.35,510.31 463.26,510.77 461.36,516.51 461.35,567.43 469.98,561.89 
					466.7,553.85 476.12,515.02 469.98,505.36 469.98,491.93 466.7,484.37 466.7,440.8 459.42,428.34 466.7,429.27 466.7,324.49 
					455.48,303.68 458.54,304.28 458.54,271.57 454.75,255.35 448.27,238.23 434.58,242.81 442.23,263.15 				"/>
			</g>
			<g>
				<polygon class="st1" points="460.35,510.31 461.36,516.51 463.26,510.77 				"/>
			</g>
		</g>
		
			<rect x="434.21" y="240.26" transform="matrix(0.9487 -0.3162 0.3162 0.9487 -53.4022 151.9338)" class="st1" width="14.43" height="0.49"/>
	</g>
	<g>
		<polygon class="st1" points="486.57,564.32 477.92,570.15 477.94,505.46 488.23,506.99 492.85,517.4 483.16,556.54 		"/>
	</g>
	<g>
		<polyline class="st3" points="499.78,509.7 499.78,496.34 506.12,489.97 490.42,487.72 490.42,443.87 502.18,432.5 490.43,430.99 
			490.43,330.71 503.94,312.96 455.48,303.68 466.7,324.49 466.7,429.27 459.42,428.34 466.7,440.8 466.7,484.37 469.98,491.93 
			469.98,505.36 476.12,515.02 466.7,553.85 469.98,561.89 461.35,567.43 469.89,567.43 476.57,561.66 473.44,553.93 483.57,516.16 
			479.31,506.7 488.66,508.04 492.85,517.4 492.83,517.4 483.16,556.54 486.57,564.32 477.92,570.15 486.46,570.15 493.19,564.5 
			490.04,556.56 500.14,518.67 495.86,509.18 499.81,509.7 		"/>
	</g>
	<g>
		<polyline class="st1" points="646.39,512.3 651.13,508.98 654.85,517.46 654.85,529.8 660.05,539.07 650.3,577.87 653.88,586.23 
			645.09,591.57 645.09,541.21 647.52,536.38 646.98,521.33 645.04,516.14 636.66,514.94 636.66,471.19 631.32,459.6 637.24,456.15 
			637.24,358.31 628.9,341.53 636.77,334.77 646.37,355.22 646.37,456.61 641.82,455.74 646.37,467.52 646.37,512.3 		"/>
	</g>
	<g>
		<polygon class="st1" points="666.78,580.6 670.32,588.9 662.41,594.29 662.41,530.12 670.34,531.54 676.65,541.76 		"/>
	</g>
	<g>
		<polyline class="st3" points="645.07,591.56 653.86,586.23 650.28,577.86 660.03,539.06 654.83,529.8 654.83,517.45 
			651.11,508.97 646.35,512.29 646.37,512.29 646.37,467.51 646.35,467.51 641.8,455.74 646.35,456.61 646.35,355.21 636.75,334.76 
			685.99,340.97 667.27,357.87 667.27,459.22 667.21,459.22 678.7,461.41 667.21,471.92 667.21,513.23 689.9,516.72 683.83,520.73 
			683.83,535 679.78,534.29 683.58,542.73 673.76,580.62 676.84,588.69 670.48,594.29 662.39,594.29 670.3,588.89 666.76,580.59 
			676.63,541.75 671.38,532.77 663.16,531.3 667.01,540.06 657.12,578.06 660.22,585.81 653.52,591.56 644.98,591.56 		"/>
	</g>
	<g>
		<path class="st1" d="M606.46,395.18l-1.46,14.32c3.25-3.38,7-4.39,11.52-3.85c11.42,1.38,15.48,11.73,14.83,22.21
			c-0.85,13.8-9.2,21.28-20.61,19.91c-6.89-0.83-15.04-5.93-14.45-15.56c0.25-4.09,2.43-7.77,6.17-7.32
			c2.87,0.35,4.79,3.24,4.58,6.64c-0.21,3.41-2.2,5.22-4.94,4.98c1.44,3.69,5.21,4.58,8.3,4.95c7.9,0.95,11.59-5.04,12.14-13.89
			c0.51-8.26-1.83-14.89-9.37-15.8c-4.09-0.49-6.27,0.79-8.77,4.95l-5.31-0.64l2.75-30.47"/>
		<polyline class="st1" points="601.84,385.61 631.19,390.78 630.38,399.36 606.46,395.18 		"/>
	</g>
	<g>
		<polygon class="st1" points="188.65,630.53 168.92,628.57 168.84,605.27 187.86,592.02 190.72,596.12 173.85,607.87 173.9,624.04 
			189.14,625.55 		"/>
	</g>
	<g>
		<polygon class="st1" points="186.73,561.89 174.2,546.97 187.79,535.9 190.95,539.78 181.29,547.64 190.56,558.67 		"/>
	</g>
	<g>
		<polygon class="st1" points="201.31,417.76 185.9,408.63 200.2,397.38 203.29,401.31 194.73,408.05 203.86,413.46 		"/>
	</g>
	<g>
		<polygon class="st1" points="203.27,398.4 162.64,385.41 192.73,360.04 180.4,354.05 243.51,239.58 309.25,254.42 308.15,259.3 
			246.07,245.28 187.32,351.85 201.83,358.9 172.77,383.4 204.79,393.63 		"/>
	</g>
	<polyline class="st1" points="748.9,561.73 748.9,709.71 753.9,708.65 753.9,562.45 	"/>
	<polyline class="st1" points="753.9,531.18 753.9,494.56 748.9,493.75 748.9,530.49 	"/>
	<polyline class="st1" points="749.57,480.72 749.57,433.72 739.31,418.89 739.31,369.43 725.78,356.16 725.78,326.61 
		720.78,325.71 720.78,358.26 734.31,371.53 734.31,420.45 744.57,435.28 744.57,479.92 	"/>
	<g>
		<polygon class="st1" points="722.88,329.07 719.88,325.07 753.41,299.94 681.81,287.89 691.41,279.7 642.58,247.38 645.34,243.21 
			699.71,279.19 693.21,284.73 765.74,296.94 		"/>
	</g>
	<g>
		<polyline class="st1" points="748.89,496.18 751.27,498.02 766.46,478.37 745.35,475 744.56,479.94 757.35,481.98 748.9,492.91 		
			"/>
	</g>
	<g>
		<polyline class="st1" points="748.88,532.99 766.74,535.46 766.69,551.66 748.97,561.71 751.43,566.06 771.68,554.57 
			771.76,531.11 749.24,528 748.9,530.49 		"/>
	</g>
</g>
<g>
	<path class="st0" d="M3499.02,436.35c-0.4,1-1,1.2-1.8,1l-3.6-1c-0.6-0.2-1-0.6-0.6-1.6c0.2-1,0.6-2,0.6-3.4c0-2.2-1.4-3.8-3.2-3.8
		s-5.2,1.2-8.8,2.8c-4.4,2.2-18,5.6-27.6,5.6c-26.6,0-48-18.4-48-47.6c0-22.8,10.6-49.4,29-69.4c13-14.2,31-23,48.2-23
		c9.6,0,16.8,2,26.4,8.6c2.6,1.8,6.2,5.6,10,5.6c2.4,0,4-1.6,5.2-6.2c0.4-1.2,1-1.6,1.8-1.2l2.6,0.6c1.2,0.2,1.6,0.8,1.2,2
		l-10.6,41.4c-0.4,1.2-0.8,1.6-2.2,1.2l-2.8-0.4c-1-0.2-1.4-0.6-1.2-2c4.2-19.6-6-42.4-29-42.4c-16.2,0-27,8-38.4,24.4
		c-15,22-19.8,46.8-19.8,62.8c0,28.6,19,37.4,30.6,37.4c16.8,0,37.6-5.8,49.8-35.4c0.8-1.8,1-2,2-1.6l3.4,1c1.2,0.4,1.2,0.8,1,1.8
		L3499.02,436.35z"/>
	<path class="st0" d="M3609.82,349.75c0.8,0,1,1,0.6,1.8c-3.8,8.2-14,35.8-15,39c-1.2,3.4-9.6,28.2-9.6,30c0,1.8,1,2.4,2.2,2.4
		c2.4,0,12.6-10.4,14-12.2c0.6-0.6,1.2-1,1.6-0.4l1.8,2c0.6,0.6,0.8,1,0.4,1.6c-2.2,4-19.6,21-31,21c-2.4,0-4.2-0.8-4.2-3.4
		c0-3,2-9.2,9.6-30.4l-1-0.4c-8.4,12.8-28.6,34.2-42.8,34.2c-4.6,0-10.8-3.8-10.8-12.8c0-29.2,32.8-72.4,57.2-72.4
		c8.4,0,12.2,3.6,14.2,6.8l3.8-5.4c0.6-0.8,1.2-1.4,2-1.4H3609.82z M3584.62,384.55c2.8-5.8,4.8-10.8,4.8-16.6
		c0-5.4-2-11.8-9.4-11.8c-18.4,0-39.8,42.2-39.8,61.2c0,4.6,2,7,5.4,7C3555.62,424.35,3581.02,391.95,3584.62,384.55z"/>
	<path class="st0" d="M3623.22,432.95c-1.4,0-2.2-0.8-1.8-1.8l11.2-32.4c3.6-11.2,9.8-32.2,9.8-35c0-1.8-1.6-3-3.4-3
		c-4,0-13,9-15.8,12.4c-0.4,0.6-1.2,0.4-1.6,0l-2-2c-0.4-0.4-0.4-1,0-1.6c4.2-6.2,16.2-19.8,29.8-19.8c4,0,5.6,3.4,5.6,7
		c0.2,3.8-3.2,15-7.2,28.4l1,0.4c5.4-11.2,21.4-35.8,32.6-35.8c5.8,0,9.4,3.6,9.4,9c0,5.2-4,9.2-7.8,9.2c-1.8,0-3.4-0.4-5-2
		c-1.6-1.6-2.6-2.4-5.2-2.4c-5.4,0-16.6,17.2-24.6,30.4c-2.4,3.8-4.8,8.4-7.8,17.4l-6.6,20.2c-0.4,1.4-1,1.4-2.6,1.4H3623.22z"/>
	<path class="st0" d="M3690.81,415.35c0-16.8,11-37.8,25.6-52.2c6.4-6.4,17.2-13.4,26.8-13.4c7.8,0,11.4,5.8,11.4,10.6
		c0,9.8-7.4,20.2-18.6,26c-10.8,5.4-21.6,7.6-29,8.2c-1,2.4-2.6,9-2.6,18.4c0,9,6.6,12.6,10.4,12.6c9.8,0,18.6-7.4,22.8-14.2
		c0.4-0.6,1-1,1.8-0.2l2.2,1.8c1,0.6,1,1.2,0.2,1.8c-5,7-17,20.2-32.4,20.2C3696.41,434.95,3690.81,428.55,3690.81,415.35z
		 M3708.61,388.75c7,0.6,33.2-7.8,33.2-22.6c0-4-2-7.6-6.4-7.6C3722.61,358.55,3710.21,381.55,3708.61,388.75z"/>
	<path class="st0" d="M3760.61,415.35c0-16.8,11-37.8,25.6-52.2c6.4-6.4,17.2-13.4,26.8-13.4c7.8,0,11.4,5.8,11.4,10.6
		c0,9.8-7.4,20.2-18.6,26c-10.8,5.4-21.6,7.6-29,8.2c-1,2.4-2.6,9-2.6,18.4c0,9,6.6,12.6,10.4,12.6c9.8,0,18.6-7.4,22.8-14.2
		c0.4-0.6,1-1,1.8-0.2l2.2,1.8c1,0.6,1,1.2,0.2,1.8c-5,7-17,20.2-32.4,20.2C3766.21,434.95,3760.61,428.55,3760.61,415.35z
		 M3778.41,388.75c7,0.6,33.2-7.8,33.2-22.6c0-4-2-7.6-6.4-7.6C3792.41,358.55,3780.01,381.55,3778.41,388.75z"/>
	<path class="st0" d="M3836.01,432.95c-1.4,0-2.2-0.8-1.8-1.8l11.2-32.4c3.6-11.2,9.8-32.2,9.8-35c0-1.8-1.6-3-3.4-3
		c-4,0-13,9-15.8,12.4c-0.4,0.6-1.2,0.4-1.6,0l-2-2c-0.4-0.4-0.4-1,0-1.6c4.2-6.2,16.2-19.8,29.8-19.8c4,0,5.6,3.4,5.6,7
		c0.2,3.8-3.2,15-7.2,28.4l1,0.4c5.4-11.2,21.4-35.8,32.6-35.8c5.8,0,9.4,3.6,9.4,9c0,5.2-4,9.2-7.8,9.2c-1.8,0-3.4-0.4-5-2
		c-1.6-1.6-2.6-2.4-5.2-2.4c-5.4,0-16.6,17.2-24.6,30.4c-2.4,3.8-4.8,8.4-7.8,17.4l-6.6,20.2c-0.4,1.4-1,1.4-2.6,1.4H3836.01z"/>
	<path class="st0" d="M3959.81,385.75c0-24,15-37.4,23.2-41c-5.2-7-7.4-14.8-7.4-23.8c0-14.8,11.4-28.8,30-28.8
		c11,0,19.4,6,19.4,15.8c0,8.6-7,13.2-9.4,13.2c-0.8,0-1-1.4-0.6-3.6c1.6-8.4-5.2-13.6-12-13.6c-10.8,0-19.2,9.4-19.2,23
		c0,5.6,1.8,11.4,5,15.8c1.8-0.6,4-1,7-1c3.6,0,10.2,1.8,10.2,4.8c0,4.8-2.6,9.4-5.8,9.4c-3.2,0-9.6-2.6-11.2-4
		c-2.6-2.2-3.4-2.6-6-1c-6.8,4.4-11.6,14.8-11.6,27c0,24.6,21.6,44.4,58.6,44.4c36.6,0,56-23.8,56-42.8c0-15.8-12.2-31.2-29.8-31.2
		c-15.8,0-18.8,14.4-18.8,18.4c0,9.2,4.6,14.4,6.4,14.4c1,0,1.8-1.2,1.8-3c0-2.4,2.4-8,8.6-8c5.8,0,9.4,4.2,9.4,10.2
		c0,3.4-3.2,9.8-12.2,9.8c-7.8,0-21.2-7.8-21.2-24.6c0-13.4,9.6-28.4,30.6-28.4c7.6,0,17.8,1.4,21.4,1.4c21.6,0,32-6.4,32-17.6
		c0-7.2-6-14-11.4-14c-2.6,0-2.6,2.6-2.2,4.4c0.4,2.6-1.6,8.4-8.2,8.4s-8.6-4.6-8.6-7.2c0-8.4,7.8-12.4,15.2-12.4
		c13.6,0,23,10.4,23,21c0,18.6-12.4,27.8-32.6,30.4c-4.6,0.6-5,2-2.8,5.4c2.6,4,7.2,12,7.2,26c0,34-30,54.4-64.4,54.4
		C3973.61,437.35,3959.81,406.15,3959.81,385.75z"/>
	<path class="st0" d="M3436.02,559.75c1.8-6.4,2.6-13.4-6.4-13.4h-9.4c-1,0-1.2-1-1-2l1-3.8c0.4-1.4,0.8-1.6,2.8-1.6
		s37.6-0.6,41.8-0.6c19,0,30,1.4,39.6,9.4c8.8,7.4,12,13.6,12,27.2c0,20.2-17.2,42.4-57.6,42.4c-8.8,0-17.2-1.4-20.2-2.4l-9.8,36.6
		c-2,7.6-1.6,14.6,6.4,14.6h7.6c1.4,0,1.8,0.8,1.6,2l-0.6,3.8c-0.2,1.2-0.6,1.6-2.4,1.6c-2.4,0-10.6-0.6-26.6-0.6
		c-13.6,0-20.8,0.6-23.6,0.6c-1.2,0-1.8-0.6-1.6-2l0.4-3.4c0.2-1.2,0.8-2,2.2-2h4.2c10.8,0,13.6-7.4,15.8-16L3436.02,559.75z
		 M3440.02,607.75c3.2,2.2,8.8,3.2,17,3.2c30,0,41.8-20.8,41.8-37.6c0-23.8-20.4-28.6-34-28.6c-2.2,0-6.4,0-7.8,0.4L3440.02,607.75z
		"/>
	<path class="st0" d="M3523.02,672.95c-1.4,0-2.2-0.8-1.8-1.8l11.2-32.4c3.6-11.2,9.8-32.2,9.8-35c0-1.8-1.6-3-3.4-3
		c-4,0-13,9-15.8,12.4c-0.4,0.6-1.2,0.4-1.6,0l-2-2c-0.4-0.4-0.4-1,0-1.6c4.2-6.2,16.2-19.8,29.8-19.8c4,0,5.6,3.4,5.6,7
		c0.2,3.8-3.2,15-7.2,28.4l1,0.4c5.4-11.2,21.4-35.8,32.6-35.8c5.8,0,9.4,3.6,9.4,9c0,5.2-4,9.2-7.8,9.2c-1.8,0-3.4-0.4-5-2
		c-1.6-1.6-2.6-2.4-5.2-2.4c-5.4,0-16.6,17.2-24.6,30.4c-2.4,3.8-4.8,8.4-7.8,17.4l-6.6,20.2c-0.4,1.4-1,1.4-2.6,1.4H3523.02z"/>
	<path class="st0" d="M3592.22,649.15c0-25.2,19-59.4,45.6-59.4c13.4,0,21.4,9.8,21.4,23.4c0,22-17.4,61.8-46.4,61.8
		C3601.82,674.95,3592.22,664.35,3592.22,649.15z M3651.22,610.15c0.2-6.2-3.4-11.2-10-11.2c-8.4,0-19,7.6-29,23.8
		c-6.8,10.8-11.6,23-11.6,32.4c0,6.4,4.4,10.2,9.2,10.2C3630.62,665.35,3651.22,623.35,3651.22,610.15z"/>
	<path class="st0" d="M3674.81,602.55c-1,0-1.4-0.6-1-2l0.8-3.4c0.4-1.4,0.8-2,2.4-2h17.4c6-17.2,12.8-33.8,23.4-45.6
		c5.6-6.4,16.6-13.6,29.6-13.6c11.6,0,18,7,18,11.8c0,6.2-4,9.2-8,9.2c-6.4,0-8.2-3.6-8.8-8c-0.2-2-2.2-5.8-8.2-5.8
		c-18.6,0-25.8,29.6-32.4,52h19.4c1.2,0,1.6,0.6,1.2,2.4l-1,3.6c-0.2,1.2-0.6,1.4-2.2,1.4h-19c-5.2,16.2-14.4,50.8-24.4,76.4
		c-12.2,31.2-26.4,53.4-47.8,53.4c-8,0-14.4-5.4-14.4-11.8c0-4.6,3.4-8.6,8.6-8.6c5.8,0,8.8,5.6,9.4,9c0.4,2,1.8,3.4,3.4,3.4
		c9.6,0,20.4-16.8,31.2-53.8l20.2-68H3674.81z"/>
	<path class="st0" d="M3727.81,655.35c0-16.8,11-37.8,25.6-52.2c6.4-6.4,17.2-13.4,26.8-13.4c7.8,0,11.4,5.8,11.4,10.6
		c0,9.8-7.4,20.2-18.6,26c-10.8,5.4-21.6,7.6-29,8.2c-1,2.4-2.6,9-2.6,18.4c0,9,6.6,12.6,10.4,12.6c9.8,0,18.6-7.4,22.8-14.2
		c0.4-0.6,1-1,1.8-0.2l2.2,1.8c1,0.6,1,1.2,0.2,1.8c-5,7-17,20.2-32.4,20.2C3733.41,674.95,3727.81,668.55,3727.81,655.35z
		 M3745.61,628.75c7,0.6,33.2-7.8,33.2-22.6c0-4-2-7.6-6.4-7.6C3759.61,598.55,3747.21,621.55,3745.61,628.75z"/>
	<path class="st0" d="M3791.21,663.75c0-2.8,2.6-6.6,6.8-6.6c4.4,0,7,3,8.2,6.4c1.2,3.4,2.2,5.6,7.2,5.6c5.8,0,11.2-5.2,11.2-12.2
		c0-8.6-6-16.8-8.6-23.2c-1.4-3.4-6-10.4-5.8-19.6c0-11.6,11-24.4,25.2-24.4c6,0,14.2,2.4,14.2,10.2c0,3.6-3.2,6.4-6.2,6.4
		c-2.4,0-5.4-1.4-6.8-4.8c-1-2.4-1.2-5.6-5.2-5.6s-9.8,5.4-9.8,12.6c0,7.4,6,15.8,7.2,18.6c1.2,2.4,7.6,12.2,7.6,22.8
		c0,15.6-12.6,25-26.4,25C3798.41,674.95,3791.21,670.35,3791.21,663.75z"/>
	<path class="st0" d="M3850.01,663.75c0-2.8,2.6-6.6,6.8-6.6c4.4,0,7,3,8.2,6.4c1.2,3.4,2.2,5.6,7.2,5.6c5.8,0,11.2-5.2,11.2-12.2
		c0-8.6-6-16.8-8.6-23.2c-1.4-3.4-6-10.4-5.8-19.6c0-11.6,11-24.4,25.2-24.4c6,0,14.2,2.4,14.2,10.2c0,3.6-3.2,6.4-6.2,6.4
		c-2.4,0-5.4-1.4-6.8-4.8c-1-2.4-1.2-5.6-5.2-5.6s-9.8,5.4-9.8,12.6c0,7.4,6,15.8,7.2,18.6c1.2,2.4,7.6,12.2,7.6,22.8
		c0,15.6-12.6,25-26.4,25C3857.21,674.95,3850.01,670.35,3850.01,663.75z"/>
	<path class="st0" d="M3921.41,669.95c0-4.6,3.4-13.8,11.8-36.2l5.8-15.6c2-5.4,3.6-9.4,3.6-11.8c0-1.8-1.2-2.6-2.8-2.6
		c-3.4,0-12.8,10.8-16,14c-0.8,0.8-1.6,0.8-2.2,0.2l-1.6-1.8c-0.8-0.6-1.2-1-0.6-1.8c0.8-1.2,21.2-25.2,34-24.6c2.4,0,4.8,1.6,4.8,5
		c0,3.6-3.2,12.6-6.8,22.2l-11.6,30.4c-2.8,7.4-3.6,11.8-3.6,13.2c0,1.8,0.6,3,2.2,3.4c4.2-0.8,15-12.2,16-14
		c0.4-0.6,1.2-0.6,2.2,0.4l1.6,1.4c0.8,1,1,1.4,0.4,2.4c-1.2,1.6-17.2,20.8-33.8,20.8C3922.81,674.75,3921.41,673.15,3921.41,669.95
		z M3946.61,553.35c0-5.4,4.2-10,10.4-10c7,0,10.6,5,10.6,9.6c0,3-2.4,10-10.6,10C3948.21,562.95,3946.61,555.55,3946.61,553.35z"/>
	<path class="st0" d="M3974.2,649.15c0-25.2,19-59.4,45.6-59.4c13.4,0,21.4,9.8,21.4,23.4c0,22-17.4,61.8-46.4,61.8
		C3983.8,674.95,3974.2,664.35,3974.2,649.15z M4033.2,610.15c0.2-6.2-3.4-11.2-10-11.2c-8.4,0-19,7.6-29,23.8
		c-6.8,10.8-11.6,23-11.6,32.4c0,6.4,4.4,10.2,9.2,10.2C4012.6,665.35,4033.2,623.35,4033.2,610.15z"/>
	<path class="st0" d="M4057.6,672.95c-2.2,0-2.6-0.4-2.2-1.8l14.2-37c4.8-12.4,10.4-26.8,10.4-30.2c0-2-0.8-3.4-3-3.4
		c-3.8,0-13.4,9.6-16.8,13.4c-0.6,0.6-1.2,0.6-2-0.2l-1.8-1.8c-0.8-0.8-1-1.2-0.4-2c3-3.6,17.8-20.2,32.2-20.2c4.6,0,6.4,3.4,6.4,6
		c0,6.2-8.6,25.2-10.2,29.8l0.8,0.4c6-9.6,27.8-36.2,45.6-36.2c6,0,10,3,10,8.2c0,8.8-4.6,19.2-11.2,35.4
		c-5.4,13.2-10.2,24.4-10.2,27.6c0,1.2,0.8,2.6,2.4,2.6c3,0,11.8-7.4,14.4-10.2c0.8-0.6,1.6-0.4,2.2,0.4l1.4,1.6
		c0.8,0.8,1,1.2,0.2,2.2c-2.4,3.2-18.6,17.4-32,17.4c-2.6,0-4.8-1-4.8-4c0-3.8,7.2-19.6,13.4-36.8c2.8-7.8,10-24.4,10-28.8
		c0-2.8-1.4-4.6-5-4.6c-7.8,0-27.6,18.4-36.4,32.6c-3.6,5.8-6.8,11-12,25l-5,13.4c-0.4,0.8-0.8,1.2-2.8,1.2H4057.6z"/>
	<path class="st0" d="M4238,589.75c0.8,0,1,1,0.6,1.8c-3.8,8.2-14,35.8-15,39c-1.2,3.4-9.6,28.2-9.6,30c0,1.8,1,2.4,2.2,2.4
		c2.4,0,12.6-10.4,14-12.2c0.6-0.6,1.2-1,1.6-0.4l1.8,2c0.6,0.6,0.8,1,0.4,1.6c-2.2,4-19.6,21-31,21c-2.4,0-4.2-0.8-4.2-3.4
		c0-3,2-9.2,9.6-30.4l-1-0.4c-8.4,12.8-28.6,34.2-42.8,34.2c-4.6,0-10.8-3.8-10.8-12.8c0-29.2,32.8-72.4,57.2-72.4
		c8.4,0,12.2,3.6,14.2,6.8l3.8-5.4c0.6-0.8,1.2-1.4,2-1.4H4238z M4212.8,624.55c2.8-5.8,4.8-10.8,4.8-16.6c0-5.4-2-11.8-9.4-11.8
		c-18.4,0-39.8,42.2-39.8,61.2c0,4.6,2,7,5.4,7C4183.8,664.35,4209.2,631.95,4212.8,624.55z"/>
	<path class="st0" d="M4287.4,557.35c3-7.6,2.8-12.6-3-12.6h-5.8c-1.4,0-1.6-0.8-1.2-1.8l1.2-3.6c0.4-1.2,0.8-1.4,2-1.4h24.8
		c1.8,0,2.4,1.2,1.8,3l-41.6,105.8c-1.8,4.6-6.6,15.6-2.4,15.6c3.2,0,12.4-7.8,14.8-10.4c0.8-0.8,1.2-0.6,1.8,0l2.2,2.4
		c0.4,0.4,0.6,1.2-0.2,2c-1,1.6-19.6,18.6-32.4,18.6c-2.6,0-4.4-1.2-4.4-5.8c0-3,5-15.6,7.4-21.6L4287.4,557.35z"/>
	<path class="st0" d="M4384.6,556.35c2-7.8-3.2-10-10.2-10h-9c-2,0-2.4-0.4-2-1.6l1.2-4.4c0.4-1.2,0.8-1.4,3.2-1.4
		c2.4,0,8.8-0.2,16.6-0.6c8.4-0.2,17.6-0.6,21.6-0.6c25.4,0,53.4,2.8,70.2,19.4c12.4,12.6,15,24,15,36.2c0,39.2-24.8,59-37,66
		c-25.2,14.2-52.2,14.2-65.4,14.2c-5.4,0-23.6-0.6-29.2-0.6c-15,0-20.8,0.6-22.4,0.6c-1.4,0-1.8-0.6-1.6-1.6l1.2-4.4
		c0.2-0.8,0.6-1.4,2-1.4h6c7.2,0,13.6-2.6,16.8-15.8L4384.6,556.35z M4378.2,651.75c-0.8,3.6-1.4,6.4-1.4,8.4c0,4.2,5.6,6,14.2,6
		c21.4,0,42.4-4,57.2-16.6c12.2-10.2,24.4-32.6,24.4-55.6c0-13-5.4-25.6-12.8-33.2c-6.6-6.8-15-10.8-22.8-13
		c-10.8-2.8-19-2.6-21.8-2.6c-3.2,0-9.2,0-11.2,0.6L4378.2,651.75z"/>
	<path class="st0" d="M4498.99,655.35c0-16.8,11-37.8,25.6-52.2c6.4-6.4,17.2-13.4,26.8-13.4c7.8,0,11.4,5.8,11.4,10.6
		c0,9.8-7.4,20.2-18.6,26c-10.8,5.4-21.6,7.6-29,8.2c-1,2.4-2.6,9-2.6,18.4c0,9,6.6,12.6,10.4,12.6c9.8,0,18.6-7.4,22.8-14.2
		c0.4-0.6,1-1,1.8-0.2l2.2,1.8c1,0.6,1,1.2,0.2,1.8c-5,7-17,20.2-32.4,20.2C4504.59,674.95,4498.99,668.55,4498.99,655.35z
		 M4516.8,628.75c7,0.6,33.2-7.8,33.2-22.6c0-4-2-7.6-6.4-7.6C4530.8,598.55,4518.4,621.55,4516.8,628.75z"/>
	<path class="st0" d="M4589.99,602.35c-6.4,0-10.8,4.4-11,10.4c0.2,3.6,2.6,4.8,4.4,5.8c1.4,0.8,4.4,2.8,4.4,6
		c0,3.2-2.2,6.6-7.4,6.6c-3.8,0-9.2-2.8-9.2-11.4c0-7.8,5-16.2,7.8-19.4c4-4.4,8.4-9.6,22.8-9.6c20.4,0,22.8-1,25-1
		c2.6,0,4.6,1.2,2.6,3.8c-4.2,5.2-23.6,32.2-23.6,52.2c0,13.6,7.2,18.6,14.2,18.6c17.2,0,34.6-27,34.6-47.2c0-3.2-0.2-7.2-1.6-10.4
		c-1.6-3.6-3-5.8-3-8.2c0-5.4,3.2-8.8,9-8.8c5.6,0,7.8,5.8,7.8,10.6c0,9.6-4.4,29.6-13.2,44.8c-9,15.6-25.2,29.8-41.6,29.8
		c-10,0-19.8-6.2-19.8-20.6c0-18.6,16.6-43.2,28.2-56.8l-1.4-0.6c-4.2,3.6-14.8,5.4-18.6,5.4H4589.99z"/>
	<path class="st0" d="M4672.59,655.35c0-16.8,11-37.8,25.6-52.2c6.4-6.4,17.2-13.4,26.8-13.4c7.8,0,11.4,5.8,11.4,10.6
		c0,9.8-7.4,20.2-18.6,26c-10.8,5.4-21.6,7.6-29,8.2c-1,2.4-2.6,9-2.6,18.4c0,9,6.6,12.6,10.4,12.6c9.8,0,18.6-7.4,22.8-14.2
		c0.4-0.6,1-1,1.8-0.2l2.2,1.8c1,0.6,1,1.2,0.2,1.8c-5,7-17,20.2-32.4,20.2C4678.19,674.95,4672.59,668.55,4672.59,655.35z
		 M4690.39,628.75c7,0.6,33.2-7.8,33.2-22.6c0-4-2-7.6-6.4-7.6C4704.39,598.55,4691.99,621.55,4690.39,628.75z"/>
	<path class="st0" d="M4781.99,557.35c3-7.6,2.8-12.6-3-12.6h-5.8c-1.4,0-1.6-0.8-1.2-1.8l1.2-3.6c0.4-1.2,0.8-1.4,2-1.4h24.8
		c1.8,0,2.4,1.2,1.8,3l-41.6,105.8c-1.8,4.6-6.6,15.6-2.4,15.6c3.2,0,12.4-7.8,14.8-10.4c0.8-0.8,1.2-0.6,1.8,0l2.2,2.4
		c0.4,0.4,0.6,1.2-0.2,2c-1,1.6-19.6,18.6-32.4,18.6c-2.6,0-4.4-1.2-4.4-5.8c0-3,5-15.6,7.4-21.6L4781.99,557.35z"/>
	<path class="st0" d="M4793.79,649.15c0-25.2,19-59.4,45.6-59.4c13.4,0,21.4,9.8,21.4,23.4c0,22-17.4,61.8-46.4,61.8
		C4803.39,674.95,4793.79,664.35,4793.79,649.15z M4852.79,610.15c0.2-6.2-3.4-11.2-10-11.2c-8.4,0-19,7.6-29,23.8
		c-6.8,10.8-11.6,23-11.6,32.4c0,6.4,4.4,10.2,9.2,10.2C4832.19,665.35,4852.79,623.35,4852.79,610.15z"/>
	<path class="st0" d="M4910.59,574.55c0.6-1.6,1.2-2.2,2.6-2.8l12.4-4.4c0.4-0.2,1-0.2,1.4-0.2s0.6,0.4,0.6,0.8c0,0.4,0,1-0.4,1.6
		l-9.2,20.8c1.2-0.2,2.6-0.4,4-0.4c1.4-0.2,3-0.2,4-0.2c19,0,27.6,13.6,27.6,26.6c0,14-6.2,28.4-23.8,41.6
		c-8.8,6.4-25.2,13.2-41.6,15l-14.2,39.6c-3.6,10.8-2,13.6,6.4,13.6h5.6c1,0,1.6,1,1.4,1.6l-1.4,4c-0.4,0.6-0.8,1.2-2.4,1.2
		c-2.2,0-8.2-0.6-21-0.6c-13.8,0-19.2,0.6-21.4,0.6c-1.2,0-1.6-0.4-1.4-1.2l1.2-4c0.2-0.8,0.4-1.6,1.4-1.6h4.6
		c7.8,0,11-4.6,15.2-16.2l39.2-107.8c-9.8,2.8-20.6,12.8-24.8,18c-0.6,0.8-1.4,0.6-1.8,0.2l-2.2-2c-0.6-0.6-0.8-1.2-0.2-1.8
		c7-8.4,16.4-17.6,31.8-23.4L4910.59,574.55z M4890.59,666.95c24-3.8,49-21.4,49-46c0-15.4-9.2-23-18-23c-3,0-5,0.4-6.4,0.6
		L4890.59,666.95z"/>
	<path class="st0" d="M4967.59,672.95c-1,0-1.8-0.4-1.2-2l15.2-36.2c5.2-12.6,11.2-26.4,11.6-30c0-2-0.6-3.2-2-3.2
		c-2.8,0-15,11.8-16.8,14.2c-0.6,0.8-1.6,0.6-2.4-0.2l-1.8-1.8c-0.6-0.6-0.8-1.2-0.2-1.8c4.6-5.4,20.2-22.2,32.8-22.2
		c2.8,0,4.8,2.4,4.8,5.6c0,4.8-12.2,31.2-14.2,36.6l1,0.2c9.2-14.2,29.8-42.4,46.8-42.4c6.6,0,8.8,5,8.8,8.6c0,7.4-8,26.6-11.4,34.6
		l1,0.2c11-16.8,29-43.4,46-43.4c6.2,0,9.6,5.2,9.6,9.6c0,6.8-3.8,15.2-12.2,35.6c-4.6,11.4-8.4,19.8-8.4,23.4
		c0,1.4,0.6,2.6,2.2,2.6c3.6,0,14.6-12.8,15.8-14.4c0.6-1,1.6-0.8,2.4,0l1.6,1.6c0.6,0.6,0.8,1.2,0.4,2.2
		c-0.6,1.4-21.6,24.6-34.6,24.6c-2,0-3.6-1.8-3.6-4.8c0-5,5.6-18.4,13.6-38c5.8-14.2,9.6-22.6,9.6-28.4c0-2.4-1.6-3.8-4.2-3.8
		c-6.8,0-26.4,22.2-38.6,40c-1.4,2.2-5.6,7.2-8.2,14.2l-6.8,17.6c-0.4,1-1.2,1.2-2.8,1.2h-8c-1.6,0-2.4-0.4-1.8-1.6l13.6-33.2
		c5.6-13.8,11.6-28,11.6-33.6c0-2.6-1.6-4-4-4c-6.8,0-25.8,20.4-37.2,36.4c-3,4.2-7,9.8-10,17l-7.2,17.8c-0.8,1.2-1.4,1.2-3.2,1.2
		H4967.59z"/>
	<path class="st0" d="M5109.99,655.35c0-16.8,11-37.8,25.6-52.2c6.4-6.4,17.2-13.4,26.8-13.4c7.8,0,11.4,5.8,11.4,10.6
		c0,9.8-7.4,20.2-18.6,26c-10.8,5.4-21.6,7.6-29,8.2c-1,2.4-2.6,9-2.6,18.4c0,9,6.6,12.6,10.4,12.6c9.8,0,18.6-7.4,22.8-14.2
		c0.4-0.6,1-1,1.8-0.2l2.2,1.8c1,0.6,1,1.2,0.2,1.8c-5,7-17,20.2-32.4,20.2C5115.59,674.95,5109.99,668.55,5109.99,655.35z
		 M5127.79,628.75c7,0.6,33.2-7.8,33.2-22.6c0-4-2-7.6-6.4-7.6C5141.79,598.55,5129.39,621.55,5127.79,628.75z"/>
	<path class="st0" d="M5185.39,672.95c-2.2,0-2.6-0.4-2.2-1.8l14.2-37c4.8-12.4,10.4-26.8,10.4-30.2c0-2-0.8-3.4-3-3.4
		c-3.8,0-13.4,9.6-16.8,13.4c-0.6,0.6-1.2,0.6-2-0.2l-1.8-1.8c-0.8-0.8-1-1.2-0.4-2c3-3.6,17.8-20.2,32.2-20.2c4.6,0,6.4,3.4,6.4,6
		c0,6.2-8.6,25.2-10.2,29.8l0.8,0.4c6-9.6,27.8-36.2,45.6-36.2c6,0,10,3,10,8.2c0,8.8-4.6,19.2-11.2,35.4
		c-5.4,13.2-10.2,24.4-10.2,27.6c0,1.2,0.8,2.6,2.4,2.6c3,0,11.8-7.4,14.4-10.2c0.8-0.6,1.6-0.4,2.2,0.4l1.4,1.6
		c0.8,0.8,1,1.2,0.2,2.2c-2.4,3.2-18.6,17.4-32,17.4c-2.6,0-4.8-1-4.8-4c0-3.8,7.2-19.6,13.4-36.8c2.8-7.8,10-24.4,10-28.8
		c0-2.8-1.4-4.6-5-4.6c-7.8,0-27.6,18.4-36.4,32.6c-3.6,5.8-6.8,11-12,25l-5,13.4c-0.4,0.8-0.8,1.2-2.8,1.2H5185.39z"/>
	<path class="st0" d="M5310.59,602.55h-14c-1.2,0-1.6-0.4-1.2-1.6l1.6-4.4c0.4-1,1-1.4,2.2-1.4h14.4l10.4-23.2c1-2,1.6-2.4,3.2-3
		c2.2-0.6,7.4-2.6,9-3.4c1.2-0.6,2.2-1.2,3-1.2c1.2,0,1.6,1.2,0.2,4l-13.2,26.8h20.4c1,0,1.4,0.6,0.8,2.2l-1.8,4.2
		c-0.2,0.6-1,1-1.8,1h-20.4l-19.4,45c-2.4,5.6-4.6,10.6-4.6,12.8s0.8,3.4,2.6,3.4c5.8,0,18.8-11.4,20-12.8c0.6-0.8,1.2-0.6,1.8,0
		l2.2,2.4c0.6,0.6,0.6,1,0.2,1.8c-2.6,3.2-21.2,19.8-36.6,19.8c-5,0-6.4-2-6.4-4.8c0-3,1-6.4,2.2-9.4L5310.59,602.55z"/>
</g>
</svg>
