<svg xmlns="http://www.w3.org/2000/svg" viewBox="0 0 634.86 150.4"><defs><style>.cls-1{fill:#fff;}.cls-2{fill:#ffe865;}.cls-3,.cls-4{fill:#0038a5;}.cls-4{opacity:0.99;isolation:isolate;}.cls-5{fill:#f9e526;}</style></defs><title>limestone_career_and_professional_development</title><g id="Layer_1" data-name="Layer 1"><path class="cls-1" d="M165,48.5c0-4.4-.1-11.5-.3-12.7-.1-1.7-.5-2.4-2.5-2.4H159c-.4,0-.5-.4-.5-.7V31.2c0-.4.1-.5.5-.5.8,0,3.2.3,8.7.3,6.6,0,9.4-.3,10-.3s.7.3.7.5V33c0,.4-.1.5-.7.5h-4.1c-2.1,0-2.4.7-2.4,2.6,0,.9-.3,11.1-.3,15.8v5.8c0,1.2,0,15.7.3,18.5,1.5.1,14.8.3,16.9,0,4-.7,8.1-8.7,9-11.4.1-.3.3-.4.5-.3l1.1.4c.3.1.3.3.1.7s-2.9,11.6-3.3,13.5c-.9-.1-6.2-.1-12.2-.1s-12.7-.1-16.2-.1c-2.6,0-4.6.1-6.1.1-1.3.1-2.1.1-2.6.1s-.5-.1-.5-.5V76.8c0-.4.1-.5.5-.5h3.3c2.5,0,2.9-.9,2.9-1.8,0-1.3.3-18.1.3-22.2V48.5Z" transform="translate(0 0)"/><path class="cls-1" d="M205.4,59.1c0-2.2-.4-3.6-3.8-4.1-.5-.1-.7-.3-.7-.5v-.7c0-.3.1-.4.5-.5a45.2,45.2,0,0,0,7.3-3.3,2.51,2.51,0,0,1,1.3-.4c.4,0,.4.4.4.8-.1,1.2-.1,5.4-.1,11v7.4c0,2.6,0,5,.1,5.8.1,1.3.4,1.7,1.1,1.7h3.2a.63.63,0,0,1,.7.55.38.38,0,0,1,0,.15v1.2c0,.5-.1.7-.7.7s-3.7-.3-6.5-.3c-4,0-6.6.3-7.3.3-.4,0-.5-.1-.5-.5V77.1c0-.4.3-.5.7-.5h3.3c.8,0,1.1-.3,1.1-1.3.1-2,.1-4.1.1-6.2V59.3h-.2v-.2Zm-3-20.6a3.85,3.85,0,0,1,4.08-3.6h0a3.41,3.41,0,0,1,3.6,3.19v.11a3.69,3.69,0,0,1-3.69,3.71h-.31a3.46,3.46,0,0,1-3.69-3.23A1,1,0,0,1,202.4,38.5Z" transform="translate(0 0)"/><path class="cls-1" d="M240.1,61.5c0-5-.9-6.3-2-7.3a7.43,7.43,0,0,0-4.4-1.2,7.69,7.69,0,0,0-7.44,7.93c0,.19,0,.38,0,.57V74.8c0,1.1.4,1.7,1.3,1.7H230c.7,0,.7.1.7.7v1.1c0,.5,0,.8-.5.8-.7,0-2.4-.3-6.2-.3-3.6,0-5.7.3-6.3.3-.4,0-.5-.1-.5-.7V77.2c0-.5.1-.7.8-.7h2.2c.7,0,.9-.4,1.1-1.7a22,22,0,0,0,.1-3.6v-12a3.54,3.54,0,0,0-1.8-3.4l-1.5-.8c-.4-.3-.5-.4-.5-.5V54a.53.53,0,0,1,.4-.5l5.9-3a3,3,0,0,1,1.3-.4c.4,0,.7.5.7.9l.3,4h.3a13.18,13.18,0,0,1,9.9-5.2c3.6,0,6.2,2,7.7,5.2h.4c2-2.6,5.8-5.2,9.9-5.2,2.4,0,4.5.4,6.1,2s3.3,3.2,3.3,8.3V75.2c0,1.1.7,1.3,1.5,1.3h1.8c.7,0,.8.1.8.7v1.2c0,.5-.1.7-.5.7s-2.4-.3-5.5-.3c-3.4,0-5.8.3-6.3.3s-.5-.3-.5-.7V77.2c0-.5.1-.7.9-.7h1.7a1.16,1.16,0,0,0,1.3-1,1.5,1.5,0,0,0,0-.3c.1-1.6.1-4,.1-5.4v-10c0-2.2-.4-4.2-2-5.4a8.28,8.28,0,0,0-5-1.5,7.4,7.4,0,0,0-5.8,3.6c-1.1,2-.9,3.8-.9,6.9V75c0,.9.4,1.6,1.3,1.6h2.2c.7,0,.8.1.8.7v1.1c0,.5-.1.8-.5.8a59,59,0,0,0-6.1-.3c-3.7,0-5.9.3-6.3.3s-.5-.3-.5-.7V77.4c0-.5.1-.7.7-.7h2c1.1,0,1.5-.3,1.5-1.2Z" transform="translate(0 0)"/><path class="cls-1" d="M273.7,60.8a20.25,20.25,0,0,0-.3,3.3c0,6.6,4.2,11.6,9.6,11.6a9.35,9.35,0,0,0,8.2-4.6.67.67,0,0,1,.7-.4l.9.5c.3.1.4.3,0,1.1-1.2,2.6-4.8,7.4-10.7,7.4-3.8,0-8.1-1.2-10.6-4.8-2.4-3.4-3-5.9-3-10.7a15.46,15.46,0,0,1,4.2-10.7,12.79,12.79,0,0,1,9.6-3.6c7.8,0,9.9,7.3,9.9,9.9,0,.9-.8,1.1-1.8,1.1Zm10.7-1.9c1.3,0,1.8-.4,1.8-.9,0-1.6-.8-5.9-5.2-5.9-2.9,0-5.8,2-7.1,7h10.4v-.2Z" transform="translate(0 0)"/><path class="cls-1" d="M297.3,77.6a1,1,0,0,1-.4-.9l-1.2-6.5c-.1-.4.1-.5.4-.5l.9-.3c.3-.1.5.1.7.4l1.7,3.3c1.3,2.5,2.2,4.2,5.8,4.2,2.4,0,5.3-1.5,5.3-4.6s-1.5-4.8-6.6-6.2c-4-1.2-7.9-3.3-7.9-8.6,0-4.6,4.4-8.2,9.5-8.2a11.22,11.22,0,0,1,6.2,1.5c1.1.5,1.2.8,1.2,1.2l1.1,4.8c0,.3-.1.5-.5.7l-.8.3c-.3.1-.4,0-.7-.4l-2.2-3.2A5.15,5.15,0,0,0,305,52c-2.5,0-5.2,1.6-5.2,4.5,0,4,3.2,4.6,6.5,5.5,4.9,1.5,8.1,3.4,8.1,8.6-.1,5.4-4.5,8.8-10.3,8.8A10.85,10.85,0,0,1,297.3,77.6Z" transform="translate(0 0)"/><path class="cls-1" d="M326.8,70.3c0,5,2.2,5.9,3.6,5.9a9.84,9.84,0,0,0,4.5-.9c.4-.3.7-.1.8.1l.4.7c.3.3.1.5-.1.8a11.27,11.27,0,0,1-7.5,2.6c-3.3,0-6.6-3.2-6.6-5.7,0-2.8.3-8.7.3-9.6V62.7c0-1.2.1-5.7.1-8.6h-4.1c-.7,0-1.1-.3-1.1-.8s.4-.8,1.2-1.2c1.6-.9,6.9-6.2,7.7-8.5.3-.5.5-.7.9-.7s.7.5.7,1.1l-.4,6.7h9.4c.4,0,.7.4.5.7l-.7,2.4c-.1.4-.3.5-.7.5h-8.8c-.1,3.2-.3,6.3-.3,9.5v6.3h.2v.2Z" transform="translate(0 0)"/><path class="cls-1" d="M340.5,75c-3.2-3.7-3.7-6.2-3.7-11a14.08,14.08,0,0,1,5.8-10.8,15.83,15.83,0,0,1,9.1-3.3,13.82,13.82,0,0,1,9.5,4,15.27,15.27,0,0,1,4.6,11c0,7.4-6.6,14.8-14.9,14.8A14.43,14.43,0,0,1,340.5,75Zm19.6-10.9c0-7.5-5.4-12.3-8.8-12.3a6.66,6.66,0,0,0-5.2,2.1c-2.6,2.6-3.6,5.4-3.6,10.6,0,3.8.4,6.3,2.5,9.5a7.75,7.75,0,0,0,6.7,3.6C356.8,77.6,360.1,71.3,360.1,64.1Z" transform="translate(0 0)"/><path class="cls-1" d="M394.9,75.1a1.36,1.36,0,0,0,1.2,1.5,1.5,1.5,0,0,0,.3,0h2.1c.7,0,.8.3.8.7v1.1c0,.5-.1.8-.5.8s-2.5-.3-6.5-.3c-3.4,0-5.5.3-6.1.3-.4,0-.5-.3-.5-.8V77.3c0-.5.3-.7.9-.7h2c.8,0,1.3-.4,1.3-1.6.1-1.7.1-4,.1-5.7V60.5c0-2.6,0-4.6-2-6.1a7.46,7.46,0,0,0-4.9-1.2,7.9,7.9,0,0,0-5.4,2.6,7,7,0,0,0-1.6,4.6v14c0,1.8.3,2.2,1.6,2.2h1.7a.63.63,0,0,1,.7.55.38.38,0,0,1,0,.15v1.2c0,.4-.1.7-.5.7a56.48,56.48,0,0,0-5.8-.3c-3.4,0-5.5.3-6.1.3-.4,0-.5-.3-.5-.7V77.3c0-.4.1-.7.7-.7h2c.9,0,1.3-.3,1.3-1.3V59.5a4.22,4.22,0,0,0-2.8-4l-.5-.3c-.5-.3-.5-.4-.5-.7v-.4c0-.4.3-.5.7-.7l5.8-3.3a2.77,2.77,0,0,1,1.2-.5c.4,0,.5.3.5.8l.5,4.1h.1c2-2.4,5.8-4.9,9.2-4.9a10.2,10.2,0,0,1,5.7,1.5,10,10,0,0,1,3.7,6.5l.1,17.5Z" transform="translate(0 0)"/><path class="cls-1" d="M405.1,60.8a20.25,20.25,0,0,0-.3,3.3c0,6.6,4.2,11.6,9.6,11.6a9.35,9.35,0,0,0,8.2-4.6.67.67,0,0,1,.7-.4l.9.5c.3.1.4.3,0,1.1-1.2,2.6-4.8,7.4-10.7,7.4-3.8,0-8.1-1.2-10.6-4.8-2.4-3.4-2.9-5.9-2.9-10.7a15.46,15.46,0,0,1,4.2-10.7,12.79,12.79,0,0,1,9.6-3.6c7.8,0,9.9,7.3,9.9,9.9,0,.9-.8,1.1-1.8,1.1Zm10.7-1.9c1.3,0,1.8-.4,1.8-.9,0-1.6-.8-5.9-5.2-5.9-2.9,0-5.8,2-7.1,7h10.4v-.2Z" transform="translate(0 0)"/><path class="cls-1" d="M450.3,73.6C445.4,69,443,61.2,443,54.7a25,25,0,0,1,6.9-17.8A23.24,23.24,0,0,1,466.8,30a26.77,26.77,0,0,1,13.6,3.7c.9.5,1.2.5,1.3,0l.5-2c.1-.4.3-.4.9-.4s.8.1.8,1.1c0,1.3,1.3,11.2,1.7,13.1.1.4,0,.7-.3.7l-1.1.3c-.4.1-.5,0-.7-.5a24.53,24.53,0,0,0-5.3-8.3,15.75,15.75,0,0,0-11.8-5.2c-12.2,0-16.9,10.7-16.9,20.6,0,4,1.2,11.5,6.5,17.3,4.6,5.2,8.5,5.7,12.9,5.7a20.2,20.2,0,0,0,16.6-8.6c.3-.4.4-.4.5-.3l.9.7c.3.1.4.3.1.7C482.9,74.4,476.4,80,466.9,80A23.77,23.77,0,0,1,450.3,73.6Z" transform="translate(0 0)"/><path class="cls-1" d="M493.9,75c-3.2-3.7-3.7-6.2-3.7-11A14.08,14.08,0,0,1,496,53.2a15.83,15.83,0,0,1,9.1-3.3,13.82,13.82,0,0,1,9.5,4,15.27,15.27,0,0,1,4.6,11c0,7.4-6.6,14.8-14.9,14.8A14.43,14.43,0,0,1,493.9,75Zm19.5-10.9c0-7.5-5.4-12.3-8.8-12.3a6.66,6.66,0,0,0-5.2,2.1c-2.6,2.6-3.6,5.4-3.6,10.6,0,3.8.4,6.3,2.5,9.5a7.75,7.75,0,0,0,6.7,3.6C510.1,77.6,513.4,71.3,513.4,64.1Z" transform="translate(0 0)"/><path class="cls-1" d="M530.3,58.7c0,3.6,0,13.7.1,15.8.1,1.2.4,2.1,1.7,2.1h3c.7,0,.8.3.8.7v1.2c0,.4-.1.7-.4.7-.5,0-3.4-.3-7.7-.3s-7,.3-7.7.3c-.4,0-.5-.3-.5-.7V77.3c0-.5.1-.7.9-.7h3.3c.8,0,1.5-.5,1.5-1.7.1-2.1.1-13.7.1-17.6V53c0-4.8-.1-11-.3-12.7-.1-2.2-1.2-3.4-3.4-4.1l-1.3-.5c-.4-.1-.4-.3-.4-.4v-.5c0-.3.3-.4.7-.5a45.07,45.07,0,0,0,7.9-4,2.86,2.86,0,0,1,1.5-.5c.5,0,.7.4.5,1.2,0,3.7-.3,17.7-.3,21.5v6.2Z" transform="translate(0 0)"/><path class="cls-1" d="M546.3,58.7c0,3.6,0,13.7.1,15.8.1,1.2.4,2.1,1.7,2.1h3c.7,0,.8.3.8.7v1.2c0,.4-.1.7-.4.7-.5,0-3.4-.3-7.7-.3s-7,.3-7.7.3c-.4,0-.5-.3-.5-.7V77.3c0-.5.1-.7.9-.7h3.3c.8,0,1.5-.5,1.5-1.7.1-2.1.1-13.7.1-17.6V53c0-4.8-.1-11-.3-12.7-.1-2.2-1.2-3.4-3.4-4.1l-1.3-.5c-.4-.1-.4-.3-.4-.4v-.5c0-.3.3-.4.7-.5a45.07,45.07,0,0,0,7.9-4,2.86,2.86,0,0,1,1.5-.5c.5,0,.7.4.5,1.2,0,3.7-.3,17.7-.3,21.5v6.2Z" transform="translate(0 0)"/><path class="cls-1" d="M558.3,60.8a20.25,20.25,0,0,0-.3,3.3c0,6.6,4.2,11.6,9.6,11.6a9.35,9.35,0,0,0,8.2-4.6.67.67,0,0,1,.7-.4l.9.5c.3.1.4.3,0,1.1-1.2,2.6-4.8,7.4-10.7,7.4-3.8,0-8.1-1.2-10.6-4.8-2.4-3.4-2.9-5.9-2.9-10.7a15.46,15.46,0,0,1,4.2-10.7,12.79,12.79,0,0,1,9.6-3.6c7.8,0,9.9,7.3,9.9,9.9,0,.9-.8,1.1-1.8,1.1ZM569,58.9c1.3,0,1.8-.4,1.8-.9,0-1.6-.8-5.9-5.2-5.9-2.9,0-5.8,2-7.1,7h10.4l.1-.2Z" transform="translate(0 0)"/><path class="cls-1" d="M581.3,95c-2.4-1.5-3.4-3.3-3.4-5.4,0-3.8,3.8-6.7,7.1-8.1v-.3c-2.8-.7-4.5-2.6-4.5-4.8,0-3.3,3.7-5.5,6.1-6.5v-.1a10.81,10.81,0,0,1-6.3-10.3c0-4.4,4-9.8,11.5-9.8a10.74,10.74,0,0,1,8.5,4c1.8-1.3,4.1-2.6,6.3-2.6s3.3,1.5,3.2,2.8a2.55,2.55,0,0,1-2.6,2.5,3,3,0,0,1-2.4-1.1,2.65,2.65,0,0,0-1.5-.7,4.48,4.48,0,0,0-2.1.4,12.94,12.94,0,0,1,1.1,5.2,11.5,11.5,0,0,1-2.5,7.3c-1.7,2-5.5,3.4-7.8,3.4a10.85,10.85,0,0,1-3.4-.4c-1.3.5-3.6,1.8-3.6,3.8,0,2.8,3.4,2.5,7.9,2.2,5.5-.3,8.8.4,11.6,2.4a7.74,7.74,0,0,1,3.3,6.5c0,3.2-1.2,5.8-4.5,8.3-1.7,1.3-5.8,3.2-11.5,3.2A17.78,17.78,0,0,1,581.3,95Zm22.3-7c0-4-3-7-9.8-6.6l-6.5.5c-2.1.5-5.4,2.8-5.4,6.5a6.38,6.38,0,0,0,2.6,4.6c2.2,1.6,4.6,1.8,9.5,1.8C596.5,95,604,93.2,603.6,88Zm-6.2-28.8c0-2.9-.7-4.8-1.8-6.1a5,5,0,0,0-3.3-1.5,6.43,6.43,0,0,0-4.8,1.8c-2.1,2.2-2.4,5.4-2.4,7.9a8.74,8.74,0,0,0,2.1,5.8,5.3,5.3,0,0,0,4.1,1.7C595.8,69.2,597.4,63.5,597.4,59.2Z" transform="translate(0 0)"/><path class="cls-1" d="M615.5,60.8a20.25,20.25,0,0,0-.3,3.3c0,6.6,4.2,11.6,9.6,11.6a9.35,9.35,0,0,0,8.2-4.6.67.67,0,0,1,.7-.4l.9.5c.3.1.4.3,0,1.1-1.2,2.6-4.8,7.4-10.7,7.4-3.8,0-8.1-1.2-10.6-4.8-2.4-3.4-2.9-5.9-2.9-10.7a15.46,15.46,0,0,1,4.2-10.7,12.79,12.79,0,0,1,9.6-3.6c7.8,0,9.9,7.3,9.9,9.9,0,.9-.8,1.1-1.8,1.1Zm10.7-1.9c1.3,0,1.8-.4,1.8-.9,0-1.6-.8-5.9-5.2-5.9-2.9,0-5.8,2-7.1,7h10.4Z" transform="translate(0 0)"/><path class="cls-1" d="M143.4,75.3a69.53,69.53,0,1,1,0-.14v.14" transform="translate(0 0)"/><path class="cls-1" d="M75.2,150.4a75.2,75.2,0,1,1,75.2-75.2h0A75.37,75.37,0,0,1,75.2,150.4Zm0-144a68.9,68.9,0,1,0,68.9,68.9A68.9,68.9,0,0,0,75.2,6.4Z" transform="translate(0 0)"/><path class="cls-2" d="M143.3,75.3A69.5,69.5,0,1,1,73.8,5.8h0a69.48,69.48,0,0,1,69.5,69.46Z" transform="translate(0 0)"/><path class="cls-3" d="M75.2,147.8a72.6,72.6,0,1,1,72.6-72.6h0A72.72,72.72,0,0,1,75.2,147.8Zm0-139a66.5,66.5,0,1,0,66.5,66.5A66.5,66.5,0,0,0,75.2,8.8Z" transform="translate(0 0)"/><path class="cls-3" d="M31.4,125.8V70.2H29.6V67.5H27.7V60.2h2.6V58.8H30V57.7h-.4v-3H40.9a84,84,0,0,1,1.9-8.6c1.7-5.3,7.9-9,11.9-12,1.2-1,12.2-3.8,12.2-3.8L73.5,29V25l-1-1.4-.2-1.1,1.4-1.3-1.3-6.1.7-2.2,2.1-.7,2.1.7.7,2.2-1.4,6.1L78,22.4l-.2,1.1-1.1,1.4V29l6.2,1.3S94.5,33.4,95.4,34c6.7,4.6,9.7,6.7,11.6,11.9a43.77,43.77,0,0,1,1.9,8.6h11v3h-.4v1.1h-.4v1.6h2.5v7.3h-1.8v2.7h-2.3V128A65.74,65.74,0,0,1,74,144.8c-26.6,0-42.6-19-42.6-19" transform="translate(0 0)"/><path class="cls-1" d="M48.1,79.6a10.23,10.23,0,0,0,4.5-1.8h1V96c0,1.3.2,1.9,1.4,1.9h1.7v1.3H48.1V97.9h1.7c1.3,0,1.6-.7,1.6-2.3V81H48.1Z" transform="translate(0 0)"/><path class="cls-1" d="M64.7,77.4c3.4,0,5.6,2.3,5.6,5,0,2.1-1.3,3.8-3.8,4.9,3,1.3,4.7,3.1,4.7,6,0,3.3-2.6,6.2-6.8,6.2s-6.7-2.8-6.7-5.9c0-2.4,1.6-4.4,4.5-5.5-2.3-1.3-3.5-2.7-3.5-5.2-.1-3.2,2.5-5.5,6-5.5" transform="translate(0 0)"/><path class="cls-3" d="M63.4,88.7c-2.3,1.2-3.8,3.1-3.8,5A4.72,4.72,0,0,0,69,94c0-1.8-1.2-3.1-3.6-4.2Z" transform="translate(0 0)"/><path class="cls-3" d="M65.3,86.8c1.5-1.4,2.9-2.4,2.9-4.3a3.81,3.81,0,0,0-7.6-.1c0,1.7,1.1,2.7,3.2,3.7Z" transform="translate(0 0)"/><polygon class="cls-1" points="81.1 77.8 83.3 77.8 83.3 90.2 86.7 90.2 86.7 92.1 83.3 92.1 83.3 99.2 81.1 99.2 81.1 92.1 72.5 92.1 72.5 89.5 81.1 77.8"/><polygon class="cls-3" points="81.1 90.2 81.1 80.2 73.7 90.2 81.1 90.2"/><path class="cls-1" d="M88.6,77.8h8.5c.6,0,.8-.1.8-.7h.9v3.2h-9l-.2,5.4a9.58,9.58,0,0,1,3.4-.5c4.4,0,7.1,2.9,7.1,7s-2.9,7.3-6.9,7.3-6.2-3-6.2-4.8a1.37,1.37,0,0,1,1.2-1.5,1.31,1.31,0,0,1,1.1.8c.8,2.4,1.5,4,3.9,4,2.7,0,4.5-2.3,4.5-5.4,0-3.3-2-5.5-5.3-5.5a11.73,11.73,0,0,0-4.3.9Z" transform="translate(0 0)"/><rect class="cls-1" x="31.4" y="71.5" width="86.1" height="1.5"/><rect class="cls-1" x="31.2" y="104.2" width="86.1" height="1.5"/><path class="cls-1" d="M5.7,61.7S3.6,72.2,12.2,74.8c0,0-8.5,0-7.1,10.4" transform="translate(0 0)"/><path class="cls-3" d="M5.2,88.1c-1.5,0-.5-29.7,1-29.5a3,3,0,0,1,2.7,3.1l-.1,4.4c.6,4.6,3.5,5.4,4.4,5.7a2.9,2.9,0,0,1,2.1,3.3,3,3,0,0,1-3,2.6h0a4.23,4.23,0,0,0-4,3l-.1,4.4A3.16,3.16,0,0,1,5.2,88.1Z" transform="translate(0 0)"/><path class="cls-3" d="M145,58.6c1.5,0,.6,29.7-1,29.5s-2.1-1.6-2-3.1l-.5-4.4c-.6-4.6-3.5-5.4-4.4-5.7A3,3,0,0,1,138,69h0a4.23,4.23,0,0,0,4-3l.1-4.5A3,3,0,0,1,145,58.6Z" transform="translate(0 0)"/><path class="cls-1" d="M84.2,123.3a9.3,9.3,0,1,1-9.3-9.3,9.3,9.3,0,0,1,9.3,9.3" transform="translate(0 0)"/><path class="cls-4" d="M65.6,124.6a8,8,0,0,1-.1-1.3c0-.5,0-1,.1-1.5H84.1a6.86,6.86,0,0,1,.2,1.5v1.3Z" transform="translate(0 0)"/><path class="cls-4" d="M66.1,119.3s.4-.7.8-1.3a8.43,8.43,0,0,1,1.4-1.4H81.4a9.59,9.59,0,0,1,1.3,1.4,6,6,0,0,1,.7,1.2H66.1Z" transform="translate(0 0)"/><path class="cls-4" d="M68.5,130.1s-.8-.6-1.4-1.1a12.72,12.72,0,0,1-1-1.2H83.3a5.75,5.75,0,0,1-1,1.2,6.57,6.57,0,0,0-.8,1.1Z" transform="translate(0 0)"/></g><g id="Layer_2" data-name="Layer 2"><path class="cls-5" d="M161,110.6a6.62,6.62,0,0,1,6.93-6.72,7.73,7.73,0,0,1,4.53,1.29v3a6.11,6.11,0,0,0-3.95-1.5,4,4,0,0,0,0,7.94,6.11,6.11,0,0,0,3.95-1.5v3a7.81,7.81,0,0,1-4.53,1.28A6.61,6.61,0,0,1,161,110.6Z" transform="translate(0 0)"/><path class="cls-5" d="M178.64,104.16h2.94L187,117h-3.45l-1.1-2.74h-4.76L176.6,117h-3.37Zm3,7.88L180.05,108,178.51,112Z" transform="translate(0 0)"/><path class="cls-5" d="M199.92,117h-3.8l-3.37-5h-.94v5h-3.48V104.16h5.86c3.13,0,4.48,1.89,4.48,4a3.59,3.59,0,0,1-2.51,3.61Zm-6.61-7.16c1.33,0,1.93-.6,1.93-1.7s-.6-1.71-1.93-1.71h-1.5v3.41Z" transform="translate(0 0)"/><path class="cls-5" d="M201.2,104.16h9v2.62h-5.47V109h4.4v2.59h-4.4v2.88h5.47V117h-9Z" transform="translate(0 0)"/><path class="cls-5" d="M212.34,104.16h8.94v2.62h-5.47V109h4.4v2.59h-4.4v2.88h5.47V117h-8.94Z" transform="translate(0 0)"/><path class="cls-5" d="M235.06,117h-3.8l-3.37-5H227v5h-3.48V104.16h5.86c3.13,0,4.48,1.89,4.48,4a3.59,3.59,0,0,1-2.51,3.61Zm-6.61-7.16c1.33,0,1.93-.6,1.93-1.7s-.6-1.71-1.93-1.71H227v3.41Z" transform="translate(0 0)"/><path class="cls-5" d="M244.8,104.16h2.94l5.4,12.87h-3.45l-1.1-2.74h-4.76L242.76,117h-3.37Zm3,7.88L246.21,108,244.67,112Z" transform="translate(0 0)"/><path class="cls-5" d="M254.49,104.16h2.64l5.84,7.4v-7.4H266V117H263.4l-5.84-7.4V117h-3.07Z" transform="translate(0 0)"/><path class="cls-5" d="M268.63,104.16h5c5.3,0,7.47,2.9,7.47,6.44S279,117,273.65,117h-5Zm4.74,10.19c2.9,0,4.21-1.18,4.21-3.75s-1.31-3.76-4.21-3.76H272.1v7.51Z" transform="translate(0 0)"/><path class="cls-5" d="M287.36,104.16h5.49c3.24,0,4.72,2,4.72,4.31s-1.48,4.32-4.72,4.32h-2V117h-3.47Zm4.65,6.33a2,2,0,1,0,0-4h-1.18v4Z" transform="translate(0 0)"/><path class="cls-5" d="M310.61,117h-3.79l-3.37-5h-.95v5H299V104.16h5.85c3.14,0,4.49,1.89,4.49,4a3.59,3.59,0,0,1-2.51,3.61ZM304,109.87c1.33,0,1.94-.6,1.94-1.7s-.61-1.71-1.94-1.71h-1.5v3.41Z" transform="translate(0 0)"/><path class="cls-5" d="M311.28,110.6a7.13,7.13,0,1,1,7.14,6.8A6.85,6.85,0,0,1,311.28,110.6Zm10.55,0c0-2.47-1.26-4.08-3.41-4.08S315,108.13,315,110.6s1.28,4.07,3.45,4.07S321.83,113.07,321.83,110.6Z" transform="translate(0 0)"/><path class="cls-5" d="M327.49,104.16h8.67v2.62H331v2.32h4.12v2.59H331V117h-3.48Z" transform="translate(0 0)"/><path class="cls-5" d="M337.56,104.16h8.94v2.62H341V109h4.4v2.59H341v2.88h5.47V117h-8.94Z" transform="translate(0 0)"/><path class="cls-5" d="M347.81,115.62l.77-2.53a6.45,6.45,0,0,0,4.06,1.71c1.05,0,1.86-.4,1.86-1.31s-.55-1.13-2.4-1.61c-2.94-.68-4-2.25-4-4.16,0-2.34,1.85-3.86,4.72-3.86a7.53,7.53,0,0,1,4.23,1.31l-.71,2.32a7.19,7.19,0,0,0-3.56-1.12c-.92,0-1.5.39-1.5,1s.38.95,1.84,1.31c3.22.75,4.53,2.1,4.53,4.42,0,3-2.45,4.16-5.06,4.16A7.45,7.45,0,0,1,347.81,115.62Z" transform="translate(0 0)"/><path class="cls-5" d="M358.67,115.62l.77-2.53a6.42,6.42,0,0,0,4.05,1.71c1.05,0,1.87-.4,1.87-1.31s-.56-1.13-2.4-1.61c-2.94-.68-3.95-2.25-3.95-4.16,0-2.34,1.84-3.86,4.72-3.86a7.56,7.56,0,0,1,4.23,1.31l-.71,2.32a7.23,7.23,0,0,0-3.56-1.12c-.93,0-1.51.39-1.51,1s.39.95,1.85,1.31c3.22.75,4.53,2.1,4.53,4.42,0,3-2.45,4.16-5.07,4.16A7.4,7.4,0,0,1,358.67,115.62Z" transform="translate(0 0)"/><path class="cls-5" d="M370.4,104.16h3.48V117H370.4Z" transform="translate(0 0)"/><path class="cls-5" d="M375.83,110.6a7.13,7.13,0,1,1,7.14,6.8A6.85,6.85,0,0,1,375.83,110.6Zm10.55,0c0-2.47-1.26-4.08-3.41-4.08s-3.45,1.61-3.45,4.08,1.28,4.07,3.45,4.07S386.38,113.07,386.38,110.6Z" transform="translate(0 0)"/><path class="cls-5" d="M392,104.16h2.64l5.84,7.4v-7.4h3.07V117H401l-5.84-7.4V117H392Z" transform="translate(0 0)"/><path class="cls-5" d="M410.34,104.16h2.94L418.69,117h-3.45l-1.1-2.74h-4.76L408.31,117h-3.37Zm3,7.88L411.76,108,410.22,112Z" transform="translate(0 0)"/><path class="cls-5" d="M420,104.16h3.48v10.26H429V117H420Z" transform="translate(0 0)"/><path class="cls-5" d="M434.69,104.16h5c5.3,0,7.47,2.9,7.47,6.44S445,117,439.71,117h-5Zm4.74,10.19c2.9,0,4.21-1.18,4.21-3.75s-1.31-3.76-4.21-3.76h-1.26v7.51Z" transform="translate(0 0)"/><path class="cls-5" d="M449.13,104.16h8.95v2.62h-5.47V109H457v2.59h-4.39v2.88h5.47V117h-8.95Z" transform="translate(0 0)"/><path class="cls-5" d="M459,104.16h3.58l3.28,8.24,3.27-8.24h3.49L467.24,117h-2.81Z" transform="translate(0 0)"/><path class="cls-5" d="M474,104.16h8.95v2.62h-5.47V109h4.4v2.59h-4.4v2.88h5.47V117H474Z" transform="translate(0 0)"/><path class="cls-5" d="M485.11,104.16h3.47v10.26h5.47V117h-8.94Z" transform="translate(0 0)"/><path class="cls-5" d="M494.65,110.6a7.13,7.13,0,1,1,7.15,6.8A6.86,6.86,0,0,1,494.65,110.6Zm10.56,0c0-2.47-1.27-4.08-3.41-4.08s-3.46,1.61-3.46,4.08,1.29,4.07,3.46,4.07S505.21,113.07,505.21,110.6Z" transform="translate(0 0)"/><path class="cls-5" d="M510.87,104.16h5.49c3.24,0,4.72,2,4.72,4.31s-1.48,4.32-4.72,4.32h-2V117h-3.48Zm4.66,6.33a2,2,0,1,0,0-4h-1.18v4Z" transform="translate(0 0)"/><path class="cls-5" d="M522.54,104.16h3.88l3.5,8.18,3.5-8.18h3.79V117h-3.06v-7c0-.3.06-1.29.08-1.37l-.47,1.37-2.9,7H528.8l-2.89-7c-.13-.3-.43-1.22-.47-1.37,0,.08.08,1.07.08,1.37v7h-3Z" transform="translate(0 0)"/><path class="cls-5" d="M539.81,104.16h9v2.62h-5.47V109h4.39v2.59h-4.39v2.88h5.47V117h-9Z" transform="translate(0 0)"/><path class="cls-5" d="M550.94,104.16h2.64l5.84,7.4v-7.4h3.07V117h-2.64l-5.84-7.4V117h-3.07Z" transform="translate(0 0)"/><path class="cls-5" d="M568,106.78h-4.14v-2.62h11.76v2.62H571.5V117H568Z" transform="translate(0 0)"/></g></svg>