<?xml version="1.0" encoding="utf-8"?>
<!-- Generator: Adobe Illustrator 23.0.4, SVG Export Plug-In . SVG Version: 6.00 Build 0)  -->
<svg version="1.1" xmlns="http://www.w3.org/2000/svg" xmlns:xlink="http://www.w3.org/1999/xlink" x="0px" y="0px"
	 viewBox="0 0 634.9 150.4" style="enable-background:new 0 0 634.9 150.4;" xml:space="preserve">
<style type="text/css">
	.st0{fill:#FFFFFF;}
	.st1{fill:#FFE865;}
	.st2{fill:#0038A5;}
	.st3{opacity:0.99;fill:#0038A5;enable-background:new    ;}
	.st4{display:none;}
	.st5{display:inline;fill:#FAE965;}
	.st6{fill:#F9E526;}
</style>
<g id="Layer_1">
	<title>limestone_global_logo</title>
	<path class="st0" d="M143.4,75.3c-0.1,38.4-31.2,69.5-69.6,69.4c-38.4-0.1-69.5-31.2-69.4-69.6C4.5,36.8,35.6,5.7,73.9,5.7
		c38.4,0,69.5,31.1,69.5,69.5C143.4,75.2,143.4,75.3,143.4,75.3"/>
	<path class="st0" d="M75.2,150.4C33.7,150.4,0,116.7,0,75.2S33.7,0,75.2,0s75.2,33.7,75.2,75.2l0,0
		C150.3,116.7,116.7,150.3,75.2,150.4z M75.2,6.4C37.1,6.4,6.3,37.2,6.3,75.3s30.8,68.9,68.9,68.9s68.9-30.8,68.9-68.9
		C144,37.3,113.2,6.5,75.2,6.4z"/>
	<path class="st1" d="M143.3,75.3c0,38.4-31.1,69.5-69.5,69.5S4.3,113.7,4.3,75.3S35.4,5.8,73.8,5.8h0
		C112.2,5.8,143.3,36.9,143.3,75.3C143.3,75.3,143.3,75.3,143.3,75.3z"/>
	<path class="st2" d="M75.2,147.8c-40.1,0-72.6-32.5-72.6-72.6S35.1,2.6,75.2,2.6s72.6,32.5,72.6,72.6v0
		C147.7,115.3,115.3,147.7,75.2,147.8z M75.2,8.8C38.5,8.8,8.7,38.6,8.7,75.3s29.8,66.5,66.5,66.5s66.5-29.8,66.5-66.5
		C141.7,38.6,111.9,8.8,75.2,8.8z"/>
	<path class="st2" d="M31.4,125.8V70.2h-1.8v-2.7h-1.9v-7.3h2.6v-1.4H30v-1.1h-0.4v-3h11.3c0.5-2.9,1.1-5.8,1.9-8.6
		c1.7-5.3,7.9-9,11.9-12c1.2-1,12.2-3.8,12.2-3.8l6.6-1.3v-4l-1-1.4l-0.2-1.1l1.4-1.3l-1.3-6.1l0.7-2.2l2.1-0.7l2.1,0.7l0.7,2.2
		l-1.4,6.1l1.4,1.2l-0.2,1.1l-1.1,1.4V29l6.2,1.3c0,0,11.6,3.1,12.5,3.7c6.7,4.6,9.7,6.7,11.6,11.9c0.9,2.8,1.6,5.7,1.9,8.6h11v3
		h-0.4v1.1h-0.4v1.6h2.5v7.3h-1.8v2.7h-2.3V128c-12,10.7-27.4,16.7-43.5,16.8C47.4,144.8,31.4,125.8,31.4,125.8"/>
	<path class="st0" d="M48.1,79.6c1.6-0.2,3.2-0.8,4.5-1.8h1V96c0,1.3,0.2,1.9,1.4,1.9h1.7v1.3h-8.6v-1.3h1.7c1.3,0,1.6-0.7,1.6-2.3
		V81h-3.3V79.6z"/>
	<path class="st0" d="M64.7,77.4c3.4,0,5.6,2.3,5.6,5c0,2.1-1.3,3.8-3.8,4.9c3,1.3,4.7,3.1,4.7,6c0,3.3-2.6,6.2-6.8,6.2
		s-6.7-2.8-6.7-5.9c0-2.4,1.6-4.4,4.5-5.5c-2.3-1.3-3.5-2.7-3.5-5.2C58.6,79.7,61.2,77.4,64.7,77.4"/>
	<path class="st2" d="M63.4,88.7c-2.3,1.2-3.8,3.1-3.8,5c0.1,2.6,2.4,4.6,5,4.5c2.3-0.1,4.2-1.9,4.4-4.2c0-1.8-1.2-3.1-3.6-4.2
		L63.4,88.7z"/>
	<path class="st2" d="M65.3,86.8c1.5-1.4,2.9-2.4,2.9-4.3c-0.1-2.1-1.9-3.7-4-3.6c-1.9,0.1-3.4,1.6-3.6,3.5c0,1.7,1.1,2.7,3.2,3.7
		L65.3,86.8z"/>
	<polygon class="st0" points="81.1,77.8 83.3,77.8 83.3,90.2 86.7,90.2 86.7,92.1 83.3,92.1 83.3,99.2 81.1,99.2 81.1,92.1 
		72.5,92.1 72.5,89.5 	"/>
	<polygon class="st2" points="81.1,90.2 81.1,80.2 73.7,90.2 	"/>
	<path class="st0" d="M88.6,77.8h8.5c0.6,0,0.8-0.1,0.8-0.7h0.9v3.2h-9l-0.2,5.4c1.1-0.4,2.2-0.5,3.4-0.5c4.4,0,7.1,2.9,7.1,7
		s-2.9,7.3-6.9,7.3s-6.2-3-6.2-4.8c-0.1-0.7,0.5-1.4,1.2-1.5c0.5,0,0.9,0.4,1.1,0.8c0.8,2.4,1.5,4,3.9,4c2.7,0,4.5-2.3,4.5-5.4
		c0-3.3-2-5.5-5.3-5.5c-1.5,0-2.9,0.3-4.3,0.9L88.6,77.8z"/>
	<rect x="31.4" y="71.5" class="st0" width="86.1" height="1.5"/>
	<rect x="31.2" y="104.2" class="st0" width="86.1" height="1.5"/>
	<path class="st0" d="M5.7,61.7c0,0-2.1,10.5,6.5,13.1c0,0-8.5,0-7.1,10.4"/>
	<path class="st2" d="M5.2,88.1c-1.5,0-0.5-29.7,1-29.5c1.6,0.2,2.8,1.5,2.7,3.1l-0.1,4.4c0.6,4.6,3.5,5.4,4.4,5.7
		c1.4,0.4,2.4,1.8,2.1,3.3c-0.2,1.5-1.5,2.6-3,2.6l0,0c-1.8,0-3.5,1.2-4,3l-0.1,4.4C8.1,86.7,6.8,88,5.2,88.1z"/>
	<path class="st2" d="M145,58.6c1.5,0,0.6,29.7-1,29.5s-2.1-1.6-2-3.1l-0.5-4.4c-0.6-4.6-3.5-5.4-4.4-5.7c-1.6-0.4-2.6-2.1-2.1-3.7
		c0.4-1.4,1.6-2.3,3-2.2l0,0c1.8,0,3.5-1.2,4-3l0.1-4.5C142.2,59.9,143.4,58.7,145,58.6z"/>
	<path class="st0" d="M84.2,123.3c0,5.1-4.2,9.3-9.3,9.3s-9.3-4.2-9.3-9.3c0-5.1,4.2-9.3,9.3-9.3C80,114,84.2,118.2,84.2,123.3"/>
	<path class="st3" d="M65.6,124.6c-0.1-0.4-0.1-0.9-0.1-1.3c0-0.5,0-1,0.1-1.5h18.5c0.1,0.5,0.2,1,0.2,1.5v1.3H65.6z"/>
	<path class="st3" d="M66.1,119.3c0,0,0.4-0.7,0.8-1.3c0.4-0.5,0.9-1,1.4-1.4h13.1c0.5,0.4,0.9,0.9,1.3,1.4c0.3,0.4,0.5,0.8,0.7,1.2
		H66.1V119.3z"/>
	<path class="st3" d="M68.5,130.1c0,0-0.8-0.6-1.4-1.1c-0.4-0.4-0.7-0.8-1-1.2h17.2c-0.3,0.4-0.6,0.8-1,1.2
		c-0.3,0.3-0.6,0.7-0.8,1.1H68.5z"/>
	<g class="st4">
		<path class="st5" d="M181,118.1c-1,2.6-3.1,4.7-5.8,5.6c-1.4,0.5-2.9,0.7-4.4,0.7c-1.7,0-3.3-0.3-4.9-1c-1.4-0.7-2.7-1.6-3.8-2.8
			c-1.1-1.3-1.9-2.8-2.4-4.4c-0.6-1.9-0.9-3.9-0.9-5.8c0-1.9,0.3-3.9,0.9-5.7c0.5-1.6,1.4-3.1,2.5-4.4c1.1-1.2,2.4-2.2,3.8-2.9
			c1.5-0.7,3.2-1,4.9-1c1.3,0,2.5,0.1,3.7,0.5c1,0.3,2,0.8,2.9,1.4c0.8,0.6,1.6,1.3,2.2,2.2c0.6,0.9,1.2,1.8,1.6,2.8l-5.2,2.2
			c-0.3-0.5-0.5-1-0.8-1.4c-0.6-0.9-1.5-1.5-2.5-1.9c-0.6-0.2-1.3-0.3-1.9-0.3c-1.9,0-3.7,0.9-4.8,2.4c-0.6,0.8-1,1.8-1.2,2.7
			c-0.6,2.3-0.6,4.7,0,7c0.2,1,0.7,1.9,1.3,2.8c0.5,0.8,1.2,1.4,2.1,1.8c0.8,0.4,1.8,0.7,2.7,0.7c0.8,0,1.6-0.1,2.4-0.3
			c0.6-0.2,1.1-0.5,1.6-0.9c0.4-0.4,0.7-0.8,0.9-1.3c0.2-0.5,0.4-1.1,0.4-1.7h-4.3v-5.2h9.8v3.6C181.9,115,181.6,116.6,181,118.1z"
			/>
		<path class="st5" d="M187.6,124V96.7h5.4v22h13.7v5.3L187.6,124z"/>
		<path class="st5" d="M232.5,116.2c-0.5,1.6-1.4,3.1-2.5,4.4c-1.1,1.2-2.4,2.2-3.8,2.8c-1.5,0.7-3.2,1-4.9,1c-1.7,0-3.4-0.3-4.9-1
			c-1.5-0.6-2.7-1.6-3.8-2.8c-1.1-1.3-1.9-2.8-2.4-4.4c-1.2-3.9-1.2-8,0-11.8c0.5-1.6,1.4-3.1,2.5-4.4c1.1-1.2,2.4-2.2,3.8-2.8
			c3.1-1.3,6.6-1.3,9.8,0c1.5,0.6,2.7,1.6,3.8,2.8c1.1,1.3,1.9,2.8,2.5,4.4C233.6,108.2,233.6,112.3,232.5,116.2L232.5,116.2z
			 M225.9,103.9c-1.1-1.5-2.8-2.3-4.7-2.3c-1.8-0.1-3.5,0.8-4.6,2.2c-1.3,1.9-1.9,4.1-1.7,6.4c-0.1,2.3,0.5,4.6,1.8,6.4
			c1.1,1.5,2.8,2.3,4.7,2.3c1.8,0.1,3.5-0.8,4.6-2.2c1.3-1.9,1.9-4.1,1.7-6.4C227.8,108.1,227.2,105.8,225.9,103.9z"/>
		<path class="st5" d="M260.3,119c-0.4,1.1-1.1,2-2,2.8c-0.9,0.8-1.9,1.3-3.1,1.7c-1.3,0.4-2.6,0.6-4,0.6h-12.3V96.7h12.5
			c2.3-0.1,4.5,0.5,6.3,1.9c1.6,1.3,2.5,3.3,2.4,5.4c0,1.1-0.2,2.2-0.8,3.1c-0.5,0.9-1.2,1.7-2.1,2.2c1.1,0.5,2,1.3,2.7,2.2
			c0.8,1.1,1.1,2.4,1.1,3.8C261,116.5,260.8,117.7,260.3,119z M253.7,102.4c-0.8-0.5-1.7-0.7-2.6-0.7h-7v5.2h7.2
			c0.9,0.1,1.7-0.2,2.4-0.7c0.5-0.5,0.7-1.2,0.7-1.8C254.5,103.6,254.2,102.9,253.7,102.4z M251.4,111.7h-7.3v7.1h7.3
			c1.1,0.1,2.1-0.3,3-1c0.7-0.7,1-1.6,1-2.6C255.4,112.9,254,111.7,251.4,111.7z"/>
		<path class="st5" d="M283.8,124l-2.1-6.1h-10l-2.1,6.1h-5.9l10.5-27.3h5.3l10.4,27.3H283.8z M278,107.7c-0.3-0.8-0.5-1.6-0.8-2.3
			s-0.4-1.4-0.6-1.9c-0.1,0.5-0.3,1.2-0.6,1.9s-0.5,1.5-0.8,2.3l-1.8,5h6.2L278,107.7z"/>
		<path class="st5" d="M294.9,124V96.7h5.4v22H314v5.3L294.9,124z"/>
		<path class="st5" d="M330.4,124V96.7h18.9v5.3h-13.5v4.7h7.8v5.3h-7.8v6.6h14.1v5.3L330.4,124z"/>
		<path class="st5" d="M371.4,124l-2.5-4.2l-0.8-1.4c-0.3-0.5-0.6-1-0.9-1.5s-0.5-1-0.8-1.4s-0.4-0.8-0.5-1l-0.5,1
			c-0.2,0.4-0.5,0.9-0.7,1.4s-0.6,1-0.9,1.5s-0.6,1-0.8,1.4l-2.5,4.1H354l8.7-14l-8.3-13.3h6.5l2.1,3.5l0.8,1.4
			c0.3,0.5,0.6,1,0.9,1.5l0.8,1.4c0.2,0.4,0.4,0.8,0.5,1c0.1-0.3,0.3-0.6,0.5-1s0.5-0.9,0.8-1.4l0.8-1.5c0.3-0.5,0.6-1,0.8-1.4
			l2.1-3.5h6.5l-8.3,13.3l8.7,14L371.4,124z"/>
		<path class="st5" d="M403.8,109.4c-0.5,1.1-1.2,2-2.1,2.8c-0.9,0.8-2,1.3-3.1,1.6c-1.3,0.3-2.6,0.5-3.9,0.5h-6v9.7h-5.4V96.7h11.9
			c1.2,0,2.5,0.2,3.6,0.5c1.1,0.3,2.1,0.9,3,1.6c0.9,0.7,1.5,1.7,2,2.7c0.5,1.2,0.8,2.5,0.7,3.8
			C404.5,106.7,404.3,108.1,403.8,109.4z M397.8,102.8c-0.9-0.6-1.9-0.9-2.9-0.8h-6.3v6.9h6.4c2.6,0,3.9-1.2,3.9-3.5
			C398.9,104.4,398.5,103.5,397.8,102.8L397.8,102.8z"/>
		<path class="st5" d="M409.7,124V96.7h18.9v5.3h-13.5v4.7h7.8v5.3h-7.8v6.6h14.1v5.3L409.7,124z"/>
		<path class="st5" d="M450.9,124l-4.9-9.8h-5.5v9.8h-5.4V96.7h12.7c1.2,0,2.5,0.2,3.6,0.5c1.1,0.3,2.1,0.9,3,1.6
			c0.9,0.7,1.5,1.7,2,2.7c1.2,2.9,0.9,6.1-0.6,8.9c-1,1.4-2.3,2.4-3.9,3l5.2,10.6L450.9,124z M450.5,102.8c-0.8-0.6-1.9-0.8-2.9-0.8
			h-7.2v7h7.2c2.6,0,3.9-1.2,3.9-3.5C451.7,104.5,451.3,103.5,450.5,102.8z"/>
		<path class="st5" d="M463.3,124V96.7h5.4V124H463.3z"/>
		<path class="st5" d="M476.2,124V96.7h18.9v5.3h-13.5v4.7h7.8v5.3h-7.8v6.6h14.1v5.3L476.2,124z"/>
		<path class="st5" d="M518.8,124l-10-14.9c-0.3-0.5-0.7-1.1-1.1-1.7c-0.3-0.5-0.6-0.9-0.8-1.4c0,0.3,0,0.6,0,1.2s0,1.1,0,1.7
			s0,1.1,0,1.7s0,1.1,0,1.4v12h-5.4V96.7h5.3l9.6,14.4c0.3,0.5,0.7,1.1,1.1,1.7c0.3,0.5,0.6,0.9,0.8,1.4c0-0.3,0-0.6,0-1.2
			s0-1,0-1.6s0-1.2,0-1.8s0-1.1,0-1.4V96.7h5.4V124H518.8z"/>
		<path class="st5" d="M546.3,104.6c-0.5-0.9-1.1-1.6-1.9-2.2c-0.9-0.6-2-0.8-3.1-0.8c-0.9,0-1.9,0.2-2.7,0.6
			c-0.8,0.4-1.5,1.1-2,1.8c-0.6,0.8-1,1.8-1.2,2.7c-0.3,1.1-0.4,2.3-0.4,3.5c0,1.2,0.1,2.3,0.4,3.4c0.3,1,0.7,1.9,1.3,2.8
			c0.5,0.8,1.2,1.4,2,1.8c0.8,0.4,1.8,0.7,2.7,0.7c1.1,0,2.2-0.2,3.1-0.8c0.9-0.7,1.7-1.6,2.3-2.7l4.6,2.7c-0.8,1.8-2.2,3.4-3.9,4.6
			c-1.9,1.1-4,1.7-6.2,1.6c-1.7,0-3.3-0.3-4.9-1c-1.5-0.7-2.7-1.6-3.8-2.8c-1.1-1.3-1.9-2.8-2.4-4.4c-0.6-1.9-0.9-3.9-0.9-5.8
			c0-1.9,0.3-3.9,0.9-5.7c0.5-1.6,1.4-3.1,2.5-4.4c1.1-1.2,2.4-2.2,3.8-2.9c1.5-0.7,3.2-1,4.9-1c1.2,0,2.3,0.1,3.5,0.4
			c1,0.3,1.9,0.7,2.8,1.2c0.8,0.5,1.5,1.2,2.1,1.9c0.6,0.8,1.1,1.6,1.6,2.4L546.3,104.6z"/>
		<path class="st5" d="M556.8,124V96.7h18.9v5.3h-13.5v4.7h7.8v5.3h-7.8v6.6h14.1v5.3L556.8,124z"/>
	</g>
</g>
<g id="Limestone_College">
	<path class="st0" d="M163.6,46.7c0-4.4-0.1-11.5-0.3-12.7c-0.1-1.7-0.5-2.4-2.5-2.4h-3.2c-0.4,0-0.5-0.4-0.5-0.7v-1.5
		c0-0.4,0.1-0.5,0.5-0.5c0.8,0,3.2,0.3,8.7,0.3c6.6,0,9.4-0.3,10-0.3s0.7,0.3,0.7,0.5v1.8c0,0.4-0.1,0.5-0.7,0.5h-4.1
		c-2.1,0-2.4,0.7-2.4,2.6c0,0.9-0.3,11.1-0.3,15.8v5.8c0,1.2,0,15.7,0.3,18.5c1.5,0.1,14.8,0.3,16.9,0c4-0.7,8.1-8.7,9-11.4
		c0.1-0.3,0.3-0.4,0.5-0.3l1.1,0.4c0.3,0.1,0.3,0.3,0.1,0.7c-0.2,0.4-2.9,11.6-3.3,13.5c-0.9-0.1-6.2-0.1-12.2-0.1
		s-12.7-0.1-16.2-0.1c-2.6,0-4.6,0.1-6.1,0.1c-1.3,0.1-2.1,0.1-2.6,0.1s-0.5-0.1-0.5-0.5V75c0-0.4,0.1-0.5,0.5-0.5h3.3
		c2.5,0,2.9-0.9,2.9-1.8c0-1.3,0.3-18.1,0.3-22.2v-3.8H163.6z"/>
	<path class="st0" d="M204,57.3c0-2.2-0.4-3.6-3.8-4.1c-0.5-0.1-0.7-0.3-0.7-0.5V52c0-0.3,0.1-0.4,0.5-0.5c2.5-0.9,5-2,7.3-3.3
		c0.4-0.3,0.8-0.4,1.3-0.4c0.4,0,0.4,0.4,0.4,0.8c-0.1,1.2-0.1,5.4-0.1,11V67c0,2.6,0,5,0.1,5.8c0.1,1.3,0.4,1.7,1.1,1.7h3.2
		c0.3,0,0.7,0.2,0.7,0.6c0,0,0,0.1,0,0.1v1.2c0,0.5-0.1,0.7-0.7,0.7s-3.7-0.3-6.5-0.3c-4,0-6.6,0.3-7.3,0.3c-0.4,0-0.5-0.1-0.5-0.5
		v-1.3c0-0.4,0.3-0.5,0.7-0.5h3.3c0.8,0,1.1-0.3,1.1-1.3c0.1-2,0.1-4.1,0.1-6.2v-9.8H204L204,57.3L204,57.3z M201,36.7
		c0.1-2.1,2-3.7,4.1-3.6c0,0,0,0,0,0c1.9-0.1,3.5,1.3,3.6,3.2c0,0,0,0.1,0,0.1c0,2-1.6,3.7-3.7,3.7c-0.1,0-0.2,0-0.3,0
		c-1.9,0.1-3.6-1.3-3.7-3.2C201,36.9,201,36.8,201,36.7z"/>
	<path class="st0" d="M238.7,59.7c0-5-0.9-6.3-2-7.3c-1.3-0.9-2.8-1.3-4.4-1.2c-4.2,0.1-7.6,3.7-7.4,7.9c0,0.2,0,0.4,0,0.6V73
		c0,1.1,0.4,1.7,1.3,1.7h2.4c0.7,0,0.7,0.1,0.7,0.7v1.1c0,0.5,0,0.8-0.5,0.8c-0.7,0-2.4-0.3-6.2-0.3c-3.6,0-5.7,0.3-6.3,0.3
		c-0.4,0-0.5-0.1-0.5-0.7v-1.2c0-0.5,0.1-0.7,0.8-0.7h2.2c0.7,0,0.9-0.4,1.1-1.7s0.1-2.4,0.1-3.6v-12c0.1-1.4-0.6-2.7-1.8-3.4
		l-1.5-0.8c-0.4-0.3-0.5-0.4-0.5-0.5v-0.5c0-0.2,0.2-0.4,0.4-0.5l5.9-3c0.4-0.2,0.8-0.4,1.3-0.4c0.4,0,0.7,0.5,0.7,0.9l0.3,4h0.3
		c2.4-3.1,6-5,9.9-5.2c3.6,0,6.2,2,7.7,5.2h0.4c2-2.6,5.8-5.2,9.9-5.2c2.4,0,4.5,0.4,6.1,2s3.3,3.2,3.3,8.3v15.1
		c0,1.1,0.7,1.3,1.5,1.3h1.8c0.7,0,0.8,0.1,0.8,0.7v1.2c0,0.5-0.1,0.7-0.5,0.7s-2.4-0.3-5.5-0.3c-3.4,0-5.8,0.3-6.3,0.3
		s-0.5-0.3-0.5-0.7v-1.2c0-0.5,0.1-0.7,0.9-0.7h1.7c0.6,0.1,1.2-0.4,1.3-1c0-0.1,0-0.2,0-0.3c0.1-1.6,0.1-4,0.1-5.4V58
		c0-2.2-0.4-4.2-2-5.4c-1.5-1-3.2-1.6-5-1.5c-2.4,0.2-4.6,1.5-5.8,3.6c-1.1,2-0.9,3.8-0.9,6.9v11.6c0,0.9,0.4,1.6,1.3,1.6h2.2
		c0.7,0,0.8,0.1,0.8,0.7v1.1c0,0.5-0.1,0.8-0.5,0.8s-2.2-0.3-6.1-0.3c-3.7,0-5.9,0.3-6.3,0.3s-0.5-0.3-0.5-0.7v-1.1
		c0-0.5,0.1-0.7,0.7-0.7h2c1.1,0,1.5-0.3,1.5-1.2C239.1,73.7,238.7,59.7,238.7,59.7z"/>
	<path class="st0" d="M272.3,59c-0.2,1.1-0.3,2.2-0.3,3.3c0,6.6,4.2,11.6,9.6,11.6c3.4,0.1,6.5-1.7,8.2-4.6c0.1-0.3,0.4-0.4,0.7-0.4
		l0.9,0.5c0.3,0.1,0.4,0.3,0,1.1c-1.2,2.6-4.8,7.4-10.7,7.4c-3.8,0-8.1-1.2-10.6-4.8c-2.4-3.4-3-5.9-3-10.7c0-4,1.5-7.8,4.2-10.7
		c2.6-2.5,6-3.8,9.6-3.6c7.8,0,9.9,7.3,9.9,9.9c0,0.9-0.8,1.1-1.8,1.1L272.3,59z M283,57.1c1.3,0,1.8-0.4,1.8-0.9
		c0-1.6-0.8-5.9-5.2-5.9c-2.9,0-5.8,2-7.1,7h10.4v-0.2L283,57.1z"/>
	<path class="st0" d="M295.9,75.8c-0.3-0.2-0.4-0.6-0.4-0.9l-1.2-6.5c-0.1-0.4,0.1-0.5,0.4-0.5l0.9-0.3c0.3-0.1,0.5,0.1,0.7,0.4
		l1.7,3.3c1.3,2.5,2.2,4.2,5.8,4.2c2.4,0,5.3-1.5,5.3-4.6s-1.5-4.8-6.6-6.2c-4-1.2-7.9-3.3-7.9-8.6c0-4.6,4.4-8.2,9.5-8.2
		c2.2-0.1,4.3,0.4,6.2,1.5c1.1,0.5,1.2,0.8,1.2,1.2l1.1,4.8c0,0.3-0.1,0.5-0.5,0.7l-0.8,0.3c-0.3,0.1-0.4,0-0.7-0.4l-2.2-3.2
		c-1-1.7-2.8-2.7-4.8-2.6c-2.5,0-5.2,1.6-5.2,4.5c0,4,3.2,4.6,6.5,5.5c4.9,1.5,8.1,3.4,8.1,8.6c-0.1,5.4-4.5,8.8-10.3,8.8
		C300.3,77.8,297.9,77.2,295.9,75.8z"/>
	<path class="st0" d="M325.4,68.5c0,5,2.2,5.9,3.6,5.9c1.6,0.1,3.1-0.2,4.5-0.9c0.4-0.3,0.7-0.1,0.8,0.1l0.4,0.7
		c0.3,0.3,0.1,0.5-0.1,0.8c-2.1,1.7-4.8,2.7-7.5,2.6c-3.3,0-6.6-3.2-6.6-5.7c0-2.8,0.3-8.7,0.3-9.6v-1.5c0-1.2,0.1-5.7,0.1-8.6h-4.1
		c-0.7,0-1.1-0.3-1.1-0.8s0.4-0.8,1.2-1.2c1.6-0.9,6.9-6.2,7.7-8.5c0.3-0.5,0.5-0.7,0.9-0.7s0.7,0.5,0.7,1.1l-0.4,6.7h9.4
		c0.4,0,0.7,0.4,0.5,0.7L335,52c-0.1,0.4-0.3,0.5-0.7,0.5h-8.8c-0.1,3.2-0.3,6.3-0.3,9.5v6.3h0.2L325.4,68.5L325.4,68.5z"/>
	<path class="st0" d="M339.1,73.2c-3.2-3.7-3.7-6.2-3.7-11c0.2-4.3,2.3-8.3,5.8-10.8c2.6-2,5.8-3.2,9.1-3.3c3.6,0.1,7,1.5,9.5,4
		c3,2.9,4.6,6.9,4.6,11c0,7.4-6.6,14.8-14.9,14.8C345.6,77.9,341.8,76.2,339.1,73.2z M358.7,62.3c0-7.5-5.4-12.3-8.8-12.3
		c-2-0.1-3.9,0.7-5.2,2.1c-2.6,2.6-3.6,5.4-3.6,10.6c0,3.8,0.4,6.3,2.5,9.5c1.5,2.3,4,3.6,6.7,3.6C355.4,75.8,358.7,69.5,358.7,62.3
		z"/>
	<path class="st0" d="M393.5,73.3c-0.1,0.7,0.5,1.4,1.2,1.5c0.1,0,0.2,0,0.3,0h2.1c0.7,0,0.8,0.3,0.8,0.7v1.1c0,0.5-0.1,0.8-0.5,0.8
		s-2.5-0.3-6.5-0.3c-3.4,0-5.5,0.3-6.1,0.3c-0.4,0-0.5-0.3-0.5-0.8v-1.1c0-0.5,0.3-0.7,0.9-0.7h2c0.8,0,1.3-0.4,1.3-1.6
		c0.1-1.7,0.1-4,0.1-5.7v-8.8c0-2.6,0-4.6-2-6.1c-1.4-1-3.2-1.4-4.9-1.2c-2.1,0.1-4,1.1-5.4,2.6c-1.1,1.3-1.6,2.9-1.6,4.6v14
		c0,1.8,0.3,2.2,1.6,2.2h1.7c0.3,0,0.7,0.2,0.7,0.6c0,0,0,0.1,0,0.1v1.2c0,0.4-0.1,0.7-0.5,0.7s-2.2-0.3-5.8-0.3
		c-3.4,0-5.5,0.3-6.1,0.3c-0.4,0-0.5-0.3-0.5-0.7v-1.2c0-0.4,0.1-0.7,0.7-0.7h2c0.9,0,1.3-0.3,1.3-1.3V57.7c0-1.8-1.1-3.4-2.8-4
		l-0.5-0.3c-0.5-0.3-0.5-0.4-0.5-0.7v-0.4c0-0.4,0.3-0.5,0.7-0.7l5.8-3.3c0.4-0.3,0.8-0.4,1.2-0.5c0.4,0,0.5,0.3,0.5,0.8l0.5,4.1
		h0.1c2-2.4,5.8-4.9,9.2-4.9c2-0.1,4,0.4,5.7,1.5c2,1.6,3.4,3.9,3.7,6.5L393.5,73.3L393.5,73.3z"/>
	<path class="st0" d="M403.7,59c-0.2,1.1-0.3,2.2-0.3,3.3c0,6.6,4.2,11.6,9.6,11.6c3.4,0.1,6.5-1.7,8.2-4.6c0.1-0.3,0.4-0.4,0.7-0.4
		l0.9,0.5c0.3,0.1,0.4,0.3,0,1.1c-1.2,2.6-4.8,7.4-10.7,7.4c-3.8,0-8.1-1.2-10.6-4.8c-2.4-3.4-2.9-5.9-2.9-10.7
		c0-4,1.5-7.8,4.2-10.7c2.6-2.5,6-3.8,9.6-3.6c7.8,0,9.9,7.3,9.9,9.9c0,0.9-0.8,1.1-1.8,1.1L403.7,59z M414.4,57.1
		c1.3,0,1.8-0.4,1.8-0.9c0-1.6-0.8-5.9-5.2-5.9c-2.9,0-5.8,2-7.1,7h10.4v-0.2L414.4,57.1z"/>
	<path class="st0" d="M448.9,71.8c-4.9-4.6-7.3-12.4-7.3-18.9c-0.1-6.6,2.3-13,6.9-17.8c4.5-4.5,10.6-7,16.9-6.9
		c4.8,0,9.5,1.3,13.6,3.7c0.9,0.5,1.2,0.5,1.3,0l0.5-2c0.1-0.4,0.3-0.4,0.9-0.4s0.8,0.1,0.8,1.1c0,1.3,1.3,11.2,1.7,13.1
		c0.1,0.4,0,0.7-0.3,0.7l-1.1,0.3c-0.4,0.1-0.5,0-0.7-0.5c-1.2-3.1-3-5.9-5.3-8.3c-3-3.3-7.3-5.2-11.8-5.2
		c-12.2,0-16.9,10.7-16.9,20.6c0,4,1.2,11.5,6.5,17.3c4.6,5.2,8.5,5.7,12.9,5.7c6.6,0,12.8-3.2,16.6-8.6c0.3-0.4,0.4-0.4,0.5-0.3
		l0.9,0.7c0.3,0.1,0.4,0.3,0.1,0.7c-4.1,5.8-10.6,11.4-20.1,11.4C459.4,78.3,453.4,76,448.9,71.8z"/>
	<path class="st0" d="M492.5,73.2c-3.2-3.7-3.7-6.2-3.7-11c0.2-4.3,2.3-8.3,5.8-10.8c2.6-2,5.8-3.2,9.1-3.3c3.6,0.1,7,1.5,9.5,4
		c3,2.9,4.6,6.9,4.6,11c0,7.4-6.6,14.8-14.9,14.8C499,77.9,495.2,76.2,492.5,73.2z M512,62.3c0-7.5-5.4-12.3-8.8-12.3
		c-2-0.1-3.9,0.7-5.2,2.1c-2.6,2.6-3.6,5.4-3.6,10.6c0,3.8,0.4,6.3,2.5,9.5c1.5,2.3,4,3.6,6.7,3.6C508.7,75.8,512,69.5,512,62.3z"/>
	<path class="st0" d="M528.9,56.9c0,3.6,0,13.7,0.1,15.8c0.1,1.2,0.4,2.1,1.7,2.1h3c0.7,0,0.8,0.3,0.8,0.7v1.2
		c0,0.4-0.1,0.7-0.4,0.7c-0.5,0-3.4-0.3-7.7-0.3s-7,0.3-7.7,0.3c-0.4,0-0.5-0.3-0.5-0.7v-1.2c0-0.5,0.1-0.7,0.9-0.7h3.3
		c0.8,0,1.5-0.5,1.5-1.7C524,71,524,59.4,524,55.5v-4.3c0-4.8-0.1-11-0.3-12.7c-0.1-2.2-1.2-3.4-3.4-4.1l-1.3-0.5
		c-0.4-0.1-0.4-0.3-0.4-0.4V33c0-0.3,0.3-0.4,0.7-0.5c2.8-1.1,5.4-2.4,7.9-4c0.4-0.3,1-0.5,1.5-0.5c0.5,0,0.7,0.4,0.5,1.2
		c0,3.7-0.3,17.7-0.3,21.5L528.9,56.9L528.9,56.9z"/>
	<path class="st0" d="M544.9,56.9c0,3.6,0,13.7,0.1,15.8c0.1,1.2,0.4,2.1,1.7,2.1h3c0.7,0,0.8,0.3,0.8,0.7v1.2
		c0,0.4-0.1,0.7-0.4,0.7c-0.5,0-3.4-0.3-7.7-0.3s-7,0.3-7.7,0.3c-0.4,0-0.5-0.3-0.5-0.7v-1.2c0-0.5,0.1-0.7,0.9-0.7h3.3
		c0.8,0,1.5-0.5,1.5-1.7C540,71,540,59.4,540,55.5v-4.3c0-4.8-0.1-11-0.3-12.7c-0.1-2.2-1.2-3.4-3.4-4.1l-1.3-0.5
		c-0.4-0.1-0.4-0.3-0.4-0.4V33c0-0.3,0.3-0.4,0.7-0.5c2.8-1.1,5.4-2.4,7.9-4c0.4-0.3,1-0.5,1.5-0.5c0.5,0,0.7,0.4,0.5,1.2
		c0,3.7-0.3,17.7-0.3,21.5L544.9,56.9L544.9,56.9z"/>
	<path class="st0" d="M556.9,59c-0.2,1.1-0.3,2.2-0.3,3.3c0,6.6,4.2,11.6,9.6,11.6c3.4,0.1,6.5-1.7,8.2-4.6c0.1-0.3,0.4-0.4,0.7-0.4
		l0.9,0.5c0.3,0.1,0.4,0.3,0,1.1c-1.2,2.6-4.8,7.4-10.7,7.4c-3.8,0-8.1-1.2-10.6-4.8c-2.4-3.4-2.9-5.9-2.9-10.7
		c0-4,1.5-7.8,4.2-10.7c2.6-2.5,6-3.8,9.6-3.6c7.8,0,9.9,7.3,9.9,9.9c0,0.9-0.8,1.1-1.8,1.1L556.9,59z M567.6,57.1
		c1.3,0,1.8-0.4,1.8-0.9c0-1.6-0.8-5.9-5.2-5.9c-2.9,0-5.8,2-7.1,7h10.4L567.6,57.1L567.6,57.1z"/>
	<path class="st0" d="M579.9,93.2c-2.4-1.5-3.4-3.3-3.4-5.4c0-3.8,3.8-6.7,7.1-8.1v-0.3c-2.8-0.7-4.5-2.6-4.5-4.8
		c0-3.3,3.7-5.5,6.1-6.5V68c-4-1.8-6.5-5.9-6.3-10.3c0-4.4,4-9.8,11.5-9.8c3.3,0,6.4,1.4,8.5,4c1.8-1.3,4.1-2.6,6.3-2.6
		s3.3,1.5,3.2,2.8c0,1.4-1.2,2.5-2.6,2.5c-0.9,0-1.8-0.4-2.4-1.1c-0.4-0.4-0.9-0.6-1.5-0.7c-0.7,0-1.4,0.1-2.1,0.4
		c0.7,1.6,1.1,3.4,1.1,5.2c0,2.6-0.9,5.2-2.5,7.3c-1.7,2-5.5,3.4-7.8,3.4c-1.1,0-2.3-0.1-3.4-0.4c-1.3,0.5-3.6,1.8-3.6,3.8
		c0,2.8,3.4,2.5,7.9,2.2c5.5-0.3,8.8,0.4,11.6,2.4c2.1,1.5,3.4,3.9,3.3,6.5c0,3.2-1.2,5.8-4.5,8.3c-1.7,1.3-5.8,3.2-11.5,3.2
		C586.8,95.6,583.1,94.9,579.9,93.2z M602.2,86.2c0-4-3-7-9.8-6.6l-6.5,0.5c-2.1,0.5-5.4,2.8-5.4,6.5c0.2,1.8,1.1,3.5,2.6,4.6
		c2.2,1.6,4.6,1.8,9.5,1.8C595.1,93.2,602.6,91.4,602.2,86.2z M596,57.4c0-2.9-0.7-4.8-1.8-6.1c-0.9-0.9-2.1-1.4-3.3-1.5
		c-1.8-0.1-3.5,0.6-4.8,1.8c-2.1,2.2-2.4,5.4-2.4,7.9c0,2.1,0.7,4.2,2.1,5.8c1.1,1.1,2.6,1.8,4.1,1.7C594.4,67.4,596,61.7,596,57.4z
		"/>
	<path class="st0" d="M614.1,59c-0.2,1.1-0.3,2.2-0.3,3.3c0,6.6,4.2,11.6,9.6,11.6c3.4,0.1,6.5-1.7,8.2-4.6c0.1-0.3,0.4-0.4,0.7-0.4
		l0.9,0.5c0.3,0.1,0.4,0.3,0,1.1c-1.2,2.6-4.8,7.4-10.7,7.4c-3.8,0-8.1-1.2-10.6-4.8c-2.4-3.4-2.9-5.9-2.9-10.7
		c0-4,1.5-7.8,4.2-10.7c2.6-2.5,6-3.8,9.6-3.6c7.8,0,9.9,7.3,9.9,9.9c0,0.9-0.8,1.1-1.8,1.1L614.1,59z M624.8,57.1
		c1.3,0,1.8-0.4,1.8-0.9c0-1.6-0.8-5.9-5.2-5.9c-2.9,0-5.8,2-7.1,7h10.4C624.7,57.3,624.8,57.1,624.8,57.1z"/>
</g>
<g id="Layer_2">
	<g>
		<path class="st6" d="M157.9,99.6c0-4.5,3.5-7.3,7.5-7.3c1.9,0,3.7,0.5,4.9,1.4v3.2c-1.1-1-2.6-1.6-4.3-1.6c-2.3,0-4.1,1.5-4.1,4.3
			c0,2.8,1.8,4.3,4.1,4.3c1.7,0,3.2-0.7,4.3-1.6v3.2c-1.2,0.9-3,1.4-4.9,1.4C161.3,106.8,157.9,104.1,157.9,99.6z"/>
		<path class="st6" d="M177,92.6h3.2l5.8,13.9h-3.7l-1.2-3h-5.1l-1.2,3h-3.6L177,92.6z M180.2,101.1l-1.7-4.4l-1.7,4.4H180.2z"/>
		<path class="st6" d="M200,106.5h-4.1l-3.6-5.4h-1v5.4h-3.8V92.6h6.3c3.4,0,4.8,2,4.8,4.3c0,1.9-1,3.4-2.7,3.9L200,106.5z
			 M192.8,98.8c1.4,0,2.1-0.6,2.1-1.8c0-1.2-0.6-1.9-2.1-1.9h-1.6v3.7H192.8z"/>
		<path class="st6" d="M201.4,92.6h9.7v2.8h-5.9v2.3h4.8v2.8h-4.8v3.1h5.9v2.8h-9.7V92.6z"/>
		<path class="st6" d="M213.4,92.6h9.7v2.8h-5.9v2.3h4.8v2.8h-4.8v3.1h5.9v2.8h-9.7V92.6z"/>
		<path class="st6" d="M237.9,106.5h-4.1l-3.6-5.4h-1v5.4h-3.8V92.6h6.3c3.4,0,4.8,2,4.8,4.3c0,1.9-1,3.4-2.7,3.9L237.9,106.5z
			 M230.8,98.8c1.4,0,2.1-0.6,2.1-1.8c0-1.2-0.6-1.9-2.1-1.9h-1.6v3.7H230.8z"/>
		<path class="st6" d="M261.4,92.2h5.9c3.5,0,5.1,2.1,5.1,4.7c0,2.6-1.6,4.7-5.1,4.7h-2.2v4.6h-3.8V92.2z M266.4,99.1
			c1.6,0,2.3-0.8,2.3-2.2c0-1.3-0.7-2.2-2.3-2.2h-1.3v4.4H266.4z"/>
		<path class="st6" d="M286.5,106.2h-4.1l-3.6-5.4h-1v5.4H274V92.2h6.3c3.4,0,4.8,2,4.8,4.3c0,1.9-1,3.4-2.7,3.9L286.5,106.2z
			 M279.4,98.4c1.4,0,2.1-0.6,2.1-1.8c0-1.2-0.6-1.9-2.1-1.9h-1.6v3.7H279.4z"/>
		<path class="st6" d="M287.3,99.2c0-4.3,3.5-7.3,7.7-7.3c4.2,0,7.7,3.1,7.7,7.3c0,4.3-3.4,7.3-7.7,7.3
			C290.7,106.5,287.3,103.5,287.3,99.2z M298.7,99.2c0-2.7-1.4-4.4-3.7-4.4c-2.3,0-3.7,1.7-3.7,4.4c0,2.7,1.4,4.4,3.7,4.4
			C297.3,103.6,298.7,101.9,298.7,99.2z"/>
		<path class="st6" d="M304.8,92.2h9.4v2.8h-5.6v2.5h4.5v2.8h-4.5v5.8h-3.8V92.2z"/>
		<path class="st6" d="M315.6,92.2h9.7v2.8h-5.9v2.3h4.8v2.8h-4.8v3.1h5.9v2.8h-9.7V92.2z"/>
		<path class="st6" d="M326.7,104.6l0.8-2.7c1,0.9,2.6,1.9,4.4,1.9c1.1,0,2-0.4,2-1.4c0-0.9-0.6-1.2-2.6-1.7
			c-3.2-0.7-4.3-2.4-4.3-4.5c0-2.5,2-4.2,5.1-4.2c1.8,0,3.5,0.6,4.6,1.4l-0.8,2.5c-1-0.6-2.5-1.2-3.8-1.2c-1,0-1.6,0.4-1.6,1.1
			c0,0.6,0.4,1,2,1.4c3.5,0.8,4.9,2.3,4.9,4.8c0,3.3-2.6,4.5-5.5,4.5C329.6,106.4,327.8,105.5,326.7,104.6z"/>
		<path class="st6" d="M338.5,104.6l0.8-2.7c1,0.9,2.6,1.9,4.4,1.9c1.1,0,2-0.4,2-1.4c0-0.9-0.6-1.2-2.6-1.7
			c-3.2-0.7-4.3-2.4-4.3-4.5c0-2.5,2-4.2,5.1-4.2c1.8,0,3.5,0.6,4.6,1.4l-0.8,2.5c-1-0.6-2.5-1.2-3.8-1.2c-1,0-1.6,0.4-1.6,1.1
			c0,0.6,0.4,1,2,1.4c3.5,0.8,4.9,2.3,4.9,4.8c0,3.3-2.6,4.5-5.5,4.5C341.3,106.4,339.5,105.5,338.5,104.6z"/>
		<path class="st6" d="M351.1,92.2h3.8v13.9h-3.8V92.2z"/>
		<path class="st6" d="M357,99.2c0-4.3,3.5-7.3,7.7-7.3c4.2,0,7.7,3.1,7.7,7.3c0,4.3-3.4,7.3-7.7,7.3
			C360.5,106.5,357,103.5,357,99.2z M368.4,99.2c0-2.7-1.4-4.4-3.7-4.4c-2.3,0-3.7,1.7-3.7,4.4c0,2.7,1.4,4.4,3.7,4.4
			C367,103.6,368.4,101.9,368.4,99.2z"/>
		<path class="st6" d="M374.5,92.2h2.9l6.3,8v-8h3.3v13.9h-2.9l-6.3-8v8h-3.3V92.2z"/>
		<path class="st6" d="M394.3,92.2h3.2l5.8,13.9h-3.7l-1.2-3h-5.1l-1.2,3h-3.6L394.3,92.2z M397.5,100.8l-1.7-4.4l-1.7,4.4H397.5z"
			/>
		<path class="st6" d="M404.8,92.2h3.8v11.1h5.9v2.8h-9.7V92.2z"/>
		<path class="st6" d="M421.3,91.8h5.4c5.7,0,8.1,3.1,8.1,7c0,3.8-2.3,7-8.1,7h-5.4V91.8z M426.4,102.9c3.1,0,4.5-1.3,4.5-4.1
			c0-2.8-1.4-4.1-4.5-4.1H425v8.1H426.4z"/>
		<path class="st6" d="M436.9,91.8h9.7v2.8h-5.9V97h4.8v2.8h-4.8v3.1h5.9v2.8h-9.7V91.8z"/>
		<path class="st6" d="M447.5,91.8h3.9l3.5,8.9l3.5-8.9h3.8l-5.8,13.9h-3L447.5,91.8z"/>
		<path class="st6" d="M463.7,91.8h9.7v2.8h-5.9V97h4.8v2.8h-4.8v3.1h5.9v2.8h-9.7V91.8z"/>
		<path class="st6" d="M475.7,91.8h3.8v11.1h5.9v2.8h-9.7V91.8z"/>
		<path class="st6" d="M486,98.8c0-4.3,3.5-7.3,7.7-7.3c4.2,0,7.7,3.1,7.7,7.3c0,4.3-3.4,7.3-7.7,7.3
			C489.5,106.1,486,103.1,486,98.8z M497.4,98.8c0-2.7-1.4-4.4-3.7-4.4c-2.3,0-3.7,1.7-3.7,4.4c0,2.7,1.4,4.4,3.7,4.4
			C496.1,103.2,497.4,101.5,497.4,98.8z"/>
		<path class="st6" d="M503.6,91.8h5.9c3.5,0,5.1,2.1,5.1,4.7c0,2.6-1.6,4.7-5.1,4.7h-2.2v4.6h-3.8V91.8z M508.6,98.7
			c1.6,0,2.3-0.8,2.3-2.2c0-1.3-0.7-2.2-2.3-2.2h-1.3v4.4H508.6z"/>
		<path class="st6" d="M516.2,91.8h4.2l3.8,8.8l3.8-8.8h4.1v13.9h-3.3v-7.6c0-0.3,0.1-1.4,0.1-1.5l-0.5,1.5l-3.1,7.6h-2.2l-3.1-7.6
			c-0.1-0.3-0.5-1.3-0.5-1.5c0,0.1,0.1,1.2,0.1,1.5v7.6h-3.2V91.8z"/>
		<path class="st6" d="M534.8,91.8h9.7v2.8h-5.9V97h4.8v2.8h-4.8v3.1h5.9v2.8h-9.7V91.8z"/>
		<path class="st6" d="M546.9,91.8h2.9l6.3,8v-8h3.3v13.9h-2.9l-6.3-8v8h-3.3V91.8z"/>
		<path class="st6" d="M565.3,94.7h-4.5v-2.8h12.7v2.8h-4.5v11.1h-3.8V94.7z"/>
	</g>
	<g>
		<path class="st6" d="M242.1,102.9c0-1.7,1.1-2.8,2.4-3.7c-0.7-1.1-1-2.2-1-3.1c0-2.1,2-3.6,4.4-3.6c2.3,0,3.8,1.4,3.8,3.1
			c0,1.9-1.8,2.9-3.5,3.9c0.6,0.9,1.3,1.6,1.9,2.2c0.1-0.4,0.2-1.9,0.2-2.6h4.5v2.1h-2.1c0,0.8-0.2,1.8-0.6,2.6
			c0.6,0.6,1.1,0.7,1.6,0.7s1.1-0.3,1.7-0.9l1.1,1.4c-0.9,1.4-2.3,1.8-3.2,1.8c-0.9,0-1.8-0.2-2.9-0.9c-0.8,0.6-1.8,0.9-3.1,0.9
			C244.5,106.8,242.1,105.4,242.1,102.9z M248.6,104.2c-0.9-0.8-1.9-1.8-2.7-3c-0.3,0.4-0.5,0.8-0.5,1.3c0,1,0.7,1.9,2.1,1.9
			C247.8,104.5,248.2,104.4,248.6,104.2z M248.8,95.6c0-0.5-0.4-1-1.1-1c-0.9,0-1.3,0.8-1.3,1.4c0,0.6,0.2,1.2,0.5,1.7
			C248,97.2,248.8,96.5,248.8,95.6z"/>
	</g>
</g>
</svg>
