<?xml version="1.0" encoding="utf-8"?>
<!-- Generator: Adobe Illustrator 24.2.1, SVG Export Plug-In . SVG Version: 6.00 Build 0)  -->
<svg version="1.1" id="Layer_1" xmlns="http://www.w3.org/2000/svg" xmlns:xlink="http://www.w3.org/1999/xlink" x="0px" y="0px"
	 viewBox="0 0 5976 1080" style="enable-background:new 0 0 5976 1080;" xml:space="preserve">
<style type="text/css">
	.st0{fill:none;}
	.st1{fill:#FFFFFF;}
	.st2{fill:#0033A1;}
	.st3{fill:url(#SVGID_1_);}
	.st4{fill:#9594D2;}
	.st5{fill:#E6E7F5;}
	.st6{fill:#C4C5E7;}
</style>
<rect x="3437.88" y="2347.34" class="st0" width="2537.29" height="377.77"/>
<g>
	<g>
		<path class="st1" d="M1077.93,686.59c0,11.66,0,24.36,11.03,33.73c5.62,4.79,15.2,7.91,22.9,7.91c7.7,0,17.28-3.12,22.9-7.91
			c11.03-9.37,11.03-22.07,11.03-33.73v-85.15h15.41v89.31c0,11.66-1.25,22.9-8.74,33.31c-8.33,11.45-22.9,18.74-40.6,18.74
			s-32.27-7.29-40.6-18.74c-7.49-10.41-8.74-21.65-8.74-33.31v-89.31h15.41L1077.93,686.59L1077.93,686.59z"/>
		<path class="st1" d="M1301.11,740.3V595.61l108.26,113.46V601.44h15.41v145.11l-108.26-113.46V740.3H1301.11z"/>
		<path class="st1" d="M1580.1,601.44V740.3h-15.41V601.44H1580.1z"/>
		<path class="st1" d="M1720.83,601.44l39.14,105.97l39.14-105.97h17.07l-56.21,147.19l-56.21-147.19L1720.83,601.44L1720.83,601.44
			z"/>
		<path class="st1" d="M2011.89,616.02h-56.63v41.22h54.96v14.57h-54.96v53.92h56.63v14.57h-72.03V601.44h72.03V616.02z"/>
		<path class="st1" d="M2166.58,601.44c9.37,0,23.32,0.63,33.73,7.7c8.12,5.41,15.2,16.03,15.2,30.81
			c0,21.24-13.95,36.85-34.97,38.31l44.13,62.04h-18.74l-42.26-60.79h-3.95v60.79h-15.4V601.44H2166.58z M2159.71,665.77h9.79
			c19.15,0,30.6-9.16,30.6-25.4c0-7.7-2.29-15.4-11.03-20.4c-6.25-3.54-13.32-3.95-19.99-3.95h-9.37V665.77z"/>
		<path class="st1" d="M2414.96,628.92c-1.87-3.75-5-7.91-8.12-10.41c-2.71-2.08-7.7-4.79-15.61-4.79
			c-13.74,0-23.32,8.54-23.32,21.44c0,5.41,1.46,8.54,5.21,12.07c4.16,4.16,9.37,6.46,14.57,8.75l13.32,5.83
			c8.12,3.54,15.61,7.29,21.44,13.12c7.08,7.08,9.99,15.2,9.99,25.19c0,25.6-18.95,42.68-43.93,42.68
			c-9.16,0-20.61-1.87-30.19-11.24c-6.87-6.66-11.03-16.24-12.91-24.57l14.99-4.16c1.04,7.29,4.37,13.53,8.33,17.7
			c6.04,6.04,12.91,7.71,19.99,7.71c18.95,0,27.9-13.53,27.9-27.48c0-6.25-1.87-11.66-6.87-16.24c-3.95-3.75-9.37-6.25-16.66-9.58
			l-12.49-5.83c-5.42-2.5-12.28-5.41-18.53-11.45c-6.04-5.83-9.58-12.28-9.58-22.69c0-21.44,16.44-35.81,38.93-35.81
			c8.54,0,15.4,1.67,22.27,6.25c5.62,3.75,10.41,9.37,13.53,15.41L2414.96,628.92z"/>
		<path class="st1" d="M2580.27,601.44V740.3h-15.4V601.44H2580.27z"/>
		<path class="st1" d="M2754.32,616.02V740.3h-15.4V616.02h-33.73v-14.57h82.86v14.57H2754.32z"/>
		<path class="st1" d="M2946.69,680.55l-45.59-79.11h17.9l35.39,62.04l35.81-62.04h17.9l-46.01,79.11v59.75h-15.41v-59.75H2946.69z"
			/>
	</g>
	<g>
		<path class="st1" d="M976.13,498.56v-5.98l7.31-0.33c17.62-0.66,22.93-7.31,22.93-28.58V311.44c0-21.27-5.32-27.59-22.93-28.25
			l-7.31-0.33v-5.98h95.39v5.98l-7.31,0.33c-17.62,0.66-22.93,6.98-22.93,28.25v144.24c-0.33,25.26,0.67,25.92,26.92,26.59h28.25
			c32.24,0,48.86-12.63,61.49-46.2l6.98,1.99l-19.61,60.49H976.13V498.56z"/>
		<path class="st1" d="M1211.75,276.87h95.39v5.98l-7.31,0.33c-17.62,0.66-22.93,6.98-22.93,28.25v152.55
			c0,21.27,5.32,27.59,22.93,28.25l7.31,0.33v5.98h-95.39v-5.98l7.31-0.33c17.62-0.66,22.93-6.98,22.93-28.25V311.44
			c0-21.27-5.32-27.59-22.93-28.25l-7.31-0.33V276.87z"/>
		<path class="st1" d="M1403.51,322.74v141.25c0,21.27,5.32,27.59,22.93,28.25l8.31,0.33v5.98h-77.77v-5.98l7.31-0.33
			c17.62-0.66,22.93-6.98,22.93-28.25V311.44c0-21.27-5.32-27.59-22.93-28.25l-7.31-0.33v-5.98h63.81l75.45,164.52l71.79-164.52
			h65.14v5.98l-7.31,0.33c-17.62,0.66-22.93,6.98-22.93,28.25v152.55c0,21.27,5.32,27.59,22.93,28.25l7.31,0.33v5.98h-94.39v-5.98
			l6.31-0.33c17.62-0.66,22.93-6.98,22.93-28.25V320.75l-79.1,177.81h-5.32L1403.51,322.74z"/>
		<path class="st1" d="M1748.15,459.67c0,21.27,1.99,24.26,18.28,23.93h39.88c35.23-0.67,48.52-9.97,62.15-43.21l5.32,2.33
			l-18.94,55.84h-171.83v-5.98l7.31-0.33c17.95-0.66,22.93-6.98,22.93-28.25V311.44c0-21.27-4.99-27.59-22.93-28.25l-7.31-0.33
			v-5.98h168.51l3.32,50.19l-5.65,0.66c-3.66-30.24-14.62-38.55-49.52-37.89h-51.52v83.75h56.17c18.94,0.33,25.92-8.64,25.59-33.24
			h5.98v80.76h-5.98c0.67-23.6-5.98-32.24-25.59-32.57h-56.17V459.67z"/>
		<path class="st1" d="M1937.25,498.56v-75.11h6.65c2.66,18.28,5.32,26.92,12.3,37.23c10.64,15.95,27.59,25.92,45.2,25.92
			c21.6,0,38.55-15.62,38.55-35.89c0-10.31-3.65-18.28-13.29-27.92c-5.98-6.65-13.96-12.63-21.27-16.95l-25.92-14.96
			c-30.91-17.61-43.54-34.9-43.54-58.83c0-34.23,23.93-57.5,58.83-57.5c9.97,0,17.28,1.33,30.58,5.65
			c13.3,4.32,14.29,4.65,17.28,4.65c4.32,0,6.98-2.33,9.31-7.98h6.98l-0.33,70.46h-5.98c-7.65-25.26-12.96-36.56-21.6-45.53
			c-7.98-8.31-18.94-12.63-31.91-12.63c-20.27,0-34.9,12.63-34.9,30.24c0,13.3,11.63,27.25,32.57,39.22l25.92,14.95
			c34.23,19.61,49.85,40.22,49.85,66.14c0,35.56-27.25,61.15-65.47,61.15c-12.96,0-12.96,0-40.55-8.64
			c-4.98-1.66-9.64-2.66-12.63-2.66c-5.32,0-7.98,2.33-9.97,8.97h-6.66V498.56z"/>
		<path class="st1" d="M2168.56,492.57l7.64-0.33c17.61-0.66,22.93-6.98,22.93-28.25V293.16h-29.91
			c-28.58-0.33-39.22,9.97-40.88,38.22l-6.32-0.67l3.33-53.84h182.13l3.32,53.84l-6.32,0.67c-1.33-28.25-12.3-38.55-40.88-38.22
			h-29.58v170.83c0,21.27,4.98,27.59,22.93,28.25l7.31,0.33v5.98h-95.72v-5.98H2168.56z"/>
		<path class="st1" d="M2572.03,387.55c0,32.24-10.97,61.15-31.57,82.43c-19.94,20.94-44.2,30.91-75.11,30.91
			c-60.16,0-105.36-48.53-105.36-113.33c0-64.48,45.2-113,105.36-113C2526.49,274.55,2572.03,322.74,2572.03,387.55z
			 M2398.87,387.88c0,59.16,26.92,100.04,66.14,100.04c41.21,0,68.13-39.88,68.13-100.37c0-59.49-27.59-100.04-68.13-100.04
			C2425.46,287.51,2398.87,328.06,2398.87,387.88z"/>
		<path class="st1" d="M2677.7,326.06v137.93c0,21.27,5.32,27.59,22.93,28.25l7.32,0.33v5.98h-76.78v-5.98l7.31-0.33
			c17.62-0.66,22.93-6.98,22.93-28.25V306.45c-19.94-20.61-23.93-22.93-42.54-23.6v-5.98h65.48l131.28,153.22V311.44
			c0-21.27-5.32-27.59-22.93-28.25l-7.31-0.33v-5.98h76.78v5.98l-7.31,0.33c-17.62,0.66-22.93,6.98-22.93,28.25v187.12h-5.32
			L2677.7,326.06z"/>
		<path class="st1" d="M2976.47,459.67c0,21.27,1.99,24.26,18.28,23.93h39.88c35.23-0.67,48.52-9.97,62.15-43.21l5.32,2.33
			l-18.94,55.84h-171.83v-5.98l7.31-0.33c17.95-0.66,22.93-6.98,22.93-28.25V311.44c0-21.27-4.99-27.59-22.93-28.25l-7.31-0.33
			v-5.98h168.5l3.32,50.19l-5.65,0.66c-3.66-30.24-14.62-38.55-49.52-37.89h-51.52v83.75h56.17c18.94,0.33,25.92-8.64,25.59-33.24
			h5.98v80.76h-5.98c0.66-23.6-5.98-32.24-25.59-32.57h-56.17v71.13H2976.47z"/>
	</g>
</g>
<g>
	<path class="st2" d="M764.48,679.88c-3.62,6.32-7.47,12.64-11.53,18.96c-31.53,49.02-76.11,97.93-132.51,145.37
		c-51.41,43.25-102.99,76.93-137.19,97.56c-12.12,7.31-22.84,13.47-31.78,18.46c-8.96-4.99-19.68-11.16-31.79-18.46
		c-34.21-20.64-85.78-54.32-137.19-97.56c-28.75-24.18-54.42-48.74-76.87-73.51"/>
	
		<radialGradient id="SVGID_1_" cx="451.87" cy="572.5616" r="322.0086" gradientTransform="matrix(1 0 0 -1.2453 0 1170.816)" gradientUnits="userSpaceOnUse">
		<stop  offset="0" style="stop-color:#F4EB29"/>
		<stop  offset="0.5384" style="stop-color:#F4E828"/>
		<stop  offset="0.7323" style="stop-color:#F4E325"/>
		<stop  offset="0.87" style="stop-color:#F6DC1E"/>
		<stop  offset="0.9811" style="stop-color:#F7D116"/>
		<stop  offset="1" style="stop-color:#F8CF15"/>
	</radialGradient>
	<path class="st3" d="M217.46,805.06c-20.58-22.71-38.31-45.6-53.05-68.52c-35.19-54.71-53.03-109.51-53.03-162.88V150.97
		c44.46-11.11,90.74-20.04,137.93-26.61c65.85-9.16,134-13.81,202.56-13.81s136.71,4.65,202.56,13.81
		c47.2,6.57,93.47,15.5,137.93,26.61v422.69c0,47.49-14.13,96.12-42.03,144.8"/>
	<path class="st2" d="M811.25,128.51c-54.38-16.01-112.07-28.35-171.47-36.67c-61.12-8.56-124.33-12.9-187.88-12.9
		s-126.76,4.34-187.88,12.9c-59.39,8.32-117.08,20.66-171.47,36.67l-5.11,1.5v424.97c0,59.94,19.17,120.34,56.97,179.49
		c30.02,46.99,71.83,93.32,124.24,137.7c46.5,39.37,92.96,69.92,123.74,88.62c33.4,20.29,55.49,31.1,56.41,31.55l3.1,1.51l3.1-1.51
		c0.93-0.45,23.01-11.26,56.41-31.55c30.79-18.69,77.24-49.24,123.74-88.62c52.42-44.38,94.22-90.71,124.24-137.7
		c37.8-59.16,56.97-119.55,56.97-179.49V130.01L811.25,128.51z M784.71,554.99c0,53.73-17.48,108.32-51.94,162.25
		c-28.3,44.3-68,88.22-117.99,130.55c-44.93,38.04-89.9,67.62-119.72,85.72c-18.8,11.41-33.8,19.68-43.16,24.64
		c-9.36-4.97-24.39-13.24-43.16-24.64c-29.82-18.11-74.79-47.68-119.72-85.72c-49.99-42.32-89.69-86.25-117.99-130.55
		c-34.46-53.93-51.93-108.52-51.93-162.25V154.06c47.68-13.15,97.81-23.45,149.28-30.66c59.68-8.36,121.42-12.6,183.52-12.6
		s123.83,4.24,183.51,12.6c51.47,7.21,101.61,17.51,149.29,30.66v400.93H784.71z"/>
	<path class="st4" d="M451.48,1040.04l-7.62-3.69c-1.02-0.49-25.35-12.34-61.7-34.27c-33.54-20.24-84.17-53.31-134.86-95.95
		c-57.35-48.24-103.14-98.67-136.09-149.9C69.36,691.17,48.14,624.61,48.14,558.4V95.2l12.56-3.67
		c59.18-17.31,121.94-30.64,186.55-39.63c66.44-9.24,135.15-13.93,204.22-13.93S589.26,42.65,655.7,51.9
		c64.61,8.99,127.37,22.32,186.55,39.63l0,0l12.56,3.67v463.19c0,66.21-21.22,132.77-63.07,197.83
		C758.78,807.46,713,857.9,655.65,906.13c-50.7,42.65-101.32,75.72-134.86,95.95c-36.54,22.05-60.7,33.78-61.7,34.27L451.48,1040.04
		z M67.71,109.87V558.4c0,62.4,20.17,125.4,59.96,187.25c31.89,49.58,76.38,98.54,132.23,145.51
		c49.72,41.82,99.43,74.29,132.38,94.17c32.13,19.39,54.44,30.61,59.2,32.96c4.75-2.34,26.93-13.49,59.2-32.96
		c32.94-19.87,82.64-52.33,132.37-94.17c55.85-46.97,100.34-95.93,132.23-145.51c39.78-61.85,59.96-124.85,59.96-187.25V109.87
		C777.42,93.04,716.11,80.06,653,71.27c-65.55-9.12-133.35-13.74-201.52-13.74s-135.97,4.62-201.53,13.74
		C186.84,80.06,125.53,93.04,67.71,109.87z"/>
	<path class="st1" d="M839.97,101.05c-58.72-17.18-121.02-30.41-185.15-39.33c-65.99-9.18-134.25-13.84-202.87-13.84
		s-136.88,4.66-202.87,13.84c-64.13,8.92-126.43,22.16-185.15,39.33l-5.52,1.61v455.86c0,64.3,20.7,129.08,61.51,192.54
		c32.42,50.41,77.56,100.1,134.16,147.71c50.21,42.24,100.38,75.01,133.62,95.06c36.06,21.76,59.91,33.36,60.91,33.84l3.35,1.62
		l3.35-1.62c1-0.48,24.85-12.08,60.91-33.84c33.24-20.05,83.41-52.82,133.62-95.06c56.6-47.6,101.74-97.3,134.16-147.71
		c40.82-63.46,61.51-128.24,61.51-192.54V102.66L839.97,101.05z M811.31,558.52c0,57.64-18.87,116.2-56.08,174.05
		c-30.56,47.52-73.43,94.64-127.41,140.04c-48.51,40.81-97.08,72.53-129.27,91.95c-20.3,12.24-36.49,21.11-46.6,26.43
		c-10.11-5.33-26.33-14.21-46.6-26.43c-32.2-19.42-80.76-51.15-129.27-91.95c-53.98-45.4-96.84-92.52-127.41-140.04
		c-37.21-57.85-56.08-116.41-56.08-174.05V128.46c51.49-14.11,105.62-25.15,161.2-32.89c64.44-8.97,131.11-13.51,198.16-13.51
		s133.72,4.55,198.16,13.51c55.58,7.74,109.72,18.78,161.2,32.89L811.31,558.52L811.31,558.52z"/>
	<g>
		<polygon class="st2" points="748.36,709.63 768.43,672.17 187.07,768.94 211.7,798.95 		"/>
	</g>
	<g>
		<polyline class="st1" points="772.53,705.25 755.18,737.91 755.22,737.91 218.69,827.99 218.65,827.96 196.27,800.85 
			196.22,800.89 772.58,705.28 		"/>
	</g>
	<g>
		<path class="st2" d="M276.07,259.89H656.3c-24.67-70.85-90.13-127.65-201.01-131.24C355.83,136.5,310.02,192.23,276,259.94"/>
	</g>
	<g>
		<path class="st2" d="M468.52,115.21c0-1.66-1.17-3.01-2.61-3.01h-8.72l1.7-39.23l-7.08-9.63l-6.83,9.63l1.75,39.23h-8.7
			c-1.45,0-2.63,1.35-2.63,3.01c0,1.68,1.18,3.04,2.63,3.04v14.53h27.88v-14.53C467.36,118.25,468.52,116.89,468.52,115.21z"/>
	</g>
	<polyline class="st1" points="444.69,110.81 442.85,70.24 444.85,70.15 446.69,110.8 	"/>
	<polyline class="st1" points="457.24,110.83 459.02,70.17 461.02,70.26 459.24,110.83 	"/>
	<g>
		<polygon class="st2" points="229.56,777.55 187.98,758.65 187.98,510.73 193.45,503.18 193.45,442.27 202.3,432.39 202.3,404.33 
			199.43,393.62 169.43,383.84 199.17,359.01 185.64,352.5 246.02,244.76 308.99,258.81 324.09,258.81 359.74,229.67 380.56,233.61 
			380.56,750.92 		"/>
	</g>
	<g>
		<polyline class="st1" points="750.86,433.86 750.86,493.51 750.86,493.51 755.18,493.51 755.18,530.67 770.01,535.1 
			770.01,553.83 755.18,562.02 755.18,708.94 376.53,774.78 376.53,504.62 365.6,495.54 365.6,476.67 365.57,476.67 371.32,478.1 
			371.32,433.34 365.6,418.77 380.56,421.58 380.58,421.58 380.58,301.28 371.32,299.32 371.32,266.11 368.2,251.17 359.35,229.57 
			435.86,242.33 569.89,198.08 694.8,280.58 688.82,285.79 758.82,299.58 727.07,326.12 727.07,356.57 740.61,369.84 740.61,419.03 
			750.75,433.86 		"/>
		<g>
			<polygon class="st1" points="750.86,493.51 750.86,488.41 755.18,493.51 			"/>
		</g>
	</g>
	<g>
		<polyline class="st1" points="302.22,470.75 292.78,463.4 302.22,456.05 302.22,355.99 302.22,355.92 284.12,345.38 
			305.22,324.82 314.1,327.06 314.1,294.8 314.1,294.8 213.62,369.94 213.62,385.73 213.62,385.73 199.43,393.62 168.98,383.92 
			168.98,383.9 198.61,358.98 185.16,352.45 245.57,244.42 309.46,258.8 324.09,258.8 324.09,258.81 359.38,229.43 368.65,251.09 
			371.5,265.51 333.81,297.54 333.81,332.25 333.81,332.25 329.63,331.22 328.53,340.7 328.53,446.62 328.53,446.68 365.6,418.77 
			371.51,433.34 328.53,463.47 328.53,502.65 328.51,502.65 365.6,476.67 376.53,479.38 376.53,504.62 326.19,534.58 328.51,583.14 
			321.04,585.39 317.79,584.41 311.27,590.79 306.45,584.41 309.32,573.87 294.8,554.09 236.38,593.85 238.6,642.84 231.3,644.85 
			227.79,644.85 221.66,650.71 216.85,644.14 222.19,634.25 206.69,614.34 187.98,626.23 173.54,625.01 173.54,608.42 
			203.63,587.67 203.63,580.96 197.5,578.17 215.15,564.76 215.15,537.83 188,557.09 180.25,548.56 210.92,524.95 207.66,521.69 
			215.09,514.86 215.09,418.8 215.15,418.8 195.68,407.45 220.36,389.1 234.43,390.08 238.6,407.51 238.6,508.68 238.53,508.68 
			243.81,509.85 240.94,523.58 240.94,560.47 293.3,525.66 293.3,517.66 286.61,514.88 302.29,503.87 302.29,470.75 		"/>
	</g>
	<g>
		<polyline class="st2" points="203.99,356.57 311.08,276.03 255.12,263.41 255.12,263.28 203.86,356.57 		"/>
	</g>
	<g>
		<path class="st2" d="M525.03,668.3v110.23v-0.76l93.69-14.39v-0.19v-77.84l0.21,0.38c-8.64-25.46-23.71-40.93-50.03-46.02
			l1.03,0.19c-26.24-2.65-39.77,11.36-44.9,26.33"/>
	</g>
	<g>
		<polyline class="st5" points="481.22,442.98 478.58,445.58 478.58,445.56 478.58,448.8 478.48,448.73 627.49,472.7 627.62,472.83 
			627.62,467.36 627.62,467.49 480.69,443.4 		"/>
	</g>
	<g>
		<polyline class="st6" points="656.65,546.62 652.8,538.77 652.82,538.78 653.33,538.84 653.33,538.82 656.66,546.58 		"/>
	</g>
	<line class="st0" x1="678.64" y1="294.1" x2="678.67" y2="294.12"/>
	<g>
		<polygon class="st4" points="377.15,509.03 755.18,561.95 770.53,553.63 770.53,532.81 365.6,476.8 365.6,495.54 		"/>
	</g>
	<g>
		<polyline class="st4" points="435.86,242.26 569.97,198.09 694.93,280.62 678.77,294.28 668.42,306.86 668.42,315.81 
			668.42,315.81 447.1,277.96 447.09,277.95 443.51,262.67 435.81,242.24 		"/>
	</g>
	<g>
		<polygon class="st4" points="755.13,494.06 764.21,482.37 365.54,418.77 371.3,433.53 		"/>
	</g>
	<g>
		<polygon class="st4" points="758.82,299.58 688.82,285.79 678.74,294.15 668.28,306.84 668.28,315.79 727.07,326.12 		"/>
	</g>
	<g>
		<polyline class="st4" points="435.86,242.3 359.35,229.57 368.65,251.09 371.24,265.77 459.81,280.12 459.82,271.08 
			456.03,254.87 449.55,237.75 435.81,242.24 		"/>
	</g>
	<g>
		<polygon class="st1" points="565.37,219.38 456.11,255.39 676.07,292.49 		"/>
	</g>
	<g>
		<polygon class="st1" points="476.34,442.8 650.45,471.27 650.45,434.47 476.34,406.4 		"/>
	</g>
	<line class="st0" x1="621.85" y1="372.36" x2="650.43" y2="377.09"/>
	<g>
		<polyline class="st4" points="476.07,348.21 650.43,377.09 650.43,382.23 476.07,353.84 476.07,348.21 		"/>
	</g>
	<path class="st2" d="M505.73,420.33l0.35-38.1c-2.62,0.77-5.29,0.94-8,0.67l0.05-5.26c4.07,0.41,8.23-2.2,9.54-8.97l4.13,0.41
		l-0.47,51.9c-0.02,2.41,0.76,2.92,2.06,3.31l4.6,0.46l-0.05,5.78l-19.16-1.91l0.05-5.78l5.07,0.5
		C504.92,423.44,505.71,422.06,505.73,420.33z"/>
	<path class="st2" d="M530.04,403.47c-4.1-3.69-5.88-8.9-5.52-14.73c0.69-11.24,8.99-15.54,17.44-14.27
		c7.48,1.13,15.6,6.61,14.95,17.17c-0.4,6.59-3.99,10.4-8.62,12.95c5.58,3.48,8.47,8.78,8.01,16.3
		c-0.75,12.25-9.78,15.85-18.58,14.52c-8.38-1.26-16.89-7.23-16.17-18.89C521.96,410.01,525.29,405.74,530.04,403.47z
		 M538.08,429.58c5.4,0.81,10.35-1.26,10.8-8.53c0.23-3.72-1.4-6.78-4.3-8.49l-10.45-6.18c-3.46,1.78-5.86,5.52-6.15,10.25
		C527.5,424.41,532.33,428.72,538.08,429.58z M536.3,397.16c6.13,3.74,7.34,4.43,7.48,4.45c3.73-1.57,6.41-5.43,6.71-10.34
		c0.44-7.1-3.77-10.37-8.89-11.14c-4.92-0.74-9.3,1.24-9.71,7.92C531.65,392.11,533.34,395.26,536.3,397.16z"/>
	<path class="st2" d="M578.07,431.81l0.41-8.1l-18.92-2.78l0.31-6.2l21.51-34.08l5.68,0.83l-1.86,36.97l8.36,1.23l-0.31,6.21
		l-8.36-1.23l-0.41,8.19c-0.12,2.41,0.77,2.98,2.29,3.46l4.34,0.64l-0.29,5.77l-19.96-2.93l0.29-5.77l4.64,0.68
		C577,434.87,577.99,433.54,578.07,431.81z M565.12,415.5l13.67,2.01l1.3-25.94L565.12,415.5z"/>
	<g>
		<g>
			<g>
				<polygon class="st2" points="447.09,277.95 447.1,307.04 441.01,310.82 452.69,332.11 452.69,428.97 450.23,429.8 
					456.76,443.49 456.76,489.43 461.62,496.43 461.62,509.83 464.54,510.28 462.64,516.02 462.63,566.94 471.26,561.41 
					467.98,553.37 477.4,514.54 471.26,504.87 471.26,491.45 467.98,483.88 467.98,440.32 460.7,427.85 467.98,428.79 
					467.98,324.01 456.76,303.2 459.82,303.8 459.82,271.08 456.03,254.87 449.55,237.75 435.86,242.33 443.51,262.67 				"/>
			</g>
			<g>
				<polygon class="st2" points="461.62,509.83 462.64,516.02 464.54,510.28 				"/>
			</g>
		</g>
		
			<rect x="435.49" y="239.8" transform="matrix(0.9487 -0.3162 0.3162 0.9487 -53.1868 152.2986)" class="st2" width="14.43" height="0.49"/>
	</g>
	<g>
		<polygon class="st2" points="487.85,563.84 479.2,569.67 479.22,504.98 489.51,506.5 494.13,516.92 484.44,556.05 		"/>
	</g>
	<g>
		<polyline class="st4" points="501.06,509.22 501.06,495.85 507.4,489.48 491.7,487.24 491.7,443.39 503.46,432.02 491.71,430.5 
			491.71,330.23 505.22,312.47 456.76,303.2 467.98,324.01 467.98,428.79 460.7,427.85 467.98,440.32 467.98,483.88 471.26,491.45 
			471.26,504.87 477.4,514.54 467.98,553.37 471.26,561.41 462.63,566.94 471.17,566.94 477.85,561.18 474.72,553.44 484.85,515.68 
			480.59,506.21 489.94,507.56 494.13,516.92 494.11,516.92 484.44,556.05 487.85,563.84 479.2,569.67 487.74,569.67 494.47,564.01 
			491.31,556.08 501.42,518.19 497.14,508.7 501.08,509.22 		"/>
	</g>
	<g>
		<polyline class="st2" points="647.67,511.82 652.41,508.49 656.13,516.98 656.13,529.32 661.32,538.58 651.58,577.39 
			655.16,585.75 646.37,591.08 646.37,540.73 648.8,535.9 648.26,520.84 646.32,515.66 637.94,514.46 637.94,470.71 632.6,459.12 
			638.51,455.66 638.51,357.83 630.18,341.04 638.05,334.29 647.65,354.73 647.65,456.13 643.1,455.26 647.65,467.04 647.65,511.82 
					"/>
	</g>
	<g>
		<polygon class="st2" points="668.05,580.12 671.6,588.42 663.69,593.81 663.69,529.64 671.62,531.06 677.93,541.27 		"/>
	</g>
	<g>
		<polyline class="st4" points="646.35,591.08 655.14,585.74 651.56,577.38 661.3,538.58 656.11,529.31 656.11,516.97 
			652.39,508.49 647.63,511.81 647.65,511.81 647.65,467.03 647.63,467.03 643.08,455.25 647.63,456.12 647.63,354.72 
			638.03,334.28 687.27,340.48 668.55,357.39 668.55,458.74 668.49,458.74 679.98,460.93 668.49,471.43 668.49,512.74 
			691.18,516.24 685.11,520.25 685.11,534.52 681.06,533.81 684.86,542.24 675.04,580.13 678.12,588.2 671.76,593.8 663.67,593.8 
			671.58,588.41 668.04,580.11 677.91,541.27 672.66,532.29 664.44,530.81 668.28,539.58 658.39,577.58 661.5,585.33 654.8,591.08 
			646.26,591.08 		"/>
	</g>
	<g>
		<path class="st2" d="M607.74,394.69l-1.46,14.32c3.25-3.38,7-4.39,11.52-3.85c11.42,1.38,15.48,11.73,14.83,22.21
			c-0.85,13.8-9.2,21.28-20.61,19.91c-6.89-0.83-15.04-5.93-14.45-15.56c0.25-4.09,2.43-7.77,6.17-7.32
			c2.87,0.35,4.79,3.24,4.58,6.64c-0.21,3.41-2.2,5.22-4.94,4.98c1.44,3.69,5.21,4.58,8.3,4.95c7.9,0.95,11.59-5.04,12.14-13.89
			c0.51-8.26-1.83-14.89-9.37-15.8c-4.09-0.49-6.27,0.79-8.77,4.95l-5.31-0.64l2.75-30.47"/>
		<polyline class="st2" points="603.12,385.13 632.47,390.3 631.66,398.88 607.74,394.69 		"/>
	</g>
	<g>
		<polygon class="st2" points="189.93,630.04 170.2,628.09 170.11,604.79 189.14,591.53 192,595.64 175.12,607.39 175.18,623.56 
			190.42,625.06 		"/>
	</g>
	<g>
		<polygon class="st2" points="188.01,561.4 175.48,546.49 189.07,535.42 192.23,539.3 182.57,547.16 191.84,558.19 		"/>
	</g>
	<g>
		<polygon class="st2" points="202.59,417.28 187.18,408.14 201.48,396.9 204.57,400.83 196,407.56 205.14,412.98 		"/>
	</g>
	<g>
		<polygon class="st2" points="204.54,397.91 163.91,384.93 194,359.55 181.68,353.56 244.78,239.1 310.53,253.94 309.43,258.81 
			247.35,244.8 188.6,351.37 203.11,358.42 174.05,382.92 206.07,393.15 		"/>
	</g>
	<polyline class="st2" points="750.18,561.25 750.18,709.23 755.18,708.17 755.18,561.97 	"/>
	<polyline class="st2" points="755.18,530.69 755.18,494.07 750.18,493.26 750.18,530 	"/>
	<polyline class="st2" points="750.84,480.23 750.84,433.24 740.59,418.4 740.59,368.95 727.06,355.68 727.06,326.12 722.06,325.23 
		722.06,357.78 735.59,371.05 735.59,419.96 745.84,434.8 745.84,479.44 	"/>
	<g>
		<polygon class="st2" points="724.16,328.59 721.16,324.59 754.69,299.45 683.09,287.4 692.69,279.21 643.86,246.9 646.62,242.73 
			700.99,278.71 694.49,284.25 767.02,296.46 		"/>
	</g>
	<g>
		<polyline class="st2" points="750.17,495.7 752.55,497.54 767.74,477.89 746.63,474.52 745.84,479.45 758.63,481.5 750.18,492.43 
					"/>
	</g>
	<g>
		<polyline class="st2" points="750.16,532.51 768.02,534.98 767.96,551.17 750.25,561.23 752.71,565.58 772.95,554.09 
			773.04,530.62 750.52,527.51 750.17,530 		"/>
	</g>
</g>
<rect x="3243.1" y="275.19" class="st1" width="7" height="473.54"/>
<g>
	<path class="st1" d="M3510.34,446.38c-0.8,2.6-1.4,3.4-3.6,4.4c-5.8,2.4-23.2,9-38.8,9c-35.2,0-57.4-24.8-57.4-56
		c0-47.4,39-84,81.8-84c17.2,0,28.4,6.8,32.4,10c2.6,2,4.4,2.4,5.4,2.4c2.8,0,4-2,5.2-6.4c0.2-0.8,0.6-1.2,2-0.8l2.4,0.6
		c0.8,0.2,1.4,0.6,1.2,1.6l-11.4,40.2c-0.4,1.2-0.8,1.4-2.4,1.2l-2.6-0.4c-1-0.2-1.6-0.8-1.2-2c4.4-17.2-6-39.6-31-39.6
		c-36.2,0-62.4,37.2-62.4,81c0,31.6,18.6,45,37,45c12.8,0,21.4-5.4,25-8.4c1.8-1.6,2.8-4.2,3.6-6.8l4-19.4c1.8-8-1.4-9.6-8-9.6h-7.4
		c-1.6,0-1.8-0.6-1.4-2l0.8-3.8c0.2-1.2,0.6-1.6,2.2-1.6c3,0,10,0.6,23.2,0.6c13.6,0,18.4-0.6,21.2-0.6c1.4,0,2,0.6,1.8,2l-0.6,3.8
		c-0.2,1.2-0.6,1.6-1.8,1.6h-3.2c-4.8,0-7.8,1.6-9,7.2L3510.34,446.38z"/>
	<path class="st1" d="M3581.34,341.18c3-7.6,2.8-12.6-3-12.6h-5.8c-1.4,0-1.6-0.8-1.2-1.8l1.2-3.6c0.4-1.2,0.8-1.4,2-1.4h24.8
		c1.8,0,2.4,1.2,1.8,3l-41.6,105.8c-1.8,4.6-6.6,15.6-2.4,15.6c3.2,0,12.4-7.8,14.8-10.4c0.8-0.8,1.2-0.6,1.8,0l2.2,2.4
		c0.4,0.4,0.6,1.2-0.2,2c-1,1.6-19.6,18.6-32.4,18.6c-2.6,0-4.4-1.2-4.4-5.8c0-3,5-15.6,7.4-21.6L3581.34,341.18z"/>
	<path class="st1" d="M3593.14,432.98c0-25.2,19-59.4,45.6-59.4c13.4,0,21.4,9.8,21.4,23.4c0,22-17.4,61.8-46.4,61.8
		C3602.74,458.78,3593.14,448.18,3593.14,432.98z M3652.14,393.98c0.2-6.2-3.4-11.2-10-11.2c-8.4,0-19,7.6-29,23.8
		c-6.8,10.8-11.6,23-11.6,32.4c0,6.4,4.4,10.2,9.2,10.2C3631.54,449.18,3652.14,407.18,3652.14,393.98z"/>
	<path class="st1" d="M3703.54,328.58c-1.6,0-2.2-0.8-1.8-2l1.2-3.2c0.4-1.2,0.8-1.6,2-1.6h25.4c1.8,0,2.2,1.8,1.4,3.6l-32.2,72.6
		l1.2,0.4c9.8-12.4,25.2-24.8,36.2-24.8c10.2,0,14.2,6.4,14.2,15.2c0,11.4-6.6,31-26.2,50.6c-10.6,10.4-23.4,19.4-42.4,19.4
		c-8.2,0-13.4-5.8-13.4-13.2c0-3.2,1.4-8,3-11.6c14.8-34.4,28.6-66.4,41.4-97c1-2.4,1.4-4,1.4-5.4c0-1.8-2.2-3-5.6-3H3703.54z
		 M3692.14,451.98c16,0,44.6-34,44.6-60c0-6.2-3.2-8.6-6.8-8.6c-7.6,0-22.4,12.6-32.6,26.8c-7.8,11-13.8,27.4-13.8,33.2
		C3683.54,451.38,3687.74,451.98,3692.14,451.98z"/>
	<path class="st1" d="M3841.34,373.58c0.8,0,1,1,0.6,1.8c-3.8,8.2-14,35.8-15,39c-1.2,3.4-9.6,28.2-9.6,30s1,2.4,2.2,2.4
		c2.4,0,12.6-10.4,14-12.2c0.6-0.6,1.2-1,1.6-0.4l1.8,2c0.6,0.6,0.8,1,0.4,1.6c-2.2,4-19.6,21-31,21c-2.4,0-4.2-0.8-4.2-3.4
		c0-3,2-9.2,9.6-30.4l-1-0.4c-8.4,12.8-28.6,34.2-42.8,34.2c-4.6,0-10.8-3.8-10.8-12.8c0-29.2,32.8-72.4,57.2-72.4
		c8.4,0,12.2,3.6,14.2,6.8l3.8-5.4c0.6-0.8,1.2-1.4,2-1.4L3841.34,373.58L3841.34,373.58z M3816.14,408.38
		c2.8-5.8,4.8-10.8,4.8-16.6c0-5.4-2-11.8-9.4-11.8c-18.4,0-39.8,42.2-39.8,61.2c0,4.6,2,7,5.4,7
		C3787.14,448.18,3812.54,415.78,3816.14,408.38z"/>
	<path class="st1" d="M3890.74,341.18c3-7.6,2.8-12.6-3-12.6h-5.8c-1.4,0-1.6-0.8-1.2-1.8l1.2-3.6c0.4-1.2,0.8-1.4,2-1.4h24.8
		c1.8,0,2.4,1.2,1.8,3l-41.6,105.8c-1.8,4.6-6.6,15.6-2.4,15.6c3.2,0,12.4-7.8,14.8-10.4c0.8-0.8,1.2-0.6,1.8,0l2.2,2.4
		c0.4,0.4,0.6,1.2-0.2,2c-1,1.6-19.6,18.6-32.4,18.6c-2.6,0-4.4-1.2-4.4-5.8c0-3,5-15.6,7.4-21.6L3890.74,341.18z"/>
	<path class="st1" d="M3443.94,583.78c3.6-11.2-4.2-14.2-11-14.2h-6.4c-1.2,0-1.6-0.6-1.2-2.2l1-3.8c0.4-1.2,1-1.4,2.4-1.4
		c1.2,0,3.4,0.2,7.6,0.2c4.2,0.2,10.4,0.4,20,0.4h12.8c15.2,0,26.6-0.2,34.8-0.4c8.2,0,13.2-0.2,15.4-0.2c3,0,3.4,0.6,4.2,3.8
		l6.4,27.4c0.2,1,0,1.2-1.2,1.8l-2.2,0.8c-1,0.4-1.2,0.4-2-0.6l-18.8-24.2c-0.8-1.2-1.8-1.6-3.2-1.6h-36.4l-17.2,52.6h19.2
		c11.6,0,18.2-0.4,23.8-16.8c0.2-0.8,0.6-1.2,1.4-1l3,0.6c0.8,0.2,1.4,0.6,1.2,1.6l-10.8,39.8c-0.2,1.2-0.6,1.4-1.4,1.2l-3.2-0.4
		c-1-0.2-1-0.4-0.8-1.6c1.4-16.6-6.6-17-22.4-17h-12l-19.4,61.4h51.8c7.2,0,12-3.2,16-8.4l16-20.2c0.6-0.8,1.4-1.2,2.4-0.4l2,1.2
		c0.8,0.6,1.2,1,0.6,2.8l-10.2,29c-1,3-2,3.4-4.4,3.4c-1.6,0-10.4-0.2-22.2-0.4c-11.8,0-26.6-0.2-40.4-0.2h-23.2
		c-9.2,0-15,0.2-18.8,0.2c-3.6,0.2-5.2,0.4-6,0.4c-1.4,0-2-0.4-1.6-1.6l0.6-4.2c0.4-1.2,0.6-1.6,1.6-1.6h7.4
		c8.2,0,12.2-4.2,14.4-11.2L3443.94,583.78z"/>
	<path class="st1" d="M3560.94,631.58c-0.8-2.4-2-3.6-3.6-3.6c-4,0-8.4,6.8-12.6,15c-0.4,0.8-1.2,1-2,0.6l-2.8-1.4
		c-0.6-0.2-0.6-0.8-0.4-1.6c0.8-2.4,13.6-27,23.4-27c4.2,0,6.4,1.8,9.2,11l6.8,23c8.8-11.2,15.8-21.2,20.8-26.2
		c3.2-3.2,8-7.8,13.8-7.8c3.6,0,5.8,2.8,5.8,6.2c0,6.2-2.4,16.6-5.4,23.6c-0.4,0.8-1,1.2-2,0.8l-2.4-0.8c-1.2-0.4-1.6-0.8-1.4-1.6
		c3.6-10.6,3.2-15.6-0.4-15.6c-4.2,0-15.8,14.6-26.4,27.8l9.4,26.8c1.2,3.4,3.2,5.4,5.2,5.4c4.8,0,12.2-11.4,13-13.6
		c0.2-0.6,0.8-0.6,1.8-0.2l2.4,1.2c0.8,0.4,1,1.2,0.6,2c-2.4,4.4-12.8,23.2-24.4,23.2c-4.2,0-7.4-2.8-9.2-8.6l-8.4-27
		c-12.6,16.8-26.2,35.6-34.8,35.6c-5.2,0-7.4-2.6-7.4-7c0-4.6,2.4-16.2,4.4-21.2c0.2-0.6,0.8-1,1.6-0.8l3,0.8c0.8,0.2,1,0.8,0.8,1.6
		c-4,12.2-0.6,14.4,1.6,14.4c4.6,0,19.2-17.8,28.6-29.8L3560.94,631.58z"/>
	<path class="st1" d="M3665.94,598.38c0.6-1.6,1.2-2.2,2.6-2.8l12.4-4.4c0.4-0.2,1-0.2,1.4-0.2s0.6,0.4,0.6,0.8c0,0.4,0,1-0.4,1.6
		l-9.2,20.8c1.2-0.2,2.6-0.4,4-0.4c1.4-0.2,3-0.2,4-0.2c19,0,27.6,13.6,27.6,26.6c0,14-6.2,28.4-23.8,41.6
		c-8.8,6.4-25.2,13.2-41.6,15l-14.2,39.6c-3.6,10.8-2,13.6,6.4,13.6h5.6c1,0,1.6,1,1.4,1.6l-1.4,4c-0.4,0.6-0.8,1.2-2.4,1.2
		c-2.2,0-8.2-0.6-21-0.6c-13.8,0-19.2,0.6-21.4,0.6c-1.2,0-1.6-0.4-1.4-1.2l1.2-4c0.2-0.8,0.4-1.6,1.4-1.6h4.6
		c7.8,0,11-4.6,15.2-16.2l39.2-107.8c-9.8,2.8-20.6,12.8-24.8,18c-0.6,0.8-1.4,0.6-1.8,0.2l-2.2-2c-0.6-0.6-0.8-1.2-0.2-1.8
		c7-8.4,16.4-17.6,31.8-23.4L3665.94,598.38z M3645.94,690.78c24-3.8,49-21.4,49-46c0-15.4-9.2-23-18-23c-3,0-5,0.4-6.4,0.6
		L3645.94,690.78z"/>
	<path class="st1" d="M3717.14,679.18c0-16.8,11-37.8,25.6-52.2c6.4-6.4,17.2-13.4,26.8-13.4c7.8,0,11.4,5.8,11.4,10.6
		c0,9.8-7.4,20.2-18.6,26c-10.8,5.4-21.6,7.6-29,8.2c-1,2.4-2.6,9-2.6,18.4c0,9,6.6,12.6,10.4,12.6c9.8,0,18.6-7.4,22.8-14.2
		c0.4-0.6,1-1,1.8-0.2l2.2,1.8c1,0.6,1,1.2,0.2,1.8c-5,7-17,20.2-32.4,20.2C3722.74,698.78,3717.14,692.38,3717.14,679.18z
		 M3734.94,652.58c7,0.6,33.2-7.8,33.2-22.6c0-4-2-7.6-6.4-7.6C3748.94,622.38,3736.54,645.38,3734.94,652.58z"/>
	<path class="st1" d="M3792.54,696.78c-1.4,0-2.2-0.8-1.8-1.8l11.2-32.4c3.6-11.2,9.8-32.2,9.8-35c0-1.8-1.6-3-3.4-3
		c-4,0-13,9-15.8,12.4c-0.4,0.6-1.2,0.4-1.6,0l-2-2c-0.4-0.4-0.4-1,0-1.6c4.2-6.2,16.2-19.8,29.8-19.8c4,0,5.6,3.4,5.6,7
		c0.2,3.8-3.2,15-7.2,28.4l1,0.4c5.4-11.2,21.4-35.8,32.6-35.8c5.8,0,9.4,3.6,9.4,9c0,5.2-4,9.2-7.8,9.2c-1.8,0-3.4-0.4-5-2
		s-2.6-2.4-5.2-2.4c-5.4,0-16.6,17.2-24.6,30.4c-2.4,3.8-4.8,8.4-7.8,17.4l-6.6,20.2c-0.4,1.4-1,1.4-2.6,1.4L3792.54,696.78
		L3792.54,696.78z"/>
	<path class="st1" d="M3867.33,693.78c0-4.6,3.4-13.8,11.8-36.2l5.8-15.6c2-5.4,3.6-9.4,3.6-11.8c0-1.8-1.2-2.6-2.8-2.6
		c-3.4,0-12.8,10.8-16,14c-0.8,0.8-1.6,0.8-2.2,0.2l-1.6-1.8c-0.8-0.6-1.2-1-0.6-1.8c0.8-1.2,21.2-25.2,34-24.6c2.4,0,4.8,1.6,4.8,5
		c0,3.6-3.2,12.6-6.8,22.2l-11.6,30.4c-2.8,7.4-3.6,11.8-3.6,13.2c0,1.8,0.6,3,2.2,3.4c4.2-0.8,15-12.2,16-14
		c0.4-0.6,1.2-0.6,2.2,0.4l1.6,1.4c0.8,1,1,1.4,0.4,2.4c-1.2,1.6-17.2,20.8-33.8,20.8C3868.73,698.58,3867.33,696.98,3867.33,693.78
		z M3892.53,577.18c0-5.4,4.2-10,10.4-10c7,0,10.6,5,10.6,9.6c0,3-2.4,10-10.6,10C3894.13,586.78,3892.53,579.38,3892.53,577.18z"/>
	<path class="st1" d="M3918.53,679.18c0-16.8,11-37.8,25.6-52.2c6.4-6.4,17.2-13.4,26.8-13.4c7.8,0,11.4,5.8,11.4,10.6
		c0,9.8-7.4,20.2-18.6,26c-10.8,5.4-21.6,7.6-29,8.2c-1,2.4-2.6,9-2.6,18.4c0,9,6.6,12.6,10.4,12.6c9.8,0,18.6-7.4,22.8-14.2
		c0.4-0.6,1-1,1.8-0.2l2.2,1.8c1,0.6,1,1.2,0.2,1.8c-5,7-17,20.2-32.4,20.2C3924.13,698.78,3918.53,692.38,3918.53,679.18z
		 M3936.33,652.58c7,0.6,33.2-7.8,33.2-22.6c0-4-2-7.6-6.4-7.6C3950.33,622.38,3937.93,645.38,3936.33,652.58z"/>
	<path class="st1" d="M3993.93,696.78c-2.2,0-2.6-0.4-2.2-1.8l14.2-37c4.8-12.4,10.4-26.8,10.4-30.2c0-2-0.8-3.4-3-3.4
		c-3.8,0-13.4,9.6-16.8,13.4c-0.6,0.6-1.2,0.6-2-0.2l-1.8-1.8c-0.8-0.8-1-1.2-0.4-2c3-3.6,17.8-20.2,32.2-20.2c4.6,0,6.4,3.4,6.4,6
		c0,6.2-8.6,25.2-10.2,29.8l0.8,0.4c6-9.6,27.8-36.2,45.6-36.2c6,0,10,3,10,8.2c0,8.8-4.6,19.2-11.2,35.4
		c-5.4,13.2-10.2,24.4-10.2,27.6c0,1.2,0.8,2.6,2.4,2.6c3,0,11.8-7.4,14.4-10.2c0.8-0.6,1.6-0.4,2.2,0.4l1.4,1.6
		c0.8,0.8,1,1.2,0.2,2.2c-2.4,3.2-18.6,17.4-32,17.4c-2.6,0-4.8-1-4.8-4c0-3.8,7.2-19.6,13.4-36.8c2.8-7.8,10-24.4,10-28.8
		c0-2.8-1.4-4.6-5-4.6c-7.8,0-27.6,18.4-36.4,32.6c-3.6,5.8-6.8,11-12,25l-5,13.4c-0.4,0.8-0.8,1.2-2.8,1.2L3993.93,696.78
		L3993.93,696.78z"/>
	<path class="st1" d="M4091.93,680.38c0-27.2,22.2-66.8,45.4-66.8c9.4,0,11.4,7.6,11.4,11.2c0,4.8-4.6,8.4-8.2,8.4
		c-2.6,0-4.4-1.4-5.2-4.4c-0.6-2.2-3-5.2-6.2-5.2c-5,0-10.2,4.8-14.6,13.8c-5.4,11.6-8.6,28.8-8.6,35c0,14.6,4.4,16.6,8,16.6
		c7.8,0,15.4-8,17.6-10.8c0.6-0.8,1.2-1.2,1.8-0.8l2.2,2c0.6,0.4,1,1,0.2,2.2c-2.8,4.2-16,17.2-28.8,17.2
		C4099.93,698.78,4091.93,693.78,4091.93,680.38z"/>
	<path class="st1" d="M4152.53,679.18c0-16.8,11-37.8,25.6-52.2c6.4-6.4,17.2-13.4,26.8-13.4c7.8,0,11.4,5.8,11.4,10.6
		c0,9.8-7.4,20.2-18.6,26c-10.8,5.4-21.6,7.6-29,8.2c-1,2.4-2.6,9-2.6,18.4c0,9,6.6,12.6,10.4,12.6c9.8,0,18.6-7.4,22.8-14.2
		c0.4-0.6,1-1,1.8-0.2l2.2,1.8c1,0.6,1,1.2,0.2,1.8c-5,7-17,20.2-32.4,20.2C4158.13,698.78,4152.53,692.38,4152.53,679.18z
		 M4170.33,652.58c7,0.6,33.2-7.8,33.2-22.6c0-4-2-7.6-6.4-7.6C4184.33,622.38,4171.93,645.38,4170.33,652.58z"/>
</g>
</svg>
