<svg id="Layer_1" data-name="Layer 1" xmlns="http://www.w3.org/2000/svg" viewBox="0 0 551.22 160.29"><defs><style>.cls-1{fill:#fff;}.cls-2{fill:none;}.cls-3{fill:#0033a1;}.cls-4{fill:#8990d0;}.cls-5{fill:#fde021;}</style></defs><path class="cls-1" d="M563.69,83.27l-107,0L456,85.72a26.3,26.3,0,0,0-9.11-2.3c-.94-.09-2.11-.2-3.46-.2H291.29l-8.76,10.43-3.38-10.43-97.82,0L181,87.52a26.16,26.16,0,0,0-13.84-4.18c1.54-10.07-5.28-22.23-5.93-23.65a74.61,74.61,0,0,1-4.15-10.3l-6.27-21.58L134.37,47.69c-2.21,2.67-4.72,5.24-7.14,7.72-1,1-2,2-2.92,3C118.18,64.85,110,70.17,71.13,70.17H45.6c-8.66,0-15.61.67-21,3.76l-6.82,4.8,5.38,3.82c4.45,3.14,11.83,3.64,13.26,3.71h4.94A24.22,24.22,0,0,0,37.94,88l-6.81,4.8,5.37,3.81c5.3,3.75,14.58,4.29,15.62,4.34h7.44a21.66,21.66,0,0,0-6.85,2.26L45.88,108l5.38,4.17c3.18,2.24,8.06,2.85,10.06,3H60.21c-1.19,0-7.61.73-11.4,3.41l-5.32,3.79,6.77,4.82a21.08,21.08,0,0,0,2.2,1l-7.72,0c-10.52,0-18.92.81-25.31,4.59l-7,4.66,5.53,4c5.29,3.75,14.57,4.71,15.61,4.76H40.4c-2.66.29-10.63,1.49-15.43,4.89l-5.38,3.82,6.82,4.79c6.64,4,15.41,4.79,26.41,4.79.29,0,26.31-.07,39-.08A33.43,33.43,0,0,0,103,183.44l5.54,4.65H379.85c11.32,0,20.5-9.14,22.84-18l3.65-13.27a22.87,22.87,0,0,0,12.1,3.17h7.68a50.5,50.5,0,0,0,9.69-.73l-.14.53,68,.11.49-1.77a21.55,21.55,0,0,0,8.56,1.64h30.51l16.61-61.66" transform="translate(-12.47 -27.81)"/><line class="cls-2" x1="547.36" y1="70.32" x2="551.22" y2="55.46"/><path class="cls-3" d="M526.71,88.38a18.71,18.71,0,0,0-9.39,2.2l.57-2.06H489.27l-2,7.46-2.09-7.62H460.58l-1.77,6.46c-2.28-3.71-6.38-5.76-12.42-6.29-.88-.08-1.87-.17-3-.17h-11c-1.08,0-2.17.09-3.09.17-.6,0-1.17.12-1.74.19l.09-.34H367.71c-4.09,0-6.62.28-9.61,1.82l.49-1.82H328.16A18.82,18.82,0,0,0,319,90.46l.57-2.1H293.69l-13.2,15.71-5.08-15.71-89.32,0-.7,9.08c-.11,1-.2,1.75-.33,2.53a18.71,18.71,0,0,0-2.22-4c-3.71-5.1-9.56-7.79-16.93-7.79a28.33,28.33,0,0,0-5,.47c.2-.61.39-1.22.55-1.84,2.62-9.76-.92-17.44-4.36-24.89a77.52,77.52,0,0,1-4.38-11l-3.78-13-10.73,13c-3.23,3.91-6.89,7.42-10.28,11-7.55,7.92-17.38,13.22-56.59,13.22H45.81c-8.55,0-15.17.69-19.62,3.75h-.06c3.54,2.51,10.74,2.85,10.74,2.85H78.19c44.64,0,52.05-9.63,66.18-26.75,3.68,12.66,11.66,21.06,8.78,31.8-3.1,11.57-16.55,19.11-23.44,34.88h-6.35c3.61-11.16-1.08-33.28-21.13-33.28l-38.78-.07c-10.43,0-18.5.85-23.92,4.58h-.08c4.32,3.06,13.1,3.47,13.1,3.47H81.81a34.36,34.36,0,0,0-7.34,8.86H69.31c-6.56,0-11.64.53-15.06,2.88h0c2.72,1.92,8.24,2.19,8.24,2.19H81c3.82-7,11.9-13.83,21.75-13.83a16.62,16.62,0,0,1,11.65,4.66h0c4.61,4.4,7.22,11.63,6.38,20.54h-6.56A13.06,13.06,0,0,0,104,112.19a13.69,13.69,0,0,0-2.74-.27c-5.56,0-8.58,3.74-8.82,5.9a4.59,4.59,0,0,0,.24,2.12c1.1,3,5.41,4.07,10,1.33h0c-1.73,5.36-7.72,8.66-13.56,8.66a9.9,9.9,0,0,1-9-5h0a2.69,2.69,0,0,1-.16-.29,1.09,1.09,0,0,0-.08-.15,12,12,0,0,1-1.18-4.18h-.58v0H60.38s-5.78.27-8.62,2.28h.05c3.57,2.46,8.88,3,15.74,3h2.8a16.91,16.91,0,0,0,4.1,7.55L45,133.12c-10.43,0-18.5.84-23.92,4.58H21c4.32,3.05,13.1,3.47,13.1,3.47H88.52v0h.67c2.21-8,12-10.82,14.92-7.22a5.25,5.25,0,0,0-5.27,3.33,2.61,2.61,0,0,0,.25,2.06,3.27,3.27,0,0,0,3,1.25c1.68,0,5.71-1.6,8.82-5.56h6.41c-4.29,9.77-11.43,16-19.27,16.44H41.62s-9.18.44-13.69,3.63H28c5.67,3.9,14.11,4.79,25,4.79,0,0,33.18-.08,43.1-.09A29.34,29.34,0,0,0,106.19,180l4.14,3.46H379.19c9.06,0,16.55-7.49,18.43-14.61l6.11-22.05a14.63,14.63,0,0,0,1.54,2.35c3,3.74,7.56,5.72,13.17,5.72h7.68c7.84,0,12.19-.68,17.53-4.72l-1.25,4.53h28.43l2.17-7.83,2,7.6,24.72.28,1.41-5.16.11.15c1.73,2.25,5.12,4.93,11.43,4.93h26.58l6.86-25.39h0l4.24-15.78h.06l6.71-25.09Z" transform="translate(-12.47 -27.81)"/><path class="cls-4" d="M279.56,150.1l5.82-21.57L271.53,145l-1.36-3.4c-1.76-4.38-3.71-9.29-5.63-14.26l-6.2,22.81H239.51L255,92.93h17.11l6.6,20.39,17.12-20.39h17.78L298.07,150.1Z" transform="translate(-12.47 -27.81)"/><polygon class="cls-4" points="466.08 122.11 460.6 101.6 454.89 122.29 435.92 122.29 451.6 65.12 469.18 65.12 474.74 85.41 480.28 65.28 499.43 65.28 483.81 122.31 466.08 122.11"/><polygon class="cls-4" points="220.22 65.14 204.89 122.27 223.71 122.27 239.05 65.14 220.22 65.14"/><path class="cls-4" d="M348.37,108.91l4.27-16H328.16c-6.89,0-10.7,2.85-13.56,10.16-.36.9-.64,1.8-.89,2.59l-8.28,30.78c-1.21,4.56-.91,8.08.91,10.45,1.61,2.09,4.23,3.15,7.81,3.15h23.08l4.39-16.26H325.05l1.07-4h16.56l4.4-16.33H330.5l1.23-4.62Z" transform="translate(-12.47 -27.81)"/><path class="cls-4" d="M446,93.08c-.81-.08-1.66-.15-2.56-.15h-11c-.9,0-1.87.08-2.7.15a18.1,18.1,0,0,0-8.72,2.6l.73-2.73h-54c-4.3,0-5.93.34-8.34,1.77l0,0c-3.72,2.31-4.9,4.71-6.57,10.75l-3.1,11.6a17.41,17.41,0,0,0-.42,2c-.82,4.16-.51,6.83,1,8.66,1.24,1.51,3.17,2.25,5.89,2.25h6.1l-1,3.66H345.13l-4.4,16.41h25.5c4.6,0,7.47-1.34,9.93-4.61,1.15-1.53,1.54-2.59,2.51-6l4.66-17.56c.82-3,1-5.2-.58-7.2-1.63-2.18-4-2.47-6.07-2.47h-7l.89-3.3h19.64l-11.06,41.17H398L409,108.91h3.8c-.34,1-.67,2.11-1,3.27-.28.78-.47,1.52-.66,2.25L407.63,128l0,.15c-.07.41-.17.79-.28,1.2s-.23.88-.31,1.36c-1.53,6.92-.91,12.17,1.83,15.58,2.11,2.62,5.43,4,9.61,4h7.68c8.24,0,11.14-.82,15.55-4.4,4.16-3.46,6.13-6.84,8.41-14.45l4.11-15.85c1.84-7.09,2.13-8.18,2.22-10.4C456.74,97.06,453.91,93.78,446,93.08Zm-9,15.53L431,131.46c-.41,1.55-.9,2.6-1.34,2.87l-4.39,0a9.82,9.82,0,0,1,.32-1.77l5.94-22.84c.29-1.14.65-1.82,1.07-2h4.52A8.35,8.35,0,0,1,436.93,108.61Z" transform="translate(-12.47 -27.81)"/><path class="cls-4" d="M546.92,108.91l4.27-16H526.71c-6.89,0-10.7,2.85-13.56,10.16-.36.89-.63,1.75-.88,2.59L504,136.48c-1.22,4.56-.92,8.08.9,10.45,1.61,2.09,4.24,3.15,7.81,3.15h23.08l4.39-16.26H523.6l1.07-4h16.56l4.4-16.33H529.05l1.23-4.62Z" transform="translate(-12.47 -27.81)"/><path class="cls-4" d="M214.73,132l-2.24.63-.76.15c-.22.05-.41.1-.58.12l-.11,0a66.28,66.28,0,0,1-8.42.37q-1.69,0-2.85,0l7.43-27.66a33.63,33.63,0,0,1,3.94-9.3L213.2,93H190.31l-.37,4.93a41,41,0,0,1-1.48,7.69l-12,44.52H210.9l8.21-19.29Z" transform="translate(-12.47 -27.81)"/><path class="cls-5" d="M220.21,147.88l14.16-52.74h14.29L234.5,147.88Z" transform="translate(-12.47 -27.81)"/><path class="cls-5" d="M307.56,137l8.25-30.69c.25-.81.5-1.61.82-2.42,2.61-6.67,5.67-8.79,11.53-8.79h21.62l-3.09,11.57H330.05l-2.4,9h16.56L341,127.66H324.43L322.19,136h16.57l-3.21,11.86h-21.4C308.07,147.88,305.58,144.44,307.56,137Z" transform="translate(-12.47 -27.81)"/><path class="cls-5" d="M367.71,95.14c-4,0-5.24.29-7.22,1.47-2.95,1.82-4,3.51-5.61,9.44l-3.09,11.58a14.5,14.5,0,0,0-.38,1.83c-1.23,6.15.25,8.35,4.71,8.35h8.95l-2.13,8.06H346.81l-3.22,12h22.64c3.89,0,6.14-1,8.17-3.73.89-1.18,1.2-1.91,2.15-5.28l4.66-17.58c.82-2.93.69-4.17-.2-5.27s-1.92-1.62-4.33-1.62h-9.83l2.08-7.69h24.18l-11.06,41.17h14.21l11.06-41.17h8.4l3.1-11.57Z" transform="translate(-12.47 -27.81)"/><path class="cls-5" d="M506.11,137l8.25-30.69c.25-.81.5-1.61.82-2.42,2.62-6.67,5.67-8.79,11.53-8.79h21.62l-3.09,11.57H528.6l-2.4,9h16.57l-3.22,11.94H523L520.74,136h16.57l-3.21,11.86H512.7C506.62,147.88,504.13,144.44,506.11,137Z" transform="translate(-12.47 -27.81)"/><path class="cls-5" d="M296.84,95.13l-19,22.64-7.33-22.64H256.66L242.38,147.9h14.28l7.53-27.69c2.53,6.76,5.31,13.77,8,20.52l17.86-21.17-7.64,28.34h14l14.33-52.77Z" transform="translate(-12.47 -27.81)"/><polygon class="cls-5" points="474.74 93.71 467.5 67.32 453.27 67.32 438.8 120.09 453.22 120.09 460.64 93.22 467.77 119.93 482.14 120.09 496.55 67.48 481.95 67.48 474.74 93.71"/><path class="cls-5" d="M409.72,128.54l3.5-13.49c.19-.74.38-1.47.64-2.21,3.87-13.48,7.24-16.87,16-17.61.82-.07,1.72-.15,2.52-.15h11c.81,0,1.59.08,2.38.15,6.71.59,8.75,2.87,8.47,9.87-.08,2-.33,3-2.15,10l-3.5,13.49-.59,2.28c-2.23,7.44-4,10.32-7.72,13.41-3.9,3.17-6.28,3.9-14.17,3.9h-7.68c-8,0-11.85-5.6-9.32-17C409.26,130.3,409.54,129.49,409.72,128.54Zm14.54,7.92,5.75,0c1.39-.33,2.34-1.67,3.08-4.49L439,109.16c.61-2.36.2-3.32-1-3.61l-5.77,0c-1.4.29-2.29,1.47-2.85,3.63L423.5,132C422.79,134.76,423.05,136.09,424.26,136.46Z" transform="translate(-12.47 -27.81)"/><path class="cls-5" d="M179.37,147.89l11.21-41.76a42.26,42.26,0,0,0,1.54-8l.13-1.54.1-1.39h16.92a35.77,35.77,0,0,0-4.19,9.89L197,135.29c1.79.3,11.88.3,14.51-.22.52-.07,1-.22,1.5-.29l1.29-.37,1.06-.29-5.86,13.77Z" transform="translate(-12.47 -27.81)"/><polygon class="cls-1" points="224.94 70.23 233.51 70.23 233.8 69.16 223.31 69.16 210.13 118.25 212.05 118.25 224.94 70.23"/><path class="cls-1" d="M311.16,145.55c-1-1.3-1.08-3.71-.21-7l8.25-30.66c.23-.74.46-1.51.76-2.25,2.55-6.5,5.2-7.64,9.83-7.64h17.32L347.4,97H328.16c-4.63,0-7.28,1.14-9.83,7.64-.29.74-.53,1.5-.76,2.24l-8.25,30.66c-.87,3.25-.79,5.66.21,7a3.67,3.67,0,0,0,1.71,1.16Z" transform="translate(-12.47 -27.81)"/><polygon class="cls-1" points="308.97 111.11 323.61 111.11 323.9 110.04 309.25 110.04 308.97 111.11"/><polygon class="cls-1" points="314.43 90.82 329.07 90.82 329.36 89.74 314.72 89.74 314.43 90.82"/><path class="cls-1" d="M379.76,117.41a1.21,1.21,0,0,0-.17-.25l0-.06c-.29-.38-.64-.87-2.86-.87h-10.3l-.29,1.08h12.22A9.1,9.1,0,0,1,379.76,117.41Z" transform="translate(-12.47 -27.81)"/><path class="cls-1" d="M354.73,125.87c-.32-.73-.46-2.17.1-5v-.12a15.15,15.15,0,0,1,.34-1.62l3.09-11.55c1.56-5.67,2.43-6.89,4.79-8.36,1.53-.9,2.37-1.2,6.27-1.2h46.81l.28-1.07H367.71c-3.9,0-4.74.29-6.27,1.2-2.36,1.46-3.22,2.68-4.79,8.36l-3.09,11.55a14.5,14.5,0,0,0-.34,1.61v.13c-.69,3.47-.31,4.84.14,5.39A2.27,2.27,0,0,0,354.73,125.87Z" transform="translate(-12.47 -27.81)"/><polygon class="cls-1" points="337.38 110.96 353.51 110.96 356.61 99.25 354.69 99.25 351.88 109.89 335.75 109.89 333.5 118.25 335.42 118.25 337.38 110.96"/><polygon class="cls-1" points="384.66 78.15 382.74 78.15 371.97 118.25 373.88 118.25 384.66 78.15"/><polygon class="cls-1" points="512.98 90.82 527.62 90.82 527.91 89.74 513.27 89.74 512.98 90.82"/><path class="cls-1" d="M509.71,145.55c-1-1.3-1.07-3.71-.21-7l8.25-30.66c.24-.78.47-1.52.76-2.25,2.55-6.5,5.2-7.64,9.83-7.64h17.32L546,97H526.71c-4.63,0-7.28,1.14-9.83,7.64-.29.73-.52,1.46-.76,2.24l-8.25,30.66c-.86,3.25-.79,5.66.22,7a3.63,3.63,0,0,0,1.7,1.16Z" transform="translate(-12.47 -27.81)"/><polygon class="cls-1" points="507.52 111.11 522.16 111.11 522.45 110.04 507.81 110.04 507.52 111.11"/><polygon class="cls-1" points="265.93 94.95 286.51 70.44 295.51 70.44 295.87 69.14 285.22 69.14 265.26 92.9 265.93 94.95"/><polygon class="cls-1" points="246.88 70.44 257.12 70.44 256.7 69.14 245.59 69.14 232.29 118.27 233.94 118.27 246.88 70.44"/><path class="cls-1" d="M267.19,120.86l-2-5.28-.34,1.25,1,2.74c2.24,5.94,4.67,12.12,6.88,17.67l.53-.63C271.3,131.58,269.17,126.13,267.19,120.86Z" transform="translate(-12.47 -27.81)"/><polygon class="cls-1" points="280.66 93.52 279.22 92.77 272.34 118.27 273.99 118.27 280.66 93.52"/><polygon class="cls-1" points="476.03 101.88 484.64 70.6 493.81 70.6 494.16 69.3 483.34 69.3 475.2 98.88 476.03 101.88"/><polygon class="cls-1" points="461.96 87.56 461.48 89.3 469.17 118.12 470.13 118.14 461.96 87.56"/><polygon class="cls-1" points="455.95 70.44 466.47 70.44 466.11 69.14 454.66 69.14 441.19 118.27 442.84 118.27 455.95 70.44"/><path class="cls-1" d="M412.39,132.9v-.09c.06-.33.15-.69.25-1.07s.23-.89.33-1.41l3.51-13.5c.18-.68.35-1.33.57-2l0-.06,0-.07c3.8-13.25,6.75-15.57,14.27-16.2.76-.07,1.63-.14,2.36-.14h11c.71,0,1.42.06,2.18.13a11.6,11.6,0,0,1,4.64,1.1c-.89-1.58-2.69-2.17-6-2.46-.75-.07-1.47-.14-2.18-.14h-11c-.73,0-1.59.07-2.36.14-7.52.63-10.46,3-14.26,16.21l0,.06,0,.06c-.23.63-.4,1.28-.58,2L411.62,129c-.1.52-.22,1-.33,1.41s-.2.75-.25,1.07l0,.1c-1.24,5.59-.89,9.8,1,12.17a5.76,5.76,0,0,0,1.17,1.09C411.48,142.4,411.19,138.3,412.39,132.9Z" transform="translate(-12.47 -27.81)"/><path class="cls-1" d="M425.06,139.69l.27.08,6.27,0,.23-.05c2.81-.66,3.89-3.5,4.51-5.89L442.27,111c.51-2,.46-3.34-.17-4.41a3.45,3.45,0,0,0-1.3-1.23c.56,1,.6,2.38.11,4.28L435,132.49c-.62,2.39-1.7,5.23-4.51,5.89l-.23.06-6.27,0-.27-.09A3.73,3.73,0,0,1,423,138,3.22,3.22,0,0,0,425.06,139.69Z" transform="translate(-12.47 -27.81)"/><path class="cls-1" d="M196.66,137.1l-.16,0-.21.78,2,.32a58.35,58.35,0,0,0,6,.22c2.43,0,5.32-.06,7.35-.23l.58-1.36-.42.08a69.77,69.77,0,0,1-9.14.44C201.54,137.32,197.92,137.3,196.66,137.1Z" transform="translate(-12.47 -27.81)"/><path class="cls-1" d="M194,107.69a44.42,44.42,0,0,0,1.6-8.35l.1-1.29h10c.17-.36.33-.72.5-1.07H194l-.1,1.29a44.33,44.33,0,0,1-1.6,8.34l-10.59,39.45h1.92Z" transform="translate(-12.47 -27.81)"/><path class="cls-5" d="M46.7,92.39a55.35,55.35,0,0,0-6.7.51h-.55c4.32,3.06,13.1,3.47,13.1,3.47H81.82a34.48,34.48,0,0,1,4.86-3.47h-.05l.83-.51Z" transform="translate(-12.47 -27.81)"/><path class="cls-5" d="M178.46,99.41c-3.05-4.21-7.89-6.43-14-6.43a28.61,28.61,0,0,0-12.24,3.07,29.71,29.71,0,0,0,4.39-9.11c2.2-8.2-.77-14.64-4.21-22.11a80.89,80.89,0,0,1-4.56-11.42l-1.63-5.6-4.46,5.4c-2.95,3.56-6.1,6.76-9.15,9.86-.54.54-1.06,1.08-1.59,1.62-3.3,3.37-13.35,13.64-53,13.64H33.33a56.85,56.85,0,0,0-7,.55h-.2c3.54,2.51,10.74,2.85,10.74,2.85H78.19c44.64,0,52.05-9.63,66.18-26.75,3.68,12.66,11.66,21.06,8.78,31.8-3.1,11.57-16.55,19.11-23.44,34.88h-6.42c0-.12,0-.23,0-.34v.31c1.49-14.56-5.24-22.3-7.41-24.37l0,0A19.49,19.49,0,0,0,103.57,93,27.69,27.69,0,0,0,86.35,99.3a33.67,33.67,0,0,0-7.43,8.24H61.35a56.42,56.42,0,0,0-7.1.57h0c2.72,1.92,8.24,2.19,8.24,2.19H81c3.82-7,11.9-13.83,21.75-13.83a16.62,16.62,0,0,1,11.65,4.66h0c4.61,4.4,7.22,11.63,6.38,20.54h-6.56A13.06,13.06,0,0,0,104,112.19a13.69,13.69,0,0,0-2.74-.27c-5.56,0-8.58,3.74-8.82,5.9a4.59,4.59,0,0,0,.24,2.12c1.1,3,5.41,4.07,10,1.33h0c-1.73,5.36-7.72,8.66-13.56,8.66a9.9,9.9,0,0,1-9-5h0a2.69,2.69,0,0,1-.16-.29,1.09,1.09,0,0,0-.08-.15,12,12,0,0,1-1.18-4.18h-.58v0H60.38s-5.78.27-8.62,2.28h.17a36.14,36.14,0,0,0,5.88.56H75.32a12.83,12.83,0,0,0,5.27,8c3.23,2.27,7.39,2.34,9.87,2.11a21.27,21.27,0,0,0-3.12,3.82H28.13a57.14,57.14,0,0,0-7.09.56l.33.06H21c4.32,3.05,13.1,3.47,13.1,3.47H88.52v0h.67c2.21-8,12-10.82,14.92-7.22a5.25,5.25,0,0,0-5.27,3.33,2.61,2.61,0,0,0,.25,2.06,3.27,3.27,0,0,0,3,1.25c1.68,0,5.71-1.6,8.82-5.56h6.41c-4.29,9.77-11.43,16-19.27,16.44H41.62s-9.18.44-13.69,3.63h.2a35.65,35.65,0,0,0,5.84.55h67c.12,8.12,3.43,15.62,9.07,20.34l1.65,1.38L114,176a54.09,54.09,0,0,0,20.59-21.7,16.69,16.69,0,0,0,4.45.57c6.94,0,15.47-5.06,17.74-13.53a10.5,10.5,0,0,0-.74-8.14,18.06,18.06,0,0,0,2.59.18c9.53,0,19.52-8.21,22.27-18.3A18.53,18.53,0,0,0,178.46,99.41Zm-77.13,19a5.93,5.93,0,0,1-3,.93,2.57,2.57,0,0,1-1.93-.7,1.55,1.55,0,0,1-.37-1.18,2.39,2.39,0,0,1,.65-.83,5.49,5.49,0,0,1,3.81-1.22,11,11,0,0,1,4.33.89Zm3.37,9.78a9,9,0,0,0-.23,1.33,9.45,9.45,0,0,0-3.44-.63,16,16,0,0,0,5.08-7.28l1.23-3.79a10,10,0,0,1,2.94,3.9A10.61,10.61,0,0,0,104.7,128.19Zm39.68,1.21a8.06,8.06,0,0,0,.3-.91,6,6,0,0,0-2-6.59,22.6,22.6,0,0,1,5-3.93l-.71,3.35a9.57,9.57,0,0,0,1.31,7.58A12.1,12.1,0,0,0,144.38,129.4Zm14.86-12.22a4.15,4.15,0,0,1-3.69,2.17,3.51,3.51,0,0,1-2.35-.88l-2.29-2a15,15,0,0,1,5.19-1c1.52,0,2.57.39,3,1.08A1,1,0,0,1,159.24,117.18Z" transform="translate(-12.47 -27.81)"/><path class="cls-4" d="M177.55,100.08c-2.84-3.91-7.36-6-13.08-6a29,29,0,0,0-13.82,4l-.72-.84a31,31,0,0,0,5.6-10.65c2.09-7.81-.8-14.08-4.15-21.34a81.37,81.37,0,0,1-4.62-11.59l-1-3.54-3.1,3.75c-3,3.6-6.15,6.82-9.22,9.94-.53.54-1,1.08-1.58,1.61-2.49,2.54-6.34,5.82-14.13,8.65-9.76,3.53-23.12,5.33-39.71,5.33H72.31l0,0H32.18a36.66,36.66,0,0,1-5.95-.57l.1,0h-.2c3.54,2.51,10.74,2.85,10.74,2.85H78.19c44.64,0,52.05-9.63,66.18-26.75,3.68,12.66,11.66,21.06,8.78,31.8-3.1,11.57-16.55,19.11-23.44,34.88h-6.42c0-.12,0-.23,0-.34.27-13.2-6.09-21.23-8.17-23.23a18.38,18.38,0,0,0-11.57-4,26.54,26.54,0,0,0-16.51,6.08,32.27,32.27,0,0,0-7.34,8.22l-.17.27H60.2a36.53,36.53,0,0,1-5.92-.57h-.07c2.72,1.92,8.24,2.19,8.24,2.19H81c3.82-7,11.9-13.83,21.75-13.83a16.62,16.62,0,0,1,11.65,4.66h0c4.61,4.4,7.22,11.63,6.38,20.54h-6.56A13.06,13.06,0,0,0,104,112.19a13.69,13.69,0,0,0-2.74-.27c-5.56,0-8.58,3.74-8.82,5.9a4.59,4.59,0,0,0,.24,2.12c1.1,3,5.41,4.07,10,1.33h0c-1.73,5.36-7.72,8.66-13.56,8.66a9.9,9.9,0,0,1-9-5h0a2.69,2.69,0,0,1-.16-.29,1.09,1.09,0,0,0-.08-.15,12,12,0,0,1-1.18-4.18l-18.29,0s-5.78.27-8.62,2.28h.1a57.18,57.18,0,0,1,7.1-.56H76.32l.05.51a11.75,11.75,0,0,0,4.88,7.66c4.38,3.09,11,1.65,11.08,1.63l.4,1A15.78,15.78,0,0,0,88.12,138l-.17.26H27a36.74,36.74,0,0,1-5.62-.51H21c4.32,3.05,13.1,3.47,13.1,3.47H88.52v0h.67c2.21-8,12-10.82,14.92-7.22a5.25,5.25,0,0,0-5.27,3.33,2.61,2.61,0,0,0,.25,2.06,3.27,3.27,0,0,0,3,1.25c1.68,0,5.71-1.6,8.82-5.56h6.41c-4.29,9.77-11.43,16-19.27,16.44H41.62s-9.18.44-13.69,3.63h.2l-.11,0a57.14,57.14,0,0,1,7.09-.56h67v.64h0c0,8,3.18,15.37,8.68,20l1,.87,1.62-.93a52.79,52.79,0,0,0,20.34-21.64L134,153l.46.15a15.18,15.18,0,0,0,4.58.66c6.51,0,14.52-4.75,16.65-12.7.88-3.3.4-6.25-1.37-8.3l-1.15-1.34,1.72.42a15.35,15.35,0,0,0,3.74.43c9.05,0,18.55-7.83,21.18-17.47A17.45,17.45,0,0,0,177.55,100.08Zm-72.06,37.09c-.1.14-.7.84-2.74,1.26a2.68,2.68,0,0,1-.46,0,1,1,0,0,1-1.09-.81,1.54,1.54,0,0,1,1.11-1.54,3,3,0,0,1,.85-.1,10.26,10.26,0,0,1,2,.26l.83.19Zm5.73-14.63a9.43,9.43,0,0,0-5.42,6,6.22,6.22,0,0,0-.22,1.89l0,1-.88-.49a8.77,8.77,0,0,0-5.54-.73l-.4-1a15.36,15.36,0,0,0,6.23-7.88l1.51-4.66-4.62,2.78a7.07,7.07,0,0,1-3.57,1.1,3.66,3.66,0,0,1-2.78-1.09,2.63,2.63,0,0,1-.64-2.08v0a3,3,0,0,1,1-1.49,6.67,6.67,0,0,1,4.57-1.5,12.05,12.05,0,0,1,5.78,1.47l.45.24.12.07.27.19.24.17a11.3,11.3,0,0,1,4.17,5.4l.18.51Zm32.35,15.1a1,1,0,0,1-1.13.84,1.84,1.84,0,0,1-.39,0c-2.05-.34-2.68-1-2.78-1.14l-.53-.67.82-.23a9.93,9.93,0,0,1,2.16-.34,2.68,2.68,0,0,1,.68.07A1.53,1.53,0,0,1,143.57,137.64Zm16.74-20.07a5.27,5.27,0,0,1-4.76,2.91,4.6,4.6,0,0,1-3.1-1.16l-3.28-2.91-1.1,5.14a8.2,8.2,0,0,0,1.93,7.67l1.21,1.25-1.72-.3a10.78,10.78,0,0,0-6,.76l-1.57.67.85-1.48a8.08,8.08,0,0,0,.81-1.93c.66-2.45-.14-4.63-2.08-5.67l-.64-.35.48-.53a23.77,23.77,0,0,1,6.88-5.26l.57-.29.13-.07.35-.15.34-.14a16.93,16.93,0,0,1,6.48-1.45c2.48,0,3.52.89,4,1.64A2.06,2.06,0,0,1,160.31,117.57Z" transform="translate(-12.47 -27.81)"/><path class="cls-4" d="M85.66,93.53H45.56a36.66,36.66,0,0,1-6-.57L40,92.9h-.55c4.32,3.06,13.1,3.47,13.1,3.47H81.83C83.4,95,85.66,93.53,85.66,93.53Z" transform="translate(-12.47 -27.81)"/><path class="cls-1" d="M112.71,173.13c-5.48-4.59-8.79-12.32-8-21.09,6.2-2.86,11.61-8.91,15.1-17h6.33c-.85,8.12,1.31,14.17,6,17A48.52,48.52,0,0,1,112.71,173.13Z" transform="translate(-12.47 -27.81)"/><path class="cls-1" d="M153.35,141.37c-1.73,6.47-8.38,10.22-13.52,10.22a10.65,10.65,0,0,1-8.14-3.22c-2.62-2.82-3.75-7.39-3.18-13.23h6.42a7.46,7.46,0,0,0,4.27,5.22,4.33,4.33,0,0,0,1.59.35,4.94,4.94,0,0,0,5-3.31,2.84,2.84,0,0,0-3.48-3.35h0C147.2,130.43,155.52,133.3,153.35,141.37Z" transform="translate(-12.47 -27.81)"/><path class="cls-1" d="M177.54,115c-2.11,7.72-9.85,15-18.07,15-5.87,0-10.09-3.31-8.95-8.68,3.76,3.34,10.21,1,12.09-3.46a4,4,0,0,0-.36-3.71h0c-.82-1.24-2.48-2.21-5.31-2.21-6.35,0-13.78,4.17-18.23,9.78h-6.58c6.62-15,20.45-25.27,31.62-25.27,7.78,0,12.18,4.25,13.74,9.48h0A16.79,16.79,0,0,1,177.54,115Z" transform="translate(-12.47 -27.81)"/><path class="cls-1" d="M111.27,132.42a3.06,3.06,0,0,1-3.09-4.08,5.78,5.78,0,0,1,5.28-4.08h24.65a3.07,3.07,0,0,1,3.1,4.08,5.8,5.8,0,0,1-5.29,4.08Z" transform="translate(-12.47 -27.81)"/><path class="cls-1" d="M151.56,174.14l3.26-13.29.25-1a6.5,6.5,0,0,1,1.88-3,4.9,4.9,0,0,1,3-.84h8.31l-1.23,5H161l-1,3.93h6.05l-1.27,5.16h-6.05l-.89,3.62h6l-1.26,5.13h-8.11Q150.41,178.84,151.56,174.14Z" transform="translate(-12.47 -27.81)"/><path class="cls-1" d="M185.34,178.7l1.28-5.2h5.83l.86-3.49H190.5a2.3,2.3,0,0,1-2.06-.84,3.72,3.72,0,0,1-.07-2.81l.19-.76,1.23-5a9.94,9.94,0,0,1,1.16-3,4.15,4.15,0,0,1,1.9-1.43,5,5,0,0,1,.86-.19,13.35,13.35,0,0,1,1.51-.06H203l-1.23,5h-5.9l-.82,3.33h3.14a3.34,3.34,0,0,1,1.18.16,1.49,1.49,0,0,1,.71.54,1.57,1.57,0,0,1,.32.87,4.47,4.47,0,0,1-.19,1.42l-1.87,7.63c-.2.8-.33,1.31-.41,1.54a2.6,2.6,0,0,1-.44.74,3.79,3.79,0,0,1-1.43,1.26,4.91,4.91,0,0,1-2.06.36Z" transform="translate(-12.47 -27.81)"/><path class="cls-1" d="M220.09,178.84l5.65-23H237a3.1,3.1,0,0,1,2.54.8c.4.53.44,1.47.11,2.81l-.18.74-1.56,6.35-.22.86a6.3,6.3,0,0,1-1.67,3.26,4.12,4.12,0,0,1-2.88,1h-5.1l-1.75,7.14Zm10.47-12.4a1.57,1.57,0,0,0,1.59-1.41l.68-2.75c.22-.92-.1-1.38-1-1.38h-1.15l-1.36,5.54Z" transform="translate(-12.47 -27.81)"/><path class="cls-1" d="M257.42,170.26l1.43-5.84.24-1q1.05-4.28,2.47-5.82a6.47,6.47,0,0,1,4.35-1.8h5.18a4.58,4.58,0,0,1,3,1.08,4.73,4.73,0,0,1,.74,3.19,7.72,7.72,0,0,1-.17,1.31c-.09.49-.33,1.49-.7,3l-1.43,5.84-.25,1a13.87,13.87,0,0,1-1.27,3.53,8.63,8.63,0,0,1-2,2.26,6.94,6.94,0,0,1-2.47,1.38,15.14,15.14,0,0,1-3.69.33H261.3a4.18,4.18,0,0,1-3.84-1.82c-.8-1.29-.91-3.15-.32-5.55Zm6.7,3.49a1.3,1.3,0,0,0,1-.43,3.48,3.48,0,0,0,.67-1.54l2.42-9.87c.23-.91.08-1.44-.44-1.56l-.21,0h-.23q-1.14,0-1.53,1.59l-2.42,9.87a2.78,2.78,0,0,0-.09,1.53A.76.76,0,0,0,264.12,173.75Z" transform="translate(-12.47 -27.81)"/><path class="cls-1" d="M291.93,178.84l5.65-23h10.47q4.45,0,3.51,3.88l-.81,3.27-.19.8a5.2,5.2,0,0,1-1.39,2.28,5.26,5.26,0,0,1-2.43,1.06h-.54l.52.1a2.85,2.85,0,0,1,2.08,1.26,3.87,3.87,0,0,1,0,2.67l-1.21,5a5.92,5.92,0,0,0-.23,1.31,4,4,0,0,0,.24,1.12l.12.29h-6.64a3.61,3.61,0,0,1-.15-2l.11-.45,1.17-4.77.09-.35c0-.73-.35-1.09-1.14-1.09h-.92l-2.13,8.65ZM302.25,165a1.77,1.77,0,0,0,1.48-.56,7.4,7.4,0,0,0,.9-2.44c.12-.79-.36-1.18-1.45-1.18h-.59l-1,4.18Z" transform="translate(-12.47 -27.81)"/><path class="cls-1" d="M330,160.88l1.24-5h12.41l-1.24,5h-3.16l-4.41,18h-6.19l4.41-18Z" transform="translate(-12.47 -27.81)"/><path class="cls-1" d="M360.8,178.84l1.29-5.23H368l.86-3.51H366a2.3,2.3,0,0,1-2.07-.85,3.71,3.71,0,0,1-.08-2.83l.19-.77,1.24-5.05a9.7,9.7,0,0,1,1.17-3.07,4.08,4.08,0,0,1,1.91-1.44,5,5,0,0,1,.86-.19,13.77,13.77,0,0,1,1.53-.06h7.82l-1.23,5H371.4l-.82,3.35h3.16a3.44,3.44,0,0,1,1.19.16,1.49,1.49,0,0,1,.71.54,1.63,1.63,0,0,1,.32.88,4.71,4.71,0,0,1-.18,1.42l-1.89,7.68c-.2.81-.34,1.32-.41,1.55a3.07,3.07,0,0,1-.44.75,4,4,0,0,1-1.44,1.26,4.84,4.84,0,0,1-2.08.37Z" transform="translate(-12.47 -27.81)"/></svg>