<svg id="Layer_1" data-name="Layer 1" xmlns="http://www.w3.org/2000/svg" xmlns:xlink="http://www.w3.org/1999/xlink" viewBox="0 0 3053.96 1002.07"><defs><style>.cls-1{fill:#fff;}.cls-2{fill:#0033a1;}.cls-3{fill:url(#radial-gradient);}.cls-4{fill:#9594d2;}.cls-5{fill:#e6e7f5;}.cls-6{fill:#c4c5e7;}.cls-7{fill:none;}</style><radialGradient id="radial-gradient" cx="498.76" cy="461.39" r="322.01" gradientTransform="translate(0 -113.17) scale(1 1.25)" gradientUnits="userSpaceOnUse"><stop offset="0" stop-color="#f4ea2b"/><stop offset="0.58" stop-color="#f4e829"/><stop offset="0.79" stop-color="#f5e222"/><stop offset="0.94" stop-color="#f7d617"/><stop offset="1" stop-color="#f8cf0f"/></radialGradient></defs><path class="cls-1" d="M1124.82,690.17c0,11.66,0,24.36,11,33.73,5.62,4.78,15.19,7.91,22.9,7.91s17.28-3.13,22.9-7.91c11-9.37,11-22.07,11-33.73V605h15.41v89.31c0,11.66-1.25,22.9-8.75,33.31-8.32,11.45-22.9,18.74-40.59,18.74s-32.27-7.29-40.6-18.74c-7.49-10.41-8.74-21.65-8.74-33.31V605h15.4Z" transform="translate(-95.04 -41.55)"/><path class="cls-1" d="M1348,743.88V599.19l108.26,113.46V605h15.4V750.13L1363.42,636.67V743.88Z" transform="translate(-95.04 -41.55)"/><path class="cls-1" d="M1627,605V743.88h-15.41V605Z" transform="translate(-95.04 -41.55)"/><path class="cls-1" d="M1767.73,605l39.14,106L1846,605h17.07l-56.21,147.19L1750.66,605Z" transform="translate(-95.04 -41.55)"/><path class="cls-1" d="M2058.79,619.59h-56.63v41.22h55v14.58h-55v53.92h56.63v14.57h-72V605h72Z" transform="translate(-95.04 -41.55)"/><path class="cls-1" d="M2213.48,605c9.37,0,23.31.63,33.72,7.7,8.12,5.42,15.2,16,15.2,30.82,0,21.23-14,36.85-35,38.3l44.13,62h-18.73l-42.27-60.79h-3.95v60.79H2191.2V605Zm-6.87,64.33h9.79c19.15,0,30.6-9.16,30.6-25.4,0-7.7-2.29-15.4-11-20.4-6.24-3.54-13.32-4-20-4h-9.37Z" transform="translate(-95.04 -41.55)"/><path class="cls-1" d="M2461.86,632.5a33.59,33.59,0,0,0-8.12-10.41c-2.71-2.08-7.7-4.79-15.62-4.79-13.74,0-23.31,8.54-23.31,21.45,0,5.41,1.45,8.53,5.2,12.07,4.17,4.17,9.37,6.46,14.57,8.75l13.33,5.83c8.12,3.53,15.61,7.28,21.44,13.11,7.08,7.08,10,15.2,10,25.19,0,25.61-18.95,42.68-43.93,42.68-9.16,0-20.61-1.87-30.19-11.24-6.87-6.66-11-16.24-12.91-24.57l15-4.16a32.69,32.69,0,0,0,8.33,17.69c6,6,12.91,7.71,20,7.71,18.94,0,27.89-13.54,27.89-27.48,0-6.25-1.87-11.66-6.87-16.24-4-3.75-9.37-6.25-16.65-9.58l-12.49-5.83c-5.42-2.5-12.29-5.41-18.53-11.45-6-5.83-9.58-12.28-9.58-22.69,0-21.44,16.45-35.81,38.93-35.81,8.54,0,15.41,1.67,22.28,6.24a42,42,0,0,1,13.53,15.41Z" transform="translate(-95.04 -41.55)"/><path class="cls-1" d="M2627.16,605V743.88h-15.4V605Z" transform="translate(-95.04 -41.55)"/><path class="cls-1" d="M2801.21,619.59V743.88h-15.4V619.59h-33.73V605h82.86v14.57Z" transform="translate(-95.04 -41.55)"/><path class="cls-1" d="M2993.58,684.13,2948,605h17.91l35.39,62,35.81-62H3055l-46,79.11v59.75h-15.41Z" transform="translate(-95.04 -41.55)"/><path class="cls-1" d="M1023,502.14v-6l7.31-.33c17.62-.66,22.94-7.31,22.94-28.58V315c0-21.27-5.32-27.59-22.94-28.25l-7.31-.34v-6h95.39v6l-7.31.34c-17.62.66-22.94,7-22.94,28.25V459.26c-.33,25.26.67,25.93,26.93,26.59h28.25c32.23,0,48.85-12.63,61.48-46.2l7,2-19.61,60.49Z" transform="translate(-95.04 -41.55)"/><path class="cls-1" d="M1258.65,280.45H1354v6l-7.31.34c-17.62.66-22.94,7-22.94,28.25V467.57c0,21.27,5.32,27.59,22.94,28.25l7.31.33v6h-95.39v-6l7.31-.33c17.62-.66,22.93-7,22.93-28.25V315c0-21.27-5.31-27.59-22.93-28.25l-7.31-.34Z" transform="translate(-95.04 -41.55)"/><path class="cls-1" d="M1450.41,326.32V467.57c0,21.27,5.32,27.59,22.93,28.25l8.31.33v6h-77.77v-6l7.31-.33c17.62-.66,22.93-7,22.93-28.25V315c0-21.27-5.31-27.59-22.93-28.25l-7.31-.34v-6h63.81L1543.14,445l71.79-164.52h65.14v6l-7.31.34c-17.62.66-22.94,7-22.94,28.25V467.57c0,21.27,5.32,27.59,22.94,28.25l7.31.33v6h-94.39v-6l6.31-.33c17.62-.66,22.94-7,22.94-28.25V324.32l-79.1,177.82h-5.32Z" transform="translate(-95.04 -41.55)"/><path class="cls-1" d="M1795.05,463.25c0,21.27,2,24.26,18.28,23.93h39.88c35.23-.67,48.53-10,62.15-43.21l5.32,2.33-18.94,55.84H1729.91v-6l7.31-.33c18-.66,22.93-7,22.93-28.25V315c0-21.27-5-27.59-22.93-28.25l-7.31-.34v-6h168.5l3.33,50.19-5.65.66c-3.66-30.24-14.63-38.55-49.52-37.89h-51.52v83.76h56.17c18.94.33,25.92-8.64,25.59-33.24h6V424.7h-6c.66-23.6-6-32.24-25.59-32.58h-56.17Z" transform="translate(-95.04 -41.55)"/><path class="cls-1" d="M1984.15,502.14V427h6.64c2.66,18.28,5.32,26.93,12.3,37.23,10.64,15.95,27.59,25.92,45.2,25.92,21.61,0,38.56-15.62,38.56-35.89,0-10.31-3.66-18.28-13.3-27.92a93.49,93.49,0,0,0-21.27-16.95l-25.92-15c-30.91-17.61-43.54-34.9-43.54-58.83,0-34.23,23.93-57.49,58.83-57.49,10,0,17.28,1.33,30.57,5.65s14.29,4.65,17.28,4.65c4.33,0,7-2.33,9.31-8h7l-.33,70.46h-6c-7.65-25.26-13-36.56-21.61-45.53-8-8.31-18.94-12.63-31.9-12.63-20.28,0-34.9,12.63-34.9,30.24,0,13.3,11.63,27.26,32.57,39.22l25.92,15c34.24,19.61,49.86,40.21,49.86,66.14,0,35.56-27.25,61.15-65.48,61.15-13,0-13,0-40.55-8.64-5-1.66-9.63-2.66-12.62-2.66-5.32,0-8,2.33-10,9Z" transform="translate(-95.04 -41.55)"/><path class="cls-1" d="M2215.46,496.15l7.64-.33c17.61-.66,22.93-7,22.93-28.25V296.74h-29.91c-28.58-.33-39.22,10-40.88,38.22l-6.32-.67,3.33-53.84h182.13l3.32,53.84-6.31.67c-1.33-28.25-12.3-38.55-40.88-38.22h-29.58V467.57c0,21.27,5,27.59,22.93,28.25l7.31.33v6h-95.71Z" transform="translate(-95.04 -41.55)"/><path class="cls-1" d="M2618.92,391.13c0,32.24-11,61.15-31.57,82.42-19.94,20.94-44.21,30.91-75.11,30.91-60.16,0-105.36-48.52-105.36-113.33,0-64.48,45.2-113,105.36-113C2573.39,278.13,2618.92,326.32,2618.92,391.13Zm-173.16.33c0,59.16,26.93,100,66.14,100,41.22,0,68.14-39.88,68.14-100.37,0-59.49-27.59-100-68.14-100C2472.35,291.09,2445.76,331.64,2445.76,391.46Z" transform="translate(-95.04 -41.55)"/><path class="cls-1" d="M2724.59,329.64V467.57c0,21.27,5.32,27.59,22.93,28.25l7.32.33v6h-76.78v-6l7.31-.33c17.62-.66,22.94-7,22.94-28.25V310c-19.94-20.6-23.93-22.93-42.54-23.6v-6h65.47l131.28,153.22V315c0-21.27-5.31-27.59-22.93-28.25l-7.31-.34v-6h76.77v6l-7.31.34c-17.61.66-22.93,7-22.93,28.25V502.14h-5.32Z" transform="translate(-95.04 -41.55)"/><path class="cls-1" d="M3023.37,463.25c0,21.27,2,24.26,18.28,23.93h39.88c35.23-.67,48.53-10,62.15-43.21l5.32,2.33-18.94,55.84H2958.23v-6l7.31-.33c17.95-.66,22.93-7,22.93-28.25V315c0-21.27-5-27.59-22.93-28.25l-7.31-.34v-6h168.5l3.33,50.19-5.65.66c-3.66-30.24-14.63-38.55-49.52-37.89h-51.52v83.76h56.17c18.94.33,25.92-8.64,25.59-33.24h6V424.7h-6c.66-23.6-6-32.24-25.59-32.58h-56.17Z" transform="translate(-95.04 -41.55)"/><path class="cls-2" d="M811.38,683.46q-5.43,9.48-11.53,19c-31.53,49-76.12,97.93-132.52,145.38-51.41,43.25-103,76.92-137.19,97.56-12.12,7.31-22.84,13.47-31.78,18.46-9-5-19.68-11.16-31.79-18.46C432.36,924.72,380.79,891,329.38,847.8a790.26,790.26,0,0,1-76.87-73.51" transform="translate(-95.04 -41.55)"/><path class="cls-3" d="M264.36,808.64a527.92,527.92,0,0,1-53.06-68.52c-35.18-54.71-53-109.51-53-162.88V154.55a1322.64,1322.64,0,0,1,137.94-26.61,1492.37,1492.37,0,0,1,405.11,0,1322.45,1322.45,0,0,1,137.93,26.61V577.24c0,47.49-14.13,96.12-42,144.8" transform="translate(-95.04 -41.55)"/><path class="cls-2" d="M858.15,132.09A1197.3,1197.3,0,0,0,686.68,95.42a1374.55,1374.55,0,0,0-375.75,0,1197.89,1197.89,0,0,0-171.47,36.67l-5.11,1.5v425c0,59.94,19.17,120.33,57,179.49,30,47,71.82,93.32,124.24,137.7,46.5,39.37,92.95,69.92,123.74,88.62,33.39,20.28,55.48,31.09,56.41,31.54l3.1,1.52,3.1-1.52c.92-.45,23-11.26,56.41-31.54,30.78-18.7,77.24-49.25,123.74-88.62,52.41-44.38,94.21-90.71,124.24-137.7,37.8-59.16,57-119.55,57-179.49v-425ZM831.61,558.57c0,53.73-17.48,108.32-51.94,162.25-28.3,44.3-68,88.22-118,130.55-44.93,38-89.9,67.62-119.72,85.72-18.79,11.42-33.79,19.68-43.15,24.64-9.37-5-24.39-13.24-43.16-24.64-29.82-18.11-74.79-47.68-119.72-85.72-50-42.32-89.68-86.25-118-130.55C183.48,666.89,166,612.3,166,558.57V157.64A1177.39,1177.39,0,0,1,315.29,127a1343.78,1343.78,0,0,1,367,0,1177.55,1177.55,0,0,1,149.29,30.66Z" transform="translate(-95.04 -41.55)"/><path class="cls-4" d="M498.38,1043.62l-7.62-3.69c-1-.5-25.35-12.34-61.7-34.27-33.54-20.24-84.17-53.31-134.86-95.95C236.85,861.47,191.06,811,158.11,759.81,116.26,694.75,95,628.19,95,562V98.78l12.56-3.67A1309.79,1309.79,0,0,1,294.15,55.48a1503.94,1503.94,0,0,1,408.44,0A1309.79,1309.79,0,0,1,889.14,95.11h0l12.56,3.67V562c0,66.22-21.22,132.78-63.07,197.84-33,51.23-78.74,101.67-136.09,149.9-50.7,42.65-101.32,75.72-134.86,95.95-36.53,22.05-60.69,33.78-61.7,34.27ZM114.61,113.45V562c0,62.4,20.17,125.4,60,187.25,31.89,49.58,76.37,98.54,132.22,145.52,49.73,41.82,99.43,74.29,132.38,94.17,32.13,19.38,54.44,30.61,59.2,33,4.76-2.34,26.93-13.49,59.21-33C590.52,969,640.22,936.57,690,894.74c55.85-47,100.34-95.93,132.23-145.52,39.78-61.85,60-124.85,60-187.25V113.45A1292.46,1292.46,0,0,0,699.9,74.85a1484.76,1484.76,0,0,0-403,0A1292.16,1292.16,0,0,0,114.61,113.45Z" transform="translate(-95.04 -41.55)"/><path class="cls-1" d="M886.87,104.63A1300.54,1300.54,0,0,0,701.71,65.29a1493.78,1493.78,0,0,0-405.74,0,1300.1,1300.1,0,0,0-185.15,39.34l-5.52,1.61V562.1c0,64.3,20.69,129.09,61.51,192.54C199.23,805.05,244.37,854.75,301,902.35c50.21,42.24,100.37,75,133.61,95.06,36.07,21.76,59.92,33.36,60.91,33.84l3.35,1.62,3.35-1.62c1-.48,24.85-12.08,60.91-33.84,33.24-20,83.41-52.82,133.62-95.06,56.6-47.6,101.73-97.3,134.15-147.71,40.82-63.45,61.52-128.24,61.52-192.54V106.24ZM858.21,562.1c0,57.64-18.87,116.2-56.08,174-30.57,47.52-73.43,94.64-127.42,140C626.2,917,577.64,948.72,545.44,968.14c-20.29,12.25-36.49,21.11-46.6,26.44-10.11-5.33-26.33-14.21-46.6-26.44C420,948.72,371.48,917,323,876.19c-54-45.4-96.84-92.52-127.41-140-37.21-57.85-56.08-116.41-56.08-174V132a1277.49,1277.49,0,0,1,161.2-32.89,1460,1460,0,0,1,396.32,0A1277.28,1277.28,0,0,1,858.21,132Z" transform="translate(-95.04 -41.55)"/><polygon class="cls-2" points="700.21 671.67 720.28 634.21 138.93 730.98 163.55 760.98 700.21 671.67"/><polyline class="cls-1" points="724.38 667.29 707.03 699.95 707.07 699.95 170.54 790.03 170.5 789.99 148.12 762.88 148.07 762.92 724.43 667.32"/><path class="cls-2" d="M323,263.47H703.21c-24.67-70.85-90.13-127.65-201-131.24-99.46,7.85-145.27,63.58-179.29,131.29" transform="translate(-95.04 -41.55)"/><path class="cls-2" d="M515.42,118.79a2.83,2.83,0,0,0-2.61-3h-8.72l1.7-39.23-7.08-9.63-6.83,9.63,1.75,39.23h-8.7a3.05,3.05,0,0,0,0,6v14.53h27.88V121.83A2.85,2.85,0,0,0,515.42,118.79Z" transform="translate(-95.04 -41.55)"/><polyline class="cls-1" points="396.54 72.84 394.71 32.27 396.7 32.18 398.54 72.84"/><polyline class="cls-1" points="409.09 72.86 410.88 32.2 412.87 32.29 411.09 72.86"/><polygon class="cls-2" points="181.41 739.59 139.83 720.68 139.83 472.76 145.3 465.21 145.3 404.3 154.15 394.43 154.15 366.36 151.28 355.65 121.28 345.88 151.02 321.04 137.49 314.53 197.87 206.79 260.85 220.85 275.94 220.85 311.59 191.7 332.41 195.65 332.41 712.95 181.41 739.59"/><polyline class="cls-1" points="702.71 395.9 702.71 455.55 702.71 455.55 707.03 455.55 707.03 492.71 721.86 497.13 721.86 515.87 707.03 524.05 707.03 670.97 328.38 736.81 328.38 466.66 317.45 457.57 317.45 438.71 317.42 438.71 323.17 440.14 323.17 395.38 317.45 380.8 332.41 383.62 332.43 383.62 332.43 263.32 323.17 261.35 323.17 228.15 320.05 213.21 311.2 191.61 387.71 204.36 521.74 160.12 646.65 242.62 640.67 247.82 710.67 261.61 678.92 288.16 678.92 318.61 692.46 331.88 692.46 381.06 702.61 395.9"/><polygon class="cls-1" points="702.71 455.55 702.71 450.44 707.03 455.55 702.71 455.55"/><polyline class="cls-1" points="254.07 432.79 244.63 425.44 254.07 418.08 254.07 318.02 254.07 317.96 235.97 307.42 257.07 286.86 265.95 289.1 265.95 256.83 265.95 256.83 165.47 331.98 165.47 347.76 165.47 347.76 151.28 355.65 120.84 345.96 120.84 345.93 150.46 321.01 137.01 314.49 197.43 206.46 261.31 220.83 275.94 220.83 275.94 220.85 311.23 191.47 320.5 213.13 323.36 227.55 285.66 259.57 285.66 294.28 285.66 294.28 281.48 293.26 280.38 302.73 280.38 408.65 280.38 408.71 317.45 380.8 323.36 395.38 280.38 425.5 280.38 464.68 280.36 464.68 317.45 438.71 328.38 441.41 328.38 466.66 278.04 496.61 280.36 545.17 272.89 547.42 269.64 546.45 263.13 552.82 258.31 546.45 261.17 535.91 246.65 516.13 188.23 555.88 190.45 604.87 183.15 606.89 179.64 606.89 173.52 612.74 168.7 606.17 174.04 596.28 158.54 576.38 139.83 588.27 125.39 587.05 125.39 570.46 155.48 549.7 155.48 543 149.35 540.2 167 526.8 167 499.87 139.85 519.12 132.1 510.6 162.77 486.98 159.51 483.73 166.94 476.9 166.94 380.83 167 380.83 147.53 369.48 172.21 351.14 186.28 352.11 190.45 369.55 190.45 470.72 190.38 470.72 195.66 471.89 192.79 485.62 192.79 522.51 245.15 487.7 245.15 479.7 238.47 476.91 254.14 465.9 254.14 432.79"/><polyline class="cls-2" points="155.84 318.61 262.93 238.06 206.98 225.44 206.98 225.31 155.71 318.61"/><path class="cls-2" d="M571.92,671.88V781.36l93.7-14.4v-78l.2.38c-8.64-25.47-23.7-40.93-50-46l1,.19c-26.24-2.65-39.77,11.37-44.9,26.33" transform="translate(-95.04 -41.55)"/><polyline class="cls-5" points="433.07 405.01 430.44 407.62 430.44 407.59 430.44 410.83 430.33 410.77 579.34 434.73 579.47 434.86 579.47 429.4 579.47 429.53 432.54 405.43"/><polyline class="cls-6" points="608.51 508.66 604.65 500.8 604.67 500.82 605.18 500.87 605.18 500.86 608.51 508.62"/><line class="cls-2" x1="630.49" y1="256.13" x2="630.52" y2="256.15"/><polygon class="cls-4" points="329 471.06 707.03 523.99 722.39 515.67 722.38 494.85 317.45 438.84 317.45 457.57 329 471.06"/><polyline class="cls-4" points="387.71 204.3 521.82 160.12 646.78 242.65 630.62 256.32 620.27 268.9 620.27 277.85 620.27 277.85 398.95 239.99 398.94 239.98 395.36 224.7 387.66 204.28"/><polygon class="cls-4" points="706.98 456.09 716.06 444.41 317.4 380.8 323.15 395.56 706.98 456.09"/><polygon class="cls-4" points="710.67 261.61 640.67 247.82 630.59 256.18 620.13 268.87 620.13 277.83 678.92 288.16 710.67 261.61"/><polyline class="cls-4" points="387.71 204.34 311.2 191.61 320.5 213.13 323.1 227.81 411.66 242.15 411.67 233.12 407.88 216.9 401.4 199.78 387.66 204.28"/><polygon class="cls-1" points="517.22 181.42 407.96 217.43 627.92 254.53 517.22 181.42"/><polygon class="cls-1" points="428.19 404.83 602.3 433.31 602.3 396.5 428.19 368.43 428.19 404.83"/><line class="cls-7" x1="573.71" y1="334.39" x2="602.28" y2="339.12"/><polyline class="cls-4" points="427.92 310.25 602.28 339.12 602.28 344.27 427.92 315.88 427.92 310.25"/><path class="cls-2" d="M552.63,423.91l.35-38.1a20.83,20.83,0,0,1-8,.67l0-5.26c4.07.4,8.23-2.2,9.54-9l4.13.41-.48,51.89c0,2.42.76,2.93,2.06,3.32l4.6.45-.06,5.78-19.16-1.91.06-5.77,5.06.5C551.81,427,552.61,425.64,552.63,423.91Z" transform="translate(-95.04 -41.55)"/><path class="cls-2" d="M576.94,407.05c-4.11-3.69-5.88-8.9-5.52-14.74.69-11.24,9-15.53,17.44-14.26,7.48,1.12,15.59,6.61,14.94,17.17-.4,6.59-4,10.4-8.62,12.95,5.59,3.48,8.48,8.78,8,16.3-.76,12.25-9.79,15.85-18.58,14.52-8.38-1.26-16.89-7.23-16.17-18.89C568.85,413.59,572.19,409.32,576.94,407.05Zm8,26.11c5.4.81,10.35-1.26,10.8-8.53a8.88,8.88,0,0,0-4.3-8.49L581,410c-3.46,1.79-5.85,5.52-6.15,10.25C574.39,428,579.23,432.3,585,433.16Zm-1.78-32.42c6.13,3.73,7.34,4.43,7.48,4.45,3.73-1.57,6.42-5.43,6.72-10.34.43-7.09-3.77-10.37-8.89-11.14-4.92-.74-9.3,1.24-9.72,7.92A9.64,9.64,0,0,0,583.2,400.74Z" transform="translate(-95.04 -41.55)"/><path class="cls-2" d="M625,435.39l.41-8.1-18.93-2.78.32-6.2,21.5-34.08,5.68.83-1.86,37,8.37,1.23-.31,6.2-8.36-1.23-.42,8.19c-.12,2.41.78,3,2.29,3.46l4.33.63-.29,5.78-20-2.93.29-5.77,4.64.68C623.89,438.45,624.88,437.12,625,435.39Zm-13-16.31,13.68,2,1.3-25.94Z" transform="translate(-95.04 -41.55)"/><polygon class="cls-2" points="398.94 239.98 398.95 269.08 392.87 272.86 404.54 294.15 404.54 391 402.08 391.84 408.61 405.53 408.61 451.46 413.48 458.46 413.48 471.86 416.39 472.32 414.49 478.06 414.48 528.98 423.11 523.44 419.83 515.4 429.25 476.57 423.11 466.91 423.11 453.48 419.83 445.92 419.83 402.35 412.56 389.89 419.83 390.82 419.83 286.05 408.61 265.23 411.67 265.84 411.67 233.12 407.88 216.9 401.4 199.78 387.71 204.36 395.36 224.7 398.94 239.98"/><polygon class="cls-2" points="413.48 471.86 414.49 478.06 416.39 472.32 413.48 471.86"/><rect class="cls-2" x="482.39" y="243.36" width="14.43" height="0.49" transform="translate(-146.95 125.78) rotate(-18.43)"/><polygon class="cls-2" points="439.7 525.87 431.05 531.71 431.07 467.01 441.36 468.54 445.98 478.95 436.29 518.09 439.7 525.87"/><polyline class="cls-4" points="452.91 471.25 452.91 457.89 459.25 451.52 443.55 449.27 443.55 405.42 455.31 394.05 443.56 392.54 443.56 292.26 457.07 274.51 408.61 265.23 419.83 286.05 419.83 390.82 412.56 389.89 419.83 402.35 419.83 445.92 423.11 453.48 423.11 466.91 429.25 476.57 419.83 515.4 423.11 523.44 414.48 528.98 423.02 528.98 429.7 523.21 426.57 515.48 436.7 477.71 432.44 468.25 441.79 469.59 445.98 478.95 445.96 478.95 436.29 518.09 439.7 525.87 431.05 531.71 439.59 531.71 446.32 526.05 443.17 518.11 453.27 480.22 448.99 470.73 452.94 471.25"/><polyline class="cls-2" points="599.52 473.85 604.26 470.53 607.98 479.01 607.98 491.35 613.18 500.62 603.43 539.42 607.01 547.78 598.22 553.12 598.22 502.76 600.65 497.93 600.11 482.88 598.17 477.69 589.79 476.5 589.79 432.74 584.45 421.15 590.37 417.7 590.37 319.86 582.03 303.08 589.9 296.32 599.5 316.77 599.5 418.17 594.95 417.3 599.5 429.07 599.5 473.85"/><polygon class="cls-2" points="619.91 542.15 623.45 550.45 615.54 555.85 615.54 491.67 623.47 493.09 629.78 503.31 619.91 542.15"/><polyline class="cls-4" points="598.2 553.11 606.99 547.78 603.41 539.41 613.16 500.61 607.96 491.35 607.96 479 604.25 470.52 599.48 473.84 599.5 473.84 599.5 429.06 599.48 429.06 594.93 417.29 599.48 418.16 599.48 316.76 589.88 296.31 639.12 302.52 620.4 319.42 620.4 420.77 620.34 420.77 631.83 422.96 620.34 433.47 620.34 474.78 643.03 478.27 636.96 482.28 636.96 496.55 632.91 495.85 636.71 504.28 626.89 542.17 629.97 550.24 623.61 555.84 615.52 555.84 623.43 550.44 619.89 542.14 629.76 503.3 624.51 494.32 616.29 492.85 620.14 501.62 610.25 539.61 613.35 547.36 606.65 553.11 598.11 553.11"/><path class="cls-2" d="M654.63,398.27l-1.46,14.33c3.25-3.39,7-4.39,11.52-3.85,11.42,1.38,15.48,11.74,14.83,22.21-.85,13.8-9.2,21.28-20.61,19.91-6.89-.83-15-5.93-14.45-15.56.25-4.09,2.43-7.77,6.17-7.32,2.87.35,4.79,3.24,4.58,6.65s-2.2,5.22-4.94,5c1.44,3.69,5.22,4.57,8.3,4.95,7.9.95,11.6-5,12.15-13.9.5-8.26-1.84-14.89-9.37-15.8-4.09-.49-6.27.79-8.77,4.95l-5.31-.64L650,388.71" transform="translate(-95.04 -41.55)"/><polyline class="cls-2" points="554.97 347.16 584.32 352.33 583.51 360.91 559.59 356.73"/><polygon class="cls-2" points="141.78 592.08 122.05 590.12 121.97 566.82 140.99 553.57 143.85 557.67 126.97 569.43 127.03 585.59 142.28 587.1 141.78 592.08"/><polygon class="cls-2" points="139.86 523.44 127.33 508.52 140.92 497.45 144.08 501.33 134.42 509.19 143.69 520.22 139.86 523.44"/><polygon class="cls-2" points="154.44 379.31 139.03 370.18 153.33 358.93 156.42 362.86 147.85 369.6 156.99 375.01 154.44 379.31"/><polygon class="cls-2" points="156.4 359.95 115.77 346.96 145.85 321.59 133.53 315.6 196.64 201.13 262.38 215.97 261.28 220.85 199.2 206.84 140.45 313.4 154.96 320.45 125.9 344.95 157.92 355.19 156.4 359.95"/><polyline class="cls-2" points="702.03 523.28 702.03 671.26 707.03 670.21 707.03 524"/><polyline class="cls-2" points="707.03 492.73 707.03 456.11 702.03 455.3 702.03 492.04"/><polyline class="cls-2" points="702.7 442.27 702.7 395.27 692.44 380.44 692.44 330.98 678.91 317.71 678.91 288.16 673.91 287.26 673.91 319.81 687.44 333.08 687.44 382 697.7 396.83 697.7 441.47"/><polygon class="cls-2" points="676.01 290.62 673.01 286.62 706.54 261.49 634.94 249.44 644.54 241.25 595.71 208.94 598.47 204.76 652.84 240.74 646.34 246.28 718.87 258.49 676.01 290.62"/><polyline class="cls-2" points="702.02 457.74 704.4 459.57 719.6 439.92 698.48 436.55 697.69 441.49 710.48 443.53 702.03 454.46"/><polyline class="cls-2" points="702.01 494.54 719.87 497.01 719.82 513.21 702.1 523.26 704.56 527.61 724.81 516.12 724.89 492.66 702.37 489.55 702.03 492.04"/></svg>