<svg id="Layer_1" data-name="Layer 1" xmlns="http://www.w3.org/2000/svg" xmlns:xlink="http://www.w3.org/1999/xlink" viewBox="0 0 5927.03 2687.14"><defs><style>.cls-1{fill:none;}.cls-2{fill:#fff;}.cls-3{fill:#0033a1;}.cls-4{fill:url(#radial-gradient);}.cls-5{fill:#9594d2;}.cls-6{fill:#e6e7f5;}.cls-7{fill:#c4c5e7;}</style><radialGradient id="radial-gradient" cx="451.87" cy="247.8" r="322.01" gradientTransform="translate(0 149.22) scale(1 1.25)" gradientUnits="userSpaceOnUse"><stop offset="0" stop-color="#f4eb29"/><stop offset="0.54" stop-color="#f4e828"/><stop offset="0.73" stop-color="#f4e325"/><stop offset="0.87" stop-color="#f6dc1e"/><stop offset="0.98" stop-color="#f7d116"/><stop offset="1" stop-color="#f8cf15"/></radialGradient></defs><rect class="cls-1" x="3389.74" y="2309.37" width="2537.29" height="377.77"/><path class="cls-2" d="M1077.93,686.59c0,11.66,0,24.36,11,33.73,5.62,4.79,15.2,7.91,22.9,7.91s17.28-3.12,22.9-7.91c11-9.37,11-22.07,11-33.73V601.44h15.41v89.31c0,11.66-1.25,22.9-8.74,33.31-8.33,11.45-22.9,18.74-40.6,18.74s-32.27-7.29-40.6-18.74c-7.49-10.41-8.74-21.65-8.74-33.31V601.44h15.41v85.15Z" transform="translate(-48.14 -37.97)"/><path class="cls-2" d="M1301.11,740.3V595.61l108.26,113.46V601.44h15.41V746.55L1316.52,633.09V740.3Z" transform="translate(-48.14 -37.97)"/><path class="cls-2" d="M1580.1,601.44V740.3h-15.41V601.44Z" transform="translate(-48.14 -37.97)"/><path class="cls-2" d="M1720.83,601.44l39.14,106,39.14-106h17.07L1760,748.63l-56.21-147.19Z" transform="translate(-48.14 -37.97)"/><path class="cls-2" d="M2011.89,616h-56.63v41.22h55v14.57h-55v53.92h56.63V740.3h-72V601.44h72Z" transform="translate(-48.14 -37.97)"/><path class="cls-2" d="M2166.58,601.44c9.37,0,23.32.63,33.73,7.7,8.12,5.41,15.2,16,15.2,30.81,0,21.24-14,36.85-35,38.31l44.13,62h-18.74l-42.26-60.79h-4V740.3h-15.4V601.44Zm-6.87,64.33h9.79c19.15,0,30.6-9.16,30.6-25.4,0-7.7-2.29-15.4-11-20.4-6.25-3.54-13.32-4-20-4h-9.37Z" transform="translate(-48.14 -37.97)"/><path class="cls-2" d="M2415,628.92a33.44,33.44,0,0,0-8.12-10.41c-2.71-2.08-7.7-4.79-15.61-4.79-13.74,0-23.32,8.54-23.32,21.44,0,5.41,1.46,8.54,5.21,12.07,4.16,4.16,9.37,6.46,14.57,8.75l13.32,5.83c8.12,3.54,15.61,7.29,21.44,13.12,7.08,7.08,10,15.2,10,25.19,0,25.6-19,42.68-43.93,42.68-9.16,0-20.61-1.87-30.19-11.24-6.87-6.66-11-16.24-12.91-24.57l15-4.16a32.76,32.76,0,0,0,8.33,17.7c6,6,12.91,7.71,20,7.71,19,0,27.9-13.53,27.9-27.48,0-6.25-1.87-11.66-6.87-16.24-3.95-3.75-9.37-6.25-16.66-9.58l-12.49-5.83c-5.42-2.5-12.28-5.41-18.53-11.45-6-5.83-9.58-12.28-9.58-22.69,0-21.44,16.44-35.81,38.93-35.81,8.54,0,15.4,1.67,22.27,6.25a42,42,0,0,1,13.53,15.41Z" transform="translate(-48.14 -37.97)"/><path class="cls-2" d="M2580.27,601.44V740.3h-15.4V601.44Z" transform="translate(-48.14 -37.97)"/><path class="cls-2" d="M2754.32,616V740.3h-15.4V616h-33.73V601.45h82.86V616Z" transform="translate(-48.14 -37.97)"/><path class="cls-2" d="M2946.69,680.55l-45.59-79.11H2919l35.39,62,35.81-62h17.9l-46,79.11V740.3h-15.41V680.55Z" transform="translate(-48.14 -37.97)"/><path class="cls-2" d="M976.13,498.56v-6l7.31-.33c17.62-.66,22.93-7.31,22.93-28.58V311.44c0-21.27-5.32-27.59-22.93-28.25l-7.31-.33v-6h95.39v6l-7.31.33c-17.62.66-22.93,7-22.93,28.25V455.68c-.33,25.26.67,25.92,26.92,26.59h28.25c32.24,0,48.86-12.63,61.49-46.2l7,2-19.61,60.49H976.13Z" transform="translate(-48.14 -37.97)"/><path class="cls-2" d="M1211.75,276.87h95.39v6l-7.31.33c-17.62.66-22.93,7-22.93,28.25V464c0,21.27,5.32,27.59,22.93,28.25l7.31.33v6h-95.39v-6l7.31-.33c17.62-.66,22.93-7,22.93-28.25V311.44c0-21.27-5.32-27.59-22.93-28.25l-7.31-.33Z" transform="translate(-48.14 -37.97)"/><path class="cls-2" d="M1403.51,322.74V464c0,21.27,5.32,27.59,22.93,28.25l8.31.33v6H1357v-6l7.31-.33c17.62-.66,22.93-7,22.93-28.25V311.44c0-21.27-5.32-27.59-22.93-28.25l-7.31-.33v-6h63.81l75.45,164.52L1568,276.88h65.14v6l-7.31.33c-17.62.66-22.93,7-22.93,28.25V464c0,21.27,5.32,27.59,22.93,28.25l7.31.33v6h-94.39v-6l6.31-.33c17.62-.66,22.93-7,22.93-28.25V320.75l-79.1,177.81h-5.32Z" transform="translate(-48.14 -37.97)"/><path class="cls-2" d="M1748.15,459.67c0,21.27,2,24.26,18.28,23.93h39.88c35.23-.67,48.52-10,62.15-43.21l5.32,2.33-18.94,55.84H1683v-6l7.31-.33c18-.66,22.93-7,22.93-28.25V311.44c0-21.27-5-27.59-22.93-28.25l-7.31-.33v-6h168.51l3.32,50.19-5.65.66c-3.66-30.24-14.62-38.55-49.52-37.89h-51.52v83.75h56.17c18.94.33,25.92-8.64,25.59-33.24h6v80.76h-6c.67-23.6-6-32.24-25.59-32.57h-56.17Z" transform="translate(-48.14 -37.97)"/><path class="cls-2" d="M1937.25,498.56V423.45h6.65c2.66,18.28,5.32,26.92,12.3,37.23,10.64,15.95,27.59,25.92,45.2,25.92,21.6,0,38.55-15.62,38.55-35.89,0-10.31-3.65-18.28-13.29-27.92a93.49,93.49,0,0,0-21.27-17l-25.92-15c-30.91-17.61-43.54-34.9-43.54-58.83,0-34.23,23.93-57.5,58.83-57.5,10,0,17.28,1.33,30.58,5.65s14.29,4.65,17.28,4.65c4.32,0,7-2.33,9.31-8h7l-.33,70.46h-6c-7.65-25.26-13-36.56-21.6-45.53-8-8.31-18.94-12.63-31.91-12.63-20.27,0-34.9,12.63-34.9,30.24,0,13.3,11.63,27.25,32.57,39.22l25.92,14.95c34.23,19.61,49.85,40.22,49.85,66.14,0,35.56-27.25,61.15-65.47,61.15-13,0-13,0-40.55-8.64-5-1.66-9.64-2.66-12.63-2.66-5.32,0-8,2.33-10,9h-6.66v0Z" transform="translate(-48.14 -37.97)"/><path class="cls-2" d="M2168.56,492.57l7.64-.33c17.61-.66,22.93-7,22.93-28.25V293.16h-29.91c-28.58-.33-39.22,10-40.88,38.22l-6.32-.67,3.33-53.84h182.13l3.32,53.84-6.32.67c-1.33-28.25-12.3-38.55-40.88-38.22H2234V464c0,21.27,5,27.59,22.93,28.25l7.31.33v6h-95.72v-6Z" transform="translate(-48.14 -37.97)"/><path class="cls-2" d="M2572,387.55c0,32.24-11,61.15-31.57,82.43-19.94,20.94-44.2,30.91-75.11,30.91-60.16,0-105.36-48.53-105.36-113.33,0-64.48,45.2-113,105.36-113C2526.49,274.55,2572,322.74,2572,387.55Zm-173.16.33c0,59.16,26.92,100,66.14,100,41.21,0,68.13-39.88,68.13-100.37,0-59.49-27.59-100-68.13-100C2425.46,287.51,2398.87,328.06,2398.87,387.88Z" transform="translate(-48.14 -37.97)"/><path class="cls-2" d="M2677.7,326.06V464c0,21.27,5.32,27.59,22.93,28.25l7.32.33v6h-76.78v-6l7.31-.33c17.62-.66,22.93-7,22.93-28.25V306.45c-19.94-20.61-23.93-22.93-42.54-23.6v-6h65.48l131.28,153.22V311.44c0-21.27-5.32-27.59-22.93-28.25l-7.31-.33v-6h76.78v6l-7.31.33c-17.62.66-22.93,7-22.93,28.25V498.56h-5.32Z" transform="translate(-48.14 -37.97)"/><path class="cls-2" d="M2976.47,459.67c0,21.27,2,24.26,18.28,23.93h39.88c35.23-.67,48.52-10,62.15-43.21l5.32,2.33-18.94,55.84H2911.33v-6l7.31-.33c18-.66,22.93-7,22.93-28.25V311.44c0-21.27-5-27.59-22.93-28.25l-7.31-.33v-6h168.5l3.32,50.19-5.65.66c-3.66-30.24-14.62-38.55-49.52-37.89h-51.52v83.75h56.17c18.94.33,25.92-8.64,25.59-33.24h6v80.76h-6c.66-23.6-6-32.24-25.59-32.57h-56.17v71.13Z" transform="translate(-48.14 -37.97)"/><path class="cls-3" d="M764.48,679.88q-5.43,9.48-11.53,19c-31.53,49-76.11,97.93-132.51,145.37-51.41,43.25-103,76.93-137.19,97.56-12.12,7.31-22.84,13.47-31.78,18.46-9-5-19.68-11.16-31.79-18.46-34.21-20.64-85.78-54.32-137.19-97.56a789,789,0,0,1-76.87-73.51" transform="translate(-48.14 -37.97)"/><path class="cls-4" d="M217.46,805.06a527.81,527.81,0,0,1-53.05-68.52c-35.19-54.71-53-109.51-53-162.88V151a1323,1323,0,0,1,137.93-26.61,1492.44,1492.44,0,0,1,405.12,0A1322.45,1322.45,0,0,1,792.36,151V573.66c0,47.49-14.13,96.12-42,144.8" transform="translate(-48.14 -37.97)"/><path class="cls-3" d="M811.25,128.51A1197.3,1197.3,0,0,0,639.78,91.84a1374.62,1374.62,0,0,0-375.76,0A1197.89,1197.89,0,0,0,92.55,128.51L87.44,130V555c0,59.94,19.17,120.34,57,179.49,30,47,71.83,93.32,124.24,137.7,46.5,39.37,93,69.92,123.74,88.62,33.4,20.29,55.49,31.1,56.41,31.55l3.1,1.51,3.1-1.51c.93-.45,23-11.26,56.41-31.55,30.79-18.69,77.24-49.24,123.74-88.62,52.42-44.38,94.22-90.71,124.24-137.7,37.8-59.16,57-119.55,57-179.49V130ZM784.71,555c0,53.73-17.48,108.32-51.94,162.25-28.3,44.3-68,88.22-118,130.55-44.93,38-89.9,67.62-119.72,85.72-18.8,11.41-33.8,19.68-43.16,24.64-9.36-5-24.39-13.24-43.16-24.64C378.92,915.4,334,885.83,289,847.79c-50-42.32-89.69-86.25-118-130.55C136.57,663.31,119.1,608.72,119.1,555V154.06A1177.39,1177.39,0,0,1,268.38,123.4a1342.72,1342.72,0,0,1,367,0A1177.55,1177.55,0,0,1,784.7,154.06V555Z" transform="translate(-48.14 -37.97)"/><path class="cls-5" d="M451.48,1040l-7.62-3.69c-1-.49-25.35-12.34-61.7-34.27-33.54-20.24-84.17-53.31-134.86-96C190,857.89,144.16,807.46,111.21,756.23,69.36,691.17,48.14,624.61,48.14,558.4V95.2L60.7,91.53A1309.79,1309.79,0,0,1,247.25,51.9a1504,1504,0,0,1,408.45,0A1309.79,1309.79,0,0,1,842.25,91.53h0l12.56,3.67V558.39c0,66.21-21.22,132.77-63.07,197.83-33,51.24-78.74,101.68-136.09,149.91-50.7,42.65-101.32,75.72-134.86,96-36.54,22.05-60.7,33.78-61.7,34.27ZM67.71,109.87V558.4c0,62.4,20.17,125.4,60,187.25,31.89,49.58,76.38,98.54,132.23,145.51,49.72,41.82,99.43,74.29,132.38,94.17,32.13,19.39,54.44,30.61,59.2,33,4.75-2.34,26.93-13.49,59.2-33,32.94-19.87,82.64-52.33,132.37-94.17,55.85-47,100.34-95.93,132.23-145.51,39.78-61.85,60-124.85,60-187.25V109.87A1292.16,1292.16,0,0,0,653,71.27a1484.76,1484.76,0,0,0-403,0A1292.16,1292.16,0,0,0,67.71,109.87Z" transform="translate(-48.14 -37.97)"/><path class="cls-2" d="M840,101.05A1299,1299,0,0,0,654.82,61.72a1493.78,1493.78,0,0,0-405.74,0A1300.4,1300.4,0,0,0,63.93,101.05l-5.52,1.61V558.52c0,64.3,20.7,129.08,61.51,192.54,32.42,50.41,77.56,100.1,134.16,147.71,50.21,42.24,100.38,75,133.62,95.06,36.06,21.76,59.91,33.36,60.91,33.84l3.35,1.62,3.35-1.62c1-.48,24.85-12.08,60.91-33.84,33.24-20.05,83.41-52.82,133.62-95.06,56.6-47.6,101.74-97.3,134.16-147.71,40.82-63.46,61.51-128.24,61.51-192.54V102.66ZM811.31,558.52c0,57.64-18.87,116.2-56.08,174.05-30.56,47.52-73.43,94.64-127.41,140-48.51,40.81-97.08,72.53-129.27,91.95C478.25,976.8,462.06,985.67,452,991c-10.11-5.33-26.33-14.21-46.6-26.43-32.2-19.42-80.76-51.15-129.27-91.95-54-45.4-96.84-92.52-127.41-140-37.21-57.85-56.08-116.41-56.08-174.05V128.46a1279.26,1279.26,0,0,1,161.2-32.89,1460,1460,0,0,1,396.32,0,1278.89,1278.89,0,0,1,161.2,32.89V558.52Z" transform="translate(-48.14 -37.97)"/><polygon class="cls-3" points="700.22 671.66 720.29 634.2 138.93 730.97 163.56 760.98 700.22 671.66"/><polyline class="cls-2" points="724.39 667.28 707.04 699.94 707.08 699.94 170.55 790.02 170.51 789.99 148.13 762.88 148.08 762.92 724.44 667.31"/><path class="cls-3" d="M276.07,259.89H656.3c-24.67-70.85-90.13-127.65-201-131.24C355.83,136.5,310,192.23,276,259.94" transform="translate(-48.14 -37.97)"/><path class="cls-3" d="M468.52,115.21a2.83,2.83,0,0,0-2.61-3h-8.72L458.89,73l-7.08-9.63L445,73l1.75,39.23H438a3.05,3.05,0,0,0,0,6v14.53h27.88V118.25A2.84,2.84,0,0,0,468.52,115.21Z" transform="translate(-48.14 -37.97)"/><polyline class="cls-2" points="396.55 72.84 394.71 32.27 396.71 32.18 398.55 72.83"/><polyline class="cls-2" points="409.1 72.86 410.88 32.2 412.88 32.29 411.1 72.86"/><polygon class="cls-3" points="181.42 739.58 139.84 720.68 139.84 472.76 145.31 465.21 145.31 404.3 154.16 394.42 154.16 366.36 151.29 355.65 121.29 345.87 151.03 321.04 137.5 314.53 197.88 206.79 260.85 220.84 275.95 220.84 311.6 191.7 332.42 195.64 332.42 712.95 181.42 739.58"/><polyline class="cls-2" points="702.72 395.89 702.72 455.54 702.72 455.54 707.04 455.54 707.04 492.7 721.87 497.13 721.87 515.86 707.04 524.05 707.04 670.97 328.39 736.81 328.39 466.65 317.46 457.57 317.46 438.7 317.43 438.7 323.18 440.13 323.18 395.37 317.46 380.8 332.42 383.61 332.44 383.61 332.44 263.31 323.18 261.35 323.18 228.14 320.06 213.2 311.21 191.6 387.72 204.36 521.75 160.11 646.66 242.61 640.68 247.82 710.68 261.61 678.93 288.15 678.93 318.6 692.47 331.87 692.47 381.06 702.61 395.89"/><polygon class="cls-2" points="702.72 455.54 702.72 450.44 707.04 455.54 702.72 455.54"/><polyline class="cls-2" points="254.08 432.78 244.64 425.43 254.08 418.08 254.08 318.02 254.08 317.95 235.98 307.41 257.08 286.85 265.96 289.09 265.96 256.83 265.96 256.83 165.48 331.97 165.48 347.76 165.48 347.76 151.29 355.65 120.84 345.95 120.84 345.93 150.47 321.01 137.02 314.48 197.43 206.45 261.32 220.83 275.95 220.83 275.95 220.84 311.24 191.46 320.51 213.12 323.36 227.54 285.67 259.57 285.67 294.28 285.67 294.28 281.49 293.25 280.39 302.73 280.39 408.65 280.39 408.71 317.46 380.8 323.37 395.37 280.39 425.5 280.39 464.68 280.37 464.68 317.46 438.7 328.39 441.41 328.39 466.65 278.05 496.61 280.37 545.17 272.9 547.42 269.65 546.44 263.13 552.82 258.31 546.44 261.18 535.9 246.66 516.12 188.24 555.88 190.46 604.87 183.16 606.88 179.65 606.88 173.52 612.74 168.71 606.17 174.05 596.28 158.55 576.37 139.84 588.26 125.4 587.04 125.4 570.45 155.49 549.7 155.49 542.99 149.36 540.2 167.01 526.79 167.01 499.86 139.86 519.12 132.11 510.59 162.78 486.98 159.52 483.72 166.95 476.89 166.95 380.83 167.01 380.83 147.54 369.48 172.22 351.13 186.29 352.11 190.46 369.54 190.46 470.71 190.39 470.71 195.67 471.88 192.8 485.61 192.8 522.5 245.16 487.69 245.16 479.69 238.47 476.91 254.15 465.9 254.15 432.78"/><polyline class="cls-3" points="155.85 318.6 262.94 238.06 206.98 225.44 206.98 225.31 155.72 318.6"/><path class="cls-3" d="M525,668.3V777.77l93.69-14.39v-78l.21.38c-8.64-25.46-23.71-40.93-50-46l1,.19c-26.24-2.65-39.77,11.36-44.9,26.33" transform="translate(-48.14 -37.97)"/><polyline class="cls-6" points="433.08 405.01 430.44 407.61 430.44 407.59 430.44 410.83 430.34 410.76 579.35 434.73 579.48 434.86 579.48 429.39 579.48 429.52 432.55 405.43"/><polyline class="cls-7" points="608.51 508.65 604.66 500.8 604.68 500.81 605.19 500.87 605.19 500.85 608.52 508.61"/><line class="cls-1" x1="630.5" y1="256.13" x2="630.53" y2="256.15"/><polygon class="cls-5" points="329.01 471.06 707.04 523.98 722.39 515.66 722.39 494.84 317.46 438.83 317.46 457.57 329.01 471.06"/><polyline class="cls-5" points="387.72 204.29 521.83 160.12 646.79 242.65 630.63 256.31 620.28 268.89 620.28 277.84 620.28 277.84 398.96 239.99 398.95 239.98 395.37 224.7 387.67 204.27"/><polygon class="cls-5" points="706.99 456.09 716.07 444.4 317.4 380.8 323.16 395.56 706.99 456.09"/><polygon class="cls-5" points="710.68 261.61 640.68 247.82 630.6 256.18 620.14 268.87 620.14 277.82 678.93 288.15 710.68 261.61"/><polyline class="cls-5" points="387.72 204.33 311.21 191.6 320.51 213.12 323.1 227.8 411.67 242.15 411.68 233.11 407.89 216.9 401.41 199.78 387.67 204.27"/><polygon class="cls-2" points="517.23 181.41 407.97 217.42 627.93 254.52 517.23 181.41"/><polygon class="cls-2" points="428.2 404.83 602.31 433.3 602.31 396.5 428.2 368.43 428.2 404.83"/><line class="cls-1" x1="573.71" y1="334.39" x2="602.29" y2="339.12"/><polyline class="cls-5" points="427.93 310.24 602.29 339.12 602.29 344.26 427.93 315.87 427.93 310.24"/><path class="cls-3" d="M505.73,420.33l.35-38.1a20.78,20.78,0,0,1-8,.67l.05-5.26c4.07.41,8.23-2.2,9.54-9l4.13.41-.47,51.9c0,2.41.76,2.92,2.06,3.31l4.6.46,0,5.78-19.16-1.91.05-5.78,5.07.5C504.92,423.44,505.71,422.06,505.73,420.33Z" transform="translate(-48.14 -37.97)"/><path class="cls-3" d="M530,403.47c-4.1-3.69-5.88-8.9-5.52-14.73.69-11.24,9-15.54,17.44-14.27,7.48,1.13,15.6,6.61,14.95,17.17-.4,6.59-4,10.4-8.62,12.95,5.58,3.48,8.47,8.78,8,16.3-.75,12.25-9.78,15.85-18.58,14.52-8.38-1.26-16.89-7.23-16.17-18.89C522,410,525.29,405.74,530,403.47Zm8,26.11c5.4.81,10.35-1.26,10.8-8.53a8.85,8.85,0,0,0-4.3-8.49l-10.45-6.18c-3.46,1.78-5.86,5.52-6.15,10.25C527.5,424.41,532.33,428.72,538.08,429.58Zm-1.78-32.42c6.13,3.74,7.34,4.43,7.48,4.45,3.73-1.57,6.41-5.43,6.71-10.34.44-7.1-3.77-10.37-8.89-11.14-4.92-.74-9.3,1.24-9.71,7.92A9.64,9.64,0,0,0,536.3,397.16Z" transform="translate(-48.14 -37.97)"/><path class="cls-3" d="M578.07,431.81l.41-8.1-18.92-2.78.31-6.2,21.51-34.08,5.68.83-1.86,37,8.36,1.23-.31,6.21-8.36-1.23-.41,8.19c-.12,2.41.77,3,2.29,3.46l4.34.64-.29,5.77-20-2.93.29-5.77,4.64.68C577,434.87,578,433.54,578.07,431.81Zm-13-16.31,13.67,2,1.3-25.94Z" transform="translate(-48.14 -37.97)"/><polygon class="cls-3" points="398.95 239.98 398.96 269.07 392.87 272.85 404.55 294.14 404.55 391 402.09 391.83 408.62 405.52 408.62 451.46 413.48 458.46 413.48 471.86 416.4 472.31 414.5 478.05 414.49 528.97 423.12 523.44 419.84 515.4 429.26 476.57 423.12 466.9 423.12 453.48 419.84 445.91 419.84 402.35 412.56 389.88 419.84 390.82 419.84 286.04 408.62 265.23 411.68 265.83 411.68 233.11 407.89 216.9 401.41 199.78 387.72 204.36 395.37 224.7 398.95 239.98"/><polygon class="cls-3" points="413.48 471.86 414.5 478.05 416.4 472.31 413.48 471.86"/><rect class="cls-3" x="435.49" y="239.8" width="14.43" height="0.49" transform="translate(-101.33 114.33) rotate(-18.43)"/><polygon class="cls-3" points="439.71 525.87 431.06 531.7 431.08 467.01 441.37 468.53 445.99 478.95 436.3 518.08 439.71 525.87"/><polyline class="cls-5" points="452.92 471.25 452.92 457.88 459.26 451.51 443.56 449.27 443.56 405.42 455.32 394.05 443.57 392.53 443.57 292.26 457.08 274.5 408.62 265.23 419.84 286.04 419.84 390.82 412.56 389.88 419.84 402.35 419.84 445.91 423.12 453.48 423.12 466.9 429.26 476.57 419.84 515.4 423.12 523.44 414.49 528.97 423.03 528.97 429.71 523.21 426.58 515.47 436.71 477.71 432.45 468.24 441.8 469.59 445.99 478.95 445.97 478.95 436.3 518.08 439.71 525.87 431.06 531.7 439.6 531.7 446.33 526.04 443.17 518.11 453.28 480.22 449 470.73 452.94 471.25"/><polyline class="cls-3" points="599.53 473.85 604.27 470.52 607.99 479.01 607.99 491.35 613.18 500.61 603.44 539.42 607.02 547.78 598.23 553.11 598.23 502.76 600.66 497.93 600.12 482.87 598.18 477.69 589.8 476.49 589.8 432.74 584.46 421.15 590.37 417.69 590.37 319.86 582.04 303.07 589.91 296.32 599.51 316.76 599.51 418.16 594.96 417.29 599.51 429.07 599.51 473.85"/><polygon class="cls-3" points="619.91 542.15 623.46 550.45 615.55 555.84 615.55 491.67 623.48 493.09 629.79 503.3 619.91 542.15"/><polyline class="cls-5" points="598.21 553.11 607 547.77 603.42 539.41 613.16 500.61 607.97 491.34 607.97 479 604.25 470.52 599.49 473.84 599.51 473.84 599.51 429.06 599.49 429.06 594.94 417.28 599.49 418.15 599.49 316.75 589.89 296.31 639.13 302.51 620.41 319.42 620.41 420.77 620.35 420.77 631.84 422.96 620.35 433.46 620.35 474.77 643.04 478.27 636.97 482.28 636.97 496.55 632.92 495.84 636.72 504.27 626.9 542.16 629.98 550.23 623.62 555.83 615.53 555.83 623.44 550.44 619.9 542.14 629.77 503.3 624.52 494.32 616.3 492.84 620.14 501.61 610.25 539.61 613.36 547.36 606.66 553.11 598.12 553.11"/><path class="cls-3" d="M607.74,394.69,606.28,409c3.25-3.38,7-4.39,11.52-3.85,11.42,1.38,15.48,11.73,14.83,22.21-.85,13.8-9.2,21.28-20.61,19.91-6.89-.83-15-5.93-14.45-15.56.25-4.09,2.43-7.77,6.17-7.32,2.87.35,4.79,3.24,4.58,6.64s-2.2,5.22-4.94,5c1.44,3.69,5.21,4.58,8.3,5,7.9.95,11.59-5,12.14-13.89.51-8.26-1.83-14.89-9.37-15.8-4.09-.49-6.27.79-8.77,5l-5.31-.64,2.75-30.47" transform="translate(-48.14 -37.97)"/><polyline class="cls-3" points="554.98 347.16 584.33 352.33 583.52 360.91 559.6 356.72"/><polygon class="cls-3" points="141.79 592.07 122.06 590.12 121.97 566.82 141 553.56 143.86 557.67 126.98 569.42 127.04 585.59 142.28 587.09 141.79 592.07"/><polygon class="cls-3" points="139.87 523.43 127.34 508.52 140.93 497.45 144.09 501.33 134.43 509.19 143.7 520.22 139.87 523.43"/><polygon class="cls-3" points="154.45 379.31 139.04 370.17 153.34 358.93 156.43 362.86 147.86 369.59 157 375.01 154.45 379.31"/><polygon class="cls-3" points="156.4 359.94 115.77 346.96 145.86 321.58 133.54 315.59 196.64 201.13 262.39 215.97 261.29 220.84 199.21 206.83 140.46 313.4 154.97 320.45 125.91 344.95 157.93 355.18 156.4 359.94"/><polyline class="cls-3" points="702.04 523.28 702.04 671.26 707.04 670.2 707.04 524"/><polyline class="cls-3" points="707.04 492.72 707.04 456.1 702.04 455.29 702.04 492.03"/><polyline class="cls-3" points="702.7 442.26 702.7 395.27 692.45 380.43 692.45 330.98 678.92 317.71 678.92 288.15 673.92 287.26 673.92 319.81 687.45 333.08 687.45 381.99 697.7 396.83 697.7 441.47"/><polygon class="cls-3" points="676.02 290.62 673.02 286.62 706.55 261.48 634.95 249.43 644.55 241.24 595.72 208.93 598.48 204.76 652.85 240.74 646.35 246.28 718.88 258.49 676.02 290.62"/><polyline class="cls-3" points="702.03 457.73 704.41 459.57 719.6 439.92 698.49 436.55 697.7 441.48 710.49 443.53 702.04 454.46"/><polyline class="cls-3" points="702.02 494.54 719.88 497.01 719.82 513.2 702.11 523.26 704.57 527.61 724.81 516.12 724.9 492.65 702.38 489.54 702.03 492.03"/><rect class="cls-2" x="3194.96" y="237.22" width="7" height="473.54"/><path class="cls-2" d="M3510.34,446.38c-.8,2.6-1.4,3.4-3.6,4.4-5.8,2.4-23.2,9-38.8,9-35.2,0-57.4-24.8-57.4-56,0-47.4,39-84,81.8-84,17.2,0,28.4,6.8,32.4,10,2.6,2,4.4,2.4,5.4,2.4,2.8,0,4-2,5.2-6.4.2-.8.6-1.2,2-.8l2.4.6c.8.2,1.4.6,1.2,1.6l-11.4,40.2c-.4,1.2-.8,1.4-2.4,1.2l-2.6-.4a1.38,1.38,0,0,1-1.2-2c4.4-17.2-6-39.6-31-39.6-36.2,0-62.4,37.2-62.4,81,0,31.6,18.6,45,37,45,12.8,0,21.4-5.4,25-8.4,1.8-1.6,2.8-4.2,3.6-6.8l4-19.4c1.8-8-1.4-9.6-8-9.6h-7.4c-1.6,0-1.8-.6-1.4-2l.8-3.8c.2-1.2.6-1.6,2.2-1.6,3,0,10,.6,23.2.6,13.6,0,18.4-.6,21.2-.6,1.4,0,2,.6,1.8,2l-.6,3.8c-.2,1.2-.6,1.6-1.8,1.6h-3.2c-4.8,0-7.8,1.6-9,7.2Z" transform="translate(-48.14 -37.97)"/><path class="cls-2" d="M3581.34,341.18c3-7.6,2.8-12.6-3-12.6h-5.8c-1.4,0-1.6-.8-1.2-1.8l1.2-3.6c.4-1.2.8-1.4,2-1.4h24.8c1.8,0,2.4,1.2,1.8,3l-41.6,105.8c-1.8,4.6-6.6,15.6-2.4,15.6,3.2,0,12.4-7.8,14.8-10.4.8-.8,1.2-.6,1.8,0l2.2,2.4a1.35,1.35,0,0,1-.2,2c-1,1.6-19.6,18.6-32.4,18.6-2.6,0-4.4-1.2-4.4-5.8,0-3,5-15.6,7.4-21.6Z" transform="translate(-48.14 -37.97)"/><path class="cls-2" d="M3593.14,433c0-25.2,19-59.4,45.6-59.4,13.4,0,21.4,9.8,21.4,23.4,0,22-17.4,61.8-46.4,61.8C3602.74,458.78,3593.14,448.18,3593.14,433Zm59-39c.2-6.2-3.4-11.2-10-11.2-8.4,0-19,7.6-29,23.8-6.8,10.8-11.6,23-11.6,32.4,0,6.4,4.4,10.2,9.2,10.2C3631.54,449.18,3652.14,407.18,3652.14,394Z" transform="translate(-48.14 -37.97)"/><path class="cls-2" d="M3703.54,328.58c-1.6,0-2.2-.8-1.8-2l1.2-3.2c.4-1.2.8-1.6,2-1.6h25.4c1.8,0,2.2,1.8,1.4,3.6l-32.2,72.6,1.2.4c9.8-12.4,25.2-24.8,36.2-24.8,10.2,0,14.2,6.4,14.2,15.2,0,11.4-6.6,31-26.2,50.6-10.6,10.4-23.4,19.4-42.4,19.4-8.2,0-13.4-5.8-13.4-13.2,0-3.2,1.4-8,3-11.6,14.8-34.4,28.6-66.4,41.4-97a14.22,14.22,0,0,0,1.4-5.4c0-1.8-2.2-3-5.6-3ZM3692.14,452c16,0,44.6-34,44.6-60,0-6.2-3.2-8.6-6.8-8.6-7.6,0-22.4,12.6-32.6,26.8-7.8,11-13.8,27.4-13.8,33.2C3683.54,451.38,3687.74,452,3692.14,452Z" transform="translate(-48.14 -37.97)"/><path class="cls-2" d="M3841.34,373.58c.8,0,1,1,.6,1.8-3.8,8.2-14,35.8-15,39-1.2,3.4-9.6,28.2-9.6,30s1,2.4,2.2,2.4c2.4,0,12.6-10.4,14-12.2.6-.6,1.2-1,1.6-.4l1.8,2c.6.6.8,1,.4,1.6-2.2,4-19.6,21-31,21-2.4,0-4.2-.8-4.2-3.4,0-3,2-9.2,9.6-30.4l-1-.4c-8.4,12.8-28.6,34.2-42.8,34.2-4.6,0-10.8-3.8-10.8-12.8,0-29.2,32.8-72.4,57.2-72.4,8.4,0,12.2,3.6,14.2,6.8l3.8-5.4c.6-.8,1.2-1.4,2-1.4Zm-25.2,34.8c2.8-5.8,4.8-10.8,4.8-16.6,0-5.4-2-11.8-9.4-11.8-18.4,0-39.8,42.2-39.8,61.2,0,4.6,2,7,5.4,7C3787.14,448.18,3812.54,415.78,3816.14,408.38Z" transform="translate(-48.14 -37.97)"/><path class="cls-2" d="M3890.74,341.18c3-7.6,2.8-12.6-3-12.6h-5.8c-1.4,0-1.6-.8-1.2-1.8l1.2-3.6c.4-1.2.8-1.4,2-1.4h24.8c1.8,0,2.4,1.2,1.8,3l-41.6,105.8c-1.8,4.6-6.6,15.6-2.4,15.6,3.2,0,12.4-7.8,14.8-10.4.8-.8,1.2-.6,1.8,0l2.2,2.4a1.35,1.35,0,0,1-.2,2c-1,1.6-19.6,18.6-32.4,18.6-2.6,0-4.4-1.2-4.4-5.8,0-3,5-15.6,7.4-21.6Z" transform="translate(-48.14 -37.97)"/><path class="cls-2" d="M3443.94,583.78c3.6-11.2-4.2-14.2-11-14.2h-6.4c-1.2,0-1.6-.6-1.2-2.2l1-3.8c.4-1.2,1-1.4,2.4-1.4,1.2,0,3.4.2,7.6.2,4.2.2,10.4.4,20,.4h12.8c15.2,0,26.6-.2,34.8-.4,8.2,0,13.2-.2,15.4-.2,3,0,3.4.6,4.2,3.8l6.4,27.4c.2,1,0,1.2-1.2,1.8l-2.2.8c-1,.4-1.2.4-2-.6l-18.8-24.2a3.43,3.43,0,0,0-3.2-1.6h-36.4l-17.2,52.6h19.2c11.6,0,18.2-.4,23.8-16.8.2-.8.6-1.2,1.4-1l3,.6c.8.2,1.4.6,1.2,1.6l-10.8,39.8c-.2,1.2-.6,1.4-1.4,1.2l-3.2-.4c-1-.2-1-.4-.8-1.6,1.4-16.6-6.6-17-22.4-17h-12l-19.4,61.4h51.8c7.2,0,12-3.2,16-8.4l16-20.2a1.51,1.51,0,0,1,2.4-.4l2,1.2c.8.6,1.2,1,.6,2.8l-10.2,29c-1,3-2,3.4-4.4,3.4-1.6,0-10.4-.2-22.2-.4-11.8,0-26.6-.2-40.4-.2h-23.2c-9.2,0-15,.2-18.8.2-3.6.2-5.2.4-6,.4-1.4,0-2-.4-1.6-1.6l.6-4.2c.4-1.2.6-1.6,1.6-1.6h7.4c8.2,0,12.2-4.2,14.4-11.2Z" transform="translate(-48.14 -37.97)"/><path class="cls-2" d="M3560.94,631.58q-1.2-3.6-3.6-3.6c-4,0-8.4,6.8-12.6,15a1.39,1.39,0,0,1-2,.6l-2.8-1.4c-.6-.2-.6-.8-.4-1.6.8-2.4,13.6-27,23.4-27,4.2,0,6.4,1.8,9.2,11l6.8,23c8.8-11.2,15.8-21.2,20.8-26.2,3.2-3.2,8-7.8,13.8-7.8,3.6,0,5.8,2.8,5.8,6.2,0,6.2-2.4,16.6-5.4,23.6a1.41,1.41,0,0,1-2,.8l-2.4-.8c-1.2-.4-1.6-.8-1.4-1.6,3.6-10.6,3.2-15.6-.4-15.6-4.2,0-15.8,14.6-26.4,27.8l9.4,26.8c1.2,3.4,3.2,5.4,5.2,5.4,4.8,0,12.2-11.4,13-13.6.2-.6.8-.6,1.8-.2l2.4,1.2a1.39,1.39,0,0,1,.6,2c-2.4,4.4-12.8,23.2-24.4,23.2-4.2,0-7.4-2.8-9.2-8.6l-8.4-27c-12.6,16.8-26.2,35.6-34.8,35.6-5.2,0-7.4-2.6-7.4-7,0-4.6,2.4-16.2,4.4-21.2a1.26,1.26,0,0,1,1.6-.8l3,.8c.8.2,1,.8.8,1.6-4,12.2-.6,14.4,1.6,14.4,4.6,0,19.2-17.8,28.6-29.8Z" transform="translate(-48.14 -37.97)"/><path class="cls-2" d="M3665.94,598.38a4.07,4.07,0,0,1,2.6-2.8l12.4-4.4a3.4,3.4,0,0,1,1.4-.2c.4,0,.6.4.6.8a2.69,2.69,0,0,1-.4,1.6l-9.2,20.8a24.62,24.62,0,0,1,4-.4,29.6,29.6,0,0,1,4-.2c19,0,27.6,13.6,27.6,26.6,0,14-6.2,28.4-23.8,41.6-8.8,6.4-25.2,13.2-41.6,15l-14.2,39.6c-3.6,10.8-2,13.6,6.4,13.6h5.6a1.39,1.39,0,0,1,1.4,1.6l-1.4,4a2.34,2.34,0,0,1-2.4,1.2c-2.2,0-8.2-.6-21-.6-13.8,0-19.2.6-21.4.6-1.2,0-1.6-.4-1.4-1.2l1.2-4c.2-.8.4-1.6,1.4-1.6h4.6c7.8,0,11-4.6,15.2-16.2l39.2-107.8c-9.8,2.8-20.6,12.8-24.8,18a1.14,1.14,0,0,1-1.8.2l-2.2-2c-.6-.6-.8-1.2-.2-1.8,7-8.4,16.4-17.6,31.8-23.4Zm-20,92.4c24-3.8,49-21.4,49-46,0-15.4-9.2-23-18-23a38.26,38.26,0,0,0-6.4.6Z" transform="translate(-48.14 -37.97)"/><path class="cls-2" d="M3717.14,679.18c0-16.8,11-37.8,25.6-52.2,6.4-6.4,17.2-13.4,26.8-13.4,7.8,0,11.4,5.8,11.4,10.6,0,9.8-7.4,20.2-18.6,26a81.61,81.61,0,0,1-29,8.2c-1,2.4-2.6,9-2.6,18.4,0,9,6.6,12.6,10.4,12.6,9.8,0,18.6-7.4,22.8-14.2.4-.6,1-1,1.8-.2l2.2,1.8c1,.6,1,1.2.2,1.8-5,7-17,20.2-32.4,20.2C3722.74,698.78,3717.14,692.38,3717.14,679.18Zm17.8-26.6c7,.6,33.2-7.8,33.2-22.6,0-4-2-7.6-6.4-7.6C3748.94,622.38,3736.54,645.38,3734.94,652.58Z" transform="translate(-48.14 -37.97)"/><path class="cls-2" d="M3792.54,696.78c-1.4,0-2.2-.8-1.8-1.8l11.2-32.4c3.6-11.2,9.8-32.2,9.8-35a3.17,3.17,0,0,0-3.4-3c-4,0-13,9-15.8,12.4a1,1,0,0,1-1.6,0l-2-2a1.21,1.21,0,0,1,0-1.6c4.2-6.2,16.2-19.8,29.8-19.8,4,0,5.6,3.4,5.6,7,.2,3.8-3.2,15-7.2,28.4l1,.4c5.4-11.2,21.4-35.8,32.6-35.8,5.8,0,9.4,3.6,9.4,9,0,5.2-4,9.2-7.8,9.2a6.47,6.47,0,0,1-5-2c-1.6-1.6-2.6-2.4-5.2-2.4-5.4,0-16.6,17.2-24.6,30.4-2.4,3.8-4.8,8.4-7.8,17.4l-6.6,20.2c-.4,1.4-1,1.4-2.6,1.4Z" transform="translate(-48.14 -37.97)"/><path class="cls-2" d="M3867.33,693.78c0-4.6,3.4-13.8,11.8-36.2l5.8-15.6c2-5.4,3.6-9.4,3.6-11.8,0-1.8-1.2-2.6-2.8-2.6-3.4,0-12.8,10.8-16,14-.8.8-1.6.8-2.2.2l-1.6-1.8c-.8-.6-1.2-1-.6-1.8.8-1.2,21.2-25.2,34-24.6a4.67,4.67,0,0,1,4.8,5c0,3.6-3.2,12.6-6.8,22.2l-11.6,30.4c-2.8,7.4-3.6,11.8-3.6,13.2,0,1.8.6,3,2.2,3.4,4.2-.8,15-12.2,16-14,.4-.6,1.2-.6,2.2.4l1.6,1.4c.8,1,1,1.4.4,2.4-1.2,1.6-17.2,20.8-33.8,20.8C3868.73,698.58,3867.33,697,3867.33,693.78Zm25.2-116.6a10,10,0,0,1,10.4-10c7,0,10.6,5,10.6,9.6a10.27,10.27,0,0,1-10.6,10C3894.13,586.78,3892.53,579.38,3892.53,577.18Z" transform="translate(-48.14 -37.97)"/><path class="cls-2" d="M3918.53,679.18c0-16.8,11-37.8,25.6-52.2,6.4-6.4,17.2-13.4,26.8-13.4,7.8,0,11.4,5.8,11.4,10.6,0,9.8-7.4,20.2-18.6,26a81.61,81.61,0,0,1-29,8.2c-1,2.4-2.6,9-2.6,18.4,0,9,6.6,12.6,10.4,12.6,9.8,0,18.6-7.4,22.8-14.2.4-.6,1-1,1.8-.2l2.2,1.8c1,.6,1,1.2.2,1.8-5,7-17,20.2-32.4,20.2C3924.13,698.78,3918.53,692.38,3918.53,679.18Zm17.8-26.6c7,.6,33.2-7.8,33.2-22.6,0-4-2-7.6-6.4-7.6C3950.33,622.38,3937.93,645.38,3936.33,652.58Z" transform="translate(-48.14 -37.97)"/><path class="cls-2" d="M3993.93,696.78c-2.2,0-2.6-.4-2.2-1.8l14.2-37c4.8-12.4,10.4-26.8,10.4-30.2,0-2-.8-3.4-3-3.4-3.8,0-13.4,9.6-16.8,13.4-.6.6-1.2.6-2-.2l-1.8-1.8c-.8-.8-1-1.2-.4-2,3-3.6,17.8-20.2,32.2-20.2a6,6,0,0,1,6.4,6c0,6.2-8.6,25.2-10.2,29.8l.8.4c6-9.6,27.8-36.2,45.6-36.2,6,0,10,3,10,8.2,0,8.8-4.6,19.2-11.2,35.4-5.4,13.2-10.2,24.4-10.2,27.6a2.47,2.47,0,0,0,2.4,2.6c3,0,11.8-7.4,14.4-10.2a1.44,1.44,0,0,1,2.2.4l1.4,1.6c.8.8,1,1.2.2,2.2-2.4,3.2-18.6,17.4-32,17.4-2.6,0-4.8-1-4.8-4,0-3.8,7.2-19.6,13.4-36.8,2.8-7.8,10-24.4,10-28.8,0-2.8-1.4-4.6-5-4.6-7.8,0-27.6,18.4-36.4,32.6-3.6,5.8-6.8,11-12,25l-5,13.4c-.4.8-.8,1.2-2.8,1.2Z" transform="translate(-48.14 -37.97)"/><path class="cls-2" d="M4091.93,680.38c0-27.2,22.2-66.8,45.4-66.8,9.4,0,11.4,7.6,11.4,11.2,0,4.8-4.6,8.4-8.2,8.4-2.6,0-4.4-1.4-5.2-4.4-.6-2.2-3-5.2-6.2-5.2-5,0-10.2,4.8-14.6,13.8-5.4,11.6-8.6,28.8-8.6,35,0,14.6,4.4,16.6,8,16.6,7.8,0,15.4-8,17.6-10.8.6-.8,1.2-1.2,1.8-.8l2.2,2c.6.4,1,1,.2,2.2-2.8,4.2-16,17.2-28.8,17.2C4099.93,698.78,4091.93,693.78,4091.93,680.38Z" transform="translate(-48.14 -37.97)"/><path class="cls-2" d="M4152.53,679.18c0-16.8,11-37.8,25.6-52.2,6.4-6.4,17.2-13.4,26.8-13.4,7.8,0,11.4,5.8,11.4,10.6,0,9.8-7.4,20.2-18.6,26a81.61,81.61,0,0,1-29,8.2c-1,2.4-2.6,9-2.6,18.4,0,9,6.6,12.6,10.4,12.6,9.8,0,18.6-7.4,22.8-14.2.4-.6,1-1,1.8-.2l2.2,1.8c1,.6,1,1.2.2,1.8-5,7-17,20.2-32.4,20.2C4158.13,698.78,4152.53,692.38,4152.53,679.18Zm17.8-26.6c7,.6,33.2-7.8,33.2-22.6,0-4-2-7.6-6.4-7.6C4184.33,622.38,4171.93,645.38,4170.33,652.58Z" transform="translate(-48.14 -37.97)"/></svg>