<?xml version="1.0" encoding="utf-8"?>
<!-- Generator: Adobe Illustrator 24.2.1, SVG Export Plug-In . SVG Version: 6.00 Build 0)  -->
<svg version="1.1" id="Layer_1" xmlns="http://www.w3.org/2000/svg" xmlns:xlink="http://www.w3.org/1999/xlink" x="0px" y="0px"
	 viewBox="0 0 4259.8 1080" style="enable-background:new 0 0 4259.8 1080;" xml:space="preserve">
<style type="text/css">
	.st0{fill:none;}
	.st1{fill:#FFFFFF;}
	.st2{fill:#0033A1;}
	.st3{fill:url(#SVGID_1_);}
	.st4{fill:#9594D2;}
	.st5{fill:#E6E7F5;}
	.st6{fill:#C4C5E7;}
</style>
<rect x="3437.9" y="2347.3" class="st0" width="2537.3" height="377.8"/>
<g>
	<g>
		<path class="st1" d="M1077.9,686.6c0,11.7,0,24.4,11,33.7c5.6,4.8,15.2,7.9,22.9,7.9c7.7,0,17.3-3.1,22.9-7.9
			c11-9.4,11-22.1,11-33.7v-85.2h15.4v89.3c0,11.7-1.2,22.9-8.7,33.3c-8.3,11.5-22.9,18.7-40.6,18.7s-32.3-7.3-40.6-18.7
			c-7.5-10.4-8.7-21.7-8.7-33.3v-89.3h15.4L1077.9,686.6L1077.9,686.6z"/>
		<path class="st1" d="M1301.1,740.3V595.6l108.3,113.5V601.4h15.4v145.1l-108.3-113.5v107.2H1301.1z"/>
		<path class="st1" d="M1580.1,601.4v138.9h-15.4V601.4H1580.1z"/>
		<path class="st1" d="M1720.8,601.4l39.1,106l39.1-106h17.1L1760,748.6l-56.2-147.2L1720.8,601.4L1720.8,601.4z"/>
		<path class="st1" d="M2011.9,616h-56.6v41.2h55v14.6h-55v53.9h56.6v14.6h-72V601.4h72V616z"/>
		<path class="st1" d="M2166.6,601.4c9.4,0,23.3,0.6,33.7,7.7c8.1,5.4,15.2,16,15.2,30.8c0,21.2-13.9,36.8-35,38.3l44.1,62h-18.7
			l-42.3-60.8h-3.9v60.8h-15.4V601.4H2166.6z M2159.7,665.8h9.8c19.1,0,30.6-9.2,30.6-25.4c0-7.7-2.3-15.4-11-20.4
			c-6.2-3.5-13.3-4-20-4h-9.4V665.8z"/>
		<path class="st1" d="M2415,628.9c-1.9-3.8-5-7.9-8.1-10.4c-2.7-2.1-7.7-4.8-15.6-4.8c-13.7,0-23.3,8.5-23.3,21.4
			c0,5.4,1.5,8.5,5.2,12.1c4.2,4.2,9.4,6.5,14.6,8.8l13.3,5.8c8.1,3.5,15.6,7.3,21.4,13.1c7.1,7.1,10,15.2,10,25.2
			c0,25.6-18.9,42.7-43.9,42.7c-9.2,0-20.6-1.9-30.2-11.2c-6.9-6.7-11-16.2-12.9-24.6l15-4.2c1,7.3,4.4,13.5,8.3,17.7
			c6,6,12.9,7.7,20,7.7c18.9,0,27.9-13.5,27.9-27.5c0-6.2-1.9-11.7-6.9-16.2c-3.9-3.8-9.4-6.2-16.7-9.6l-12.5-5.8
			c-5.4-2.5-12.3-5.4-18.5-11.5c-6-5.8-9.6-12.3-9.6-22.7c0-21.4,16.4-35.8,38.9-35.8c8.5,0,15.4,1.7,22.3,6.2
			c5.6,3.8,10.4,9.4,13.5,15.4L2415,628.9z"/>
		<path class="st1" d="M2580.3,601.4v138.9h-15.4V601.4H2580.3z"/>
		<path class="st1" d="M2754.3,616v124.3h-15.4V616h-33.7v-14.6h82.9V616H2754.3z"/>
		<path class="st1" d="M2946.7,680.5l-45.6-79.1h17.9l35.4,62l35.8-62h17.9l-46,79.1v59.8h-15.4L2946.7,680.5L2946.7,680.5z"/>
	</g>
	<g>
		<path class="st1" d="M976.1,498.6v-6l7.3-0.3c17.6-0.7,22.9-7.3,22.9-28.6V311.4c0-21.3-5.3-27.6-22.9-28.2l-7.3-0.3v-6h95.4v6
			l-7.3,0.3c-17.6,0.7-22.9,7-22.9,28.2v144.2c-0.3,25.3,0.7,25.9,26.9,26.6h28.2c32.2,0,48.9-12.6,61.5-46.2l7,2l-19.6,60.5
			L976.1,498.6L976.1,498.6z"/>
		<path class="st1" d="M1211.8,276.9h95.4v6l-7.3,0.3c-17.6,0.7-22.9,7-22.9,28.2V464c0,21.3,5.3,27.6,22.9,28.2l7.3,0.3v6h-95.4v-6
			l7.3-0.3c17.6-0.7,22.9-7,22.9-28.2V311.4c0-21.3-5.3-27.6-22.9-28.2l-7.3-0.3V276.9z"/>
		<path class="st1" d="M1403.5,322.7V464c0,21.3,5.3,27.6,22.9,28.2l8.3,0.3v6H1357v-6l7.3-0.3c17.6-0.7,22.9-7,22.9-28.2V311.4
			c0-21.3-5.3-27.6-22.9-28.2l-7.3-0.3v-6h63.8l75.4,164.5l71.8-164.5h65.1v6l-7.3,0.3c-17.6,0.7-22.9,7-22.9,28.2V464
			c0,21.3,5.3,27.6,22.9,28.2l7.3,0.3v6h-94.4v-6l6.3-0.3c17.6-0.7,22.9-7,22.9-28.2V320.8l-79.1,177.8h-5.3L1403.5,322.7z"/>
		<path class="st1" d="M1748.2,459.7c0,21.3,2,24.3,18.3,23.9h39.9c35.2-0.7,48.5-10,62.2-43.2l5.3,2.3l-18.9,55.8H1683v-6l7.3-0.3
			c17.9-0.7,22.9-7,22.9-28.2V311.4c0-21.3-5-27.6-22.9-28.2l-7.3-0.3v-6h168.5l3.3,50.2l-5.7,0.7c-3.7-30.2-14.6-38.5-49.5-37.9
			h-51.5v83.8h56.2c18.9,0.3,25.9-8.6,25.6-33.2h6v80.8h-6c0.7-23.6-6-32.2-25.6-32.6h-56.2V459.7z"/>
		<path class="st1" d="M1937.2,498.6v-75.1h6.7c2.7,18.3,5.3,26.9,12.3,37.2c10.6,16,27.6,25.9,45.2,25.9
			c21.6,0,38.6-15.6,38.6-35.9c0-10.3-3.7-18.3-13.3-27.9c-6-6.6-14-12.6-21.3-17l-25.9-15c-30.9-17.6-43.5-34.9-43.5-58.8
			c0-34.2,23.9-57.5,58.8-57.5c10,0,17.3,1.3,30.6,5.6c13.3,4.3,14.3,4.6,17.3,4.6c4.3,0,7-2.3,9.3-8h7l-0.3,70.5h-6
			c-7.7-25.3-13-36.6-21.6-45.5c-8-8.3-18.9-12.6-31.9-12.6c-20.3,0-34.9,12.6-34.9,30.2c0,13.3,11.6,27.2,32.6,39.2l25.9,15
			c34.2,19.6,49.8,40.2,49.8,66.1c0,35.6-27.2,61.1-65.5,61.1c-13,0-13,0-40.6-8.6c-5-1.7-9.6-2.7-12.6-2.7c-5.3,0-8,2.3-10,9
			L1937.2,498.6L1937.2,498.6L1937.2,498.6z"/>
		<path class="st1" d="M2168.6,492.6l7.6-0.3c17.6-0.7,22.9-7,22.9-28.2V293.2h-29.9c-28.6-0.3-39.2,10-40.9,38.2l-6.3-0.7l3.3-53.8
			h182.1l3.3,53.8l-6.3,0.7c-1.3-28.2-12.3-38.5-40.9-38.2H2234V464c0,21.3,5,27.6,22.9,28.2l7.3,0.3v6h-95.7L2168.6,492.6
			L2168.6,492.6L2168.6,492.6z"/>
		<path class="st1" d="M2572,387.5c0,32.2-11,61.1-31.6,82.4c-19.9,20.9-44.2,30.9-75.1,30.9c-60.2,0-105.4-48.5-105.4-113.3
			c0-64.5,45.2-113,105.4-113C2526.5,274.5,2572,322.7,2572,387.5z M2398.9,387.9c0,59.2,26.9,100,66.1,100
			c41.2,0,68.1-39.9,68.1-100.4c0-59.5-27.6-100-68.1-100C2425.5,287.5,2398.9,328.1,2398.9,387.9z"/>
		<path class="st1" d="M2677.7,326.1V464c0,21.3,5.3,27.6,22.9,28.2l7.3,0.3v6h-76.8v-6l7.3-0.3c17.6-0.7,22.9-7,22.9-28.2V306.5
			c-19.9-20.6-23.9-22.9-42.5-23.6v-6h65.5l131.3,153.2V311.4c0-21.3-5.3-27.6-22.9-28.2l-7.3-0.3v-6h76.8v6l-7.3,0.3
			c-17.6,0.7-22.9,7-22.9,28.2v187.1h-5.3L2677.7,326.1z"/>
		<path class="st1" d="M2976.5,459.7c0,21.3,2,24.3,18.3,23.9h39.9c35.2-0.7,48.5-10,62.1-43.2l5.3,2.3l-18.9,55.8h-171.8v-6
			l7.3-0.3c17.9-0.7,22.9-7,22.9-28.2V311.4c0-21.3-5-27.6-22.9-28.2l-7.3-0.3v-6h168.5l3.3,50.2l-5.6,0.7
			c-3.7-30.2-14.6-38.5-49.5-37.9h-51.5v83.8h56.2c18.9,0.3,25.9-8.6,25.6-33.2h6v80.8h-6c0.7-23.6-6-32.2-25.6-32.6h-56.2
			L2976.5,459.7L2976.5,459.7L2976.5,459.7z"/>
	</g>
</g>
<g>
	<path class="st2" d="M764.5,679.9c-3.6,6.3-7.5,12.6-11.5,19c-31.5,49-76.1,97.9-132.5,145.4c-51.4,43.2-103,76.9-137.2,97.6
		c-12.1,7.3-22.8,13.5-31.8,18.5c-9-5-19.7-11.2-31.8-18.5c-34.2-20.6-85.8-54.3-137.2-97.6c-28.8-24.2-54.4-48.7-76.9-73.5"/>
	
		<radialGradient id="SVGID_1_" cx="451.87" cy="247.8036" r="322.0086" gradientTransform="matrix(1 0 0 1.2453 0 149.2152)" gradientUnits="userSpaceOnUse">
		<stop  offset="0" style="stop-color:#F4EB29"/>
		<stop  offset="0.5384" style="stop-color:#F4E828"/>
		<stop  offset="0.7323" style="stop-color:#F4E325"/>
		<stop  offset="0.87" style="stop-color:#F6DC1E"/>
		<stop  offset="0.9811" style="stop-color:#F7D116"/>
		<stop  offset="1" style="stop-color:#F8CF15"/>
	</radialGradient>
	<path class="st3" d="M217.5,805.1c-20.6-22.7-38.3-45.6-53.1-68.5c-35.2-54.7-53-109.5-53-162.9V151c44.5-11.1,90.7-20,137.9-26.6
		c65.9-9.2,134-13.8,202.6-13.8s136.7,4.7,202.6,13.8c47.2,6.6,93.5,15.5,137.9,26.6v422.7c0,47.5-14.1,96.1-42,144.8"/>
	<path class="st2" d="M811.2,128.5c-54.4-16-112.1-28.3-171.5-36.7c-61.1-8.6-124.3-12.9-187.9-12.9S325.1,83.3,264,91.8
		c-59.4,8.3-117.1,20.7-171.5,36.7l-5.1,1.5v425c0,59.9,19.2,120.3,57,179.5c30,47,71.8,93.3,124.2,137.7
		c46.5,39.4,93,69.9,123.7,88.6c33.4,20.3,55.5,31.1,56.4,31.5l3.1,1.5l3.1-1.5c0.9-0.5,23-11.3,56.4-31.5
		c30.8-18.7,77.2-49.2,123.7-88.6c52.4-44.4,94.2-90.7,124.2-137.7c37.8-59.2,57-119.5,57-179.5V130L811.2,128.5z M784.7,555
		c0,53.7-17.5,108.3-51.9,162.2c-28.3,44.3-68,88.2-118,130.5c-44.9,38-89.9,67.6-119.7,85.7c-18.8,11.4-33.8,19.7-43.2,24.6
		c-9.4-5-24.4-13.2-43.2-24.6c-29.8-18.1-74.8-47.7-119.7-85.7c-50-42.3-89.7-86.2-118-130.5c-34.5-53.9-51.9-108.5-51.9-162.2
		V154.1c47.7-13.1,97.8-23.4,149.3-30.7c59.7-8.4,121.4-12.6,183.5-12.6s123.8,4.2,183.5,12.6c51.5,7.2,101.6,17.5,149.3,30.7
		L784.7,555L784.7,555z"/>
	<path class="st4" d="M451.5,1040l-7.6-3.7c-1-0.5-25.4-12.3-61.7-34.3c-33.5-20.2-84.2-53.3-134.9-96
		c-57.3-48.2-103.1-98.7-136.1-149.9c-41.9-65.1-63.1-131.6-63.1-197.8V95.2l12.6-3.7c59.2-17.3,121.9-30.6,186.6-39.6
		C313.7,42.7,382.4,38,451.5,38s137.8,4.7,204.2,13.9c64.6,9,127.4,22.3,186.5,39.6l0,0l12.6,3.7v463.2
		c0,66.2-21.2,132.8-63.1,197.8c-33,51.2-78.7,101.7-136.1,149.9c-50.7,42.7-101.3,75.7-134.9,96c-36.5,22-60.7,33.8-61.7,34.3
		L451.5,1040z M67.7,109.9v448.5c0,62.4,20.2,125.4,60,187.2c31.9,49.6,76.4,98.5,132.2,145.5c49.7,41.8,99.4,74.3,132.4,94.2
		c32.1,19.4,54.4,30.6,59.2,33c4.8-2.3,26.9-13.5,59.2-33c32.9-19.9,82.6-52.3,132.4-94.2c55.8-47,100.3-95.9,132.2-145.5
		c39.8-61.8,60-124.8,60-187.2V109.9C777.4,93,716.1,80.1,653,71.3c-65.5-9.1-133.3-13.7-201.5-13.7s-136,4.6-201.5,13.7
		C186.8,80.1,125.5,93,67.7,109.9z"/>
	<path class="st1" d="M840,101.1c-58.7-17.2-121-30.4-185.2-39.3c-66-9.2-134.2-13.8-202.9-13.8s-136.9,4.7-202.9,13.8
		c-64.1,8.9-126.4,22.2-185.1,39.3l-5.5,1.6v455.9c0,64.3,20.7,129.1,61.5,192.5c32.4,50.4,77.6,100.1,134.2,147.7
		c50.2,42.2,100.4,75,133.6,95.1c36.1,21.8,59.9,33.4,60.9,33.8l3.4,1.6l3.4-1.6c1-0.5,24.9-12.1,60.9-33.8
		c33.2-20,83.4-52.8,133.6-95.1c56.6-47.6,101.7-97.3,134.2-147.7c40.8-63.5,61.5-128.2,61.5-192.5V102.7L840,101.1z M811.3,558.5
		c0,57.6-18.9,116.2-56.1,174c-30.6,47.5-73.4,94.6-127.4,140c-48.5,40.8-97.1,72.5-129.3,92c-20.3,12.2-36.5,21.1-46.6,26.4
		c-10.1-5.3-26.3-14.2-46.6-26.4c-32.2-19.4-80.8-51.2-129.3-92c-54-45.4-96.8-92.5-127.4-140c-37.2-57.8-56.1-116.4-56.1-174V128.5
		c51.5-14.1,105.6-25.2,161.2-32.9c64.4-9,131.1-13.5,198.2-13.5s133.7,4.6,198.2,13.5c55.6,7.7,109.7,18.8,161.2,32.9L811.3,558.5
		L811.3,558.5z"/>
	<g>
		<polygon class="st2" points="748.4,709.6 768.4,672.2 187.1,768.9 211.7,799 		"/>
	</g>
	<g>
		<polyline class="st1" points="772.5,705.2 755.2,737.9 755.2,737.9 218.7,828 218.6,828 196.3,800.8 196.2,800.9 772.6,705.3 		
			"/>
	</g>
	<g>
		<path class="st2" d="M276.1,259.9h380.2c-24.7-70.9-90.1-127.6-201-131.2C355.8,136.5,310,192.2,276.1,259.9"/>
	</g>
	<g>
		<path class="st2" d="M468.5,115.2c0-1.7-1.2-3-2.6-3h-8.7l1.7-39.2l-7.1-9.6L445,73l1.8,39.2H438c-1.5,0-2.6,1.3-2.6,3
			c0,1.7,1.2,3,2.6,3v14.5h27.9v-14.5C467.4,118.2,468.5,116.9,468.5,115.2z"/>
	</g>
	<polyline class="st1" points="444.7,110.8 442.9,70.2 444.9,70.2 446.7,110.8 	"/>
	<polyline class="st1" points="457.2,110.8 459,70.2 461,70.3 459.2,110.8 	"/>
	<g>
		<polygon class="st2" points="229.6,777.5 188,758.7 188,510.7 193.4,503.2 193.4,442.3 202.3,432.4 202.3,404.3 199.4,393.6 
			169.4,383.8 199.2,359 185.6,352.5 246,244.8 309,258.8 324.1,258.8 359.7,229.7 380.6,233.6 380.6,750.9 		"/>
	</g>
	<g>
		<polyline class="st1" points="750.9,433.9 750.9,493.5 750.9,493.5 755.2,493.5 755.2,530.7 770,535.1 770,553.8 755.2,562 
			755.2,708.9 376.5,774.8 376.5,504.6 365.6,495.5 365.6,476.7 365.6,476.7 371.3,478.1 371.3,433.3 365.6,418.8 380.6,421.6 
			380.6,421.6 380.6,301.3 371.3,299.3 371.3,266.1 368.2,251.2 359.4,229.6 435.9,242.3 569.9,198.1 694.8,280.6 688.8,285.8 
			758.8,299.6 727.1,326.1 727.1,356.6 740.6,369.8 740.6,419 750.8,433.9 		"/>
		<g>
			<polygon class="st1" points="750.9,493.5 750.9,488.4 755.2,493.5 			"/>
		</g>
	</g>
	<g>
		<polyline class="st1" points="302.2,470.8 292.8,463.4 302.2,456 302.2,356 302.2,355.9 284.1,345.4 305.2,324.8 314.1,327.1 
			314.1,294.8 314.1,294.8 213.6,369.9 213.6,385.7 213.6,385.7 199.4,393.6 169,383.9 169,383.9 198.6,359 185.2,352.5 
			245.6,244.4 309.5,258.8 324.1,258.8 324.1,258.8 359.4,229.4 368.6,251.1 371.5,265.5 333.8,297.5 333.8,332.2 333.8,332.2 
			329.6,331.2 328.5,340.7 328.5,446.6 328.5,446.7 365.6,418.8 371.5,433.3 328.5,463.5 328.5,502.6 328.5,502.6 365.6,476.7 
			376.5,479.4 376.5,504.6 326.2,534.6 328.5,583.1 321,585.4 317.8,584.4 311.3,590.8 306.5,584.4 309.3,573.9 294.8,554.1 
			236.4,593.8 238.6,642.8 231.3,644.8 227.8,644.8 221.7,650.7 216.9,644.1 222.2,634.2 206.7,614.3 188,626.2 173.5,625 
			173.5,608.4 203.6,587.7 203.6,581 197.5,578.2 215.1,564.8 215.1,537.8 188,557.1 180.2,548.6 210.9,525 207.7,521.7 
			215.1,514.9 215.1,418.8 215.1,418.8 195.7,407.5 220.4,389.1 234.4,390.1 238.6,407.5 238.6,508.7 238.5,508.7 243.8,509.9 
			240.9,523.6 240.9,560.5 293.3,525.7 293.3,517.7 286.6,514.9 302.3,503.9 302.3,470.8 		"/>
	</g>
	<g>
		<polyline class="st2" points="204,356.6 311.1,276 255.1,263.4 255.1,263.3 203.9,356.6 		"/>
	</g>
	<g>
		<path class="st2" d="M525,668.3v110.2v-0.8l93.7-14.4v-0.2v-77.8l0.2,0.4c-8.6-25.5-23.7-40.9-50-46l1,0.2
			c-26.2-2.7-39.8,11.4-44.9,26.3"/>
	</g>
	<g>
		<polyline class="st5" points="481.2,443 478.6,445.6 478.6,445.6 478.6,448.8 478.5,448.7 627.5,472.7 627.6,472.8 627.6,467.4 
			627.6,467.5 480.7,443.4 		"/>
	</g>
	<g>
		<polyline class="st6" points="656.7,546.6 652.8,538.8 652.8,538.8 653.3,538.8 653.3,538.8 656.7,546.6 		"/>
	</g>
	<line class="st0" x1="678.6" y1="294.1" x2="678.7" y2="294.1"/>
	<g>
		<polygon class="st4" points="377.1,509 755.2,562 770.5,553.6 770.5,532.8 365.6,476.8 365.6,495.5 		"/>
	</g>
	<g>
		<polyline class="st4" points="435.9,242.3 570,198.1 694.9,280.6 678.8,294.3 668.4,306.9 668.4,315.8 668.4,315.8 447.1,278 
			447.1,278 443.5,262.7 435.8,242.2 		"/>
	</g>
	<g>
		<polygon class="st4" points="755.1,494.1 764.2,482.4 365.5,418.8 371.3,433.5 		"/>
	</g>
	<g>
		<polygon class="st4" points="758.8,299.6 688.8,285.8 678.7,294.1 668.3,306.8 668.3,315.8 727.1,326.1 		"/>
	</g>
	<g>
		<polyline class="st4" points="435.9,242.3 359.4,229.6 368.6,251.1 371.2,265.8 459.8,280.1 459.8,271.1 456,254.9 449.5,237.8 
			435.8,242.2 		"/>
	</g>
	<g>
		<polygon class="st1" points="565.4,219.4 456.1,255.4 676.1,292.5 		"/>
	</g>
	<g>
		<polygon class="st1" points="476.3,442.8 650.5,471.3 650.5,434.5 476.3,406.4 		"/>
	</g>
	<line class="st0" x1="621.8" y1="372.4" x2="650.4" y2="377.1"/>
	<g>
		<polyline class="st4" points="476.1,348.2 650.4,377.1 650.4,382.2 476.1,353.8 476.1,348.2 		"/>
	</g>
	<path class="st2" d="M505.7,420.3l0.4-38.1c-2.6,0.8-5.3,0.9-8,0.7l0-5.3c4.1,0.4,8.2-2.2,9.5-9l4.1,0.4l-0.5,51.9
		c0,2.4,0.8,2.9,2.1,3.3l4.6,0.5l0,5.8l-19.2-1.9l0-5.8l5.1,0.5C504.9,423.4,505.7,422.1,505.7,420.3z"/>
	<path class="st2" d="M530,403.5c-4.1-3.7-5.9-8.9-5.5-14.7c0.7-11.2,9-15.5,17.4-14.3c7.5,1.1,15.6,6.6,15,17.2
		c-0.4,6.6-4,10.4-8.6,13c5.6,3.5,8.5,8.8,8,16.3c-0.8,12.2-9.8,15.9-18.6,14.5c-8.4-1.3-16.9-7.2-16.2-18.9
		C522,410,525.3,405.7,530,403.5z M538.1,429.6c5.4,0.8,10.3-1.3,10.8-8.5c0.2-3.7-1.4-6.8-4.3-8.5l-10.5-6.2
		c-3.5,1.8-5.9,5.5-6.2,10.2C527.5,424.4,532.3,428.7,538.1,429.6z M536.3,397.2c6.1,3.7,7.3,4.4,7.5,4.5c3.7-1.6,6.4-5.4,6.7-10.3
		c0.4-7.1-3.8-10.4-8.9-11.1c-4.9-0.7-9.3,1.2-9.7,7.9C531.7,392.1,533.3,395.3,536.3,397.2z"/>
	<path class="st2" d="M578.1,431.8l0.4-8.1l-18.9-2.8l0.3-6.2l21.5-34.1l5.7,0.8l-1.9,37l8.4,1.2l-0.3,6.2l-8.4-1.2l-0.4,8.2
		c-0.1,2.4,0.8,3,2.3,3.5l4.3,0.6l-0.3,5.8l-20-2.9l0.3-5.8l4.6,0.7C577,434.9,578,433.5,578.1,431.8z M565.1,415.5l13.7,2l1.3-25.9
		L565.1,415.5z"/>
	<g>
		<g>
			<g>
				<polygon class="st2" points="447.1,278 447.1,307 441,310.8 452.7,332.1 452.7,429 450.2,429.8 456.8,443.5 456.8,489.4 
					461.6,496.4 461.6,509.8 464.5,510.3 462.6,516 462.6,566.9 471.3,561.4 468,553.4 477.4,514.5 471.3,504.9 471.3,491.5 
					468,483.9 468,440.3 460.7,427.9 468,428.8 468,324 456.8,303.2 459.8,303.8 459.8,271.1 456,254.9 449.5,237.8 435.9,242.3 
					443.5,262.7 				"/>
			</g>
			<g>
				<polygon class="st2" points="461.6,509.8 462.6,516 464.5,510.3 				"/>
			</g>
		</g>
		
			<rect x="435.5" y="239.8" transform="matrix(0.9487 -0.3162 0.3162 0.9487 -53.188 152.2998)" class="st2" width="14.4" height="0.5"/>
	</g>
	<g>
		<polygon class="st2" points="487.9,563.8 479.2,569.7 479.2,505 489.5,506.5 494.1,516.9 484.4,556 		"/>
	</g>
	<g>
		<polyline class="st4" points="501.1,509.2 501.1,495.9 507.4,489.5 491.7,487.2 491.7,443.4 503.5,432 491.7,430.5 491.7,330.2 
			505.2,312.5 456.8,303.2 468,324 468,428.8 460.7,427.9 468,440.3 468,483.9 471.3,491.5 471.3,504.9 477.4,514.5 468,553.4 
			471.3,561.4 462.6,566.9 471.2,566.9 477.9,561.2 474.7,553.4 484.9,515.7 480.6,506.2 489.9,507.6 494.1,516.9 494.1,516.9 
			484.4,556 487.9,563.8 479.2,569.7 487.7,569.7 494.5,564 491.3,556.1 501.4,518.2 497.1,508.7 501.1,509.2 		"/>
	</g>
	<g>
		<polyline class="st2" points="647.7,511.8 652.4,508.5 656.1,517 656.1,529.3 661.3,538.6 651.6,577.4 655.2,585.8 646.4,591.1 
			646.4,540.7 648.8,535.9 648.3,520.8 646.3,515.7 637.9,514.5 637.9,470.7 632.6,459.1 638.5,455.7 638.5,357.8 630.2,341 
			638,334.3 647.7,354.7 647.7,456.1 643.1,455.3 647.7,467 647.7,511.8 		"/>
	</g>
	<g>
		<polygon class="st2" points="668,580.1 671.6,588.4 663.7,593.8 663.7,529.6 671.6,531.1 677.9,541.3 		"/>
	</g>
	<g>
		<polyline class="st4" points="646.3,591.1 655.1,585.7 651.6,577.4 661.3,538.6 656.1,529.3 656.1,517 652.4,508.5 647.6,511.8 
			647.7,511.8 647.7,467 647.6,467 643.1,455.2 647.6,456.1 647.6,354.7 638,334.3 687.3,340.5 668.5,357.4 668.5,458.7 
			668.5,458.7 680,460.9 668.5,471.4 668.5,512.7 691.2,516.2 685.1,520.2 685.1,534.5 681.1,533.8 684.9,542.2 675,580.1 
			678.1,588.2 671.8,593.8 663.7,593.8 671.6,588.4 668,580.1 677.9,541.3 672.7,532.3 664.4,530.8 668.3,539.6 658.4,577.6 
			661.5,585.3 654.8,591.1 646.3,591.1 		"/>
	</g>
	<g>
		<path class="st2" d="M607.7,394.7l-1.5,14.3c3.2-3.4,7-4.4,11.5-3.9c11.4,1.4,15.5,11.7,14.8,22.2c-0.8,13.8-9.2,21.3-20.6,19.9
			c-6.9-0.8-15-5.9-14.5-15.6c0.2-4.1,2.4-7.8,6.2-7.3c2.9,0.4,4.8,3.2,4.6,6.6c-0.2,3.4-2.2,5.2-4.9,5c1.4,3.7,5.2,4.6,8.3,5
			c7.9,1,11.6-5,12.1-13.9c0.5-8.3-1.8-14.9-9.4-15.8c-4.1-0.5-6.3,0.8-8.8,5l-5.3-0.6l2.8-30.5"/>
		<polyline class="st2" points="603.1,385.1 632.5,390.3 631.7,398.9 607.7,394.7 		"/>
	</g>
	<g>
		<polygon class="st2" points="189.9,630 170.2,628.1 170.1,604.8 189.1,591.5 192,595.6 175.1,607.4 175.2,623.6 190.4,625.1 		"/>
	</g>
	<g>
		<polygon class="st2" points="188,561.4 175.5,546.5 189.1,535.4 192.2,539.3 182.6,547.2 191.8,558.2 		"/>
	</g>
	<g>
		<polygon class="st2" points="202.6,417.3 187.2,408.1 201.5,396.9 204.6,400.8 196,407.6 205.1,413 		"/>
	</g>
	<g>
		<polygon class="st2" points="204.5,397.9 163.9,384.9 194,359.5 181.7,353.6 244.8,239.1 310.5,253.9 309.4,258.8 247.4,244.8 
			188.6,351.4 203.1,358.4 174.1,382.9 206.1,393.1 		"/>
	</g>
	<polyline class="st2" points="750.2,561.2 750.2,709.2 755.2,708.2 755.2,562 	"/>
	<polyline class="st2" points="755.2,530.7 755.2,494.1 750.2,493.3 750.2,530 	"/>
	<polyline class="st2" points="750.8,480.2 750.8,433.2 740.6,418.4 740.6,369 727.1,355.7 727.1,326.1 722.1,325.2 722.1,357.8 
		735.6,371 735.6,420 745.8,434.8 745.8,479.4 	"/>
	<g>
		<polygon class="st2" points="724.2,328.6 721.2,324.6 754.7,299.5 683.1,287.4 692.7,279.2 643.9,246.9 646.6,242.7 701,278.7 
			694.5,284.2 767,296.5 		"/>
	</g>
	<g>
		<polyline class="st2" points="750.2,495.7 752.5,497.5 767.7,477.9 746.6,474.5 745.8,479.5 758.6,481.5 750.2,492.4 		"/>
	</g>
	<g>
		<polyline class="st2" points="750.2,532.5 768,535 768,551.2 750.2,561.2 752.7,565.6 773,554.1 773,530.6 750.5,527.5 750.2,530 
					"/>
	</g>
</g>
<rect x="3243.1" y="275.2" class="st1" width="7" height="473.5"/>
<g>
	<path class="st1" d="M3510.3,446.4c-0.8,2.6-1.4,3.4-3.6,4.4c-5.8,2.4-23.2,9-38.8,9c-35.2,0-57.4-24.8-57.4-56
		c0-47.4,39-84,81.8-84c17.2,0,28.4,6.8,32.4,10c2.6,2,4.4,2.4,5.4,2.4c2.8,0,4-2,5.2-6.4c0.2-0.8,0.6-1.2,2-0.8l2.4,0.6
		c0.8,0.2,1.4,0.6,1.2,1.6l-11.4,40.2c-0.4,1.2-0.8,1.4-2.4,1.2l-2.6-0.4c-1-0.2-1.6-0.8-1.2-2c4.4-17.2-6-39.6-31-39.6
		c-36.2,0-62.4,37.2-62.4,81c0,31.6,18.6,45,37,45c12.8,0,21.4-5.4,25-8.4c1.8-1.6,2.8-4.2,3.6-6.8l4-19.4c1.8-8-1.4-9.6-8-9.6h-7.4
		c-1.6,0-1.8-0.6-1.4-2l0.8-3.8c0.2-1.2,0.6-1.6,2.2-1.6c3,0,10,0.6,23.2,0.6c13.6,0,18.4-0.6,21.2-0.6c1.4,0,2,0.6,1.8,2l-0.6,3.8
		c-0.2,1.2-0.6,1.6-1.8,1.6h-3.2c-4.8,0-7.8,1.6-9,7.2L3510.3,446.4z"/>
	<path class="st1" d="M3581.3,341.2c3-7.6,2.8-12.6-3-12.6h-5.8c-1.4,0-1.6-0.8-1.2-1.8l1.2-3.6c0.4-1.2,0.8-1.4,2-1.4h24.8
		c1.8,0,2.4,1.2,1.8,3l-41.6,105.8c-1.8,4.6-6.6,15.6-2.4,15.6c3.2,0,12.4-7.8,14.8-10.4c0.8-0.8,1.2-0.6,1.8,0l2.2,2.4
		c0.4,0.4,0.6,1.2-0.2,2c-1,1.6-19.6,18.6-32.4,18.6c-2.6,0-4.4-1.2-4.4-5.8c0-3,5-15.6,7.4-21.6L3581.3,341.2z"/>
	<path class="st1" d="M3593.1,433c0-25.2,19-59.4,45.6-59.4c13.4,0,21.4,9.8,21.4,23.4c0,22-17.4,61.8-46.4,61.8
		C3602.7,458.8,3593.1,448.2,3593.1,433z M3652.1,394c0.2-6.2-3.4-11.2-10-11.2c-8.4,0-19,7.6-29,23.8c-6.8,10.8-11.6,23-11.6,32.4
		c0,6.4,4.4,10.2,9.2,10.2C3631.5,449.2,3652.1,407.2,3652.1,394z"/>
	<path class="st1" d="M3703.5,328.6c-1.6,0-2.2-0.8-1.8-2l1.2-3.2c0.4-1.2,0.8-1.6,2-1.6h25.4c1.8,0,2.2,1.8,1.4,3.6l-32.2,72.6
		l1.2,0.4c9.8-12.4,25.2-24.8,36.2-24.8c10.2,0,14.2,6.4,14.2,15.2c0,11.4-6.6,31-26.2,50.6c-10.6,10.4-23.4,19.4-42.4,19.4
		c-8.2,0-13.4-5.8-13.4-13.2c0-3.2,1.4-8,3-11.6c14.8-34.4,28.6-66.4,41.4-97c1-2.4,1.4-4,1.4-5.4c0-1.8-2.2-3-5.6-3H3703.5z
		 M3692.1,452c16,0,44.6-34,44.6-60c0-6.2-3.2-8.6-6.8-8.6c-7.6,0-22.4,12.6-32.6,26.8c-7.8,11-13.8,27.4-13.8,33.2
		C3683.5,451.4,3687.7,452,3692.1,452z"/>
	<path class="st1" d="M3841.3,373.6c0.8,0,1,1,0.6,1.8c-3.8,8.2-14,35.8-15,39c-1.2,3.4-9.6,28.2-9.6,30s1,2.4,2.2,2.4
		c2.4,0,12.6-10.4,14-12.2c0.6-0.6,1.2-1,1.6-0.4l1.8,2c0.6,0.6,0.8,1,0.4,1.6c-2.2,4-19.6,21-31,21c-2.4,0-4.2-0.8-4.2-3.4
		c0-3,2-9.2,9.6-30.4l-1-0.4c-8.4,12.8-28.6,34.2-42.8,34.2c-4.6,0-10.8-3.8-10.8-12.8c0-29.2,32.8-72.4,57.2-72.4
		c8.4,0,12.2,3.6,14.2,6.8l3.8-5.4c0.6-0.8,1.2-1.4,2-1.4L3841.3,373.6L3841.3,373.6z M3816.1,408.4c2.8-5.8,4.8-10.8,4.8-16.6
		c0-5.4-2-11.8-9.4-11.8c-18.4,0-39.8,42.2-39.8,61.2c0,4.6,2,7,5.4,7C3787.1,448.2,3812.5,415.8,3816.1,408.4z"/>
	<path class="st1" d="M3890.7,341.2c3-7.6,2.8-12.6-3-12.6h-5.8c-1.4,0-1.6-0.8-1.2-1.8l1.2-3.6c0.4-1.2,0.8-1.4,2-1.4h24.8
		c1.8,0,2.4,1.2,1.8,3l-41.6,105.8c-1.8,4.6-6.6,15.6-2.4,15.6c3.2,0,12.4-7.8,14.8-10.4c0.8-0.8,1.2-0.6,1.8,0l2.2,2.4
		c0.4,0.4,0.6,1.2-0.2,2c-1,1.6-19.6,18.6-32.4,18.6c-2.6,0-4.4-1.2-4.4-5.8c0-3,5-15.6,7.4-21.6L3890.7,341.2z"/>
	<path class="st1" d="M3443.9,583.8c3.6-11.2-4.2-14.2-11-14.2h-6.4c-1.2,0-1.6-0.6-1.2-2.2l1-3.8c0.4-1.2,1-1.4,2.4-1.4
		c1.2,0,3.4,0.2,7.6,0.2c4.2,0.2,10.4,0.4,20,0.4h12.8c15.2,0,26.6-0.2,34.8-0.4c8.2,0,13.2-0.2,15.4-0.2c3,0,3.4,0.6,4.2,3.8
		l6.4,27.4c0.2,1,0,1.2-1.2,1.8l-2.2,0.8c-1,0.4-1.2,0.4-2-0.6l-18.8-24.2c-0.8-1.2-1.8-1.6-3.2-1.6h-36.4l-17.2,52.6h19.2
		c11.6,0,18.2-0.4,23.8-16.8c0.2-0.8,0.6-1.2,1.4-1l3,0.6c0.8,0.2,1.4,0.6,1.2,1.6l-10.8,39.8c-0.2,1.2-0.6,1.4-1.4,1.2l-3.2-0.4
		c-1-0.2-1-0.4-0.8-1.6c1.4-16.6-6.6-17-22.4-17h-12l-19.4,61.4h51.8c7.2,0,12-3.2,16-8.4l16-20.2c0.6-0.8,1.4-1.2,2.4-0.4l2,1.2
		c0.8,0.6,1.2,1,0.6,2.8l-10.2,29c-1,3-2,3.4-4.4,3.4c-1.6,0-10.4-0.2-22.2-0.4c-11.8,0-26.6-0.2-40.4-0.2h-23.2
		c-9.2,0-15,0.2-18.8,0.2c-3.6,0.2-5.2,0.4-6,0.4c-1.4,0-2-0.4-1.6-1.6l0.6-4.2c0.4-1.2,0.6-1.6,1.6-1.6h7.4
		c8.2,0,12.2-4.2,14.4-11.2L3443.9,583.8z"/>
	<path class="st1" d="M3560.9,631.6c-0.8-2.4-2-3.6-3.6-3.6c-4,0-8.4,6.8-12.6,15c-0.4,0.8-1.2,1-2,0.6l-2.8-1.4
		c-0.6-0.2-0.6-0.8-0.4-1.6c0.8-2.4,13.6-27,23.4-27c4.2,0,6.4,1.8,9.2,11l6.8,23c8.8-11.2,15.8-21.2,20.8-26.2
		c3.2-3.2,8-7.8,13.8-7.8c3.6,0,5.8,2.8,5.8,6.2c0,6.2-2.4,16.6-5.4,23.6c-0.4,0.8-1,1.2-2,0.8l-2.4-0.8c-1.2-0.4-1.6-0.8-1.4-1.6
		c3.6-10.6,3.2-15.6-0.4-15.6c-4.2,0-15.8,14.6-26.4,27.8l9.4,26.8c1.2,3.4,3.2,5.4,5.2,5.4c4.8,0,12.2-11.4,13-13.6
		c0.2-0.6,0.8-0.6,1.8-0.2l2.4,1.2c0.8,0.4,1,1.2,0.6,2c-2.4,4.4-12.8,23.2-24.4,23.2c-4.2,0-7.4-2.8-9.2-8.6l-8.4-27
		c-12.6,16.8-26.2,35.6-34.8,35.6c-5.2,0-7.4-2.6-7.4-7c0-4.6,2.4-16.2,4.4-21.2c0.2-0.6,0.8-1,1.6-0.8l3,0.8c0.8,0.2,1,0.8,0.8,1.6
		c-4,12.2-0.6,14.4,1.6,14.4c4.6,0,19.2-17.8,28.6-29.8L3560.9,631.6z"/>
	<path class="st1" d="M3665.9,598.4c0.6-1.6,1.2-2.2,2.6-2.8l12.4-4.4c0.4-0.2,1-0.2,1.4-0.2s0.6,0.4,0.6,0.8c0,0.4,0,1-0.4,1.6
		l-9.2,20.8c1.2-0.2,2.6-0.4,4-0.4c1.4-0.2,3-0.2,4-0.2c19,0,27.6,13.6,27.6,26.6c0,14-6.2,28.4-23.8,41.6
		c-8.8,6.4-25.2,13.2-41.6,15l-14.2,39.6c-3.6,10.8-2,13.6,6.4,13.6h5.6c1,0,1.6,1,1.4,1.6l-1.4,4c-0.4,0.6-0.8,1.2-2.4,1.2
		c-2.2,0-8.2-0.6-21-0.6c-13.8,0-19.2,0.6-21.4,0.6c-1.2,0-1.6-0.4-1.4-1.2l1.2-4c0.2-0.8,0.4-1.6,1.4-1.6h4.6
		c7.8,0,11-4.6,15.2-16.2l39.2-107.8c-9.8,2.8-20.6,12.8-24.8,18c-0.6,0.8-1.4,0.6-1.8,0.2l-2.2-2c-0.6-0.6-0.8-1.2-0.2-1.8
		c7-8.4,16.4-17.6,31.8-23.4L3665.9,598.4z M3645.9,690.8c24-3.8,49-21.4,49-46c0-15.4-9.2-23-18-23c-3,0-5,0.4-6.4,0.6
		L3645.9,690.8z"/>
	<path class="st1" d="M3717.1,679.2c0-16.8,11-37.8,25.6-52.2c6.4-6.4,17.2-13.4,26.8-13.4c7.8,0,11.4,5.8,11.4,10.6
		c0,9.8-7.4,20.2-18.6,26c-10.8,5.4-21.6,7.6-29,8.2c-1,2.4-2.6,9-2.6,18.4c0,9,6.6,12.6,10.4,12.6c9.8,0,18.6-7.4,22.8-14.2
		c0.4-0.6,1-1,1.8-0.2l2.2,1.8c1,0.6,1,1.2,0.2,1.8c-5,7-17,20.2-32.4,20.2C3722.7,698.8,3717.1,692.4,3717.1,679.2z M3734.9,652.6
		c7,0.6,33.2-7.8,33.2-22.6c0-4-2-7.6-6.4-7.6C3748.9,622.4,3736.5,645.4,3734.9,652.6z"/>
	<path class="st1" d="M3792.5,696.8c-1.4,0-2.2-0.8-1.8-1.8l11.2-32.4c3.6-11.2,9.8-32.2,9.8-35c0-1.8-1.6-3-3.4-3
		c-4,0-13,9-15.8,12.4c-0.4,0.6-1.2,0.4-1.6,0l-2-2c-0.4-0.4-0.4-1,0-1.6c4.2-6.2,16.2-19.8,29.8-19.8c4,0,5.6,3.4,5.6,7
		c0.2,3.8-3.2,15-7.2,28.4l1,0.4c5.4-11.2,21.4-35.8,32.6-35.8c5.8,0,9.4,3.6,9.4,9c0,5.2-4,9.2-7.8,9.2c-1.8,0-3.4-0.4-5-2
		s-2.6-2.4-5.2-2.4c-5.4,0-16.6,17.2-24.6,30.4c-2.4,3.8-4.8,8.4-7.8,17.4l-6.6,20.2c-0.4,1.4-1,1.4-2.6,1.4L3792.5,696.8
		L3792.5,696.8z"/>
	<path class="st1" d="M3867.3,693.8c0-4.6,3.4-13.8,11.8-36.2l5.8-15.6c2-5.4,3.6-9.4,3.6-11.8c0-1.8-1.2-2.6-2.8-2.6
		c-3.4,0-12.8,10.8-16,14c-0.8,0.8-1.6,0.8-2.2,0.2l-1.6-1.8c-0.8-0.6-1.2-1-0.6-1.8c0.8-1.2,21.2-25.2,34-24.6c2.4,0,4.8,1.6,4.8,5
		c0,3.6-3.2,12.6-6.8,22.2l-11.6,30.4c-2.8,7.4-3.6,11.8-3.6,13.2c0,1.8,0.6,3,2.2,3.4c4.2-0.8,15-12.2,16-14
		c0.4-0.6,1.2-0.6,2.2,0.4l1.6,1.4c0.8,1,1,1.4,0.4,2.4c-1.2,1.6-17.2,20.8-33.8,20.8C3868.7,698.6,3867.3,697,3867.3,693.8z
		 M3892.5,577.2c0-5.4,4.2-10,10.4-10c7,0,10.6,5,10.6,9.6c0,3-2.4,10-10.6,10C3894.1,586.8,3892.5,579.4,3892.5,577.2z"/>
	<path class="st1" d="M3918.5,679.2c0-16.8,11-37.8,25.6-52.2c6.4-6.4,17.2-13.4,26.8-13.4c7.8,0,11.4,5.8,11.4,10.6
		c0,9.8-7.4,20.2-18.6,26c-10.8,5.4-21.6,7.6-29,8.2c-1,2.4-2.6,9-2.6,18.4c0,9,6.6,12.6,10.4,12.6c9.8,0,18.6-7.4,22.8-14.2
		c0.4-0.6,1-1,1.8-0.2l2.2,1.8c1,0.6,1,1.2,0.2,1.8c-5,7-17,20.2-32.4,20.2C3924.1,698.8,3918.5,692.4,3918.5,679.2z M3936.3,652.6
		c7,0.6,33.2-7.8,33.2-22.6c0-4-2-7.6-6.4-7.6C3950.3,622.4,3937.9,645.4,3936.3,652.6z"/>
	<path class="st1" d="M3993.9,696.8c-2.2,0-2.6-0.4-2.2-1.8l14.2-37c4.8-12.4,10.4-26.8,10.4-30.2c0-2-0.8-3.4-3-3.4
		c-3.8,0-13.4,9.6-16.8,13.4c-0.6,0.6-1.2,0.6-2-0.2l-1.8-1.8c-0.8-0.8-1-1.2-0.4-2c3-3.6,17.8-20.2,32.2-20.2c4.6,0,6.4,3.4,6.4,6
		c0,6.2-8.6,25.2-10.2,29.8l0.8,0.4c6-9.6,27.8-36.2,45.6-36.2c6,0,10,3,10,8.2c0,8.8-4.6,19.2-11.2,35.4
		c-5.4,13.2-10.2,24.4-10.2,27.6c0,1.2,0.8,2.6,2.4,2.6c3,0,11.8-7.4,14.4-10.2c0.8-0.6,1.6-0.4,2.2,0.4l1.4,1.6
		c0.8,0.8,1,1.2,0.2,2.2c-2.4,3.2-18.6,17.4-32,17.4c-2.6,0-4.8-1-4.8-4c0-3.8,7.2-19.6,13.4-36.8c2.8-7.8,10-24.4,10-28.8
		c0-2.8-1.4-4.6-5-4.6c-7.8,0-27.6,18.4-36.4,32.6c-3.6,5.8-6.8,11-12,25l-5,13.4c-0.4,0.8-0.8,1.2-2.8,1.2L3993.9,696.8
		L3993.9,696.8z"/>
	<path class="st1" d="M4091.9,680.4c0-27.2,22.2-66.8,45.4-66.8c9.4,0,11.4,7.6,11.4,11.2c0,4.8-4.6,8.4-8.2,8.4
		c-2.6,0-4.4-1.4-5.2-4.4c-0.6-2.2-3-5.2-6.2-5.2c-5,0-10.2,4.8-14.6,13.8c-5.4,11.6-8.6,28.8-8.6,35c0,14.6,4.4,16.6,8,16.6
		c7.8,0,15.4-8,17.6-10.8c0.6-0.8,1.2-1.2,1.8-0.8l2.2,2c0.6,0.4,1,1,0.2,2.2c-2.8,4.2-16,17.2-28.8,17.2
		C4099.9,698.8,4091.9,693.8,4091.9,680.4z"/>
	<path class="st1" d="M4152.5,679.2c0-16.8,11-37.8,25.6-52.2c6.4-6.4,17.2-13.4,26.8-13.4c7.8,0,11.4,5.8,11.4,10.6
		c0,9.8-7.4,20.2-18.6,26c-10.8,5.4-21.6,7.6-29,8.2c-1,2.4-2.6,9-2.6,18.4c0,9,6.6,12.6,10.4,12.6c9.8,0,18.6-7.4,22.8-14.2
		c0.4-0.6,1-1,1.8-0.2l2.2,1.8c1,0.6,1,1.2,0.2,1.8c-5,7-17,20.2-32.4,20.2C4158.1,698.8,4152.5,692.4,4152.5,679.2z M4170.3,652.6
		c7,0.6,33.2-7.8,33.2-22.6c0-4-2-7.6-6.4-7.6C4184.3,622.4,4171.9,645.4,4170.3,652.6z"/>
</g>
</svg>
