<?xml version="1.0" encoding="utf-8"?>
<!-- Generator: Adobe Illustrator 21.0.0, SVG Export Plug-In . SVG Version: 6.00 Build 0)  -->
<svg version="1.1" id="Layer_1" xmlns="http://www.w3.org/2000/svg" xmlns:xlink="http://www.w3.org/1999/xlink" x="0px" y="0px"
	 viewBox="0 0 30.3 100" style="enable-background:new 0 0 30.3 100;" xml:space="preserve">
<style type="text/css">
	.st0{fill:#A7A9AB;}
</style>
<g>
	<polygon class="st0" points="0.2,0 0,0.6 0,4.3 1.2,0 	"/>
	<polygon class="st0" points="5.2,0 0,18.9 0,22.6 6.2,0 	"/>
	<polygon class="st0" points="10.3,0 0,37.3 0,40.9 11.3,0 	"/>
	<polygon class="st0" points="15.3,0 0,55.6 0,59.2 16.3,0 	"/>
	<polygon class="st0" points="20.4,0 0,73.9 0,77.6 21.4,0 	"/>
	<polygon class="st0" points="25.4,0 0,92.2 0,95.9 26.4,0 	"/>
	<polygon class="st0" points="30.3,4.3 30.3,0.6 2.9,100 3.9,100 	"/>
	<polygon class="st0" points="9,100 30.3,22.6 30.3,18.9 8,100 	"/>
	<polygon class="st0" points="14,100 30.3,40.9 30.3,37.3 13,100 	"/>
	<polygon class="st0" points="19.1,100 30.3,59.2 30.3,55.6 18,100 	"/>
	<polygon class="st0" points="24.1,100 30.3,77.6 30.3,73.9 23.1,100 	"/>
	<polygon class="st0" points="29.1,100 30.3,95.9 30.3,92.2 28.1,100 	"/>
</g>
</svg>
